G04 Layer_Color=8421504*
%FSLAX25Y25*%
%MOIN*%
G70*
G01*
G75*
G04:AMPARAMS|DCode=10|XSize=21.65mil|YSize=31.5mil|CornerRadius=1.95mil|HoleSize=0mil|Usage=FLASHONLY|Rotation=0.000|XOffset=0mil|YOffset=0mil|HoleType=Round|Shape=RoundedRectangle|*
%AMROUNDEDRECTD10*
21,1,0.02165,0.02760,0,0,0.0*
21,1,0.01776,0.03150,0,0,0.0*
1,1,0.00390,0.00888,-0.01380*
1,1,0.00390,-0.00888,-0.01380*
1,1,0.00390,-0.00888,0.01380*
1,1,0.00390,0.00888,0.01380*
%
%ADD10ROUNDEDRECTD10*%
%ADD11R,0.03937X0.05512*%
%ADD12R,0.04724X0.05709*%
%ADD13R,0.05709X0.04724*%
%ADD14O,0.07480X0.02362*%
%ADD15R,0.07874X0.04724*%
G04:AMPARAMS|DCode=16|XSize=39.37mil|YSize=80.71mil|CornerRadius=1.97mil|HoleSize=0mil|Usage=FLASHONLY|Rotation=0.000|XOffset=0mil|YOffset=0mil|HoleType=Round|Shape=RoundedRectangle|*
%AMROUNDEDRECTD16*
21,1,0.03937,0.07677,0,0,0.0*
21,1,0.03543,0.08071,0,0,0.0*
1,1,0.00394,0.01772,-0.03839*
1,1,0.00394,-0.01772,-0.03839*
1,1,0.00394,-0.01772,0.03839*
1,1,0.00394,0.01772,0.03839*
%
%ADD16ROUNDEDRECTD16*%
G04:AMPARAMS|DCode=17|XSize=127.95mil|YSize=80.71mil|CornerRadius=2.02mil|HoleSize=0mil|Usage=FLASHONLY|Rotation=0.000|XOffset=0mil|YOffset=0mil|HoleType=Round|Shape=RoundedRectangle|*
%AMROUNDEDRECTD17*
21,1,0.12795,0.07667,0,0,0.0*
21,1,0.12392,0.08071,0,0,0.0*
1,1,0.00404,0.06196,-0.03834*
1,1,0.00404,-0.06196,-0.03834*
1,1,0.00404,-0.06196,0.03834*
1,1,0.00404,0.06196,0.03834*
%
%ADD17ROUNDEDRECTD17*%
%ADD18R,0.03740X0.06693*%
%ADD19R,0.06693X0.03740*%
%ADD22C,0.01000*%
%ADD23C,0.00236*%
%ADD24C,0.00800*%
D10*
X122740Y-683945D02*
D03*
X115260D02*
D03*
X119000Y-692606D02*
D03*
X120740Y-600669D02*
D03*
X113260D02*
D03*
X117000Y-609331D02*
D03*
X121740Y-515669D02*
D03*
X114260D02*
D03*
X118000Y-524331D02*
D03*
X119740Y-428669D02*
D03*
X112260D02*
D03*
X116000Y-437331D02*
D03*
X120740Y-343669D02*
D03*
X113260D02*
D03*
X117000Y-352331D02*
D03*
X120740Y-264669D02*
D03*
X113260D02*
D03*
X117000Y-273331D02*
D03*
X121740Y-184669D02*
D03*
X114260D02*
D03*
X118000Y-193331D02*
D03*
X119740Y-107669D02*
D03*
X112260D02*
D03*
X116000Y-116331D02*
D03*
D11*
X105740Y-684669D02*
D03*
X98260D02*
D03*
X102000Y-693331D02*
D03*
X101740Y-601669D02*
D03*
X94260D02*
D03*
X98000Y-610331D02*
D03*
X101740Y-515669D02*
D03*
X94260D02*
D03*
X98000Y-524331D02*
D03*
X103740Y-429339D02*
D03*
X96260D02*
D03*
X100000Y-438000D02*
D03*
Y-353000D02*
D03*
X96260Y-344339D02*
D03*
X103740D02*
D03*
X101000Y-273331D02*
D03*
X97260Y-264669D02*
D03*
X104740D02*
D03*
X101000Y-195000D02*
D03*
X97260Y-186339D02*
D03*
X104740D02*
D03*
X100000Y-116331D02*
D03*
X96260Y-107669D02*
D03*
X103740D02*
D03*
D12*
X96874Y-712000D02*
D03*
X89000D02*
D03*
X95937Y-627000D02*
D03*
X88063D02*
D03*
X96937Y-541000D02*
D03*
X89063D02*
D03*
X95874Y-459000D02*
D03*
X88000D02*
D03*
X89000Y-372000D02*
D03*
X96874D02*
D03*
X94063Y-288000D02*
D03*
X101937D02*
D03*
X87063Y-206000D02*
D03*
X94937D02*
D03*
X85000Y-125000D02*
D03*
X92874D02*
D03*
D13*
X20000Y-702937D02*
D03*
Y-695063D02*
D03*
X30000Y-702937D02*
D03*
Y-695063D02*
D03*
X40000Y-702937D02*
D03*
Y-695063D02*
D03*
X47000Y-719937D02*
D03*
Y-712063D02*
D03*
X19000Y-619937D02*
D03*
Y-612063D02*
D03*
X39000Y-619937D02*
D03*
Y-612063D02*
D03*
X29000Y-619937D02*
D03*
Y-612063D02*
D03*
X47000Y-636937D02*
D03*
Y-629063D02*
D03*
X20000Y-536937D02*
D03*
Y-529063D02*
D03*
X40000Y-536937D02*
D03*
Y-529063D02*
D03*
X48000Y-550937D02*
D03*
Y-543063D02*
D03*
X30000Y-536937D02*
D03*
Y-529063D02*
D03*
Y-450937D02*
D03*
Y-443063D02*
D03*
X47000Y-466000D02*
D03*
Y-458126D02*
D03*
X40000Y-451000D02*
D03*
Y-443126D02*
D03*
X20000Y-450874D02*
D03*
Y-443000D02*
D03*
X40000Y-355063D02*
D03*
Y-362937D02*
D03*
X30000Y-355063D02*
D03*
Y-362937D02*
D03*
X20000Y-355063D02*
D03*
Y-362937D02*
D03*
X48000Y-375126D02*
D03*
Y-383000D02*
D03*
X40000Y-274063D02*
D03*
Y-281937D02*
D03*
X30000Y-274126D02*
D03*
Y-282000D02*
D03*
X20000Y-274063D02*
D03*
Y-281937D02*
D03*
X50000Y-287063D02*
D03*
Y-294937D02*
D03*
Y-208126D02*
D03*
Y-216000D02*
D03*
X40000Y-194063D02*
D03*
Y-201937D02*
D03*
X30000Y-194063D02*
D03*
Y-201937D02*
D03*
X20000Y-194126D02*
D03*
Y-202000D02*
D03*
X19000Y-117126D02*
D03*
Y-125000D02*
D03*
X49000Y-130063D02*
D03*
Y-137937D02*
D03*
X29000Y-117063D02*
D03*
Y-124937D02*
D03*
X39000Y-117063D02*
D03*
Y-124937D02*
D03*
D14*
X75252Y-714500D02*
D03*
Y-709500D02*
D03*
Y-704500D02*
D03*
Y-699500D02*
D03*
X56748Y-714500D02*
D03*
Y-709500D02*
D03*
Y-704500D02*
D03*
Y-699500D02*
D03*
X75252Y-630500D02*
D03*
Y-625500D02*
D03*
Y-620500D02*
D03*
Y-615500D02*
D03*
X56748Y-630500D02*
D03*
Y-625500D02*
D03*
Y-620500D02*
D03*
Y-615500D02*
D03*
X75252Y-546500D02*
D03*
Y-541500D02*
D03*
Y-536500D02*
D03*
Y-531500D02*
D03*
X56748Y-546500D02*
D03*
Y-541500D02*
D03*
Y-536500D02*
D03*
Y-531500D02*
D03*
X76252Y-461500D02*
D03*
Y-456500D02*
D03*
Y-451500D02*
D03*
Y-446500D02*
D03*
X57748Y-461500D02*
D03*
Y-456500D02*
D03*
Y-451500D02*
D03*
Y-446500D02*
D03*
X59748Y-275500D02*
D03*
Y-280500D02*
D03*
Y-285500D02*
D03*
Y-290500D02*
D03*
X78252Y-275500D02*
D03*
Y-280500D02*
D03*
Y-285500D02*
D03*
Y-290500D02*
D03*
X59748Y-195500D02*
D03*
Y-200500D02*
D03*
Y-205500D02*
D03*
Y-210500D02*
D03*
X78252Y-195500D02*
D03*
Y-200500D02*
D03*
Y-205500D02*
D03*
Y-210500D02*
D03*
X58248Y-114500D02*
D03*
Y-119500D02*
D03*
Y-124500D02*
D03*
Y-129500D02*
D03*
X76752Y-114500D02*
D03*
Y-119500D02*
D03*
Y-124500D02*
D03*
Y-129500D02*
D03*
X58748Y-361500D02*
D03*
Y-366500D02*
D03*
Y-371500D02*
D03*
Y-376500D02*
D03*
X77252Y-361500D02*
D03*
Y-366500D02*
D03*
Y-371500D02*
D03*
Y-376500D02*
D03*
D15*
X97672Y-54441D02*
D03*
X108696D02*
D03*
D16*
X90251Y-29441D02*
D03*
X81196D02*
D03*
X72141D02*
D03*
D17*
X81196Y-54441D02*
D03*
D18*
X95944Y-63441D02*
D03*
X106967D02*
D03*
D19*
X40000Y-26000D02*
D03*
Y-37024D02*
D03*
D22*
X0Y-736221D02*
X141732D01*
Y0D01*
X0D02*
X141732D01*
X0Y-736221D02*
Y0D01*
D23*
X119878Y-686276D02*
X118730D01*
X118500Y-686505D01*
Y-686964D01*
X118730Y-687194D01*
X119878D01*
X118500Y-688571D02*
Y-687653D01*
X119418Y-688571D01*
X119648D01*
X119878Y-688342D01*
Y-687883D01*
X119648Y-687653D01*
X118270Y-689031D02*
Y-689949D01*
X119878Y-690408D02*
X118500D01*
X119189D01*
Y-691326D01*
X119878D01*
X118500D01*
X117877Y-603000D02*
X116730D01*
X116500Y-603230D01*
Y-603689D01*
X116730Y-603918D01*
X117877D01*
X116500Y-605296D02*
Y-604378D01*
X117418Y-605296D01*
X117648D01*
X117877Y-605066D01*
Y-604607D01*
X117648Y-604378D01*
X116270Y-605755D02*
Y-606673D01*
X117648Y-608051D02*
X117877Y-607821D01*
Y-607362D01*
X117648Y-607132D01*
X116730D01*
X116500Y-607362D01*
Y-607821D01*
X116730Y-608051D01*
X117189D01*
Y-607592D01*
X118877Y-518000D02*
X117730D01*
X117500Y-518230D01*
Y-518689D01*
X117730Y-518918D01*
X118877D01*
X117500Y-520296D02*
Y-519378D01*
X118418Y-520296D01*
X118648D01*
X118877Y-520066D01*
Y-519607D01*
X118648Y-519378D01*
X117270Y-520755D02*
Y-521673D01*
X118877Y-523051D02*
Y-522132D01*
X118189D01*
Y-522592D01*
Y-522132D01*
X117500D01*
X116877Y-431000D02*
X115730D01*
X115500Y-431230D01*
Y-431689D01*
X115730Y-431918D01*
X116877D01*
X115500Y-433296D02*
Y-432377D01*
X116418Y-433296D01*
X116648D01*
X116877Y-433066D01*
Y-432607D01*
X116648Y-432377D01*
X115270Y-433755D02*
Y-434673D01*
X116877Y-436051D02*
Y-435133D01*
X115500D01*
Y-436051D01*
X116189Y-435133D02*
Y-435592D01*
X117877Y-346000D02*
X116730D01*
X116500Y-346230D01*
Y-346689D01*
X116730Y-346918D01*
X117877D01*
X116500Y-348296D02*
Y-347377D01*
X117418Y-348296D01*
X117648D01*
X117877Y-348066D01*
Y-347607D01*
X117648Y-347377D01*
X116270Y-348755D02*
Y-349673D01*
X117877Y-350132D02*
X116500D01*
Y-350821D01*
X116730Y-351051D01*
X117648D01*
X117877Y-350821D01*
Y-350132D01*
Y-267000D02*
X116730D01*
X116500Y-267230D01*
Y-267689D01*
X116730Y-267918D01*
X117877D01*
X116500Y-269296D02*
Y-268377D01*
X117418Y-269296D01*
X117648D01*
X117877Y-269066D01*
Y-268607D01*
X117648Y-268377D01*
X116270Y-269755D02*
Y-270673D01*
X117648Y-272051D02*
X117877Y-271821D01*
Y-271362D01*
X117648Y-271132D01*
X116730D01*
X116500Y-271362D01*
Y-271821D01*
X116730Y-272051D01*
X118877Y-187000D02*
X117730D01*
X117500Y-187230D01*
Y-187689D01*
X117730Y-187918D01*
X118877D01*
X117500Y-189296D02*
Y-188377D01*
X118418Y-189296D01*
X118648D01*
X118877Y-189066D01*
Y-188607D01*
X118648Y-188377D01*
X117270Y-189755D02*
Y-190673D01*
X118877Y-191132D02*
X117500D01*
Y-191821D01*
X117730Y-192051D01*
X117959D01*
X118189Y-191821D01*
Y-191132D01*
Y-191821D01*
X118418Y-192051D01*
X118648D01*
X118877Y-191821D01*
Y-191132D01*
X116877Y-110000D02*
X115730D01*
X115500Y-110230D01*
Y-110689D01*
X115730Y-110918D01*
X116877D01*
X115500Y-112296D02*
Y-111378D01*
X116418Y-112296D01*
X116648D01*
X116877Y-112066D01*
Y-111607D01*
X116648Y-111378D01*
X115270Y-112755D02*
Y-113673D01*
X115500Y-114132D02*
X116418D01*
X116877Y-114592D01*
X116418Y-115051D01*
X115500D01*
X116189D01*
Y-114132D01*
D24*
X83195Y-35441D02*
X80279D01*
X79696Y-36024D01*
Y-37190D01*
X80279Y-37774D01*
X83195D01*
X79696Y-38940D02*
Y-40106D01*
Y-39523D01*
X83195D01*
X82612Y-38940D01*
Y-41856D02*
X83195Y-42439D01*
Y-43605D01*
X82612Y-44188D01*
X80279D01*
X79696Y-43605D01*
Y-42439D01*
X80279Y-41856D01*
X82612D01*
X79696Y-47687D02*
Y-45355D01*
X82028Y-47687D01*
X82612D01*
X83195Y-47104D01*
Y-45938D01*
X82612Y-45355D01*
M02*
