G04 Layer_Color=8388736*
%FSLAX25Y25*%
%MOIN*%
G70*
G01*
G75*
%ADD22C,0.01000*%
%ADD23C,0.00236*%
%ADD24C,0.00800*%
G04:AMPARAMS|DCode=39|XSize=29.65mil|YSize=39.5mil|CornerRadius=5.95mil|HoleSize=0mil|Usage=FLASHONLY|Rotation=0.000|XOffset=0mil|YOffset=0mil|HoleType=Round|Shape=RoundedRectangle|*
%AMROUNDEDRECTD39*
21,1,0.02965,0.02760,0,0,0.0*
21,1,0.01776,0.03950,0,0,0.0*
1,1,0.01190,0.00888,-0.01380*
1,1,0.01190,-0.00888,-0.01380*
1,1,0.01190,-0.00888,0.01380*
1,1,0.01190,0.00888,0.01380*
%
%ADD39ROUNDEDRECTD39*%
%ADD40R,0.04737X0.06312*%
%ADD41R,0.05524X0.06509*%
%ADD42R,0.06509X0.05524*%
%ADD43O,0.08280X0.03162*%
%ADD44R,0.08674X0.05524*%
G04:AMPARAMS|DCode=45|XSize=47.37mil|YSize=88.71mil|CornerRadius=5.97mil|HoleSize=0mil|Usage=FLASHONLY|Rotation=0.000|XOffset=0mil|YOffset=0mil|HoleType=Round|Shape=RoundedRectangle|*
%AMROUNDEDRECTD45*
21,1,0.04737,0.07677,0,0,0.0*
21,1,0.03543,0.08871,0,0,0.0*
1,1,0.01194,0.01772,-0.03839*
1,1,0.01194,-0.01772,-0.03839*
1,1,0.01194,-0.01772,0.03839*
1,1,0.01194,0.01772,0.03839*
%
%ADD45ROUNDEDRECTD45*%
G04:AMPARAMS|DCode=46|XSize=135.95mil|YSize=88.71mil|CornerRadius=6.02mil|HoleSize=0mil|Usage=FLASHONLY|Rotation=0.000|XOffset=0mil|YOffset=0mil|HoleType=Round|Shape=RoundedRectangle|*
%AMROUNDEDRECTD46*
21,1,0.13595,0.07667,0,0,0.0*
21,1,0.12392,0.08871,0,0,0.0*
1,1,0.01204,0.06196,-0.03834*
1,1,0.01204,-0.06196,-0.03834*
1,1,0.01204,-0.06196,0.03834*
1,1,0.01204,0.06196,0.03834*
%
%ADD46ROUNDEDRECTD46*%
%ADD47R,0.04540X0.07493*%
%ADD48R,0.07493X0.04540*%
%ADD49C,0.13800*%
%ADD50C,0.07099*%
%ADD51R,0.07099X0.07099*%
%ADD52R,0.07099X0.07099*%
%ADD53C,0.04737*%
%ADD54C,0.03556*%
D22*
X0Y-736221D02*
X141732D01*
Y0D01*
X0D02*
X141732D01*
X0Y-736221D02*
Y0D01*
D23*
X119878Y-686276D02*
X118730D01*
X118500Y-686505D01*
Y-686964D01*
X118730Y-687194D01*
X119878D01*
X118500Y-688571D02*
Y-687653D01*
X119418Y-688571D01*
X119648D01*
X119878Y-688342D01*
Y-687883D01*
X119648Y-687653D01*
X118270Y-689031D02*
Y-689949D01*
X119878Y-690408D02*
X118500D01*
X119189D01*
Y-691326D01*
X119878D01*
X118500D01*
X117877Y-603000D02*
X116730D01*
X116500Y-603230D01*
Y-603689D01*
X116730Y-603918D01*
X117877D01*
X116500Y-605296D02*
Y-604378D01*
X117418Y-605296D01*
X117648D01*
X117877Y-605066D01*
Y-604607D01*
X117648Y-604378D01*
X116270Y-605755D02*
Y-606673D01*
X117648Y-608051D02*
X117877Y-607821D01*
Y-607362D01*
X117648Y-607132D01*
X116730D01*
X116500Y-607362D01*
Y-607821D01*
X116730Y-608051D01*
X117189D01*
Y-607592D01*
X118877Y-518000D02*
X117730D01*
X117500Y-518230D01*
Y-518689D01*
X117730Y-518918D01*
X118877D01*
X117500Y-520296D02*
Y-519378D01*
X118418Y-520296D01*
X118648D01*
X118877Y-520066D01*
Y-519607D01*
X118648Y-519378D01*
X117270Y-520755D02*
Y-521673D01*
X118877Y-523051D02*
Y-522132D01*
X118189D01*
Y-522592D01*
Y-522132D01*
X117500D01*
X116877Y-431000D02*
X115730D01*
X115500Y-431230D01*
Y-431689D01*
X115730Y-431918D01*
X116877D01*
X115500Y-433296D02*
Y-432377D01*
X116418Y-433296D01*
X116648D01*
X116877Y-433066D01*
Y-432607D01*
X116648Y-432377D01*
X115270Y-433755D02*
Y-434673D01*
X116877Y-436051D02*
Y-435133D01*
X115500D01*
Y-436051D01*
X116189Y-435133D02*
Y-435592D01*
X117877Y-346000D02*
X116730D01*
X116500Y-346230D01*
Y-346689D01*
X116730Y-346918D01*
X117877D01*
X116500Y-348296D02*
Y-347377D01*
X117418Y-348296D01*
X117648D01*
X117877Y-348066D01*
Y-347607D01*
X117648Y-347377D01*
X116270Y-348755D02*
Y-349673D01*
X117877Y-350132D02*
X116500D01*
Y-350821D01*
X116730Y-351051D01*
X117648D01*
X117877Y-350821D01*
Y-350132D01*
Y-267000D02*
X116730D01*
X116500Y-267230D01*
Y-267689D01*
X116730Y-267918D01*
X117877D01*
X116500Y-269296D02*
Y-268377D01*
X117418Y-269296D01*
X117648D01*
X117877Y-269066D01*
Y-268607D01*
X117648Y-268377D01*
X116270Y-269755D02*
Y-270673D01*
X117648Y-272051D02*
X117877Y-271821D01*
Y-271362D01*
X117648Y-271132D01*
X116730D01*
X116500Y-271362D01*
Y-271821D01*
X116730Y-272051D01*
X118877Y-187000D02*
X117730D01*
X117500Y-187230D01*
Y-187689D01*
X117730Y-187918D01*
X118877D01*
X117500Y-189296D02*
Y-188377D01*
X118418Y-189296D01*
X118648D01*
X118877Y-189066D01*
Y-188607D01*
X118648Y-188377D01*
X117270Y-189755D02*
Y-190673D01*
X118877Y-191132D02*
X117500D01*
Y-191821D01*
X117730Y-192051D01*
X117959D01*
X118189Y-191821D01*
Y-191132D01*
Y-191821D01*
X118418Y-192051D01*
X118648D01*
X118877Y-191821D01*
Y-191132D01*
X116877Y-110000D02*
X115730D01*
X115500Y-110230D01*
Y-110689D01*
X115730Y-110918D01*
X116877D01*
X115500Y-112296D02*
Y-111378D01*
X116418Y-112296D01*
X116648D01*
X116877Y-112066D01*
Y-111607D01*
X116648Y-111378D01*
X115270Y-112755D02*
Y-113673D01*
X115500Y-114132D02*
X116418D01*
X116877Y-114592D01*
X116418Y-115051D01*
X115500D01*
X116189D01*
Y-114132D01*
D24*
X83195Y-35441D02*
X80279D01*
X79696Y-36024D01*
Y-37190D01*
X80279Y-37774D01*
X83195D01*
X79696Y-38940D02*
Y-40106D01*
Y-39523D01*
X83195D01*
X82612Y-38940D01*
Y-41856D02*
X83195Y-42439D01*
Y-43605D01*
X82612Y-44188D01*
X80279D01*
X79696Y-43605D01*
Y-42439D01*
X80279Y-41856D01*
X82612D01*
X79696Y-47687D02*
Y-45355D01*
X82028Y-47687D01*
X82612D01*
X83195Y-47104D01*
Y-45938D01*
X82612Y-45355D01*
D39*
X122740Y-683945D02*
D03*
X115260D02*
D03*
X119000Y-692606D02*
D03*
X120740Y-600669D02*
D03*
X113260D02*
D03*
X117000Y-609331D02*
D03*
X121740Y-515669D02*
D03*
X114260D02*
D03*
X118000Y-524331D02*
D03*
X119740Y-428669D02*
D03*
X112260D02*
D03*
X116000Y-437331D02*
D03*
X120740Y-343669D02*
D03*
X113260D02*
D03*
X117000Y-352331D02*
D03*
X120740Y-264669D02*
D03*
X113260D02*
D03*
X117000Y-273331D02*
D03*
X121740Y-184669D02*
D03*
X114260D02*
D03*
X118000Y-193331D02*
D03*
X119740Y-107669D02*
D03*
X112260D02*
D03*
X116000Y-116331D02*
D03*
D40*
X105740Y-684669D02*
D03*
X98260D02*
D03*
X102000Y-693331D02*
D03*
X101740Y-601669D02*
D03*
X94260D02*
D03*
X98000Y-610331D02*
D03*
X101740Y-515669D02*
D03*
X94260D02*
D03*
X98000Y-524331D02*
D03*
X103740Y-429339D02*
D03*
X96260D02*
D03*
X100000Y-438000D02*
D03*
Y-353000D02*
D03*
X96260Y-344339D02*
D03*
X103740D02*
D03*
X101000Y-273331D02*
D03*
X97260Y-264669D02*
D03*
X104740D02*
D03*
X101000Y-195000D02*
D03*
X97260Y-186339D02*
D03*
X104740D02*
D03*
X100000Y-116331D02*
D03*
X96260Y-107669D02*
D03*
X103740D02*
D03*
D41*
X96874Y-712000D02*
D03*
X89000D02*
D03*
X95937Y-627000D02*
D03*
X88063D02*
D03*
X96937Y-541000D02*
D03*
X89063D02*
D03*
X95874Y-459000D02*
D03*
X88000D02*
D03*
X89000Y-372000D02*
D03*
X96874D02*
D03*
X94063Y-288000D02*
D03*
X101937D02*
D03*
X87063Y-206000D02*
D03*
X94937D02*
D03*
X85000Y-125000D02*
D03*
X92874D02*
D03*
D42*
X20000Y-702937D02*
D03*
Y-695063D02*
D03*
X30000Y-702937D02*
D03*
Y-695063D02*
D03*
X40000Y-702937D02*
D03*
Y-695063D02*
D03*
X47000Y-719937D02*
D03*
Y-712063D02*
D03*
X19000Y-619937D02*
D03*
Y-612063D02*
D03*
X39000Y-619937D02*
D03*
Y-612063D02*
D03*
X29000Y-619937D02*
D03*
Y-612063D02*
D03*
X47000Y-636937D02*
D03*
Y-629063D02*
D03*
X20000Y-536937D02*
D03*
Y-529063D02*
D03*
X40000Y-536937D02*
D03*
Y-529063D02*
D03*
X48000Y-550937D02*
D03*
Y-543063D02*
D03*
X30000Y-536937D02*
D03*
Y-529063D02*
D03*
Y-450937D02*
D03*
Y-443063D02*
D03*
X47000Y-466000D02*
D03*
Y-458126D02*
D03*
X40000Y-451000D02*
D03*
Y-443126D02*
D03*
X20000Y-450874D02*
D03*
Y-443000D02*
D03*
X40000Y-355063D02*
D03*
Y-362937D02*
D03*
X30000Y-355063D02*
D03*
Y-362937D02*
D03*
X20000Y-355063D02*
D03*
Y-362937D02*
D03*
X48000Y-375126D02*
D03*
Y-383000D02*
D03*
X40000Y-274063D02*
D03*
Y-281937D02*
D03*
X30000Y-274126D02*
D03*
Y-282000D02*
D03*
X20000Y-274063D02*
D03*
Y-281937D02*
D03*
X50000Y-287063D02*
D03*
Y-294937D02*
D03*
Y-208126D02*
D03*
Y-216000D02*
D03*
X40000Y-194063D02*
D03*
Y-201937D02*
D03*
X30000Y-194063D02*
D03*
Y-201937D02*
D03*
X20000Y-194126D02*
D03*
Y-202000D02*
D03*
X19000Y-117126D02*
D03*
Y-125000D02*
D03*
X49000Y-130063D02*
D03*
Y-137937D02*
D03*
X29000Y-117063D02*
D03*
Y-124937D02*
D03*
X39000Y-117063D02*
D03*
Y-124937D02*
D03*
D43*
X75252Y-714500D02*
D03*
Y-709500D02*
D03*
Y-704500D02*
D03*
Y-699500D02*
D03*
X56748Y-714500D02*
D03*
Y-709500D02*
D03*
Y-704500D02*
D03*
Y-699500D02*
D03*
X75252Y-630500D02*
D03*
Y-625500D02*
D03*
Y-620500D02*
D03*
Y-615500D02*
D03*
X56748Y-630500D02*
D03*
Y-625500D02*
D03*
Y-620500D02*
D03*
Y-615500D02*
D03*
X75252Y-546500D02*
D03*
Y-541500D02*
D03*
Y-536500D02*
D03*
Y-531500D02*
D03*
X56748Y-546500D02*
D03*
Y-541500D02*
D03*
Y-536500D02*
D03*
Y-531500D02*
D03*
X76252Y-461500D02*
D03*
Y-456500D02*
D03*
Y-451500D02*
D03*
Y-446500D02*
D03*
X57748Y-461500D02*
D03*
Y-456500D02*
D03*
Y-451500D02*
D03*
Y-446500D02*
D03*
X59748Y-275500D02*
D03*
Y-280500D02*
D03*
Y-285500D02*
D03*
Y-290500D02*
D03*
X78252Y-275500D02*
D03*
Y-280500D02*
D03*
Y-285500D02*
D03*
Y-290500D02*
D03*
X59748Y-195500D02*
D03*
Y-200500D02*
D03*
Y-205500D02*
D03*
Y-210500D02*
D03*
X78252Y-195500D02*
D03*
Y-200500D02*
D03*
Y-205500D02*
D03*
Y-210500D02*
D03*
X58248Y-114500D02*
D03*
Y-119500D02*
D03*
Y-124500D02*
D03*
Y-129500D02*
D03*
X76752Y-114500D02*
D03*
Y-119500D02*
D03*
Y-124500D02*
D03*
Y-129500D02*
D03*
X58748Y-361500D02*
D03*
Y-366500D02*
D03*
Y-371500D02*
D03*
Y-376500D02*
D03*
X77252Y-361500D02*
D03*
Y-366500D02*
D03*
Y-371500D02*
D03*
Y-376500D02*
D03*
D44*
X97672Y-54441D02*
D03*
X108696D02*
D03*
D45*
X90251Y-29441D02*
D03*
X81196D02*
D03*
X72141D02*
D03*
D46*
X81196Y-54441D02*
D03*
D47*
X95944Y-63441D02*
D03*
X106967D02*
D03*
D48*
X40000Y-26000D02*
D03*
Y-37024D02*
D03*
D49*
X129921Y-725000D02*
D03*
X11811D02*
D03*
X129921Y-11811D02*
D03*
X11811D02*
D03*
D50*
X135000Y-695000D02*
D03*
X6000D02*
D03*
X135000Y-610000D02*
D03*
X6000D02*
D03*
X135000Y-525000D02*
D03*
X6000Y-526000D02*
D03*
X135000Y-440000D02*
D03*
X6000D02*
D03*
X32000Y-672013D02*
D03*
Y-658000D02*
D03*
X56000D02*
D03*
X46000Y-672013D02*
D03*
X32000Y-587000D02*
D03*
Y-573000D02*
D03*
X56000D02*
D03*
X46000Y-587000D02*
D03*
X32000Y-502000D02*
D03*
Y-488000D02*
D03*
X56000D02*
D03*
X46476Y-502000D02*
D03*
X32000Y-417000D02*
D03*
Y-403000D02*
D03*
X56000D02*
D03*
X46000Y-417000D02*
D03*
X135000Y-355000D02*
D03*
X7000D02*
D03*
X134000Y-275000D02*
D03*
X6000D02*
D03*
X134000Y-195000D02*
D03*
X6000D02*
D03*
X29000Y-12000D02*
D03*
X6000Y-117000D02*
D03*
X32000Y-81000D02*
D03*
Y-95000D02*
D03*
X56476Y-81000D02*
D03*
X46476Y-95000D02*
D03*
X135000Y-117000D02*
D03*
X32000Y-159000D02*
D03*
Y-239000D02*
D03*
Y-318000D02*
D03*
Y-173000D02*
D03*
Y-253000D02*
D03*
Y-332000D02*
D03*
X56476Y-159000D02*
D03*
X56000Y-239000D02*
D03*
Y-318000D02*
D03*
X46476Y-173000D02*
D03*
X46000Y-253000D02*
D03*
Y-332000D02*
D03*
D51*
X135000Y-705000D02*
D03*
X6000D02*
D03*
X135000Y-620000D02*
D03*
X6000D02*
D03*
X135000Y-535000D02*
D03*
X6000Y-536000D02*
D03*
X135000Y-450000D02*
D03*
X6000D02*
D03*
X135000Y-365000D02*
D03*
X7000D02*
D03*
X134000Y-285000D02*
D03*
X6000D02*
D03*
X134000Y-205000D02*
D03*
X6000D02*
D03*
Y-127000D02*
D03*
X135000D02*
D03*
D52*
X22000Y-672013D02*
D03*
Y-658000D02*
D03*
X46000D02*
D03*
X56000Y-672013D02*
D03*
X22000Y-587000D02*
D03*
Y-573000D02*
D03*
X46000D02*
D03*
X56000Y-587000D02*
D03*
X22000Y-502000D02*
D03*
Y-488000D02*
D03*
X46000D02*
D03*
X56476Y-502000D02*
D03*
X22000Y-417000D02*
D03*
Y-403000D02*
D03*
X46000D02*
D03*
X56000Y-417000D02*
D03*
X39000Y-12000D02*
D03*
X22000Y-81000D02*
D03*
Y-95000D02*
D03*
X46476Y-81000D02*
D03*
X56476Y-95000D02*
D03*
X22000Y-159000D02*
D03*
Y-239000D02*
D03*
Y-318000D02*
D03*
Y-173000D02*
D03*
Y-253000D02*
D03*
Y-332000D02*
D03*
X46476Y-159000D02*
D03*
X46000Y-239000D02*
D03*
Y-318000D02*
D03*
X56476Y-173000D02*
D03*
X56000Y-253000D02*
D03*
Y-332000D02*
D03*
D53*
X30000Y-725000D02*
D03*
X136000Y-593000D02*
D03*
X30000Y-716000D02*
D03*
X40000Y-683000D02*
D03*
X54000Y-716000D02*
D03*
X47000Y-723000D02*
D03*
X72000Y-725000D02*
D03*
X110000Y-706000D02*
D03*
X119072Y-720500D02*
D03*
X137000Y-675000D02*
D03*
X118000Y-695000D02*
D03*
X107000Y-682000D02*
D03*
X68000Y-692000D02*
D03*
X69000Y-608000D02*
D03*
X20000Y-637000D02*
D03*
X57000Y-602000D02*
D03*
X133000Y-639000D02*
D03*
X109000Y-637000D02*
D03*
X117000Y-612063D02*
D03*
X102000Y-599000D02*
D03*
X55000Y-632000D02*
D03*
X48000Y-640000D02*
D03*
X39000Y-515000D02*
D03*
X68000Y-555000D02*
D03*
X136000Y-554000D02*
D03*
X109000Y-552000D02*
D03*
X137000Y-505000D02*
D03*
X135000Y-511000D02*
D03*
X118000Y-527000D02*
D03*
X103000Y-513000D02*
D03*
X70000Y-522000D02*
D03*
X56000Y-549000D02*
D03*
X49000Y-554000D02*
D03*
X6000Y-553000D02*
D03*
X48000Y-469000D02*
D03*
X19000Y-468000D02*
D03*
X64000Y-471000D02*
D03*
X133000D02*
D03*
X110000Y-468000D02*
D03*
X106000Y-452000D02*
D03*
X88063Y-428276D02*
D03*
X131000Y-430000D02*
D03*
X135000Y-420000D02*
D03*
X71000Y-437000D02*
D03*
X55000Y-462000D02*
D03*
X117000Y-440000D02*
D03*
X105740Y-427000D02*
D03*
X107000Y-384000D02*
D03*
X136000D02*
D03*
X103000Y-342000D02*
D03*
X117000Y-355000D02*
D03*
X56748Y-378000D02*
D03*
X48000Y-386000D02*
D03*
X72000Y-352000D02*
D03*
X137000Y-335000D02*
D03*
X136000Y-256000D02*
D03*
X111000Y-299000D02*
D03*
X134000Y-300000D02*
D03*
X117000Y-276000D02*
D03*
X106000Y-262000D02*
D03*
X73000Y-269000D02*
D03*
X50000Y-298000D02*
D03*
X57748Y-292000D02*
D03*
X67000Y-300000D02*
D03*
X21000Y-298000D02*
D03*
X23000Y-216000D02*
D03*
X71000Y-187000D02*
D03*
X135000Y-143000D02*
D03*
X61000Y-220000D02*
D03*
X110000Y-219000D02*
D03*
X136000Y-222000D02*
D03*
X135000Y-182000D02*
D03*
Y-176000D02*
D03*
X105740Y-183000D02*
D03*
X119000Y-195000D02*
D03*
X50000Y-218000D02*
D03*
X56748Y-212000D02*
D03*
X129500Y-56500D02*
D03*
X126000Y-73000D02*
D03*
X105000Y-140000D02*
D03*
X64000D02*
D03*
X22000D02*
D03*
X9000Y-89000D02*
D03*
X28000Y-59000D02*
D03*
X13000Y-38000D02*
D03*
X131000Y-46000D02*
D03*
X118500Y-36500D02*
D03*
X91696Y-24941D02*
D03*
X105740Y-105000D02*
D03*
X113633Y-54941D02*
D03*
X38000Y-40000D02*
D03*
X44000Y-38000D02*
D03*
X122500Y-52500D02*
D03*
X109838Y-62941D02*
D03*
X51000Y-141000D02*
D03*
X56000Y-131000D02*
D03*
X117000Y-119000D02*
D03*
X133000Y-98000D02*
D03*
X71000Y-109000D02*
D03*
D54*
X123063Y-678000D02*
D03*
X124000Y-649000D02*
D03*
X122000Y-629000D02*
D03*
X87000Y-694000D02*
D03*
X96874D02*
D03*
X82000Y-634000D02*
D03*
X80937Y-642000D02*
D03*
X82000Y-704500D02*
D03*
X122000Y-510000D02*
D03*
X125063Y-539063D02*
D03*
Y-557000D02*
D03*
X122000Y-595000D02*
D03*
X87000Y-612000D02*
D03*
X94000Y-612063D02*
D03*
X83000Y-546500D02*
D03*
X80000Y-558000D02*
D03*
X81000Y-620500D02*
D03*
Y-474000D02*
D03*
Y-467000D02*
D03*
X80937Y-535937D02*
D03*
X86000Y-527000D02*
D03*
X94000D02*
D03*
X88000Y-440000D02*
D03*
X95000Y-441000D02*
D03*
X81937Y-451000D02*
D03*
X82000Y-389000D02*
D03*
Y-380000D02*
D03*
X122000Y-477000D02*
D03*
X124000Y-456500D02*
D03*
Y-424000D02*
D03*
X121000Y-393000D02*
D03*
Y-374000D02*
D03*
X125677Y-339677D02*
D03*
X88000Y-353000D02*
D03*
X94063Y-355063D02*
D03*
X85000Y-365000D02*
D03*
X86000Y-303000D02*
D03*
Y-292000D02*
D03*
X90000Y-272000D02*
D03*
X86000Y-278000D02*
D03*
X97000Y-276000D02*
D03*
X121000Y-308000D02*
D03*
Y-294000D02*
D03*
X125000Y-257000D02*
D03*
Y-231000D02*
D03*
X122000Y-212000D02*
D03*
X123000Y-132000D02*
D03*
X86000Y-225000D02*
D03*
X125000Y-182000D02*
D03*
Y-150000D02*
D03*
X97000Y-197000D02*
D03*
X90000Y-186339D02*
D03*
X86000Y-218000D02*
D03*
Y-194000D02*
D03*
X88000Y-117000D02*
D03*
X96000Y-118000D02*
D03*
X82874Y-117126D02*
D03*
X119740Y-102260D02*
D03*
X83000Y-133000D02*
D03*
Y-144000D02*
D03*
X70000Y-63500D02*
D03*
X95500Y-70000D02*
D03*
M02*
