M48
;Layer_Color=9474304
;FILE_FORMAT=2:5
INCH,LZ
;TYPE=PLATED
T1F00S00C0.02799
T2F00S00C0.03937
T3F00S00C0.04331
T4F00S00C0.05906
;TYPE=NON_PLATED
T5F00S00C0.13800
%
T01
X0606299Y-011811
X0472441Y-0110236
X0169291
X0051181Y-0094488
X0110236Y-0062992
X0244094Y-0050944
X0310926Y-0040944
X0334646Y-0051181
X0311024Y-0082677
X0362205Y-0090551
X046063Y-0070866
X0496063Y-0086614
X0555118Y-0062992
X0606299Y-007874
T02
X0417323Y-011811
Y-010811
X0496063Y-010811
Y-011811
X0551181
Y-010811
X0358268Y-010811
Y-011811
X0263681Y-0119684
Y-0109684
X0204626Y-0109684
Y-0119684
X011811Y-011811
Y-010811
X0059055
Y-011811
X0059055Y-003937
Y-002937
X0161417
Y-003937
X0263681Y-0040944
Y-0030944
X0358268Y-002937
Y-003937
X0417323Y-003937
Y-002937
X0496063Y-002937
Y-003937
X0555118Y-003937
Y-002937
T03
X0582677Y-011811
X0523622
X0444882Y-011811
X0385827
X0291241Y-0119684
X0232185Y-0119684
X0145669Y-011811
X0086614
X0086614Y-003937
X0188976
X0291241Y-0040944
X0385827Y-003937
X0444882Y-003937
X0523622Y-003937
X0582677Y-003937
T04
X0572677Y-012811
Y-010811
X0592677
Y-012811
X0533622
Y-010811
X0513622
Y-012811
X0454882Y-012811
Y-010811
X0434882
Y-012811
X0395827
X0375827
Y-010811
X0395827
X030124Y-0109684
X0281241
Y-0129684
X030124
X0242185Y-0129684
Y-0109684
X0222185
Y-0129684
X0155669Y-012811
Y-010811
X0135669
Y-012811
X0096614
Y-010811
X0076614
Y-012811
X0076614Y-004937
Y-002937
X0096614
Y-004937
X0178976
X0198976
Y-002937
X0178976
X0281241Y-0030944
X030124
Y-0050944
X0281241
X0375827Y-004937
Y-002937
X0395827
Y-004937
X0434882Y-004937
X0454882
Y-002937
X0434882
X0513622Y-002937
X0533622
Y-004937
X0513622
X0572677Y-004937
Y-002937
X0592677
Y-004937
T05
X0669291Y-0137795
X0019685
Y-0019685
X0669291
M30
