G04*
G04 #@! TF.GenerationSoftware,Altium Limited,Altium Designer,22.9.1 (49)*
G04*
G04 Layer_Physical_Order=2*
G04 Layer_Color=16711680*
%FSLAX25Y25*%
%MOIN*%
G70*
G04*
G04 #@! TF.SameCoordinates,E6D2D5AF-3703-4330-9E41-3BAFFAD507BF*
G04*
G04*
G04 #@! TF.FilePolarity,Positive*
G04*
G01*
G75*
%ADD15C,0.00591*%
%ADD18C,0.01000*%
%ADD62C,0.01400*%
%ADD63C,0.03000*%
%ADD64C,0.05906*%
%ADD65R,0.05906X0.05906*%
%ADD66C,0.13000*%
%ADD67R,0.05906X0.05906*%
%ADD68C,0.06299*%
%ADD69R,0.06299X0.06299*%
%ADD70C,0.03150*%
%ADD71C,0.03937*%
%ADD72C,0.05000*%
%ADD73C,0.02756*%
%ADD74C,0.03937*%
G36*
X149307Y-590551D02*
X0D01*
X0Y-0D01*
X149307D01*
Y-590551D01*
D02*
G37*
%LPC*%
G36*
X58658Y-3675D02*
Y-5500D01*
X60483D01*
X60398Y-5072D01*
X59872Y-4286D01*
X59086Y-3760D01*
X58658Y-3675D01*
D02*
G37*
G36*
X57658D02*
X57230Y-3760D01*
X56443Y-4286D01*
X55918Y-5072D01*
X55833Y-5500D01*
X57658D01*
Y-3675D01*
D02*
G37*
G36*
X39000D02*
Y-5500D01*
X40825D01*
X40740Y-5072D01*
X40214Y-4286D01*
X39428Y-3760D01*
X39000Y-3675D01*
D02*
G37*
G36*
X38000D02*
X37572Y-3760D01*
X36786Y-4286D01*
X36260Y-5072D01*
X36175Y-5500D01*
X38000D01*
Y-3675D01*
D02*
G37*
G36*
X60483Y-6500D02*
X58658D01*
Y-8325D01*
X59086Y-8240D01*
X59872Y-7714D01*
X60398Y-6928D01*
X60483Y-6500D01*
D02*
G37*
G36*
X57658D02*
X55833D01*
X55918Y-6928D01*
X56443Y-7714D01*
X57230Y-8240D01*
X57658Y-8325D01*
Y-6500D01*
D02*
G37*
G36*
X40825D02*
X39000D01*
Y-8325D01*
X39428Y-8240D01*
X40214Y-7714D01*
X40740Y-6928D01*
X40825Y-6500D01*
D02*
G37*
G36*
X38000D02*
X36175D01*
X36260Y-6928D01*
X36786Y-7714D01*
X37572Y-8240D01*
X38000Y-8325D01*
Y-6500D01*
D02*
G37*
G36*
X138295Y-3922D02*
Y-11311D01*
X145684D01*
X145581Y-10262D01*
X145129Y-8773D01*
X144396Y-7401D01*
X143409Y-6198D01*
X142206Y-5211D01*
X140833Y-4477D01*
X139344Y-4025D01*
X138295Y-3922D01*
D02*
G37*
G36*
X137295D02*
X136247Y-4025D01*
X134757Y-4477D01*
X133385Y-5211D01*
X132182Y-6198D01*
X131195Y-7401D01*
X130461Y-8773D01*
X130010Y-10262D01*
X129906Y-11311D01*
X137295D01*
Y-3922D01*
D02*
G37*
G36*
X14075D02*
Y-11311D01*
X21464D01*
X21361Y-10262D01*
X20909Y-8773D01*
X20175Y-7401D01*
X19188Y-6198D01*
X17985Y-5211D01*
X16613Y-4477D01*
X15124Y-4025D01*
X14075Y-3922D01*
D02*
G37*
G36*
X13075D02*
X12026Y-4025D01*
X10537Y-4477D01*
X9165Y-5211D01*
X7962Y-6198D01*
X6974Y-7401D01*
X6241Y-8773D01*
X5789Y-10262D01*
X5686Y-11311D01*
X13075D01*
Y-3922D01*
D02*
G37*
G36*
X126075Y-12175D02*
Y-14000D01*
X127900D01*
X127815Y-13572D01*
X127289Y-12786D01*
X126503Y-12260D01*
X126075Y-12175D01*
D02*
G37*
G36*
X125075D02*
X124647Y-12260D01*
X123861Y-12786D01*
X123335Y-13572D01*
X123250Y-14000D01*
X125075D01*
Y-12175D01*
D02*
G37*
G36*
X127900Y-15000D02*
X126075D01*
Y-16825D01*
X126503Y-16740D01*
X127289Y-16215D01*
X127815Y-15428D01*
X127900Y-15000D01*
D02*
G37*
G36*
X125075D02*
X123250D01*
X123335Y-15428D01*
X123861Y-16215D01*
X124647Y-16740D01*
X125075Y-16825D01*
Y-15000D01*
D02*
G37*
G36*
X145684Y-12311D02*
X138295D01*
Y-19700D01*
X139344Y-19597D01*
X140833Y-19145D01*
X142206Y-18411D01*
X143409Y-17424D01*
X144396Y-16221D01*
X145129Y-14849D01*
X145581Y-13360D01*
X145684Y-12311D01*
D02*
G37*
G36*
X137295D02*
X129906D01*
X130010Y-13360D01*
X130461Y-14849D01*
X131195Y-16221D01*
X132182Y-17424D01*
X133385Y-18411D01*
X134757Y-19145D01*
X136247Y-19597D01*
X137295Y-19700D01*
Y-12311D01*
D02*
G37*
G36*
X21464D02*
X14075D01*
Y-19700D01*
X15124Y-19597D01*
X16613Y-19145D01*
X17985Y-18411D01*
X19188Y-17424D01*
X20175Y-16221D01*
X20909Y-14849D01*
X21361Y-13360D01*
X21464Y-12311D01*
D02*
G37*
G36*
X13075D02*
X5686D01*
X5789Y-13360D01*
X6241Y-14849D01*
X6974Y-16221D01*
X7962Y-17424D01*
X9165Y-18411D01*
X10537Y-19145D01*
X12026Y-19597D01*
X13075Y-19700D01*
Y-12311D01*
D02*
G37*
G36*
X58658Y-20364D02*
Y-22189D01*
X60483D01*
X60398Y-21761D01*
X59872Y-20975D01*
X59086Y-20449D01*
X58658Y-20364D01*
D02*
G37*
G36*
X57658D02*
X57230Y-20449D01*
X56443Y-20975D01*
X55918Y-21761D01*
X55833Y-22189D01*
X57658D01*
Y-20364D01*
D02*
G37*
G36*
X28256Y-20675D02*
Y-22500D01*
X30081D01*
X29996Y-22072D01*
X29470Y-21286D01*
X28684Y-20760D01*
X28256Y-20675D01*
D02*
G37*
G36*
X27256D02*
X26828Y-20760D01*
X26042Y-21286D01*
X25516Y-22072D01*
X25431Y-22500D01*
X27256D01*
Y-20675D01*
D02*
G37*
G36*
X60483Y-23189D02*
X58658D01*
Y-25014D01*
X59086Y-24929D01*
X59872Y-24403D01*
X60398Y-23617D01*
X60483Y-23189D01*
D02*
G37*
G36*
X57658D02*
X55833D01*
X55918Y-23617D01*
X56443Y-24403D01*
X57230Y-24929D01*
X57658Y-25014D01*
Y-23189D01*
D02*
G37*
G36*
X30081Y-23500D02*
X28256D01*
Y-25325D01*
X28684Y-25240D01*
X29470Y-24714D01*
X29996Y-23928D01*
X30081Y-23500D01*
D02*
G37*
G36*
X27256D02*
X25431D01*
X25516Y-23928D01*
X26042Y-24714D01*
X26828Y-25240D01*
X27256Y-25325D01*
Y-23500D01*
D02*
G37*
G36*
X89575Y-31138D02*
Y-34559D01*
X92996D01*
X92926Y-34027D01*
X92528Y-33066D01*
X91894Y-32240D01*
X91068Y-31606D01*
X90107Y-31208D01*
X89575Y-31138D01*
D02*
G37*
G36*
X88575D02*
X88043Y-31208D01*
X87081Y-31606D01*
X86256Y-32240D01*
X85622Y-33066D01*
X85224Y-34027D01*
X85154Y-34559D01*
X88575D01*
Y-31138D01*
D02*
G37*
G36*
X137000Y-34572D02*
Y-37000D01*
X139428D01*
X139392Y-36725D01*
X139093Y-36003D01*
X138617Y-35383D01*
X137997Y-34907D01*
X137275Y-34608D01*
X137000Y-34572D01*
D02*
G37*
G36*
X136000D02*
X135725Y-34608D01*
X135003Y-34907D01*
X134383Y-35383D01*
X133907Y-36003D01*
X133608Y-36725D01*
X133572Y-37000D01*
X136000D01*
Y-34572D01*
D02*
G37*
G36*
X92996Y-35559D02*
X89575D01*
Y-38980D01*
X90107Y-38910D01*
X91068Y-38512D01*
X91894Y-37878D01*
X92528Y-37053D01*
X92926Y-36091D01*
X92996Y-35559D01*
D02*
G37*
G36*
X88575D02*
X85154D01*
X85224Y-36091D01*
X85622Y-37053D01*
X86256Y-37878D01*
X87081Y-38512D01*
X88043Y-38910D01*
X88575Y-38980D01*
Y-35559D01*
D02*
G37*
G36*
X83028Y-31106D02*
X75122D01*
Y-39012D01*
X83028D01*
Y-31106D01*
D02*
G37*
G36*
X139428Y-38000D02*
X137000D01*
Y-40428D01*
X137275Y-40392D01*
X137997Y-40093D01*
X138617Y-39617D01*
X139093Y-38997D01*
X139392Y-38275D01*
X139428Y-38000D01*
D02*
G37*
G36*
X136000D02*
X133572D01*
X133608Y-38275D01*
X133907Y-38997D01*
X134383Y-39617D01*
X135003Y-40093D01*
X135725Y-40392D01*
X136000Y-40428D01*
Y-38000D01*
D02*
G37*
G36*
X116075Y-40776D02*
Y-42807D01*
X118106D01*
X118083Y-42635D01*
X117824Y-42009D01*
X117411Y-41471D01*
X116873Y-41058D01*
X116247Y-40799D01*
X116075Y-40776D01*
D02*
G37*
G36*
X115075D02*
X114903Y-40799D01*
X114276Y-41058D01*
X113739Y-41471D01*
X113326Y-42009D01*
X113066Y-42635D01*
X113044Y-42807D01*
X115075D01*
Y-40776D01*
D02*
G37*
G36*
X71500Y-42572D02*
Y-45000D01*
X73928D01*
X73892Y-44725D01*
X73593Y-44003D01*
X73117Y-43383D01*
X72497Y-42907D01*
X71775Y-42608D01*
X71500Y-42572D01*
D02*
G37*
G36*
X70500D02*
X70225Y-42608D01*
X69503Y-42907D01*
X68883Y-43383D01*
X68407Y-44003D01*
X68108Y-44725D01*
X68072Y-45000D01*
X70500D01*
Y-42572D01*
D02*
G37*
G36*
X118106Y-43807D02*
X116075D01*
Y-45838D01*
X116247Y-45816D01*
X116873Y-45556D01*
X117411Y-45143D01*
X117824Y-44606D01*
X118083Y-43979D01*
X118106Y-43807D01*
D02*
G37*
G36*
X115075D02*
X113044D01*
X113066Y-43979D01*
X113326Y-44606D01*
X113739Y-45143D01*
X114276Y-45556D01*
X114903Y-45816D01*
X115075Y-45838D01*
Y-43807D01*
D02*
G37*
G36*
X100075Y-44675D02*
Y-46500D01*
X101900D01*
X101815Y-46072D01*
X101289Y-45286D01*
X100503Y-44760D01*
X100075Y-44675D01*
D02*
G37*
G36*
X99075D02*
X98647Y-44760D01*
X97860Y-45286D01*
X97335Y-46072D01*
X97250Y-46500D01*
X99075D01*
Y-44675D01*
D02*
G37*
G36*
X73928Y-46000D02*
X71500D01*
Y-48428D01*
X71775Y-48392D01*
X72497Y-48093D01*
X73117Y-47617D01*
X73593Y-46997D01*
X73892Y-46275D01*
X73928Y-46000D01*
D02*
G37*
G36*
X70500D02*
X68072D01*
X68108Y-46275D01*
X68407Y-46997D01*
X68883Y-47617D01*
X69503Y-48093D01*
X70225Y-48392D01*
X70500Y-48428D01*
Y-46000D01*
D02*
G37*
G36*
X101900Y-47500D02*
X100075D01*
Y-49325D01*
X100503Y-49240D01*
X101289Y-48715D01*
X101815Y-47928D01*
X101900Y-47500D01*
D02*
G37*
G36*
X99075D02*
X97250D01*
X97335Y-47928D01*
X97860Y-48715D01*
X98647Y-49240D01*
X99075Y-49325D01*
Y-47500D01*
D02*
G37*
G36*
X130421Y-50864D02*
Y-52689D01*
X132246D01*
X132161Y-52261D01*
X131636Y-51475D01*
X130849Y-50949D01*
X130421Y-50864D01*
D02*
G37*
G36*
X129421D02*
X128993Y-50949D01*
X128207Y-51475D01*
X127681Y-52261D01*
X127596Y-52689D01*
X129421D01*
Y-50864D01*
D02*
G37*
G36*
X132246Y-53689D02*
X130421D01*
Y-55514D01*
X130849Y-55429D01*
X131636Y-54903D01*
X132161Y-54117D01*
X132246Y-53689D01*
D02*
G37*
G36*
X129421D02*
X127596D01*
X127681Y-54117D01*
X128207Y-54903D01*
X128993Y-55429D01*
X129421Y-55514D01*
Y-53689D01*
D02*
G37*
G36*
X105075Y-54675D02*
Y-56500D01*
X106900D01*
X106815Y-56072D01*
X106289Y-55286D01*
X105503Y-54760D01*
X105075Y-54675D01*
D02*
G37*
G36*
X104075D02*
X103647Y-54760D01*
X102860Y-55286D01*
X102335Y-56072D01*
X102250Y-56500D01*
X104075D01*
Y-54675D01*
D02*
G37*
G36*
X106900Y-57500D02*
X105075D01*
Y-59325D01*
X105503Y-59240D01*
X106289Y-58714D01*
X106815Y-57928D01*
X106900Y-57500D01*
D02*
G37*
G36*
X104075D02*
X102250D01*
X102335Y-57928D01*
X102860Y-58714D01*
X103647Y-59240D01*
X104075Y-59325D01*
Y-57500D01*
D02*
G37*
G36*
X69000Y-57572D02*
Y-60000D01*
X71428D01*
X71392Y-59725D01*
X71093Y-59003D01*
X70617Y-58383D01*
X69997Y-57907D01*
X69275Y-57608D01*
X69000Y-57572D01*
D02*
G37*
G36*
X68000D02*
X67725Y-57608D01*
X67003Y-57907D01*
X66383Y-58383D01*
X65907Y-59003D01*
X65608Y-59725D01*
X65572Y-60000D01*
X68000D01*
Y-57572D01*
D02*
G37*
G36*
X100008Y-59969D02*
Y-62000D01*
X102039D01*
X102016Y-61828D01*
X101757Y-61202D01*
X101344Y-60664D01*
X100806Y-60251D01*
X100180Y-59992D01*
X100008Y-59969D01*
D02*
G37*
G36*
X99008D02*
X98836Y-59992D01*
X98210Y-60251D01*
X97672Y-60664D01*
X97259Y-61202D01*
X97000Y-61828D01*
X96977Y-62000D01*
X99008D01*
Y-59969D01*
D02*
G37*
G36*
X4437Y-60461D02*
Y-62492D01*
X6468D01*
X6446Y-62320D01*
X6186Y-61694D01*
X5773Y-61156D01*
X5235Y-60743D01*
X4609Y-60484D01*
X4437Y-60461D01*
D02*
G37*
G36*
X3437D02*
X3265Y-60484D01*
X2638Y-60743D01*
X2101Y-61156D01*
X1688Y-61694D01*
X1429Y-62320D01*
X1406Y-62492D01*
X3437D01*
Y-60461D01*
D02*
G37*
G36*
X71428Y-61000D02*
X69000D01*
Y-63428D01*
X69275Y-63392D01*
X69997Y-63093D01*
X70617Y-62617D01*
X71093Y-61997D01*
X71392Y-61275D01*
X71428Y-61000D01*
D02*
G37*
G36*
X68000D02*
X65572D01*
X65608Y-61275D01*
X65907Y-61997D01*
X66383Y-62617D01*
X67003Y-63093D01*
X67725Y-63392D01*
X68000Y-63428D01*
Y-61000D01*
D02*
G37*
G36*
X31996Y-61469D02*
Y-63500D01*
X34027D01*
X34005Y-63328D01*
X33745Y-62701D01*
X33332Y-62164D01*
X32795Y-61751D01*
X32168Y-61492D01*
X31996Y-61469D01*
D02*
G37*
G36*
X30996D02*
X30824Y-61492D01*
X30198Y-61751D01*
X29660Y-62164D01*
X29247Y-62701D01*
X28988Y-63328D01*
X28965Y-63500D01*
X30996D01*
Y-61469D01*
D02*
G37*
G36*
X102039Y-63000D02*
X100008D01*
Y-65031D01*
X100180Y-65009D01*
X100806Y-64749D01*
X101344Y-64336D01*
X101757Y-63799D01*
X102016Y-63172D01*
X102039Y-63000D01*
D02*
G37*
G36*
X99008D02*
X96977D01*
X97000Y-63172D01*
X97259Y-63799D01*
X97672Y-64336D01*
X98210Y-64749D01*
X98836Y-65009D01*
X99008Y-65031D01*
Y-63000D01*
D02*
G37*
G36*
X6468Y-63492D02*
X4437D01*
Y-65523D01*
X4609Y-65501D01*
X5235Y-65241D01*
X5773Y-64828D01*
X6186Y-64291D01*
X6446Y-63664D01*
X6468Y-63492D01*
D02*
G37*
G36*
X3437D02*
X1406D01*
X1429Y-63664D01*
X1688Y-64291D01*
X2101Y-64828D01*
X2638Y-65241D01*
X3265Y-65501D01*
X3437Y-65523D01*
Y-63492D01*
D02*
G37*
G36*
X138295Y-64072D02*
Y-66500D01*
X140724D01*
X140687Y-66225D01*
X140388Y-65503D01*
X139912Y-64883D01*
X139292Y-64407D01*
X138570Y-64108D01*
X138295Y-64072D01*
D02*
G37*
G36*
X137295D02*
X137020Y-64108D01*
X136298Y-64407D01*
X135678Y-64883D01*
X135202Y-65503D01*
X134903Y-66225D01*
X134867Y-66500D01*
X137295D01*
Y-64072D01*
D02*
G37*
G36*
X34027Y-64500D02*
X31996D01*
Y-66531D01*
X32168Y-66509D01*
X32795Y-66249D01*
X33332Y-65836D01*
X33745Y-65298D01*
X34005Y-64672D01*
X34027Y-64500D01*
D02*
G37*
G36*
X30996D02*
X28965D01*
X28988Y-64672D01*
X29247Y-65298D01*
X29660Y-65836D01*
X30198Y-66249D01*
X30824Y-66509D01*
X30996Y-66531D01*
Y-64500D01*
D02*
G37*
G36*
X140724Y-67500D02*
X138295D01*
Y-69928D01*
X138570Y-69892D01*
X139292Y-69593D01*
X139912Y-69117D01*
X140388Y-68497D01*
X140687Y-67775D01*
X140724Y-67500D01*
D02*
G37*
G36*
X137295D02*
X134867D01*
X134903Y-67775D01*
X135202Y-68497D01*
X135678Y-69117D01*
X136298Y-69593D01*
X137020Y-69892D01*
X137295Y-69928D01*
Y-67500D01*
D02*
G37*
G36*
X123264Y-72272D02*
Y-74303D01*
X125295D01*
X125272Y-74131D01*
X125013Y-73505D01*
X124600Y-72967D01*
X124062Y-72554D01*
X123436Y-72295D01*
X123264Y-72272D01*
D02*
G37*
G36*
X122264D02*
X122092Y-72295D01*
X121465Y-72554D01*
X120928Y-72967D01*
X120515Y-73505D01*
X120255Y-74131D01*
X120233Y-74303D01*
X122264D01*
Y-72272D01*
D02*
G37*
G36*
X36512D02*
Y-74303D01*
X38543D01*
X38521Y-74131D01*
X38261Y-73505D01*
X37848Y-72967D01*
X37310Y-72554D01*
X36684Y-72295D01*
X36512Y-72272D01*
D02*
G37*
G36*
X35512D02*
X35340Y-72295D01*
X34713Y-72554D01*
X34176Y-72967D01*
X33763Y-73505D01*
X33503Y-74131D01*
X33481Y-74303D01*
X35512D01*
Y-72272D01*
D02*
G37*
G36*
X113500Y-72572D02*
Y-75000D01*
X115928D01*
X115892Y-74725D01*
X115593Y-74003D01*
X115117Y-73383D01*
X114497Y-72907D01*
X113775Y-72608D01*
X113500Y-72572D01*
D02*
G37*
G36*
X112500D02*
X112225Y-72608D01*
X111503Y-72907D01*
X110883Y-73383D01*
X110407Y-74003D01*
X110108Y-74725D01*
X110072Y-75000D01*
X112500D01*
Y-72572D01*
D02*
G37*
G36*
X125295Y-75303D02*
X123264D01*
Y-77334D01*
X123436Y-77312D01*
X124062Y-77052D01*
X124600Y-76639D01*
X125013Y-76102D01*
X125272Y-75475D01*
X125295Y-75303D01*
D02*
G37*
G36*
X122264D02*
X120233D01*
X120255Y-75475D01*
X120515Y-76102D01*
X120928Y-76639D01*
X121465Y-77052D01*
X122092Y-77312D01*
X122264Y-77334D01*
Y-75303D01*
D02*
G37*
G36*
X38543D02*
X36512D01*
Y-77334D01*
X36684Y-77312D01*
X37310Y-77052D01*
X37848Y-76639D01*
X38261Y-76102D01*
X38521Y-75475D01*
X38543Y-75303D01*
D02*
G37*
G36*
X35512D02*
X33481D01*
X33503Y-75475D01*
X33763Y-76102D01*
X34176Y-76639D01*
X34713Y-77052D01*
X35340Y-77312D01*
X35512Y-77334D01*
Y-75303D01*
D02*
G37*
G36*
X9295Y-76209D02*
Y-78240D01*
X11327D01*
X11304Y-78068D01*
X11044Y-77442D01*
X10632Y-76904D01*
X10094Y-76491D01*
X9467Y-76232D01*
X9295Y-76209D01*
D02*
G37*
G36*
X8295D02*
X8123Y-76232D01*
X7497Y-76491D01*
X6959Y-76904D01*
X6546Y-77442D01*
X6287Y-78068D01*
X6264Y-78240D01*
X8295D01*
Y-76209D01*
D02*
G37*
G36*
X115928Y-76000D02*
X113500D01*
Y-78428D01*
X113775Y-78392D01*
X114497Y-78093D01*
X115117Y-77617D01*
X115593Y-76997D01*
X115892Y-76275D01*
X115928Y-76000D01*
D02*
G37*
G36*
X112500D02*
X110072D01*
X110108Y-76275D01*
X110407Y-76997D01*
X110883Y-77617D01*
X111503Y-78093D01*
X112225Y-78392D01*
X112500Y-78428D01*
Y-76000D01*
D02*
G37*
G36*
X73500Y-78572D02*
Y-81000D01*
X75928D01*
X75892Y-80725D01*
X75593Y-80003D01*
X75117Y-79383D01*
X74497Y-78907D01*
X73775Y-78608D01*
X73500Y-78572D01*
D02*
G37*
G36*
X72500D02*
X72225Y-78608D01*
X71503Y-78907D01*
X70883Y-79383D01*
X70407Y-80003D01*
X70108Y-80725D01*
X70072Y-81000D01*
X72500D01*
Y-78572D01*
D02*
G37*
G36*
X11327Y-79240D02*
X9295D01*
Y-81271D01*
X9467Y-81249D01*
X10094Y-80989D01*
X10632Y-80576D01*
X11044Y-80039D01*
X11304Y-79412D01*
X11327Y-79240D01*
D02*
G37*
G36*
X8295D02*
X6264D01*
X6287Y-79412D01*
X6546Y-80039D01*
X6959Y-80576D01*
X7497Y-80989D01*
X8123Y-81249D01*
X8295Y-81271D01*
Y-79240D01*
D02*
G37*
G36*
X31000Y-81175D02*
Y-83000D01*
X32825D01*
X32740Y-82572D01*
X32214Y-81786D01*
X31428Y-81260D01*
X31000Y-81175D01*
D02*
G37*
G36*
X30000D02*
X29572Y-81260D01*
X28786Y-81786D01*
X28260Y-82572D01*
X28175Y-83000D01*
X30000D01*
Y-81175D01*
D02*
G37*
G36*
X75928Y-82000D02*
X73500D01*
Y-84428D01*
X73775Y-84392D01*
X74497Y-84093D01*
X75117Y-83617D01*
X75593Y-82997D01*
X75892Y-82275D01*
X75928Y-82000D01*
D02*
G37*
G36*
X72500D02*
X70072D01*
X70108Y-82275D01*
X70407Y-82997D01*
X70883Y-83617D01*
X71503Y-84093D01*
X72225Y-84392D01*
X72500Y-84428D01*
Y-82000D01*
D02*
G37*
G36*
X58213Y-83072D02*
Y-85500D01*
X60641D01*
X60605Y-85225D01*
X60306Y-84503D01*
X59830Y-83883D01*
X59210Y-83407D01*
X58488Y-83108D01*
X58213Y-83072D01*
D02*
G37*
G36*
X57213D02*
X56938Y-83108D01*
X56216Y-83407D01*
X55596Y-83883D01*
X55120Y-84503D01*
X54821Y-85225D01*
X54785Y-85500D01*
X57213D01*
Y-83072D01*
D02*
G37*
G36*
X32825Y-84000D02*
X31000D01*
Y-85825D01*
X31428Y-85740D01*
X32214Y-85214D01*
X32740Y-84428D01*
X32825Y-84000D01*
D02*
G37*
G36*
X30000D02*
X28175D01*
X28260Y-84428D01*
X28786Y-85214D01*
X29572Y-85740D01*
X30000Y-85825D01*
Y-84000D01*
D02*
G37*
G36*
X71500Y-85969D02*
Y-88000D01*
X73531D01*
X73509Y-87828D01*
X73249Y-87201D01*
X72836Y-86664D01*
X72299Y-86251D01*
X71672Y-85992D01*
X71500Y-85969D01*
D02*
G37*
G36*
X70500D02*
X70328Y-85992D01*
X69701Y-86251D01*
X69164Y-86664D01*
X68751Y-87201D01*
X68492Y-87828D01*
X68469Y-88000D01*
X70500D01*
Y-85969D01*
D02*
G37*
G36*
X60641Y-86500D02*
X58213D01*
Y-88928D01*
X58488Y-88892D01*
X59210Y-88593D01*
X59830Y-88117D01*
X60306Y-87497D01*
X60605Y-86775D01*
X60641Y-86500D01*
D02*
G37*
G36*
X57213D02*
X54785D01*
X54821Y-86775D01*
X55120Y-87497D01*
X55596Y-88117D01*
X56216Y-88593D01*
X56938Y-88892D01*
X57213Y-88928D01*
Y-86500D01*
D02*
G37*
G36*
X8000Y-88675D02*
Y-90500D01*
X9825D01*
X9740Y-90072D01*
X9214Y-89286D01*
X8428Y-88760D01*
X8000Y-88675D01*
D02*
G37*
G36*
X7000D02*
X6572Y-88760D01*
X5786Y-89286D01*
X5260Y-90072D01*
X5175Y-90500D01*
X7000D01*
Y-88675D01*
D02*
G37*
G36*
X73531Y-89000D02*
X71500D01*
Y-91031D01*
X71672Y-91009D01*
X72299Y-90749D01*
X72836Y-90336D01*
X73249Y-89798D01*
X73509Y-89172D01*
X73531Y-89000D01*
D02*
G37*
G36*
X70500D02*
X68469D01*
X68492Y-89172D01*
X68751Y-89798D01*
X69164Y-90336D01*
X69701Y-90749D01*
X70328Y-91009D01*
X70500Y-91031D01*
Y-89000D01*
D02*
G37*
G36*
X9825Y-91500D02*
X8000D01*
Y-93325D01*
X8428Y-93240D01*
X9214Y-92714D01*
X9740Y-91928D01*
X9825Y-91500D01*
D02*
G37*
G36*
X7000D02*
X5175D01*
X5260Y-91928D01*
X5786Y-92714D01*
X6572Y-93240D01*
X7000Y-93325D01*
Y-91500D01*
D02*
G37*
G36*
X46000Y-87470D02*
X45086Y-87590D01*
X44235Y-87943D01*
X43573Y-88451D01*
X22418D01*
X21443Y-88645D01*
X20616Y-89198D01*
X16273Y-93541D01*
X15720Y-94368D01*
X15526Y-95343D01*
Y-107500D01*
X15720Y-108475D01*
X16273Y-109302D01*
X27773Y-120802D01*
X28425Y-121239D01*
Y-123150D01*
X30026D01*
Y-125287D01*
X28773Y-126541D01*
X28220Y-127368D01*
X28026Y-128343D01*
Y-139542D01*
X27661Y-139590D01*
X26810Y-139943D01*
X26079Y-140504D01*
X25518Y-141235D01*
X25165Y-142086D01*
X25045Y-143000D01*
X25165Y-143914D01*
X25518Y-144765D01*
X26026Y-145428D01*
Y-147143D01*
X25526Y-147313D01*
X25411Y-147164D01*
X24873Y-146751D01*
X24247Y-146492D01*
X24075Y-146469D01*
Y-149000D01*
Y-151531D01*
X24247Y-151509D01*
X24873Y-151249D01*
X25411Y-150836D01*
X25526Y-150687D01*
X26026Y-150857D01*
Y-213184D01*
X20013Y-219198D01*
X19460Y-220025D01*
X19266Y-221000D01*
Y-233000D01*
X19460Y-233976D01*
X20013Y-234802D01*
X23013Y-237802D01*
X23840Y-238355D01*
X24815Y-238549D01*
X26665D01*
Y-240150D01*
X28266D01*
Y-250287D01*
X27088Y-251466D01*
X26535Y-252293D01*
X26341Y-253268D01*
Y-259822D01*
X26050Y-259943D01*
X25319Y-260504D01*
X24758Y-261235D01*
X24405Y-262086D01*
X24285Y-263000D01*
X24405Y-263914D01*
X24758Y-264765D01*
X25319Y-265496D01*
X26050Y-266057D01*
X26341Y-266178D01*
Y-267402D01*
X26112Y-267542D01*
X25841Y-267610D01*
X25373Y-267251D01*
X24747Y-266991D01*
X24575Y-266969D01*
Y-269500D01*
Y-272031D01*
X24747Y-272009D01*
X25373Y-271749D01*
X25841Y-271390D01*
X26112Y-271459D01*
X26341Y-271598D01*
Y-300967D01*
X26266Y-301343D01*
Y-335204D01*
X21272Y-340198D01*
X20720Y-341025D01*
X20526Y-342000D01*
Y-348063D01*
X20720Y-349039D01*
X21272Y-349865D01*
X26862Y-355455D01*
Y-360150D01*
X27287D01*
X27604Y-360536D01*
X27526Y-360929D01*
Y-365071D01*
X27720Y-366047D01*
X28273Y-366874D01*
X28463Y-367064D01*
Y-372435D01*
X24918Y-375981D01*
X24086Y-376090D01*
X23235Y-376443D01*
X22504Y-377004D01*
X21943Y-377735D01*
X21590Y-378586D01*
X21470Y-379500D01*
X21584Y-380371D01*
X21451Y-381041D01*
Y-456519D01*
X20773Y-457198D01*
X20220Y-458025D01*
X20026Y-459000D01*
Y-470000D01*
X20220Y-470975D01*
X20773Y-471803D01*
X23773Y-474802D01*
X24243Y-475117D01*
X24293Y-475615D01*
X23773Y-476135D01*
X23220Y-476962D01*
X23026Y-477937D01*
Y-493573D01*
X22518Y-494235D01*
X22165Y-495086D01*
X22045Y-496000D01*
X22165Y-496914D01*
X22518Y-497765D01*
X23079Y-498496D01*
X23810Y-499057D01*
X24661Y-499410D01*
X25575Y-499530D01*
X26489Y-499410D01*
X27120Y-499148D01*
X27435Y-499559D01*
X27326Y-499701D01*
X27066Y-500328D01*
X27044Y-500500D01*
X29075D01*
Y-498469D01*
X28903Y-498491D01*
X28613Y-498612D01*
X28298Y-498201D01*
X28632Y-497765D01*
X28985Y-496914D01*
X29105Y-496000D01*
X28985Y-495086D01*
X28632Y-494235D01*
X28124Y-493573D01*
Y-478993D01*
X29967Y-477150D01*
X34661D01*
Y-468851D01*
X26362D01*
Y-469529D01*
X25900Y-469721D01*
X25124Y-468944D01*
Y-460355D01*
X25458Y-460048D01*
X26006Y-460111D01*
X26198Y-460398D01*
X26542Y-460742D01*
X26469Y-460917D01*
X26327Y-462000D01*
X26469Y-463083D01*
X26887Y-464093D01*
X27552Y-464960D01*
X28419Y-465625D01*
X29429Y-466043D01*
X30512Y-466186D01*
X31595Y-466043D01*
X32605Y-465625D01*
X33472Y-464960D01*
X34137Y-464093D01*
X34555Y-463083D01*
X34697Y-462000D01*
X34555Y-460917D01*
X34137Y-459907D01*
X33472Y-459040D01*
X32605Y-458375D01*
X31595Y-457957D01*
X30871Y-457862D01*
X30549Y-457540D01*
Y-386401D01*
X31049Y-386232D01*
X31264Y-386511D01*
X31801Y-386924D01*
X32428Y-387183D01*
X32600Y-387206D01*
Y-384675D01*
X33600D01*
Y-387206D01*
X33772Y-387183D01*
X34398Y-386924D01*
X34936Y-386511D01*
X35147Y-386237D01*
X35252Y-386100D01*
X35688Y-386352D01*
X35623Y-386511D01*
X35491Y-386828D01*
X35469Y-387000D01*
X40531D01*
X40508Y-386828D01*
X40249Y-386202D01*
X39953Y-385816D01*
X39946Y-385684D01*
X40014Y-385324D01*
X40071Y-385214D01*
X40645Y-384830D01*
X41126Y-384110D01*
X41295Y-383260D01*
X41126Y-382410D01*
X40645Y-381690D01*
X40604Y-381662D01*
Y-379633D01*
X42093Y-378145D01*
X42425Y-377648D01*
X42541Y-377063D01*
Y-359642D01*
X43004Y-359450D01*
X43829Y-358817D01*
X44462Y-357992D01*
X44860Y-357031D01*
X44996Y-356000D01*
X44860Y-354969D01*
X44462Y-354008D01*
X43829Y-353183D01*
X43004Y-352550D01*
X42541Y-352359D01*
Y-348950D01*
X44962D01*
Y-341051D01*
X37062D01*
Y-348950D01*
X39483D01*
Y-352359D01*
X39020Y-352550D01*
X38195Y-353183D01*
X37562Y-354008D01*
X37164Y-354969D01*
X37028Y-356000D01*
X37164Y-357031D01*
X37562Y-357992D01*
X38195Y-358817D01*
X39020Y-359450D01*
X39483Y-359642D01*
Y-376430D01*
X37993Y-377919D01*
X37860Y-378118D01*
X37430Y-377912D01*
X37459Y-377763D01*
X37624Y-376937D01*
Y-365427D01*
X38132Y-364765D01*
X38485Y-363914D01*
X38605Y-363000D01*
X38485Y-362086D01*
X38132Y-361235D01*
X37571Y-360504D01*
X36840Y-359943D01*
X35989Y-359590D01*
X35162Y-359481D01*
Y-351851D01*
X30467D01*
X25624Y-347007D01*
Y-343056D01*
X28632Y-340048D01*
X29094Y-340239D01*
Y-341303D01*
X28919Y-341375D01*
X28052Y-342040D01*
X27387Y-342907D01*
X26969Y-343917D01*
X26827Y-345000D01*
X26969Y-346083D01*
X27387Y-347093D01*
X28052Y-347960D01*
X28919Y-348625D01*
X29929Y-349043D01*
X31012Y-349185D01*
X32095Y-349043D01*
X33105Y-348625D01*
X33972Y-347960D01*
X34637Y-347093D01*
X35055Y-346083D01*
X35197Y-345000D01*
X35055Y-343917D01*
X34637Y-342907D01*
X34192Y-342328D01*
Y-340144D01*
X34617Y-339719D01*
X35170Y-338892D01*
X35364Y-337917D01*
Y-303301D01*
X35439Y-302925D01*
Y-267954D01*
X35939Y-267785D01*
X35979Y-267836D01*
X36517Y-268249D01*
X37143Y-268509D01*
X37315Y-268531D01*
Y-266000D01*
X37815D01*
Y-265500D01*
X40346D01*
X40324Y-265328D01*
X40064Y-264702D01*
X39651Y-264164D01*
X39277Y-263877D01*
X39384Y-263345D01*
X39555Y-263312D01*
X40275Y-262830D01*
X40756Y-262110D01*
X40925Y-261260D01*
X40756Y-260410D01*
X40275Y-259690D01*
X40234Y-259662D01*
Y-256744D01*
X42096Y-254882D01*
X42428Y-254385D01*
X42544Y-253800D01*
Y-239559D01*
X42807Y-239450D01*
X43632Y-238817D01*
X44265Y-237992D01*
X44663Y-237031D01*
X44799Y-236000D01*
X44663Y-234969D01*
X44265Y-234008D01*
X43632Y-233183D01*
X42807Y-232550D01*
X42344Y-232359D01*
Y-228950D01*
X44765D01*
Y-221051D01*
X36865D01*
Y-228950D01*
X39286D01*
Y-232359D01*
X38823Y-232550D01*
X37998Y-233183D01*
X37365Y-234008D01*
X36967Y-234969D01*
X36831Y-236000D01*
X36967Y-237031D01*
X37365Y-237992D01*
X37998Y-238817D01*
X38823Y-239450D01*
X39486Y-239724D01*
Y-241007D01*
X38986Y-241254D01*
X38580Y-240943D01*
X37729Y-240590D01*
X36815Y-240470D01*
X35901Y-240590D01*
X35050Y-240943D01*
X34319Y-241504D01*
X33864Y-242096D01*
X33364Y-241927D01*
Y-240150D01*
X34965D01*
Y-231851D01*
X26665D01*
Y-233451D01*
X25871D01*
X24364Y-231944D01*
Y-222056D01*
X28111Y-218309D01*
X28573Y-218501D01*
Y-221490D01*
X27856Y-222041D01*
X27190Y-222907D01*
X26772Y-223917D01*
X26630Y-225000D01*
X26772Y-226083D01*
X27190Y-227093D01*
X27856Y-227960D01*
X28722Y-228625D01*
X29732Y-229043D01*
X30815Y-229186D01*
X31898Y-229043D01*
X32908Y-228625D01*
X33775Y-227960D01*
X34440Y-227093D01*
X34858Y-226083D01*
X35001Y-225000D01*
X34858Y-223917D01*
X34440Y-222907D01*
X33775Y-222041D01*
X33670Y-221961D01*
Y-218406D01*
X34877Y-217199D01*
X35430Y-216372D01*
X35624Y-215397D01*
Y-153911D01*
X36124Y-153811D01*
X36326Y-154299D01*
X36738Y-154836D01*
X37276Y-155249D01*
X37903Y-155509D01*
X38075Y-155531D01*
Y-153000D01*
X38575D01*
Y-152500D01*
X41106D01*
X41083Y-152328D01*
X40824Y-151701D01*
X40411Y-151164D01*
X39873Y-150751D01*
X39539Y-150613D01*
X39464Y-150040D01*
X39549Y-149975D01*
X39993Y-149396D01*
X40272Y-148723D01*
X40367Y-148000D01*
X40272Y-147277D01*
X40034Y-146703D01*
X43656Y-143081D01*
X43988Y-142585D01*
X44104Y-142000D01*
Y-122642D01*
X44567Y-122450D01*
X45392Y-121817D01*
X46025Y-120992D01*
X46423Y-120031D01*
X46559Y-119000D01*
X46423Y-117969D01*
X46025Y-117008D01*
X45392Y-116183D01*
X44567Y-115550D01*
X44104Y-115358D01*
Y-110950D01*
X46525D01*
Y-103050D01*
X38625D01*
Y-110950D01*
X41045D01*
Y-115358D01*
X40583Y-115550D01*
X39758Y-116183D01*
X39125Y-117008D01*
X38727Y-117969D01*
X38591Y-119000D01*
X38727Y-120031D01*
X39125Y-120992D01*
X39758Y-121817D01*
X40583Y-122450D01*
X41045Y-122642D01*
Y-124993D01*
X40545Y-125122D01*
X40071Y-124504D01*
X39340Y-123943D01*
X38489Y-123590D01*
X37575Y-123470D01*
X37007Y-123545D01*
X36965Y-123550D01*
X36724Y-123077D01*
X36724Y-122777D01*
Y-122777D01*
X36724Y-122777D01*
Y-114850D01*
X29030D01*
X20624Y-106444D01*
Y-96399D01*
X23474Y-93549D01*
X43573D01*
X44235Y-94057D01*
X45086Y-94410D01*
X46000Y-94530D01*
X46914Y-94410D01*
X47765Y-94057D01*
X48496Y-93496D01*
X49057Y-92765D01*
X49410Y-91914D01*
X49530Y-91000D01*
X49410Y-90086D01*
X49057Y-89235D01*
X48496Y-88504D01*
X47765Y-87943D01*
X46914Y-87590D01*
X46000Y-87470D01*
D02*
G37*
G36*
X32575Y-102815D02*
X31492Y-102957D01*
X30482Y-103375D01*
X29615Y-104041D01*
X28950Y-104907D01*
X28532Y-105917D01*
X28389Y-107000D01*
X28532Y-108083D01*
X28950Y-109093D01*
X29615Y-109960D01*
X30482Y-110625D01*
X31492Y-111043D01*
X32575Y-111186D01*
X33658Y-111043D01*
X34668Y-110625D01*
X35534Y-109960D01*
X36200Y-109093D01*
X36618Y-108083D01*
X36760Y-107000D01*
X36618Y-105917D01*
X36200Y-104907D01*
X35534Y-104041D01*
X34668Y-103375D01*
X33658Y-102957D01*
X32575Y-102815D01*
D02*
G37*
G36*
X83000Y-110072D02*
Y-112500D01*
X85428D01*
X85392Y-112225D01*
X85093Y-111503D01*
X84617Y-110883D01*
X83997Y-110407D01*
X83275Y-110108D01*
X83000Y-110072D01*
D02*
G37*
G36*
X82000D02*
X81725Y-110108D01*
X81003Y-110407D01*
X80383Y-110883D01*
X79907Y-111503D01*
X79608Y-112225D01*
X79572Y-112500D01*
X82000D01*
Y-110072D01*
D02*
G37*
G36*
X9295Y-111572D02*
Y-114000D01*
X11724D01*
X11687Y-113725D01*
X11388Y-113003D01*
X10912Y-112383D01*
X10292Y-111907D01*
X9570Y-111608D01*
X9295Y-111572D01*
D02*
G37*
G36*
X8295D02*
X8020Y-111608D01*
X7298Y-111907D01*
X6678Y-112383D01*
X6202Y-113003D01*
X5903Y-113725D01*
X5867Y-114000D01*
X8295D01*
Y-111572D01*
D02*
G37*
G36*
X85428Y-113500D02*
X83000D01*
Y-115928D01*
X83275Y-115892D01*
X83997Y-115593D01*
X84617Y-115117D01*
X85093Y-114497D01*
X85392Y-113775D01*
X85428Y-113500D01*
D02*
G37*
G36*
X82000D02*
X79572D01*
X79608Y-113775D01*
X79907Y-114497D01*
X80383Y-115117D01*
X81003Y-115593D01*
X81725Y-115892D01*
X82000Y-115928D01*
Y-113500D01*
D02*
G37*
G36*
X136724Y-112850D02*
X133075D01*
Y-116500D01*
X136724D01*
Y-112850D01*
D02*
G37*
G36*
X111724D02*
X108075D01*
Y-116500D01*
X111724D01*
Y-112850D01*
D02*
G37*
G36*
X132075D02*
X128425D01*
Y-116500D01*
X132075D01*
Y-112850D01*
D02*
G37*
G36*
X107075D02*
X103425D01*
Y-116500D01*
X107075D01*
Y-112850D01*
D02*
G37*
G36*
X11724Y-115000D02*
X9295D01*
Y-117428D01*
X9570Y-117392D01*
X10292Y-117093D01*
X10912Y-116617D01*
X11388Y-115997D01*
X11687Y-115275D01*
X11724Y-115000D01*
D02*
G37*
G36*
X8295D02*
X5867D01*
X5903Y-115275D01*
X6202Y-115997D01*
X6678Y-116617D01*
X7298Y-117093D01*
X8020Y-117392D01*
X8295Y-117428D01*
Y-115000D01*
D02*
G37*
G36*
X122575Y-113016D02*
X121544Y-113152D01*
X120583Y-113550D01*
X119758Y-114183D01*
X119125Y-115008D01*
X118727Y-115969D01*
X118591Y-117000D01*
X118727Y-118031D01*
X118919Y-118494D01*
X117941Y-119471D01*
X115575D01*
X114990Y-119587D01*
X114494Y-119919D01*
X109068Y-125344D01*
X108606Y-125152D01*
X107575Y-125016D01*
X106544Y-125152D01*
X105583Y-125550D01*
X104758Y-126183D01*
X104125Y-127008D01*
X103727Y-127969D01*
X103591Y-129000D01*
X103727Y-130031D01*
X104125Y-130992D01*
X104758Y-131817D01*
X105583Y-132450D01*
X106544Y-132848D01*
X107575Y-132984D01*
X108606Y-132848D01*
X109567Y-132450D01*
X110392Y-131817D01*
X111025Y-130992D01*
X111423Y-130031D01*
X111559Y-129000D01*
X111423Y-127969D01*
X111231Y-127506D01*
X116208Y-122529D01*
X118575D01*
X119160Y-122413D01*
X119656Y-122081D01*
X121081Y-120656D01*
X121544Y-120848D01*
X122575Y-120984D01*
X123606Y-120848D01*
X124567Y-120450D01*
X125392Y-119817D01*
X126025Y-118992D01*
X126423Y-118031D01*
X126559Y-117000D01*
X126423Y-115969D01*
X126025Y-115008D01*
X125392Y-114183D01*
X124567Y-113550D01*
X123606Y-113152D01*
X122575Y-113016D01*
D02*
G37*
G36*
X97575D02*
X96544Y-113152D01*
X95583Y-113550D01*
X94758Y-114183D01*
X94125Y-115008D01*
X93727Y-115969D01*
X93591Y-117000D01*
X93727Y-118031D01*
X94125Y-118992D01*
X94758Y-119817D01*
X95583Y-120450D01*
X96544Y-120848D01*
X97575Y-120984D01*
X98606Y-120848D01*
X99567Y-120450D01*
X100392Y-119817D01*
X101025Y-118992D01*
X101423Y-118031D01*
X101559Y-117000D01*
X101423Y-115969D01*
X101025Y-115008D01*
X100392Y-114183D01*
X99567Y-113550D01*
X98606Y-113152D01*
X97575Y-113016D01*
D02*
G37*
G36*
X136724Y-117500D02*
X133075D01*
Y-121150D01*
X136724D01*
Y-117500D01*
D02*
G37*
G36*
X132075D02*
X128425D01*
Y-121150D01*
X132075D01*
Y-117500D01*
D02*
G37*
G36*
X111724D02*
X108075D01*
Y-121150D01*
X111724D01*
Y-117500D01*
D02*
G37*
G36*
X107075D02*
X103425D01*
Y-121150D01*
X107075D01*
Y-117500D01*
D02*
G37*
G36*
X56075Y-114016D02*
X55044Y-114152D01*
X54083Y-114550D01*
X53258Y-115183D01*
X52625Y-116008D01*
X52227Y-116969D01*
X52091Y-118000D01*
X52227Y-119031D01*
X52625Y-119992D01*
X53258Y-120817D01*
X54083Y-121450D01*
X55044Y-121848D01*
X56075Y-121984D01*
X57106Y-121848D01*
X58067Y-121450D01*
X58892Y-120817D01*
X59525Y-119992D01*
X59923Y-119031D01*
X60059Y-118000D01*
X59923Y-116969D01*
X59525Y-116008D01*
X58892Y-115183D01*
X58067Y-114550D01*
X57106Y-114152D01*
X56075Y-114016D01*
D02*
G37*
G36*
X15075Y-120469D02*
Y-122500D01*
X17106D01*
X17083Y-122328D01*
X16824Y-121702D01*
X16411Y-121164D01*
X15873Y-120751D01*
X15247Y-120492D01*
X15075Y-120469D01*
D02*
G37*
G36*
X14075D02*
X13903Y-120492D01*
X13276Y-120751D01*
X12739Y-121164D01*
X12326Y-121702D01*
X12066Y-122328D01*
X12044Y-122500D01*
X14075D01*
Y-120469D01*
D02*
G37*
G36*
X17106Y-123500D02*
X15075D01*
Y-125531D01*
X15247Y-125509D01*
X15873Y-125249D01*
X16411Y-124836D01*
X16824Y-124299D01*
X17083Y-123672D01*
X17106Y-123500D01*
D02*
G37*
G36*
X14075D02*
X12044D01*
X12066Y-123672D01*
X12326Y-124299D01*
X12739Y-124836D01*
X13276Y-125249D01*
X13903Y-125509D01*
X14075Y-125531D01*
Y-123500D01*
D02*
G37*
G36*
X81075Y-127469D02*
Y-129500D01*
X83106D01*
X83083Y-129328D01*
X82824Y-128701D01*
X82411Y-128164D01*
X81873Y-127751D01*
X81247Y-127491D01*
X81075Y-127469D01*
D02*
G37*
G36*
X80075D02*
X79903Y-127491D01*
X79276Y-127751D01*
X78738Y-128164D01*
X78326Y-128701D01*
X78066Y-129328D01*
X78044Y-129500D01*
X80075D01*
Y-127469D01*
D02*
G37*
G36*
X70457Y-127072D02*
Y-129500D01*
X72885D01*
X72849Y-129225D01*
X72550Y-128503D01*
X72074Y-127883D01*
X71454Y-127407D01*
X70732Y-127108D01*
X70457Y-127072D01*
D02*
G37*
G36*
X69457D02*
X69182Y-127108D01*
X68460Y-127407D01*
X67840Y-127883D01*
X67364Y-128503D01*
X67065Y-129225D01*
X67028Y-129500D01*
X69457D01*
Y-127072D01*
D02*
G37*
G36*
X83106Y-130500D02*
X81075D01*
Y-132531D01*
X81247Y-132509D01*
X81873Y-132249D01*
X82411Y-131836D01*
X82824Y-131299D01*
X83083Y-130672D01*
X83106Y-130500D01*
D02*
G37*
G36*
X80075D02*
X78044D01*
X78066Y-130672D01*
X78326Y-131299D01*
X78738Y-131836D01*
X79276Y-132249D01*
X79903Y-132509D01*
X80075Y-132531D01*
Y-130500D01*
D02*
G37*
G36*
X72885D02*
X70457D01*
Y-132928D01*
X70732Y-132892D01*
X71454Y-132593D01*
X72074Y-132117D01*
X72550Y-131497D01*
X72849Y-130775D01*
X72885Y-130500D01*
D02*
G37*
G36*
X69457D02*
X67028D01*
X67065Y-130775D01*
X67364Y-131497D01*
X67840Y-132117D01*
X68460Y-132593D01*
X69182Y-132892D01*
X69457Y-132928D01*
Y-130500D01*
D02*
G37*
G36*
X126524Y-125050D02*
X118625D01*
Y-132950D01*
X126524D01*
Y-125050D01*
D02*
G37*
G36*
X56075Y-103016D02*
X55044Y-103152D01*
X54083Y-103550D01*
X53258Y-104183D01*
X52625Y-105008D01*
X52227Y-105969D01*
X52091Y-107000D01*
X52227Y-108031D01*
X52625Y-108992D01*
X53258Y-109817D01*
X54083Y-110450D01*
X55044Y-110848D01*
X56075Y-110984D01*
X57106Y-110848D01*
X57568Y-110656D01*
X62125Y-115213D01*
Y-121950D01*
X70025D01*
Y-119529D01*
X79941D01*
X90494Y-130081D01*
X90990Y-130413D01*
X91575Y-130529D01*
X93625D01*
Y-132950D01*
X101524D01*
Y-125050D01*
X93625D01*
Y-127471D01*
X92208D01*
X91044Y-126306D01*
X91104Y-126000D01*
Y-119000D01*
X90988Y-118415D01*
X90656Y-117919D01*
X90160Y-117587D01*
X89575Y-117471D01*
X88990Y-117587D01*
X88494Y-117919D01*
X88162Y-118415D01*
X88046Y-119000D01*
Y-122654D01*
X87584Y-122846D01*
X81656Y-116919D01*
X81160Y-116587D01*
X80575Y-116471D01*
X70025D01*
Y-114050D01*
X65288D01*
X62649Y-111412D01*
X62841Y-110950D01*
X70025D01*
Y-103050D01*
X62125D01*
Y-110234D01*
X61663Y-110426D01*
X59731Y-108494D01*
X59923Y-108031D01*
X60059Y-107000D01*
X59923Y-105969D01*
X59525Y-105008D01*
X58892Y-104183D01*
X58067Y-103550D01*
X57106Y-103152D01*
X56075Y-103016D01*
D02*
G37*
G36*
X132575Y-125016D02*
X131544Y-125152D01*
X130583Y-125550D01*
X129758Y-126183D01*
X129125Y-127008D01*
X128727Y-127969D01*
X128591Y-129000D01*
X128727Y-130031D01*
X129125Y-130992D01*
X129758Y-131817D01*
X130583Y-132450D01*
X131544Y-132848D01*
X132575Y-132984D01*
X133606Y-132848D01*
X134567Y-132450D01*
X135392Y-131817D01*
X136025Y-130992D01*
X136423Y-130031D01*
X136559Y-129000D01*
X136423Y-127969D01*
X136025Y-127008D01*
X135392Y-126183D01*
X134567Y-125550D01*
X133606Y-125152D01*
X132575Y-125016D01*
D02*
G37*
G36*
X56075Y-132469D02*
Y-134500D01*
X58106D01*
X58083Y-134328D01*
X57824Y-133702D01*
X57411Y-133164D01*
X56873Y-132751D01*
X56247Y-132492D01*
X56075Y-132469D01*
D02*
G37*
G36*
X55075D02*
X54903Y-132492D01*
X54276Y-132751D01*
X53738Y-133164D01*
X53326Y-133702D01*
X53066Y-134328D01*
X53044Y-134500D01*
X55075D01*
Y-132469D01*
D02*
G37*
G36*
X58106Y-135500D02*
X56075D01*
Y-137531D01*
X56247Y-137509D01*
X56873Y-137249D01*
X57411Y-136836D01*
X57824Y-136299D01*
X58083Y-135672D01*
X58106Y-135500D01*
D02*
G37*
G36*
X55075D02*
X53044D01*
X53066Y-135672D01*
X53326Y-136299D01*
X53738Y-136836D01*
X54276Y-137249D01*
X54903Y-137509D01*
X55075Y-137531D01*
Y-135500D01*
D02*
G37*
G36*
X15075Y-135079D02*
Y-138500D01*
X18496D01*
X18426Y-137968D01*
X18028Y-137007D01*
X17394Y-136181D01*
X16568Y-135547D01*
X15607Y-135149D01*
X15075Y-135079D01*
D02*
G37*
G36*
X14075D02*
X13543Y-135149D01*
X12582Y-135547D01*
X11756Y-136181D01*
X11122Y-137007D01*
X10724Y-137968D01*
X10654Y-138500D01*
X14075D01*
Y-135079D01*
D02*
G37*
G36*
X18496Y-139500D02*
X15075D01*
Y-142921D01*
X15607Y-142851D01*
X16568Y-142453D01*
X17394Y-141819D01*
X18028Y-140993D01*
X18426Y-140032D01*
X18496Y-139500D01*
D02*
G37*
G36*
X14075D02*
X10654D01*
X10724Y-140032D01*
X11122Y-140993D01*
X11756Y-141819D01*
X12582Y-142453D01*
X13543Y-142851D01*
X14075Y-142921D01*
Y-139500D01*
D02*
G37*
G36*
X93500Y-141572D02*
Y-144000D01*
X95928D01*
X95892Y-143725D01*
X95593Y-143003D01*
X95117Y-142383D01*
X94497Y-141907D01*
X93775Y-141608D01*
X93500Y-141572D01*
D02*
G37*
G36*
X92500D02*
X92225Y-141608D01*
X91503Y-141907D01*
X90883Y-142383D01*
X90407Y-143003D01*
X90108Y-143725D01*
X90072Y-144000D01*
X92500D01*
Y-141572D01*
D02*
G37*
G36*
X95928Y-145000D02*
X93500D01*
Y-147428D01*
X93775Y-147392D01*
X94497Y-147093D01*
X95117Y-146617D01*
X95593Y-145997D01*
X95892Y-145275D01*
X95928Y-145000D01*
D02*
G37*
G36*
X92500D02*
X90072D01*
X90108Y-145275D01*
X90407Y-145997D01*
X90883Y-146617D01*
X91503Y-147093D01*
X92225Y-147392D01*
X92500Y-147428D01*
Y-145000D01*
D02*
G37*
G36*
X62575Y-130779D02*
X61725Y-130948D01*
X61005Y-131430D01*
X60523Y-132150D01*
X60354Y-133000D01*
X60523Y-133850D01*
X61005Y-134570D01*
X61045Y-134598D01*
Y-142063D01*
X61162Y-142648D01*
X61493Y-143144D01*
X61853Y-143504D01*
X61797Y-143639D01*
X61683Y-144500D01*
X61797Y-145361D01*
X62129Y-146164D01*
X62658Y-146854D01*
X63348Y-147382D01*
X64151Y-147715D01*
X65012Y-147828D01*
X65873Y-147715D01*
X66676Y-147382D01*
X67365Y-146854D01*
X67895Y-146164D01*
X68227Y-145361D01*
X68340Y-144500D01*
X68227Y-143639D01*
X67895Y-142836D01*
X67365Y-142146D01*
X66676Y-141618D01*
X65873Y-141285D01*
X65012Y-141172D01*
X64604Y-141225D01*
X64104Y-140787D01*
Y-134598D01*
X64145Y-134570D01*
X64626Y-133850D01*
X64796Y-133000D01*
X64626Y-132150D01*
X64145Y-131430D01*
X63425Y-130948D01*
X62575Y-130779D01*
D02*
G37*
G36*
X23075Y-146469D02*
X22903Y-146492D01*
X22276Y-146751D01*
X21739Y-147164D01*
X21326Y-147702D01*
X21066Y-148328D01*
X21044Y-148500D01*
X23075D01*
Y-146469D01*
D02*
G37*
G36*
X62075Y-148469D02*
Y-150500D01*
X64106D01*
X64083Y-150328D01*
X63824Y-149701D01*
X63411Y-149164D01*
X62873Y-148751D01*
X62247Y-148492D01*
X62075Y-148469D01*
D02*
G37*
G36*
X61075D02*
X60903Y-148492D01*
X60276Y-148751D01*
X59738Y-149164D01*
X59326Y-149701D01*
X59066Y-150328D01*
X59044Y-150500D01*
X61075D01*
Y-148469D01*
D02*
G37*
G36*
X23075Y-149500D02*
X21044D01*
X21066Y-149672D01*
X21326Y-150299D01*
X21739Y-150836D01*
X22276Y-151249D01*
X22903Y-151509D01*
X23075Y-151531D01*
Y-149500D01*
D02*
G37*
G36*
X144500Y-150072D02*
Y-152500D01*
X146928D01*
X146892Y-152225D01*
X146593Y-151503D01*
X146117Y-150883D01*
X145497Y-150407D01*
X144775Y-150108D01*
X144500Y-150072D01*
D02*
G37*
G36*
X143500D02*
X143225Y-150108D01*
X142503Y-150407D01*
X141883Y-150883D01*
X141407Y-151503D01*
X141108Y-152225D01*
X141072Y-152500D01*
X143500D01*
Y-150072D01*
D02*
G37*
G36*
X18328Y-145247D02*
X10822D01*
Y-152753D01*
X18328D01*
Y-145247D01*
D02*
G37*
G36*
X64106Y-151500D02*
X62075D01*
Y-153531D01*
X62247Y-153509D01*
X62873Y-153249D01*
X63411Y-152836D01*
X63824Y-152299D01*
X64083Y-151672D01*
X64106Y-151500D01*
D02*
G37*
G36*
X61075D02*
X59044D01*
X59066Y-151672D01*
X59326Y-152299D01*
X59738Y-152836D01*
X60276Y-153249D01*
X60903Y-153509D01*
X61075Y-153531D01*
Y-151500D01*
D02*
G37*
G36*
X41106Y-153500D02*
X39075D01*
Y-155531D01*
X39247Y-155509D01*
X39873Y-155249D01*
X40411Y-154836D01*
X40824Y-154299D01*
X41083Y-153672D01*
X41106Y-153500D01*
D02*
G37*
G36*
X146928Y-153500D02*
X144500D01*
Y-155928D01*
X144775Y-155892D01*
X145497Y-155593D01*
X146117Y-155117D01*
X146593Y-154497D01*
X146892Y-153775D01*
X146928Y-153500D01*
D02*
G37*
G36*
X143500D02*
X141072D01*
X141108Y-153775D01*
X141407Y-154497D01*
X141883Y-155117D01*
X142503Y-155593D01*
X143225Y-155892D01*
X143500Y-155928D01*
Y-153500D01*
D02*
G37*
G36*
X94988Y-156343D02*
Y-158374D01*
X97019D01*
X96997Y-158202D01*
X96737Y-157576D01*
X96325Y-157038D01*
X95787Y-156625D01*
X95160Y-156366D01*
X94988Y-156343D01*
D02*
G37*
G36*
X88000Y-155946D02*
X87725Y-155982D01*
X87003Y-156281D01*
X86383Y-156757D01*
X85907Y-157377D01*
X85608Y-158099D01*
X85572Y-158374D01*
X88000D01*
Y-155946D01*
D02*
G37*
G36*
X97019Y-159374D02*
X94988D01*
Y-161405D01*
X95160Y-161383D01*
X95787Y-161123D01*
X96325Y-160710D01*
X96737Y-160173D01*
X96997Y-159546D01*
X97019Y-159374D01*
D02*
G37*
G36*
X89000Y-155946D02*
Y-158874D01*
X88500D01*
Y-159374D01*
X85572D01*
X85608Y-159649D01*
X85907Y-160371D01*
X86383Y-160991D01*
X86478Y-161065D01*
X86280Y-161543D01*
X86000Y-161506D01*
X85225Y-161608D01*
X84503Y-161907D01*
X83883Y-162383D01*
X83407Y-163003D01*
X83108Y-163725D01*
X83072Y-164000D01*
X88928D01*
X88892Y-163725D01*
X88593Y-163003D01*
X88117Y-162383D01*
X88022Y-162310D01*
X88220Y-161831D01*
X88500Y-161868D01*
X89275Y-161766D01*
X89997Y-161467D01*
X90617Y-160991D01*
X91093Y-160371D01*
X91392Y-159649D01*
X91440Y-159282D01*
X91945D01*
X91980Y-159546D01*
X92239Y-160173D01*
X92652Y-160710D01*
X93190Y-161123D01*
X93816Y-161383D01*
X93988Y-161405D01*
Y-158874D01*
Y-156343D01*
X93816Y-156366D01*
X93190Y-156625D01*
X92652Y-157038D01*
X92239Y-157576D01*
X91980Y-158202D01*
X91945Y-158467D01*
X91440D01*
X91392Y-158099D01*
X91093Y-157377D01*
X90617Y-156757D01*
X89997Y-156281D01*
X89275Y-155982D01*
X89000Y-155946D01*
D02*
G37*
G36*
X15075Y-161898D02*
Y-165319D01*
X18496D01*
X18426Y-164787D01*
X18028Y-163826D01*
X17394Y-163000D01*
X16568Y-162366D01*
X15607Y-161968D01*
X15075Y-161898D01*
D02*
G37*
G36*
X14075Y-161898D02*
X13543Y-161968D01*
X12582Y-162366D01*
X11756Y-163000D01*
X11122Y-163826D01*
X10724Y-164787D01*
X10654Y-165319D01*
X14075D01*
Y-161898D01*
D02*
G37*
G36*
X96012Y-163288D02*
Y-165319D01*
X98043D01*
X98020Y-165147D01*
X97761Y-164520D01*
X97348Y-163983D01*
X96810Y-163570D01*
X96184Y-163310D01*
X96012Y-163288D01*
D02*
G37*
G36*
X95012D02*
X94840Y-163310D01*
X94213Y-163570D01*
X93676Y-163983D01*
X93263Y-164520D01*
X93003Y-165147D01*
X92981Y-165319D01*
X95012D01*
Y-163288D01*
D02*
G37*
G36*
X88928Y-165000D02*
X86500D01*
Y-167428D01*
X86775Y-167392D01*
X87497Y-167093D01*
X88117Y-166617D01*
X88593Y-165997D01*
X88892Y-165275D01*
X88928Y-165000D01*
D02*
G37*
G36*
X85500D02*
X83072D01*
X83108Y-165275D01*
X83407Y-165997D01*
X83883Y-166617D01*
X84420Y-167030D01*
X84247Y-167491D01*
X84075Y-167469D01*
Y-169500D01*
X86106D01*
X86084Y-169328D01*
X85824Y-168702D01*
X85411Y-168164D01*
X84977Y-167831D01*
X85225Y-167392D01*
X85500Y-167428D01*
Y-165000D01*
D02*
G37*
G36*
X98043Y-166319D02*
X96012D01*
Y-168350D01*
X96184Y-168327D01*
X96810Y-168068D01*
X97348Y-167655D01*
X97761Y-167118D01*
X98020Y-166491D01*
X98043Y-166319D01*
D02*
G37*
G36*
X95012D02*
X92981D01*
X93003Y-166491D01*
X93263Y-167118D01*
X93676Y-167655D01*
X94213Y-168068D01*
X94840Y-168327D01*
X95012Y-168350D01*
Y-166319D01*
D02*
G37*
G36*
X83075Y-167469D02*
X82903Y-167491D01*
X82276Y-167751D01*
X81739Y-168164D01*
X81326Y-168702D01*
X81066Y-169328D01*
X81044Y-169500D01*
X83075D01*
Y-167469D01*
D02*
G37*
G36*
X14075Y-166319D02*
X10654D01*
X10724Y-166851D01*
X11122Y-167812D01*
X11756Y-168638D01*
X12582Y-169272D01*
X13543Y-169670D01*
X14075Y-169740D01*
Y-166319D01*
D02*
G37*
G36*
X18496D02*
X15075D01*
Y-169740D01*
X15607Y-169670D01*
X16568Y-169272D01*
X17394Y-168638D01*
X18028Y-167812D01*
X18426Y-166851D01*
X18496Y-166319D01*
D02*
G37*
G36*
X86106Y-170500D02*
X84075D01*
Y-172531D01*
X84247Y-172509D01*
X84873Y-172249D01*
X85411Y-171836D01*
X85824Y-171299D01*
X86084Y-170672D01*
X86106Y-170500D01*
D02*
G37*
G36*
X83075D02*
X81044D01*
X81066Y-170672D01*
X81326Y-171299D01*
X81739Y-171836D01*
X82276Y-172249D01*
X82903Y-172509D01*
X83075Y-172531D01*
Y-170500D01*
D02*
G37*
G36*
X133815Y-166470D02*
X132901Y-166590D01*
X132050Y-166943D01*
X131319Y-167504D01*
X130953Y-167981D01*
X130717Y-168028D01*
X129890Y-168580D01*
X119989Y-178481D01*
X119161Y-178590D01*
X118310Y-178943D01*
X117579Y-179504D01*
X117018Y-180235D01*
X116665Y-181086D01*
X116545Y-182000D01*
X116665Y-182914D01*
X117018Y-183765D01*
X117579Y-184496D01*
X118310Y-185057D01*
X119161Y-185410D01*
X120075Y-185530D01*
X120989Y-185410D01*
X121840Y-185057D01*
X122571Y-184496D01*
X123132Y-183765D01*
X123485Y-182914D01*
X123594Y-182086D01*
X132455Y-173225D01*
X132901Y-173410D01*
X133815Y-173530D01*
X134729Y-173410D01*
X135580Y-173057D01*
X136311Y-172496D01*
X136872Y-171765D01*
X137225Y-170914D01*
X137345Y-170000D01*
X137225Y-169086D01*
X136872Y-168235D01*
X136311Y-167504D01*
X135580Y-166943D01*
X134729Y-166590D01*
X133815Y-166470D01*
D02*
G37*
G36*
X18328Y-172066D02*
X10822D01*
Y-179572D01*
X18328D01*
Y-172066D01*
D02*
G37*
G36*
X84575Y-147039D02*
X83725Y-147208D01*
X83005Y-147690D01*
X82523Y-148410D01*
X82354Y-149260D01*
X82523Y-150110D01*
X83005Y-150830D01*
X83046Y-150857D01*
Y-153367D01*
X55623Y-180789D01*
X55575Y-180779D01*
X54725Y-180948D01*
X54005Y-181430D01*
X53523Y-182150D01*
X53354Y-183000D01*
X53523Y-183850D01*
X54005Y-184570D01*
X54725Y-185052D01*
X55575Y-185221D01*
X56425Y-185052D01*
X57145Y-184570D01*
X57626Y-183850D01*
X57796Y-183000D01*
X57786Y-182952D01*
X85656Y-155081D01*
X85988Y-154585D01*
X86104Y-154000D01*
Y-150857D01*
X86145Y-150830D01*
X86626Y-150110D01*
X86796Y-149260D01*
X86626Y-148410D01*
X86145Y-147690D01*
X85425Y-147208D01*
X84575Y-147039D01*
D02*
G37*
G36*
X46500Y-179072D02*
Y-181500D01*
X48928D01*
X48892Y-181225D01*
X48593Y-180503D01*
X48117Y-179883D01*
X47497Y-179407D01*
X46775Y-179108D01*
X46500Y-179072D01*
D02*
G37*
G36*
X45500D02*
X45225Y-179108D01*
X44503Y-179407D01*
X43883Y-179883D01*
X43407Y-180503D01*
X43108Y-181225D01*
X43072Y-181500D01*
X45500D01*
Y-179072D01*
D02*
G37*
G36*
X48928Y-182500D02*
X46500D01*
Y-184928D01*
X46775Y-184892D01*
X47497Y-184593D01*
X48117Y-184117D01*
X48593Y-183497D01*
X48892Y-182775D01*
X48928Y-182500D01*
D02*
G37*
G36*
X45500D02*
X43072D01*
X43108Y-182775D01*
X43407Y-183497D01*
X43883Y-184117D01*
X44503Y-184593D01*
X45225Y-184892D01*
X45500Y-184928D01*
Y-182500D01*
D02*
G37*
G36*
X139328Y-181247D02*
X131822D01*
Y-188753D01*
X139328D01*
Y-181247D01*
D02*
G37*
G36*
X15075Y-189048D02*
Y-192469D01*
X18496D01*
X18426Y-191937D01*
X18028Y-190975D01*
X17394Y-190149D01*
X16568Y-189516D01*
X15607Y-189118D01*
X15075Y-189048D01*
D02*
G37*
G36*
X14075Y-189048D02*
X13543Y-189118D01*
X12582Y-189516D01*
X11756Y-190149D01*
X11122Y-190975D01*
X10724Y-191937D01*
X10654Y-192469D01*
X14075D01*
Y-189048D01*
D02*
G37*
G36*
X136075Y-191079D02*
Y-194500D01*
X139496D01*
X139426Y-193968D01*
X139028Y-193007D01*
X138394Y-192181D01*
X137568Y-191547D01*
X136607Y-191149D01*
X136075Y-191079D01*
D02*
G37*
G36*
X135075D02*
X134543Y-191149D01*
X133581Y-191547D01*
X132756Y-192181D01*
X132122Y-193007D01*
X131724Y-193968D01*
X131654Y-194500D01*
X135075D01*
Y-191079D01*
D02*
G37*
G36*
X109827Y-193238D02*
Y-195063D01*
X111652D01*
X111567Y-194635D01*
X111041Y-193849D01*
X110255Y-193323D01*
X109827Y-193238D01*
D02*
G37*
G36*
X108827D02*
X108399Y-193323D01*
X107613Y-193849D01*
X107087Y-194635D01*
X107002Y-195063D01*
X108827D01*
Y-193238D01*
D02*
G37*
G36*
X75575Y-193469D02*
Y-195500D01*
X77606D01*
X77583Y-195328D01*
X77324Y-194702D01*
X76911Y-194164D01*
X76373Y-193751D01*
X75747Y-193491D01*
X75575Y-193469D01*
D02*
G37*
G36*
X74575D02*
X74403Y-193491D01*
X73776Y-193751D01*
X73239Y-194164D01*
X72826Y-194702D01*
X72566Y-195328D01*
X72544Y-195500D01*
X74575D01*
Y-193469D01*
D02*
G37*
G36*
X65512Y-193675D02*
Y-195500D01*
X67337D01*
X67252Y-195072D01*
X66726Y-194286D01*
X65940Y-193760D01*
X65512Y-193675D01*
D02*
G37*
G36*
X64512D02*
X64084Y-193760D01*
X63297Y-194286D01*
X62772Y-195072D01*
X62687Y-195500D01*
X64512D01*
Y-193675D01*
D02*
G37*
G36*
X14075Y-193468D02*
X10654D01*
X10724Y-194000D01*
X11122Y-194962D01*
X11756Y-195788D01*
X12582Y-196421D01*
X13543Y-196820D01*
X14075Y-196890D01*
Y-193468D01*
D02*
G37*
G36*
X18496D02*
X15075D01*
Y-196890D01*
X15607Y-196820D01*
X16568Y-196421D01*
X17394Y-195788D01*
X18028Y-194962D01*
X18426Y-194000D01*
X18496Y-193468D01*
D02*
G37*
G36*
X53075Y-195469D02*
Y-197500D01*
X55106D01*
X55084Y-197328D01*
X54824Y-196702D01*
X54411Y-196164D01*
X53873Y-195751D01*
X53247Y-195492D01*
X53075Y-195469D01*
D02*
G37*
G36*
X52075D02*
X51903Y-195492D01*
X51276Y-195751D01*
X50739Y-196164D01*
X50326Y-196702D01*
X50066Y-197328D01*
X50044Y-197500D01*
X52075D01*
Y-195469D01*
D02*
G37*
G36*
X111652Y-196063D02*
X109827D01*
Y-197888D01*
X110255Y-197803D01*
X111041Y-197277D01*
X111567Y-196491D01*
X111652Y-196063D01*
D02*
G37*
G36*
X108827D02*
X107002D01*
X107087Y-196491D01*
X107613Y-197277D01*
X108399Y-197803D01*
X108827Y-197888D01*
Y-196063D01*
D02*
G37*
G36*
X67337Y-196500D02*
X65512D01*
Y-198325D01*
X65940Y-198240D01*
X66726Y-197714D01*
X67252Y-196928D01*
X67337Y-196500D01*
D02*
G37*
G36*
X64512D02*
X62687D01*
X62772Y-196928D01*
X63297Y-197714D01*
X64084Y-198240D01*
X64512Y-198325D01*
Y-196500D01*
D02*
G37*
G36*
X77606D02*
X75575D01*
Y-198531D01*
X75747Y-198509D01*
X76373Y-198249D01*
X76911Y-197836D01*
X77324Y-197299D01*
X77583Y-196672D01*
X77606Y-196500D01*
D02*
G37*
G36*
X74575D02*
X72544D01*
X72566Y-196672D01*
X72826Y-197299D01*
X73239Y-197836D01*
X73776Y-198249D01*
X74403Y-198509D01*
X74575Y-198531D01*
Y-196500D01*
D02*
G37*
G36*
X139496Y-195500D02*
X136075D01*
Y-198921D01*
X136607Y-198851D01*
X137568Y-198453D01*
X138394Y-197819D01*
X139028Y-196994D01*
X139426Y-196032D01*
X139496Y-195500D01*
D02*
G37*
G36*
X135075D02*
X131654D01*
X131724Y-196032D01*
X132122Y-196994D01*
X132756Y-197819D01*
X133581Y-198453D01*
X134543Y-198851D01*
X135075Y-198921D01*
Y-195500D01*
D02*
G37*
G36*
X39075Y-197675D02*
Y-199500D01*
X40900D01*
X40815Y-199072D01*
X40289Y-198286D01*
X39503Y-197760D01*
X39075Y-197675D01*
D02*
G37*
G36*
X38075D02*
X37647Y-197760D01*
X36860Y-198286D01*
X36335Y-199072D01*
X36250Y-199500D01*
X38075D01*
Y-197675D01*
D02*
G37*
G36*
X55106Y-198500D02*
X53075D01*
Y-200531D01*
X53247Y-200509D01*
X53873Y-200249D01*
X54411Y-199836D01*
X54824Y-199299D01*
X55084Y-198672D01*
X55106Y-198500D01*
D02*
G37*
G36*
X52075D02*
X50044D01*
X50066Y-198672D01*
X50326Y-199299D01*
X50739Y-199836D01*
X51276Y-200249D01*
X51903Y-200509D01*
X52075Y-200531D01*
Y-198500D01*
D02*
G37*
G36*
X40900Y-200500D02*
X39075D01*
Y-202325D01*
X39503Y-202240D01*
X40289Y-201714D01*
X40815Y-200928D01*
X40900Y-200500D01*
D02*
G37*
G36*
X38075D02*
X36250D01*
X36335Y-200928D01*
X36860Y-201714D01*
X37647Y-202240D01*
X38075Y-202325D01*
Y-200500D01*
D02*
G37*
G36*
X107315Y-200437D02*
Y-202469D01*
X109346D01*
X109324Y-202296D01*
X109064Y-201670D01*
X108651Y-201132D01*
X108114Y-200719D01*
X107487Y-200460D01*
X107315Y-200437D01*
D02*
G37*
G36*
X106315D02*
X106143Y-200460D01*
X105517Y-200719D01*
X104979Y-201132D01*
X104566Y-201670D01*
X104306Y-202296D01*
X104284Y-202469D01*
X106315D01*
Y-200437D01*
D02*
G37*
G36*
X57252Y-200040D02*
Y-202469D01*
X59680D01*
X59644Y-202194D01*
X59345Y-201471D01*
X58869Y-200851D01*
X58249Y-200376D01*
X57527Y-200076D01*
X57252Y-200040D01*
D02*
G37*
G36*
X56252D02*
X55977Y-200076D01*
X55255Y-200376D01*
X54635Y-200851D01*
X54159Y-201471D01*
X53860Y-202194D01*
X53824Y-202469D01*
X56252D01*
Y-200040D01*
D02*
G37*
G36*
X85500Y-201072D02*
Y-203500D01*
X87928D01*
X87892Y-203225D01*
X87593Y-202503D01*
X87117Y-201883D01*
X86497Y-201407D01*
X85775Y-201108D01*
X85500Y-201072D01*
D02*
G37*
G36*
X84500D02*
X84225Y-201108D01*
X83503Y-201407D01*
X82883Y-201883D01*
X82407Y-202503D01*
X82108Y-203225D01*
X82072Y-203500D01*
X84500D01*
Y-201072D01*
D02*
G37*
G36*
X70252D02*
Y-203500D01*
X72680D01*
X72644Y-203225D01*
X72345Y-202503D01*
X71869Y-201883D01*
X71249Y-201407D01*
X70527Y-201108D01*
X70252Y-201072D01*
D02*
G37*
G36*
X69252D02*
X68977Y-201108D01*
X68255Y-201407D01*
X67635Y-201883D01*
X67159Y-202503D01*
X66860Y-203225D01*
X66824Y-203500D01*
X69252D01*
Y-201072D01*
D02*
G37*
G36*
X109346Y-203469D02*
X107315D01*
Y-205500D01*
X107487Y-205477D01*
X108114Y-205218D01*
X108651Y-204805D01*
X109064Y-204267D01*
X109324Y-203641D01*
X109346Y-203469D01*
D02*
G37*
G36*
X106315D02*
X104284D01*
X104306Y-203641D01*
X104566Y-204267D01*
X104979Y-204805D01*
X105517Y-205218D01*
X106143Y-205477D01*
X106315Y-205500D01*
Y-203469D01*
D02*
G37*
G36*
X142000Y-203072D02*
Y-205500D01*
X144428D01*
X144392Y-205225D01*
X144093Y-204503D01*
X143617Y-203883D01*
X142997Y-203407D01*
X142275Y-203108D01*
X142000Y-203072D01*
D02*
G37*
G36*
X141000D02*
X140725Y-203108D01*
X140003Y-203407D01*
X139383Y-203883D01*
X138907Y-204503D01*
X138608Y-205225D01*
X138572Y-205500D01*
X141000D01*
Y-203072D01*
D02*
G37*
G36*
X59680Y-203469D02*
X57252D01*
Y-205897D01*
X57527Y-205861D01*
X58249Y-205561D01*
X58869Y-205086D01*
X59345Y-204466D01*
X59644Y-203744D01*
X59680Y-203469D01*
D02*
G37*
G36*
X56252D02*
X53824D01*
X53860Y-203744D01*
X54159Y-204466D01*
X54635Y-205086D01*
X55255Y-205561D01*
X55977Y-205861D01*
X56252Y-205897D01*
Y-203469D01*
D02*
G37*
G36*
X18328Y-199216D02*
X10822D01*
Y-206721D01*
X18328D01*
Y-199216D01*
D02*
G37*
G36*
X87928Y-204500D02*
X85500D01*
Y-206928D01*
X85775Y-206892D01*
X86497Y-206593D01*
X87117Y-206117D01*
X87593Y-205497D01*
X87892Y-204775D01*
X87928Y-204500D01*
D02*
G37*
G36*
X84500D02*
X82072D01*
X82108Y-204775D01*
X82407Y-205497D01*
X82883Y-206117D01*
X83503Y-206593D01*
X84225Y-206892D01*
X84500Y-206928D01*
Y-204500D01*
D02*
G37*
G36*
X72680D02*
X70252D01*
Y-206928D01*
X70527Y-206892D01*
X71249Y-206593D01*
X71869Y-206117D01*
X72345Y-205497D01*
X72644Y-204775D01*
X72680Y-204500D01*
D02*
G37*
G36*
X69252D02*
X66824D01*
X66860Y-204775D01*
X67159Y-205497D01*
X67635Y-206117D01*
X68255Y-206593D01*
X68977Y-206892D01*
X69252Y-206928D01*
Y-204500D01*
D02*
G37*
G36*
X144428Y-206500D02*
X142000D01*
Y-208928D01*
X142275Y-208892D01*
X142997Y-208593D01*
X143617Y-208117D01*
X144093Y-207497D01*
X144392Y-206775D01*
X144428Y-206500D01*
D02*
G37*
G36*
X141000D02*
X138572D01*
X138608Y-206775D01*
X138907Y-207497D01*
X139383Y-208117D01*
X140003Y-208593D01*
X140725Y-208892D01*
X141000Y-208928D01*
Y-206500D01*
D02*
G37*
G36*
X82000Y-213072D02*
Y-215500D01*
X84428D01*
X84392Y-215225D01*
X84093Y-214503D01*
X83617Y-213883D01*
X82997Y-213407D01*
X82275Y-213108D01*
X82000Y-213072D01*
D02*
G37*
G36*
X81000D02*
X80725Y-213108D01*
X80003Y-213407D01*
X79383Y-213883D01*
X78907Y-214503D01*
X78608Y-215225D01*
X78572Y-215500D01*
X81000D01*
Y-213072D01*
D02*
G37*
G36*
X6000Y-214572D02*
Y-217000D01*
X8428D01*
X8392Y-216725D01*
X8093Y-216003D01*
X7617Y-215383D01*
X6997Y-214907D01*
X6275Y-214608D01*
X6000Y-214572D01*
D02*
G37*
G36*
X5000D02*
X4725Y-214608D01*
X4003Y-214907D01*
X3383Y-215383D01*
X2907Y-216003D01*
X2608Y-216725D01*
X2572Y-217000D01*
X5000D01*
Y-214572D01*
D02*
G37*
G36*
X84428Y-216500D02*
X82000D01*
Y-218928D01*
X82275Y-218892D01*
X82997Y-218593D01*
X83617Y-218117D01*
X84093Y-217497D01*
X84392Y-216775D01*
X84428Y-216500D01*
D02*
G37*
G36*
X81000D02*
X78572D01*
X78608Y-216775D01*
X78907Y-217497D01*
X79383Y-218117D01*
X80003Y-218593D01*
X80725Y-218892D01*
X81000Y-218928D01*
Y-216500D01*
D02*
G37*
G36*
X8428Y-218000D02*
X6000D01*
Y-220428D01*
X6275Y-220392D01*
X6997Y-220093D01*
X7617Y-219617D01*
X8093Y-218997D01*
X8392Y-218275D01*
X8428Y-218000D01*
D02*
G37*
G36*
X5000D02*
X2572D01*
X2608Y-218275D01*
X2907Y-218997D01*
X3383Y-219617D01*
X4003Y-220093D01*
X4725Y-220392D01*
X5000Y-220428D01*
Y-218000D01*
D02*
G37*
G36*
X134315Y-219072D02*
Y-221500D01*
X136743D01*
X136707Y-221225D01*
X136408Y-220503D01*
X135932Y-219883D01*
X135312Y-219407D01*
X134590Y-219108D01*
X134315Y-219072D01*
D02*
G37*
G36*
X133315D02*
X133040Y-219108D01*
X132318Y-219407D01*
X131698Y-219883D01*
X131222Y-220503D01*
X130923Y-221225D01*
X130887Y-221500D01*
X133315D01*
Y-219072D01*
D02*
G37*
G36*
X136743Y-222500D02*
X134315D01*
Y-224928D01*
X134590Y-224892D01*
X135312Y-224593D01*
X135932Y-224117D01*
X136408Y-223497D01*
X136707Y-222775D01*
X136743Y-222500D01*
D02*
G37*
G36*
X133315D02*
X130887D01*
X130923Y-222775D01*
X131222Y-223497D01*
X131698Y-224117D01*
X132318Y-224593D01*
X133040Y-224892D01*
X133315Y-224928D01*
Y-222500D01*
D02*
G37*
G36*
X82000Y-228572D02*
Y-231000D01*
X84428D01*
X84392Y-230725D01*
X84093Y-230003D01*
X83617Y-229383D01*
X82997Y-228907D01*
X82275Y-228608D01*
X82000Y-228572D01*
D02*
G37*
G36*
X81000D02*
X80725Y-228608D01*
X80003Y-228907D01*
X79383Y-229383D01*
X78907Y-230003D01*
X78608Y-230725D01*
X78572Y-231000D01*
X81000D01*
Y-228572D01*
D02*
G37*
G36*
X110965Y-230851D02*
X107315D01*
Y-234500D01*
X110965D01*
Y-230851D01*
D02*
G37*
G36*
X137965D02*
X134315D01*
Y-234500D01*
X137965D01*
Y-230851D01*
D02*
G37*
G36*
X106315D02*
X102665D01*
Y-234500D01*
X106315D01*
Y-230851D01*
D02*
G37*
G36*
X133315D02*
X129666D01*
Y-234500D01*
X133315D01*
Y-230851D01*
D02*
G37*
G36*
X8000Y-234072D02*
Y-236500D01*
X10428D01*
X10392Y-236225D01*
X10093Y-235503D01*
X9617Y-234883D01*
X8997Y-234407D01*
X8275Y-234108D01*
X8000Y-234072D01*
D02*
G37*
G36*
X7000D02*
X6725Y-234108D01*
X6003Y-234407D01*
X5383Y-234883D01*
X4907Y-235503D01*
X4608Y-236225D01*
X4572Y-236500D01*
X7000D01*
Y-234072D01*
D02*
G37*
G36*
X123815Y-231016D02*
X122784Y-231152D01*
X121823Y-231550D01*
X120998Y-232183D01*
X120365Y-233008D01*
X119967Y-233969D01*
X119831Y-235000D01*
X119967Y-236031D01*
X120159Y-236494D01*
X117182Y-239471D01*
X112815D01*
X112230Y-239587D01*
X111734Y-239919D01*
X108309Y-243344D01*
X107846Y-243152D01*
X106815Y-243016D01*
X105784Y-243152D01*
X104823Y-243550D01*
X103998Y-244183D01*
X103365Y-245008D01*
X102967Y-245969D01*
X102831Y-247000D01*
X102967Y-248031D01*
X103365Y-248992D01*
X103998Y-249817D01*
X104823Y-250450D01*
X105784Y-250848D01*
X106815Y-250984D01*
X107846Y-250848D01*
X108807Y-250450D01*
X109632Y-249817D01*
X110265Y-248992D01*
X110663Y-248031D01*
X110799Y-247000D01*
X110663Y-245969D01*
X110471Y-245507D01*
X113449Y-242529D01*
X117815D01*
X118400Y-242413D01*
X118896Y-242081D01*
X122322Y-238656D01*
X122784Y-238848D01*
X123815Y-238984D01*
X124846Y-238848D01*
X125807Y-238450D01*
X126632Y-237817D01*
X127265Y-236992D01*
X127663Y-236031D01*
X127799Y-235000D01*
X127663Y-233969D01*
X127265Y-233008D01*
X126632Y-232183D01*
X125807Y-231550D01*
X124846Y-231152D01*
X123815Y-231016D01*
D02*
G37*
G36*
X96815D02*
X95784Y-231152D01*
X94823Y-231550D01*
X93998Y-232183D01*
X93365Y-233008D01*
X92967Y-233969D01*
X92831Y-235000D01*
X92967Y-236031D01*
X93365Y-236992D01*
X93998Y-237817D01*
X94823Y-238450D01*
X95784Y-238848D01*
X96815Y-238984D01*
X97846Y-238848D01*
X98807Y-238450D01*
X99632Y-237817D01*
X100265Y-236992D01*
X100663Y-236031D01*
X100799Y-235000D01*
X100663Y-233969D01*
X100265Y-233008D01*
X99632Y-232183D01*
X98807Y-231550D01*
X97846Y-231152D01*
X96815Y-231016D01*
D02*
G37*
G36*
X137965Y-235500D02*
X134315D01*
Y-239150D01*
X137965D01*
Y-235500D01*
D02*
G37*
G36*
X133315D02*
X129666D01*
Y-239150D01*
X133315D01*
Y-235500D01*
D02*
G37*
G36*
X110965D02*
X107315D01*
Y-239150D01*
X110965D01*
Y-235500D01*
D02*
G37*
G36*
X106315D02*
X102665D01*
Y-239150D01*
X106315D01*
Y-235500D01*
D02*
G37*
G36*
X10428Y-237500D02*
X8000D01*
Y-239928D01*
X8275Y-239892D01*
X8997Y-239593D01*
X9617Y-239117D01*
X10093Y-238497D01*
X10392Y-237775D01*
X10428Y-237500D01*
D02*
G37*
G36*
X7000D02*
X4572D01*
X4608Y-237775D01*
X4907Y-238497D01*
X5383Y-239117D01*
X6003Y-239593D01*
X6725Y-239892D01*
X7000Y-239928D01*
Y-237500D01*
D02*
G37*
G36*
X56055Y-232516D02*
X55024Y-232652D01*
X54063Y-233050D01*
X53238Y-233683D01*
X52605Y-234508D01*
X52207Y-235469D01*
X52072Y-236500D01*
X52207Y-237531D01*
X52605Y-238492D01*
X53238Y-239317D01*
X54063Y-239950D01*
X55024Y-240348D01*
X56055Y-240484D01*
X57086Y-240348D01*
X58047Y-239950D01*
X58872Y-239317D01*
X59505Y-238492D01*
X59903Y-237531D01*
X60039Y-236500D01*
X59903Y-235469D01*
X59505Y-234508D01*
X58872Y-233683D01*
X58047Y-233050D01*
X57086Y-232652D01*
X56055Y-232516D01*
D02*
G37*
G36*
X79315Y-248469D02*
Y-250500D01*
X81346D01*
X81324Y-250328D01*
X81064Y-249701D01*
X80651Y-249164D01*
X80114Y-248751D01*
X79487Y-248492D01*
X79315Y-248469D01*
D02*
G37*
G36*
X78315D02*
X78143Y-248492D01*
X77517Y-248751D01*
X76979Y-249164D01*
X76566Y-249701D01*
X76307Y-250328D01*
X76284Y-250500D01*
X78315D01*
Y-248469D01*
D02*
G37*
G36*
X61378D02*
Y-250500D01*
X63409D01*
X63387Y-250328D01*
X63127Y-249701D01*
X62714Y-249164D01*
X62177Y-248751D01*
X61550Y-248492D01*
X61378Y-248469D01*
D02*
G37*
G36*
X60378D02*
X60206Y-248492D01*
X59580Y-248751D01*
X59042Y-249164D01*
X58629Y-249701D01*
X58369Y-250328D01*
X58347Y-250500D01*
X60378D01*
Y-248469D01*
D02*
G37*
G36*
X127765Y-243051D02*
X119866D01*
Y-250950D01*
X127765D01*
Y-243051D01*
D02*
G37*
G36*
X56055Y-221516D02*
X55024Y-221652D01*
X54063Y-222050D01*
X53238Y-222683D01*
X52605Y-223508D01*
X52207Y-224469D01*
X52072Y-225500D01*
X52207Y-226531D01*
X52605Y-227492D01*
X53238Y-228317D01*
X54063Y-228950D01*
X55024Y-229348D01*
X56055Y-229484D01*
X57086Y-229348D01*
X57549Y-229156D01*
X62106Y-233713D01*
Y-240450D01*
X70005D01*
Y-238029D01*
X85682D01*
X92866Y-245213D01*
Y-250950D01*
X100765D01*
Y-243051D01*
X95028D01*
X87397Y-235419D01*
X86900Y-235087D01*
X86315Y-234971D01*
X81711D01*
X81678Y-234471D01*
X81804Y-234454D01*
X82275Y-234392D01*
X82997Y-234093D01*
X83617Y-233617D01*
X84093Y-232997D01*
X84392Y-232275D01*
X84428Y-232000D01*
X78572D01*
X78608Y-232275D01*
X78907Y-232997D01*
X79383Y-233617D01*
X80003Y-234093D01*
X80725Y-234392D01*
X81196Y-234454D01*
X81322Y-234471D01*
X81289Y-234971D01*
X70005D01*
Y-232551D01*
X65268D01*
X62630Y-229912D01*
X62821Y-229450D01*
X70005D01*
Y-221550D01*
X62106D01*
Y-228734D01*
X61644Y-228926D01*
X59712Y-226994D01*
X59903Y-226531D01*
X60039Y-225500D01*
X59903Y-224469D01*
X59505Y-223508D01*
X58872Y-222683D01*
X58047Y-222050D01*
X57086Y-221652D01*
X56055Y-221516D01*
D02*
G37*
G36*
X133815Y-243016D02*
X132784Y-243152D01*
X131823Y-243550D01*
X130998Y-244183D01*
X130365Y-245008D01*
X129967Y-245969D01*
X129831Y-247000D01*
X129967Y-248031D01*
X130365Y-248992D01*
X130998Y-249817D01*
X131823Y-250450D01*
X132784Y-250848D01*
X133815Y-250984D01*
X134846Y-250848D01*
X135807Y-250450D01*
X136632Y-249817D01*
X137265Y-248992D01*
X137663Y-248031D01*
X137799Y-247000D01*
X137663Y-245969D01*
X137265Y-245008D01*
X136632Y-244183D01*
X135807Y-243550D01*
X134846Y-243152D01*
X133815Y-243016D01*
D02*
G37*
G36*
X81346Y-251500D02*
X79315D01*
Y-253531D01*
X79487Y-253509D01*
X80114Y-253249D01*
X80651Y-252836D01*
X81064Y-252299D01*
X81324Y-251672D01*
X81346Y-251500D01*
D02*
G37*
G36*
X78315D02*
X76284D01*
X76307Y-251672D01*
X76566Y-252299D01*
X76979Y-252836D01*
X77517Y-253249D01*
X78143Y-253509D01*
X78315Y-253531D01*
Y-251500D01*
D02*
G37*
G36*
X63409D02*
X61378D01*
Y-253531D01*
X61550Y-253509D01*
X62177Y-253249D01*
X62714Y-252836D01*
X63127Y-252299D01*
X63387Y-251672D01*
X63409Y-251500D01*
D02*
G37*
G36*
X60378D02*
X58347D01*
X58369Y-251672D01*
X58629Y-252299D01*
X59042Y-252836D01*
X59580Y-253249D01*
X60206Y-253509D01*
X60378Y-253531D01*
Y-251500D01*
D02*
G37*
G36*
X16075Y-251252D02*
Y-254673D01*
X19496D01*
X19426Y-254141D01*
X19028Y-253180D01*
X18394Y-252354D01*
X17568Y-251721D01*
X16607Y-251322D01*
X16075Y-251252D01*
D02*
G37*
G36*
X15075D02*
X14543Y-251322D01*
X13581Y-251721D01*
X12756Y-252354D01*
X12122Y-253180D01*
X11724Y-254141D01*
X11654Y-254673D01*
X15075D01*
Y-251252D01*
D02*
G37*
G36*
X125000Y-256572D02*
Y-259000D01*
X127428D01*
X127392Y-258725D01*
X127093Y-258003D01*
X126617Y-257383D01*
X125997Y-256907D01*
X125275Y-256608D01*
X125000Y-256572D01*
D02*
G37*
G36*
X124000D02*
X123725Y-256608D01*
X123003Y-256907D01*
X122383Y-257383D01*
X121907Y-258003D01*
X121608Y-258725D01*
X121572Y-259000D01*
X124000D01*
Y-256572D01*
D02*
G37*
G36*
X19496Y-255673D02*
X16075D01*
Y-259094D01*
X16607Y-259024D01*
X17568Y-258626D01*
X18394Y-257992D01*
X19028Y-257167D01*
X19426Y-256205D01*
X19496Y-255673D01*
D02*
G37*
G36*
X15075D02*
X11654D01*
X11724Y-256205D01*
X12122Y-257167D01*
X12756Y-257992D01*
X13581Y-258626D01*
X14543Y-259024D01*
X15075Y-259094D01*
Y-255673D01*
D02*
G37*
G36*
X127428Y-260000D02*
X125000D01*
Y-262428D01*
X125275Y-262392D01*
X125997Y-262093D01*
X126617Y-261617D01*
X127093Y-260997D01*
X127392Y-260275D01*
X127428Y-260000D01*
D02*
G37*
G36*
X124000D02*
X121572D01*
X121608Y-260275D01*
X121907Y-260997D01*
X122383Y-261617D01*
X123003Y-262093D01*
X123725Y-262392D01*
X124000Y-262428D01*
Y-260000D01*
D02*
G37*
G36*
X63315Y-261469D02*
X63143Y-261491D01*
X62517Y-261751D01*
X61979Y-262164D01*
X61566Y-262702D01*
X61307Y-263328D01*
X61284Y-263500D01*
X63315D01*
Y-261469D01*
D02*
G37*
G36*
X68815Y-252953D02*
X67965Y-253122D01*
X67245Y-253603D01*
X66764Y-254324D01*
X66594Y-255173D01*
X66764Y-256023D01*
X67245Y-256744D01*
X67286Y-256771D01*
Y-263403D01*
X67245Y-263430D01*
X66908Y-263934D01*
X66387Y-263813D01*
X66324Y-263328D01*
X66064Y-262702D01*
X65651Y-262164D01*
X65114Y-261751D01*
X64487Y-261491D01*
X64315Y-261469D01*
Y-264000D01*
Y-266531D01*
X64487Y-266509D01*
X65114Y-266249D01*
X65651Y-265836D01*
X66064Y-265299D01*
X66118Y-265168D01*
X66638Y-265219D01*
X66764Y-265850D01*
X67245Y-266570D01*
X67965Y-267052D01*
X68815Y-267221D01*
X69665Y-267052D01*
X70385Y-266570D01*
X70867Y-265850D01*
X71036Y-265000D01*
X70867Y-264150D01*
X70385Y-263430D01*
X70345Y-263403D01*
Y-256771D01*
X70385Y-256744D01*
X70867Y-256023D01*
X71036Y-255173D01*
X70867Y-254324D01*
X70385Y-253603D01*
X69665Y-253122D01*
X68815Y-252953D01*
D02*
G37*
G36*
X63315Y-264500D02*
X61284D01*
X61307Y-264672D01*
X61566Y-265299D01*
X61979Y-265836D01*
X62517Y-266249D01*
X63143Y-266509D01*
X63315Y-266531D01*
Y-264500D01*
D02*
G37*
G36*
X40346Y-266500D02*
X38315D01*
Y-268531D01*
X38487Y-268509D01*
X39114Y-268249D01*
X39651Y-267836D01*
X40064Y-267299D01*
X40324Y-266672D01*
X40346Y-266500D01*
D02*
G37*
G36*
X19328Y-261420D02*
X11822D01*
Y-268457D01*
X11322Y-268556D01*
X11093Y-268003D01*
X10617Y-267383D01*
X9997Y-266907D01*
X9275Y-266608D01*
X9000Y-266572D01*
Y-269000D01*
X11823D01*
X11923Y-268926D01*
X19328D01*
Y-261420D01*
D02*
G37*
G36*
X8000Y-266572D02*
X7725Y-266608D01*
X7003Y-266907D01*
X6383Y-267383D01*
X5907Y-268003D01*
X5608Y-268725D01*
X5572Y-269000D01*
X8000D01*
Y-266572D01*
D02*
G37*
G36*
X23575Y-266969D02*
X23403Y-266991D01*
X22776Y-267251D01*
X22239Y-267664D01*
X21826Y-268201D01*
X21566Y-268828D01*
X21544Y-269000D01*
X23575D01*
Y-266969D01*
D02*
G37*
G36*
X138000Y-268072D02*
Y-270500D01*
X140428D01*
X140392Y-270225D01*
X140093Y-269503D01*
X139617Y-268883D01*
X138997Y-268407D01*
X138275Y-268108D01*
X138000Y-268072D01*
D02*
G37*
G36*
X137000D02*
X136725Y-268108D01*
X136003Y-268407D01*
X135383Y-268883D01*
X134907Y-269503D01*
X134608Y-270225D01*
X134572Y-270500D01*
X137000D01*
Y-268072D01*
D02*
G37*
G36*
X23575Y-270000D02*
X21544D01*
X21566Y-270172D01*
X21826Y-270799D01*
X22239Y-271336D01*
X22776Y-271749D01*
X23403Y-272009D01*
X23575Y-272031D01*
Y-270000D01*
D02*
G37*
G36*
X11428Y-270000D02*
X9000D01*
Y-272428D01*
X9275Y-272392D01*
X9997Y-272093D01*
X10617Y-271617D01*
X11093Y-270997D01*
X11392Y-270275D01*
X11428Y-270000D01*
D02*
G37*
G36*
X8000D02*
X5572D01*
X5608Y-270275D01*
X5907Y-270997D01*
X6383Y-271617D01*
X7003Y-272093D01*
X7725Y-272392D01*
X8000Y-272428D01*
Y-270000D01*
D02*
G37*
G36*
X81815Y-268779D02*
X80965Y-268949D01*
X80245Y-269430D01*
X79764Y-270150D01*
X79594Y-271000D01*
X79604Y-271048D01*
X79182Y-271471D01*
X76260D01*
X75675Y-271587D01*
X75178Y-271919D01*
X48308Y-298789D01*
X48260Y-298779D01*
X47410Y-298949D01*
X46690Y-299430D01*
X46208Y-300150D01*
X46039Y-301000D01*
X46208Y-301850D01*
X46690Y-302570D01*
X47410Y-303052D01*
X48260Y-303221D01*
X49110Y-303052D01*
X49830Y-302570D01*
X50311Y-301850D01*
X50481Y-301000D01*
X50471Y-300952D01*
X76893Y-274529D01*
X79815D01*
X80400Y-274413D01*
X80897Y-274081D01*
X81767Y-273211D01*
X81815Y-273221D01*
X82665Y-273052D01*
X83385Y-272570D01*
X83867Y-271850D01*
X84036Y-271000D01*
X83867Y-270150D01*
X83385Y-269430D01*
X82665Y-268949D01*
X81815Y-268779D01*
D02*
G37*
G36*
X58315Y-271469D02*
Y-273500D01*
X60346D01*
X60324Y-273328D01*
X60064Y-272702D01*
X59651Y-272164D01*
X59114Y-271751D01*
X58487Y-271492D01*
X58315Y-271469D01*
D02*
G37*
G36*
X57315D02*
X57143Y-271492D01*
X56517Y-271751D01*
X55979Y-272164D01*
X55566Y-272702D01*
X55307Y-273328D01*
X55284Y-273500D01*
X57315D01*
Y-271469D01*
D02*
G37*
G36*
X140428Y-271500D02*
X138000D01*
Y-273928D01*
X138275Y-273892D01*
X138997Y-273593D01*
X139617Y-273117D01*
X140093Y-272497D01*
X140392Y-271775D01*
X140428Y-271500D01*
D02*
G37*
G36*
X137000D02*
X134572D01*
X134608Y-271775D01*
X134907Y-272497D01*
X135383Y-273117D01*
X136003Y-273593D01*
X136725Y-273892D01*
X137000Y-273928D01*
Y-271500D01*
D02*
G37*
G36*
X46500Y-274072D02*
Y-276500D01*
X48928D01*
X48892Y-276225D01*
X48593Y-275503D01*
X48117Y-274883D01*
X47497Y-274407D01*
X46775Y-274108D01*
X46500Y-274072D01*
D02*
G37*
G36*
X45500D02*
X45225Y-274108D01*
X44503Y-274407D01*
X43883Y-274883D01*
X43407Y-275503D01*
X43108Y-276225D01*
X43072Y-276500D01*
X45500D01*
Y-274072D01*
D02*
G37*
G36*
X60346Y-274500D02*
X58315D01*
Y-276531D01*
X58487Y-276509D01*
X59114Y-276249D01*
X59651Y-275836D01*
X60064Y-275299D01*
X60324Y-274672D01*
X60346Y-274500D01*
D02*
G37*
G36*
X57315D02*
X55284D01*
X55307Y-274672D01*
X55566Y-275299D01*
X55979Y-275836D01*
X56517Y-276249D01*
X57143Y-276509D01*
X57315Y-276531D01*
Y-274500D01*
D02*
G37*
G36*
X91886Y-275969D02*
Y-278000D01*
X93917D01*
X93894Y-277828D01*
X93635Y-277202D01*
X93222Y-276664D01*
X92685Y-276251D01*
X92058Y-275992D01*
X91886Y-275969D01*
D02*
G37*
G36*
X90886D02*
X90714Y-275992D01*
X90087Y-276251D01*
X89550Y-276664D01*
X89137Y-277202D01*
X88877Y-277828D01*
X88855Y-278000D01*
X90886D01*
Y-275969D01*
D02*
G37*
G36*
X48928Y-277500D02*
X46500D01*
Y-279928D01*
X46775Y-279892D01*
X47497Y-279593D01*
X48117Y-279117D01*
X48593Y-278497D01*
X48892Y-277775D01*
X48928Y-277500D01*
D02*
G37*
G36*
X45500D02*
X43072D01*
X43108Y-277775D01*
X43407Y-278497D01*
X43883Y-279117D01*
X44503Y-279593D01*
X45225Y-279892D01*
X45500Y-279928D01*
Y-277500D01*
D02*
G37*
G36*
X83315Y-278469D02*
Y-280500D01*
X85346D01*
X85324Y-280328D01*
X85064Y-279701D01*
X84651Y-279164D01*
X84114Y-278751D01*
X83487Y-278491D01*
X83315Y-278469D01*
D02*
G37*
G36*
X82315D02*
X82143Y-278491D01*
X81517Y-278751D01*
X80979Y-279164D01*
X80566Y-279701D01*
X80307Y-280328D01*
X80284Y-280500D01*
X82315D01*
Y-278469D01*
D02*
G37*
G36*
X93917Y-279000D02*
X91886D01*
Y-281031D01*
X92058Y-281009D01*
X92685Y-280749D01*
X93222Y-280336D01*
X93635Y-279799D01*
X93894Y-279172D01*
X93917Y-279000D01*
D02*
G37*
G36*
X90886D02*
X88855D01*
X88877Y-279172D01*
X89137Y-279799D01*
X89550Y-280336D01*
X90087Y-280749D01*
X90714Y-281009D01*
X90886Y-281031D01*
Y-279000D01*
D02*
G37*
G36*
X16075Y-278579D02*
Y-282000D01*
X19496D01*
X19426Y-281468D01*
X19028Y-280507D01*
X18394Y-279681D01*
X17568Y-279047D01*
X16607Y-278649D01*
X16075Y-278579D01*
D02*
G37*
G36*
X15075D02*
X14543Y-278649D01*
X13581Y-279047D01*
X12756Y-279681D01*
X12122Y-280507D01*
X11724Y-281468D01*
X11654Y-282000D01*
X15075D01*
Y-278579D01*
D02*
G37*
G36*
X85346Y-281500D02*
X83315D01*
Y-283531D01*
X83487Y-283509D01*
X84114Y-283249D01*
X84651Y-282836D01*
X85064Y-282299D01*
X85324Y-281672D01*
X85346Y-281500D01*
D02*
G37*
G36*
X82315D02*
X80284D01*
X80307Y-281672D01*
X80566Y-282299D01*
X80979Y-282836D01*
X81517Y-283249D01*
X82143Y-283509D01*
X82315Y-283531D01*
Y-281500D01*
D02*
G37*
G36*
X89886Y-283469D02*
Y-285500D01*
X91917D01*
X91895Y-285328D01*
X91635Y-284701D01*
X91222Y-284164D01*
X90684Y-283751D01*
X90058Y-283491D01*
X89886Y-283469D01*
D02*
G37*
G36*
X88886D02*
X88714Y-283491D01*
X88087Y-283751D01*
X87550Y-284164D01*
X87137Y-284701D01*
X86877Y-285328D01*
X86855Y-285500D01*
X88886D01*
Y-283469D01*
D02*
G37*
G36*
X19496Y-283000D02*
X16075D01*
Y-286421D01*
X16607Y-286351D01*
X17568Y-285953D01*
X18394Y-285319D01*
X19028Y-284493D01*
X19426Y-283532D01*
X19496Y-283000D01*
D02*
G37*
G36*
X15075D02*
X11654D01*
X11724Y-283532D01*
X12122Y-284493D01*
X12756Y-285319D01*
X13581Y-285953D01*
X14543Y-286351D01*
X15075Y-286421D01*
Y-283000D01*
D02*
G37*
G36*
X91917Y-286500D02*
X89886D01*
Y-288531D01*
X90058Y-288509D01*
X90684Y-288249D01*
X91222Y-287836D01*
X91635Y-287298D01*
X91895Y-286672D01*
X91917Y-286500D01*
D02*
G37*
G36*
X88886D02*
X86855D01*
X86877Y-286672D01*
X87137Y-287298D01*
X87550Y-287836D01*
X88087Y-288249D01*
X88714Y-288509D01*
X88886Y-288531D01*
Y-286500D01*
D02*
G37*
G36*
X140249Y-288306D02*
X132743D01*
Y-290641D01*
X132243Y-290811D01*
X132062Y-290575D01*
X131524Y-290162D01*
X130898Y-289902D01*
X130726Y-289880D01*
Y-292411D01*
Y-294942D01*
X130898Y-294919D01*
X131524Y-294660D01*
X132062Y-294247D01*
X132243Y-294011D01*
X132743Y-294181D01*
Y-295812D01*
X140249D01*
Y-288306D01*
D02*
G37*
G36*
X129726Y-289880D02*
X129554Y-289902D01*
X128927Y-290162D01*
X128390Y-290575D01*
X127977Y-291112D01*
X127717Y-291739D01*
X127695Y-291911D01*
X129726D01*
Y-289880D01*
D02*
G37*
G36*
Y-292911D02*
X127695D01*
X127717Y-293083D01*
X127977Y-293709D01*
X128390Y-294247D01*
X128927Y-294660D01*
X129554Y-294919D01*
X129726Y-294942D01*
Y-292911D01*
D02*
G37*
G36*
X19328Y-288747D02*
X11822D01*
Y-296253D01*
X19328D01*
Y-288747D01*
D02*
G37*
G36*
X64315Y-294131D02*
Y-296559D01*
X66743D01*
X66707Y-296284D01*
X66408Y-295562D01*
X65932Y-294942D01*
X65312Y-294466D01*
X64590Y-294167D01*
X64315Y-294131D01*
D02*
G37*
G36*
X63315D02*
X63040Y-294167D01*
X62318Y-294466D01*
X61698Y-294942D01*
X61222Y-295562D01*
X60923Y-296284D01*
X60887Y-296559D01*
X63315D01*
Y-294131D01*
D02*
G37*
G36*
X40500Y-296572D02*
Y-299000D01*
X42928D01*
X42892Y-298725D01*
X42593Y-298003D01*
X42117Y-297383D01*
X41497Y-296907D01*
X40775Y-296608D01*
X40500Y-296572D01*
D02*
G37*
G36*
X39500D02*
X39225Y-296608D01*
X38503Y-296907D01*
X37883Y-297383D01*
X37407Y-298003D01*
X37108Y-298725D01*
X37072Y-299000D01*
X39500D01*
Y-296572D01*
D02*
G37*
G36*
X11500Y-297198D02*
Y-299626D01*
X13928D01*
X13892Y-299351D01*
X13593Y-298629D01*
X13117Y-298009D01*
X12497Y-297533D01*
X11775Y-297234D01*
X11500Y-297198D01*
D02*
G37*
G36*
X10500D02*
X10225Y-297234D01*
X9503Y-297533D01*
X8883Y-298009D01*
X8407Y-298629D01*
X8108Y-299351D01*
X8072Y-299626D01*
X10500D01*
Y-297198D01*
D02*
G37*
G36*
X66743Y-297559D02*
X64315D01*
Y-299987D01*
X64590Y-299951D01*
X65312Y-299652D01*
X65932Y-299176D01*
X66408Y-298556D01*
X66707Y-297834D01*
X66743Y-297559D01*
D02*
G37*
G36*
X63315D02*
X60887D01*
X60923Y-297834D01*
X61222Y-298556D01*
X61698Y-299176D01*
X62318Y-299652D01*
X63040Y-299951D01*
X63315Y-299987D01*
Y-297559D01*
D02*
G37*
G36*
X129815Y-277470D02*
X128901Y-277590D01*
X128050Y-277943D01*
X127319Y-278504D01*
X126758Y-279235D01*
X126405Y-280086D01*
X126296Y-280914D01*
X118395Y-288815D01*
X117843Y-289642D01*
X117649Y-290617D01*
Y-294310D01*
X117319Y-294563D01*
X116758Y-295294D01*
X116405Y-296145D01*
X116285Y-297059D01*
X116405Y-297973D01*
X116758Y-298824D01*
X117319Y-299555D01*
X118050Y-300116D01*
X118901Y-300469D01*
X119815Y-300589D01*
X120729Y-300469D01*
X121580Y-300116D01*
X122311Y-299555D01*
X122872Y-298824D01*
X123225Y-297973D01*
X123345Y-297059D01*
X123225Y-296145D01*
X122872Y-295294D01*
X122747Y-295130D01*
Y-291673D01*
X129901Y-284519D01*
X130729Y-284410D01*
X131580Y-284057D01*
X132311Y-283496D01*
X132872Y-282765D01*
X133225Y-281914D01*
X133345Y-281000D01*
X133225Y-280086D01*
X132872Y-279235D01*
X132311Y-278504D01*
X131580Y-277943D01*
X130729Y-277590D01*
X129815Y-277470D01*
D02*
G37*
G36*
X136996Y-298138D02*
Y-301559D01*
X140417D01*
X140347Y-301027D01*
X139949Y-300066D01*
X139315Y-299240D01*
X138490Y-298606D01*
X137528Y-298208D01*
X136996Y-298138D01*
D02*
G37*
G36*
X135996Y-298138D02*
X135464Y-298208D01*
X134503Y-298606D01*
X133677Y-299240D01*
X133044Y-300066D01*
X132645Y-301027D01*
X132575Y-301559D01*
X135996D01*
Y-298138D01*
D02*
G37*
G36*
X42928Y-300000D02*
X40500D01*
Y-302428D01*
X40775Y-302392D01*
X41497Y-302093D01*
X42117Y-301617D01*
X42593Y-300997D01*
X42892Y-300275D01*
X42928Y-300000D01*
D02*
G37*
G36*
X39500D02*
X37072D01*
X37108Y-300275D01*
X37407Y-300997D01*
X37883Y-301617D01*
X38503Y-302093D01*
X39225Y-302392D01*
X39500Y-302428D01*
Y-300000D01*
D02*
G37*
G36*
X13928Y-300626D02*
X11500D01*
Y-303054D01*
X11775Y-303018D01*
X12497Y-302719D01*
X13117Y-302243D01*
X13593Y-301623D01*
X13892Y-300901D01*
X13928Y-300626D01*
D02*
G37*
G36*
X10500D02*
X8072D01*
X8108Y-300901D01*
X8407Y-301623D01*
X8883Y-302243D01*
X9503Y-302719D01*
X10225Y-303018D01*
X10500Y-303054D01*
Y-300626D01*
D02*
G37*
G36*
X140417Y-302559D02*
X136996D01*
Y-305980D01*
X137528Y-305910D01*
X138490Y-305512D01*
X139315Y-304878D01*
X139949Y-304052D01*
X140347Y-303091D01*
X140417Y-302559D01*
D02*
G37*
G36*
X135996D02*
X132575D01*
X132645Y-303091D01*
X133044Y-304052D01*
X133677Y-304878D01*
X134503Y-305512D01*
X135464Y-305910D01*
X135996Y-305980D01*
Y-302559D01*
D02*
G37*
G36*
X16075Y-307079D02*
Y-310500D01*
X19496D01*
X19426Y-309968D01*
X19028Y-309007D01*
X18394Y-308181D01*
X17568Y-307547D01*
X16607Y-307149D01*
X16075Y-307079D01*
D02*
G37*
G36*
X15075D02*
X14543Y-307149D01*
X13581Y-307547D01*
X12756Y-308181D01*
X12122Y-309007D01*
X11724Y-309968D01*
X11654Y-310500D01*
X15075D01*
Y-307079D01*
D02*
G37*
G36*
X133575Y-310072D02*
Y-312500D01*
X136003D01*
X135967Y-312225D01*
X135668Y-311503D01*
X135192Y-310883D01*
X134572Y-310407D01*
X133850Y-310108D01*
X133575Y-310072D01*
D02*
G37*
G36*
X132575D02*
X132300Y-310108D01*
X131578Y-310407D01*
X130958Y-310883D01*
X130482Y-311503D01*
X130183Y-312225D01*
X130147Y-312500D01*
X132575D01*
Y-310072D01*
D02*
G37*
G36*
X110315Y-310469D02*
Y-312500D01*
X112346D01*
X112324Y-312328D01*
X112064Y-311701D01*
X111651Y-311164D01*
X111114Y-310751D01*
X110487Y-310491D01*
X110315Y-310469D01*
D02*
G37*
G36*
X109315D02*
X109143Y-310491D01*
X108517Y-310751D01*
X107979Y-311164D01*
X107566Y-311701D01*
X107307Y-312328D01*
X107284Y-312500D01*
X109315D01*
Y-310469D01*
D02*
G37*
G36*
X19496Y-311500D02*
X16075D01*
Y-314921D01*
X16607Y-314851D01*
X17568Y-314453D01*
X18394Y-313819D01*
X19028Y-312994D01*
X19426Y-312032D01*
X19496Y-311500D01*
D02*
G37*
G36*
X15075D02*
X11654D01*
X11724Y-312032D01*
X12122Y-312994D01*
X12756Y-313819D01*
X13581Y-314453D01*
X14543Y-314851D01*
X15075Y-314921D01*
Y-311500D01*
D02*
G37*
G36*
X69252Y-313374D02*
Y-315406D01*
X71283D01*
X71261Y-315233D01*
X71001Y-314607D01*
X70588Y-314069D01*
X70051Y-313656D01*
X69424Y-313397D01*
X69252Y-313374D01*
D02*
G37*
G36*
X68252D02*
X68080Y-313397D01*
X67454Y-313656D01*
X66916Y-314069D01*
X66503Y-314607D01*
X66244Y-315233D01*
X66221Y-315406D01*
X68252D01*
Y-313374D01*
D02*
G37*
G36*
X141315Y-313469D02*
Y-315500D01*
X143346D01*
X143324Y-315328D01*
X143064Y-314702D01*
X142651Y-314164D01*
X142114Y-313751D01*
X141487Y-313492D01*
X141315Y-313469D01*
D02*
G37*
G36*
X140315D02*
X140143Y-313492D01*
X139517Y-313751D01*
X138979Y-314164D01*
X138566Y-314702D01*
X138306Y-315328D01*
X138284Y-315500D01*
X140315D01*
Y-313469D01*
D02*
G37*
G36*
X48760D02*
Y-315500D01*
X50791D01*
X50769Y-315328D01*
X50509Y-314702D01*
X50096Y-314164D01*
X49558Y-313751D01*
X48932Y-313492D01*
X48760Y-313469D01*
D02*
G37*
G36*
X47760D02*
X47588Y-313492D01*
X46962Y-313751D01*
X46424Y-314164D01*
X46011Y-314702D01*
X45751Y-315328D01*
X45729Y-315500D01*
X47760D01*
Y-313469D01*
D02*
G37*
G36*
X112346Y-313500D02*
X110315D01*
Y-315531D01*
X110487Y-315509D01*
X111114Y-315249D01*
X111651Y-314836D01*
X112064Y-314299D01*
X112324Y-313672D01*
X112346Y-313500D01*
D02*
G37*
G36*
X109315D02*
X107284D01*
X107307Y-313672D01*
X107566Y-314299D01*
X107979Y-314836D01*
X108517Y-315249D01*
X109143Y-315509D01*
X109315Y-315531D01*
Y-313500D01*
D02*
G37*
G36*
X136003D02*
X133575D01*
Y-315928D01*
X133850Y-315892D01*
X134572Y-315593D01*
X135192Y-315117D01*
X135668Y-314497D01*
X135967Y-313775D01*
X136003Y-313500D01*
D02*
G37*
G36*
X132575D02*
X130147D01*
X130183Y-313775D01*
X130482Y-314497D01*
X130958Y-315117D01*
X131578Y-315593D01*
X132300Y-315892D01*
X132575Y-315928D01*
Y-313500D01*
D02*
G37*
G36*
X39315Y-314469D02*
Y-316500D01*
X41346D01*
X41324Y-316328D01*
X41064Y-315702D01*
X40651Y-315164D01*
X40114Y-314751D01*
X39487Y-314492D01*
X39315Y-314469D01*
D02*
G37*
G36*
X38315D02*
X38143Y-314492D01*
X37517Y-314751D01*
X36979Y-315164D01*
X36566Y-315702D01*
X36307Y-316328D01*
X36284Y-316500D01*
X38315D01*
Y-314469D01*
D02*
G37*
G36*
X71283Y-316406D02*
X69252D01*
Y-318437D01*
X69424Y-318414D01*
X70051Y-318155D01*
X70588Y-317742D01*
X71001Y-317204D01*
X71261Y-316578D01*
X71283Y-316406D01*
D02*
G37*
G36*
X68252D02*
X66221D01*
X66244Y-316578D01*
X66503Y-317204D01*
X66916Y-317742D01*
X67454Y-318155D01*
X68080Y-318414D01*
X68252Y-318437D01*
Y-316406D01*
D02*
G37*
G36*
X99575Y-316469D02*
Y-318500D01*
X101606D01*
X101584Y-318328D01*
X101324Y-317702D01*
X100911Y-317164D01*
X100373Y-316751D01*
X99747Y-316492D01*
X99575Y-316469D01*
D02*
G37*
G36*
X98575D02*
X98403Y-316492D01*
X97776Y-316751D01*
X97238Y-317164D01*
X96826Y-317702D01*
X96566Y-318328D01*
X96544Y-318500D01*
X98575D01*
Y-316469D01*
D02*
G37*
G36*
X143346Y-316500D02*
X141315D01*
Y-318531D01*
X141487Y-318509D01*
X142114Y-318249D01*
X142651Y-317836D01*
X143064Y-317299D01*
X143324Y-316672D01*
X143346Y-316500D01*
D02*
G37*
G36*
X140315D02*
X138284D01*
X138306Y-316672D01*
X138566Y-317299D01*
X138979Y-317836D01*
X139517Y-318249D01*
X140143Y-318509D01*
X140315Y-318531D01*
Y-316500D01*
D02*
G37*
G36*
X50791D02*
X48760D01*
Y-318531D01*
X48932Y-318509D01*
X49558Y-318249D01*
X50096Y-317836D01*
X50509Y-317299D01*
X50769Y-316672D01*
X50791Y-316500D01*
D02*
G37*
G36*
X47760D02*
X45729D01*
X45751Y-316672D01*
X46011Y-317299D01*
X46424Y-317836D01*
X46962Y-318249D01*
X47588Y-318509D01*
X47760Y-318531D01*
Y-316500D01*
D02*
G37*
G36*
X41346Y-317500D02*
X39315D01*
Y-319531D01*
X39487Y-319509D01*
X40114Y-319249D01*
X40651Y-318836D01*
X41064Y-318299D01*
X41324Y-317672D01*
X41346Y-317500D01*
D02*
G37*
G36*
X38315D02*
X36284D01*
X36307Y-317672D01*
X36566Y-318299D01*
X36979Y-318836D01*
X37517Y-319249D01*
X38143Y-319509D01*
X38315Y-319531D01*
Y-317500D01*
D02*
G37*
G36*
X60575Y-318469D02*
Y-320500D01*
X62606D01*
X62584Y-320328D01*
X62324Y-319702D01*
X61911Y-319164D01*
X61373Y-318751D01*
X60747Y-318492D01*
X60575Y-318469D01*
D02*
G37*
G36*
X59575D02*
X59403Y-318492D01*
X58776Y-318751D01*
X58239Y-319164D01*
X57826Y-319702D01*
X57566Y-320328D01*
X57544Y-320500D01*
X59575D01*
Y-318469D01*
D02*
G37*
G36*
X115567Y-319072D02*
Y-321500D01*
X117995D01*
X117959Y-321225D01*
X117660Y-320503D01*
X117184Y-319883D01*
X116564Y-319407D01*
X115842Y-319108D01*
X115567Y-319072D01*
D02*
G37*
G36*
X114567D02*
X114292Y-319108D01*
X113570Y-319407D01*
X112950Y-319883D01*
X112474Y-320503D01*
X112175Y-321225D01*
X112139Y-321500D01*
X114567D01*
Y-319072D01*
D02*
G37*
G36*
X83055D02*
Y-321500D01*
X85483D01*
X85447Y-321225D01*
X85148Y-320503D01*
X84672Y-319883D01*
X84052Y-319407D01*
X83330Y-319108D01*
X83055Y-319072D01*
D02*
G37*
G36*
X82055D02*
X81780Y-319108D01*
X81058Y-319407D01*
X80438Y-319883D01*
X79962Y-320503D01*
X79663Y-321225D01*
X79627Y-321500D01*
X82055D01*
Y-319072D01*
D02*
G37*
G36*
X101606Y-319500D02*
X99575D01*
Y-321531D01*
X99747Y-321509D01*
X100373Y-321249D01*
X100911Y-320836D01*
X101324Y-320299D01*
X101584Y-319672D01*
X101606Y-319500D01*
D02*
G37*
G36*
X98575D02*
X96544D01*
X96566Y-319672D01*
X96826Y-320299D01*
X97238Y-320836D01*
X97776Y-321249D01*
X98403Y-321509D01*
X98575Y-321531D01*
Y-319500D01*
D02*
G37*
G36*
X70252Y-321072D02*
Y-323500D01*
X72680D01*
X72644Y-323225D01*
X72345Y-322503D01*
X71869Y-321883D01*
X71249Y-321407D01*
X70527Y-321108D01*
X70252Y-321072D01*
D02*
G37*
G36*
X69252D02*
X68977Y-321108D01*
X68255Y-321407D01*
X67635Y-321883D01*
X67159Y-322503D01*
X66860Y-323225D01*
X66824Y-323500D01*
X69252D01*
Y-321072D01*
D02*
G37*
G36*
X62606Y-321500D02*
X60575D01*
Y-323531D01*
X60747Y-323509D01*
X61373Y-323249D01*
X61911Y-322836D01*
X62324Y-322299D01*
X62584Y-321672D01*
X62606Y-321500D01*
D02*
G37*
G36*
X59575D02*
X57544D01*
X57566Y-321672D01*
X57826Y-322299D01*
X58239Y-322836D01*
X58776Y-323249D01*
X59403Y-323509D01*
X59575Y-323531D01*
Y-321500D01*
D02*
G37*
G36*
X19328Y-317247D02*
X11822D01*
Y-324753D01*
X19328D01*
Y-317247D01*
D02*
G37*
G36*
X117995Y-322500D02*
X115567D01*
Y-324928D01*
X115842Y-324892D01*
X116564Y-324593D01*
X117184Y-324117D01*
X117660Y-323497D01*
X117959Y-322775D01*
X117995Y-322500D01*
D02*
G37*
G36*
X114567D02*
X112139D01*
X112175Y-322775D01*
X112474Y-323497D01*
X112950Y-324117D01*
X113570Y-324593D01*
X114292Y-324892D01*
X114567Y-324928D01*
Y-322500D01*
D02*
G37*
G36*
X85483D02*
X83055D01*
Y-324928D01*
X83330Y-324892D01*
X84052Y-324593D01*
X84672Y-324117D01*
X85148Y-323497D01*
X85447Y-322775D01*
X85483Y-322500D01*
D02*
G37*
G36*
X82055D02*
X79627D01*
X79663Y-322775D01*
X79962Y-323497D01*
X80438Y-324117D01*
X81058Y-324593D01*
X81780Y-324892D01*
X82055Y-324928D01*
Y-322500D01*
D02*
G37*
G36*
X72680Y-324500D02*
X70252D01*
Y-326928D01*
X70527Y-326892D01*
X71249Y-326593D01*
X71869Y-326117D01*
X72345Y-325497D01*
X72644Y-324775D01*
X72680Y-324500D01*
D02*
G37*
G36*
X69252D02*
X66824D01*
X66860Y-324775D01*
X67159Y-325497D01*
X67635Y-326117D01*
X68255Y-326593D01*
X68977Y-326892D01*
X69252Y-326928D01*
Y-324500D01*
D02*
G37*
G36*
X7000Y-333072D02*
Y-335500D01*
X9428D01*
X9392Y-335225D01*
X9093Y-334503D01*
X8617Y-333883D01*
X7997Y-333407D01*
X7275Y-333108D01*
X7000Y-333072D01*
D02*
G37*
G36*
X6000D02*
X5725Y-333108D01*
X5003Y-333407D01*
X4383Y-333883D01*
X3907Y-334503D01*
X3608Y-335225D01*
X3572Y-335500D01*
X6000D01*
Y-333072D01*
D02*
G37*
G36*
X9428Y-336500D02*
X7000D01*
Y-338928D01*
X7275Y-338892D01*
X7997Y-338593D01*
X8617Y-338117D01*
X9093Y-337497D01*
X9392Y-336775D01*
X9428Y-336500D01*
D02*
G37*
G36*
X6000D02*
X3572D01*
X3608Y-336775D01*
X3907Y-337497D01*
X4383Y-338117D01*
X5003Y-338593D01*
X5725Y-338892D01*
X6000Y-338928D01*
Y-336500D01*
D02*
G37*
G36*
X69587Y-341051D02*
X61688D01*
Y-348950D01*
X69587D01*
Y-341051D01*
D02*
G37*
G36*
X11500Y-351072D02*
Y-353500D01*
X13928D01*
X13892Y-353225D01*
X13593Y-352503D01*
X13117Y-351883D01*
X12497Y-351407D01*
X11775Y-351108D01*
X11500Y-351072D01*
D02*
G37*
G36*
X10500D02*
X10225Y-351108D01*
X9503Y-351407D01*
X8883Y-351883D01*
X8407Y-352503D01*
X8108Y-353225D01*
X8072Y-353500D01*
X10500D01*
Y-351072D01*
D02*
G37*
G36*
X137224Y-350851D02*
X133575D01*
Y-354500D01*
X137224D01*
Y-350851D01*
D02*
G37*
G36*
X111724D02*
X108075D01*
Y-354500D01*
X111724D01*
Y-350851D01*
D02*
G37*
G36*
X107075D02*
X103425D01*
Y-354500D01*
X107075D01*
Y-350851D01*
D02*
G37*
G36*
X132575D02*
X128925D01*
Y-354500D01*
X132575D01*
Y-350851D01*
D02*
G37*
G36*
X13928Y-354500D02*
X11500D01*
Y-356928D01*
X11775Y-356892D01*
X12497Y-356593D01*
X13117Y-356117D01*
X13593Y-355497D01*
X13892Y-354775D01*
X13928Y-354500D01*
D02*
G37*
G36*
X10500D02*
X8072D01*
X8108Y-354775D01*
X8407Y-355497D01*
X8883Y-356117D01*
X9503Y-356593D01*
X10225Y-356892D01*
X10500Y-356928D01*
Y-354500D01*
D02*
G37*
G36*
X123075Y-351016D02*
X122044Y-351152D01*
X121083Y-351550D01*
X120258Y-352183D01*
X119625Y-353008D01*
X119345Y-353684D01*
X118993Y-353919D01*
X110017Y-362895D01*
X109567Y-362550D01*
X108606Y-362152D01*
X107575Y-362016D01*
X106544Y-362152D01*
X105583Y-362550D01*
X104758Y-363183D01*
X104125Y-364008D01*
X103727Y-364969D01*
X103591Y-366000D01*
X103727Y-367031D01*
X104125Y-367992D01*
X104758Y-368817D01*
X105583Y-369450D01*
X106544Y-369848D01*
X107575Y-369984D01*
X108606Y-369848D01*
X109567Y-369450D01*
X110392Y-368817D01*
X111025Y-367992D01*
X111423Y-367031D01*
X111559Y-366000D01*
X111521Y-365717D01*
X119626Y-357611D01*
X120125Y-357644D01*
X120258Y-357817D01*
X121083Y-358450D01*
X122044Y-358848D01*
X123075Y-358984D01*
X124106Y-358848D01*
X125067Y-358450D01*
X125892Y-357817D01*
X126525Y-356992D01*
X126923Y-356031D01*
X127059Y-355000D01*
X126923Y-353969D01*
X126525Y-353008D01*
X125892Y-352183D01*
X125067Y-351550D01*
X124106Y-351152D01*
X123075Y-351016D01*
D02*
G37*
G36*
X97575D02*
X96544Y-351152D01*
X95583Y-351550D01*
X94758Y-352183D01*
X94125Y-353008D01*
X93727Y-353969D01*
X93591Y-355000D01*
X93727Y-356031D01*
X94125Y-356992D01*
X94758Y-357817D01*
X95583Y-358450D01*
X96544Y-358848D01*
X97575Y-358984D01*
X98606Y-358848D01*
X99567Y-358450D01*
X100392Y-357817D01*
X101025Y-356992D01*
X101423Y-356031D01*
X101559Y-355000D01*
X101423Y-353969D01*
X101025Y-353008D01*
X100392Y-352183D01*
X99567Y-351550D01*
X98606Y-351152D01*
X97575Y-351016D01*
D02*
G37*
G36*
X137224Y-355500D02*
X133575D01*
Y-359150D01*
X137224D01*
Y-355500D01*
D02*
G37*
G36*
X132575D02*
X128925D01*
Y-359150D01*
X132575D01*
Y-355500D01*
D02*
G37*
G36*
X111724D02*
X108075D01*
Y-359150D01*
X111724D01*
Y-355500D01*
D02*
G37*
G36*
X107075D02*
X103425D01*
Y-359150D01*
X107075D01*
Y-355500D01*
D02*
G37*
G36*
X55575Y-352016D02*
X54544Y-352152D01*
X53583Y-352550D01*
X52758Y-353183D01*
X52125Y-354008D01*
X51727Y-354969D01*
X51591Y-356000D01*
X51727Y-357031D01*
X52125Y-357992D01*
X52758Y-358817D01*
X53583Y-359450D01*
X54544Y-359848D01*
X55575Y-359984D01*
X56606Y-359848D01*
X57567Y-359450D01*
X58392Y-358817D01*
X59025Y-357992D01*
X59423Y-357031D01*
X59559Y-356000D01*
X59423Y-354969D01*
X59025Y-354008D01*
X58392Y-353183D01*
X57567Y-352550D01*
X56606Y-352152D01*
X55575Y-352016D01*
D02*
G37*
G36*
X83315Y-365469D02*
Y-367500D01*
X85346D01*
X85324Y-367328D01*
X85064Y-366702D01*
X84651Y-366164D01*
X84114Y-365751D01*
X83487Y-365492D01*
X83315Y-365469D01*
D02*
G37*
G36*
X82315D02*
X82143Y-365492D01*
X81517Y-365751D01*
X80979Y-366164D01*
X80566Y-366702D01*
X80307Y-367328D01*
X80284Y-367500D01*
X82315D01*
Y-365469D01*
D02*
G37*
G36*
X69500Y-366969D02*
Y-369000D01*
X71531D01*
X71509Y-368828D01*
X71249Y-368201D01*
X70836Y-367664D01*
X70298Y-367251D01*
X69672Y-366991D01*
X69500Y-366969D01*
D02*
G37*
G36*
X68500D02*
X68328Y-366991D01*
X67702Y-367251D01*
X67164Y-367664D01*
X66751Y-368201D01*
X66492Y-368828D01*
X66469Y-369000D01*
X68500D01*
Y-366969D01*
D02*
G37*
G36*
X127024Y-362051D02*
X119125D01*
Y-369950D01*
X127024D01*
Y-362051D01*
D02*
G37*
G36*
X55638Y-341016D02*
X54607Y-341152D01*
X53646Y-341550D01*
X52821Y-342183D01*
X52188Y-343008D01*
X51790Y-343969D01*
X51654Y-345000D01*
X51790Y-346031D01*
X52188Y-346992D01*
X52821Y-347817D01*
X53646Y-348450D01*
X54607Y-348848D01*
X55638Y-348984D01*
X56308Y-348896D01*
X61625Y-354213D01*
Y-359950D01*
X69525D01*
Y-357529D01*
X86941D01*
X93625Y-364213D01*
Y-369950D01*
X101524D01*
Y-362051D01*
X95788D01*
X88656Y-354919D01*
X88160Y-354587D01*
X87575Y-354471D01*
X69525D01*
Y-352050D01*
X63788D01*
X58932Y-347195D01*
X59088Y-346992D01*
X59486Y-346031D01*
X59622Y-345000D01*
X59486Y-343969D01*
X59088Y-343008D01*
X58455Y-342183D01*
X57630Y-341550D01*
X56669Y-341152D01*
X55638Y-341016D01*
D02*
G37*
G36*
X133075Y-362016D02*
X132044Y-362152D01*
X131083Y-362550D01*
X130258Y-363183D01*
X129625Y-364008D01*
X129227Y-364969D01*
X129091Y-366000D01*
X129227Y-367031D01*
X129625Y-367992D01*
X130258Y-368817D01*
X131083Y-369450D01*
X132044Y-369848D01*
X133075Y-369984D01*
X134106Y-369848D01*
X135067Y-369450D01*
X135892Y-368817D01*
X136525Y-367992D01*
X136923Y-367031D01*
X137059Y-366000D01*
X136923Y-364969D01*
X136525Y-364008D01*
X135892Y-363183D01*
X135067Y-362550D01*
X134106Y-362152D01*
X133075Y-362016D01*
D02*
G37*
G36*
X85346Y-368500D02*
X83315D01*
Y-370531D01*
X83487Y-370509D01*
X84114Y-370249D01*
X84651Y-369836D01*
X85064Y-369299D01*
X85324Y-368672D01*
X85346Y-368500D01*
D02*
G37*
G36*
X82315D02*
X80284D01*
X80307Y-368672D01*
X80566Y-369299D01*
X80979Y-369836D01*
X81517Y-370249D01*
X82143Y-370509D01*
X82315Y-370531D01*
Y-368500D01*
D02*
G37*
G36*
X55575Y-369469D02*
Y-371500D01*
X57606D01*
X57583Y-371328D01*
X57324Y-370702D01*
X56911Y-370164D01*
X56373Y-369751D01*
X55747Y-369492D01*
X55575Y-369469D01*
D02*
G37*
G36*
X54575D02*
X54403Y-369492D01*
X53776Y-369751D01*
X53238Y-370164D01*
X52826Y-370702D01*
X52566Y-371328D01*
X52544Y-371500D01*
X54575D01*
Y-369469D01*
D02*
G37*
G36*
X71531Y-370000D02*
X69500D01*
Y-372031D01*
X69672Y-372008D01*
X70298Y-371749D01*
X70836Y-371336D01*
X71249Y-370798D01*
X71509Y-370172D01*
X71531Y-370000D01*
D02*
G37*
G36*
X68500D02*
X66469D01*
X66492Y-370172D01*
X66751Y-370798D01*
X67164Y-371336D01*
X67702Y-371749D01*
X68328Y-372008D01*
X68500Y-372031D01*
Y-370000D01*
D02*
G37*
G36*
X15575Y-370579D02*
Y-374000D01*
X18996D01*
X18926Y-373468D01*
X18528Y-372507D01*
X17894Y-371681D01*
X17068Y-371047D01*
X16107Y-370649D01*
X15575Y-370579D01*
D02*
G37*
G36*
X14575D02*
X14043Y-370649D01*
X13081Y-371047D01*
X12256Y-371681D01*
X11622Y-372507D01*
X11224Y-373468D01*
X11154Y-374000D01*
X14575D01*
Y-370579D01*
D02*
G37*
G36*
X57606Y-372500D02*
X55575D01*
Y-374531D01*
X55747Y-374509D01*
X56373Y-374249D01*
X56911Y-373836D01*
X57324Y-373299D01*
X57583Y-372672D01*
X57606Y-372500D01*
D02*
G37*
G36*
X54575D02*
X52544D01*
X52566Y-372672D01*
X52826Y-373299D01*
X53238Y-373836D01*
X53776Y-374249D01*
X54403Y-374509D01*
X54575Y-374531D01*
Y-372500D01*
D02*
G37*
G36*
X129500Y-375072D02*
Y-377500D01*
X131928D01*
X131892Y-377225D01*
X131593Y-376503D01*
X131117Y-375883D01*
X130497Y-375407D01*
X129775Y-375108D01*
X129500Y-375072D01*
D02*
G37*
G36*
X128500D02*
X128225Y-375108D01*
X127503Y-375407D01*
X126883Y-375883D01*
X126407Y-376503D01*
X126108Y-377225D01*
X126072Y-377500D01*
X128500D01*
Y-375072D01*
D02*
G37*
G36*
X18996Y-375000D02*
X15575D01*
Y-378421D01*
X16107Y-378351D01*
X17068Y-377953D01*
X17894Y-377319D01*
X18528Y-376494D01*
X18926Y-375532D01*
X18996Y-375000D01*
D02*
G37*
G36*
X14575D02*
X11154D01*
X11224Y-375532D01*
X11622Y-376494D01*
X12256Y-377319D01*
X13081Y-377953D01*
X14043Y-378351D01*
X14575Y-378421D01*
Y-375000D01*
D02*
G37*
G36*
X131928Y-378500D02*
X129500D01*
Y-380928D01*
X129775Y-380892D01*
X130497Y-380593D01*
X131117Y-380117D01*
X131593Y-379497D01*
X131892Y-378775D01*
X131928Y-378500D01*
D02*
G37*
G36*
X128500D02*
X126072D01*
X126108Y-378775D01*
X126407Y-379497D01*
X126883Y-380117D01*
X127503Y-380593D01*
X128225Y-380892D01*
X128500Y-380928D01*
Y-378500D01*
D02*
G37*
G36*
X93500Y-378572D02*
Y-381000D01*
X95928D01*
X95892Y-380725D01*
X95593Y-380003D01*
X95117Y-379383D01*
X94497Y-378907D01*
X93775Y-378608D01*
X93500Y-378572D01*
D02*
G37*
G36*
X92500D02*
X92225Y-378608D01*
X91503Y-378907D01*
X90883Y-379383D01*
X90407Y-380003D01*
X90108Y-380725D01*
X90072Y-381000D01*
X92500D01*
Y-378572D01*
D02*
G37*
G36*
X62138Y-369779D02*
X61288Y-369949D01*
X60568Y-370430D01*
X60086Y-371150D01*
X59917Y-372000D01*
X60086Y-372850D01*
X60568Y-373570D01*
X60609Y-373598D01*
Y-375063D01*
X60725Y-375648D01*
X61057Y-376145D01*
X65864Y-380952D01*
X65854Y-381000D01*
X66023Y-381850D01*
X66505Y-382570D01*
X67225Y-383052D01*
X68075Y-383221D01*
X68925Y-383052D01*
X69645Y-382570D01*
X70126Y-381850D01*
X70296Y-381000D01*
X70126Y-380150D01*
X69645Y-379430D01*
X68925Y-378948D01*
X68075Y-378779D01*
X68027Y-378789D01*
X63667Y-374430D01*
Y-373598D01*
X63708Y-373570D01*
X64189Y-372850D01*
X64359Y-372000D01*
X64189Y-371150D01*
X63708Y-370430D01*
X62988Y-369949D01*
X62138Y-369779D01*
D02*
G37*
G36*
X95928Y-382000D02*
X93500D01*
Y-384428D01*
X93775Y-384392D01*
X94497Y-384093D01*
X95117Y-383617D01*
X95593Y-382997D01*
X95892Y-382275D01*
X95928Y-382000D01*
D02*
G37*
G36*
X92500D02*
X90072D01*
X90108Y-382275D01*
X90407Y-382997D01*
X90883Y-383617D01*
X91503Y-384093D01*
X92225Y-384392D01*
X92500Y-384428D01*
Y-382000D01*
D02*
G37*
G36*
X18828Y-380747D02*
X11322D01*
Y-388253D01*
X18828D01*
Y-380747D01*
D02*
G37*
G36*
X60575Y-387469D02*
Y-389500D01*
X62606D01*
X62584Y-389328D01*
X62324Y-388702D01*
X61911Y-388164D01*
X61373Y-387751D01*
X60747Y-387491D01*
X60575Y-387469D01*
D02*
G37*
G36*
X59575D02*
X59403Y-387491D01*
X58776Y-387751D01*
X58239Y-388164D01*
X57826Y-388702D01*
X57566Y-389328D01*
X57544Y-389500D01*
X59575D01*
Y-387469D01*
D02*
G37*
G36*
X40531Y-388000D02*
X38500D01*
Y-390031D01*
X38672Y-390008D01*
X39298Y-389749D01*
X39836Y-389336D01*
X40249Y-388798D01*
X40508Y-388172D01*
X40531Y-388000D01*
D02*
G37*
G36*
X37500D02*
X35469D01*
X35491Y-388172D01*
X35751Y-388798D01*
X36164Y-389336D01*
X36702Y-389749D01*
X37328Y-390008D01*
X37500Y-390031D01*
Y-388000D01*
D02*
G37*
G36*
X140000Y-387812D02*
Y-390240D01*
X142428D01*
X142392Y-389965D01*
X142093Y-389243D01*
X141617Y-388623D01*
X140997Y-388147D01*
X140275Y-387848D01*
X140000Y-387812D01*
D02*
G37*
G36*
X139000D02*
X138725Y-387848D01*
X138003Y-388147D01*
X137383Y-388623D01*
X136907Y-389243D01*
X136608Y-389965D01*
X136572Y-390240D01*
X139000D01*
Y-387812D01*
D02*
G37*
G36*
X62606Y-390500D02*
X60575D01*
Y-392531D01*
X60747Y-392509D01*
X61373Y-392249D01*
X61911Y-391836D01*
X62324Y-391299D01*
X62584Y-390672D01*
X62606Y-390500D01*
D02*
G37*
G36*
X59575D02*
X57544D01*
X57566Y-390672D01*
X57826Y-391299D01*
X58239Y-391836D01*
X58776Y-392249D01*
X59403Y-392509D01*
X59575Y-392531D01*
Y-390500D01*
D02*
G37*
G36*
X142428Y-391240D02*
X140000D01*
Y-393669D01*
X140275Y-393632D01*
X140997Y-393333D01*
X141617Y-392857D01*
X142093Y-392237D01*
X142392Y-391515D01*
X142428Y-391240D01*
D02*
G37*
G36*
X139000D02*
X136572D01*
X136608Y-391515D01*
X136907Y-392237D01*
X137383Y-392857D01*
X138003Y-393333D01*
X138725Y-393632D01*
X139000Y-393669D01*
Y-391240D01*
D02*
G37*
G36*
X89000Y-393509D02*
Y-395937D01*
X91428D01*
X91392Y-395662D01*
X91093Y-394940D01*
X90617Y-394320D01*
X89997Y-393844D01*
X89275Y-393545D01*
X89000Y-393509D01*
D02*
G37*
G36*
X86075Y-385779D02*
X85225Y-385948D01*
X84505Y-386430D01*
X84023Y-387150D01*
X83854Y-388000D01*
X83874Y-388098D01*
X83662Y-388415D01*
X83546Y-389000D01*
Y-392367D01*
X58123Y-417789D01*
X58075Y-417779D01*
X57225Y-417948D01*
X56505Y-418430D01*
X56023Y-419150D01*
X55854Y-420000D01*
X56023Y-420850D01*
X56505Y-421570D01*
X57225Y-422052D01*
X58075Y-422221D01*
X58925Y-422052D01*
X59645Y-421570D01*
X60127Y-420850D01*
X60295Y-420000D01*
X60286Y-419952D01*
X78528Y-401710D01*
X78952Y-401993D01*
X78856Y-402225D01*
X78820Y-402500D01*
X81248D01*
Y-400072D01*
X80973Y-400108D01*
X80741Y-400204D01*
X80458Y-399780D01*
X85414Y-394824D01*
X85838Y-395107D01*
X85608Y-395662D01*
X85572Y-395937D01*
X88000D01*
Y-393509D01*
X87725Y-393545D01*
X87003Y-393844D01*
X86825Y-393980D01*
X86455Y-393634D01*
X86488Y-393585D01*
X86604Y-393000D01*
Y-390115D01*
X86925Y-390052D01*
X87645Y-389570D01*
X88126Y-388850D01*
X88296Y-388000D01*
X88126Y-387150D01*
X87645Y-386430D01*
X86925Y-385948D01*
X86075Y-385779D01*
D02*
G37*
G36*
X96075Y-393969D02*
Y-396000D01*
X98106D01*
X98084Y-395828D01*
X97824Y-395201D01*
X97411Y-394664D01*
X96873Y-394251D01*
X96247Y-393991D01*
X96075Y-393969D01*
D02*
G37*
G36*
X95075D02*
X94903Y-393991D01*
X94276Y-394251D01*
X93739Y-394664D01*
X93326Y-395201D01*
X93066Y-395828D01*
X93044Y-396000D01*
X95075D01*
Y-393969D01*
D02*
G37*
G36*
X98106Y-397000D02*
X96075D01*
Y-399031D01*
X96247Y-399008D01*
X96873Y-398749D01*
X97411Y-398336D01*
X97824Y-397798D01*
X98084Y-397172D01*
X98106Y-397000D01*
D02*
G37*
G36*
X95075D02*
X93044D01*
X93066Y-397172D01*
X93326Y-397798D01*
X93739Y-398336D01*
X94276Y-398749D01*
X94903Y-399008D01*
X95075Y-399031D01*
Y-397000D01*
D02*
G37*
G36*
X91428Y-396937D02*
X89000D01*
Y-399365D01*
X89275Y-399329D01*
X89997Y-399030D01*
X90617Y-398554D01*
X91093Y-397934D01*
X91392Y-397212D01*
X91428Y-396937D01*
D02*
G37*
G36*
X88000D02*
X85572D01*
X85608Y-397212D01*
X85907Y-397934D01*
X86383Y-398554D01*
X87003Y-399030D01*
X87725Y-399329D01*
X88000Y-399365D01*
Y-396937D01*
D02*
G37*
G36*
X16575Y-398079D02*
Y-401500D01*
X19996D01*
X19926Y-400968D01*
X19528Y-400007D01*
X18894Y-399181D01*
X18068Y-398547D01*
X17107Y-398149D01*
X16575Y-398079D01*
D02*
G37*
G36*
X15575D02*
X15043Y-398149D01*
X14082Y-398547D01*
X13256Y-399181D01*
X12622Y-400007D01*
X12224Y-400968D01*
X12154Y-401500D01*
X15575D01*
Y-398079D01*
D02*
G37*
G36*
X82248Y-400072D02*
Y-402500D01*
X84676D01*
X84640Y-402225D01*
X84341Y-401503D01*
X83865Y-400883D01*
X83245Y-400407D01*
X82523Y-400108D01*
X82248Y-400072D01*
D02*
G37*
G36*
X94500Y-401469D02*
Y-403500D01*
X96531D01*
X96509Y-403328D01*
X96249Y-402702D01*
X95836Y-402164D01*
X95298Y-401751D01*
X94672Y-401491D01*
X94500Y-401469D01*
D02*
G37*
G36*
X93500D02*
X93328Y-401491D01*
X92702Y-401751D01*
X92164Y-402164D01*
X91751Y-402702D01*
X91492Y-403328D01*
X91469Y-403500D01*
X93500D01*
Y-401469D01*
D02*
G37*
G36*
X19996Y-402500D02*
X16575D01*
Y-405921D01*
X17107Y-405851D01*
X18068Y-405453D01*
X18894Y-404819D01*
X19528Y-403994D01*
X19926Y-403032D01*
X19996Y-402500D01*
D02*
G37*
G36*
X15575D02*
X12154D01*
X12224Y-403032D01*
X12622Y-403994D01*
X13256Y-404819D01*
X14082Y-405453D01*
X15043Y-405851D01*
X15575Y-405921D01*
Y-402500D01*
D02*
G37*
G36*
X84676Y-403500D02*
X82248D01*
Y-405928D01*
X82523Y-405892D01*
X83245Y-405593D01*
X83865Y-405117D01*
X84341Y-404497D01*
X84640Y-403775D01*
X84676Y-403500D01*
D02*
G37*
G36*
X81248D02*
X78820D01*
X78856Y-403775D01*
X79155Y-404497D01*
X79631Y-405117D01*
X80251Y-405593D01*
X80973Y-405892D01*
X81248Y-405928D01*
Y-403500D01*
D02*
G37*
G36*
X96531Y-404500D02*
X94500D01*
Y-406531D01*
X94672Y-406508D01*
X95298Y-406249D01*
X95836Y-405836D01*
X96249Y-405299D01*
X96509Y-404672D01*
X96531Y-404500D01*
D02*
G37*
G36*
X93500D02*
X91469D01*
X91492Y-404672D01*
X91751Y-405299D01*
X92164Y-405836D01*
X92702Y-406249D01*
X93328Y-406508D01*
X93500Y-406531D01*
Y-404500D01*
D02*
G37*
G36*
X75000Y-408072D02*
Y-410500D01*
X77428D01*
X77392Y-410225D01*
X77093Y-409503D01*
X76617Y-408883D01*
X75997Y-408407D01*
X75275Y-408108D01*
X75000Y-408072D01*
D02*
G37*
G36*
X74000D02*
X73725Y-408108D01*
X73003Y-408407D01*
X72383Y-408883D01*
X71907Y-409503D01*
X71608Y-410225D01*
X71572Y-410500D01*
X74000D01*
Y-408072D01*
D02*
G37*
G36*
X77428Y-411500D02*
X75000D01*
Y-413928D01*
X75275Y-413892D01*
X75997Y-413593D01*
X76617Y-413117D01*
X77093Y-412497D01*
X77392Y-411775D01*
X77428Y-411500D01*
D02*
G37*
G36*
X74000D02*
X71572D01*
X71608Y-411775D01*
X71907Y-412497D01*
X72383Y-413117D01*
X73003Y-413593D01*
X73725Y-413892D01*
X74000Y-413928D01*
Y-411500D01*
D02*
G37*
G36*
X41512Y-413072D02*
Y-415500D01*
X43940D01*
X43904Y-415225D01*
X43605Y-414503D01*
X43129Y-413883D01*
X42509Y-413407D01*
X41787Y-413108D01*
X41512Y-413072D01*
D02*
G37*
G36*
X40512D02*
X40237Y-413108D01*
X39515Y-413407D01*
X38895Y-413883D01*
X38419Y-414503D01*
X38120Y-415225D01*
X38084Y-415500D01*
X40512D01*
Y-413072D01*
D02*
G37*
G36*
X19828Y-408247D02*
X12322D01*
Y-415753D01*
X19828D01*
Y-408247D01*
D02*
G37*
G36*
X43940Y-416500D02*
X41512D01*
Y-418928D01*
X41787Y-418892D01*
X42509Y-418593D01*
X43129Y-418117D01*
X43605Y-417497D01*
X43904Y-416775D01*
X43940Y-416500D01*
D02*
G37*
G36*
X40512D02*
X38084D01*
X38120Y-416775D01*
X38419Y-417497D01*
X38895Y-418117D01*
X39515Y-418593D01*
X40237Y-418892D01*
X40512Y-418928D01*
Y-416500D01*
D02*
G37*
G36*
X132000Y-400470D02*
X131086Y-400590D01*
X130235Y-400943D01*
X129504Y-401504D01*
X128943Y-402235D01*
X128590Y-403086D01*
X128481Y-403914D01*
X119698Y-412698D01*
X119322Y-413259D01*
X119004Y-413504D01*
X118443Y-414235D01*
X118090Y-415086D01*
X117970Y-416000D01*
X118090Y-416914D01*
X118443Y-417765D01*
X119004Y-418496D01*
X119735Y-419057D01*
X120586Y-419410D01*
X121500Y-419530D01*
X122414Y-419410D01*
X123265Y-419057D01*
X123996Y-418496D01*
X124557Y-417765D01*
X124910Y-416914D01*
X125030Y-416000D01*
X124910Y-415086D01*
X124795Y-414810D01*
X132086Y-407519D01*
X132914Y-407410D01*
X133765Y-407057D01*
X134496Y-406496D01*
X135057Y-405765D01*
X135410Y-404914D01*
X135530Y-404000D01*
X135410Y-403086D01*
X135057Y-402235D01*
X134496Y-401504D01*
X133765Y-400943D01*
X132914Y-400590D01*
X132000Y-400470D01*
D02*
G37*
G36*
X138753Y-414247D02*
X131247D01*
Y-421753D01*
X138753D01*
Y-414247D01*
D02*
G37*
G36*
X135500Y-424079D02*
Y-427500D01*
X138921D01*
X138851Y-426968D01*
X138453Y-426007D01*
X137819Y-425181D01*
X136993Y-424547D01*
X136032Y-424149D01*
X135500Y-424079D01*
D02*
G37*
G36*
X134500D02*
X133968Y-424149D01*
X133007Y-424547D01*
X132181Y-425181D01*
X131547Y-426007D01*
X131149Y-426968D01*
X131079Y-427500D01*
X134500D01*
Y-424079D01*
D02*
G37*
G36*
X16575Y-425579D02*
Y-429000D01*
X19996D01*
X19926Y-428468D01*
X19528Y-427507D01*
X18894Y-426681D01*
X18068Y-426047D01*
X17107Y-425649D01*
X16575Y-425579D01*
D02*
G37*
G36*
X15575D02*
X15043Y-425649D01*
X14082Y-426047D01*
X13256Y-426681D01*
X12622Y-427507D01*
X12224Y-428468D01*
X12154Y-429000D01*
X15575D01*
Y-425579D01*
D02*
G37*
G36*
X134500Y-428500D02*
X131079D01*
X131149Y-429032D01*
X131547Y-429993D01*
X132181Y-430819D01*
X133007Y-431453D01*
X133968Y-431851D01*
X134500Y-431921D01*
Y-428500D01*
D02*
G37*
G36*
X138921D02*
X135500D01*
Y-431921D01*
X136032Y-431851D01*
X136993Y-431453D01*
X137819Y-430819D01*
X138453Y-429993D01*
X138851Y-429032D01*
X138921Y-428500D01*
D02*
G37*
G36*
X19996Y-430000D02*
X16575D01*
Y-433421D01*
X17107Y-433351D01*
X18068Y-432953D01*
X18894Y-432319D01*
X19528Y-431494D01*
X19926Y-430532D01*
X19996Y-430000D01*
D02*
G37*
G36*
X15575D02*
X12154D01*
X12224Y-430532D01*
X12622Y-431494D01*
X13256Y-432319D01*
X14082Y-432953D01*
X15043Y-433351D01*
X15575Y-433421D01*
Y-430000D01*
D02*
G37*
G36*
X51575Y-431469D02*
Y-433500D01*
X53606D01*
X53584Y-433328D01*
X53324Y-432701D01*
X52911Y-432164D01*
X52373Y-431751D01*
X51747Y-431492D01*
X51575Y-431469D01*
D02*
G37*
G36*
X50575D02*
X50403Y-431492D01*
X49776Y-431751D01*
X49238Y-432164D01*
X48826Y-432701D01*
X48566Y-433328D01*
X48544Y-433500D01*
X50575D01*
Y-431469D01*
D02*
G37*
G36*
X116075Y-432969D02*
Y-435000D01*
X118106D01*
X118083Y-434828D01*
X117824Y-434201D01*
X117411Y-433664D01*
X116873Y-433251D01*
X116247Y-432992D01*
X116075Y-432969D01*
D02*
G37*
G36*
X115075D02*
X114903Y-432992D01*
X114276Y-433251D01*
X113739Y-433664D01*
X113326Y-434201D01*
X113066Y-434828D01*
X113044Y-435000D01*
X115075D01*
Y-432969D01*
D02*
G37*
G36*
X37575Y-433469D02*
Y-435500D01*
X39606D01*
X39583Y-435328D01*
X39324Y-434701D01*
X38911Y-434164D01*
X38373Y-433751D01*
X37747Y-433492D01*
X37575Y-433469D01*
D02*
G37*
G36*
X36575D02*
X36403Y-433492D01*
X35776Y-433751D01*
X35239Y-434164D01*
X34826Y-434701D01*
X34566Y-435328D01*
X34544Y-435500D01*
X36575D01*
Y-433469D01*
D02*
G37*
G36*
X53606Y-434500D02*
X51575D01*
Y-436531D01*
X51747Y-436509D01*
X52373Y-436249D01*
X52911Y-435836D01*
X53324Y-435299D01*
X53584Y-434672D01*
X53606Y-434500D01*
D02*
G37*
G36*
X50575D02*
X48544D01*
X48566Y-434672D01*
X48826Y-435299D01*
X49238Y-435836D01*
X49776Y-436249D01*
X50403Y-436509D01*
X50575Y-436531D01*
Y-434500D01*
D02*
G37*
G36*
X139000Y-435469D02*
Y-437500D01*
X141031D01*
X141008Y-437328D01*
X140749Y-436701D01*
X140336Y-436164D01*
X139798Y-435751D01*
X139172Y-435492D01*
X139000Y-435469D01*
D02*
G37*
G36*
X138000D02*
X137828Y-435492D01*
X137201Y-435751D01*
X136664Y-436164D01*
X136251Y-436701D01*
X135992Y-437328D01*
X135969Y-437500D01*
X138000D01*
Y-435469D01*
D02*
G37*
G36*
X76095Y-435469D02*
Y-437500D01*
X78126D01*
X78103Y-437328D01*
X77844Y-436701D01*
X77431Y-436164D01*
X76893Y-435751D01*
X76267Y-435492D01*
X76095Y-435469D01*
D02*
G37*
G36*
X75095D02*
X74923Y-435492D01*
X74296Y-435751D01*
X73758Y-436164D01*
X73346Y-436701D01*
X73086Y-437328D01*
X73063Y-437500D01*
X75095D01*
Y-435469D01*
D02*
G37*
G36*
X66575D02*
Y-437500D01*
X68606D01*
X68584Y-437328D01*
X68324Y-436701D01*
X67911Y-436164D01*
X67373Y-435751D01*
X66747Y-435492D01*
X66575Y-435469D01*
D02*
G37*
G36*
X65575D02*
X65403Y-435492D01*
X64776Y-435751D01*
X64239Y-436164D01*
X63826Y-436701D01*
X63566Y-437328D01*
X63544Y-437500D01*
X65575D01*
Y-435469D01*
D02*
G37*
G36*
X118106Y-436000D02*
X116075D01*
Y-438031D01*
X116247Y-438009D01*
X116873Y-437749D01*
X117411Y-437336D01*
X117824Y-436799D01*
X118083Y-436172D01*
X118106Y-436000D01*
D02*
G37*
G36*
X115075D02*
X113044D01*
X113066Y-436172D01*
X113326Y-436799D01*
X113739Y-437336D01*
X114276Y-437749D01*
X114903Y-438009D01*
X115075Y-438031D01*
Y-436000D01*
D02*
G37*
G36*
X39606Y-436500D02*
X37575D01*
Y-438531D01*
X37747Y-438509D01*
X38373Y-438249D01*
X38911Y-437836D01*
X39324Y-437299D01*
X39583Y-436672D01*
X39606Y-436500D01*
D02*
G37*
G36*
X36575D02*
X34544D01*
X34566Y-436672D01*
X34826Y-437299D01*
X35239Y-437836D01*
X35776Y-438249D01*
X36403Y-438509D01*
X36575Y-438531D01*
Y-436500D01*
D02*
G37*
G36*
X141031Y-438500D02*
X139000D01*
Y-440531D01*
X139172Y-440509D01*
X139798Y-440249D01*
X140336Y-439836D01*
X140749Y-439298D01*
X141008Y-438672D01*
X141031Y-438500D01*
D02*
G37*
G36*
X138000D02*
X135969D01*
X135992Y-438672D01*
X136251Y-439298D01*
X136664Y-439836D01*
X137201Y-440249D01*
X137828Y-440509D01*
X138000Y-440531D01*
Y-438500D01*
D02*
G37*
G36*
X78126Y-438500D02*
X76095D01*
Y-440531D01*
X76267Y-440509D01*
X76893Y-440249D01*
X77431Y-439836D01*
X77844Y-439299D01*
X78103Y-438672D01*
X78126Y-438500D01*
D02*
G37*
G36*
X75095D02*
X73063D01*
X73086Y-438672D01*
X73346Y-439299D01*
X73758Y-439836D01*
X74296Y-440249D01*
X74923Y-440509D01*
X75095Y-440531D01*
Y-438500D01*
D02*
G37*
G36*
X68606D02*
X66575D01*
Y-440531D01*
X66747Y-440509D01*
X67373Y-440249D01*
X67911Y-439836D01*
X68324Y-439299D01*
X68584Y-438672D01*
X68606Y-438500D01*
D02*
G37*
G36*
X65575D02*
X63544D01*
X63566Y-438672D01*
X63826Y-439299D01*
X64239Y-439836D01*
X64776Y-440249D01*
X65403Y-440509D01*
X65575Y-440531D01*
Y-438500D01*
D02*
G37*
G36*
X47000Y-438572D02*
Y-441000D01*
X49428D01*
X49392Y-440725D01*
X49093Y-440003D01*
X48617Y-439383D01*
X47997Y-438907D01*
X47275Y-438608D01*
X47000Y-438572D01*
D02*
G37*
G36*
X46000D02*
X45725Y-438608D01*
X45003Y-438907D01*
X44383Y-439383D01*
X43907Y-440003D01*
X43608Y-440725D01*
X43572Y-441000D01*
X46000D01*
Y-438572D01*
D02*
G37*
G36*
X124075Y-440072D02*
Y-442500D01*
X126503D01*
X126467Y-442225D01*
X126168Y-441503D01*
X125692Y-440883D01*
X125072Y-440407D01*
X124350Y-440108D01*
X124075Y-440072D01*
D02*
G37*
G36*
X123075D02*
X122800Y-440108D01*
X122078Y-440407D01*
X121458Y-440883D01*
X120982Y-441503D01*
X120683Y-442225D01*
X120647Y-442500D01*
X123075D01*
Y-440072D01*
D02*
G37*
G36*
X97500Y-440469D02*
Y-442500D01*
X99531D01*
X99509Y-442328D01*
X99249Y-441702D01*
X98836Y-441164D01*
X98299Y-440751D01*
X97672Y-440491D01*
X97500Y-440469D01*
D02*
G37*
G36*
X96500D02*
X96328Y-440491D01*
X95701Y-440751D01*
X95164Y-441164D01*
X94751Y-441702D01*
X94491Y-442328D01*
X94469Y-442500D01*
X96500D01*
Y-440469D01*
D02*
G37*
G36*
X55575Y-440072D02*
Y-442500D01*
X58003D01*
X57967Y-442225D01*
X57668Y-441503D01*
X57192Y-440883D01*
X56572Y-440407D01*
X55850Y-440108D01*
X55575Y-440072D01*
D02*
G37*
G36*
X54575D02*
X54300Y-440108D01*
X53578Y-440407D01*
X52958Y-440883D01*
X52482Y-441503D01*
X52183Y-442225D01*
X52147Y-442500D01*
X54575D01*
Y-440072D01*
D02*
G37*
G36*
X19828Y-435747D02*
X12322D01*
Y-443253D01*
X19828D01*
Y-435747D01*
D02*
G37*
G36*
X49428Y-442000D02*
X47000D01*
Y-444428D01*
X47275Y-444392D01*
X47997Y-444093D01*
X48617Y-443617D01*
X49093Y-442997D01*
X49392Y-442275D01*
X49428Y-442000D01*
D02*
G37*
G36*
X46000D02*
X43572D01*
X43608Y-442275D01*
X43907Y-442997D01*
X44383Y-443617D01*
X45003Y-444093D01*
X45725Y-444392D01*
X46000Y-444428D01*
Y-442000D01*
D02*
G37*
G36*
X99531Y-443500D02*
X97500D01*
Y-445531D01*
X97672Y-445508D01*
X98299Y-445249D01*
X98836Y-444836D01*
X99249Y-444299D01*
X99509Y-443672D01*
X99531Y-443500D01*
D02*
G37*
G36*
X96500D02*
X94469D01*
X94491Y-443672D01*
X94751Y-444299D01*
X95164Y-444836D01*
X95701Y-445249D01*
X96328Y-445508D01*
X96500Y-445531D01*
Y-443500D01*
D02*
G37*
G36*
X126503D02*
X124075D01*
Y-445928D01*
X124350Y-445892D01*
X125072Y-445593D01*
X125692Y-445117D01*
X126168Y-444497D01*
X126467Y-443775D01*
X126503Y-443500D01*
D02*
G37*
G36*
X123075D02*
X120647D01*
X120683Y-443775D01*
X120982Y-444497D01*
X121458Y-445117D01*
X122078Y-445593D01*
X122800Y-445892D01*
X123075Y-445928D01*
Y-443500D01*
D02*
G37*
G36*
X58003D02*
X55575D01*
Y-445928D01*
X55850Y-445892D01*
X56572Y-445593D01*
X57192Y-445117D01*
X57668Y-444497D01*
X57967Y-443775D01*
X58003Y-443500D01*
D02*
G37*
G36*
X54575D02*
X52147D01*
X52183Y-443775D01*
X52482Y-444497D01*
X52958Y-445117D01*
X53578Y-445593D01*
X54300Y-445892D01*
X54575Y-445928D01*
Y-443500D01*
D02*
G37*
G36*
X143512Y-448469D02*
Y-450500D01*
X145543D01*
X145520Y-450328D01*
X145261Y-449701D01*
X144848Y-449164D01*
X144310Y-448751D01*
X143684Y-448491D01*
X143512Y-448469D01*
D02*
G37*
G36*
X142512D02*
X142340Y-448491D01*
X141713Y-448751D01*
X141176Y-449164D01*
X140763Y-449701D01*
X140503Y-450328D01*
X140481Y-450500D01*
X142512D01*
Y-448469D01*
D02*
G37*
G36*
X145543Y-451500D02*
X143512D01*
Y-453531D01*
X143684Y-453509D01*
X144310Y-453249D01*
X144848Y-452836D01*
X145261Y-452299D01*
X145520Y-451672D01*
X145543Y-451500D01*
D02*
G37*
G36*
X142512D02*
X140481D01*
X140503Y-451672D01*
X140763Y-452299D01*
X141176Y-452836D01*
X141713Y-453249D01*
X142340Y-453509D01*
X142512Y-453531D01*
Y-451500D01*
D02*
G37*
G36*
X68524Y-458050D02*
X60625D01*
Y-465950D01*
X68524D01*
Y-458050D01*
D02*
G37*
G36*
X79000Y-463572D02*
Y-466000D01*
X81428D01*
X81392Y-465725D01*
X81093Y-465003D01*
X80617Y-464383D01*
X79997Y-463907D01*
X79275Y-463608D01*
X79000Y-463572D01*
D02*
G37*
G36*
X78000D02*
X77725Y-463608D01*
X77003Y-463907D01*
X76383Y-464383D01*
X75907Y-465003D01*
X75608Y-465725D01*
X75572Y-466000D01*
X78000D01*
Y-463572D01*
D02*
G37*
G36*
X81428Y-467000D02*
X79000D01*
Y-469428D01*
X79275Y-469392D01*
X79997Y-469093D01*
X80617Y-468617D01*
X81093Y-467997D01*
X81392Y-467275D01*
X81428Y-467000D01*
D02*
G37*
G36*
X78000D02*
X75572D01*
X75608Y-467275D01*
X75907Y-467997D01*
X76383Y-468617D01*
X77003Y-469093D01*
X77725Y-469392D01*
X78000Y-469428D01*
Y-467000D01*
D02*
G37*
G36*
X137724Y-467850D02*
X134075D01*
Y-471500D01*
X137724D01*
Y-467850D01*
D02*
G37*
G36*
X109724D02*
X106075D01*
Y-471500D01*
X109724D01*
Y-467850D01*
D02*
G37*
G36*
X133075D02*
X129425D01*
Y-471500D01*
X133075D01*
Y-467850D01*
D02*
G37*
G36*
X105075D02*
X101425D01*
Y-471500D01*
X105075D01*
Y-467850D01*
D02*
G37*
G36*
X8500Y-470072D02*
Y-472500D01*
X10928D01*
X10892Y-472225D01*
X10593Y-471503D01*
X10117Y-470883D01*
X9497Y-470407D01*
X8775Y-470108D01*
X8500Y-470072D01*
D02*
G37*
G36*
X7500D02*
X7225Y-470108D01*
X6503Y-470407D01*
X5883Y-470883D01*
X5407Y-471503D01*
X5108Y-472225D01*
X5072Y-472500D01*
X7500D01*
Y-470072D01*
D02*
G37*
G36*
X10928Y-473500D02*
X8500D01*
Y-475928D01*
X8775Y-475892D01*
X9497Y-475593D01*
X10117Y-475117D01*
X10593Y-474497D01*
X10892Y-473775D01*
X10928Y-473500D01*
D02*
G37*
G36*
X7500D02*
X5072D01*
X5108Y-473775D01*
X5407Y-474497D01*
X5883Y-475117D01*
X6503Y-475593D01*
X7225Y-475892D01*
X7500Y-475928D01*
Y-473500D01*
D02*
G37*
G36*
X123575Y-468016D02*
X122544Y-468152D01*
X121583Y-468550D01*
X120758Y-469183D01*
X120125Y-470008D01*
X119727Y-470969D01*
X119591Y-472000D01*
X119727Y-473031D01*
X119919Y-473494D01*
X111941Y-481471D01*
X109216D01*
X109025Y-481008D01*
X108392Y-480183D01*
X107567Y-479550D01*
X106606Y-479152D01*
X105575Y-479016D01*
X104544Y-479152D01*
X103583Y-479550D01*
X102758Y-480183D01*
X102125Y-481008D01*
X101727Y-481969D01*
X101591Y-483000D01*
X101727Y-484031D01*
X102125Y-484992D01*
X102758Y-485817D01*
X103583Y-486450D01*
X104544Y-486848D01*
X105575Y-486984D01*
X106606Y-486848D01*
X107567Y-486450D01*
X108392Y-485817D01*
X109025Y-484992D01*
X109216Y-484529D01*
X112575D01*
X113160Y-484413D01*
X113656Y-484082D01*
X122081Y-475656D01*
X122544Y-475848D01*
X123575Y-475984D01*
X124606Y-475848D01*
X125567Y-475450D01*
X126392Y-474817D01*
X127025Y-473992D01*
X127423Y-473031D01*
X127559Y-472000D01*
X127423Y-470969D01*
X127025Y-470008D01*
X126392Y-469183D01*
X125567Y-468550D01*
X124606Y-468152D01*
X123575Y-468016D01*
D02*
G37*
G36*
X95575D02*
X94544Y-468152D01*
X93583Y-468550D01*
X92758Y-469183D01*
X92125Y-470008D01*
X91727Y-470969D01*
X91591Y-472000D01*
X91727Y-473031D01*
X92125Y-473992D01*
X92758Y-474817D01*
X93583Y-475450D01*
X94544Y-475848D01*
X95575Y-475984D01*
X96606Y-475848D01*
X97567Y-475450D01*
X98392Y-474817D01*
X99025Y-473992D01*
X99423Y-473031D01*
X99559Y-472000D01*
X99423Y-470969D01*
X99025Y-470008D01*
X98392Y-469183D01*
X97567Y-468550D01*
X96606Y-468152D01*
X95575Y-468016D01*
D02*
G37*
G36*
X137724Y-472500D02*
X134075D01*
Y-476150D01*
X137724D01*
Y-472500D01*
D02*
G37*
G36*
X133075D02*
X129425D01*
Y-476150D01*
X133075D01*
Y-472500D01*
D02*
G37*
G36*
X109724D02*
X106075D01*
Y-476150D01*
X109724D01*
Y-472500D01*
D02*
G37*
G36*
X105075D02*
X101425D01*
Y-476150D01*
X105075D01*
Y-472500D01*
D02*
G37*
G36*
X54575Y-469016D02*
X53544Y-469152D01*
X52583Y-469550D01*
X51758Y-470183D01*
X51125Y-471008D01*
X50727Y-471969D01*
X50591Y-473000D01*
X50727Y-474031D01*
X51125Y-474992D01*
X51758Y-475817D01*
X52583Y-476450D01*
X53544Y-476848D01*
X54575Y-476984D01*
X55606Y-476848D01*
X56567Y-476450D01*
X57392Y-475817D01*
X58025Y-474992D01*
X58423Y-474031D01*
X58559Y-473000D01*
X58423Y-471969D01*
X58025Y-471008D01*
X57392Y-470183D01*
X56567Y-469550D01*
X55606Y-469152D01*
X54575Y-469016D01*
D02*
G37*
G36*
X80075Y-483469D02*
Y-485500D01*
X82106D01*
X82083Y-485328D01*
X81824Y-484701D01*
X81411Y-484164D01*
X80873Y-483751D01*
X80247Y-483492D01*
X80075Y-483469D01*
D02*
G37*
G36*
X79075D02*
X78903Y-483492D01*
X78276Y-483751D01*
X77738Y-484164D01*
X77326Y-484701D01*
X77066Y-485328D01*
X77044Y-485500D01*
X79075D01*
Y-483469D01*
D02*
G37*
G36*
X127524Y-479050D02*
X119625D01*
Y-486950D01*
X127524D01*
Y-479050D01*
D02*
G37*
G36*
X54575Y-458016D02*
X53544Y-458152D01*
X52583Y-458550D01*
X51758Y-459183D01*
X51125Y-460008D01*
X50727Y-460969D01*
X50591Y-462000D01*
X50727Y-463031D01*
X51125Y-463992D01*
X51758Y-464817D01*
X52583Y-465450D01*
X53544Y-465848D01*
X54575Y-465984D01*
X55300Y-465888D01*
X60625Y-471213D01*
Y-476950D01*
X68524D01*
Y-474529D01*
X82500D01*
X91625Y-483654D01*
Y-486950D01*
X99524D01*
Y-479050D01*
X91625D01*
X91625Y-479050D01*
Y-479050D01*
X91184Y-478887D01*
X84215Y-471919D01*
X83719Y-471587D01*
X83134Y-471471D01*
X68524D01*
Y-469051D01*
X62788D01*
X57897Y-464159D01*
X58025Y-463992D01*
X58423Y-463031D01*
X58559Y-462000D01*
X58423Y-460969D01*
X58025Y-460008D01*
X57392Y-459183D01*
X56567Y-458550D01*
X55606Y-458152D01*
X54575Y-458016D01*
D02*
G37*
G36*
X133575Y-479016D02*
X132544Y-479152D01*
X131583Y-479550D01*
X130758Y-480183D01*
X130125Y-481008D01*
X129727Y-481969D01*
X129591Y-483000D01*
X129727Y-484031D01*
X130125Y-484992D01*
X130758Y-485817D01*
X131583Y-486450D01*
X132544Y-486848D01*
X133575Y-486984D01*
X134606Y-486848D01*
X135567Y-486450D01*
X136392Y-485817D01*
X137025Y-484992D01*
X137423Y-484031D01*
X137559Y-483000D01*
X137423Y-481969D01*
X137025Y-481008D01*
X136392Y-480183D01*
X135567Y-479550D01*
X134606Y-479152D01*
X133575Y-479016D01*
D02*
G37*
G36*
X60725Y-486469D02*
Y-488500D01*
X62756D01*
X62733Y-488328D01*
X62474Y-487702D01*
X62061Y-487164D01*
X61523Y-486751D01*
X60897Y-486491D01*
X60725Y-486469D01*
D02*
G37*
G36*
X59724D02*
X59552Y-486491D01*
X58926Y-486751D01*
X58388Y-487164D01*
X57975Y-487702D01*
X57716Y-488328D01*
X57693Y-488500D01*
X59724D01*
Y-486469D01*
D02*
G37*
G36*
X82106Y-486500D02*
X80075D01*
Y-488531D01*
X80247Y-488509D01*
X80873Y-488249D01*
X81411Y-487836D01*
X81824Y-487299D01*
X82083Y-486672D01*
X82106Y-486500D01*
D02*
G37*
G36*
X79075D02*
X77044D01*
X77066Y-486672D01*
X77326Y-487299D01*
X77738Y-487836D01*
X78276Y-488249D01*
X78903Y-488509D01*
X79075Y-488531D01*
Y-486500D01*
D02*
G37*
G36*
X15000Y-488079D02*
Y-491500D01*
X18421D01*
X18351Y-490968D01*
X17953Y-490007D01*
X17319Y-489181D01*
X16493Y-488547D01*
X15532Y-488149D01*
X15000Y-488079D01*
D02*
G37*
G36*
X14000D02*
X13468Y-488149D01*
X12507Y-488547D01*
X11681Y-489181D01*
X11047Y-490007D01*
X10649Y-490968D01*
X10579Y-491500D01*
X14000D01*
Y-488079D01*
D02*
G37*
G36*
X62756Y-489500D02*
X60725D01*
Y-491531D01*
X60897Y-491509D01*
X61523Y-491249D01*
X62061Y-490836D01*
X62474Y-490299D01*
X62733Y-489672D01*
X62756Y-489500D01*
D02*
G37*
G36*
X59724D02*
X57693D01*
X57716Y-489672D01*
X57975Y-490299D01*
X58388Y-490836D01*
X58926Y-491249D01*
X59552Y-491509D01*
X59724Y-491531D01*
Y-489500D01*
D02*
G37*
G36*
X127000Y-492072D02*
Y-494500D01*
X129428D01*
X129392Y-494225D01*
X129093Y-493503D01*
X128617Y-492883D01*
X127997Y-492407D01*
X127275Y-492108D01*
X127000Y-492072D01*
D02*
G37*
G36*
X126000D02*
X125725Y-492108D01*
X125003Y-492407D01*
X124383Y-492883D01*
X123907Y-493503D01*
X123608Y-494225D01*
X123572Y-494500D01*
X126000D01*
Y-492072D01*
D02*
G37*
G36*
X18421Y-492500D02*
X15000D01*
Y-495921D01*
X15532Y-495851D01*
X16493Y-495453D01*
X17319Y-494819D01*
X17953Y-493993D01*
X18351Y-493032D01*
X18421Y-492500D01*
D02*
G37*
G36*
X14000D02*
X10579D01*
X10649Y-493032D01*
X11047Y-493993D01*
X11681Y-494819D01*
X12507Y-495453D01*
X13468Y-495851D01*
X14000Y-495921D01*
Y-492500D01*
D02*
G37*
G36*
X129428Y-495500D02*
X127000D01*
Y-497928D01*
X127275Y-497892D01*
X127997Y-497593D01*
X128617Y-497117D01*
X129093Y-496497D01*
X129392Y-495775D01*
X129428Y-495500D01*
D02*
G37*
G36*
X126000D02*
X123572D01*
X123608Y-495775D01*
X123907Y-496497D01*
X124383Y-497117D01*
X125003Y-497593D01*
X125725Y-497892D01*
X126000Y-497928D01*
Y-495500D01*
D02*
G37*
G36*
X44462Y-458050D02*
X36562D01*
Y-465950D01*
X38982D01*
Y-469358D01*
X38520Y-469550D01*
X37695Y-470183D01*
X37062Y-471008D01*
X36664Y-471969D01*
X36528Y-473000D01*
X36664Y-474031D01*
X37062Y-474992D01*
X37695Y-475817D01*
X38520Y-476450D01*
X38982Y-476642D01*
Y-498429D01*
X38623Y-498789D01*
X38575Y-498779D01*
X37725Y-498948D01*
X37005Y-499430D01*
X36523Y-500150D01*
X36354Y-501000D01*
X36523Y-501850D01*
X37005Y-502570D01*
X36901Y-503102D01*
X36738Y-503227D01*
X36326Y-503764D01*
X36066Y-504391D01*
X36044Y-504563D01*
X41106D01*
X41083Y-504391D01*
X40824Y-503764D01*
X40411Y-503227D01*
X40249Y-503102D01*
X40145Y-502570D01*
X40626Y-501850D01*
X40795Y-501000D01*
X40786Y-500952D01*
X41593Y-500144D01*
X41925Y-499648D01*
X42041Y-499063D01*
Y-476642D01*
X42504Y-476450D01*
X43329Y-475817D01*
X43962Y-474992D01*
X44360Y-474031D01*
X44496Y-473000D01*
X44360Y-471969D01*
X43962Y-471008D01*
X43329Y-470183D01*
X42504Y-469550D01*
X42041Y-469358D01*
Y-465950D01*
X44462D01*
Y-458050D01*
D02*
G37*
G36*
X30075Y-498469D02*
Y-500500D01*
X32106D01*
X32083Y-500328D01*
X31824Y-499701D01*
X31411Y-499164D01*
X30873Y-498751D01*
X30247Y-498491D01*
X30075Y-498469D01*
D02*
G37*
G36*
X66575Y-488212D02*
X65725Y-488381D01*
X65005Y-488863D01*
X64523Y-489583D01*
X64354Y-490433D01*
X64523Y-491283D01*
X65005Y-492003D01*
X65045Y-492031D01*
Y-499403D01*
X65005Y-499430D01*
X64523Y-500150D01*
X64354Y-501000D01*
X64523Y-501850D01*
X65005Y-502570D01*
X65725Y-503052D01*
X66575Y-503221D01*
X67425Y-503052D01*
X68145Y-502570D01*
X68626Y-501850D01*
X68796Y-501000D01*
X68626Y-500150D01*
X68145Y-499430D01*
X68104Y-499403D01*
Y-492031D01*
X68145Y-492003D01*
X68626Y-491283D01*
X68796Y-490433D01*
X68626Y-489583D01*
X68145Y-488863D01*
X67425Y-488381D01*
X66575Y-488212D01*
D02*
G37*
G36*
X32106Y-501500D02*
X30075D01*
Y-503531D01*
X30247Y-503509D01*
X30873Y-503249D01*
X31411Y-502836D01*
X31824Y-502299D01*
X32083Y-501672D01*
X32106Y-501500D01*
D02*
G37*
G36*
X29075D02*
X27044D01*
X27066Y-501672D01*
X27326Y-502299D01*
X27738Y-502836D01*
X28276Y-503249D01*
X28903Y-503509D01*
X29075Y-503531D01*
Y-501500D01*
D02*
G37*
G36*
X138075Y-503469D02*
Y-505500D01*
X140106D01*
X140083Y-505328D01*
X139824Y-504702D01*
X139411Y-504164D01*
X138873Y-503751D01*
X138247Y-503491D01*
X138075Y-503469D01*
D02*
G37*
G36*
X137075D02*
X136903Y-503491D01*
X136276Y-503751D01*
X135739Y-504164D01*
X135326Y-504702D01*
X135066Y-505328D01*
X135044Y-505500D01*
X137075D01*
Y-503469D01*
D02*
G37*
G36*
X18253Y-498247D02*
X10747D01*
Y-505753D01*
X18253D01*
Y-498247D01*
D02*
G37*
G36*
X41106Y-505563D02*
X39075D01*
Y-507594D01*
X39247Y-507572D01*
X39873Y-507312D01*
X40411Y-506899D01*
X40824Y-506361D01*
X41083Y-505735D01*
X41106Y-505563D01*
D02*
G37*
G36*
X38075D02*
X36044D01*
X36066Y-505735D01*
X36326Y-506361D01*
X36738Y-506899D01*
X37276Y-507312D01*
X37903Y-507572D01*
X38075Y-507594D01*
Y-505563D01*
D02*
G37*
G36*
X140106Y-506500D02*
X138075D01*
Y-508531D01*
X138247Y-508509D01*
X138873Y-508249D01*
X139411Y-507836D01*
X139824Y-507299D01*
X140083Y-506672D01*
X140106Y-506500D01*
D02*
G37*
G36*
X137075D02*
X135044D01*
X135066Y-506672D01*
X135326Y-507299D01*
X135739Y-507836D01*
X136276Y-508249D01*
X136903Y-508509D01*
X137075Y-508531D01*
Y-506500D01*
D02*
G37*
G36*
X60075Y-508469D02*
Y-510500D01*
X62106D01*
X62084Y-510328D01*
X61824Y-509701D01*
X61411Y-509164D01*
X60873Y-508751D01*
X60247Y-508492D01*
X60075Y-508469D01*
D02*
G37*
G36*
X59075D02*
X58903Y-508492D01*
X58276Y-508751D01*
X57739Y-509164D01*
X57326Y-509701D01*
X57066Y-510328D01*
X57044Y-510500D01*
X59075D01*
Y-508469D01*
D02*
G37*
G36*
X62106Y-511500D02*
X60075D01*
Y-513531D01*
X60247Y-513509D01*
X60873Y-513249D01*
X61411Y-512836D01*
X61824Y-512299D01*
X62084Y-511672D01*
X62106Y-511500D01*
D02*
G37*
G36*
X59075D02*
X57044D01*
X57066Y-511672D01*
X57326Y-512299D01*
X57739Y-512836D01*
X58276Y-513249D01*
X58903Y-513509D01*
X59075Y-513531D01*
Y-511500D01*
D02*
G37*
G36*
X131000Y-511572D02*
Y-514000D01*
X133428D01*
X133392Y-513725D01*
X133093Y-513003D01*
X132617Y-512383D01*
X131997Y-511907D01*
X131275Y-511608D01*
X131000Y-511572D01*
D02*
G37*
G36*
X130000D02*
X129725Y-511608D01*
X129003Y-511907D01*
X128383Y-512383D01*
X127907Y-513003D01*
X127608Y-513725D01*
X127572Y-514000D01*
X130000D01*
Y-511572D01*
D02*
G37*
G36*
X93000Y-511969D02*
Y-514000D01*
X95031D01*
X95008Y-513828D01*
X94749Y-513202D01*
X94336Y-512664D01*
X93799Y-512251D01*
X93172Y-511992D01*
X93000Y-511969D01*
D02*
G37*
G36*
X92000D02*
X91828Y-511992D01*
X91202Y-512251D01*
X90664Y-512664D01*
X90251Y-513202D01*
X89991Y-513828D01*
X89969Y-514000D01*
X92000D01*
Y-511969D01*
D02*
G37*
G36*
X95031Y-515000D02*
X93000D01*
Y-517031D01*
X93172Y-517008D01*
X93799Y-516749D01*
X94336Y-516336D01*
X94749Y-515799D01*
X95008Y-515172D01*
X95031Y-515000D01*
D02*
G37*
G36*
X92000D02*
X89969D01*
X89991Y-515172D01*
X90251Y-515799D01*
X90664Y-516336D01*
X91202Y-516749D01*
X91828Y-517008D01*
X92000Y-517031D01*
Y-515000D01*
D02*
G37*
G36*
X133428D02*
X131000D01*
Y-517428D01*
X131275Y-517392D01*
X131997Y-517093D01*
X132617Y-516617D01*
X133093Y-515997D01*
X133392Y-515275D01*
X133428Y-515000D01*
D02*
G37*
G36*
X130000D02*
X127572D01*
X127608Y-515275D01*
X127907Y-515997D01*
X128383Y-516617D01*
X129003Y-517093D01*
X129725Y-517392D01*
X130000Y-517428D01*
Y-515000D01*
D02*
G37*
G36*
X15075Y-517079D02*
Y-520500D01*
X18496D01*
X18426Y-519968D01*
X18028Y-519007D01*
X17394Y-518181D01*
X16568Y-517547D01*
X15607Y-517149D01*
X15075Y-517079D01*
D02*
G37*
G36*
X14075D02*
X13543Y-517149D01*
X12582Y-517547D01*
X11756Y-518181D01*
X11122Y-519007D01*
X10724Y-519968D01*
X10654Y-520500D01*
X14075D01*
Y-517079D01*
D02*
G37*
G36*
X91248Y-518469D02*
Y-520500D01*
X93279D01*
X93257Y-520328D01*
X92997Y-519701D01*
X92584Y-519164D01*
X92046Y-518751D01*
X91420Y-518492D01*
X91248Y-518469D01*
D02*
G37*
G36*
X90248D02*
X90076Y-518492D01*
X89450Y-518751D01*
X88912Y-519164D01*
X88499Y-519701D01*
X88240Y-520328D01*
X88217Y-520500D01*
X90248D01*
Y-518469D01*
D02*
G37*
G36*
X80075D02*
Y-520500D01*
X82106D01*
X82083Y-520328D01*
X81824Y-519701D01*
X81411Y-519164D01*
X80873Y-518751D01*
X80247Y-518492D01*
X80075Y-518469D01*
D02*
G37*
G36*
X79075D02*
X78903Y-518492D01*
X78276Y-518751D01*
X77738Y-519164D01*
X77326Y-519701D01*
X77066Y-520328D01*
X77044Y-520500D01*
X79075D01*
Y-518469D01*
D02*
G37*
G36*
X93279Y-521500D02*
X91248D01*
Y-523531D01*
X91420Y-523509D01*
X92046Y-523249D01*
X92584Y-522836D01*
X92997Y-522299D01*
X93257Y-521672D01*
X93279Y-521500D01*
D02*
G37*
G36*
X90248D02*
X88217D01*
X88240Y-521672D01*
X88499Y-522299D01*
X88912Y-522836D01*
X89450Y-523249D01*
X90076Y-523509D01*
X90248Y-523531D01*
Y-521500D01*
D02*
G37*
G36*
X82106D02*
X80075D01*
Y-523531D01*
X80247Y-523509D01*
X80873Y-523249D01*
X81411Y-522836D01*
X81824Y-522299D01*
X82083Y-521672D01*
X82106Y-521500D01*
D02*
G37*
G36*
X79075D02*
X77044D01*
X77066Y-521672D01*
X77326Y-522299D01*
X77738Y-522836D01*
X78276Y-523249D01*
X78903Y-523509D01*
X79075Y-523531D01*
Y-521500D01*
D02*
G37*
G36*
X18496Y-521500D02*
X15075D01*
Y-524921D01*
X15607Y-524851D01*
X16568Y-524453D01*
X17394Y-523819D01*
X18028Y-522993D01*
X18426Y-522032D01*
X18496Y-521500D01*
D02*
G37*
G36*
X14075D02*
X10654D01*
X10724Y-522032D01*
X11122Y-522993D01*
X11756Y-523819D01*
X12582Y-524453D01*
X13543Y-524851D01*
X14075Y-524921D01*
Y-521500D01*
D02*
G37*
G36*
X77000Y-526572D02*
Y-529000D01*
X79428D01*
X79392Y-528725D01*
X79093Y-528003D01*
X78617Y-527383D01*
X77997Y-526907D01*
X77275Y-526608D01*
X77000Y-526572D01*
D02*
G37*
G36*
X76000D02*
X75725Y-526608D01*
X75003Y-526907D01*
X74383Y-527383D01*
X73907Y-528003D01*
X73608Y-528725D01*
X73572Y-529000D01*
X76000D01*
Y-526572D01*
D02*
G37*
G36*
X31012Y-529072D02*
Y-531500D01*
X33440D01*
X33404Y-531225D01*
X33105Y-530503D01*
X32629Y-529883D01*
X32009Y-529407D01*
X31287Y-529108D01*
X31012Y-529072D01*
D02*
G37*
G36*
X30012D02*
X29737Y-529108D01*
X29015Y-529407D01*
X28395Y-529883D01*
X27919Y-530503D01*
X27620Y-531225D01*
X27584Y-531500D01*
X30012D01*
Y-529072D01*
D02*
G37*
G36*
X39449Y-529969D02*
Y-532000D01*
X41480D01*
X41458Y-531828D01*
X41198Y-531202D01*
X40785Y-530664D01*
X40247Y-530251D01*
X39621Y-529991D01*
X39449Y-529969D01*
D02*
G37*
G36*
X38449D02*
X38277Y-529991D01*
X37650Y-530251D01*
X37113Y-530664D01*
X36700Y-531202D01*
X36440Y-531828D01*
X36418Y-532000D01*
X38449D01*
Y-529969D01*
D02*
G37*
G36*
X79428Y-530000D02*
X77000D01*
Y-532428D01*
X77275Y-532392D01*
X77997Y-532093D01*
X78617Y-531617D01*
X79093Y-530997D01*
X79392Y-530275D01*
X79428Y-530000D01*
D02*
G37*
G36*
X76000D02*
X73572D01*
X73608Y-530275D01*
X73907Y-530997D01*
X74383Y-531617D01*
X75003Y-532093D01*
X75725Y-532392D01*
X76000Y-532428D01*
Y-530000D01*
D02*
G37*
G36*
X18328Y-527247D02*
X10822D01*
Y-534753D01*
X18328D01*
Y-527247D01*
D02*
G37*
G36*
X33440Y-532500D02*
X31012D01*
Y-534928D01*
X31287Y-534892D01*
X32009Y-534593D01*
X32629Y-534117D01*
X33105Y-533497D01*
X33404Y-532775D01*
X33440Y-532500D01*
D02*
G37*
G36*
X30012D02*
X27584D01*
X27620Y-532775D01*
X27919Y-533497D01*
X28395Y-534117D01*
X29015Y-534593D01*
X29737Y-534892D01*
X30012Y-534928D01*
Y-532500D01*
D02*
G37*
G36*
X108500Y-532572D02*
Y-535000D01*
X110928D01*
X110892Y-534725D01*
X110593Y-534003D01*
X110117Y-533383D01*
X109497Y-532907D01*
X108775Y-532608D01*
X108500Y-532572D01*
D02*
G37*
G36*
X107500D02*
X107225Y-532608D01*
X106503Y-532907D01*
X105883Y-533383D01*
X105407Y-534003D01*
X105108Y-534725D01*
X105072Y-535000D01*
X107500D01*
Y-532572D01*
D02*
G37*
G36*
X41480Y-533000D02*
X39449D01*
Y-535031D01*
X39621Y-535009D01*
X40247Y-534749D01*
X40785Y-534336D01*
X41198Y-533799D01*
X41458Y-533172D01*
X41480Y-533000D01*
D02*
G37*
G36*
X38449D02*
X36418D01*
X36440Y-533172D01*
X36700Y-533799D01*
X37113Y-534336D01*
X37650Y-534749D01*
X38277Y-535009D01*
X38449Y-535031D01*
Y-533000D01*
D02*
G37*
G36*
X131357Y-521052D02*
X130443Y-521172D01*
X129591Y-521525D01*
X128860Y-522086D01*
X128299Y-522817D01*
X127947Y-523668D01*
X127826Y-524582D01*
X127833Y-524637D01*
X123489Y-528981D01*
X122661Y-529090D01*
X121810Y-529443D01*
X121079Y-530004D01*
X120518Y-530735D01*
X120165Y-531586D01*
X120045Y-532500D01*
X120165Y-533414D01*
X120518Y-534265D01*
X121079Y-534996D01*
X121810Y-535557D01*
X122661Y-535910D01*
X123575Y-536030D01*
X124489Y-535910D01*
X125340Y-535557D01*
X126071Y-534996D01*
X126632Y-534265D01*
X126985Y-533414D01*
X127094Y-532586D01*
X131600Y-528080D01*
X132270Y-527992D01*
X133122Y-527639D01*
X133853Y-527078D01*
X134414Y-526347D01*
X134766Y-525495D01*
X134887Y-524582D01*
X134766Y-523668D01*
X134414Y-522817D01*
X133853Y-522086D01*
X133122Y-521525D01*
X132270Y-521172D01*
X131357Y-521052D01*
D02*
G37*
G36*
X83575Y-503779D02*
X82725Y-503948D01*
X82005Y-504430D01*
X81523Y-505150D01*
X81354Y-506000D01*
X81523Y-506850D01*
X82005Y-507570D01*
X82046Y-507597D01*
Y-509367D01*
X54623Y-536789D01*
X54575Y-536779D01*
X53725Y-536948D01*
X53005Y-537430D01*
X52523Y-538150D01*
X52354Y-539000D01*
X52523Y-539850D01*
X53005Y-540570D01*
X53725Y-541052D01*
X54575Y-541221D01*
X55425Y-541052D01*
X56145Y-540570D01*
X56626Y-539850D01*
X56796Y-539000D01*
X56786Y-538952D01*
X84656Y-511082D01*
X84988Y-510585D01*
X85104Y-510000D01*
Y-507597D01*
X85145Y-507570D01*
X85627Y-506850D01*
X85795Y-506000D01*
X85627Y-505150D01*
X85145Y-504430D01*
X84425Y-503948D01*
X83575Y-503779D01*
D02*
G37*
G36*
X110928Y-536000D02*
X108500D01*
Y-538428D01*
X108775Y-538392D01*
X109497Y-538093D01*
X110117Y-537617D01*
X110593Y-536997D01*
X110892Y-536275D01*
X110928Y-536000D01*
D02*
G37*
G36*
X107500D02*
X105072D01*
X105108Y-536275D01*
X105407Y-536997D01*
X105883Y-537617D01*
X106503Y-538093D01*
X107225Y-538392D01*
X107500Y-538428D01*
Y-536000D01*
D02*
G37*
G36*
X135753Y-537310D02*
X128247D01*
Y-544816D01*
X135753D01*
Y-537310D01*
D02*
G37*
G36*
X15075Y-547079D02*
Y-550500D01*
X18496D01*
X18426Y-549968D01*
X18028Y-549007D01*
X17394Y-548181D01*
X16568Y-547547D01*
X15607Y-547149D01*
X15075Y-547079D01*
D02*
G37*
G36*
X49138Y-548469D02*
Y-550500D01*
X51169D01*
X51146Y-550328D01*
X50887Y-549701D01*
X50474Y-549164D01*
X49936Y-548751D01*
X49310Y-548491D01*
X49138Y-548469D01*
D02*
G37*
G36*
X48138D02*
X47966Y-548491D01*
X47339Y-548751D01*
X46801Y-549164D01*
X46389Y-549701D01*
X46129Y-550328D01*
X46107Y-550500D01*
X48138D01*
Y-548469D01*
D02*
G37*
G36*
X14075Y-547079D02*
X13543Y-547149D01*
X12582Y-547547D01*
X11756Y-548181D01*
X11122Y-549007D01*
X10724Y-549968D01*
X10654Y-550500D01*
X14075D01*
Y-547079D01*
D02*
G37*
G36*
X132500Y-547142D02*
Y-550563D01*
X135921D01*
X135851Y-550031D01*
X135453Y-549070D01*
X134819Y-548244D01*
X133993Y-547610D01*
X133032Y-547212D01*
X132500Y-547142D01*
D02*
G37*
G36*
X131500D02*
X130968Y-547212D01*
X130007Y-547610D01*
X129181Y-548244D01*
X128547Y-549070D01*
X128149Y-550031D01*
X128079Y-550563D01*
X131500D01*
Y-547142D01*
D02*
G37*
G36*
X38075Y-550874D02*
Y-552906D01*
X40106D01*
X40083Y-552733D01*
X39824Y-552107D01*
X39411Y-551569D01*
X38873Y-551157D01*
X38247Y-550897D01*
X38075Y-550874D01*
D02*
G37*
G36*
X37075D02*
X36903Y-550897D01*
X36276Y-551157D01*
X35739Y-551569D01*
X35326Y-552107D01*
X35066Y-552733D01*
X35044Y-552906D01*
X37075D01*
Y-550874D01*
D02*
G37*
G36*
X69457Y-551469D02*
Y-553500D01*
X71488D01*
X71465Y-553328D01*
X71206Y-552702D01*
X70793Y-552164D01*
X70255Y-551751D01*
X69629Y-551491D01*
X69457Y-551469D01*
D02*
G37*
G36*
X68457D02*
X68285Y-551491D01*
X67658Y-551751D01*
X67120Y-552164D01*
X66708Y-552702D01*
X66448Y-553328D01*
X66426Y-553500D01*
X68457D01*
Y-551469D01*
D02*
G37*
G36*
X51169Y-551500D02*
X49138D01*
Y-553531D01*
X49310Y-553509D01*
X49936Y-553249D01*
X50474Y-552836D01*
X50887Y-552299D01*
X51146Y-551672D01*
X51169Y-551500D01*
D02*
G37*
G36*
X48138D02*
X46107D01*
X46129Y-551672D01*
X46389Y-552299D01*
X46801Y-552836D01*
X47339Y-553249D01*
X47966Y-553509D01*
X48138Y-553531D01*
Y-551500D01*
D02*
G37*
G36*
X18496D02*
X15075D01*
Y-554921D01*
X15607Y-554851D01*
X16568Y-554453D01*
X17394Y-553819D01*
X18028Y-552993D01*
X18426Y-552032D01*
X18496Y-551500D01*
D02*
G37*
G36*
X14075D02*
X10654D01*
X10724Y-552032D01*
X11122Y-552993D01*
X11756Y-553819D01*
X12582Y-554453D01*
X13543Y-554851D01*
X14075Y-554921D01*
Y-551500D01*
D02*
G37*
G36*
X131500Y-551563D02*
X128079D01*
X128149Y-552095D01*
X128547Y-553056D01*
X129181Y-553882D01*
X130007Y-554516D01*
X130968Y-554914D01*
X131500Y-554984D01*
Y-551563D01*
D02*
G37*
G36*
X135921D02*
X132500D01*
Y-554984D01*
X133032Y-554914D01*
X133993Y-554516D01*
X134819Y-553882D01*
X135453Y-553056D01*
X135851Y-552095D01*
X135921Y-551563D01*
D02*
G37*
G36*
X40106Y-553906D02*
X38075D01*
Y-555937D01*
X38247Y-555914D01*
X38873Y-555655D01*
X39411Y-555242D01*
X39824Y-554704D01*
X40083Y-554078D01*
X40106Y-553906D01*
D02*
G37*
G36*
X37075D02*
X35044D01*
X35066Y-554078D01*
X35326Y-554704D01*
X35739Y-555242D01*
X36276Y-555655D01*
X36903Y-555914D01*
X37075Y-555937D01*
Y-553906D01*
D02*
G37*
G36*
X75000Y-553969D02*
Y-556000D01*
X77031D01*
X77008Y-555828D01*
X76749Y-555201D01*
X76336Y-554664D01*
X75798Y-554251D01*
X75172Y-553992D01*
X75000Y-553969D01*
D02*
G37*
G36*
X74000D02*
X73828Y-553992D01*
X73202Y-554251D01*
X72664Y-554664D01*
X72251Y-555201D01*
X71991Y-555828D01*
X71969Y-556000D01*
X74000D01*
Y-553969D01*
D02*
G37*
G36*
X71488Y-554500D02*
X69457D01*
Y-556531D01*
X69629Y-556509D01*
X70255Y-556249D01*
X70793Y-555836D01*
X71206Y-555299D01*
X71465Y-554672D01*
X71488Y-554500D01*
D02*
G37*
G36*
X68457D02*
X66426D01*
X66448Y-554672D01*
X66708Y-555299D01*
X67120Y-555836D01*
X67658Y-556249D01*
X68285Y-556509D01*
X68457Y-556531D01*
Y-554500D01*
D02*
G37*
G36*
X111000Y-555469D02*
Y-557500D01*
X113031D01*
X113008Y-557328D01*
X112749Y-556702D01*
X112336Y-556164D01*
X111799Y-555751D01*
X111172Y-555491D01*
X111000Y-555469D01*
D02*
G37*
G36*
X110000D02*
X109828Y-555491D01*
X109202Y-555751D01*
X108664Y-556164D01*
X108251Y-556702D01*
X107992Y-557328D01*
X107969Y-557500D01*
X110000D01*
Y-555469D01*
D02*
G37*
G36*
X63138D02*
Y-557500D01*
X65169D01*
X65146Y-557328D01*
X64887Y-556702D01*
X64474Y-556164D01*
X63936Y-555751D01*
X63310Y-555491D01*
X63138Y-555469D01*
D02*
G37*
G36*
X62138D02*
X61966Y-555491D01*
X61339Y-555751D01*
X60802Y-556164D01*
X60389Y-556702D01*
X60129Y-557328D01*
X60107Y-557500D01*
X62138D01*
Y-555469D01*
D02*
G37*
G36*
X77031Y-557000D02*
X75000D01*
Y-559031D01*
X75172Y-559009D01*
X75798Y-558749D01*
X76336Y-558336D01*
X76749Y-557798D01*
X77008Y-557172D01*
X77031Y-557000D01*
D02*
G37*
G36*
X74000D02*
X71969D01*
X71991Y-557172D01*
X72251Y-557798D01*
X72664Y-558336D01*
X73202Y-558749D01*
X73828Y-559009D01*
X74000Y-559031D01*
Y-557000D01*
D02*
G37*
G36*
X113031Y-558500D02*
X111000D01*
Y-560531D01*
X111172Y-560508D01*
X111799Y-560249D01*
X112336Y-559836D01*
X112749Y-559299D01*
X113008Y-558672D01*
X113031Y-558500D01*
D02*
G37*
G36*
X110000D02*
X107969D01*
X107992Y-558672D01*
X108251Y-559299D01*
X108664Y-559836D01*
X109202Y-560249D01*
X109828Y-560508D01*
X110000Y-560531D01*
Y-558500D01*
D02*
G37*
G36*
X65169D02*
X63138D01*
Y-560531D01*
X63310Y-560508D01*
X63936Y-560249D01*
X64474Y-559836D01*
X64887Y-559299D01*
X65146Y-558672D01*
X65169Y-558500D01*
D02*
G37*
G36*
X62138D02*
X60107D01*
X60129Y-558672D01*
X60389Y-559299D01*
X60802Y-559836D01*
X61339Y-560249D01*
X61966Y-560508D01*
X62138Y-560531D01*
Y-558500D01*
D02*
G37*
G36*
X127000Y-560072D02*
Y-562500D01*
X129428D01*
X129392Y-562225D01*
X129093Y-561503D01*
X128617Y-560883D01*
X127997Y-560407D01*
X127275Y-560108D01*
X127000Y-560072D01*
D02*
G37*
G36*
X126000D02*
X125725Y-560108D01*
X125003Y-560407D01*
X124383Y-560883D01*
X123907Y-561503D01*
X123608Y-562225D01*
X123572Y-562500D01*
X126000D01*
Y-560072D01*
D02*
G37*
G36*
X93000D02*
Y-562500D01*
X95428D01*
X95392Y-562225D01*
X95093Y-561503D01*
X94617Y-560883D01*
X93997Y-560407D01*
X93275Y-560108D01*
X93000Y-560072D01*
D02*
G37*
G36*
X92000D02*
X91725Y-560108D01*
X91003Y-560407D01*
X90383Y-560883D01*
X89907Y-561503D01*
X89608Y-562225D01*
X89572Y-562500D01*
X92000D01*
Y-560072D01*
D02*
G37*
G36*
X77000D02*
Y-562500D01*
X79428D01*
X79392Y-562225D01*
X79093Y-561503D01*
X78617Y-560883D01*
X77997Y-560407D01*
X77275Y-560108D01*
X77000Y-560072D01*
D02*
G37*
G36*
X76000D02*
X75725Y-560108D01*
X75003Y-560407D01*
X74383Y-560883D01*
X73907Y-561503D01*
X73608Y-562225D01*
X73572Y-562500D01*
X76000D01*
Y-560072D01*
D02*
G37*
G36*
X49945D02*
Y-562500D01*
X52373D01*
X52337Y-562225D01*
X52038Y-561503D01*
X51562Y-560883D01*
X50942Y-560407D01*
X50220Y-560108D01*
X49945Y-560072D01*
D02*
G37*
G36*
X48945D02*
X48670Y-560108D01*
X47948Y-560407D01*
X47328Y-560883D01*
X46852Y-561503D01*
X46553Y-562225D01*
X46517Y-562500D01*
X48945D01*
Y-560072D01*
D02*
G37*
G36*
X38075D02*
Y-562500D01*
X40503D01*
X40467Y-562225D01*
X40168Y-561503D01*
X39692Y-560883D01*
X39072Y-560407D01*
X38350Y-560108D01*
X38075Y-560072D01*
D02*
G37*
G36*
X37075D02*
X36800Y-560108D01*
X36078Y-560407D01*
X35458Y-560883D01*
X34982Y-561503D01*
X34683Y-562225D01*
X34647Y-562500D01*
X37075D01*
Y-560072D01*
D02*
G37*
G36*
X30075D02*
Y-562500D01*
X32503D01*
X32467Y-562225D01*
X32168Y-561503D01*
X31692Y-560883D01*
X31072Y-560407D01*
X30350Y-560108D01*
X30075Y-560072D01*
D02*
G37*
G36*
X29075D02*
X28800Y-560108D01*
X28078Y-560407D01*
X27458Y-560883D01*
X26982Y-561503D01*
X26683Y-562225D01*
X26647Y-562500D01*
X29075D01*
Y-560072D01*
D02*
G37*
G36*
X113000Y-561072D02*
Y-563500D01*
X115428D01*
X115392Y-563225D01*
X115093Y-562503D01*
X114617Y-561883D01*
X113997Y-561407D01*
X113275Y-561108D01*
X113000Y-561072D01*
D02*
G37*
G36*
X112000D02*
X111725Y-561108D01*
X111003Y-561407D01*
X110383Y-561883D01*
X109907Y-562503D01*
X109608Y-563225D01*
X109572Y-563500D01*
X112000D01*
Y-561072D01*
D02*
G37*
G36*
X64000D02*
Y-563500D01*
X66428D01*
X66392Y-563225D01*
X66093Y-562503D01*
X65617Y-561883D01*
X64997Y-561407D01*
X64275Y-561108D01*
X64000Y-561072D01*
D02*
G37*
G36*
X63000D02*
X62725Y-561108D01*
X62003Y-561407D01*
X61383Y-561883D01*
X60907Y-562503D01*
X60608Y-563225D01*
X60572Y-563500D01*
X63000D01*
Y-561072D01*
D02*
G37*
G36*
X18328Y-557247D02*
X10822D01*
Y-564753D01*
X18328D01*
Y-557247D01*
D02*
G37*
G36*
X129428Y-563500D02*
X127000D01*
Y-565928D01*
X127275Y-565892D01*
X127997Y-565593D01*
X128617Y-565117D01*
X129093Y-564497D01*
X129392Y-563775D01*
X129428Y-563500D01*
D02*
G37*
G36*
X126000D02*
X123572D01*
X123608Y-563775D01*
X123907Y-564497D01*
X124383Y-565117D01*
X125003Y-565593D01*
X125725Y-565892D01*
X126000Y-565928D01*
Y-563500D01*
D02*
G37*
G36*
X95428D02*
X93000D01*
Y-565928D01*
X93275Y-565892D01*
X93997Y-565593D01*
X94617Y-565117D01*
X95093Y-564497D01*
X95392Y-563775D01*
X95428Y-563500D01*
D02*
G37*
G36*
X92000D02*
X89572D01*
X89608Y-563775D01*
X89907Y-564497D01*
X90383Y-565117D01*
X91003Y-565593D01*
X91725Y-565892D01*
X92000Y-565928D01*
Y-563500D01*
D02*
G37*
G36*
X79428D02*
X77000D01*
Y-565928D01*
X77275Y-565892D01*
X77997Y-565593D01*
X78617Y-565117D01*
X79093Y-564497D01*
X79392Y-563775D01*
X79428Y-563500D01*
D02*
G37*
G36*
X76000D02*
X73572D01*
X73608Y-563775D01*
X73907Y-564497D01*
X74383Y-565117D01*
X75003Y-565593D01*
X75725Y-565892D01*
X76000Y-565928D01*
Y-563500D01*
D02*
G37*
G36*
X52373D02*
X49945D01*
Y-565928D01*
X50220Y-565892D01*
X50942Y-565593D01*
X51562Y-565117D01*
X52038Y-564497D01*
X52337Y-563775D01*
X52373Y-563500D01*
D02*
G37*
G36*
X48945D02*
X46517D01*
X46553Y-563775D01*
X46852Y-564497D01*
X47328Y-565117D01*
X47948Y-565593D01*
X48670Y-565892D01*
X48945Y-565928D01*
Y-563500D01*
D02*
G37*
G36*
X40503D02*
X38075D01*
Y-565928D01*
X38350Y-565892D01*
X39072Y-565593D01*
X39692Y-565117D01*
X40168Y-564497D01*
X40467Y-563775D01*
X40503Y-563500D01*
D02*
G37*
G36*
X37075D02*
X34647D01*
X34683Y-563775D01*
X34982Y-564497D01*
X35458Y-565117D01*
X36078Y-565593D01*
X36800Y-565892D01*
X37075Y-565928D01*
Y-563500D01*
D02*
G37*
G36*
X32503D02*
X30075D01*
Y-565928D01*
X30350Y-565892D01*
X31072Y-565593D01*
X31692Y-565117D01*
X32168Y-564497D01*
X32467Y-563775D01*
X32503Y-563500D01*
D02*
G37*
G36*
X29075D02*
X26647D01*
X26683Y-563775D01*
X26982Y-564497D01*
X27458Y-565117D01*
X28078Y-565593D01*
X28800Y-565892D01*
X29075Y-565928D01*
Y-563500D01*
D02*
G37*
G36*
X115428Y-564500D02*
X113000D01*
Y-566928D01*
X113275Y-566892D01*
X113997Y-566593D01*
X114617Y-566117D01*
X115093Y-565497D01*
X115392Y-564775D01*
X115428Y-564500D01*
D02*
G37*
G36*
X112000D02*
X109572D01*
X109608Y-564775D01*
X109907Y-565497D01*
X110383Y-566117D01*
X111003Y-566593D01*
X111725Y-566892D01*
X112000Y-566928D01*
Y-564500D01*
D02*
G37*
G36*
X66428D02*
X64000D01*
Y-566928D01*
X64275Y-566892D01*
X64997Y-566593D01*
X65617Y-566117D01*
X66093Y-565497D01*
X66392Y-564775D01*
X66428Y-564500D01*
D02*
G37*
G36*
X63000D02*
X60572D01*
X60608Y-564775D01*
X60907Y-565497D01*
X61383Y-566117D01*
X62003Y-566593D01*
X62725Y-566892D01*
X63000Y-566928D01*
Y-564500D01*
D02*
G37*
G36*
X137795Y-571003D02*
X136286Y-571152D01*
X134834Y-571592D01*
X133497Y-572307D01*
X132324Y-573269D01*
X131362Y-574442D01*
X130647Y-575779D01*
X130207Y-577231D01*
X130058Y-578740D01*
X130207Y-580250D01*
X130647Y-581701D01*
X131362Y-583039D01*
X132324Y-584211D01*
X133497Y-585174D01*
X134834Y-585888D01*
X136286Y-586329D01*
X137795Y-586477D01*
X139305Y-586329D01*
X140756Y-585888D01*
X142094Y-585174D01*
X143266Y-584211D01*
X144229Y-583039D01*
X144944Y-581701D01*
X145384Y-580250D01*
X145533Y-578740D01*
X145384Y-577231D01*
X144944Y-575779D01*
X144229Y-574442D01*
X143266Y-573269D01*
X142094Y-572307D01*
X140756Y-571592D01*
X139305Y-571152D01*
X137795Y-571003D01*
D02*
G37*
G36*
X11811D02*
X10302Y-571152D01*
X8850Y-571592D01*
X7513Y-572307D01*
X6340Y-573269D01*
X5378Y-574442D01*
X4663Y-575779D01*
X4222Y-577231D01*
X4074Y-578740D01*
X4222Y-580250D01*
X4663Y-581701D01*
X5378Y-583039D01*
X6340Y-584211D01*
X7513Y-585174D01*
X8850Y-585888D01*
X10302Y-586329D01*
X11811Y-586477D01*
X13320Y-586329D01*
X14772Y-585888D01*
X16110Y-585174D01*
X17282Y-584211D01*
X18244Y-583039D01*
X18959Y-581701D01*
X19400Y-580250D01*
X19548Y-578740D01*
X19400Y-577231D01*
X18959Y-575779D01*
X18244Y-574442D01*
X17282Y-573269D01*
X16110Y-572307D01*
X14772Y-571592D01*
X13320Y-571152D01*
X11811Y-571003D01*
D02*
G37*
%LPD*%
D15*
X46020Y-384351D02*
Y-386975D01*
X46545Y-387500D01*
X47594D01*
X48119Y-386975D01*
Y-384351D01*
X49168Y-387500D02*
X50218D01*
X49693D01*
Y-384351D01*
X49168Y-384876D01*
X51792Y-388025D02*
X53891D01*
X54941Y-387500D02*
Y-385401D01*
X55990Y-384351D01*
X57040Y-385401D01*
Y-387500D01*
Y-385926D01*
X54941D01*
X60189Y-387500D02*
X58089D01*
X60189Y-385401D01*
Y-384876D01*
X59664Y-384351D01*
X58614D01*
X58089Y-384876D01*
X81983Y-493347D02*
X79360D01*
X78835Y-493871D01*
Y-494921D01*
X79360Y-495446D01*
X81983D01*
X78835Y-498069D02*
X81983D01*
X80409Y-496495D01*
Y-498594D01*
X78310Y-499644D02*
Y-501743D01*
X78835Y-502792D02*
X80934D01*
X81983Y-503842D01*
X80934Y-504891D01*
X78835D01*
X80409D01*
Y-502792D01*
X78835Y-505941D02*
Y-506990D01*
Y-506466D01*
X81983D01*
X81459Y-505941D01*
X46138Y-502352D02*
Y-504975D01*
X46663Y-505500D01*
X47712D01*
X48237Y-504975D01*
Y-502352D01*
X49286Y-505500D02*
X50336D01*
X49811D01*
Y-502352D01*
X49286Y-502876D01*
X51910Y-506025D02*
X54009D01*
X55059Y-505500D02*
Y-503401D01*
X56108Y-502352D01*
X57158Y-503401D01*
Y-505500D01*
Y-503926D01*
X55059D01*
X58207Y-505500D02*
X59257D01*
X58732D01*
Y-502352D01*
X58207Y-502876D01*
X46075Y-150352D02*
Y-152975D01*
X46600Y-153500D01*
X47649D01*
X48174Y-152975D01*
Y-150352D01*
X49224Y-153500D02*
X50273D01*
X49748D01*
Y-150352D01*
X49224Y-150876D01*
X51847Y-154025D02*
X53946D01*
X54996Y-153500D02*
Y-151401D01*
X56046Y-150352D01*
X57095Y-151401D01*
Y-153500D01*
Y-151926D01*
X54996D01*
X59719Y-153500D02*
Y-150352D01*
X58144Y-151926D01*
X60244D01*
X20850Y-34500D02*
X18226D01*
X17701Y-35025D01*
Y-36074D01*
X18226Y-36599D01*
X20850D01*
X17701Y-37649D02*
Y-38698D01*
Y-38173D01*
X20850D01*
X20325Y-37649D01*
Y-40273D02*
X20850Y-40797D01*
Y-41847D01*
X20325Y-42371D01*
X18226D01*
X17701Y-41847D01*
Y-40797D01*
X18226Y-40273D01*
X20325D01*
X17701Y-43421D02*
Y-44471D01*
Y-43946D01*
X20850D01*
X20325Y-43421D01*
X50306Y-34189D02*
X47682D01*
X47158Y-34714D01*
Y-35763D01*
X47682Y-36288D01*
X50306D01*
X47158Y-37338D02*
Y-38387D01*
Y-37862D01*
X50306D01*
X49782Y-37338D01*
Y-39961D02*
X50306Y-40486D01*
Y-41536D01*
X49782Y-42061D01*
X47682D01*
X47158Y-41536D01*
Y-40486D01*
X47682Y-39961D01*
X49782D01*
X47158Y-45209D02*
Y-43110D01*
X49257Y-45209D01*
X49782D01*
X50306Y-44684D01*
Y-43635D01*
X49782Y-43110D01*
X82983Y-136913D02*
X80360D01*
X79835Y-137438D01*
Y-138488D01*
X80360Y-139013D01*
X82983D01*
X79835Y-141636D02*
X82983D01*
X81409Y-140062D01*
Y-142161D01*
X79310Y-143211D02*
Y-145310D01*
X79835Y-146359D02*
X81934D01*
X82983Y-147409D01*
X81934Y-148458D01*
X79835D01*
X81409D01*
Y-146359D01*
X79835Y-151082D02*
X82983D01*
X81409Y-149508D01*
Y-151607D01*
D18*
X0Y-590551D02*
X149307D01*
X0Y-0D02*
X0Y-590551D01*
X0Y-0D02*
X149307D01*
Y-590551D02*
Y-0D01*
D62*
X62575Y-142063D02*
Y-133000D01*
Y-142063D02*
X65012Y-144500D01*
X38000Y-387500D02*
X38335Y-387165D01*
X83134Y-473000D02*
X93134Y-483000D01*
X64575Y-473000D02*
X83134D01*
X54575Y-463000D02*
X64575Y-473000D01*
X54575Y-463000D02*
Y-462000D01*
X65575Y-356000D02*
X87575D01*
X120075Y-355000D02*
X123075D01*
X87575Y-356000D02*
X97575Y-366000D01*
X107575D02*
X109075D01*
X39075Y-383260D02*
Y-379000D01*
X58075Y-420000D02*
X85075Y-393000D01*
Y-389000D01*
X86075Y-388000D01*
X39075Y-379000D02*
X41012Y-377063D01*
Y-356000D02*
Y-345000D01*
Y-377063D02*
Y-356000D01*
X55638Y-346063D02*
Y-345000D01*
X62138Y-375063D02*
Y-372000D01*
Y-375063D02*
X68075Y-381000D01*
X55638Y-346063D02*
X65575Y-356000D01*
X109075Y-366000D02*
X120075Y-355000D01*
X86315Y-236500D02*
X96815Y-247000D01*
X66055Y-236500D02*
X86315D01*
X80575Y-118000D02*
X91575Y-129000D01*
X66075Y-118000D02*
X80575D01*
X112575Y-483000D02*
X123575Y-472000D01*
X105575Y-483000D02*
X112575D01*
X40815Y-236000D02*
Y-225000D01*
X56055Y-225500D02*
X66055Y-235500D01*
X117815Y-241000D02*
X123815Y-235000D01*
X76260Y-273000D02*
X79815D01*
X81815Y-271000D01*
X66055Y-236500D02*
Y-235500D01*
X38705Y-261260D02*
Y-256110D01*
X41015Y-253800D01*
Y-236200D01*
X106815Y-247000D02*
X112815Y-241000D01*
X117815D01*
X40815Y-236000D02*
X41015Y-236200D01*
X40512Y-499063D02*
Y-473000D01*
X38575Y-501000D02*
X40512Y-499063D01*
X66575Y-501000D02*
Y-490433D01*
X54575Y-539000D02*
X83575Y-510000D01*
Y-506000D01*
X40512Y-473000D02*
Y-462000D01*
X93134Y-483000D02*
X95575D01*
X48260Y-301000D02*
X76260Y-273000D01*
X68815Y-265000D02*
Y-255173D01*
X115575Y-121000D02*
X118575D01*
X122575Y-117000D01*
X107575Y-129000D02*
X115575Y-121000D01*
X91575Y-129000D02*
X97575D01*
X66075Y-118000D02*
Y-117000D01*
X56075Y-107000D02*
X66075Y-117000D01*
X37575Y-147000D02*
X42575Y-142000D01*
Y-119000D01*
Y-107000D01*
X84575Y-154000D02*
Y-149260D01*
X55575Y-183000D02*
X84575Y-154000D01*
X89575Y-126000D02*
Y-119000D01*
D63*
X28000Y-384012D02*
X35075Y-376937D01*
X28000Y-458595D02*
Y-384012D01*
X35075Y-376937D02*
Y-363000D01*
X28000Y-458595D02*
X30512Y-461107D01*
Y-462000D02*
Y-461107D01*
X25003Y-379500D02*
X31012Y-373491D01*
Y-366008D01*
X25000Y-379500D02*
X25003D01*
X24000Y-457575D02*
Y-381041D01*
X22575Y-459000D02*
X24000Y-457575D01*
Y-381041D02*
X25000Y-380041D01*
X22575Y-470000D02*
Y-459000D01*
X25000Y-380041D02*
Y-379500D01*
X30075Y-365071D02*
X31012Y-366008D01*
X123575Y-532500D02*
X131500Y-524575D01*
X131357Y-524582D02*
X131418D01*
X131500Y-524500D01*
Y-524575D02*
Y-524500D01*
X25575Y-496000D02*
Y-477937D01*
X121500Y-414500D02*
X132000Y-404000D01*
X121500Y-416000D02*
Y-414500D01*
X27815Y-263000D02*
X28815D01*
X22418Y-91000D02*
X46000D01*
X18075Y-95343D02*
X22418Y-91000D01*
X31012Y-345000D02*
X31643Y-344369D01*
X32815Y-337917D02*
Y-303000D01*
X31643Y-344369D02*
Y-339089D01*
X28815Y-336260D02*
Y-301343D01*
X23075Y-342000D02*
X28815Y-336260D01*
X31643Y-339089D02*
X32815Y-337917D01*
X23075Y-348063D02*
Y-342000D01*
Y-348063D02*
X31012Y-356000D01*
X30075Y-365071D02*
Y-360929D01*
X31012Y-359992D01*
Y-356000D01*
X28575Y-214240D02*
Y-143000D01*
X21815Y-221000D02*
X28575Y-214240D01*
X31122Y-224694D02*
Y-217350D01*
X30815Y-225000D02*
X31122Y-224694D01*
Y-217350D02*
X33075Y-215397D01*
X120198Y-296676D02*
Y-290617D01*
X119815Y-297059D02*
X120198Y-296676D01*
Y-290617D02*
X129815Y-281000D01*
X32815Y-303000D02*
X32890Y-302925D01*
Y-254925D01*
X131692Y-170383D02*
X133432D01*
X133815Y-170000D01*
X120075Y-182000D02*
X131692Y-170383D01*
X33075Y-215397D02*
Y-145719D01*
X35087Y-143706D01*
X25575Y-477937D02*
X30512Y-473000D01*
X22575Y-470000D02*
X25575Y-473000D01*
X30512D01*
X24815Y-236000D02*
X30815D01*
X21815Y-233000D02*
Y-221000D01*
Y-233000D02*
X24815Y-236000D01*
X28890Y-262925D02*
Y-253268D01*
X30815Y-251343D02*
Y-236000D01*
X32890Y-254925D02*
X36815Y-251000D01*
X28890Y-253268D02*
X30815Y-251343D01*
X36815Y-251000D02*
Y-244000D01*
X27815Y-263000D02*
X28890Y-264075D01*
X28815Y-301343D02*
X28890Y-301268D01*
X28815Y-263000D02*
X28890Y-262925D01*
Y-301268D02*
Y-264075D01*
X119815Y-297059D02*
X120054Y-297298D01*
X34575Y-139781D02*
Y-139000D01*
Y-139781D02*
X35087Y-140294D01*
Y-143706D02*
Y-140294D01*
X34575Y-139000D02*
X37575Y-136000D01*
X32575Y-107000D02*
Y-106000D01*
X37575Y-136000D02*
Y-127000D01*
X18075Y-107500D02*
X29575Y-119000D01*
X28575Y-143000D02*
X30575Y-142000D01*
Y-128343D01*
X32575Y-126343D01*
Y-119000D01*
X29575D02*
X32575D01*
X18075Y-107500D02*
Y-95343D01*
D64*
X89075Y-35059D02*
D03*
X15575Y-311000D02*
D03*
X16075Y-402000D02*
D03*
X15075Y-374500D02*
D03*
X135000Y-428000D02*
D03*
X15575Y-255173D02*
D03*
Y-282500D02*
D03*
X14575Y-521000D02*
D03*
Y-551000D02*
D03*
X14500Y-492000D02*
D03*
X16075Y-429500D02*
D03*
X136496Y-302059D02*
D03*
X132000Y-551063D02*
D03*
X14575Y-192969D02*
D03*
X135575Y-195000D02*
D03*
X14575Y-165819D02*
D03*
Y-139000D02*
D03*
D65*
X79075Y-35059D02*
D03*
D66*
X137795Y-578740D02*
D03*
X11811D02*
D03*
X13575Y-11811D02*
D03*
X137795D02*
D03*
D67*
X15575Y-321000D02*
D03*
X16075Y-412000D02*
D03*
X15075Y-384500D02*
D03*
X135000Y-418000D02*
D03*
X15575Y-265173D02*
D03*
Y-292500D02*
D03*
X14575Y-531000D02*
D03*
Y-561000D02*
D03*
X14500Y-502000D02*
D03*
X16075Y-439500D02*
D03*
X136496Y-292059D02*
D03*
X132000Y-541063D02*
D03*
X14575Y-202969D02*
D03*
X135575Y-185000D02*
D03*
X14575Y-175819D02*
D03*
Y-149000D02*
D03*
D68*
X55575Y-356000D02*
D03*
X41012D02*
D03*
X31012Y-345000D02*
D03*
X55638D02*
D03*
X133075Y-366000D02*
D03*
X107575D02*
D03*
X123075Y-355000D02*
D03*
X97575D02*
D03*
X40815Y-236000D02*
D03*
X30815Y-225000D02*
D03*
X30512Y-462000D02*
D03*
X40512Y-473000D02*
D03*
X54575D02*
D03*
Y-462000D02*
D03*
X105575Y-483000D02*
D03*
X95575Y-472000D02*
D03*
X133575Y-483000D02*
D03*
X123575Y-472000D02*
D03*
X56055Y-225500D02*
D03*
Y-236500D02*
D03*
X106815Y-247000D02*
D03*
X96815Y-235000D02*
D03*
X133815Y-247000D02*
D03*
X123815Y-235000D02*
D03*
X122575Y-117000D02*
D03*
X132575Y-129000D02*
D03*
X97575Y-117000D02*
D03*
X56075Y-107000D02*
D03*
X42575Y-119000D02*
D03*
X56075Y-118000D02*
D03*
X32575Y-107000D02*
D03*
X107575Y-129000D02*
D03*
D69*
X65575Y-356000D02*
D03*
X31012D02*
D03*
X41012Y-345000D02*
D03*
X65638D02*
D03*
X123075Y-366000D02*
D03*
X97575D02*
D03*
X133075Y-355000D02*
D03*
X107575D02*
D03*
X30815Y-236000D02*
D03*
X40815Y-225000D02*
D03*
X40512Y-462000D02*
D03*
X30512Y-473000D02*
D03*
X64575D02*
D03*
Y-462000D02*
D03*
X95575Y-483000D02*
D03*
X105575Y-472000D02*
D03*
X123575Y-483000D02*
D03*
X133575Y-472000D02*
D03*
X66055Y-225500D02*
D03*
Y-236500D02*
D03*
X96815Y-247000D02*
D03*
X106815Y-235000D02*
D03*
X123815Y-247000D02*
D03*
X133815Y-235000D02*
D03*
X132575Y-117000D02*
D03*
X122575Y-129000D02*
D03*
X107575Y-117000D02*
D03*
X66075Y-107000D02*
D03*
X32575Y-119000D02*
D03*
X66075Y-118000D02*
D03*
X42575Y-107000D02*
D03*
X97575Y-129000D02*
D03*
D70*
X137575Y-506000D02*
D03*
X33100Y-384675D02*
D03*
X78815Y-251000D02*
D03*
X60075Y-321000D02*
D03*
X38575Y-153000D02*
D03*
X75075Y-196000D02*
D03*
X143012Y-451000D02*
D03*
X115575Y-435500D02*
D03*
X75595Y-438000D02*
D03*
X66075D02*
D03*
X37075Y-436000D02*
D03*
X51075Y-434000D02*
D03*
X60075Y-390000D02*
D03*
X55075Y-372000D02*
D03*
X97000Y-443000D02*
D03*
X138500Y-438000D02*
D03*
X38000Y-387500D02*
D03*
X94000Y-404000D02*
D03*
X95575Y-396500D02*
D03*
X82815Y-368000D02*
D03*
X130226Y-292411D02*
D03*
X24075Y-269500D02*
D03*
X80575Y-130000D02*
D03*
X37815Y-266000D02*
D03*
X37575Y-553406D02*
D03*
X74500Y-556500D02*
D03*
X68957Y-554000D02*
D03*
X48638Y-551000D02*
D03*
X79575Y-521000D02*
D03*
X59575Y-511000D02*
D03*
X38575Y-505063D02*
D03*
X38949Y-532500D02*
D03*
X29575Y-501000D02*
D03*
X60224Y-489000D02*
D03*
X79575Y-486000D02*
D03*
X110500Y-558000D02*
D03*
X90748Y-521000D02*
D03*
X62638Y-558000D02*
D03*
X69000Y-369500D02*
D03*
X92500Y-514500D02*
D03*
X48260Y-316000D02*
D03*
X38815Y-317000D02*
D03*
X57815Y-274000D02*
D03*
X60878Y-251000D02*
D03*
X63815Y-264000D02*
D03*
X68752Y-315906D02*
D03*
X89386Y-286000D02*
D03*
X140815Y-316000D02*
D03*
X109815Y-313000D02*
D03*
X99075Y-319000D02*
D03*
X82815Y-281000D02*
D03*
X91386Y-278500D02*
D03*
X23575Y-149000D02*
D03*
X83575Y-170000D02*
D03*
X122764Y-74803D02*
D03*
X36012D02*
D03*
X71000Y-88500D02*
D03*
X8795Y-78740D02*
D03*
X31496Y-64000D02*
D03*
X14575Y-123000D02*
D03*
X52575Y-198000D02*
D03*
X106815Y-202969D02*
D03*
X115575Y-43307D02*
D03*
X99508Y-62500D02*
D03*
X95512Y-165819D02*
D03*
X55575Y-135000D02*
D03*
X3937Y-62992D02*
D03*
X61575Y-151000D02*
D03*
X94488Y-158874D02*
D03*
D71*
X29575Y-563000D02*
D03*
X112500Y-564000D02*
D03*
X92500Y-563000D02*
D03*
X63500Y-564000D02*
D03*
X69752Y-204000D02*
D03*
X57713Y-86000D02*
D03*
X71000Y-45500D02*
D03*
X136500Y-37500D02*
D03*
X73000Y-81500D02*
D03*
X113000Y-75500D02*
D03*
X68500Y-60500D02*
D03*
X137795Y-67000D02*
D03*
X46000Y-182000D02*
D03*
X69957Y-130000D02*
D03*
X93000Y-144500D02*
D03*
X88500Y-158874D02*
D03*
X144000Y-153000D02*
D03*
X8795Y-114500D02*
D03*
X82500Y-113000D02*
D03*
X86000Y-164500D02*
D03*
X6500Y-336000D02*
D03*
X69752Y-324000D02*
D03*
X8000Y-473000D02*
D03*
X30512Y-532000D02*
D03*
X37575Y-563000D02*
D03*
X49445D02*
D03*
X126500D02*
D03*
X76500D02*
D03*
X130500Y-514500D02*
D03*
X108000Y-535500D02*
D03*
X76500Y-529500D02*
D03*
X126500Y-495000D02*
D03*
X78500Y-466500D02*
D03*
X55075Y-443000D02*
D03*
X88500Y-396437D02*
D03*
X74500Y-411000D02*
D03*
X41012Y-416000D02*
D03*
X46500Y-441500D02*
D03*
X123575Y-443000D02*
D03*
X139500Y-390740D02*
D03*
X129000Y-378000D02*
D03*
X93000Y-381500D02*
D03*
X81748Y-403000D02*
D03*
X11000Y-354000D02*
D03*
X56752Y-202969D02*
D03*
X85000Y-204000D02*
D03*
X141500Y-206000D02*
D03*
X133815Y-222000D02*
D03*
X81500Y-231500D02*
D03*
Y-216000D02*
D03*
X5500Y-217500D02*
D03*
X7500Y-237000D02*
D03*
X8500Y-269500D02*
D03*
X11000Y-300126D02*
D03*
X40000Y-299500D02*
D03*
X46000Y-277000D02*
D03*
X115067Y-322000D02*
D03*
X133075Y-313000D02*
D03*
X137500Y-271000D02*
D03*
X124500Y-259500D02*
D03*
X63815Y-297059D02*
D03*
X82555Y-322000D02*
D03*
D72*
X65012Y-144500D02*
D03*
X25000Y-379500D02*
D03*
X131357Y-524582D02*
D03*
X123575Y-532500D02*
D03*
X25575Y-496000D02*
D03*
X121500Y-416000D02*
D03*
X132000Y-404000D02*
D03*
X46000Y-91000D02*
D03*
X35075Y-363000D02*
D03*
X129815Y-281000D02*
D03*
X133815Y-170000D02*
D03*
X36815Y-244000D02*
D03*
X27815Y-263000D02*
D03*
X119815Y-297059D02*
D03*
X120075Y-182000D02*
D03*
X37575Y-127000D02*
D03*
X28575Y-143000D02*
D03*
D73*
X7500Y-91000D02*
D03*
X129921Y-53189D02*
D03*
X58075Y-420000D02*
D03*
X39075Y-383260D02*
D03*
X68075Y-381000D02*
D03*
X62138Y-372000D02*
D03*
X86075Y-388000D02*
D03*
X83575Y-506000D02*
D03*
X54575Y-539000D02*
D03*
X38575Y-501000D02*
D03*
X66575D02*
D03*
Y-490433D02*
D03*
X38705Y-261260D02*
D03*
X48260Y-301000D02*
D03*
X68815Y-255173D02*
D03*
Y-265000D02*
D03*
X81815Y-271000D02*
D03*
X99575Y-47000D02*
D03*
X38575Y-200000D02*
D03*
X65012Y-196000D02*
D03*
X62575Y-133000D02*
D03*
X38500Y-6000D02*
D03*
X125575Y-14500D02*
D03*
X109327Y-195563D02*
D03*
X30500Y-83500D02*
D03*
X27756Y-23000D02*
D03*
X58158Y-6000D02*
D03*
Y-22689D02*
D03*
X104575Y-57000D02*
D03*
X84575Y-149260D02*
D03*
X55575Y-183000D02*
D03*
D74*
X37575Y-148000D02*
D03*
M02*
