G04*
G04 #@! TF.GenerationSoftware,Altium Limited,Altium Designer,22.9.1 (49)*
G04*
G04 Layer_Color=8388736*
%FSLAX25Y25*%
%MOIN*%
G70*
G04*
G04 #@! TF.SameCoordinates,E6D2D5AF-3703-4330-9E41-3BAFFAD507BF*
G04*
G04*
G04 #@! TF.FilePolarity,Negative*
G04*
G01*
G75*
%ADD15C,0.00591*%
%ADD18C,0.01000*%
%ADD35O,0.08280X0.03162*%
%ADD36R,0.05918X0.06902*%
%ADD37R,0.04343X0.10642*%
%ADD38R,0.05524X0.06509*%
G04:AMPARAMS|DCode=39|XSize=31.62mil|YSize=47.37mil|CornerRadius=6.01mil|HoleSize=0mil|Usage=FLASHONLY|Rotation=0.000|XOffset=0mil|YOffset=0mil|HoleType=Round|Shape=RoundedRectangle|*
%AMROUNDEDRECTD39*
21,1,0.03162,0.03535,0,0,0.0*
21,1,0.01961,0.04737,0,0,0.0*
1,1,0.01202,0.00980,-0.01768*
1,1,0.01202,-0.00980,-0.01768*
1,1,0.01202,-0.00980,0.01768*
1,1,0.01202,0.00980,0.01768*
%
%ADD39ROUNDEDRECTD39*%
%ADD40R,0.06509X0.05524*%
%ADD41R,0.07887X0.05328*%
G04:AMPARAMS|DCode=42|XSize=33.59mil|YSize=55.24mil|CornerRadius=5.92mil|HoleSize=0mil|Usage=FLASHONLY|Rotation=90.000|XOffset=0mil|YOffset=0mil|HoleType=Round|Shape=RoundedRectangle|*
%AMROUNDEDRECTD42*
21,1,0.03359,0.04341,0,0,90.0*
21,1,0.02175,0.05524,0,0,90.0*
1,1,0.01184,0.02170,0.01088*
1,1,0.01184,0.02170,-0.01088*
1,1,0.01184,-0.02170,-0.01088*
1,1,0.01184,-0.02170,0.01088*
%
%ADD42ROUNDEDRECTD42*%
%ADD43R,0.05328X0.07887*%
%ADD44R,0.06902X0.05918*%
%ADD45R,0.08674X0.05524*%
%ADD46R,0.11627X0.05834*%
G04:AMPARAMS|DCode=47|XSize=133.98mil|YSize=76.9mil|CornerRadius=6.07mil|HoleSize=0mil|Usage=FLASHONLY|Rotation=0.000|XOffset=0mil|YOffset=0mil|HoleType=Round|Shape=RoundedRectangle|*
%AMROUNDEDRECTD47*
21,1,0.13398,0.06476,0,0,0.0*
21,1,0.12185,0.07690,0,0,0.0*
1,1,0.01213,0.06093,-0.03238*
1,1,0.01213,-0.06093,-0.03238*
1,1,0.01213,-0.06093,0.03238*
1,1,0.01213,0.06093,0.03238*
%
%ADD47ROUNDEDRECTD47*%
G04:AMPARAMS|DCode=48|XSize=43.43mil|YSize=76.9mil|CornerRadius=5.95mil|HoleSize=0mil|Usage=FLASHONLY|Rotation=0.000|XOffset=0mil|YOffset=0mil|HoleType=Round|Shape=RoundedRectangle|*
%AMROUNDEDRECTD48*
21,1,0.04343,0.06500,0,0,0.0*
21,1,0.03154,0.07690,0,0,0.0*
1,1,0.01190,0.01577,-0.03250*
1,1,0.01190,-0.01577,-0.03250*
1,1,0.01190,-0.01577,0.03250*
1,1,0.01190,0.01577,0.03250*
%
%ADD48ROUNDEDRECTD48*%
G04:AMPARAMS|DCode=49|XSize=135.95mil|YSize=88.71mil|CornerRadius=6.02mil|HoleSize=0mil|Usage=FLASHONLY|Rotation=0.000|XOffset=0mil|YOffset=0mil|HoleType=Round|Shape=RoundedRectangle|*
%AMROUNDEDRECTD49*
21,1,0.13595,0.07667,0,0,0.0*
21,1,0.12392,0.08871,0,0,0.0*
1,1,0.01204,0.06196,-0.03834*
1,1,0.01204,-0.06196,-0.03834*
1,1,0.01204,-0.06196,0.03834*
1,1,0.01204,0.06196,0.03834*
%
%ADD49ROUNDEDRECTD49*%
G04:AMPARAMS|DCode=50|XSize=47.37mil|YSize=88.71mil|CornerRadius=5.97mil|HoleSize=0mil|Usage=FLASHONLY|Rotation=0.000|XOffset=0mil|YOffset=0mil|HoleType=Round|Shape=RoundedRectangle|*
%AMROUNDEDRECTD50*
21,1,0.04737,0.07677,0,0,0.0*
21,1,0.03543,0.08871,0,0,0.0*
1,1,0.01194,0.01772,-0.03839*
1,1,0.01194,-0.01772,-0.03839*
1,1,0.01194,-0.01772,0.03839*
1,1,0.01194,0.01772,0.03839*
%
%ADD50ROUNDEDRECTD50*%
%ADD51C,0.06706*%
%ADD52R,0.06706X0.06706*%
%ADD53C,0.13800*%
%ADD54R,0.06706X0.06706*%
%ADD55C,0.07099*%
%ADD56R,0.07099X0.07099*%
%ADD57C,0.03950*%
%ADD58C,0.04737*%
%ADD59C,0.05800*%
%ADD60C,0.03556*%
%ADD61C,0.04737*%
D15*
X46020Y-384351D02*
Y-386975D01*
X46545Y-387500D01*
X47594D01*
X48119Y-386975D01*
Y-384351D01*
X49168Y-387500D02*
X50218D01*
X49693D01*
Y-384351D01*
X49168Y-384876D01*
X51792Y-388025D02*
X53891D01*
X54941Y-387500D02*
Y-385401D01*
X55990Y-384351D01*
X57040Y-385401D01*
Y-387500D01*
Y-385926D01*
X54941D01*
X60189Y-387500D02*
X58089D01*
X60189Y-385401D01*
Y-384876D01*
X59664Y-384351D01*
X58614D01*
X58089Y-384876D01*
X81983Y-493347D02*
X79360D01*
X78835Y-493871D01*
Y-494921D01*
X79360Y-495446D01*
X81983D01*
X78835Y-498069D02*
X81983D01*
X80409Y-496495D01*
Y-498594D01*
X78310Y-499644D02*
Y-501743D01*
X78835Y-502792D02*
X80934D01*
X81983Y-503842D01*
X80934Y-504891D01*
X78835D01*
X80409D01*
Y-502792D01*
X78835Y-505941D02*
Y-506990D01*
Y-506466D01*
X81983D01*
X81459Y-505941D01*
X46138Y-502352D02*
Y-504975D01*
X46663Y-505500D01*
X47712D01*
X48237Y-504975D01*
Y-502352D01*
X49286Y-505500D02*
X50336D01*
X49811D01*
Y-502352D01*
X49286Y-502876D01*
X51910Y-506025D02*
X54009D01*
X55059Y-505500D02*
Y-503401D01*
X56108Y-502352D01*
X57158Y-503401D01*
Y-505500D01*
Y-503926D01*
X55059D01*
X58207Y-505500D02*
X59257D01*
X58732D01*
Y-502352D01*
X58207Y-502876D01*
X46075Y-150352D02*
Y-152975D01*
X46600Y-153500D01*
X47649D01*
X48174Y-152975D01*
Y-150352D01*
X49224Y-153500D02*
X50273D01*
X49748D01*
Y-150352D01*
X49224Y-150876D01*
X51847Y-154025D02*
X53946D01*
X54996Y-153500D02*
Y-151401D01*
X56046Y-150352D01*
X57095Y-151401D01*
Y-153500D01*
Y-151926D01*
X54996D01*
X59719Y-153500D02*
Y-150352D01*
X58144Y-151926D01*
X60244D01*
X20850Y-34500D02*
X18226D01*
X17701Y-35025D01*
Y-36074D01*
X18226Y-36599D01*
X20850D01*
X17701Y-37649D02*
Y-38698D01*
Y-38173D01*
X20850D01*
X20325Y-37649D01*
Y-40273D02*
X20850Y-40797D01*
Y-41847D01*
X20325Y-42371D01*
X18226D01*
X17701Y-41847D01*
Y-40797D01*
X18226Y-40273D01*
X20325D01*
X17701Y-43421D02*
Y-44471D01*
Y-43946D01*
X20850D01*
X20325Y-43421D01*
X50306Y-34189D02*
X47682D01*
X47158Y-34714D01*
Y-35763D01*
X47682Y-36288D01*
X50306D01*
X47158Y-37338D02*
Y-38387D01*
Y-37862D01*
X50306D01*
X49782Y-37338D01*
Y-39961D02*
X50306Y-40486D01*
Y-41536D01*
X49782Y-42061D01*
X47682D01*
X47158Y-41536D01*
Y-40486D01*
X47682Y-39961D01*
X49782D01*
X47158Y-45209D02*
Y-43110D01*
X49257Y-45209D01*
X49782D01*
X50306Y-44684D01*
Y-43635D01*
X49782Y-43110D01*
X82983Y-136913D02*
X80360D01*
X79835Y-137438D01*
Y-138488D01*
X80360Y-139013D01*
X82983D01*
X79835Y-141636D02*
X82983D01*
X81409Y-140062D01*
Y-142161D01*
X79310Y-143211D02*
Y-145310D01*
X79835Y-146359D02*
X81934D01*
X82983Y-147409D01*
X81934Y-148458D01*
X79835D01*
X81409D01*
Y-146359D01*
X79835Y-151082D02*
X82983D01*
X81409Y-149508D01*
Y-151607D01*
D18*
X0Y-590551D02*
X149307D01*
X0Y-0D02*
X0Y-590551D01*
X0Y-0D02*
X149307D01*
Y-590551D02*
Y-0D01*
D35*
X98748Y-499000D02*
D03*
Y-504000D02*
D03*
Y-509000D02*
D03*
Y-514000D02*
D03*
X117252Y-499000D02*
D03*
Y-504000D02*
D03*
Y-509000D02*
D03*
Y-514000D02*
D03*
X81748Y-421500D02*
D03*
Y-426500D02*
D03*
Y-431500D02*
D03*
Y-436500D02*
D03*
X100252Y-421500D02*
D03*
Y-426500D02*
D03*
Y-431500D02*
D03*
Y-436500D02*
D03*
X100748Y-381500D02*
D03*
Y-386500D02*
D03*
Y-391500D02*
D03*
Y-396500D02*
D03*
X119252Y-381500D02*
D03*
Y-386500D02*
D03*
Y-391500D02*
D03*
Y-396500D02*
D03*
X115067Y-278500D02*
D03*
Y-273500D02*
D03*
Y-268500D02*
D03*
Y-263500D02*
D03*
X96563Y-278500D02*
D03*
Y-273500D02*
D03*
Y-268500D02*
D03*
Y-263500D02*
D03*
X91386Y-312059D02*
D03*
Y-307059D02*
D03*
Y-302059D02*
D03*
Y-297059D02*
D03*
X72882Y-312059D02*
D03*
Y-307059D02*
D03*
Y-302059D02*
D03*
Y-297059D02*
D03*
X98252Y-554500D02*
D03*
Y-549500D02*
D03*
Y-544500D02*
D03*
Y-539500D02*
D03*
X79748Y-554500D02*
D03*
Y-549500D02*
D03*
Y-544500D02*
D03*
Y-539500D02*
D03*
X118827Y-158500D02*
D03*
Y-153500D02*
D03*
Y-148500D02*
D03*
Y-143500D02*
D03*
X100323Y-158500D02*
D03*
Y-153500D02*
D03*
Y-148500D02*
D03*
Y-143500D02*
D03*
X98827Y-194500D02*
D03*
Y-189500D02*
D03*
Y-184500D02*
D03*
Y-179500D02*
D03*
X80323Y-194500D02*
D03*
Y-189500D02*
D03*
Y-184500D02*
D03*
Y-179500D02*
D03*
D36*
X40063Y-75000D02*
D03*
X47937D02*
D03*
X13063Y-77500D02*
D03*
X20937D02*
D03*
X86638Y-47000D02*
D03*
X94512D02*
D03*
D37*
X35449Y-65000D02*
D03*
X47654D02*
D03*
X8795Y-64000D02*
D03*
X21000D02*
D03*
D38*
X62693Y-390000D02*
D03*
X70567D02*
D03*
X40012Y-408000D02*
D03*
X32138D02*
D03*
X57012Y-412000D02*
D03*
X49138D02*
D03*
X36012Y-372000D02*
D03*
X28138D02*
D03*
X52012D02*
D03*
X44138D02*
D03*
X26878Y-291000D02*
D03*
X34752D02*
D03*
X42878Y-293000D02*
D03*
X50752D02*
D03*
X32878Y-251000D02*
D03*
X40752D02*
D03*
X48878D02*
D03*
X56752D02*
D03*
X105937Y-404000D02*
D03*
X98063D02*
D03*
X122437D02*
D03*
X114563D02*
D03*
X102004Y-286000D02*
D03*
X94130D02*
D03*
X117752Y-286000D02*
D03*
X109878D02*
D03*
X69752Y-275000D02*
D03*
X61878D02*
D03*
X119512Y-521000D02*
D03*
X111638D02*
D03*
X70512Y-510000D02*
D03*
X62638D02*
D03*
X102685Y-521000D02*
D03*
X94811D02*
D03*
X49445Y-532000D02*
D03*
X57319D02*
D03*
X32638Y-524000D02*
D03*
X40512D02*
D03*
X31075Y-490000D02*
D03*
X38949D02*
D03*
X48638D02*
D03*
X56512D02*
D03*
X27575Y-135000D02*
D03*
X35449D02*
D03*
X122764Y-165819D02*
D03*
X114890D02*
D03*
X107512Y-166213D02*
D03*
X99638D02*
D03*
X63638Y-156000D02*
D03*
X71512D02*
D03*
X36012Y-172000D02*
D03*
X28138D02*
D03*
X50949Y-175500D02*
D03*
X43075D02*
D03*
X43575Y-135000D02*
D03*
X51449D02*
D03*
D39*
X85815Y-382827D02*
D03*
X82075D02*
D03*
X78335D02*
D03*
Y-372000D02*
D03*
X82075D02*
D03*
X85815D02*
D03*
X82555Y-255173D02*
D03*
X78815D02*
D03*
X75075D02*
D03*
Y-266000D02*
D03*
X78815D02*
D03*
X82555D02*
D03*
X83075Y-490433D02*
D03*
X79335D02*
D03*
X75595D02*
D03*
Y-501260D02*
D03*
X79335D02*
D03*
X83075D02*
D03*
X84075Y-134000D02*
D03*
X80335D02*
D03*
X76595D02*
D03*
Y-144827D02*
D03*
X80335D02*
D03*
X84075D02*
D03*
D40*
X37075Y-425063D02*
D03*
Y-432937D02*
D03*
X30000Y-388563D02*
D03*
Y-396437D02*
D03*
X38815Y-313937D02*
D03*
Y-306063D02*
D03*
X28815Y-276874D02*
D03*
Y-269000D02*
D03*
X37575Y-548937D02*
D03*
Y-541063D02*
D03*
X29575Y-512937D02*
D03*
Y-505063D02*
D03*
X28575Y-151000D02*
D03*
Y-158874D02*
D03*
X39575Y-189063D02*
D03*
Y-196937D02*
D03*
D41*
X66075Y-434906D02*
D03*
Y-423095D02*
D03*
X57815Y-304095D02*
D03*
Y-315906D02*
D03*
X64575Y-541595D02*
D03*
Y-553406D02*
D03*
X65575Y-192969D02*
D03*
Y-181158D02*
D03*
D42*
X42713Y-383260D02*
D03*
Y-387000D02*
D03*
Y-390740D02*
D03*
X54327D02*
D03*
Y-387000D02*
D03*
Y-383260D02*
D03*
X54067Y-261260D02*
D03*
Y-265000D02*
D03*
Y-268740D02*
D03*
X42453D02*
D03*
Y-265000D02*
D03*
Y-261260D02*
D03*
X54445Y-501260D02*
D03*
Y-505000D02*
D03*
Y-508740D02*
D03*
X42831D02*
D03*
Y-505000D02*
D03*
Y-501260D02*
D03*
X42768Y-149260D02*
D03*
Y-153000D02*
D03*
Y-156740D02*
D03*
X54382D02*
D03*
Y-153000D02*
D03*
Y-149260D02*
D03*
D43*
X56232Y-401000D02*
D03*
X68043D02*
D03*
X72276Y-286000D02*
D03*
X60465D02*
D03*
X67480Y-520000D02*
D03*
X55669D02*
D03*
X58146Y-169000D02*
D03*
X69957D02*
D03*
D44*
X111575Y-433437D02*
D03*
Y-425563D02*
D03*
X109815Y-308000D02*
D03*
Y-300126D02*
D03*
X110500Y-553437D02*
D03*
Y-545563D02*
D03*
X109075Y-192437D02*
D03*
Y-184563D02*
D03*
D45*
X87575Y-67000D02*
D03*
X98598D02*
D03*
X98575Y-57000D02*
D03*
X87551D02*
D03*
X13575Y-90000D02*
D03*
X24599D02*
D03*
X36500Y-83500D02*
D03*
X47524D02*
D03*
D46*
X115575Y-21890D02*
D03*
Y-40000D02*
D03*
D47*
X18701Y-53303D02*
D03*
D48*
X9646Y-28697D02*
D03*
X18701D02*
D03*
X27756D02*
D03*
D49*
X48658Y-53189D02*
D03*
D50*
X39603Y-28189D02*
D03*
X48658D02*
D03*
X57713D02*
D03*
D51*
X89075Y-35059D02*
D03*
X15575Y-311000D02*
D03*
X16075Y-402000D02*
D03*
X15075Y-374500D02*
D03*
X135000Y-428000D02*
D03*
X15575Y-255173D02*
D03*
Y-282500D02*
D03*
X14575Y-521000D02*
D03*
Y-551000D02*
D03*
X14500Y-492000D02*
D03*
X16075Y-429500D02*
D03*
X136496Y-302059D02*
D03*
X132000Y-551063D02*
D03*
X14575Y-192969D02*
D03*
X135575Y-195000D02*
D03*
X14575Y-165819D02*
D03*
Y-139000D02*
D03*
D52*
X79075Y-35059D02*
D03*
D53*
X137795Y-578740D02*
D03*
X11811D02*
D03*
X13575Y-11811D02*
D03*
X137795D02*
D03*
D54*
X15575Y-321000D02*
D03*
X16075Y-412000D02*
D03*
X15075Y-384500D02*
D03*
X135000Y-418000D02*
D03*
X15575Y-265173D02*
D03*
Y-292500D02*
D03*
X14575Y-531000D02*
D03*
Y-561000D02*
D03*
X14500Y-502000D02*
D03*
X16075Y-439500D02*
D03*
X136496Y-292059D02*
D03*
X132000Y-541063D02*
D03*
X14575Y-202969D02*
D03*
X135575Y-185000D02*
D03*
X14575Y-175819D02*
D03*
Y-149000D02*
D03*
D55*
X55575Y-356000D02*
D03*
X41012D02*
D03*
X31012Y-345000D02*
D03*
X55638D02*
D03*
X133075Y-366000D02*
D03*
X107575D02*
D03*
X123075Y-355000D02*
D03*
X97575D02*
D03*
X40815Y-236000D02*
D03*
X30815Y-225000D02*
D03*
X30512Y-462000D02*
D03*
X40512Y-473000D02*
D03*
X54575D02*
D03*
Y-462000D02*
D03*
X105575Y-483000D02*
D03*
X95575Y-472000D02*
D03*
X133575Y-483000D02*
D03*
X123575Y-472000D02*
D03*
X56055Y-225500D02*
D03*
Y-236500D02*
D03*
X106815Y-247000D02*
D03*
X96815Y-235000D02*
D03*
X133815Y-247000D02*
D03*
X123815Y-235000D02*
D03*
X122575Y-117000D02*
D03*
X132575Y-129000D02*
D03*
X97575Y-117000D02*
D03*
X56075Y-107000D02*
D03*
X42575Y-119000D02*
D03*
X56075Y-118000D02*
D03*
X32575Y-107000D02*
D03*
X107575Y-129000D02*
D03*
D56*
X65575Y-356000D02*
D03*
X31012D02*
D03*
X41012Y-345000D02*
D03*
X65638D02*
D03*
X123075Y-366000D02*
D03*
X97575D02*
D03*
X133075Y-355000D02*
D03*
X107575D02*
D03*
X30815Y-236000D02*
D03*
X40815Y-225000D02*
D03*
X40512Y-462000D02*
D03*
X30512Y-473000D02*
D03*
X64575D02*
D03*
Y-462000D02*
D03*
X95575Y-483000D02*
D03*
X105575Y-472000D02*
D03*
X123575Y-483000D02*
D03*
X133575Y-472000D02*
D03*
X66055Y-225500D02*
D03*
Y-236500D02*
D03*
X96815Y-247000D02*
D03*
X106815Y-235000D02*
D03*
X123815Y-247000D02*
D03*
X133815Y-235000D02*
D03*
X132575Y-117000D02*
D03*
X122575Y-129000D02*
D03*
X107575Y-117000D02*
D03*
X66075Y-107000D02*
D03*
X32575Y-119000D02*
D03*
X66075Y-118000D02*
D03*
X42575Y-107000D02*
D03*
X97575Y-129000D02*
D03*
D57*
X137575Y-506000D02*
D03*
X33100Y-384675D02*
D03*
X78815Y-251000D02*
D03*
X60075Y-321000D02*
D03*
X38575Y-153000D02*
D03*
X75075Y-196000D02*
D03*
X143012Y-451000D02*
D03*
X115575Y-435500D02*
D03*
X75595Y-438000D02*
D03*
X66075D02*
D03*
X37075Y-436000D02*
D03*
X51075Y-434000D02*
D03*
X60075Y-390000D02*
D03*
X55075Y-372000D02*
D03*
X97000Y-443000D02*
D03*
X138500Y-438000D02*
D03*
X38000Y-387500D02*
D03*
X94000Y-404000D02*
D03*
X95575Y-396500D02*
D03*
X82815Y-368000D02*
D03*
X130226Y-292411D02*
D03*
X24075Y-269500D02*
D03*
X80575Y-130000D02*
D03*
X37815Y-266000D02*
D03*
X37575Y-553406D02*
D03*
X74500Y-556500D02*
D03*
X68957Y-554000D02*
D03*
X48638Y-551000D02*
D03*
X79575Y-521000D02*
D03*
X59575Y-511000D02*
D03*
X38575Y-505063D02*
D03*
X38949Y-532500D02*
D03*
X29575Y-501000D02*
D03*
X60224Y-489000D02*
D03*
X79575Y-486000D02*
D03*
X110500Y-558000D02*
D03*
X90748Y-521000D02*
D03*
X62638Y-558000D02*
D03*
X69000Y-369500D02*
D03*
X92500Y-514500D02*
D03*
X48260Y-316000D02*
D03*
X38815Y-317000D02*
D03*
X57815Y-274000D02*
D03*
X60878Y-251000D02*
D03*
X63815Y-264000D02*
D03*
X68752Y-315906D02*
D03*
X89386Y-286000D02*
D03*
X140815Y-316000D02*
D03*
X109815Y-313000D02*
D03*
X99075Y-319000D02*
D03*
X82815Y-281000D02*
D03*
X91386Y-278500D02*
D03*
X23575Y-149000D02*
D03*
X83575Y-170000D02*
D03*
X122764Y-74803D02*
D03*
X36012D02*
D03*
X71000Y-88500D02*
D03*
X8795Y-78740D02*
D03*
X31496Y-64000D02*
D03*
X14575Y-123000D02*
D03*
X52575Y-198000D02*
D03*
X106815Y-202969D02*
D03*
X115575Y-43307D02*
D03*
X99508Y-62500D02*
D03*
X95512Y-165819D02*
D03*
X55575Y-135000D02*
D03*
X3937Y-62992D02*
D03*
X61575Y-151000D02*
D03*
X94488Y-158874D02*
D03*
D58*
X29575Y-563000D02*
D03*
X112500Y-564000D02*
D03*
X92500Y-563000D02*
D03*
X63500Y-564000D02*
D03*
X69752Y-204000D02*
D03*
X57713Y-86000D02*
D03*
X71000Y-45500D02*
D03*
X136500Y-37500D02*
D03*
X73000Y-81500D02*
D03*
X113000Y-75500D02*
D03*
X68500Y-60500D02*
D03*
X137795Y-67000D02*
D03*
X46000Y-182000D02*
D03*
X69957Y-130000D02*
D03*
X93000Y-144500D02*
D03*
X88500Y-158874D02*
D03*
X144000Y-153000D02*
D03*
X8795Y-114500D02*
D03*
X82500Y-113000D02*
D03*
X86000Y-164500D02*
D03*
X6500Y-336000D02*
D03*
X69752Y-324000D02*
D03*
X8000Y-473000D02*
D03*
X30512Y-532000D02*
D03*
X37575Y-563000D02*
D03*
X49445D02*
D03*
X126500D02*
D03*
X76500D02*
D03*
X130500Y-514500D02*
D03*
X108000Y-535500D02*
D03*
X76500Y-529500D02*
D03*
X126500Y-495000D02*
D03*
X78500Y-466500D02*
D03*
X55075Y-443000D02*
D03*
X88500Y-396437D02*
D03*
X74500Y-411000D02*
D03*
X41012Y-416000D02*
D03*
X46500Y-441500D02*
D03*
X123575Y-443000D02*
D03*
X139500Y-390740D02*
D03*
X129000Y-378000D02*
D03*
X93000Y-381500D02*
D03*
X81748Y-403000D02*
D03*
X11000Y-354000D02*
D03*
X56752Y-202969D02*
D03*
X85000Y-204000D02*
D03*
X141500Y-206000D02*
D03*
X133815Y-222000D02*
D03*
X81500Y-231500D02*
D03*
Y-216000D02*
D03*
X5500Y-217500D02*
D03*
X7500Y-237000D02*
D03*
X8500Y-269500D02*
D03*
X11000Y-300126D02*
D03*
X40000Y-299500D02*
D03*
X46000Y-277000D02*
D03*
X115067Y-322000D02*
D03*
X133075Y-313000D02*
D03*
X137500Y-271000D02*
D03*
X124500Y-259500D02*
D03*
X63815Y-297059D02*
D03*
X82555Y-322000D02*
D03*
D59*
X65012Y-144500D02*
D03*
X25000Y-379500D02*
D03*
X131357Y-524582D02*
D03*
X123575Y-532500D02*
D03*
X25575Y-496000D02*
D03*
X121500Y-416000D02*
D03*
X132000Y-404000D02*
D03*
X46000Y-91000D02*
D03*
X35075Y-363000D02*
D03*
X129815Y-281000D02*
D03*
X133815Y-170000D02*
D03*
X36815Y-244000D02*
D03*
X27815Y-263000D02*
D03*
X119815Y-297059D02*
D03*
X120075Y-182000D02*
D03*
X37575Y-127000D02*
D03*
X28575Y-143000D02*
D03*
D60*
X7500Y-91000D02*
D03*
X129921Y-53189D02*
D03*
X58075Y-420000D02*
D03*
X39075Y-383260D02*
D03*
X68075Y-381000D02*
D03*
X62138Y-372000D02*
D03*
X86075Y-388000D02*
D03*
X83575Y-506000D02*
D03*
X54575Y-539000D02*
D03*
X38575Y-501000D02*
D03*
X66575D02*
D03*
Y-490433D02*
D03*
X38705Y-261260D02*
D03*
X48260Y-301000D02*
D03*
X68815Y-255173D02*
D03*
Y-265000D02*
D03*
X81815Y-271000D02*
D03*
X99575Y-47000D02*
D03*
X38575Y-200000D02*
D03*
X65012Y-196000D02*
D03*
X62575Y-133000D02*
D03*
X38500Y-6000D02*
D03*
X125575Y-14500D02*
D03*
X109327Y-195563D02*
D03*
X30500Y-83500D02*
D03*
X27756Y-23000D02*
D03*
X58158Y-6000D02*
D03*
Y-22689D02*
D03*
X104575Y-57000D02*
D03*
X84575Y-149260D02*
D03*
X55575Y-183000D02*
D03*
D61*
X37575Y-148000D02*
D03*
M02*
