G04*
G04 #@! TF.GenerationSoftware,Altium Limited,Altium Designer,22.3.1 (43)*
G04*
G04 Layer_Physical_Order=2*
G04 Layer_Color=16711680*
%FSLAX25Y25*%
%MOIN*%
G70*
G04*
G04 #@! TF.SameCoordinates,279A1D3E-A716-413B-99E7-0DBA20A4D314*
G04*
G04*
G04 #@! TF.FilePolarity,Positive*
G04*
G01*
G75*
%ADD15C,0.00394*%
%ADD17C,0.01000*%
%ADD65C,0.01400*%
%ADD66C,0.03000*%
%ADD67C,0.06299*%
%ADD68R,0.06299X0.06299*%
%ADD69R,0.06299X0.06299*%
%ADD70C,0.13000*%
%ADD71C,0.05000*%
%ADD72C,0.02756*%
%ADD73C,0.01968*%
%ADD74C,0.03150*%
%ADD75C,0.03937*%
G36*
X141732Y-543000D02*
X0D01*
Y0D01*
X141732D01*
Y-543000D01*
D02*
G37*
%LPC*%
G36*
X80650Y-3350D02*
X77000D01*
Y-7000D01*
X80650D01*
Y-3350D01*
D02*
G37*
G36*
X76000D02*
X72350D01*
Y-7000D01*
X76000D01*
Y-3350D01*
D02*
G37*
G36*
X130421Y-3922D02*
Y-11311D01*
X137810D01*
X137707Y-10262D01*
X137255Y-8773D01*
X136522Y-7401D01*
X135534Y-6198D01*
X134332Y-5211D01*
X132959Y-4477D01*
X131470Y-4025D01*
X130421Y-3922D01*
D02*
G37*
G36*
X129421D02*
X128373Y-4025D01*
X126883Y-4477D01*
X125511Y-5211D01*
X124308Y-6198D01*
X123321Y-7401D01*
X122587Y-8773D01*
X122136Y-10262D01*
X122032Y-11311D01*
X129421D01*
Y-3922D01*
D02*
G37*
G36*
X12311D02*
Y-11311D01*
X19700D01*
X19597Y-10262D01*
X19145Y-8773D01*
X18411Y-7401D01*
X17424Y-6198D01*
X16221Y-5211D01*
X14849Y-4477D01*
X13360Y-4025D01*
X12311Y-3922D01*
D02*
G37*
G36*
X11311D02*
X10262Y-4025D01*
X8773Y-4477D01*
X7401Y-5211D01*
X6198Y-6198D01*
X5211Y-7401D01*
X4477Y-8773D01*
X4025Y-10262D01*
X3922Y-11311D01*
X11311D01*
Y-3922D01*
D02*
G37*
G36*
X80650Y-8000D02*
X77000D01*
Y-11650D01*
X80650D01*
Y-8000D01*
D02*
G37*
G36*
X76000D02*
X72350D01*
Y-11650D01*
X76000D01*
Y-8000D01*
D02*
G37*
G36*
X66500Y-3315D02*
X65417Y-3457D01*
X64407Y-3875D01*
X63541Y-4541D01*
X62875Y-5407D01*
X62457Y-6417D01*
X62315Y-7500D01*
X62457Y-8583D01*
X62875Y-9593D01*
X63541Y-10459D01*
X64407Y-11125D01*
X65417Y-11543D01*
X66500Y-11685D01*
X67583Y-11543D01*
X68593Y-11125D01*
X69459Y-10459D01*
X70125Y-9593D01*
X70543Y-8583D01*
X70685Y-7500D01*
X70543Y-6417D01*
X70125Y-5407D01*
X69459Y-4541D01*
X68593Y-3875D01*
X67583Y-3457D01*
X66500Y-3315D01*
D02*
G37*
G36*
X118500Y-12175D02*
Y-14000D01*
X120325D01*
X120240Y-13572D01*
X119714Y-12786D01*
X118928Y-12260D01*
X118500Y-12175D01*
D02*
G37*
G36*
X117500D02*
X117072Y-12260D01*
X116286Y-12786D01*
X115760Y-13572D01*
X115675Y-14000D01*
X117500D01*
Y-12175D01*
D02*
G37*
G36*
X120325Y-15000D02*
X118500D01*
Y-16825D01*
X118928Y-16740D01*
X119714Y-16214D01*
X120240Y-15428D01*
X120325Y-15000D01*
D02*
G37*
G36*
X117500D02*
X115675D01*
X115760Y-15428D01*
X116286Y-16214D01*
X117072Y-16740D01*
X117500Y-16825D01*
Y-15000D01*
D02*
G37*
G36*
X19700Y-12311D02*
X12311D01*
Y-19700D01*
X13360Y-19597D01*
X14849Y-19145D01*
X16221Y-18411D01*
X17424Y-17424D01*
X18411Y-16221D01*
X19145Y-14849D01*
X19597Y-13360D01*
X19700Y-12311D01*
D02*
G37*
G36*
X11311D02*
X3922D01*
X4025Y-13360D01*
X4477Y-14849D01*
X5211Y-16221D01*
X6198Y-17424D01*
X7401Y-18411D01*
X8773Y-19145D01*
X10262Y-19597D01*
X11311Y-19700D01*
Y-12311D01*
D02*
G37*
G36*
X137810D02*
X122032D01*
X122136Y-13360D01*
X122587Y-14849D01*
X123321Y-16221D01*
X124308Y-17424D01*
X125511Y-18411D01*
X126883Y-19145D01*
X127538Y-19343D01*
X127786Y-19714D01*
X128572Y-20240D01*
X129000Y-20325D01*
Y-18000D01*
X130000D01*
Y-20325D01*
X130428Y-20240D01*
X131214Y-19714D01*
X131281Y-19615D01*
X131470Y-19597D01*
X132959Y-19145D01*
X134332Y-18411D01*
X135534Y-17424D01*
X136522Y-16221D01*
X137255Y-14849D01*
X137707Y-13360D01*
X137810Y-12311D01*
D02*
G37*
G36*
X118500Y-20969D02*
Y-23000D01*
X120531D01*
X120509Y-22828D01*
X120249Y-22201D01*
X119836Y-21664D01*
X119299Y-21251D01*
X118672Y-20991D01*
X118500Y-20969D01*
D02*
G37*
G36*
X117500D02*
X117328Y-20991D01*
X116701Y-21251D01*
X116164Y-21664D01*
X115751Y-22201D01*
X115491Y-22828D01*
X115469Y-23000D01*
X117500D01*
Y-20969D01*
D02*
G37*
G36*
X19000Y-21175D02*
Y-23000D01*
X20825D01*
X20740Y-22572D01*
X20214Y-21786D01*
X19428Y-21260D01*
X19000Y-21175D01*
D02*
G37*
G36*
X18000D02*
X17572Y-21260D01*
X16786Y-21786D01*
X16260Y-22572D01*
X16175Y-23000D01*
X18000D01*
Y-21175D01*
D02*
G37*
G36*
X20825Y-24000D02*
X19000D01*
Y-25825D01*
X19428Y-25740D01*
X20214Y-25214D01*
X20740Y-24428D01*
X20825Y-24000D01*
D02*
G37*
G36*
X18000D02*
X16175D01*
X16260Y-24428D01*
X16786Y-25214D01*
X17572Y-25740D01*
X18000Y-25825D01*
Y-24000D01*
D02*
G37*
G36*
X120531D02*
X118500D01*
Y-26031D01*
X118672Y-26008D01*
X119299Y-25749D01*
X119836Y-25336D01*
X120249Y-24799D01*
X120509Y-24172D01*
X120531Y-24000D01*
D02*
G37*
G36*
X117500D02*
X115469D01*
X115491Y-24172D01*
X115751Y-24799D01*
X116164Y-25336D01*
X116701Y-25749D01*
X117328Y-26008D01*
X117500Y-26031D01*
Y-24000D01*
D02*
G37*
G36*
X73000Y-28675D02*
Y-30500D01*
X74825D01*
X74740Y-30072D01*
X74214Y-29286D01*
X73428Y-28760D01*
X73000Y-28675D01*
D02*
G37*
G36*
X72000D02*
X71572Y-28760D01*
X70786Y-29286D01*
X70260Y-30072D01*
X70175Y-30500D01*
X72000D01*
Y-28675D01*
D02*
G37*
G36*
X60000Y-30675D02*
Y-32500D01*
X61825D01*
X61740Y-32072D01*
X61214Y-31286D01*
X60428Y-30760D01*
X60000Y-30675D01*
D02*
G37*
G36*
X59000D02*
X58572Y-30760D01*
X57786Y-31286D01*
X57260Y-32072D01*
X57175Y-32500D01*
X59000D01*
Y-30675D01*
D02*
G37*
G36*
X74825Y-31500D02*
X73000D01*
Y-33325D01*
X73428Y-33240D01*
X74214Y-32714D01*
X74740Y-31928D01*
X74825Y-31500D01*
D02*
G37*
G36*
X72000D02*
X70175D01*
X70260Y-31928D01*
X70786Y-32714D01*
X71572Y-33240D01*
X72000Y-33325D01*
Y-31500D01*
D02*
G37*
G36*
X61825Y-33500D02*
X60000D01*
Y-35325D01*
X60428Y-35240D01*
X61214Y-34714D01*
X61740Y-33928D01*
X61825Y-33500D01*
D02*
G37*
G36*
X59000D02*
X57175D01*
X57260Y-33928D01*
X57786Y-34714D01*
X58572Y-35240D01*
X59000Y-35325D01*
Y-33500D01*
D02*
G37*
G36*
X9000Y-34675D02*
Y-36500D01*
X10825D01*
X10740Y-36072D01*
X10214Y-35286D01*
X9428Y-34760D01*
X9000Y-34675D01*
D02*
G37*
G36*
X8000D02*
X7572Y-34760D01*
X6786Y-35286D01*
X6260Y-36072D01*
X6175Y-36500D01*
X8000D01*
Y-34675D01*
D02*
G37*
G36*
X10825Y-37500D02*
X9000D01*
Y-39325D01*
X9428Y-39240D01*
X10214Y-38714D01*
X10740Y-37928D01*
X10825Y-37500D01*
D02*
G37*
G36*
X8000D02*
X6175D01*
X6260Y-37928D01*
X6786Y-38714D01*
X7572Y-39240D01*
X8000Y-39325D01*
Y-37500D01*
D02*
G37*
G36*
X28555Y-37675D02*
Y-39500D01*
X30380D01*
X30295Y-39072D01*
X29770Y-38286D01*
X28983Y-37760D01*
X28555Y-37675D01*
D02*
G37*
G36*
X27555D02*
X27127Y-37760D01*
X26341Y-38286D01*
X25815Y-39072D01*
X25730Y-39500D01*
X27555D01*
Y-37675D01*
D02*
G37*
G36*
X30380Y-40500D02*
X28555D01*
Y-42325D01*
X28983Y-42240D01*
X29770Y-41714D01*
X30295Y-40928D01*
X30380Y-40500D01*
D02*
G37*
G36*
X27555D02*
X25730D01*
X25815Y-40928D01*
X26341Y-41714D01*
X27127Y-42240D01*
X27555Y-42325D01*
Y-40500D01*
D02*
G37*
G36*
X60500Y-45675D02*
Y-47500D01*
X62325D01*
X62240Y-47072D01*
X61714Y-46286D01*
X60928Y-45760D01*
X60500Y-45675D01*
D02*
G37*
G36*
X59500D02*
X59072Y-45760D01*
X58286Y-46286D01*
X57760Y-47072D01*
X57675Y-47500D01*
X59500D01*
Y-45675D01*
D02*
G37*
G36*
X62325Y-48500D02*
X60500D01*
Y-50325D01*
X60928Y-50240D01*
X61714Y-49714D01*
X62240Y-48928D01*
X62325Y-48500D01*
D02*
G37*
G36*
X59500D02*
X57675D01*
X57760Y-48928D01*
X58286Y-49714D01*
X59072Y-50240D01*
X59500Y-50325D01*
Y-48500D01*
D02*
G37*
G36*
X138295Y-62819D02*
Y-64644D01*
X140120D01*
X140035Y-64216D01*
X139510Y-63429D01*
X138723Y-62904D01*
X138295Y-62819D01*
D02*
G37*
G36*
X137295D02*
X136867Y-62904D01*
X136081Y-63429D01*
X135555Y-64216D01*
X135470Y-64644D01*
X137295D01*
Y-62819D01*
D02*
G37*
G36*
X140120Y-65644D02*
X138295D01*
Y-67469D01*
X138723Y-67384D01*
X139510Y-66858D01*
X140035Y-66071D01*
X140120Y-65644D01*
D02*
G37*
G36*
X137295D02*
X135470D01*
X135555Y-66071D01*
X136081Y-66858D01*
X136867Y-67384D01*
X137295Y-67469D01*
Y-65644D01*
D02*
G37*
G36*
X85000Y-69675D02*
Y-71500D01*
X86825D01*
X86740Y-71072D01*
X86214Y-70286D01*
X85428Y-69760D01*
X85000Y-69675D01*
D02*
G37*
G36*
X84000D02*
X83572Y-69760D01*
X82786Y-70286D01*
X82260Y-71072D01*
X82175Y-71500D01*
X84000D01*
Y-69675D01*
D02*
G37*
G36*
X86825Y-72500D02*
X85000D01*
Y-74325D01*
X85428Y-74240D01*
X86214Y-73714D01*
X86740Y-72928D01*
X86825Y-72500D01*
D02*
G37*
G36*
X84000D02*
X82175D01*
X82260Y-72928D01*
X82786Y-73714D01*
X83572Y-74240D01*
X84000Y-74325D01*
Y-72500D01*
D02*
G37*
G36*
X74000Y-86675D02*
Y-88500D01*
X75825D01*
X75740Y-88072D01*
X75214Y-87286D01*
X74428Y-86760D01*
X74000Y-86675D01*
D02*
G37*
G36*
X73000D02*
X72572Y-86760D01*
X71786Y-87286D01*
X71260Y-88072D01*
X71175Y-88500D01*
X73000D01*
Y-86675D01*
D02*
G37*
G36*
X133000Y-87675D02*
Y-89500D01*
X134825D01*
X134740Y-89072D01*
X134214Y-88286D01*
X133428Y-87760D01*
X133000Y-87675D01*
D02*
G37*
G36*
X132000D02*
X131572Y-87760D01*
X130786Y-88286D01*
X130260Y-89072D01*
X130175Y-89500D01*
X132000D01*
Y-87675D01*
D02*
G37*
G36*
X38500Y-87469D02*
Y-89500D01*
X40531D01*
X40508Y-89328D01*
X40249Y-88701D01*
X39836Y-88164D01*
X39298Y-87751D01*
X38672Y-87492D01*
X38500Y-87469D01*
D02*
G37*
G36*
X37500D02*
X37328Y-87492D01*
X36702Y-87751D01*
X36164Y-88164D01*
X35751Y-88701D01*
X35491Y-89328D01*
X35469Y-89500D01*
X37500D01*
Y-87469D01*
D02*
G37*
G36*
X75825Y-89500D02*
X74000D01*
Y-91325D01*
X74428Y-91240D01*
X75214Y-90714D01*
X75740Y-89928D01*
X75825Y-89500D01*
D02*
G37*
G36*
X73000D02*
X71175D01*
X71260Y-89928D01*
X71786Y-90714D01*
X72572Y-91240D01*
X73000Y-91325D01*
Y-89500D01*
D02*
G37*
G36*
X3500Y-89675D02*
Y-91500D01*
X5325D01*
X5240Y-91072D01*
X4714Y-90286D01*
X3928Y-89760D01*
X3500Y-89675D01*
D02*
G37*
G36*
X2500D02*
X2072Y-89760D01*
X1286Y-90286D01*
X760Y-91072D01*
X675Y-91500D01*
X2500D01*
Y-89675D01*
D02*
G37*
G36*
X134825Y-90500D02*
X133000D01*
Y-92325D01*
X133428Y-92240D01*
X134214Y-91714D01*
X134740Y-90928D01*
X134825Y-90500D01*
D02*
G37*
G36*
X132000D02*
X130175D01*
X130260Y-90928D01*
X130786Y-91714D01*
X131572Y-92240D01*
X132000Y-92325D01*
Y-90500D01*
D02*
G37*
G36*
X40531D02*
X38500D01*
Y-92531D01*
X38672Y-92509D01*
X39298Y-92249D01*
X39836Y-91836D01*
X40249Y-91299D01*
X40508Y-90672D01*
X40531Y-90500D01*
D02*
G37*
G36*
X37500D02*
X35469D01*
X35491Y-90672D01*
X35751Y-91299D01*
X36164Y-91836D01*
X36702Y-92249D01*
X37328Y-92509D01*
X37500Y-92531D01*
Y-90500D01*
D02*
G37*
G36*
X5325Y-92500D02*
X3500D01*
Y-94325D01*
X3928Y-94240D01*
X4714Y-93714D01*
X5240Y-92928D01*
X5325Y-92500D01*
D02*
G37*
G36*
X2500D02*
X675D01*
X760Y-92928D01*
X1286Y-93714D01*
X2072Y-94240D01*
X2500Y-94325D01*
Y-92500D01*
D02*
G37*
G36*
X25000Y-102815D02*
X23917Y-102957D01*
X22907Y-103375D01*
X22040Y-104041D01*
X21375Y-104907D01*
X20957Y-105917D01*
X20815Y-107000D01*
X20957Y-108083D01*
X21375Y-109093D01*
X22040Y-109959D01*
X22907Y-110625D01*
X23917Y-111043D01*
X25000Y-111185D01*
X26083Y-111043D01*
X27093Y-110625D01*
X27959Y-109959D01*
X28625Y-109093D01*
X29043Y-108083D01*
X29185Y-107000D01*
X29043Y-105917D01*
X28625Y-104907D01*
X27959Y-104041D01*
X27093Y-103375D01*
X26083Y-102957D01*
X25000Y-102815D01*
D02*
G37*
G36*
X129150Y-112850D02*
X125500D01*
Y-116500D01*
X129150D01*
Y-112850D01*
D02*
G37*
G36*
X104150D02*
X100500D01*
Y-116500D01*
X104150D01*
Y-112850D01*
D02*
G37*
G36*
X124500D02*
X120850D01*
Y-116500D01*
X124500D01*
Y-112850D01*
D02*
G37*
G36*
X99500D02*
X95850D01*
Y-116500D01*
X99500D01*
Y-112850D01*
D02*
G37*
G36*
X56500Y-104016D02*
X55469Y-104152D01*
X54508Y-104550D01*
X53683Y-105183D01*
X53050Y-106008D01*
X52652Y-106969D01*
X52516Y-108000D01*
X52652Y-109031D01*
X53050Y-109992D01*
X53683Y-110817D01*
X54508Y-111450D01*
X55469Y-111848D01*
X56500Y-111984D01*
X57531Y-111848D01*
X57994Y-111656D01*
X62550Y-116213D01*
Y-122950D01*
X70450D01*
Y-120529D01*
X73366D01*
X82919Y-130081D01*
X83415Y-130413D01*
X84000Y-130529D01*
X86050D01*
Y-132950D01*
X89787D01*
X92919Y-136081D01*
X93415Y-136413D01*
X94000Y-136529D01*
X109000D01*
X109585Y-136413D01*
X110081Y-136081D01*
X113213Y-132950D01*
X118950D01*
Y-125050D01*
X111050D01*
Y-130787D01*
X108367Y-133471D01*
X100132D01*
X100099Y-132971D01*
X100376Y-132934D01*
X101031Y-132848D01*
X101992Y-132450D01*
X102817Y-131817D01*
X103450Y-130992D01*
X103848Y-130031D01*
X103984Y-129000D01*
X103848Y-127969D01*
X103656Y-127506D01*
X108633Y-122529D01*
X111000D01*
X111585Y-122413D01*
X112081Y-122081D01*
X113506Y-120656D01*
X113969Y-120848D01*
X115000Y-120984D01*
X116031Y-120848D01*
X116992Y-120450D01*
X117817Y-119817D01*
X118450Y-118992D01*
X118848Y-118031D01*
X118984Y-117000D01*
X118848Y-115969D01*
X118450Y-115008D01*
X117817Y-114183D01*
X116992Y-113550D01*
X116031Y-113152D01*
X115000Y-113016D01*
X113969Y-113152D01*
X113008Y-113550D01*
X112183Y-114183D01*
X111550Y-115008D01*
X111152Y-115969D01*
X111016Y-117000D01*
X111152Y-118031D01*
X111344Y-118493D01*
X110366Y-119471D01*
X108000D01*
X107415Y-119587D01*
X106919Y-119919D01*
X101494Y-125344D01*
X101031Y-125152D01*
X100000Y-125016D01*
X98969Y-125152D01*
X98008Y-125550D01*
X97183Y-126183D01*
X96550Y-127008D01*
X96152Y-127969D01*
X96016Y-129000D01*
X96152Y-130031D01*
X96550Y-130992D01*
X97183Y-131817D01*
X98008Y-132450D01*
X98969Y-132848D01*
X99624Y-132934D01*
X99901Y-132971D01*
X99868Y-133471D01*
X94634D01*
X93950Y-132787D01*
Y-125050D01*
X86050D01*
Y-127471D01*
X84633D01*
X83469Y-126306D01*
X83529Y-126000D01*
Y-119000D01*
X83413Y-118415D01*
X83081Y-117919D01*
X82585Y-117587D01*
X82000Y-117471D01*
X81415Y-117587D01*
X80919Y-117919D01*
X80587Y-118415D01*
X80471Y-119000D01*
Y-122654D01*
X80009Y-122846D01*
X75081Y-117919D01*
X74585Y-117587D01*
X74000Y-117471D01*
X70450D01*
Y-115050D01*
X65713D01*
X63074Y-112411D01*
X63266Y-111950D01*
X70450D01*
Y-104050D01*
X62550D01*
Y-111234D01*
X62089Y-111426D01*
X60156Y-109494D01*
X60348Y-109031D01*
X60484Y-108000D01*
X60348Y-106969D01*
X59950Y-106008D01*
X59317Y-105183D01*
X58492Y-104550D01*
X57531Y-104152D01*
X56500Y-104016D01*
D02*
G37*
G36*
X90000Y-113016D02*
X88969Y-113152D01*
X88008Y-113550D01*
X87183Y-114183D01*
X86550Y-115008D01*
X86152Y-115969D01*
X86016Y-117000D01*
X86152Y-118031D01*
X86550Y-118992D01*
X87183Y-119817D01*
X88008Y-120450D01*
X88969Y-120848D01*
X90000Y-120984D01*
X91031Y-120848D01*
X91992Y-120450D01*
X92817Y-119817D01*
X93450Y-118992D01*
X93848Y-118031D01*
X93984Y-117000D01*
X93848Y-115969D01*
X93450Y-115008D01*
X92817Y-114183D01*
X91992Y-113550D01*
X91031Y-113152D01*
X90000Y-113016D01*
D02*
G37*
G36*
X129150Y-117500D02*
X125500D01*
Y-121150D01*
X129150D01*
Y-117500D01*
D02*
G37*
G36*
X124500D02*
X120850D01*
Y-121150D01*
X124500D01*
Y-117500D01*
D02*
G37*
G36*
X104150D02*
X100500D01*
Y-121150D01*
X104150D01*
Y-117500D01*
D02*
G37*
G36*
X99500D02*
X95850D01*
Y-121150D01*
X99500D01*
Y-117500D01*
D02*
G37*
G36*
X7500Y-120469D02*
Y-122500D01*
X9531D01*
X9509Y-122328D01*
X9249Y-121702D01*
X8836Y-121164D01*
X8298Y-120751D01*
X7672Y-120492D01*
X7500Y-120469D01*
D02*
G37*
G36*
X6500D02*
X6328Y-120492D01*
X5702Y-120751D01*
X5164Y-121164D01*
X4751Y-121702D01*
X4492Y-122328D01*
X4469Y-122500D01*
X6500D01*
Y-120469D01*
D02*
G37*
G36*
X56500Y-115016D02*
X55469Y-115152D01*
X54508Y-115550D01*
X53683Y-116183D01*
X53050Y-117008D01*
X52652Y-117969D01*
X52516Y-119000D01*
X52652Y-120031D01*
X53050Y-120992D01*
X53683Y-121817D01*
X54508Y-122450D01*
X55469Y-122848D01*
X56500Y-122984D01*
X57531Y-122848D01*
X58492Y-122450D01*
X59317Y-121817D01*
X59950Y-120992D01*
X60348Y-120031D01*
X60484Y-119000D01*
X60348Y-117969D01*
X59950Y-117008D01*
X59317Y-116183D01*
X58492Y-115550D01*
X57531Y-115152D01*
X56500Y-115016D01*
D02*
G37*
G36*
X9531Y-123500D02*
X7500D01*
Y-125531D01*
X7672Y-125508D01*
X8298Y-125249D01*
X8836Y-124836D01*
X9249Y-124299D01*
X9509Y-123672D01*
X9531Y-123500D01*
D02*
G37*
G36*
X6500D02*
X4469D01*
X4492Y-123672D01*
X4751Y-124299D01*
X5164Y-124836D01*
X5702Y-125249D01*
X6328Y-125508D01*
X6500Y-125531D01*
Y-123500D01*
D02*
G37*
G36*
X73500Y-127469D02*
Y-129500D01*
X75531D01*
X75508Y-129328D01*
X75249Y-128701D01*
X74836Y-128164D01*
X74299Y-127751D01*
X73672Y-127491D01*
X73500Y-127469D01*
D02*
G37*
G36*
X72500D02*
X72328Y-127491D01*
X71702Y-127751D01*
X71164Y-128164D01*
X70751Y-128701D01*
X70491Y-129328D01*
X70469Y-129500D01*
X72500D01*
Y-127469D01*
D02*
G37*
G36*
X75531Y-130500D02*
X73500D01*
Y-132531D01*
X73672Y-132509D01*
X74299Y-132249D01*
X74836Y-131836D01*
X75249Y-131298D01*
X75508Y-130672D01*
X75531Y-130500D01*
D02*
G37*
G36*
X72500D02*
X70469D01*
X70491Y-130672D01*
X70751Y-131298D01*
X71164Y-131836D01*
X71702Y-132249D01*
X72328Y-132509D01*
X72500Y-132531D01*
Y-130500D01*
D02*
G37*
G36*
X125000Y-125016D02*
X123969Y-125152D01*
X123008Y-125550D01*
X122183Y-126183D01*
X121550Y-127008D01*
X121152Y-127969D01*
X121016Y-129000D01*
X121152Y-130031D01*
X121550Y-130992D01*
X122183Y-131817D01*
X123008Y-132450D01*
X123969Y-132848D01*
X125000Y-132984D01*
X126031Y-132848D01*
X126992Y-132450D01*
X127817Y-131817D01*
X128450Y-130992D01*
X128848Y-130031D01*
X128984Y-129000D01*
X128848Y-127969D01*
X128450Y-127008D01*
X127817Y-126183D01*
X126992Y-125550D01*
X126031Y-125152D01*
X125000Y-125016D01*
D02*
G37*
G36*
X48500Y-132469D02*
Y-134500D01*
X50531D01*
X50508Y-134328D01*
X50249Y-133702D01*
X49836Y-133164D01*
X49299Y-132751D01*
X48672Y-132492D01*
X48500Y-132469D01*
D02*
G37*
G36*
X47500D02*
X47328Y-132492D01*
X46701Y-132751D01*
X46164Y-133164D01*
X45751Y-133702D01*
X45491Y-134328D01*
X45469Y-134500D01*
X47500D01*
Y-132469D01*
D02*
G37*
G36*
X50531Y-135500D02*
X48500D01*
Y-137531D01*
X48672Y-137508D01*
X49299Y-137249D01*
X49836Y-136836D01*
X50249Y-136299D01*
X50508Y-135672D01*
X50531Y-135500D01*
D02*
G37*
G36*
X47500D02*
X45469D01*
X45491Y-135672D01*
X45751Y-136299D01*
X46164Y-136836D01*
X46701Y-137249D01*
X47328Y-137508D01*
X47500Y-137531D01*
Y-135500D01*
D02*
G37*
G36*
X103500Y-138469D02*
Y-140500D01*
X105531D01*
X105508Y-140328D01*
X105249Y-139701D01*
X104836Y-139164D01*
X104298Y-138751D01*
X103672Y-138491D01*
X103500Y-138469D01*
D02*
G37*
G36*
X102500D02*
X102328Y-138491D01*
X101701Y-138751D01*
X101164Y-139164D01*
X100751Y-139701D01*
X100491Y-140328D01*
X100469Y-140500D01*
X102500D01*
Y-138469D01*
D02*
G37*
G36*
X9000Y-133016D02*
X7969Y-133152D01*
X7008Y-133550D01*
X6183Y-134183D01*
X5550Y-135008D01*
X5152Y-135969D01*
X5016Y-137000D01*
X5152Y-138031D01*
X5550Y-138992D01*
X6183Y-139817D01*
X7008Y-140450D01*
X7969Y-140848D01*
X9000Y-140984D01*
X10031Y-140848D01*
X10992Y-140450D01*
X11817Y-139817D01*
X12450Y-138992D01*
X12848Y-138031D01*
X12984Y-137000D01*
X12848Y-135969D01*
X12450Y-135008D01*
X11817Y-134183D01*
X10992Y-133550D01*
X10031Y-133152D01*
X9000Y-133016D01*
D02*
G37*
G36*
X91752Y-140469D02*
Y-142500D01*
X93783D01*
X93761Y-142328D01*
X93501Y-141701D01*
X93088Y-141164D01*
X92550Y-140751D01*
X91924Y-140491D01*
X91752Y-140469D01*
D02*
G37*
G36*
X90752D02*
X90580Y-140491D01*
X89954Y-140751D01*
X89416Y-141164D01*
X89003Y-141701D01*
X88743Y-142328D01*
X88721Y-142500D01*
X90752D01*
Y-140469D01*
D02*
G37*
G36*
X134531Y-140500D02*
X132500D01*
Y-142531D01*
X132672Y-142508D01*
X133299Y-142249D01*
X133836Y-141836D01*
X134249Y-141298D01*
X134509Y-140672D01*
X134531Y-140500D01*
D02*
G37*
G36*
X119000Y-88470D02*
X118086Y-88590D01*
X117235Y-88943D01*
X116504Y-89504D01*
X115943Y-90235D01*
X115590Y-91086D01*
X115470Y-92000D01*
X115590Y-92914D01*
X115943Y-93765D01*
X116504Y-94496D01*
X117235Y-95057D01*
X118086Y-95410D01*
X119000Y-95530D01*
X119914Y-95410D01*
X120544Y-95149D01*
X130451Y-105056D01*
Y-132182D01*
X126869Y-135763D01*
X117688D01*
X116712Y-135957D01*
X115932Y-136479D01*
X115086Y-136590D01*
X114235Y-136943D01*
X113504Y-137504D01*
X112943Y-138235D01*
X112590Y-139086D01*
X112470Y-140000D01*
X112590Y-140914D01*
X112943Y-141765D01*
X113451Y-142428D01*
Y-148000D01*
X113645Y-148976D01*
X114198Y-149802D01*
X119451Y-155056D01*
Y-211000D01*
X119645Y-211976D01*
X120198Y-212802D01*
X131451Y-224056D01*
Y-224475D01*
X131150Y-224850D01*
X130951Y-224850D01*
X127500D01*
Y-229000D01*
Y-233150D01*
X130951D01*
X131150Y-233150D01*
X131451Y-233525D01*
Y-240659D01*
X130988Y-240749D01*
X130982Y-240750D01*
X130890Y-240288D01*
X130848Y-239969D01*
X130450Y-239008D01*
X129817Y-238183D01*
X128992Y-237550D01*
X128031Y-237152D01*
X127000Y-237016D01*
X125969Y-237152D01*
X125008Y-237550D01*
X124183Y-238183D01*
X123550Y-239008D01*
X123152Y-239969D01*
X123016Y-241000D01*
X123152Y-242031D01*
X123550Y-242992D01*
X124183Y-243817D01*
X125008Y-244450D01*
X125969Y-244848D01*
X127000Y-244984D01*
X128031Y-244848D01*
X128992Y-244450D01*
X129817Y-243817D01*
X130450Y-242992D01*
X130848Y-242031D01*
X130890Y-241712D01*
X130982Y-241250D01*
X130988Y-241251D01*
X131451Y-241341D01*
Y-245944D01*
X124944Y-252451D01*
X121428D01*
X120765Y-251943D01*
X119914Y-251590D01*
X119000Y-251470D01*
X118086Y-251590D01*
X117235Y-251943D01*
X116504Y-252504D01*
X115943Y-253235D01*
X115590Y-254086D01*
X115470Y-255000D01*
X115590Y-255914D01*
X115943Y-256765D01*
X116504Y-257496D01*
X117235Y-258057D01*
X118086Y-258410D01*
X119000Y-258530D01*
X119914Y-258410D01*
X120765Y-258057D01*
X121428Y-257549D01*
X126000D01*
X126976Y-257355D01*
X127802Y-256802D01*
X135802Y-248802D01*
X136355Y-247975D01*
X136549Y-247000D01*
Y-223000D01*
X136355Y-222024D01*
X135802Y-221198D01*
X124549Y-209944D01*
Y-154000D01*
X124355Y-153024D01*
X123802Y-152198D01*
X118549Y-146944D01*
Y-142428D01*
X119057Y-141765D01*
X119410Y-140914D01*
X119417Y-140861D01*
X127925D01*
X128901Y-140667D01*
X129030Y-140581D01*
X129557Y-140830D01*
X129751Y-141298D01*
X130164Y-141836D01*
X130701Y-142249D01*
X131328Y-142508D01*
X131500Y-142531D01*
Y-140000D01*
X132000D01*
Y-139500D01*
X134531D01*
X134509Y-139328D01*
X134249Y-138701D01*
X133836Y-138164D01*
X133299Y-137751D01*
X132945Y-137604D01*
X132813Y-137030D01*
X134802Y-135040D01*
X135355Y-134213D01*
X135549Y-133237D01*
Y-104000D01*
X135355Y-103024D01*
X134802Y-102198D01*
X122802Y-90198D01*
X121976Y-89645D01*
X121538Y-89558D01*
X121496Y-89504D01*
X120765Y-88943D01*
X119914Y-88590D01*
X119000Y-88470D01*
D02*
G37*
G36*
X105531Y-141500D02*
X103500D01*
Y-143531D01*
X103672Y-143509D01*
X104298Y-143249D01*
X104836Y-142836D01*
X105249Y-142298D01*
X105508Y-141672D01*
X105531Y-141500D01*
D02*
G37*
G36*
X102500D02*
X100469D01*
X100491Y-141672D01*
X100751Y-142298D01*
X101164Y-142836D01*
X101701Y-143249D01*
X102328Y-143509D01*
X102500Y-143531D01*
Y-141500D01*
D02*
G37*
G36*
X93783Y-143500D02*
X91752D01*
Y-145531D01*
X91924Y-145509D01*
X92550Y-145249D01*
X93088Y-144836D01*
X93501Y-144299D01*
X93761Y-143672D01*
X93783Y-143500D01*
D02*
G37*
G36*
X90752D02*
X88721D01*
X88743Y-143672D01*
X89003Y-144299D01*
X89416Y-144836D01*
X89954Y-145249D01*
X90580Y-145509D01*
X90752Y-145531D01*
Y-143500D01*
D02*
G37*
G36*
X55000Y-130779D02*
X54150Y-130948D01*
X53430Y-131430D01*
X52948Y-132150D01*
X52779Y-133000D01*
X52948Y-133850D01*
X53430Y-134570D01*
X53471Y-134598D01*
Y-140000D01*
X53587Y-140585D01*
X53919Y-141081D01*
X56789Y-143952D01*
X56779Y-144000D01*
X56948Y-144850D01*
X57430Y-145570D01*
X58150Y-146052D01*
X59000Y-146221D01*
X59850Y-146052D01*
X60570Y-145570D01*
X61052Y-144850D01*
X61221Y-144000D01*
X61052Y-143150D01*
X60570Y-142430D01*
X59850Y-141948D01*
X59000Y-141779D01*
X58952Y-141789D01*
X56529Y-139366D01*
Y-134598D01*
X56570Y-134570D01*
X57052Y-133850D01*
X57221Y-133000D01*
X57052Y-132150D01*
X56570Y-131430D01*
X55850Y-130948D01*
X55000Y-130779D01*
D02*
G37*
G36*
X13150Y-142850D02*
X9500D01*
Y-146500D01*
X13150D01*
Y-142850D01*
D02*
G37*
G36*
X128500Y-144469D02*
Y-146500D01*
X130531D01*
X130508Y-146328D01*
X130249Y-145702D01*
X129836Y-145164D01*
X129298Y-144751D01*
X128672Y-144492D01*
X128500Y-144469D01*
D02*
G37*
G36*
X127500D02*
X127328Y-144492D01*
X126701Y-144751D01*
X126164Y-145164D01*
X125751Y-145702D01*
X125491Y-146328D01*
X125469Y-146500D01*
X127500D01*
Y-144469D01*
D02*
G37*
G36*
X8500Y-142850D02*
X4850D01*
Y-146500D01*
X8500D01*
Y-142850D01*
D02*
G37*
G36*
X24500Y-79470D02*
X23586Y-79590D01*
X22735Y-79943D01*
X22004Y-80504D01*
X21443Y-81235D01*
X21090Y-82086D01*
X21045Y-82427D01*
X20867D01*
X19891Y-82621D01*
X19064Y-83174D01*
X8698Y-93541D01*
X8145Y-94368D01*
X7951Y-95343D01*
Y-107500D01*
X8145Y-108475D01*
X8698Y-109302D01*
X20198Y-120802D01*
X20850Y-121239D01*
Y-123150D01*
X22451D01*
Y-125287D01*
X21198Y-126541D01*
X20645Y-127368D01*
X20451Y-128343D01*
Y-139542D01*
X20086Y-139590D01*
X19235Y-139943D01*
X18504Y-140504D01*
X17943Y-141235D01*
X17590Y-142086D01*
X17470Y-143000D01*
X17590Y-143914D01*
X17943Y-144765D01*
X18451Y-145428D01*
Y-147143D01*
X17951Y-147313D01*
X17836Y-147164D01*
X17299Y-146751D01*
X16672Y-146492D01*
X16500Y-146469D01*
Y-149000D01*
Y-151531D01*
X16672Y-151508D01*
X17299Y-151249D01*
X17836Y-150836D01*
X17951Y-150687D01*
X18451Y-150857D01*
Y-207944D01*
X13198Y-213198D01*
X12645Y-214024D01*
X12451Y-215000D01*
Y-227000D01*
X12645Y-227976D01*
X13198Y-228802D01*
X16198Y-231802D01*
X17025Y-232355D01*
X18000Y-232549D01*
X19850D01*
Y-234150D01*
X21451D01*
Y-244287D01*
X20272Y-245466D01*
X19720Y-246293D01*
X19526Y-247268D01*
Y-253822D01*
X19235Y-253943D01*
X18504Y-254504D01*
X17943Y-255235D01*
X17590Y-256086D01*
X17470Y-257000D01*
X17590Y-257914D01*
X17943Y-258765D01*
X18082Y-258947D01*
X17820Y-259427D01*
X17328Y-259491D01*
X16702Y-259751D01*
X16164Y-260164D01*
X15751Y-260701D01*
X15492Y-261328D01*
X15469Y-261500D01*
X18000D01*
Y-262000D01*
X18500D01*
Y-264531D01*
X18672Y-264509D01*
X19026Y-264362D01*
X19526Y-264675D01*
Y-294967D01*
X19451Y-295343D01*
Y-321944D01*
X14198Y-327198D01*
X13645Y-328025D01*
X13451Y-329000D01*
Y-335063D01*
X13645Y-336038D01*
X14198Y-336865D01*
X19787Y-342455D01*
Y-347150D01*
X20212D01*
X20529Y-347536D01*
X20451Y-347929D01*
Y-352071D01*
X20645Y-353046D01*
X21198Y-353873D01*
X21388Y-354064D01*
Y-363007D01*
X19914Y-364481D01*
X19086Y-364590D01*
X18235Y-364943D01*
X17504Y-365504D01*
X16943Y-366235D01*
X16590Y-367086D01*
X16470Y-368000D01*
X16590Y-368914D01*
X16943Y-369765D01*
X17451Y-370427D01*
Y-435944D01*
X14198Y-439198D01*
X13645Y-440025D01*
X13451Y-441000D01*
Y-452000D01*
X13645Y-452976D01*
X14198Y-453802D01*
X17198Y-456802D01*
X17669Y-457117D01*
X17718Y-457615D01*
X17198Y-458135D01*
X16645Y-458962D01*
X16451Y-459937D01*
Y-475572D01*
X15943Y-476235D01*
X15590Y-477086D01*
X15470Y-478000D01*
X15590Y-478914D01*
X15943Y-479765D01*
X16504Y-480496D01*
X17235Y-481057D01*
X18086Y-481410D01*
X19000Y-481530D01*
X19914Y-481410D01*
X20545Y-481148D01*
X20860Y-481559D01*
X20751Y-481702D01*
X20492Y-482328D01*
X20469Y-482500D01*
X22500D01*
Y-480469D01*
X22328Y-480491D01*
X22038Y-480612D01*
X21723Y-480201D01*
X22057Y-479765D01*
X22410Y-478914D01*
X22530Y-478000D01*
X22410Y-477086D01*
X22057Y-476235D01*
X21549Y-475572D01*
Y-460993D01*
X23392Y-459150D01*
X28087D01*
Y-450850D01*
X19787D01*
Y-451529D01*
X19326Y-451721D01*
X18549Y-450944D01*
Y-442056D01*
X20989Y-439616D01*
X21451Y-439807D01*
Y-440677D01*
X20978Y-441041D01*
X20312Y-441907D01*
X19894Y-442917D01*
X19752Y-444000D01*
X19894Y-445083D01*
X20312Y-446093D01*
X20978Y-446959D01*
X21844Y-447625D01*
X22854Y-448043D01*
X23937Y-448185D01*
X25020Y-448043D01*
X26030Y-447625D01*
X26897Y-446959D01*
X27562Y-446093D01*
X27980Y-445083D01*
X28122Y-444000D01*
X27980Y-442917D01*
X27562Y-441907D01*
X26897Y-441041D01*
X26549Y-440774D01*
Y-375056D01*
X27943Y-373662D01*
X28417Y-373895D01*
X28403Y-374000D01*
X28492Y-374672D01*
X28751Y-375299D01*
X29164Y-375836D01*
X29702Y-376249D01*
X30328Y-376508D01*
X30500Y-376531D01*
Y-374000D01*
X31000D01*
Y-373500D01*
X33531D01*
X33509Y-373328D01*
X33249Y-372702D01*
X33138Y-372557D01*
X33220Y-372064D01*
X33570Y-371830D01*
X34052Y-371110D01*
X34221Y-370260D01*
X34052Y-369410D01*
X33570Y-368690D01*
X33529Y-368662D01*
Y-366634D01*
X35019Y-365144D01*
X35350Y-364648D01*
X35466Y-364063D01*
Y-346641D01*
X35929Y-346450D01*
X36754Y-345817D01*
X37387Y-344992D01*
X37785Y-344031D01*
X37921Y-343000D01*
X37785Y-341969D01*
X37387Y-341008D01*
X36754Y-340183D01*
X35929Y-339550D01*
X35466Y-339358D01*
Y-335950D01*
X37887D01*
Y-328050D01*
X29987D01*
Y-335950D01*
X32408D01*
Y-339358D01*
X31945Y-339550D01*
X31120Y-340183D01*
X30487Y-341008D01*
X30089Y-341969D01*
X29953Y-343000D01*
X30089Y-344031D01*
X30487Y-344992D01*
X31120Y-345817D01*
X31945Y-346450D01*
X32408Y-346641D01*
Y-363429D01*
X31049Y-364788D01*
X30549Y-364604D01*
Y-352428D01*
X31057Y-351765D01*
X31410Y-350914D01*
X31530Y-350000D01*
X31410Y-349086D01*
X31057Y-348235D01*
X30496Y-347504D01*
X29765Y-346943D01*
X28914Y-346590D01*
X28087Y-346481D01*
Y-338850D01*
X23392D01*
X18549Y-334007D01*
Y-330056D01*
X22989Y-325616D01*
X23451Y-325807D01*
Y-327879D01*
X22854Y-327957D01*
X21844Y-328375D01*
X20978Y-329041D01*
X20312Y-329907D01*
X19894Y-330917D01*
X19752Y-332000D01*
X19894Y-333083D01*
X20312Y-334093D01*
X20978Y-334960D01*
X21844Y-335625D01*
X22854Y-336043D01*
X23937Y-336185D01*
X25020Y-336043D01*
X26030Y-335625D01*
X26897Y-334960D01*
X27562Y-334093D01*
X27980Y-333083D01*
X28122Y-332000D01*
X28041Y-331382D01*
X28355Y-330912D01*
X28549Y-329937D01*
Y-297301D01*
X28624Y-296925D01*
Y-261954D01*
X29124Y-261785D01*
X29164Y-261836D01*
X29702Y-262249D01*
X30328Y-262509D01*
X30500Y-262531D01*
Y-260000D01*
X31000D01*
Y-259500D01*
X33531D01*
X33509Y-259328D01*
X33249Y-258701D01*
X32836Y-258164D01*
X32462Y-257876D01*
X32569Y-257345D01*
X32740Y-257311D01*
X33460Y-256830D01*
X33941Y-256110D01*
X34110Y-255260D01*
X33941Y-254410D01*
X33460Y-253690D01*
X33419Y-253662D01*
Y-250744D01*
X35281Y-248881D01*
X35613Y-248385D01*
X35729Y-247800D01*
Y-233559D01*
X35992Y-233450D01*
X36817Y-232817D01*
X37450Y-231992D01*
X37848Y-231031D01*
X37984Y-230000D01*
X37848Y-228969D01*
X37450Y-228008D01*
X36817Y-227183D01*
X35992Y-226550D01*
X35529Y-226359D01*
Y-222950D01*
X37950D01*
Y-215050D01*
X30050D01*
Y-222950D01*
X32471D01*
Y-226359D01*
X32008Y-226550D01*
X31183Y-227183D01*
X30550Y-228008D01*
X30152Y-228969D01*
X30016Y-230000D01*
X30152Y-231031D01*
X30550Y-231992D01*
X31183Y-232817D01*
X32008Y-233450D01*
X32671Y-233724D01*
Y-235007D01*
X32171Y-235254D01*
X31765Y-234943D01*
X30914Y-234590D01*
X30000Y-234470D01*
X29086Y-234590D01*
X28235Y-234943D01*
X27504Y-235504D01*
X27049Y-236097D01*
X26549Y-235927D01*
Y-234150D01*
X28150D01*
Y-225850D01*
X19850D01*
Y-227451D01*
X19056D01*
X17549Y-225944D01*
Y-216056D01*
X21989Y-211616D01*
X22451Y-211807D01*
Y-215150D01*
X21907Y-215375D01*
X21041Y-216040D01*
X20375Y-216907D01*
X19957Y-217917D01*
X19815Y-219000D01*
X19957Y-220083D01*
X20375Y-221093D01*
X21041Y-221959D01*
X21907Y-222625D01*
X22917Y-223043D01*
X24000Y-223185D01*
X25083Y-223043D01*
X26093Y-222625D01*
X26959Y-221959D01*
X27625Y-221093D01*
X28043Y-220083D01*
X28185Y-219000D01*
X28043Y-217917D01*
X27625Y-216907D01*
X27549Y-216809D01*
Y-150175D01*
X27941Y-150010D01*
X28049Y-149993D01*
X28604Y-150418D01*
X29277Y-150697D01*
X29855Y-150773D01*
X29956Y-150901D01*
X30043Y-151104D01*
X30068Y-151288D01*
X29751Y-151701D01*
X29491Y-152328D01*
X29469Y-152500D01*
X34531D01*
X34508Y-152328D01*
X34249Y-151701D01*
X33836Y-151164D01*
X33299Y-150751D01*
X32672Y-150491D01*
X32203Y-150430D01*
X32071Y-150167D01*
X32016Y-149920D01*
X32418Y-149396D01*
X32697Y-148723D01*
X32792Y-148000D01*
X32697Y-147277D01*
X32460Y-146703D01*
X36081Y-143081D01*
X36413Y-142585D01*
X36529Y-142000D01*
Y-122642D01*
X36992Y-122450D01*
X37817Y-121817D01*
X38450Y-120992D01*
X38848Y-120031D01*
X38984Y-119000D01*
X38848Y-117969D01*
X38450Y-117008D01*
X37817Y-116183D01*
X36992Y-115550D01*
X36529Y-115358D01*
Y-110950D01*
X38950D01*
Y-103050D01*
X31050D01*
Y-110950D01*
X33471D01*
Y-115358D01*
X33008Y-115550D01*
X32183Y-116183D01*
X31550Y-117008D01*
X31152Y-117969D01*
X31016Y-119000D01*
X31152Y-120031D01*
X31550Y-120992D01*
X32183Y-121817D01*
X33008Y-122450D01*
X33471Y-122642D01*
Y-124993D01*
X32971Y-125122D01*
X32496Y-124504D01*
X31765Y-123943D01*
X30914Y-123590D01*
X30000Y-123470D01*
X29432Y-123545D01*
X29390Y-123550D01*
X29150Y-123077D01*
X29150Y-122777D01*
Y-122777D01*
X29150Y-122776D01*
Y-114850D01*
X21455D01*
X13049Y-106444D01*
Y-96399D01*
X21923Y-87525D01*
X22524D01*
X23499Y-87331D01*
X24326Y-86779D01*
X24586Y-86519D01*
X25414Y-86410D01*
X26265Y-86057D01*
X26996Y-85496D01*
X27557Y-84765D01*
X27910Y-83914D01*
X28030Y-83000D01*
X27910Y-82086D01*
X27557Y-81235D01*
X26996Y-80504D01*
X26265Y-79943D01*
X25414Y-79590D01*
X24500Y-79470D01*
D02*
G37*
G36*
X15500Y-146469D02*
X15328Y-146492D01*
X14702Y-146751D01*
X14164Y-147164D01*
X13751Y-147702D01*
X13650Y-147946D01*
X13150Y-147847D01*
Y-147500D01*
X9500D01*
Y-151150D01*
X13150D01*
Y-150153D01*
X13650Y-150054D01*
X13751Y-150299D01*
X14164Y-150836D01*
X14702Y-151249D01*
X15328Y-151508D01*
X15500Y-151531D01*
Y-149000D01*
Y-146469D01*
D02*
G37*
G36*
X130531Y-147500D02*
X128500D01*
Y-149531D01*
X128672Y-149509D01*
X129298Y-149249D01*
X129836Y-148836D01*
X130249Y-148299D01*
X130508Y-147672D01*
X130531Y-147500D01*
D02*
G37*
G36*
X127500D02*
X125469D01*
X125491Y-147672D01*
X125751Y-148299D01*
X126164Y-148836D01*
X126701Y-149249D01*
X127328Y-149509D01*
X127500Y-149531D01*
Y-147500D01*
D02*
G37*
G36*
X8500D02*
X4850D01*
Y-151150D01*
X8500D01*
Y-147500D01*
D02*
G37*
G36*
X52500Y-149469D02*
Y-151500D01*
X54531D01*
X54509Y-151328D01*
X54249Y-150701D01*
X53836Y-150164D01*
X53298Y-149751D01*
X52672Y-149492D01*
X52500Y-149469D01*
D02*
G37*
G36*
X51500D02*
X51328Y-149492D01*
X50701Y-149751D01*
X50164Y-150164D01*
X49751Y-150701D01*
X49492Y-151328D01*
X49469Y-151500D01*
X51500D01*
Y-149469D01*
D02*
G37*
G36*
X54531Y-152500D02*
X52500D01*
Y-154531D01*
X52672Y-154508D01*
X53298Y-154249D01*
X53836Y-153836D01*
X54249Y-153298D01*
X54509Y-152672D01*
X54531Y-152500D01*
D02*
G37*
G36*
X51500D02*
X49469D01*
X49492Y-152672D01*
X49751Y-153298D01*
X50164Y-153836D01*
X50701Y-154249D01*
X51328Y-154508D01*
X51500Y-154531D01*
Y-152500D01*
D02*
G37*
G36*
X129063Y-153469D02*
Y-155500D01*
X131094D01*
X131071Y-155328D01*
X130812Y-154701D01*
X130399Y-154164D01*
X129861Y-153751D01*
X129235Y-153491D01*
X129063Y-153469D01*
D02*
G37*
G36*
X128063D02*
X127891Y-153491D01*
X127264Y-153751D01*
X126727Y-154164D01*
X126314Y-154701D01*
X126055Y-155328D01*
X126032Y-155500D01*
X128063D01*
Y-153469D01*
D02*
G37*
G36*
X34531Y-153500D02*
X32500D01*
Y-155531D01*
X32672Y-155508D01*
X33299Y-155249D01*
X33836Y-154836D01*
X34249Y-154298D01*
X34508Y-153672D01*
X34531Y-153500D01*
D02*
G37*
G36*
X31500D02*
X29469D01*
X29491Y-153672D01*
X29751Y-154298D01*
X30164Y-154836D01*
X30702Y-155249D01*
X31328Y-155508D01*
X31500Y-155531D01*
Y-153500D01*
D02*
G37*
G36*
X82500Y-156469D02*
Y-158500D01*
X84531D01*
X84509Y-158328D01*
X84249Y-157702D01*
X83836Y-157164D01*
X83298Y-156751D01*
X82672Y-156491D01*
X82500Y-156469D01*
D02*
G37*
G36*
X81500D02*
X81328Y-156491D01*
X80702Y-156751D01*
X80164Y-157164D01*
X79751Y-157702D01*
X79492Y-158328D01*
X79469Y-158500D01*
X81500D01*
Y-156469D01*
D02*
G37*
G36*
X131094Y-156500D02*
X129063D01*
Y-158531D01*
X129235Y-158509D01*
X129861Y-158249D01*
X130399Y-157836D01*
X130812Y-157299D01*
X131071Y-156672D01*
X131094Y-156500D01*
D02*
G37*
G36*
X128063D02*
X126032D01*
X126055Y-156672D01*
X126314Y-157299D01*
X126727Y-157836D01*
X127264Y-158249D01*
X127891Y-158509D01*
X128063Y-158531D01*
Y-156500D01*
D02*
G37*
G36*
X114500Y-158469D02*
Y-160500D01*
X116531D01*
X116508Y-160328D01*
X116249Y-159702D01*
X115836Y-159164D01*
X115298Y-158751D01*
X114672Y-158492D01*
X114500Y-158469D01*
D02*
G37*
G36*
X113500D02*
X113328Y-158492D01*
X112701Y-158751D01*
X112164Y-159164D01*
X111751Y-159702D01*
X111492Y-160328D01*
X111469Y-160500D01*
X113500D01*
Y-158469D01*
D02*
G37*
G36*
X91500Y-158675D02*
Y-160500D01*
X93325D01*
X93240Y-160072D01*
X92714Y-159286D01*
X91928Y-158760D01*
X91500Y-158675D01*
D02*
G37*
G36*
X90500D02*
X90072Y-158760D01*
X89286Y-159286D01*
X88760Y-160072D01*
X88675Y-160500D01*
X90500D01*
Y-158675D01*
D02*
G37*
G36*
X84531Y-159500D02*
X82500D01*
Y-161531D01*
X82672Y-161509D01*
X83298Y-161249D01*
X83836Y-160836D01*
X84249Y-160299D01*
X84509Y-159672D01*
X84531Y-159500D01*
D02*
G37*
G36*
X81500D02*
X79469D01*
X79492Y-159672D01*
X79751Y-160299D01*
X80164Y-160836D01*
X80702Y-161249D01*
X81328Y-161509D01*
X81500Y-161531D01*
Y-159500D01*
D02*
G37*
G36*
X93325Y-161500D02*
X91500D01*
Y-163325D01*
X91928Y-163240D01*
X92714Y-162714D01*
X93240Y-161928D01*
X93325Y-161500D01*
D02*
G37*
G36*
X90500D02*
X88675D01*
X88760Y-161928D01*
X89286Y-162714D01*
X90072Y-163240D01*
X90500Y-163325D01*
Y-161500D01*
D02*
G37*
G36*
X116531D02*
X114500D01*
Y-163531D01*
X114672Y-163508D01*
X115298Y-163249D01*
X115836Y-162836D01*
X116249Y-162299D01*
X116508Y-161672D01*
X116531Y-161500D01*
D02*
G37*
G36*
X113500D02*
X111469D01*
X111492Y-161672D01*
X111751Y-162299D01*
X112164Y-162836D01*
X112701Y-163249D01*
X113328Y-163508D01*
X113500Y-163531D01*
Y-161500D01*
D02*
G37*
G36*
X9000Y-158016D02*
X7969Y-158152D01*
X7008Y-158550D01*
X6183Y-159183D01*
X5550Y-160008D01*
X5152Y-160969D01*
X5016Y-162000D01*
X5152Y-163031D01*
X5550Y-163992D01*
X6183Y-164817D01*
X7008Y-165450D01*
X7969Y-165848D01*
X9000Y-165984D01*
X10031Y-165848D01*
X10992Y-165450D01*
X11817Y-164817D01*
X12450Y-163992D01*
X12848Y-163031D01*
X12984Y-162000D01*
X12848Y-160969D01*
X12450Y-160008D01*
X11817Y-159183D01*
X10992Y-158550D01*
X10031Y-158152D01*
X9000Y-158016D01*
D02*
G37*
G36*
X76500Y-167469D02*
Y-169500D01*
X78531D01*
X78509Y-169328D01*
X78249Y-168702D01*
X77836Y-168164D01*
X77298Y-167751D01*
X76672Y-167491D01*
X76500Y-167469D01*
D02*
G37*
G36*
X75500D02*
X75328Y-167491D01*
X74701Y-167751D01*
X74164Y-168164D01*
X73751Y-168702D01*
X73492Y-169328D01*
X73469Y-169500D01*
X75500D01*
Y-167469D01*
D02*
G37*
G36*
X13150Y-167850D02*
X9500D01*
Y-171500D01*
X13150D01*
Y-167850D01*
D02*
G37*
G36*
X8500D02*
X4850D01*
Y-171500D01*
X8500D01*
Y-167850D01*
D02*
G37*
G36*
X78531Y-170500D02*
X76500D01*
Y-172531D01*
X76672Y-172509D01*
X77298Y-172249D01*
X77836Y-171836D01*
X78249Y-171299D01*
X78509Y-170672D01*
X78531Y-170500D01*
D02*
G37*
G36*
X75500D02*
X73469D01*
X73492Y-170672D01*
X73751Y-171299D01*
X74164Y-171836D01*
X74701Y-172249D01*
X75328Y-172509D01*
X75500Y-172531D01*
Y-170500D01*
D02*
G37*
G36*
X132500Y-166016D02*
X131469Y-166152D01*
X130508Y-166550D01*
X129683Y-167183D01*
X129050Y-168008D01*
X128652Y-168969D01*
X128516Y-170000D01*
X128652Y-171031D01*
X129050Y-171992D01*
X129683Y-172817D01*
X130508Y-173450D01*
X131469Y-173848D01*
X132500Y-173984D01*
X133531Y-173848D01*
X134492Y-173450D01*
X135317Y-172817D01*
X135950Y-171992D01*
X136348Y-171031D01*
X136484Y-170000D01*
X136348Y-168969D01*
X135950Y-168008D01*
X135317Y-167183D01*
X134492Y-166550D01*
X133531Y-166152D01*
X132500Y-166016D01*
D02*
G37*
G36*
X13150Y-172500D02*
X9500D01*
Y-176150D01*
X13150D01*
Y-172500D01*
D02*
G37*
G36*
X8500D02*
X4850D01*
Y-176150D01*
X8500D01*
Y-172500D01*
D02*
G37*
G36*
X85059Y-177399D02*
Y-178823D01*
X86483D01*
X86428Y-178549D01*
X85990Y-177892D01*
X85333Y-177454D01*
X85059Y-177399D01*
D02*
G37*
G36*
X84059D02*
X83785Y-177454D01*
X83128Y-177892D01*
X82690Y-178549D01*
X82635Y-178823D01*
X84059D01*
Y-177399D01*
D02*
G37*
G36*
X79941D02*
Y-178823D01*
X81365D01*
X81310Y-178549D01*
X80871Y-177892D01*
X80215Y-177454D01*
X79941Y-177399D01*
D02*
G37*
G36*
X78941D02*
X78667Y-177454D01*
X78010Y-177892D01*
X77572Y-178549D01*
X77517Y-178823D01*
X78941D01*
Y-177399D01*
D02*
G37*
G36*
X136650Y-175850D02*
X133000D01*
Y-179500D01*
X136650D01*
Y-175850D01*
D02*
G37*
G36*
X132000D02*
X128350D01*
Y-179500D01*
X132000D01*
Y-175850D01*
D02*
G37*
G36*
X77000Y-147039D02*
X76150Y-147208D01*
X75430Y-147690D01*
X74948Y-148410D01*
X74779Y-149260D01*
X74948Y-150110D01*
X75430Y-150830D01*
X75471Y-150857D01*
Y-153366D01*
X48048Y-180789D01*
X48000Y-180779D01*
X47150Y-180948D01*
X46430Y-181430D01*
X45948Y-182150D01*
X45779Y-183000D01*
X45948Y-183850D01*
X46430Y-184570D01*
X47150Y-185052D01*
X48000Y-185221D01*
X48850Y-185052D01*
X49570Y-184570D01*
X50052Y-183850D01*
X50221Y-183000D01*
X50211Y-182952D01*
X78081Y-155081D01*
X78413Y-154585D01*
X78529Y-154000D01*
Y-150857D01*
X78570Y-150830D01*
X79052Y-150110D01*
X79221Y-149260D01*
X79052Y-148410D01*
X78570Y-147690D01*
X77850Y-147208D01*
X77000Y-147039D01*
D02*
G37*
G36*
X86483Y-179823D02*
X85059D01*
Y-181246D01*
X85333Y-181192D01*
X85990Y-180753D01*
X86428Y-180097D01*
X86483Y-179823D01*
D02*
G37*
G36*
X84059D02*
X82635D01*
X82690Y-180097D01*
X83128Y-180753D01*
X83785Y-181192D01*
X84059Y-181246D01*
Y-179823D01*
D02*
G37*
G36*
X81365D02*
X79941D01*
Y-181246D01*
X80215Y-181192D01*
X80871Y-180753D01*
X81310Y-180097D01*
X81365Y-179823D01*
D02*
G37*
G36*
X78941D02*
X77517D01*
X77572Y-180097D01*
X78010Y-180753D01*
X78667Y-181192D01*
X78941Y-181246D01*
Y-179823D01*
D02*
G37*
G36*
X85059Y-182517D02*
Y-183941D01*
X86483D01*
X86428Y-183667D01*
X85990Y-183010D01*
X85333Y-182572D01*
X85059Y-182517D01*
D02*
G37*
G36*
X84059D02*
X83785Y-182572D01*
X83128Y-183010D01*
X82690Y-183667D01*
X82635Y-183941D01*
X84059D01*
Y-182517D01*
D02*
G37*
G36*
X79941D02*
Y-183941D01*
X81365D01*
X81310Y-183667D01*
X80871Y-183010D01*
X80215Y-182572D01*
X79941Y-182517D01*
D02*
G37*
G36*
X78941D02*
X78667Y-182572D01*
X78010Y-183010D01*
X77572Y-183667D01*
X77517Y-183941D01*
X78941D01*
Y-182517D01*
D02*
G37*
G36*
X136650Y-180500D02*
X133000D01*
Y-184150D01*
X136650D01*
Y-180500D01*
D02*
G37*
G36*
X132000D02*
X128350D01*
Y-184150D01*
X132000D01*
Y-180500D01*
D02*
G37*
G36*
X86483Y-184941D02*
X85059D01*
Y-186365D01*
X85333Y-186310D01*
X85990Y-185872D01*
X86428Y-185215D01*
X86483Y-184941D01*
D02*
G37*
G36*
X84059D02*
X82635D01*
X82690Y-185215D01*
X83128Y-185872D01*
X83785Y-186310D01*
X84059Y-186365D01*
Y-184941D01*
D02*
G37*
G36*
X81365D02*
X79941D01*
Y-186365D01*
X80215Y-186310D01*
X80871Y-185872D01*
X81310Y-185215D01*
X81365Y-184941D01*
D02*
G37*
G36*
X78941D02*
X77517D01*
X77572Y-185215D01*
X78010Y-185872D01*
X78667Y-186310D01*
X78941Y-186365D01*
Y-184941D01*
D02*
G37*
G36*
X85059Y-187635D02*
Y-189059D01*
X86483D01*
X86428Y-188785D01*
X85990Y-188128D01*
X85333Y-187690D01*
X85059Y-187635D01*
D02*
G37*
G36*
X84059D02*
X83785Y-187690D01*
X83128Y-188128D01*
X82690Y-188785D01*
X82635Y-189059D01*
X84059D01*
Y-187635D01*
D02*
G37*
G36*
X79941D02*
Y-189059D01*
X81365D01*
X81310Y-188785D01*
X80871Y-188128D01*
X80215Y-187690D01*
X79941Y-187635D01*
D02*
G37*
G36*
X78941D02*
X78667Y-187690D01*
X78010Y-188128D01*
X77572Y-188785D01*
X77517Y-189059D01*
X78941D01*
Y-187635D01*
D02*
G37*
G36*
X9000Y-182953D02*
X7969Y-183089D01*
X7008Y-183487D01*
X6183Y-184120D01*
X5550Y-184945D01*
X5152Y-185906D01*
X5016Y-186937D01*
X5152Y-187968D01*
X5550Y-188929D01*
X6183Y-189754D01*
X7008Y-190387D01*
X7969Y-190785D01*
X9000Y-190921D01*
X10031Y-190785D01*
X10992Y-190387D01*
X11817Y-189754D01*
X12450Y-188929D01*
X12848Y-187968D01*
X12984Y-186937D01*
X12848Y-185906D01*
X12450Y-184945D01*
X11817Y-184120D01*
X10992Y-183487D01*
X10031Y-183089D01*
X9000Y-182953D01*
D02*
G37*
G36*
X86483Y-190059D02*
X85059D01*
Y-191483D01*
X85333Y-191428D01*
X85990Y-190990D01*
X86428Y-190333D01*
X86483Y-190059D01*
D02*
G37*
G36*
X84059D02*
X82635D01*
X82690Y-190333D01*
X83128Y-190990D01*
X83785Y-191428D01*
X84059Y-191483D01*
Y-190059D01*
D02*
G37*
G36*
X81365D02*
X79941D01*
Y-191483D01*
X80215Y-191428D01*
X80871Y-190990D01*
X81310Y-190333D01*
X81365Y-190059D01*
D02*
G37*
G36*
X78941D02*
X77517D01*
X77572Y-190333D01*
X78010Y-190990D01*
X78667Y-191428D01*
X78941Y-191483D01*
Y-190059D01*
D02*
G37*
G36*
X116500Y-190437D02*
Y-192469D01*
X118531D01*
X118509Y-192296D01*
X118249Y-191670D01*
X117836Y-191132D01*
X117298Y-190719D01*
X116672Y-190460D01*
X116500Y-190437D01*
D02*
G37*
G36*
X115500D02*
X115328Y-190460D01*
X114701Y-190719D01*
X114164Y-191132D01*
X113751Y-191670D01*
X113491Y-192296D01*
X113469Y-192469D01*
X115500D01*
Y-190437D01*
D02*
G37*
G36*
X85059Y-192754D02*
Y-194177D01*
X86483D01*
X86428Y-193903D01*
X85990Y-193247D01*
X85333Y-192808D01*
X85059Y-192754D01*
D02*
G37*
G36*
X84059D02*
X83785Y-192808D01*
X83128Y-193247D01*
X82690Y-193903D01*
X82635Y-194177D01*
X84059D01*
Y-192754D01*
D02*
G37*
G36*
X79941D02*
Y-194177D01*
X81365D01*
X81310Y-193903D01*
X80871Y-193247D01*
X80215Y-192808D01*
X79941Y-192754D01*
D02*
G37*
G36*
X78941D02*
X78667Y-192808D01*
X78010Y-193247D01*
X77572Y-193903D01*
X77517Y-194177D01*
X78941D01*
Y-192754D01*
D02*
G37*
G36*
X118531Y-193468D02*
X116500D01*
Y-195500D01*
X116672Y-195477D01*
X117298Y-195218D01*
X117836Y-194805D01*
X118249Y-194267D01*
X118509Y-193641D01*
X118531Y-193468D01*
D02*
G37*
G36*
X115500D02*
X113469D01*
X113491Y-193641D01*
X113751Y-194267D01*
X114164Y-194805D01*
X114701Y-195218D01*
X115328Y-195477D01*
X115500Y-195500D01*
Y-193468D01*
D02*
G37*
G36*
X57937Y-193675D02*
Y-195500D01*
X59762D01*
X59677Y-195072D01*
X59151Y-194286D01*
X58365Y-193760D01*
X57937Y-193675D01*
D02*
G37*
G36*
X56937D02*
X56509Y-193760D01*
X55723Y-194286D01*
X55197Y-195072D01*
X55112Y-195500D01*
X56937D01*
Y-193675D01*
D02*
G37*
G36*
X13150Y-192787D02*
X9500D01*
Y-196437D01*
X13150D01*
Y-192787D01*
D02*
G37*
G36*
X8500D02*
X4850D01*
Y-196437D01*
X8500D01*
Y-192787D01*
D02*
G37*
G36*
X86483Y-195177D02*
X85059D01*
Y-196601D01*
X85333Y-196546D01*
X85990Y-196108D01*
X86428Y-195451D01*
X86483Y-195177D01*
D02*
G37*
G36*
X84059D02*
X82635D01*
X82690Y-195451D01*
X83128Y-196108D01*
X83785Y-196546D01*
X84059Y-196601D01*
Y-195177D01*
D02*
G37*
G36*
X81365D02*
X79941D01*
Y-196601D01*
X80215Y-196546D01*
X80871Y-196108D01*
X81310Y-195451D01*
X81365Y-195177D01*
D02*
G37*
G36*
X78941D02*
X77517D01*
X77572Y-195451D01*
X78010Y-196108D01*
X78667Y-196546D01*
X78941Y-196601D01*
Y-195177D01*
D02*
G37*
G36*
X66500Y-195469D02*
Y-197500D01*
X68531D01*
X68508Y-197328D01*
X68249Y-196702D01*
X67836Y-196164D01*
X67299Y-195751D01*
X66672Y-195492D01*
X66500Y-195469D01*
D02*
G37*
G36*
X65500D02*
X65328Y-195492D01*
X64701Y-195751D01*
X64164Y-196164D01*
X63751Y-196702D01*
X63491Y-197328D01*
X63469Y-197500D01*
X65500D01*
Y-195469D01*
D02*
G37*
G36*
X45500D02*
Y-197500D01*
X47531D01*
X47508Y-197328D01*
X47249Y-196702D01*
X46836Y-196164D01*
X46299Y-195751D01*
X45672Y-195492D01*
X45500Y-195469D01*
D02*
G37*
G36*
X44500D02*
X44328Y-195492D01*
X43701Y-195751D01*
X43164Y-196164D01*
X42751Y-196702D01*
X42491Y-197328D01*
X42469Y-197500D01*
X44500D01*
Y-195469D01*
D02*
G37*
G36*
X59762Y-196500D02*
X57937D01*
Y-198325D01*
X58365Y-198240D01*
X59151Y-197714D01*
X59677Y-196928D01*
X59762Y-196500D01*
D02*
G37*
G36*
X56937D02*
X55112D01*
X55197Y-196928D01*
X55723Y-197714D01*
X56509Y-198240D01*
X56937Y-198325D01*
Y-196500D01*
D02*
G37*
G36*
X131500Y-196469D02*
Y-198500D01*
X133531D01*
X133509Y-198328D01*
X133249Y-197702D01*
X132836Y-197164D01*
X132299Y-196751D01*
X131672Y-196492D01*
X131500Y-196469D01*
D02*
G37*
G36*
X130500D02*
X130328Y-196492D01*
X129701Y-196751D01*
X129164Y-197164D01*
X128751Y-197702D01*
X128491Y-198328D01*
X128469Y-198500D01*
X130500D01*
Y-196469D01*
D02*
G37*
G36*
X31500Y-197675D02*
Y-199500D01*
X33325D01*
X33240Y-199072D01*
X32714Y-198286D01*
X31928Y-197760D01*
X31500Y-197675D01*
D02*
G37*
G36*
X30500D02*
X30072Y-197760D01*
X29286Y-198286D01*
X28760Y-199072D01*
X28675Y-199500D01*
X30500D01*
Y-197675D01*
D02*
G37*
G36*
X68531Y-198500D02*
X66500D01*
Y-200531D01*
X66672Y-200508D01*
X67299Y-200249D01*
X67836Y-199836D01*
X68249Y-199299D01*
X68508Y-198672D01*
X68531Y-198500D01*
D02*
G37*
G36*
X65500D02*
X63469D01*
X63491Y-198672D01*
X63751Y-199299D01*
X64164Y-199836D01*
X64701Y-200249D01*
X65328Y-200508D01*
X65500Y-200531D01*
Y-198500D01*
D02*
G37*
G36*
X47531D02*
X45500D01*
Y-200531D01*
X45672Y-200508D01*
X46299Y-200249D01*
X46836Y-199836D01*
X47249Y-199299D01*
X47508Y-198672D01*
X47531Y-198500D01*
D02*
G37*
G36*
X44500D02*
X42469D01*
X42491Y-198672D01*
X42751Y-199299D01*
X43164Y-199836D01*
X43701Y-200249D01*
X44328Y-200508D01*
X44500Y-200531D01*
Y-198500D01*
D02*
G37*
G36*
X13150Y-197437D02*
X9500D01*
Y-201087D01*
X13150D01*
Y-197437D01*
D02*
G37*
G36*
X8500D02*
X4850D01*
Y-201087D01*
X8500D01*
Y-197437D01*
D02*
G37*
G36*
X84500Y-167779D02*
X83650Y-167948D01*
X82930Y-168430D01*
X82448Y-169150D01*
X82279Y-170000D01*
X82448Y-170850D01*
X82930Y-171570D01*
X83650Y-172052D01*
X84500Y-172221D01*
X84548Y-172211D01*
X93471Y-181133D01*
Y-197000D01*
X93587Y-197585D01*
X93919Y-198081D01*
X94789Y-198952D01*
X94779Y-199000D01*
X94948Y-199850D01*
X95430Y-200570D01*
X96150Y-201052D01*
X97000Y-201221D01*
X97850Y-201052D01*
X98570Y-200570D01*
X99052Y-199850D01*
X99221Y-199000D01*
X99052Y-198150D01*
X98570Y-197430D01*
X97850Y-196948D01*
X97000Y-196779D01*
X96952Y-196789D01*
X96529Y-196367D01*
Y-180500D01*
X96413Y-179915D01*
X96081Y-179419D01*
X86711Y-170048D01*
X86721Y-170000D01*
X86552Y-169150D01*
X86070Y-168430D01*
X85350Y-167948D01*
X84500Y-167779D01*
D02*
G37*
G36*
X133531Y-199500D02*
X131500D01*
Y-201531D01*
X131672Y-201508D01*
X132299Y-201249D01*
X132836Y-200836D01*
X133249Y-200299D01*
X133509Y-199672D01*
X133531Y-199500D01*
D02*
G37*
G36*
X130500D02*
X128469D01*
X128491Y-199672D01*
X128751Y-200299D01*
X129164Y-200836D01*
X129701Y-201249D01*
X130328Y-201508D01*
X130500Y-201531D01*
Y-199500D01*
D02*
G37*
G36*
X33325Y-200500D02*
X31500D01*
Y-202325D01*
X31928Y-202240D01*
X32714Y-201714D01*
X33240Y-200928D01*
X33325Y-200500D01*
D02*
G37*
G36*
X30500D02*
X28675D01*
X28760Y-200928D01*
X29286Y-201714D01*
X30072Y-202240D01*
X30500Y-202325D01*
Y-200500D01*
D02*
G37*
G36*
X104150Y-224850D02*
X100500D01*
Y-228500D01*
X104150D01*
Y-224850D01*
D02*
G37*
G36*
X99500D02*
X95850D01*
Y-228500D01*
X99500D01*
Y-224850D01*
D02*
G37*
G36*
X126500D02*
X122850D01*
Y-228500D01*
X126500D01*
Y-224850D01*
D02*
G37*
G36*
X117000Y-225016D02*
X115969Y-225152D01*
X115008Y-225550D01*
X114183Y-226183D01*
X113550Y-227008D01*
X113152Y-227969D01*
X113016Y-229000D01*
X113152Y-230031D01*
X113344Y-230493D01*
X110366Y-233471D01*
X106000D01*
X105415Y-233587D01*
X104919Y-233919D01*
X101494Y-237344D01*
X101031Y-237152D01*
X100000Y-237016D01*
X98969Y-237152D01*
X98008Y-237550D01*
X97183Y-238183D01*
X96550Y-239008D01*
X96152Y-239969D01*
X96016Y-241000D01*
X96152Y-242031D01*
X96550Y-242992D01*
X97183Y-243817D01*
X98008Y-244450D01*
X98969Y-244848D01*
X100000Y-244984D01*
X101031Y-244848D01*
X101992Y-244450D01*
X102817Y-243817D01*
X103450Y-242992D01*
X103848Y-242031D01*
X103984Y-241000D01*
X103848Y-239969D01*
X103656Y-239507D01*
X106633Y-236529D01*
X111000D01*
X111585Y-236413D01*
X112081Y-236081D01*
X115506Y-232656D01*
X115969Y-232848D01*
X117000Y-232984D01*
X118031Y-232848D01*
X118992Y-232450D01*
X119817Y-231817D01*
X120450Y-230992D01*
X120848Y-230031D01*
X120984Y-229000D01*
X120848Y-227969D01*
X120450Y-227008D01*
X119817Y-226183D01*
X118992Y-225550D01*
X118031Y-225152D01*
X117000Y-225016D01*
D02*
G37*
G36*
X90000D02*
X88969Y-225152D01*
X88008Y-225550D01*
X87183Y-226183D01*
X86550Y-227008D01*
X86152Y-227969D01*
X86016Y-229000D01*
X86152Y-230031D01*
X86550Y-230992D01*
X87183Y-231817D01*
X88008Y-232450D01*
X88969Y-232848D01*
X90000Y-232984D01*
X91031Y-232848D01*
X91992Y-232450D01*
X92817Y-231817D01*
X93450Y-230992D01*
X93848Y-230031D01*
X93984Y-229000D01*
X93848Y-227969D01*
X93450Y-227008D01*
X92817Y-226183D01*
X91992Y-225550D01*
X91031Y-225152D01*
X90000Y-225016D01*
D02*
G37*
G36*
X104150Y-229500D02*
X100500D01*
Y-233150D01*
X104150D01*
Y-229500D01*
D02*
G37*
G36*
X99500D02*
X95850D01*
Y-233150D01*
X99500D01*
Y-229500D01*
D02*
G37*
G36*
X126500D02*
X122850D01*
Y-233150D01*
X126500D01*
Y-229500D01*
D02*
G37*
G36*
X55000Y-227016D02*
X53969Y-227152D01*
X53008Y-227550D01*
X52183Y-228183D01*
X51550Y-229008D01*
X51152Y-229969D01*
X51016Y-231000D01*
X51152Y-232031D01*
X51550Y-232992D01*
X52183Y-233817D01*
X53008Y-234450D01*
X53969Y-234848D01*
X55000Y-234984D01*
X56031Y-234848D01*
X56992Y-234450D01*
X57817Y-233817D01*
X58450Y-232992D01*
X58848Y-232031D01*
X58984Y-231000D01*
X58848Y-229969D01*
X58450Y-229008D01*
X57817Y-228183D01*
X56992Y-227550D01*
X56031Y-227152D01*
X55000Y-227016D01*
D02*
G37*
G36*
X73500Y-241469D02*
Y-243500D01*
X75531D01*
X75508Y-243328D01*
X75249Y-242702D01*
X74836Y-242164D01*
X74299Y-241751D01*
X73672Y-241492D01*
X73500Y-241469D01*
D02*
G37*
G36*
X72500D02*
X72328Y-241492D01*
X71702Y-241751D01*
X71164Y-242164D01*
X70751Y-242702D01*
X70491Y-243328D01*
X70469Y-243500D01*
X72500D01*
Y-241469D01*
D02*
G37*
G36*
X54563Y-242469D02*
Y-244500D01*
X56594D01*
X56572Y-244328D01*
X56312Y-243702D01*
X55899Y-243164D01*
X55361Y-242751D01*
X54735Y-242492D01*
X54563Y-242469D01*
D02*
G37*
G36*
X53563D02*
X53391Y-242492D01*
X52764Y-242751D01*
X52227Y-243164D01*
X51814Y-243702D01*
X51555Y-244328D01*
X51532Y-244500D01*
X53563D01*
Y-242469D01*
D02*
G37*
G36*
X75531Y-244500D02*
X73500D01*
Y-246531D01*
X73672Y-246509D01*
X74299Y-246249D01*
X74836Y-245836D01*
X75249Y-245299D01*
X75508Y-244672D01*
X75531Y-244500D01*
D02*
G37*
G36*
X72500D02*
X70469D01*
X70491Y-244672D01*
X70751Y-245299D01*
X71164Y-245836D01*
X71702Y-246249D01*
X72328Y-246509D01*
X72500Y-246531D01*
Y-244500D01*
D02*
G37*
G36*
X56594Y-245500D02*
X54563D01*
Y-247531D01*
X54735Y-247509D01*
X55361Y-247249D01*
X55899Y-246836D01*
X56312Y-246299D01*
X56572Y-245672D01*
X56594Y-245500D01*
D02*
G37*
G36*
X53563D02*
X51532D01*
X51555Y-245672D01*
X51814Y-246299D01*
X52227Y-246836D01*
X52764Y-247249D01*
X53391Y-247509D01*
X53563Y-247531D01*
Y-245500D01*
D02*
G37*
G36*
X55000Y-216016D02*
X53969Y-216152D01*
X53008Y-216550D01*
X52183Y-217183D01*
X51550Y-218008D01*
X51152Y-218969D01*
X51016Y-220000D01*
X51152Y-221031D01*
X51550Y-221992D01*
X52183Y-222817D01*
X53008Y-223450D01*
X53969Y-223848D01*
X55000Y-223984D01*
X56031Y-223848D01*
X56494Y-223656D01*
X61050Y-228213D01*
Y-234950D01*
X68950D01*
Y-232529D01*
X79366D01*
X86050Y-239213D01*
Y-244950D01*
X88831D01*
X88919Y-245081D01*
X92919Y-249081D01*
X93415Y-249413D01*
X94000Y-249529D01*
X110000D01*
X110585Y-249413D01*
X111081Y-249081D01*
X115213Y-244950D01*
X120950D01*
Y-237050D01*
X113050D01*
Y-242787D01*
X109367Y-246471D01*
X94634D01*
X93574Y-245411D01*
X93766Y-244950D01*
X93950D01*
Y-237050D01*
X88213D01*
X81081Y-229919D01*
X80585Y-229587D01*
X80000Y-229471D01*
X68950D01*
Y-227050D01*
X64213D01*
X61574Y-224412D01*
X61766Y-223950D01*
X68950D01*
Y-216050D01*
X61050D01*
Y-223234D01*
X60589Y-223426D01*
X58656Y-221494D01*
X58848Y-221031D01*
X58984Y-220000D01*
X58848Y-218969D01*
X58450Y-218008D01*
X57817Y-217183D01*
X56992Y-216550D01*
X56031Y-216152D01*
X55000Y-216016D01*
D02*
G37*
G36*
X9000Y-245016D02*
X7969Y-245152D01*
X7008Y-245550D01*
X6183Y-246183D01*
X5550Y-247008D01*
X5152Y-247969D01*
X5016Y-249000D01*
X5152Y-250031D01*
X5550Y-250992D01*
X6183Y-251817D01*
X7008Y-252450D01*
X7969Y-252848D01*
X9000Y-252984D01*
X10031Y-252848D01*
X10992Y-252450D01*
X11817Y-251817D01*
X12450Y-250992D01*
X12848Y-250031D01*
X12984Y-249000D01*
X12848Y-247969D01*
X12450Y-247008D01*
X11817Y-246183D01*
X10992Y-245550D01*
X10031Y-245152D01*
X9000Y-245016D01*
D02*
G37*
G36*
X100500Y-255469D02*
Y-257500D01*
X102531D01*
X102508Y-257328D01*
X102249Y-256701D01*
X101836Y-256164D01*
X101298Y-255751D01*
X100672Y-255491D01*
X100500Y-255469D01*
D02*
G37*
G36*
X99500D02*
X99328Y-255491D01*
X98702Y-255751D01*
X98164Y-256164D01*
X97751Y-256701D01*
X97492Y-257328D01*
X97469Y-257500D01*
X99500D01*
Y-255469D01*
D02*
G37*
G36*
X56500D02*
X56328Y-255491D01*
X55702Y-255751D01*
X55164Y-256164D01*
X54751Y-256701D01*
X54492Y-257328D01*
X54469Y-257500D01*
X56500D01*
Y-255469D01*
D02*
G37*
G36*
X62000Y-246953D02*
X61150Y-247122D01*
X60430Y-247603D01*
X59948Y-248323D01*
X59779Y-249173D01*
X59948Y-250023D01*
X60430Y-250743D01*
X60471Y-250771D01*
Y-257402D01*
X60430Y-257430D01*
X60093Y-257934D01*
X59572Y-257813D01*
X59509Y-257328D01*
X59249Y-256701D01*
X58836Y-256164D01*
X58298Y-255751D01*
X57672Y-255491D01*
X57500Y-255469D01*
Y-258000D01*
Y-260531D01*
X57672Y-260508D01*
X58298Y-260249D01*
X58836Y-259836D01*
X59249Y-259298D01*
X59303Y-259168D01*
X59823Y-259220D01*
X59948Y-259850D01*
X60430Y-260570D01*
X61150Y-261052D01*
X62000Y-261221D01*
X62850Y-261052D01*
X63570Y-260570D01*
X64052Y-259850D01*
X64221Y-259000D01*
X64052Y-258150D01*
X63570Y-257430D01*
X63529Y-257402D01*
Y-250771D01*
X63570Y-250743D01*
X64052Y-250023D01*
X64221Y-249173D01*
X64052Y-248323D01*
X63570Y-247603D01*
X62850Y-247122D01*
X62000Y-246953D01*
D02*
G37*
G36*
X13150Y-254850D02*
X9500D01*
Y-258500D01*
X13150D01*
Y-254850D01*
D02*
G37*
G36*
X8500D02*
X4850D01*
Y-258500D01*
X8500D01*
Y-254850D01*
D02*
G37*
G36*
X102531Y-258500D02*
X100500D01*
Y-260531D01*
X100672Y-260508D01*
X101298Y-260249D01*
X101836Y-259836D01*
X102249Y-259298D01*
X102508Y-258672D01*
X102531Y-258500D01*
D02*
G37*
G36*
X99500D02*
X97469D01*
X97492Y-258672D01*
X97751Y-259298D01*
X98164Y-259836D01*
X98702Y-260249D01*
X99328Y-260508D01*
X99500Y-260531D01*
Y-258500D01*
D02*
G37*
G36*
X56500D02*
X54469D01*
X54492Y-258672D01*
X54751Y-259298D01*
X55164Y-259836D01*
X55702Y-260249D01*
X56328Y-260508D01*
X56500Y-260531D01*
Y-258500D01*
D02*
G37*
G36*
X33531Y-260500D02*
X31500D01*
Y-262531D01*
X31672Y-262509D01*
X32298Y-262249D01*
X32836Y-261836D01*
X33249Y-261298D01*
X33509Y-260672D01*
X33531Y-260500D01*
D02*
G37*
G36*
X13150Y-259500D02*
X9500D01*
Y-263150D01*
X13150D01*
Y-259500D01*
D02*
G37*
G36*
X8500D02*
X4850D01*
Y-263150D01*
X8500D01*
Y-259500D01*
D02*
G37*
G36*
X17500Y-262500D02*
X15469D01*
X15492Y-262672D01*
X15751Y-263299D01*
X16164Y-263836D01*
X16702Y-264249D01*
X17328Y-264509D01*
X17500Y-264531D01*
Y-262500D01*
D02*
G37*
G36*
X119500Y-263469D02*
Y-265500D01*
X121531D01*
X121509Y-265328D01*
X121249Y-264702D01*
X120836Y-264164D01*
X120299Y-263751D01*
X119672Y-263492D01*
X119500Y-263469D01*
D02*
G37*
G36*
X118500D02*
X118328Y-263492D01*
X117701Y-263751D01*
X117164Y-264164D01*
X116751Y-264702D01*
X116491Y-265328D01*
X116469Y-265500D01*
X118500D01*
Y-263469D01*
D02*
G37*
G36*
X75000Y-262779D02*
X74150Y-262948D01*
X73430Y-263430D01*
X72948Y-264150D01*
X72779Y-265000D01*
X72789Y-265048D01*
X72366Y-265471D01*
X69445D01*
X68860Y-265587D01*
X68363Y-265919D01*
X41493Y-292789D01*
X41445Y-292779D01*
X40595Y-292948D01*
X39875Y-293430D01*
X39393Y-294150D01*
X39224Y-295000D01*
X39393Y-295850D01*
X39875Y-296570D01*
X40595Y-297052D01*
X41445Y-297221D01*
X42295Y-297052D01*
X43015Y-296570D01*
X43497Y-295850D01*
X43666Y-295000D01*
X43656Y-294952D01*
X70078Y-268529D01*
X73000D01*
X73585Y-268413D01*
X74081Y-268081D01*
X74952Y-267211D01*
X75000Y-267221D01*
X75850Y-267052D01*
X76570Y-266570D01*
X77052Y-265850D01*
X77221Y-265000D01*
X77052Y-264150D01*
X76570Y-263430D01*
X75850Y-262948D01*
X75000Y-262779D01*
D02*
G37*
G36*
X51500Y-265469D02*
Y-267500D01*
X53531D01*
X53509Y-267328D01*
X53249Y-266702D01*
X52836Y-266164D01*
X52298Y-265751D01*
X51672Y-265492D01*
X51500Y-265469D01*
D02*
G37*
G36*
X50500D02*
X50328Y-265492D01*
X49701Y-265751D01*
X49164Y-266164D01*
X48751Y-266702D01*
X48491Y-267328D01*
X48469Y-267500D01*
X50500D01*
Y-265469D01*
D02*
G37*
G36*
X121531Y-266500D02*
X119500D01*
Y-268531D01*
X119672Y-268509D01*
X120299Y-268249D01*
X120836Y-267836D01*
X121249Y-267299D01*
X121509Y-266672D01*
X121531Y-266500D01*
D02*
G37*
G36*
X118500D02*
X116469D01*
X116491Y-266672D01*
X116751Y-267299D01*
X117164Y-267836D01*
X117701Y-268249D01*
X118328Y-268509D01*
X118500Y-268531D01*
Y-266500D01*
D02*
G37*
G36*
X53531Y-268500D02*
X51500D01*
Y-270531D01*
X51672Y-270509D01*
X52298Y-270249D01*
X52836Y-269836D01*
X53249Y-269299D01*
X53509Y-268672D01*
X53531Y-268500D01*
D02*
G37*
G36*
X50500D02*
X48469D01*
X48491Y-268672D01*
X48751Y-269299D01*
X49164Y-269836D01*
X49701Y-270249D01*
X50328Y-270509D01*
X50500Y-270531D01*
Y-268500D01*
D02*
G37*
G36*
X93819Y-270469D02*
Y-272500D01*
X95850D01*
X95827Y-272328D01*
X95568Y-271702D01*
X95155Y-271164D01*
X94617Y-270751D01*
X93991Y-270492D01*
X93819Y-270469D01*
D02*
G37*
G36*
X92819D02*
X92647Y-270492D01*
X92020Y-270751D01*
X91483Y-271164D01*
X91070Y-271702D01*
X90810Y-272328D01*
X90788Y-272500D01*
X92819D01*
Y-270469D01*
D02*
G37*
G36*
X95850Y-273500D02*
X93819D01*
Y-275531D01*
X93991Y-275508D01*
X94617Y-275249D01*
X95155Y-274836D01*
X95568Y-274299D01*
X95827Y-273672D01*
X95850Y-273500D01*
D02*
G37*
G36*
X92819D02*
X90788D01*
X90810Y-273672D01*
X91070Y-274299D01*
X91483Y-274836D01*
X92020Y-275249D01*
X92647Y-275508D01*
X92819Y-275531D01*
Y-273500D01*
D02*
G37*
G36*
X9000Y-270016D02*
X7969Y-270152D01*
X7008Y-270550D01*
X6183Y-271183D01*
X5550Y-272008D01*
X5152Y-272969D01*
X5016Y-274000D01*
X5152Y-275031D01*
X5550Y-275992D01*
X6183Y-276817D01*
X7008Y-277450D01*
X7969Y-277848D01*
X9000Y-277984D01*
X10031Y-277848D01*
X10992Y-277450D01*
X11817Y-276817D01*
X12450Y-275992D01*
X12848Y-275031D01*
X12984Y-274000D01*
X12848Y-272969D01*
X12450Y-272008D01*
X11817Y-271183D01*
X10992Y-270550D01*
X10031Y-270152D01*
X9000Y-270016D01*
D02*
G37*
G36*
X133000Y-271890D02*
X131969Y-272026D01*
X131008Y-272424D01*
X130183Y-273057D01*
X129550Y-273882D01*
X129152Y-274843D01*
X129016Y-275874D01*
X129152Y-276905D01*
X129550Y-277866D01*
X130183Y-278691D01*
X131008Y-279324D01*
X131969Y-279722D01*
X133000Y-279858D01*
X134031Y-279722D01*
X134992Y-279324D01*
X135817Y-278691D01*
X136450Y-277866D01*
X136848Y-276905D01*
X136984Y-275874D01*
X136848Y-274843D01*
X136450Y-273882D01*
X135817Y-273057D01*
X134992Y-272424D01*
X134031Y-272026D01*
X133000Y-271890D01*
D02*
G37*
G36*
X13150Y-279850D02*
X9500D01*
Y-283500D01*
X13150D01*
Y-279850D01*
D02*
G37*
G36*
X8500D02*
X4850D01*
Y-283500D01*
X8500D01*
Y-279850D01*
D02*
G37*
G36*
X137150Y-281724D02*
X133500D01*
Y-285374D01*
X137150D01*
Y-281724D01*
D02*
G37*
G36*
X132500D02*
X128850D01*
Y-285374D01*
X132500D01*
Y-281724D01*
D02*
G37*
G36*
X123500Y-283469D02*
Y-285500D01*
X125531D01*
X125508Y-285328D01*
X125249Y-284701D01*
X124836Y-284164D01*
X124299Y-283751D01*
X123672Y-283491D01*
X123500Y-283469D01*
D02*
G37*
G36*
X122500D02*
X122328Y-283491D01*
X121702Y-283751D01*
X121164Y-284164D01*
X120751Y-284701D01*
X120492Y-285328D01*
X120469Y-285500D01*
X122500D01*
Y-283469D01*
D02*
G37*
G36*
X13150Y-284500D02*
X9500D01*
Y-288150D01*
X13150D01*
Y-284500D01*
D02*
G37*
G36*
X8500D02*
X4850D01*
Y-288150D01*
X8500D01*
Y-284500D01*
D02*
G37*
G36*
X125531Y-286500D02*
X123500D01*
Y-288531D01*
X123672Y-288509D01*
X124299Y-288249D01*
X124836Y-287836D01*
X125249Y-287298D01*
X125508Y-286672D01*
X125531Y-286500D01*
D02*
G37*
G36*
X122500D02*
X120469D01*
X120492Y-286672D01*
X120751Y-287298D01*
X121164Y-287836D01*
X121702Y-288249D01*
X122328Y-288509D01*
X122500Y-288531D01*
Y-286500D01*
D02*
G37*
G36*
X137150Y-286374D02*
X133500D01*
Y-290024D01*
X137150D01*
Y-286374D01*
D02*
G37*
G36*
X132500D02*
X128850D01*
Y-290024D01*
X132500D01*
Y-286374D01*
D02*
G37*
G36*
X78378Y-288958D02*
Y-290382D01*
X79802D01*
X79747Y-290108D01*
X79308Y-289451D01*
X78652Y-289013D01*
X78378Y-288958D01*
D02*
G37*
G36*
X77378D02*
X77104Y-289013D01*
X76447Y-289451D01*
X76009Y-290108D01*
X75954Y-290382D01*
X77378D01*
Y-288958D01*
D02*
G37*
G36*
X73260D02*
Y-290382D01*
X74683D01*
X74629Y-290108D01*
X74190Y-289451D01*
X73534Y-289013D01*
X73260Y-288958D01*
D02*
G37*
G36*
X72260D02*
X71986Y-289013D01*
X71329Y-289451D01*
X70891Y-290108D01*
X70836Y-290382D01*
X72260D01*
Y-288958D01*
D02*
G37*
G36*
X79802Y-291382D02*
X78378D01*
Y-292806D01*
X78652Y-292751D01*
X79308Y-292312D01*
X79747Y-291656D01*
X79802Y-291382D01*
D02*
G37*
G36*
X77378D02*
X75954D01*
X76009Y-291656D01*
X76447Y-292312D01*
X77104Y-292751D01*
X77378Y-292806D01*
Y-291382D01*
D02*
G37*
G36*
X74683D02*
X73260D01*
Y-292806D01*
X73534Y-292751D01*
X74190Y-292312D01*
X74629Y-291656D01*
X74683Y-291382D01*
D02*
G37*
G36*
X72260D02*
X70836D01*
X70891Y-291656D01*
X71329Y-292312D01*
X71986Y-292751D01*
X72260Y-292806D01*
Y-291382D01*
D02*
G37*
G36*
X78378Y-294076D02*
Y-295500D01*
X79802D01*
X79747Y-295226D01*
X79308Y-294569D01*
X78652Y-294131D01*
X78378Y-294076D01*
D02*
G37*
G36*
X77378D02*
X77104Y-294131D01*
X76447Y-294569D01*
X76009Y-295226D01*
X75954Y-295500D01*
X77378D01*
Y-294076D01*
D02*
G37*
G36*
X73260D02*
Y-295500D01*
X74683D01*
X74629Y-295226D01*
X74190Y-294569D01*
X73534Y-294131D01*
X73260Y-294076D01*
D02*
G37*
G36*
X72260D02*
X71986Y-294131D01*
X71329Y-294569D01*
X70891Y-295226D01*
X70836Y-295500D01*
X72260D01*
Y-294076D01*
D02*
G37*
G36*
X79802Y-296500D02*
X78378D01*
Y-297924D01*
X78652Y-297869D01*
X79308Y-297431D01*
X79747Y-296774D01*
X79802Y-296500D01*
D02*
G37*
G36*
X77378D02*
X75954D01*
X76009Y-296774D01*
X76447Y-297431D01*
X77104Y-297869D01*
X77378Y-297924D01*
Y-296500D01*
D02*
G37*
G36*
X74683D02*
X73260D01*
Y-297924D01*
X73534Y-297869D01*
X74190Y-297431D01*
X74629Y-296774D01*
X74683Y-296500D01*
D02*
G37*
G36*
X72260D02*
X70836D01*
X70891Y-296774D01*
X71329Y-297431D01*
X71986Y-297869D01*
X72260Y-297924D01*
Y-296500D01*
D02*
G37*
G36*
X78378Y-299195D02*
Y-300618D01*
X79802D01*
X79747Y-300344D01*
X79308Y-299688D01*
X78652Y-299249D01*
X78378Y-299195D01*
D02*
G37*
G36*
X77378D02*
X77104Y-299249D01*
X76447Y-299688D01*
X76009Y-300344D01*
X75954Y-300618D01*
X77378D01*
Y-299195D01*
D02*
G37*
G36*
X73260D02*
Y-300618D01*
X74683D01*
X74629Y-300344D01*
X74190Y-299688D01*
X73534Y-299249D01*
X73260Y-299195D01*
D02*
G37*
G36*
X72260D02*
X71986Y-299249D01*
X71329Y-299688D01*
X70891Y-300344D01*
X70836Y-300618D01*
X72260D01*
Y-299195D01*
D02*
G37*
G36*
X9000Y-295016D02*
X7969Y-295152D01*
X7008Y-295550D01*
X6183Y-296183D01*
X5550Y-297008D01*
X5152Y-297969D01*
X5016Y-299000D01*
X5152Y-300031D01*
X5550Y-300992D01*
X6183Y-301817D01*
X7008Y-302450D01*
X7969Y-302848D01*
X9000Y-302984D01*
X10031Y-302848D01*
X10992Y-302450D01*
X11817Y-301817D01*
X12450Y-300992D01*
X12848Y-300031D01*
X12984Y-299000D01*
X12848Y-297969D01*
X12450Y-297008D01*
X11817Y-296183D01*
X10992Y-295550D01*
X10031Y-295152D01*
X9000Y-295016D01*
D02*
G37*
G36*
X79802Y-301618D02*
X78378D01*
Y-303042D01*
X78652Y-302987D01*
X79308Y-302549D01*
X79747Y-301892D01*
X79802Y-301618D01*
D02*
G37*
G36*
X77378D02*
X75954D01*
X76009Y-301892D01*
X76447Y-302549D01*
X77104Y-302987D01*
X77378Y-303042D01*
Y-301618D01*
D02*
G37*
G36*
X74683D02*
X73260D01*
Y-303042D01*
X73534Y-302987D01*
X74190Y-302549D01*
X74629Y-301892D01*
X74683Y-301618D01*
D02*
G37*
G36*
X72260D02*
X70836D01*
X70891Y-301892D01*
X71329Y-302549D01*
X71986Y-302987D01*
X72260Y-303042D01*
Y-301618D01*
D02*
G37*
G36*
X120500Y-302028D02*
Y-304059D01*
X122531D01*
X122509Y-303887D01*
X122249Y-303261D01*
X121836Y-302723D01*
X121299Y-302310D01*
X120672Y-302050D01*
X120500Y-302028D01*
D02*
G37*
G36*
X119500D02*
X119328Y-302050D01*
X118702Y-302310D01*
X118164Y-302723D01*
X117751Y-303261D01*
X117491Y-303887D01*
X117469Y-304059D01*
X119500D01*
Y-302028D01*
D02*
G37*
G36*
X78378Y-304313D02*
Y-305736D01*
X79802D01*
X79747Y-305462D01*
X79308Y-304806D01*
X78652Y-304367D01*
X78378Y-304313D01*
D02*
G37*
G36*
X77378D02*
X77104Y-304367D01*
X76447Y-304806D01*
X76009Y-305462D01*
X75954Y-305736D01*
X77378D01*
Y-304313D01*
D02*
G37*
G36*
X73260D02*
Y-305736D01*
X74683D01*
X74629Y-305462D01*
X74190Y-304806D01*
X73534Y-304367D01*
X73260Y-304313D01*
D02*
G37*
G36*
X72260D02*
X71986Y-304367D01*
X71329Y-304806D01*
X70891Y-305462D01*
X70836Y-305736D01*
X72260D01*
Y-304313D01*
D02*
G37*
G36*
X122531Y-305059D02*
X120500D01*
Y-307090D01*
X120672Y-307068D01*
X121299Y-306808D01*
X121836Y-306395D01*
X122249Y-305858D01*
X122509Y-305231D01*
X122531Y-305059D01*
D02*
G37*
G36*
X119500D02*
X117469D01*
X117491Y-305231D01*
X117751Y-305858D01*
X118164Y-306395D01*
X118702Y-306808D01*
X119328Y-307068D01*
X119500Y-307090D01*
Y-305059D01*
D02*
G37*
G36*
X79802Y-306736D02*
X78378D01*
Y-308160D01*
X78652Y-308105D01*
X79308Y-307667D01*
X79747Y-307010D01*
X79802Y-306736D01*
D02*
G37*
G36*
X77378D02*
X75954D01*
X76009Y-307010D01*
X76447Y-307667D01*
X77104Y-308105D01*
X77378Y-308160D01*
Y-306736D01*
D02*
G37*
G36*
X74683D02*
X73260D01*
Y-308160D01*
X73534Y-308105D01*
X74190Y-307667D01*
X74629Y-307010D01*
X74683Y-306736D01*
D02*
G37*
G36*
X72260D02*
X70836D01*
X70891Y-307010D01*
X71329Y-307667D01*
X71986Y-308105D01*
X72260Y-308160D01*
Y-306736D01*
D02*
G37*
G36*
X13150Y-304850D02*
X9500D01*
Y-308500D01*
X13150D01*
Y-304850D01*
D02*
G37*
G36*
X8500D02*
X4850D01*
Y-308500D01*
X8500D01*
Y-304850D01*
D02*
G37*
G36*
X82000Y-276779D02*
X81150Y-276948D01*
X80430Y-277430D01*
X79948Y-278150D01*
X79779Y-279000D01*
X79948Y-279850D01*
X80430Y-280570D01*
X81150Y-281052D01*
X82000Y-281221D01*
X82048Y-281211D01*
X90471Y-289633D01*
Y-305402D01*
X90430Y-305430D01*
X89948Y-306150D01*
X89779Y-307000D01*
X89948Y-307850D01*
X90430Y-308570D01*
X91150Y-309052D01*
X92000Y-309221D01*
X92850Y-309052D01*
X93570Y-308570D01*
X94052Y-307850D01*
X94221Y-307000D01*
X94052Y-306150D01*
X93570Y-305430D01*
X93529Y-305402D01*
Y-289000D01*
X93413Y-288415D01*
X93081Y-287919D01*
X84211Y-279048D01*
X84221Y-279000D01*
X84052Y-278150D01*
X83570Y-277430D01*
X82850Y-276948D01*
X82000Y-276779D01*
D02*
G37*
G36*
X62437Y-307374D02*
Y-309405D01*
X64468D01*
X64446Y-309233D01*
X64186Y-308607D01*
X63773Y-308069D01*
X63235Y-307656D01*
X62609Y-307397D01*
X62437Y-307374D01*
D02*
G37*
G36*
X61437D02*
X61265Y-307397D01*
X60638Y-307656D01*
X60101Y-308069D01*
X59688Y-308607D01*
X59429Y-309233D01*
X59406Y-309405D01*
X61437D01*
Y-307374D01*
D02*
G37*
G36*
X134500Y-307469D02*
Y-309500D01*
X136531D01*
X136509Y-309328D01*
X136249Y-308701D01*
X135836Y-308164D01*
X135299Y-307751D01*
X134672Y-307491D01*
X134500Y-307469D01*
D02*
G37*
G36*
X133500D02*
X133328Y-307491D01*
X132702Y-307751D01*
X132164Y-308164D01*
X131751Y-308701D01*
X131491Y-309328D01*
X131469Y-309500D01*
X133500D01*
Y-307469D01*
D02*
G37*
G36*
X41945D02*
Y-309500D01*
X43976D01*
X43953Y-309328D01*
X43694Y-308701D01*
X43281Y-308164D01*
X42743Y-307751D01*
X42117Y-307491D01*
X41945Y-307469D01*
D02*
G37*
G36*
X40945D02*
X40773Y-307491D01*
X40146Y-307751D01*
X39608Y-308164D01*
X39196Y-308701D01*
X38936Y-309328D01*
X38914Y-309500D01*
X40945D01*
Y-307469D01*
D02*
G37*
G36*
X99500Y-308469D02*
Y-310500D01*
X101531D01*
X101508Y-310328D01*
X101249Y-309701D01*
X100836Y-309164D01*
X100299Y-308751D01*
X99672Y-308491D01*
X99500Y-308469D01*
D02*
G37*
G36*
X98500D02*
X98328Y-308491D01*
X97702Y-308751D01*
X97164Y-309164D01*
X96751Y-309701D01*
X96491Y-310328D01*
X96469Y-310500D01*
X98500D01*
Y-308469D01*
D02*
G37*
G36*
X32500D02*
Y-310500D01*
X34531D01*
X34508Y-310328D01*
X34249Y-309701D01*
X33836Y-309164D01*
X33299Y-308751D01*
X32672Y-308491D01*
X32500Y-308469D01*
D02*
G37*
G36*
X31500D02*
X31328Y-308491D01*
X30702Y-308751D01*
X30164Y-309164D01*
X29751Y-309701D01*
X29491Y-310328D01*
X29469Y-310500D01*
X31500D01*
Y-308469D01*
D02*
G37*
G36*
X64468Y-310405D02*
X62437D01*
Y-312437D01*
X62609Y-312414D01*
X63235Y-312155D01*
X63773Y-311742D01*
X64186Y-311204D01*
X64446Y-310578D01*
X64468Y-310405D01*
D02*
G37*
G36*
X61437D02*
X59406D01*
X59429Y-310578D01*
X59688Y-311204D01*
X60101Y-311742D01*
X60638Y-312155D01*
X61265Y-312414D01*
X61437Y-312437D01*
Y-310405D01*
D02*
G37*
G36*
X52500Y-310469D02*
Y-312500D01*
X54531D01*
X54509Y-312328D01*
X54249Y-311701D01*
X53836Y-311164D01*
X53298Y-310751D01*
X52672Y-310491D01*
X52500Y-310469D01*
D02*
G37*
G36*
X51500D02*
X51328Y-310491D01*
X50701Y-310751D01*
X50164Y-311164D01*
X49751Y-311701D01*
X49492Y-312328D01*
X49469Y-312500D01*
X51500D01*
Y-310469D01*
D02*
G37*
G36*
X136531Y-310500D02*
X134500D01*
Y-312531D01*
X134672Y-312509D01*
X135299Y-312249D01*
X135836Y-311836D01*
X136249Y-311298D01*
X136509Y-310672D01*
X136531Y-310500D01*
D02*
G37*
G36*
X133500D02*
X131469D01*
X131491Y-310672D01*
X131751Y-311298D01*
X132164Y-311836D01*
X132702Y-312249D01*
X133328Y-312509D01*
X133500Y-312531D01*
Y-310500D01*
D02*
G37*
G36*
X43976D02*
X41945D01*
Y-312531D01*
X42117Y-312509D01*
X42743Y-312249D01*
X43281Y-311836D01*
X43694Y-311298D01*
X43953Y-310672D01*
X43976Y-310500D01*
D02*
G37*
G36*
X40945D02*
X38914D01*
X38936Y-310672D01*
X39196Y-311298D01*
X39608Y-311836D01*
X40146Y-312249D01*
X40773Y-312509D01*
X40945Y-312531D01*
Y-310500D01*
D02*
G37*
G36*
X13150Y-309500D02*
X9500D01*
Y-313150D01*
X13150D01*
Y-309500D01*
D02*
G37*
G36*
X8500D02*
X4850D01*
Y-313150D01*
X8500D01*
Y-309500D01*
D02*
G37*
G36*
X101531Y-311500D02*
X99500D01*
Y-313531D01*
X99672Y-313509D01*
X100299Y-313249D01*
X100836Y-312836D01*
X101249Y-312298D01*
X101508Y-311672D01*
X101531Y-311500D01*
D02*
G37*
G36*
X98500D02*
X96469D01*
X96491Y-311672D01*
X96751Y-312298D01*
X97164Y-312836D01*
X97702Y-313249D01*
X98328Y-313509D01*
X98500Y-313531D01*
Y-311500D01*
D02*
G37*
G36*
X34531D02*
X32500D01*
Y-313531D01*
X32672Y-313509D01*
X33299Y-313249D01*
X33836Y-312836D01*
X34249Y-312298D01*
X34508Y-311672D01*
X34531Y-311500D01*
D02*
G37*
G36*
X31500D02*
X29469D01*
X29491Y-311672D01*
X29751Y-312298D01*
X30164Y-312836D01*
X30702Y-313249D01*
X31328Y-313509D01*
X31500Y-313531D01*
Y-311500D01*
D02*
G37*
G36*
X54531Y-313500D02*
X52500D01*
Y-315531D01*
X52672Y-315509D01*
X53298Y-315249D01*
X53836Y-314836D01*
X54249Y-314299D01*
X54509Y-313672D01*
X54531Y-313500D01*
D02*
G37*
G36*
X51500D02*
X49469D01*
X49492Y-313672D01*
X49751Y-314299D01*
X50164Y-314836D01*
X50701Y-315249D01*
X51328Y-315509D01*
X51500Y-315531D01*
Y-313500D01*
D02*
G37*
G36*
X69013Y-328050D02*
X61113D01*
Y-335950D01*
X69013D01*
Y-328050D01*
D02*
G37*
G36*
X104650Y-337850D02*
X101000D01*
Y-341500D01*
X104650D01*
Y-337850D01*
D02*
G37*
G36*
X100000D02*
X96350D01*
Y-341500D01*
X100000D01*
Y-337850D01*
D02*
G37*
G36*
X125500D02*
X121850D01*
Y-341500D01*
X125500D01*
Y-337850D01*
D02*
G37*
G36*
X55063Y-328016D02*
X54032Y-328152D01*
X53071Y-328550D01*
X52246Y-329183D01*
X51613Y-330008D01*
X51215Y-330969D01*
X51079Y-332000D01*
X51215Y-333031D01*
X51613Y-333992D01*
X52246Y-334817D01*
X53071Y-335450D01*
X54032Y-335848D01*
X55063Y-335984D01*
X55733Y-335895D01*
X61050Y-341213D01*
Y-346950D01*
X68950D01*
Y-344529D01*
X79866D01*
X86550Y-351213D01*
Y-356950D01*
X92287D01*
X94419Y-359081D01*
X94915Y-359413D01*
X95500Y-359529D01*
X111000D01*
X111585Y-359413D01*
X112081Y-359081D01*
X114213Y-356950D01*
X119950D01*
Y-349050D01*
X112050D01*
Y-354787D01*
X110366Y-356471D01*
X103286D01*
X103117Y-355971D01*
X103317Y-355817D01*
X103950Y-354992D01*
X104348Y-354031D01*
X104484Y-353000D01*
X104446Y-352716D01*
X112551Y-344611D01*
X113050Y-344644D01*
X113183Y-344817D01*
X114008Y-345450D01*
X114969Y-345848D01*
X116000Y-345984D01*
X117031Y-345848D01*
X117992Y-345450D01*
X118817Y-344817D01*
X119450Y-343992D01*
X119848Y-343031D01*
X119984Y-342000D01*
X119848Y-340969D01*
X119450Y-340008D01*
X118817Y-339183D01*
X117992Y-338550D01*
X117031Y-338152D01*
X116000Y-338016D01*
X114969Y-338152D01*
X114008Y-338550D01*
X113183Y-339183D01*
X112550Y-340008D01*
X112270Y-340684D01*
X111919Y-340919D01*
X102942Y-349895D01*
X102492Y-349550D01*
X101531Y-349152D01*
X100500Y-349016D01*
X99469Y-349152D01*
X98508Y-349550D01*
X97683Y-350183D01*
X97050Y-351008D01*
X96652Y-351969D01*
X96516Y-353000D01*
X96652Y-354031D01*
X97050Y-354992D01*
X97683Y-355817D01*
X97883Y-355971D01*
X97714Y-356471D01*
X96134D01*
X94450Y-354787D01*
Y-349050D01*
X88713D01*
X81581Y-341919D01*
X81085Y-341587D01*
X80500Y-341471D01*
X68950D01*
Y-339050D01*
X63213D01*
X58357Y-334194D01*
X58513Y-333992D01*
X58911Y-333031D01*
X59047Y-332000D01*
X58911Y-330969D01*
X58513Y-330008D01*
X57880Y-329183D01*
X57055Y-328550D01*
X56094Y-328152D01*
X55063Y-328016D01*
D02*
G37*
G36*
X90500Y-338016D02*
X89469Y-338152D01*
X88508Y-338550D01*
X87683Y-339183D01*
X87050Y-340008D01*
X86652Y-340969D01*
X86516Y-342000D01*
X86652Y-343031D01*
X87050Y-343992D01*
X87683Y-344817D01*
X88508Y-345450D01*
X89469Y-345848D01*
X90500Y-345984D01*
X91531Y-345848D01*
X92492Y-345450D01*
X93317Y-344817D01*
X93950Y-343992D01*
X94348Y-343031D01*
X94484Y-342000D01*
X94348Y-340969D01*
X93950Y-340008D01*
X93317Y-339183D01*
X92492Y-338550D01*
X91531Y-338152D01*
X90500Y-338016D01*
D02*
G37*
G36*
X125500Y-342500D02*
X121850D01*
Y-346150D01*
X125500D01*
Y-342500D01*
D02*
G37*
G36*
X104650D02*
X101000D01*
Y-346150D01*
X104650D01*
Y-342500D01*
D02*
G37*
G36*
X100000D02*
X96350D01*
Y-346150D01*
X100000D01*
Y-342500D01*
D02*
G37*
G36*
X55000Y-339016D02*
X53969Y-339152D01*
X53008Y-339550D01*
X52183Y-340183D01*
X51550Y-341008D01*
X51152Y-341969D01*
X51016Y-343000D01*
X51152Y-344031D01*
X51550Y-344992D01*
X52183Y-345817D01*
X53008Y-346450D01*
X53969Y-346848D01*
X55000Y-346984D01*
X56031Y-346848D01*
X56992Y-346450D01*
X57817Y-345817D01*
X58450Y-344992D01*
X58848Y-344031D01*
X58984Y-343000D01*
X58848Y-341969D01*
X58450Y-341008D01*
X57817Y-340183D01*
X56992Y-339550D01*
X56031Y-339152D01*
X55000Y-339016D01*
D02*
G37*
G36*
X101000Y-279470D02*
X100086Y-279590D01*
X99235Y-279943D01*
X98504Y-280504D01*
X97943Y-281235D01*
X97590Y-282086D01*
X97470Y-283000D01*
X97590Y-283914D01*
X97943Y-284765D01*
X98504Y-285496D01*
X99235Y-286057D01*
X100086Y-286410D01*
X100914Y-286519D01*
X111198Y-296802D01*
X112024Y-297355D01*
X113000Y-297549D01*
X119306D01*
X125451Y-303694D01*
Y-326000D01*
X125645Y-326975D01*
X126198Y-327802D01*
X129951Y-331556D01*
Y-337850D01*
X126500D01*
Y-342000D01*
Y-346150D01*
X129951D01*
Y-350911D01*
X129451Y-351011D01*
X129450Y-351008D01*
X128817Y-350183D01*
X127992Y-349550D01*
X127031Y-349152D01*
X126000Y-349016D01*
X124969Y-349152D01*
X124008Y-349550D01*
X123183Y-350183D01*
X122550Y-351008D01*
X122152Y-351969D01*
X122016Y-353000D01*
X122152Y-354031D01*
X122550Y-354992D01*
X123183Y-355817D01*
X124008Y-356450D01*
X124969Y-356848D01*
X126000Y-356984D01*
X127031Y-356848D01*
X127992Y-356450D01*
X128817Y-355817D01*
X129450Y-354992D01*
X129451Y-354989D01*
X129951Y-355089D01*
Y-356444D01*
X121944Y-364451D01*
X120428D01*
X119765Y-363943D01*
X118914Y-363590D01*
X118000Y-363470D01*
X117086Y-363590D01*
X116235Y-363943D01*
X115504Y-364504D01*
X114943Y-365235D01*
X114590Y-366086D01*
X114470Y-367000D01*
X114590Y-367914D01*
X114943Y-368765D01*
X115504Y-369496D01*
X116235Y-370057D01*
X117086Y-370410D01*
X118000Y-370530D01*
X118914Y-370410D01*
X119765Y-370057D01*
X120428Y-369549D01*
X123000D01*
X123976Y-369355D01*
X124802Y-368802D01*
X134302Y-359302D01*
X134855Y-358475D01*
X135049Y-357500D01*
Y-330500D01*
X134855Y-329524D01*
X134302Y-328698D01*
X130549Y-324944D01*
Y-302638D01*
X130355Y-301662D01*
X129802Y-300835D01*
X122165Y-293198D01*
X121338Y-292645D01*
X120362Y-292451D01*
X114056D01*
X104519Y-282914D01*
X104410Y-282086D01*
X104057Y-281235D01*
X103496Y-280504D01*
X102765Y-279943D01*
X101914Y-279590D01*
X101000Y-279470D01*
D02*
G37*
G36*
X76240Y-352469D02*
Y-354500D01*
X78271D01*
X78249Y-354328D01*
X77989Y-353701D01*
X77577Y-353164D01*
X77039Y-352751D01*
X76412Y-352491D01*
X76240Y-352469D01*
D02*
G37*
G36*
X75240D02*
X75068Y-352491D01*
X74442Y-352751D01*
X73904Y-353164D01*
X73491Y-353701D01*
X73232Y-354328D01*
X73209Y-354500D01*
X75240D01*
Y-352469D01*
D02*
G37*
G36*
X62882Y-354469D02*
Y-356500D01*
X64913D01*
X64890Y-356328D01*
X64631Y-355701D01*
X64218Y-355164D01*
X63680Y-354751D01*
X63054Y-354491D01*
X62882Y-354469D01*
D02*
G37*
G36*
X61882D02*
X61710Y-354491D01*
X61083Y-354751D01*
X60545Y-355164D01*
X60133Y-355701D01*
X59873Y-356328D01*
X59851Y-356500D01*
X61882D01*
Y-354469D01*
D02*
G37*
G36*
X78271Y-355500D02*
X76240D01*
Y-357531D01*
X76412Y-357508D01*
X77039Y-357249D01*
X77577Y-356836D01*
X77989Y-356298D01*
X78249Y-355672D01*
X78271Y-355500D01*
D02*
G37*
G36*
X75240D02*
X73209D01*
X73232Y-355672D01*
X73491Y-356298D01*
X73904Y-356836D01*
X74442Y-357249D01*
X75068Y-357508D01*
X75240Y-357531D01*
Y-355500D01*
D02*
G37*
G36*
X48500Y-356469D02*
Y-358500D01*
X50531D01*
X50508Y-358328D01*
X50249Y-357701D01*
X49836Y-357164D01*
X49299Y-356751D01*
X48672Y-356491D01*
X48500Y-356469D01*
D02*
G37*
G36*
X47500D02*
X47328Y-356491D01*
X46701Y-356751D01*
X46164Y-357164D01*
X45751Y-357701D01*
X45491Y-358328D01*
X45469Y-358500D01*
X47500D01*
Y-356469D01*
D02*
G37*
G36*
X64913Y-357500D02*
X62882D01*
Y-359531D01*
X63054Y-359508D01*
X63680Y-359249D01*
X64218Y-358836D01*
X64631Y-358298D01*
X64890Y-357672D01*
X64913Y-357500D01*
D02*
G37*
G36*
X61882D02*
X59851D01*
X59873Y-357672D01*
X60133Y-358298D01*
X60545Y-358836D01*
X61083Y-359249D01*
X61710Y-359508D01*
X61882Y-359531D01*
Y-357500D01*
D02*
G37*
G36*
X50531Y-359500D02*
X48500D01*
Y-361531D01*
X48672Y-361508D01*
X49299Y-361249D01*
X49836Y-360836D01*
X50249Y-360298D01*
X50508Y-359672D01*
X50531Y-359500D01*
D02*
G37*
G36*
X47500D02*
X45469D01*
X45491Y-359672D01*
X45751Y-360298D01*
X46164Y-360836D01*
X46701Y-361249D01*
X47328Y-361508D01*
X47500Y-361531D01*
Y-359500D01*
D02*
G37*
G36*
X9000Y-357016D02*
X7969Y-357152D01*
X7008Y-357550D01*
X6183Y-358183D01*
X5550Y-359008D01*
X5152Y-359969D01*
X5016Y-361000D01*
X5152Y-362031D01*
X5550Y-362992D01*
X6183Y-363817D01*
X7008Y-364450D01*
X7969Y-364848D01*
X9000Y-364984D01*
X10031Y-364848D01*
X10992Y-364450D01*
X11817Y-363817D01*
X12450Y-362992D01*
X12848Y-362031D01*
X12984Y-361000D01*
X12848Y-359969D01*
X12450Y-359008D01*
X11817Y-358183D01*
X10992Y-357550D01*
X10031Y-357152D01*
X9000Y-357016D01*
D02*
G37*
G36*
X55063Y-356779D02*
X54213Y-356948D01*
X53493Y-357430D01*
X53011Y-358150D01*
X52842Y-359000D01*
X53011Y-359850D01*
X53493Y-360570D01*
X53534Y-360597D01*
Y-362063D01*
X53650Y-362648D01*
X53982Y-363144D01*
X58789Y-367952D01*
X58779Y-368000D01*
X58948Y-368850D01*
X59430Y-369570D01*
X60150Y-370052D01*
X61000Y-370221D01*
X61850Y-370052D01*
X62570Y-369570D01*
X63052Y-368850D01*
X63221Y-368000D01*
X63052Y-367150D01*
X62570Y-366430D01*
X61850Y-365948D01*
X61000Y-365779D01*
X60952Y-365789D01*
X56592Y-361430D01*
Y-360597D01*
X56633Y-360570D01*
X57115Y-359850D01*
X57284Y-359000D01*
X57115Y-358150D01*
X56633Y-357430D01*
X55913Y-356948D01*
X55063Y-356779D01*
D02*
G37*
G36*
X13150Y-366850D02*
X9500D01*
Y-370500D01*
X13150D01*
Y-366850D01*
D02*
G37*
G36*
X96500Y-368469D02*
Y-370500D01*
X98531D01*
X98509Y-370328D01*
X98249Y-369702D01*
X97836Y-369164D01*
X97299Y-368751D01*
X96672Y-368492D01*
X96500Y-368469D01*
D02*
G37*
G36*
X95500D02*
X95328Y-368492D01*
X94701Y-368751D01*
X94164Y-369164D01*
X93751Y-369702D01*
X93492Y-370328D01*
X93469Y-370500D01*
X95500D01*
Y-368469D01*
D02*
G37*
G36*
X8500Y-366850D02*
X4850D01*
Y-370500D01*
X8500D01*
Y-366850D01*
D02*
G37*
G36*
X98531Y-371500D02*
X96500D01*
Y-373531D01*
X96672Y-373509D01*
X97299Y-373249D01*
X97836Y-372836D01*
X98249Y-372299D01*
X98509Y-371672D01*
X98531Y-371500D01*
D02*
G37*
G36*
X95500D02*
X93469D01*
X93492Y-371672D01*
X93751Y-372299D01*
X94164Y-372836D01*
X94701Y-373249D01*
X95328Y-373509D01*
X95500Y-373531D01*
Y-371500D01*
D02*
G37*
G36*
X13150D02*
X9500D01*
Y-375150D01*
X13150D01*
Y-371500D01*
D02*
G37*
G36*
X8500D02*
X4850D01*
Y-375150D01*
X8500D01*
Y-371500D01*
D02*
G37*
G36*
X130421Y-373469D02*
Y-375500D01*
X132452D01*
X132430Y-375328D01*
X132170Y-374701D01*
X131758Y-374164D01*
X131220Y-373751D01*
X130593Y-373492D01*
X130421Y-373469D01*
D02*
G37*
G36*
X129421D02*
X129249Y-373492D01*
X128623Y-373751D01*
X128085Y-374164D01*
X127672Y-374701D01*
X127413Y-375328D01*
X127390Y-375500D01*
X129421D01*
Y-373469D01*
D02*
G37*
G36*
X53500Y-374469D02*
Y-376500D01*
X55531D01*
X55509Y-376328D01*
X55249Y-375701D01*
X54836Y-375164D01*
X54299Y-374751D01*
X53672Y-374492D01*
X53500Y-374469D01*
D02*
G37*
G36*
X52500D02*
X52328Y-374492D01*
X51701Y-374751D01*
X51164Y-375164D01*
X50751Y-375701D01*
X50491Y-376328D01*
X50469Y-376500D01*
X52500D01*
Y-374469D01*
D02*
G37*
G36*
X33531Y-374500D02*
X31500D01*
Y-376531D01*
X31672Y-376508D01*
X32298Y-376249D01*
X32836Y-375836D01*
X33249Y-375299D01*
X33509Y-374672D01*
X33531Y-374500D01*
D02*
G37*
G36*
X132452Y-376500D02*
X130421D01*
Y-378531D01*
X130593Y-378508D01*
X131220Y-378249D01*
X131758Y-377836D01*
X132170Y-377298D01*
X132430Y-376672D01*
X132452Y-376500D01*
D02*
G37*
G36*
X129421D02*
X127390D01*
X127413Y-376672D01*
X127672Y-377298D01*
X128085Y-377836D01*
X128623Y-378249D01*
X129249Y-378508D01*
X129421Y-378531D01*
Y-376500D01*
D02*
G37*
G36*
X55531Y-377500D02*
X53500D01*
Y-379531D01*
X53672Y-379508D01*
X54299Y-379249D01*
X54836Y-378836D01*
X55249Y-378298D01*
X55509Y-377672D01*
X55531Y-377500D01*
D02*
G37*
G36*
X52500D02*
X50469D01*
X50491Y-377672D01*
X50751Y-378298D01*
X51164Y-378836D01*
X51701Y-379249D01*
X52328Y-379508D01*
X52500Y-379531D01*
Y-377500D01*
D02*
G37*
G36*
X122500Y-379469D02*
Y-381500D01*
X124531D01*
X124509Y-381328D01*
X124249Y-380701D01*
X123836Y-380164D01*
X123299Y-379751D01*
X122672Y-379491D01*
X122500Y-379469D01*
D02*
G37*
G36*
X121500D02*
X121328Y-379491D01*
X120702Y-379751D01*
X120164Y-380164D01*
X119751Y-380701D01*
X119492Y-381328D01*
X119469Y-381500D01*
X121500D01*
Y-379469D01*
D02*
G37*
G36*
X92500Y-382469D02*
Y-384500D01*
X94531D01*
X94508Y-384328D01*
X94249Y-383701D01*
X93836Y-383164D01*
X93299Y-382751D01*
X92672Y-382491D01*
X92500Y-382469D01*
D02*
G37*
G36*
X91500D02*
X91328Y-382491D01*
X90702Y-382751D01*
X90164Y-383164D01*
X89751Y-383701D01*
X89491Y-384328D01*
X89469Y-384500D01*
X91500D01*
Y-382469D01*
D02*
G37*
G36*
X124531Y-382500D02*
X122500D01*
Y-384531D01*
X122672Y-384508D01*
X123299Y-384249D01*
X123836Y-383836D01*
X124249Y-383298D01*
X124509Y-382672D01*
X124531Y-382500D01*
D02*
G37*
G36*
X121500D02*
X119469D01*
X119492Y-382672D01*
X119751Y-383298D01*
X120164Y-383836D01*
X120702Y-384249D01*
X121328Y-384508D01*
X121500Y-384531D01*
Y-382500D01*
D02*
G37*
G36*
X94531Y-385500D02*
X92500D01*
Y-387531D01*
X92672Y-387509D01*
X93299Y-387249D01*
X93836Y-386836D01*
X94249Y-386298D01*
X94508Y-385672D01*
X94531Y-385500D01*
D02*
G37*
G36*
X91500D02*
X89469D01*
X89491Y-385672D01*
X89751Y-386298D01*
X90164Y-386836D01*
X90702Y-387249D01*
X91328Y-387509D01*
X91500Y-387531D01*
Y-385500D01*
D02*
G37*
G36*
X75500Y-387469D02*
Y-389500D01*
X77531D01*
X77508Y-389328D01*
X77249Y-388702D01*
X76836Y-388164D01*
X76298Y-387751D01*
X75672Y-387491D01*
X75500Y-387469D01*
D02*
G37*
G36*
X74500D02*
X74328Y-387491D01*
X73702Y-387751D01*
X73164Y-388164D01*
X72751Y-388702D01*
X72492Y-389328D01*
X72469Y-389500D01*
X74500D01*
Y-387469D01*
D02*
G37*
G36*
X9000Y-382016D02*
X7969Y-382152D01*
X7008Y-382550D01*
X6183Y-383183D01*
X5550Y-384008D01*
X5152Y-384969D01*
X5016Y-386000D01*
X5152Y-387031D01*
X5550Y-387992D01*
X6183Y-388817D01*
X7008Y-389450D01*
X7969Y-389848D01*
X9000Y-389984D01*
X10031Y-389848D01*
X10992Y-389450D01*
X11817Y-388817D01*
X12450Y-387992D01*
X12848Y-387031D01*
X12984Y-386000D01*
X12848Y-384969D01*
X12450Y-384008D01*
X11817Y-383183D01*
X10992Y-382550D01*
X10031Y-382152D01*
X9000Y-382016D01*
D02*
G37*
G36*
X77531Y-390500D02*
X75500D01*
Y-392531D01*
X75672Y-392509D01*
X76298Y-392249D01*
X76836Y-391836D01*
X77249Y-391299D01*
X77508Y-390672D01*
X77531Y-390500D01*
D02*
G37*
G36*
X74500D02*
X72469D01*
X72492Y-390672D01*
X72751Y-391299D01*
X73164Y-391836D01*
X73702Y-392249D01*
X74328Y-392509D01*
X74500Y-392531D01*
Y-390500D01*
D02*
G37*
G36*
X13150Y-391850D02*
X9500D01*
Y-395500D01*
X13150D01*
Y-391850D01*
D02*
G37*
G36*
X8500D02*
X4850D01*
Y-395500D01*
X8500D01*
Y-391850D01*
D02*
G37*
G36*
X132500Y-389016D02*
X131469Y-389152D01*
X130508Y-389550D01*
X129683Y-390183D01*
X129050Y-391008D01*
X128652Y-391969D01*
X128516Y-393000D01*
X128652Y-394031D01*
X129050Y-394992D01*
X129683Y-395817D01*
X130508Y-396450D01*
X131469Y-396848D01*
X132500Y-396984D01*
X133531Y-396848D01*
X134492Y-396450D01*
X135317Y-395817D01*
X135950Y-394992D01*
X136348Y-394031D01*
X136484Y-393000D01*
X136348Y-391969D01*
X135950Y-391008D01*
X135317Y-390183D01*
X134492Y-389550D01*
X133531Y-389152D01*
X132500Y-389016D01*
D02*
G37*
G36*
X13150Y-396500D02*
X9500D01*
Y-400150D01*
X13150D01*
Y-396500D01*
D02*
G37*
G36*
X8500D02*
X4850D01*
Y-400150D01*
X8500D01*
Y-396500D01*
D02*
G37*
G36*
X136650Y-398850D02*
X133000D01*
Y-402500D01*
X136650D01*
Y-398850D01*
D02*
G37*
G36*
X132000D02*
X128350D01*
Y-402500D01*
X132000D01*
Y-398850D01*
D02*
G37*
G36*
X86059Y-401399D02*
Y-402823D01*
X87483D01*
X87428Y-402549D01*
X86990Y-401892D01*
X86333Y-401454D01*
X86059Y-401399D01*
D02*
G37*
G36*
X85059D02*
X84785Y-401454D01*
X84128Y-401892D01*
X83690Y-402549D01*
X83635Y-402823D01*
X85059D01*
Y-401399D01*
D02*
G37*
G36*
X80941D02*
Y-402823D01*
X82365D01*
X82310Y-402549D01*
X81871Y-401892D01*
X81215Y-401454D01*
X80941Y-401399D01*
D02*
G37*
G36*
X79941D02*
X79667Y-401454D01*
X79010Y-401892D01*
X78572Y-402549D01*
X78517Y-402823D01*
X79941D01*
Y-401399D01*
D02*
G37*
G36*
X79000Y-372779D02*
X78150Y-372948D01*
X77430Y-373430D01*
X76948Y-374150D01*
X76779Y-375000D01*
X76799Y-375098D01*
X76587Y-375415D01*
X76471Y-376000D01*
Y-379366D01*
X51048Y-404789D01*
X51000Y-404779D01*
X50150Y-404948D01*
X49430Y-405430D01*
X48948Y-406150D01*
X48779Y-407000D01*
X48948Y-407850D01*
X49430Y-408570D01*
X50150Y-409052D01*
X51000Y-409221D01*
X51850Y-409052D01*
X52570Y-408570D01*
X53052Y-407850D01*
X53221Y-407000D01*
X53211Y-406952D01*
X79081Y-381081D01*
X79413Y-380585D01*
X79529Y-380000D01*
Y-377115D01*
X79850Y-377052D01*
X80570Y-376570D01*
X81052Y-375850D01*
X81221Y-375000D01*
X81052Y-374150D01*
X80570Y-373430D01*
X79850Y-372948D01*
X79000Y-372779D01*
D02*
G37*
G36*
X87483Y-403823D02*
X86059D01*
Y-405246D01*
X86333Y-405192D01*
X86990Y-404753D01*
X87428Y-404097D01*
X87483Y-403823D01*
D02*
G37*
G36*
X85059D02*
X83635D01*
X83690Y-404097D01*
X84128Y-404753D01*
X84785Y-405192D01*
X85059Y-405246D01*
Y-403823D01*
D02*
G37*
G36*
X82365D02*
X80941D01*
Y-405246D01*
X81215Y-405192D01*
X81871Y-404753D01*
X82310Y-404097D01*
X82365Y-403823D01*
D02*
G37*
G36*
X79941D02*
X78517D01*
X78572Y-404097D01*
X79010Y-404753D01*
X79667Y-405192D01*
X79941Y-405246D01*
Y-403823D01*
D02*
G37*
G36*
X136650Y-403500D02*
X133000D01*
Y-407150D01*
X136650D01*
Y-403500D01*
D02*
G37*
G36*
X132000D02*
X128350D01*
Y-407150D01*
X132000D01*
Y-403500D01*
D02*
G37*
G36*
X86059Y-406517D02*
Y-407941D01*
X87483D01*
X87428Y-407667D01*
X86990Y-407010D01*
X86333Y-406572D01*
X86059Y-406517D01*
D02*
G37*
G36*
X85059D02*
X84785Y-406572D01*
X84128Y-407010D01*
X83690Y-407667D01*
X83635Y-407941D01*
X85059D01*
Y-406517D01*
D02*
G37*
G36*
X80941D02*
Y-407941D01*
X82365D01*
X82310Y-407667D01*
X81871Y-407010D01*
X81215Y-406572D01*
X80941Y-406517D01*
D02*
G37*
G36*
X79941D02*
X79667Y-406572D01*
X79010Y-407010D01*
X78572Y-407667D01*
X78517Y-407941D01*
X79941D01*
Y-406517D01*
D02*
G37*
G36*
X87483Y-408941D02*
X86059D01*
Y-410365D01*
X86333Y-410310D01*
X86990Y-409871D01*
X87428Y-409215D01*
X87483Y-408941D01*
D02*
G37*
G36*
X85059D02*
X83635D01*
X83690Y-409215D01*
X84128Y-409871D01*
X84785Y-410310D01*
X85059Y-410365D01*
Y-408941D01*
D02*
G37*
G36*
X82365D02*
X80941D01*
Y-410365D01*
X81215Y-410310D01*
X81871Y-409871D01*
X82310Y-409215D01*
X82365Y-408941D01*
D02*
G37*
G36*
X79941D02*
X78517D01*
X78572Y-409215D01*
X79010Y-409871D01*
X79667Y-410310D01*
X79941Y-410365D01*
Y-408941D01*
D02*
G37*
G36*
X86059Y-411635D02*
Y-413059D01*
X87483D01*
X87428Y-412785D01*
X86990Y-412128D01*
X86333Y-411690D01*
X86059Y-411635D01*
D02*
G37*
G36*
X85059D02*
X84785Y-411690D01*
X84128Y-412128D01*
X83690Y-412785D01*
X83635Y-413059D01*
X85059D01*
Y-411635D01*
D02*
G37*
G36*
X80941D02*
Y-413059D01*
X82365D01*
X82310Y-412785D01*
X81871Y-412128D01*
X81215Y-411690D01*
X80941Y-411635D01*
D02*
G37*
G36*
X79941D02*
X79667Y-411690D01*
X79010Y-412128D01*
X78572Y-412785D01*
X78517Y-413059D01*
X79941D01*
Y-411635D01*
D02*
G37*
G36*
X9000Y-407016D02*
X7969Y-407152D01*
X7008Y-407550D01*
X6183Y-408183D01*
X5550Y-409008D01*
X5152Y-409969D01*
X5016Y-411000D01*
X5152Y-412031D01*
X5550Y-412992D01*
X6183Y-413817D01*
X7008Y-414450D01*
X7969Y-414848D01*
X9000Y-414984D01*
X10031Y-414848D01*
X10992Y-414450D01*
X11817Y-413817D01*
X12450Y-412992D01*
X12848Y-412031D01*
X12984Y-411000D01*
X12848Y-409969D01*
X12450Y-409008D01*
X11817Y-408183D01*
X10992Y-407550D01*
X10031Y-407152D01*
X9000Y-407016D01*
D02*
G37*
G36*
X87483Y-414059D02*
X86059D01*
Y-415483D01*
X86333Y-415428D01*
X86990Y-414990D01*
X87428Y-414333D01*
X87483Y-414059D01*
D02*
G37*
G36*
X85059D02*
X83635D01*
X83690Y-414333D01*
X84128Y-414990D01*
X84785Y-415428D01*
X85059Y-415483D01*
Y-414059D01*
D02*
G37*
G36*
X82365D02*
X80941D01*
Y-415483D01*
X81215Y-415428D01*
X81871Y-414990D01*
X82310Y-414333D01*
X82365Y-414059D01*
D02*
G37*
G36*
X79941D02*
X78517D01*
X78572Y-414333D01*
X79010Y-414990D01*
X79667Y-415428D01*
X79941Y-415483D01*
Y-414059D01*
D02*
G37*
G36*
X86059Y-416753D02*
Y-418177D01*
X87483D01*
X87428Y-417903D01*
X86990Y-417247D01*
X86333Y-416808D01*
X86059Y-416753D01*
D02*
G37*
G36*
X85059D02*
X84785Y-416808D01*
X84128Y-417247D01*
X83690Y-417903D01*
X83635Y-418177D01*
X85059D01*
Y-416753D01*
D02*
G37*
G36*
X80941D02*
Y-418177D01*
X82365D01*
X82310Y-417903D01*
X81871Y-417247D01*
X81215Y-416808D01*
X80941Y-416753D01*
D02*
G37*
G36*
X79941D02*
X79667Y-416808D01*
X79010Y-417247D01*
X78572Y-417903D01*
X78517Y-418177D01*
X79941D01*
Y-416753D01*
D02*
G37*
G36*
X125500Y-416469D02*
Y-418500D01*
X127531D01*
X127508Y-418328D01*
X127249Y-417701D01*
X126836Y-417164D01*
X126298Y-416751D01*
X125672Y-416492D01*
X125500Y-416469D01*
D02*
G37*
G36*
X124500D02*
X124328Y-416492D01*
X123702Y-416751D01*
X123164Y-417164D01*
X122751Y-417701D01*
X122492Y-418328D01*
X122469Y-418500D01*
X124500D01*
Y-416469D01*
D02*
G37*
G36*
X67500Y-417406D02*
Y-419437D01*
X69531D01*
X69508Y-419265D01*
X69249Y-418639D01*
X68836Y-418101D01*
X68299Y-417688D01*
X67672Y-417428D01*
X67500Y-417406D01*
D02*
G37*
G36*
X66500D02*
X66328Y-417428D01*
X65702Y-417688D01*
X65164Y-418101D01*
X64751Y-418639D01*
X64491Y-419265D01*
X64469Y-419437D01*
X66500D01*
Y-417406D01*
D02*
G37*
G36*
X86000Y-390779D02*
X85150Y-390948D01*
X84430Y-391430D01*
X83948Y-392150D01*
X83779Y-393000D01*
X83948Y-393850D01*
X84430Y-394570D01*
X85150Y-395052D01*
X86000Y-395221D01*
X86048Y-395211D01*
X92471Y-401634D01*
Y-413000D01*
X92587Y-413585D01*
X92919Y-414081D01*
X96789Y-417952D01*
X96779Y-418000D01*
X96948Y-418850D01*
X97430Y-419570D01*
X98150Y-420052D01*
X99000Y-420221D01*
X99850Y-420052D01*
X100570Y-419570D01*
X101052Y-418850D01*
X101221Y-418000D01*
X101052Y-417150D01*
X100570Y-416430D01*
X99850Y-415948D01*
X99000Y-415779D01*
X98952Y-415789D01*
X95529Y-412366D01*
Y-401000D01*
X95413Y-400415D01*
X95081Y-399919D01*
X88211Y-393048D01*
X88221Y-393000D01*
X88052Y-392150D01*
X87570Y-391430D01*
X86850Y-390948D01*
X86000Y-390779D01*
D02*
G37*
G36*
X13150Y-416850D02*
X9500D01*
Y-420500D01*
X13150D01*
Y-416850D01*
D02*
G37*
G36*
X44500Y-418469D02*
Y-420500D01*
X46531D01*
X46508Y-420328D01*
X46249Y-419701D01*
X45836Y-419164D01*
X45298Y-418751D01*
X44672Y-418492D01*
X44500Y-418469D01*
D02*
G37*
G36*
X43500D02*
X43328Y-418492D01*
X42702Y-418751D01*
X42164Y-419164D01*
X41751Y-419701D01*
X41491Y-420328D01*
X41469Y-420500D01*
X43500D01*
Y-418469D01*
D02*
G37*
G36*
X8500Y-416850D02*
X4850D01*
Y-420500D01*
X8500D01*
Y-416850D01*
D02*
G37*
G36*
X87483Y-419177D02*
X86059D01*
Y-420601D01*
X86333Y-420546D01*
X86990Y-420108D01*
X87428Y-419451D01*
X87483Y-419177D01*
D02*
G37*
G36*
X85059D02*
X83635D01*
X83690Y-419451D01*
X84128Y-420108D01*
X84785Y-420546D01*
X85059Y-420601D01*
Y-419177D01*
D02*
G37*
G36*
X82365D02*
X80941D01*
Y-420601D01*
X81215Y-420546D01*
X81871Y-420108D01*
X82310Y-419451D01*
X82365Y-419177D01*
D02*
G37*
G36*
X79941D02*
X78517D01*
X78572Y-419451D01*
X79010Y-420108D01*
X79667Y-420546D01*
X79941Y-420601D01*
Y-419177D01*
D02*
G37*
G36*
X127531Y-419500D02*
X125500D01*
Y-421531D01*
X125672Y-421509D01*
X126298Y-421249D01*
X126836Y-420836D01*
X127249Y-420298D01*
X127508Y-419672D01*
X127531Y-419500D01*
D02*
G37*
G36*
X124500D02*
X122469D01*
X122492Y-419672D01*
X122751Y-420298D01*
X123164Y-420836D01*
X123702Y-421249D01*
X124328Y-421509D01*
X124500Y-421531D01*
Y-419500D01*
D02*
G37*
G36*
X69531Y-420437D02*
X67500D01*
Y-422468D01*
X67672Y-422445D01*
X68299Y-422186D01*
X68836Y-421773D01*
X69249Y-421236D01*
X69508Y-420609D01*
X69531Y-420437D01*
D02*
G37*
G36*
X66500D02*
X64469D01*
X64491Y-420609D01*
X64751Y-421236D01*
X65164Y-421773D01*
X65702Y-422186D01*
X66328Y-422445D01*
X66500Y-422468D01*
Y-420437D01*
D02*
G37*
G36*
X30500Y-420469D02*
Y-422500D01*
X32531D01*
X32509Y-422328D01*
X32249Y-421701D01*
X31836Y-421164D01*
X31299Y-420751D01*
X30672Y-420492D01*
X30500Y-420469D01*
D02*
G37*
G36*
X29500D02*
X29328Y-420492D01*
X28701Y-420751D01*
X28164Y-421164D01*
X27751Y-421701D01*
X27492Y-422328D01*
X27469Y-422500D01*
X29500D01*
Y-420469D01*
D02*
G37*
G36*
X46531Y-421500D02*
X44500D01*
Y-423531D01*
X44672Y-423509D01*
X45298Y-423249D01*
X45836Y-422836D01*
X46249Y-422298D01*
X46508Y-421672D01*
X46531Y-421500D01*
D02*
G37*
G36*
X43500D02*
X41469D01*
X41491Y-421672D01*
X41751Y-422298D01*
X42164Y-422836D01*
X42702Y-423249D01*
X43328Y-423509D01*
X43500Y-423531D01*
Y-421500D01*
D02*
G37*
G36*
X91752Y-422469D02*
Y-424500D01*
X93783D01*
X93761Y-424328D01*
X93501Y-423701D01*
X93088Y-423164D01*
X92550Y-422751D01*
X91924Y-422492D01*
X91752Y-422469D01*
D02*
G37*
G36*
X90752D02*
X90580Y-422492D01*
X89954Y-422751D01*
X89416Y-423164D01*
X89003Y-423701D01*
X88743Y-424328D01*
X88721Y-424500D01*
X90752D01*
Y-422469D01*
D02*
G37*
G36*
X59500D02*
Y-424500D01*
X61531D01*
X61509Y-424328D01*
X61249Y-423701D01*
X60836Y-423164D01*
X60299Y-422751D01*
X59672Y-422492D01*
X59500Y-422469D01*
D02*
G37*
G36*
X58500D02*
X58328Y-422492D01*
X57701Y-422751D01*
X57164Y-423164D01*
X56751Y-423701D01*
X56492Y-424328D01*
X56469Y-424500D01*
X58500D01*
Y-422469D01*
D02*
G37*
G36*
X13150Y-421500D02*
X9500D01*
Y-425150D01*
X13150D01*
Y-421500D01*
D02*
G37*
G36*
X8500D02*
X4850D01*
Y-425150D01*
X8500D01*
Y-421500D01*
D02*
G37*
G36*
X32531Y-423500D02*
X30500D01*
Y-425531D01*
X30672Y-425508D01*
X31299Y-425249D01*
X31836Y-424836D01*
X32249Y-424298D01*
X32509Y-423672D01*
X32531Y-423500D01*
D02*
G37*
G36*
X29500D02*
X27469D01*
X27492Y-423672D01*
X27751Y-424298D01*
X28164Y-424836D01*
X28701Y-425249D01*
X29328Y-425508D01*
X29500Y-425531D01*
Y-423500D01*
D02*
G37*
G36*
X93783Y-425500D02*
X91752D01*
Y-427531D01*
X91924Y-427508D01*
X92550Y-427249D01*
X93088Y-426836D01*
X93501Y-426299D01*
X93761Y-425672D01*
X93783Y-425500D01*
D02*
G37*
G36*
X90752D02*
X88721D01*
X88743Y-425672D01*
X89003Y-426299D01*
X89416Y-426836D01*
X89954Y-427249D01*
X90580Y-427508D01*
X90752Y-427531D01*
Y-425500D01*
D02*
G37*
G36*
X61531D02*
X59500D01*
Y-427531D01*
X59672Y-427508D01*
X60299Y-427249D01*
X60836Y-426836D01*
X61249Y-426299D01*
X61509Y-425672D01*
X61531Y-425500D01*
D02*
G37*
G36*
X58500D02*
X56469D01*
X56492Y-425672D01*
X56751Y-426299D01*
X57164Y-426836D01*
X57701Y-427249D01*
X58328Y-427508D01*
X58500Y-427531D01*
Y-425500D01*
D02*
G37*
G36*
X136937Y-430469D02*
Y-432500D01*
X138968D01*
X138945Y-432328D01*
X138686Y-431702D01*
X138273Y-431164D01*
X137735Y-430751D01*
X137109Y-430491D01*
X136937Y-430469D01*
D02*
G37*
G36*
X135937D02*
X135765Y-430491D01*
X135138Y-430751D01*
X134601Y-431164D01*
X134188Y-431702D01*
X133929Y-432328D01*
X133906Y-432500D01*
X135937D01*
Y-430469D01*
D02*
G37*
G36*
X138968Y-433500D02*
X136937D01*
Y-435531D01*
X137109Y-435508D01*
X137735Y-435249D01*
X138273Y-434836D01*
X138686Y-434299D01*
X138945Y-433672D01*
X138968Y-433500D01*
D02*
G37*
G36*
X135937D02*
X133906D01*
X133929Y-433672D01*
X134188Y-434299D01*
X134601Y-434836D01*
X135138Y-435249D01*
X135765Y-435508D01*
X135937Y-435531D01*
Y-433500D01*
D02*
G37*
G36*
X103150Y-449850D02*
X99500D01*
Y-453500D01*
X103150D01*
Y-449850D01*
D02*
G37*
G36*
X126500D02*
X122850D01*
Y-453500D01*
X126500D01*
Y-449850D01*
D02*
G37*
G36*
X98500D02*
X94850D01*
Y-453500D01*
X98500D01*
Y-449850D01*
D02*
G37*
G36*
X117000Y-450016D02*
X115969Y-450152D01*
X115008Y-450550D01*
X114183Y-451183D01*
X113550Y-452008D01*
X113152Y-452969D01*
X113016Y-454000D01*
X113152Y-455031D01*
X113344Y-455493D01*
X105367Y-463471D01*
X102641D01*
X102450Y-463008D01*
X101817Y-462183D01*
X100992Y-461550D01*
X100031Y-461152D01*
X99000Y-461016D01*
X97969Y-461152D01*
X97008Y-461550D01*
X96183Y-462183D01*
X95550Y-463008D01*
X95152Y-463969D01*
X95016Y-465000D01*
X95152Y-466031D01*
X95550Y-466992D01*
X96183Y-467817D01*
X97008Y-468450D01*
X97969Y-468848D01*
X99000Y-468984D01*
X100031Y-468848D01*
X100992Y-468450D01*
X101817Y-467817D01*
X102450Y-466992D01*
X102641Y-466529D01*
X106000D01*
X106585Y-466413D01*
X107081Y-466081D01*
X115506Y-457656D01*
X115969Y-457848D01*
X117000Y-457984D01*
X118031Y-457848D01*
X118992Y-457450D01*
X119817Y-456817D01*
X120450Y-455992D01*
X120848Y-455031D01*
X120984Y-454000D01*
X120848Y-452969D01*
X120450Y-452008D01*
X119817Y-451183D01*
X118992Y-450550D01*
X118031Y-450152D01*
X117000Y-450016D01*
D02*
G37*
G36*
X89000D02*
X87969Y-450152D01*
X87008Y-450550D01*
X86183Y-451183D01*
X85550Y-452008D01*
X85152Y-452969D01*
X85016Y-454000D01*
X85152Y-455031D01*
X85550Y-455992D01*
X86183Y-456817D01*
X87008Y-457450D01*
X87969Y-457848D01*
X89000Y-457984D01*
X90031Y-457848D01*
X90992Y-457450D01*
X91817Y-456817D01*
X92450Y-455992D01*
X92848Y-455031D01*
X92984Y-454000D01*
X92848Y-452969D01*
X92450Y-452008D01*
X91817Y-451183D01*
X90992Y-450550D01*
X90031Y-450152D01*
X89000Y-450016D01*
D02*
G37*
G36*
X103150Y-454500D02*
X99500D01*
Y-458150D01*
X103150D01*
Y-454500D01*
D02*
G37*
G36*
X98500D02*
X94850D01*
Y-458150D01*
X98500D01*
Y-454500D01*
D02*
G37*
G36*
X126500D02*
X122850D01*
Y-458150D01*
X126500D01*
Y-454500D01*
D02*
G37*
G36*
X53000Y-451016D02*
X51969Y-451152D01*
X51008Y-451550D01*
X50183Y-452183D01*
X49550Y-453008D01*
X49152Y-453969D01*
X49016Y-455000D01*
X49152Y-456031D01*
X49550Y-456992D01*
X50183Y-457817D01*
X51008Y-458450D01*
X51969Y-458848D01*
X53000Y-458984D01*
X54031Y-458848D01*
X54992Y-458450D01*
X55817Y-457817D01*
X56450Y-456992D01*
X56848Y-456031D01*
X56984Y-455000D01*
X56848Y-453969D01*
X56450Y-453008D01*
X55817Y-452183D01*
X54992Y-451550D01*
X54031Y-451152D01*
X53000Y-451016D01*
D02*
G37*
G36*
X107000Y-388470D02*
X106086Y-388590D01*
X105235Y-388943D01*
X104504Y-389504D01*
X103943Y-390235D01*
X103590Y-391086D01*
X103470Y-392000D01*
X103590Y-392914D01*
X103943Y-393765D01*
X104504Y-394496D01*
X105235Y-395057D01*
X106086Y-395410D01*
X106914Y-395519D01*
X115451Y-404056D01*
Y-441000D01*
X115645Y-441975D01*
X116198Y-442802D01*
X121198Y-447802D01*
X122025Y-448355D01*
X123000Y-448549D01*
X128944D01*
X129784Y-449389D01*
X129592Y-449850D01*
X127500D01*
Y-454000D01*
Y-458150D01*
X131150D01*
X131451Y-458525D01*
Y-464659D01*
X130988Y-464749D01*
X130982Y-464750D01*
X130890Y-464288D01*
X130848Y-463969D01*
X130450Y-463008D01*
X129817Y-462183D01*
X128992Y-461550D01*
X128031Y-461152D01*
X127000Y-461016D01*
X125969Y-461152D01*
X125008Y-461550D01*
X124183Y-462183D01*
X123550Y-463008D01*
X123152Y-463969D01*
X123016Y-465000D01*
X123152Y-466031D01*
X123550Y-466992D01*
X124183Y-467817D01*
X125008Y-468450D01*
X125969Y-468848D01*
X127000Y-468984D01*
X128031Y-468848D01*
X128992Y-468450D01*
X129817Y-467817D01*
X130450Y-466992D01*
X130848Y-466031D01*
X130890Y-465712D01*
X130982Y-465250D01*
X130988Y-465251D01*
X131451Y-465341D01*
Y-470204D01*
X121914Y-479741D01*
X121086Y-479850D01*
X120235Y-480203D01*
X119504Y-480764D01*
X118943Y-481495D01*
X118590Y-482346D01*
X118470Y-483260D01*
X118590Y-484173D01*
X118943Y-485025D01*
X119504Y-485756D01*
X120235Y-486317D01*
X121086Y-486670D01*
X122000Y-486790D01*
X122914Y-486670D01*
X123765Y-486317D01*
X124496Y-485756D01*
X125057Y-485025D01*
X125410Y-484173D01*
X125519Y-483346D01*
X135802Y-473062D01*
X136355Y-472235D01*
X136549Y-471260D01*
Y-450000D01*
X136355Y-449024D01*
X135802Y-448198D01*
X131802Y-444198D01*
X130975Y-443645D01*
X130000Y-443451D01*
X124056D01*
X120549Y-439944D01*
Y-403000D01*
X120355Y-402025D01*
X119802Y-401198D01*
X110519Y-391914D01*
X110410Y-391086D01*
X110057Y-390235D01*
X109496Y-389504D01*
X108765Y-388943D01*
X107914Y-388590D01*
X107000Y-388470D01*
D02*
G37*
G36*
X73500Y-465469D02*
Y-467500D01*
X75531D01*
X75508Y-467328D01*
X75249Y-466702D01*
X74836Y-466164D01*
X74299Y-465751D01*
X73672Y-465491D01*
X73500Y-465469D01*
D02*
G37*
G36*
X72500D02*
X72328Y-465491D01*
X71702Y-465751D01*
X71164Y-466164D01*
X70751Y-466702D01*
X70491Y-467328D01*
X70469Y-467500D01*
X72500D01*
Y-465469D01*
D02*
G37*
G36*
X54150Y-468469D02*
Y-470500D01*
X56181D01*
X56158Y-470328D01*
X55899Y-469701D01*
X55486Y-469164D01*
X54948Y-468751D01*
X54322Y-468492D01*
X54150Y-468469D01*
D02*
G37*
G36*
X53150D02*
X52977Y-468492D01*
X52351Y-468751D01*
X51813Y-469164D01*
X51401Y-469701D01*
X51141Y-470328D01*
X51118Y-470500D01*
X53150D01*
Y-468469D01*
D02*
G37*
G36*
X75531Y-468500D02*
X73500D01*
Y-470531D01*
X73672Y-470508D01*
X74299Y-470249D01*
X74836Y-469836D01*
X75249Y-469299D01*
X75508Y-468672D01*
X75531Y-468500D01*
D02*
G37*
G36*
X72500D02*
X70469D01*
X70491Y-468672D01*
X70751Y-469299D01*
X71164Y-469836D01*
X71702Y-470249D01*
X72328Y-470508D01*
X72500Y-470531D01*
Y-468500D01*
D02*
G37*
G36*
X53000Y-440016D02*
X51969Y-440152D01*
X51008Y-440550D01*
X50183Y-441183D01*
X49550Y-442008D01*
X49152Y-442969D01*
X49016Y-444000D01*
X49152Y-445031D01*
X49550Y-445992D01*
X50183Y-446817D01*
X51008Y-447450D01*
X51969Y-447848D01*
X53000Y-447984D01*
X54031Y-447848D01*
X54493Y-447656D01*
X59050Y-452213D01*
Y-458950D01*
X66950D01*
Y-456529D01*
X75926D01*
X85050Y-465654D01*
Y-468950D01*
X90787D01*
X94919Y-473081D01*
X95415Y-473413D01*
X96000Y-473529D01*
X114000D01*
X114585Y-473413D01*
X115081Y-473081D01*
X118081Y-470081D01*
X118413Y-469585D01*
X118529Y-469000D01*
Y-468950D01*
X120950D01*
Y-461050D01*
X113050D01*
Y-468950D01*
X114234D01*
X114426Y-469412D01*
X113366Y-470471D01*
X96633D01*
X92950Y-466787D01*
Y-461050D01*
X85050D01*
X85050Y-461050D01*
Y-461050D01*
X84609Y-460887D01*
X77640Y-453919D01*
X77144Y-453587D01*
X76559Y-453471D01*
X66950D01*
Y-451050D01*
X62213D01*
X59574Y-448412D01*
X59766Y-447950D01*
X66950D01*
Y-440050D01*
X59050D01*
Y-447234D01*
X58588Y-447426D01*
X56656Y-445494D01*
X56848Y-445031D01*
X56984Y-444000D01*
X56848Y-442969D01*
X56450Y-442008D01*
X55817Y-441183D01*
X54992Y-440550D01*
X54031Y-440152D01*
X53000Y-440016D01*
D02*
G37*
G36*
X56181Y-471500D02*
X54150D01*
Y-473531D01*
X54322Y-473509D01*
X54948Y-473249D01*
X55486Y-472836D01*
X55899Y-472298D01*
X56158Y-471672D01*
X56181Y-471500D01*
D02*
G37*
G36*
X53150D02*
X51118D01*
X51141Y-471672D01*
X51401Y-472298D01*
X51813Y-472836D01*
X52351Y-473249D01*
X52977Y-473509D01*
X53150Y-473531D01*
Y-471500D01*
D02*
G37*
G36*
X8000Y-469016D02*
X6969Y-469152D01*
X6008Y-469550D01*
X5183Y-470183D01*
X4550Y-471008D01*
X4152Y-471969D01*
X4016Y-473000D01*
X4152Y-474031D01*
X4550Y-474992D01*
X5183Y-475817D01*
X6008Y-476450D01*
X6969Y-476848D01*
X8000Y-476984D01*
X9031Y-476848D01*
X9992Y-476450D01*
X10817Y-475817D01*
X11450Y-474992D01*
X11848Y-474031D01*
X11984Y-473000D01*
X11848Y-471969D01*
X11450Y-471008D01*
X10817Y-470183D01*
X9992Y-469550D01*
X9031Y-469152D01*
X8000Y-469016D01*
D02*
G37*
G36*
X105500Y-476469D02*
Y-478500D01*
X107531D01*
X107509Y-478328D01*
X107249Y-477702D01*
X106836Y-477164D01*
X106298Y-476751D01*
X105672Y-476491D01*
X105500Y-476469D01*
D02*
G37*
G36*
X104500D02*
X104328Y-476491D01*
X103701Y-476751D01*
X103164Y-477164D01*
X102751Y-477702D01*
X102491Y-478328D01*
X102469Y-478500D01*
X104500D01*
Y-476469D01*
D02*
G37*
G36*
X37887Y-440050D02*
X29987D01*
Y-447950D01*
X32408D01*
Y-451359D01*
X31945Y-451550D01*
X31120Y-452183D01*
X30487Y-453008D01*
X30089Y-453969D01*
X29953Y-455000D01*
X30089Y-456031D01*
X30487Y-456992D01*
X31120Y-457817D01*
X31945Y-458450D01*
X32408Y-458641D01*
Y-480430D01*
X32048Y-480789D01*
X32000Y-480779D01*
X31150Y-480948D01*
X30430Y-481430D01*
X29948Y-482150D01*
X29779Y-483000D01*
X29948Y-483850D01*
X30430Y-484570D01*
X30326Y-485102D01*
X30164Y-485227D01*
X29751Y-485765D01*
X29491Y-486391D01*
X29469Y-486563D01*
X34531D01*
X34508Y-486391D01*
X34249Y-485765D01*
X33836Y-485227D01*
X33674Y-485102D01*
X33570Y-484570D01*
X34052Y-483850D01*
X34221Y-483000D01*
X34211Y-482952D01*
X35019Y-482144D01*
X35350Y-481648D01*
X35466Y-481063D01*
Y-458641D01*
X35929Y-458450D01*
X36754Y-457817D01*
X37387Y-456992D01*
X37785Y-456031D01*
X37921Y-455000D01*
X37785Y-453969D01*
X37387Y-453008D01*
X36754Y-452183D01*
X35929Y-451550D01*
X35466Y-451359D01*
Y-447950D01*
X37887D01*
Y-440050D01*
D02*
G37*
G36*
X91752Y-479469D02*
Y-481500D01*
X93783D01*
X93761Y-481328D01*
X93501Y-480701D01*
X93088Y-480164D01*
X92550Y-479751D01*
X91924Y-479492D01*
X91752Y-479469D01*
D02*
G37*
G36*
X90752D02*
X90580Y-479492D01*
X89954Y-479751D01*
X89416Y-480164D01*
X89003Y-480701D01*
X88743Y-481328D01*
X88721Y-481500D01*
X90752D01*
Y-479469D01*
D02*
G37*
G36*
X107531Y-479500D02*
X105500D01*
Y-481531D01*
X105672Y-481508D01*
X106298Y-481249D01*
X106836Y-480836D01*
X107249Y-480299D01*
X107509Y-479672D01*
X107531Y-479500D01*
D02*
G37*
G36*
X104500D02*
X102469D01*
X102491Y-479672D01*
X102751Y-480299D01*
X103164Y-480836D01*
X103701Y-481249D01*
X104328Y-481508D01*
X104500Y-481531D01*
Y-479500D01*
D02*
G37*
G36*
X12150Y-478850D02*
X8500D01*
Y-482500D01*
X12150D01*
Y-478850D01*
D02*
G37*
G36*
X23500Y-480469D02*
Y-482500D01*
X25531D01*
X25508Y-482328D01*
X25249Y-481702D01*
X24836Y-481164D01*
X24298Y-480751D01*
X23672Y-480491D01*
X23500Y-480469D01*
D02*
G37*
G36*
X7500Y-478850D02*
X3850D01*
Y-482500D01*
X7500D01*
Y-478850D01*
D02*
G37*
G36*
X93783Y-482500D02*
X91752D01*
Y-484531D01*
X91924Y-484509D01*
X92550Y-484249D01*
X93088Y-483836D01*
X93501Y-483298D01*
X93761Y-482672D01*
X93783Y-482500D01*
D02*
G37*
G36*
X90752D02*
X88721D01*
X88743Y-482672D01*
X89003Y-483298D01*
X89416Y-483836D01*
X89954Y-484249D01*
X90580Y-484509D01*
X90752Y-484531D01*
Y-482500D01*
D02*
G37*
G36*
X60000Y-470212D02*
X59150Y-470381D01*
X58430Y-470863D01*
X57948Y-471583D01*
X57779Y-472433D01*
X57948Y-473283D01*
X58430Y-474003D01*
X58471Y-474031D01*
Y-481402D01*
X58430Y-481430D01*
X57948Y-482150D01*
X57779Y-483000D01*
X57948Y-483850D01*
X58430Y-484570D01*
X59150Y-485052D01*
X60000Y-485221D01*
X60850Y-485052D01*
X61570Y-484570D01*
X62052Y-483850D01*
X62221Y-483000D01*
X62052Y-482150D01*
X61570Y-481430D01*
X61529Y-481402D01*
Y-474031D01*
X61570Y-474003D01*
X62052Y-473283D01*
X62221Y-472433D01*
X62052Y-471583D01*
X61570Y-470863D01*
X60850Y-470381D01*
X60000Y-470212D01*
D02*
G37*
G36*
X25531Y-483500D02*
X23500D01*
Y-485531D01*
X23672Y-485508D01*
X24298Y-485249D01*
X24836Y-484836D01*
X25249Y-484299D01*
X25508Y-483672D01*
X25531Y-483500D01*
D02*
G37*
G36*
X22500D02*
X20469D01*
X20492Y-483672D01*
X20751Y-484299D01*
X21164Y-484836D01*
X21701Y-485249D01*
X22328Y-485508D01*
X22500Y-485531D01*
Y-483500D01*
D02*
G37*
G36*
X12150D02*
X8500D01*
Y-487150D01*
X12150D01*
Y-483500D01*
D02*
G37*
G36*
X7500D02*
X3850D01*
Y-487150D01*
X7500D01*
Y-483500D01*
D02*
G37*
G36*
X131500Y-485469D02*
Y-487500D01*
X133531D01*
X133509Y-487328D01*
X133249Y-486701D01*
X132836Y-486164D01*
X132299Y-485751D01*
X131672Y-485492D01*
X131500Y-485469D01*
D02*
G37*
G36*
X130500D02*
X130328Y-485492D01*
X129701Y-485751D01*
X129164Y-486164D01*
X128751Y-486701D01*
X128491Y-487328D01*
X128469Y-487500D01*
X130500D01*
Y-485469D01*
D02*
G37*
G36*
X34531Y-487563D02*
X32500D01*
Y-489594D01*
X32672Y-489572D01*
X33299Y-489312D01*
X33836Y-488899D01*
X34249Y-488362D01*
X34508Y-487735D01*
X34531Y-487563D01*
D02*
G37*
G36*
X31500D02*
X29469D01*
X29491Y-487735D01*
X29751Y-488362D01*
X30164Y-488899D01*
X30702Y-489312D01*
X31328Y-489572D01*
X31500Y-489594D01*
Y-487563D01*
D02*
G37*
G36*
X133531Y-488500D02*
X131500D01*
Y-490531D01*
X131672Y-490509D01*
X132299Y-490249D01*
X132836Y-489836D01*
X133249Y-489298D01*
X133509Y-488672D01*
X133531Y-488500D01*
D02*
G37*
G36*
X130500D02*
X128469D01*
X128491Y-488672D01*
X128751Y-489298D01*
X129164Y-489836D01*
X129701Y-490249D01*
X130328Y-490509D01*
X130500Y-490531D01*
Y-488500D01*
D02*
G37*
G36*
X53500Y-490469D02*
Y-492500D01*
X55531D01*
X55509Y-492328D01*
X55249Y-491702D01*
X54836Y-491164D01*
X54299Y-490751D01*
X53672Y-490491D01*
X53500Y-490469D01*
D02*
G37*
G36*
X52500D02*
X52328Y-490491D01*
X51701Y-490751D01*
X51164Y-491164D01*
X50751Y-491702D01*
X50491Y-492328D01*
X50469Y-492500D01*
X52500D01*
Y-490469D01*
D02*
G37*
G36*
X91500Y-493469D02*
Y-495500D01*
X93531D01*
X93508Y-495328D01*
X93249Y-494701D01*
X92836Y-494164D01*
X92299Y-493751D01*
X91672Y-493492D01*
X91500Y-493469D01*
D02*
G37*
G36*
X90500D02*
X90328Y-493492D01*
X89701Y-493751D01*
X89164Y-494164D01*
X88751Y-494701D01*
X88491Y-495328D01*
X88469Y-495500D01*
X90500D01*
Y-493469D01*
D02*
G37*
G36*
X55531Y-493500D02*
X53500D01*
Y-495531D01*
X53672Y-495508D01*
X54299Y-495249D01*
X54836Y-494836D01*
X55249Y-494299D01*
X55509Y-493672D01*
X55531Y-493500D01*
D02*
G37*
G36*
X52500D02*
X50469D01*
X50491Y-493672D01*
X50751Y-494299D01*
X51164Y-494836D01*
X51701Y-495249D01*
X52328Y-495508D01*
X52500Y-495531D01*
Y-493500D01*
D02*
G37*
G36*
X93531Y-496500D02*
X91500D01*
Y-498531D01*
X91672Y-498509D01*
X92299Y-498249D01*
X92836Y-497836D01*
X93249Y-497298D01*
X93508Y-496672D01*
X93531Y-496500D01*
D02*
G37*
G36*
X90500D02*
X88469D01*
X88491Y-496672D01*
X88751Y-497298D01*
X89164Y-497836D01*
X89701Y-498249D01*
X90328Y-498509D01*
X90500Y-498531D01*
Y-496500D01*
D02*
G37*
G36*
X8000Y-494016D02*
X6969Y-494152D01*
X6008Y-494550D01*
X5183Y-495183D01*
X4550Y-496008D01*
X4152Y-496969D01*
X4016Y-498000D01*
X4152Y-499031D01*
X4550Y-499992D01*
X5183Y-500817D01*
X6008Y-501450D01*
X6969Y-501848D01*
X8000Y-501984D01*
X9031Y-501848D01*
X9992Y-501450D01*
X10817Y-500817D01*
X11450Y-499992D01*
X11848Y-499031D01*
X11984Y-498000D01*
X11848Y-496969D01*
X11450Y-496008D01*
X10817Y-495183D01*
X9992Y-494550D01*
X9031Y-494152D01*
X8000Y-494016D01*
D02*
G37*
G36*
X119110Y-500469D02*
Y-502500D01*
X121141D01*
X121119Y-502328D01*
X120859Y-501701D01*
X120447Y-501164D01*
X119909Y-500751D01*
X119282Y-500492D01*
X119110Y-500469D01*
D02*
G37*
G36*
X118110D02*
X117938Y-500492D01*
X117312Y-500751D01*
X116774Y-501164D01*
X116361Y-501701D01*
X116102Y-502328D01*
X116079Y-502500D01*
X118110D01*
Y-500469D01*
D02*
G37*
G36*
X73500D02*
Y-502500D01*
X75531D01*
X75508Y-502328D01*
X75249Y-501701D01*
X74836Y-501164D01*
X74299Y-500751D01*
X73672Y-500492D01*
X73500Y-500469D01*
D02*
G37*
G36*
X72500D02*
X72328Y-500492D01*
X71702Y-500751D01*
X71164Y-501164D01*
X70751Y-501701D01*
X70491Y-502328D01*
X70469Y-502500D01*
X72500D01*
Y-500469D01*
D02*
G37*
G36*
X121141Y-503500D02*
X119110D01*
Y-505531D01*
X119282Y-505509D01*
X119909Y-505249D01*
X120447Y-504836D01*
X120859Y-504298D01*
X121119Y-503672D01*
X121141Y-503500D01*
D02*
G37*
G36*
X118110D02*
X116079D01*
X116102Y-503672D01*
X116361Y-504298D01*
X116774Y-504836D01*
X117312Y-505249D01*
X117938Y-505509D01*
X118110Y-505531D01*
Y-503500D01*
D02*
G37*
G36*
X75531D02*
X73500D01*
Y-505531D01*
X73672Y-505509D01*
X74299Y-505249D01*
X74836Y-504836D01*
X75249Y-504298D01*
X75508Y-503672D01*
X75531Y-503500D01*
D02*
G37*
G36*
X72500D02*
X70469D01*
X70491Y-503672D01*
X70751Y-504298D01*
X71164Y-504836D01*
X71702Y-505249D01*
X72328Y-505509D01*
X72500Y-505531D01*
Y-503500D01*
D02*
G37*
G36*
X12150Y-503850D02*
X8500D01*
Y-507500D01*
X12150D01*
Y-503850D01*
D02*
G37*
G36*
X7500D02*
X3850D01*
Y-507500D01*
X7500D01*
Y-503850D01*
D02*
G37*
G36*
X132000Y-500016D02*
X130969Y-500152D01*
X130008Y-500550D01*
X129183Y-501183D01*
X128550Y-502008D01*
X128152Y-502969D01*
X128016Y-504000D01*
X128152Y-505031D01*
X128550Y-505992D01*
X129183Y-506817D01*
X130008Y-507450D01*
X130969Y-507848D01*
X132000Y-507984D01*
X133031Y-507848D01*
X133992Y-507450D01*
X134817Y-506817D01*
X135450Y-505992D01*
X135848Y-505031D01*
X135984Y-504000D01*
X135848Y-502969D01*
X135450Y-502008D01*
X134817Y-501183D01*
X133992Y-500550D01*
X133031Y-500152D01*
X132000Y-500016D01*
D02*
G37*
G36*
X19500Y-506469D02*
Y-508500D01*
X21531D01*
X21508Y-508328D01*
X21249Y-507701D01*
X20836Y-507164D01*
X20299Y-506751D01*
X19672Y-506492D01*
X19500Y-506469D01*
D02*
G37*
G36*
X18500D02*
X18328Y-506492D01*
X17702Y-506751D01*
X17164Y-507164D01*
X16751Y-507701D01*
X16491Y-508328D01*
X16469Y-508500D01*
X18500D01*
Y-506469D01*
D02*
G37*
G36*
X21531Y-509500D02*
X19500D01*
Y-511531D01*
X19672Y-511509D01*
X20299Y-511249D01*
X20836Y-510836D01*
X21249Y-510298D01*
X21508Y-509672D01*
X21531Y-509500D01*
D02*
G37*
G36*
X18500D02*
X16469D01*
X16491Y-509672D01*
X16751Y-510298D01*
X17164Y-510836D01*
X17702Y-511249D01*
X18328Y-511509D01*
X18500Y-511531D01*
Y-509500D01*
D02*
G37*
G36*
X12150Y-508500D02*
X8500D01*
Y-512150D01*
X12150D01*
Y-508500D01*
D02*
G37*
G36*
X7500D02*
X3850D01*
Y-512150D01*
X7500D01*
Y-508500D01*
D02*
G37*
G36*
X136150Y-509850D02*
X132500D01*
Y-513500D01*
X136150D01*
Y-509850D01*
D02*
G37*
G36*
X131500D02*
X127850D01*
Y-513500D01*
X131500D01*
Y-509850D01*
D02*
G37*
G36*
X85059Y-512399D02*
Y-513823D01*
X86483D01*
X86428Y-513549D01*
X85990Y-512892D01*
X85333Y-512454D01*
X85059Y-512399D01*
D02*
G37*
G36*
X84059D02*
X83785Y-512454D01*
X83128Y-512892D01*
X82690Y-513549D01*
X82635Y-513823D01*
X84059D01*
Y-512399D01*
D02*
G37*
G36*
X79941D02*
Y-513823D01*
X81365D01*
X81310Y-513549D01*
X80871Y-512892D01*
X80215Y-512454D01*
X79941Y-512399D01*
D02*
G37*
G36*
X78941D02*
X78667Y-512454D01*
X78010Y-512892D01*
X77572Y-513549D01*
X77517Y-513823D01*
X78941D01*
Y-512399D01*
D02*
G37*
G36*
X86483Y-514823D02*
X85059D01*
Y-516247D01*
X85333Y-516192D01*
X85990Y-515753D01*
X86428Y-515097D01*
X86483Y-514823D01*
D02*
G37*
G36*
X84059D02*
X82635D01*
X82690Y-515097D01*
X83128Y-515753D01*
X83785Y-516192D01*
X84059Y-516247D01*
Y-514823D01*
D02*
G37*
G36*
X81365D02*
X79941D01*
Y-516247D01*
X80215Y-516192D01*
X80871Y-515753D01*
X81310Y-515097D01*
X81365Y-514823D01*
D02*
G37*
G36*
X78941D02*
X77517D01*
X77572Y-515097D01*
X78010Y-515753D01*
X78667Y-516192D01*
X78941Y-516247D01*
Y-514823D01*
D02*
G37*
G36*
X136150Y-514500D02*
X132500D01*
Y-518150D01*
X136150D01*
Y-514500D01*
D02*
G37*
G36*
X131500D02*
X127850D01*
Y-518150D01*
X131500D01*
Y-514500D01*
D02*
G37*
G36*
X121563Y-516532D02*
Y-518563D01*
X123594D01*
X123572Y-518391D01*
X123312Y-517765D01*
X122899Y-517227D01*
X122362Y-516814D01*
X121735Y-516554D01*
X121563Y-516532D01*
D02*
G37*
G36*
X120563D02*
X120391Y-516554D01*
X119764Y-516814D01*
X119227Y-517227D01*
X118814Y-517765D01*
X118554Y-518391D01*
X118532Y-518563D01*
X120563D01*
Y-516532D01*
D02*
G37*
G36*
X77000Y-485779D02*
X76150Y-485948D01*
X75430Y-486430D01*
X74948Y-487150D01*
X74779Y-488000D01*
X74948Y-488850D01*
X75430Y-489570D01*
X75471Y-489598D01*
Y-491366D01*
X48048Y-518789D01*
X48000Y-518779D01*
X47150Y-518948D01*
X46430Y-519430D01*
X45948Y-520150D01*
X45779Y-521000D01*
X45948Y-521850D01*
X46430Y-522570D01*
X47150Y-523052D01*
X48000Y-523221D01*
X48850Y-523052D01*
X49570Y-522570D01*
X50052Y-521850D01*
X50221Y-521000D01*
X50211Y-520952D01*
X78081Y-493081D01*
X78413Y-492585D01*
X78529Y-492000D01*
Y-489598D01*
X78570Y-489570D01*
X79052Y-488850D01*
X79221Y-488000D01*
X79052Y-487150D01*
X78570Y-486430D01*
X77850Y-485948D01*
X77000Y-485779D01*
D02*
G37*
G36*
X85059Y-517517D02*
Y-518941D01*
X86483D01*
X86428Y-518667D01*
X85990Y-518010D01*
X85333Y-517572D01*
X85059Y-517517D01*
D02*
G37*
G36*
X84059D02*
X83785Y-517572D01*
X83128Y-518010D01*
X82690Y-518667D01*
X82635Y-518941D01*
X84059D01*
Y-517517D01*
D02*
G37*
G36*
X79941D02*
Y-518941D01*
X81365D01*
X81310Y-518667D01*
X80871Y-518010D01*
X80215Y-517572D01*
X79941Y-517517D01*
D02*
G37*
G36*
X78941D02*
X78667Y-517572D01*
X78010Y-518010D01*
X77572Y-518667D01*
X77517Y-518941D01*
X78941D01*
Y-517517D01*
D02*
G37*
G36*
X86483Y-519941D02*
X85059D01*
Y-521365D01*
X85333Y-521310D01*
X85990Y-520871D01*
X86428Y-520215D01*
X86483Y-519941D01*
D02*
G37*
G36*
X84059D02*
X82635D01*
X82690Y-520215D01*
X83128Y-520871D01*
X83785Y-521310D01*
X84059Y-521365D01*
Y-519941D01*
D02*
G37*
G36*
X81365D02*
X79941D01*
Y-521365D01*
X80215Y-521310D01*
X80871Y-520871D01*
X81310Y-520215D01*
X81365Y-519941D01*
D02*
G37*
G36*
X78941D02*
X77517D01*
X77572Y-520215D01*
X78010Y-520871D01*
X78667Y-521310D01*
X78941Y-521365D01*
Y-519941D01*
D02*
G37*
G36*
X123594Y-519563D02*
X121563D01*
Y-521594D01*
X121735Y-521571D01*
X122362Y-521312D01*
X122899Y-520899D01*
X123312Y-520362D01*
X123572Y-519735D01*
X123594Y-519563D01*
D02*
G37*
G36*
X120563D02*
X118532D01*
X118554Y-519735D01*
X118814Y-520362D01*
X119227Y-520899D01*
X119764Y-521312D01*
X120391Y-521571D01*
X120563Y-521594D01*
Y-519563D01*
D02*
G37*
G36*
X85059Y-522635D02*
Y-524059D01*
X86483D01*
X86428Y-523785D01*
X85990Y-523129D01*
X85333Y-522690D01*
X85059Y-522635D01*
D02*
G37*
G36*
X84059D02*
X83785Y-522690D01*
X83128Y-523129D01*
X82690Y-523785D01*
X82635Y-524059D01*
X84059D01*
Y-522635D01*
D02*
G37*
G36*
X79941D02*
Y-524059D01*
X81365D01*
X81310Y-523785D01*
X80871Y-523129D01*
X80215Y-522690D01*
X79941Y-522635D01*
D02*
G37*
G36*
X78941D02*
X78667Y-522690D01*
X78010Y-523129D01*
X77572Y-523785D01*
X77517Y-524059D01*
X78941D01*
Y-522635D01*
D02*
G37*
G36*
X86483Y-525059D02*
X85059D01*
Y-526483D01*
X85333Y-526428D01*
X85990Y-525990D01*
X86428Y-525333D01*
X86483Y-525059D01*
D02*
G37*
G36*
X84059D02*
X82635D01*
X82690Y-525333D01*
X83128Y-525990D01*
X83785Y-526428D01*
X84059Y-526483D01*
Y-525059D01*
D02*
G37*
G36*
X81365D02*
X79941D01*
Y-526483D01*
X80215Y-526428D01*
X80871Y-525990D01*
X81310Y-525333D01*
X81365Y-525059D01*
D02*
G37*
G36*
X78941D02*
X77517D01*
X77572Y-525333D01*
X78010Y-525990D01*
X78667Y-526428D01*
X78941Y-526483D01*
Y-525059D01*
D02*
G37*
G36*
X8000Y-519016D02*
X6969Y-519152D01*
X6008Y-519550D01*
X5183Y-520183D01*
X4550Y-521008D01*
X4152Y-521969D01*
X4016Y-523000D01*
X4152Y-524031D01*
X4550Y-524992D01*
X5183Y-525817D01*
X6008Y-526450D01*
X6969Y-526848D01*
X8000Y-526984D01*
X9031Y-526848D01*
X9992Y-526450D01*
X10817Y-525817D01*
X11450Y-524992D01*
X11848Y-524031D01*
X11984Y-523000D01*
X11848Y-521969D01*
X11450Y-521008D01*
X10817Y-520183D01*
X9992Y-519550D01*
X9031Y-519152D01*
X8000Y-519016D01*
D02*
G37*
G36*
X85059Y-527753D02*
Y-529177D01*
X86483D01*
X86428Y-528903D01*
X85990Y-528247D01*
X85333Y-527808D01*
X85059Y-527753D01*
D02*
G37*
G36*
X84059D02*
X83785Y-527808D01*
X83128Y-528247D01*
X82690Y-528903D01*
X82635Y-529177D01*
X84059D01*
Y-527753D01*
D02*
G37*
G36*
X79941D02*
Y-529177D01*
X81365D01*
X81310Y-528903D01*
X80871Y-528247D01*
X80215Y-527808D01*
X79941Y-527753D01*
D02*
G37*
G36*
X78941D02*
X78667Y-527808D01*
X78010Y-528247D01*
X77572Y-528903D01*
X77517Y-529177D01*
X78941D01*
Y-527753D01*
D02*
G37*
G36*
X88563Y-501779D02*
X87713Y-501948D01*
X86993Y-502430D01*
X86511Y-503150D01*
X86342Y-504000D01*
X86511Y-504850D01*
X86993Y-505570D01*
X87713Y-506052D01*
X88563Y-506221D01*
X89413Y-506052D01*
X90133Y-505570D01*
X90161Y-505529D01*
X93366D01*
X99471Y-511633D01*
Y-526403D01*
X99430Y-526430D01*
X98948Y-527150D01*
X98779Y-528000D01*
X98948Y-528850D01*
X99430Y-529570D01*
X100150Y-530052D01*
X101000Y-530221D01*
X101850Y-530052D01*
X102570Y-529570D01*
X103052Y-528850D01*
X103221Y-528000D01*
X103052Y-527150D01*
X102570Y-526430D01*
X102529Y-526403D01*
Y-511000D01*
X102413Y-510415D01*
X102081Y-509918D01*
X95081Y-502919D01*
X94585Y-502587D01*
X94000Y-502471D01*
X90161D01*
X90133Y-502430D01*
X89413Y-501948D01*
X88563Y-501779D01*
D02*
G37*
G36*
X66500Y-528469D02*
Y-530500D01*
X68531D01*
X68508Y-530328D01*
X68249Y-529702D01*
X67836Y-529164D01*
X67299Y-528751D01*
X66672Y-528491D01*
X66500Y-528469D01*
D02*
G37*
G36*
X65500D02*
X65328Y-528491D01*
X64701Y-528751D01*
X64164Y-529164D01*
X63751Y-529702D01*
X63491Y-530328D01*
X63469Y-530500D01*
X65500D01*
Y-528469D01*
D02*
G37*
G36*
X86483Y-530177D02*
X85059D01*
Y-531601D01*
X85333Y-531546D01*
X85990Y-531108D01*
X86428Y-530451D01*
X86483Y-530177D01*
D02*
G37*
G36*
X84059D02*
X82635D01*
X82690Y-530451D01*
X83128Y-531108D01*
X83785Y-531546D01*
X84059Y-531601D01*
Y-530177D01*
D02*
G37*
G36*
X81365D02*
X79941D01*
Y-531601D01*
X80215Y-531546D01*
X80871Y-531108D01*
X81310Y-530451D01*
X81365Y-530177D01*
D02*
G37*
G36*
X78941D02*
X77517D01*
X77572Y-530451D01*
X78010Y-531108D01*
X78667Y-531546D01*
X78941Y-531601D01*
Y-530177D01*
D02*
G37*
G36*
X12150Y-528850D02*
X8500D01*
Y-532500D01*
X12150D01*
Y-528850D01*
D02*
G37*
G36*
X133500Y-530469D02*
Y-532500D01*
X135531D01*
X135509Y-532328D01*
X135249Y-531702D01*
X134836Y-531164D01*
X134299Y-530751D01*
X133672Y-530491D01*
X133500Y-530469D01*
D02*
G37*
G36*
X132500D02*
X132328Y-530491D01*
X131702Y-530751D01*
X131164Y-531164D01*
X130751Y-531702D01*
X130491Y-532328D01*
X130469Y-532500D01*
X132500D01*
Y-530469D01*
D02*
G37*
G36*
X42563D02*
Y-532500D01*
X44594D01*
X44572Y-532328D01*
X44312Y-531702D01*
X43899Y-531164D01*
X43361Y-530751D01*
X42735Y-530491D01*
X42563Y-530469D01*
D02*
G37*
G36*
X41563D02*
X41391Y-530491D01*
X40764Y-530751D01*
X40227Y-531164D01*
X39814Y-531702D01*
X39555Y-532328D01*
X39532Y-532500D01*
X41563D01*
Y-530469D01*
D02*
G37*
G36*
X7500Y-528850D02*
X3850D01*
Y-532500D01*
X7500D01*
Y-528850D01*
D02*
G37*
G36*
X68531Y-531500D02*
X66500D01*
Y-533531D01*
X66672Y-533508D01*
X67299Y-533249D01*
X67836Y-532836D01*
X68249Y-532299D01*
X68508Y-531672D01*
X68531Y-531500D01*
D02*
G37*
G36*
X65500D02*
X63469D01*
X63491Y-531672D01*
X63751Y-532299D01*
X64164Y-532836D01*
X64701Y-533249D01*
X65328Y-533508D01*
X65500Y-533531D01*
Y-531500D01*
D02*
G37*
G36*
X31500Y-532874D02*
Y-534905D01*
X33531D01*
X33509Y-534733D01*
X33249Y-534107D01*
X32836Y-533569D01*
X32298Y-533156D01*
X31672Y-532897D01*
X31500Y-532874D01*
D02*
G37*
G36*
X30500D02*
X30328Y-532897D01*
X29702Y-533156D01*
X29164Y-533569D01*
X28751Y-534107D01*
X28492Y-534733D01*
X28469Y-534905D01*
X30500D01*
Y-532874D01*
D02*
G37*
G36*
X102500Y-533469D02*
Y-535500D01*
X104531D01*
X104508Y-535328D01*
X104249Y-534701D01*
X103836Y-534164D01*
X103298Y-533751D01*
X102672Y-533492D01*
X102500Y-533469D01*
D02*
G37*
G36*
X101500D02*
X101328Y-533492D01*
X100701Y-533751D01*
X100164Y-534164D01*
X99751Y-534701D01*
X99492Y-535328D01*
X99469Y-535500D01*
X101500D01*
Y-533469D01*
D02*
G37*
G36*
X62882D02*
Y-535500D01*
X64913D01*
X64890Y-535328D01*
X64631Y-534701D01*
X64218Y-534164D01*
X63680Y-533751D01*
X63054Y-533492D01*
X62882Y-533469D01*
D02*
G37*
G36*
X61882D02*
X61710Y-533492D01*
X61083Y-533751D01*
X60545Y-534164D01*
X60133Y-534701D01*
X59873Y-535328D01*
X59851Y-535500D01*
X61882D01*
Y-533469D01*
D02*
G37*
G36*
X135531Y-533500D02*
X133500D01*
Y-535531D01*
X133672Y-535508D01*
X134299Y-535249D01*
X134836Y-534836D01*
X135249Y-534299D01*
X135509Y-533672D01*
X135531Y-533500D01*
D02*
G37*
G36*
X132500D02*
X130469D01*
X130491Y-533672D01*
X130751Y-534299D01*
X131164Y-534836D01*
X131702Y-535249D01*
X132328Y-535508D01*
X132500Y-535531D01*
Y-533500D01*
D02*
G37*
G36*
X44594D02*
X42563D01*
Y-535531D01*
X42735Y-535508D01*
X43361Y-535249D01*
X43899Y-534836D01*
X44312Y-534299D01*
X44572Y-533672D01*
X44594Y-533500D01*
D02*
G37*
G36*
X41563D02*
X39532D01*
X39555Y-533672D01*
X39814Y-534299D01*
X40227Y-534836D01*
X40764Y-535249D01*
X41391Y-535508D01*
X41563Y-535531D01*
Y-533500D01*
D02*
G37*
G36*
X12150D02*
X8500D01*
Y-537150D01*
X12150D01*
Y-533500D01*
D02*
G37*
G36*
X7500D02*
X3850D01*
Y-537150D01*
X7500D01*
Y-533500D01*
D02*
G37*
G36*
X33531Y-535906D02*
X31500D01*
Y-537937D01*
X31672Y-537914D01*
X32298Y-537655D01*
X32836Y-537242D01*
X33249Y-536704D01*
X33509Y-536078D01*
X33531Y-535906D01*
D02*
G37*
G36*
X30500D02*
X28469D01*
X28492Y-536078D01*
X28751Y-536704D01*
X29164Y-537242D01*
X29702Y-537655D01*
X30328Y-537914D01*
X30500Y-537937D01*
Y-535906D01*
D02*
G37*
G36*
X104531Y-536500D02*
X102500D01*
Y-538531D01*
X102672Y-538509D01*
X103298Y-538249D01*
X103836Y-537836D01*
X104249Y-537298D01*
X104508Y-536672D01*
X104531Y-536500D01*
D02*
G37*
G36*
X101500D02*
X99469D01*
X99492Y-536672D01*
X99751Y-537298D01*
X100164Y-537836D01*
X100701Y-538249D01*
X101328Y-538509D01*
X101500Y-538531D01*
Y-536500D01*
D02*
G37*
G36*
X64913D02*
X62882D01*
Y-538531D01*
X63054Y-538509D01*
X63680Y-538249D01*
X64218Y-537836D01*
X64631Y-537298D01*
X64890Y-536672D01*
X64913Y-536500D01*
D02*
G37*
G36*
X61882D02*
X59851D01*
X59873Y-536672D01*
X60133Y-537298D01*
X60545Y-537836D01*
X61083Y-538249D01*
X61710Y-538509D01*
X61882Y-538531D01*
Y-536500D01*
D02*
G37*
%LPD*%
D15*
X38945Y-371745D02*
Y-374041D01*
X39404Y-374500D01*
X40322D01*
X40782Y-374041D01*
Y-371745D01*
X41700Y-374500D02*
X42618D01*
X42159D01*
Y-371745D01*
X41700Y-372204D01*
X43996Y-374959D02*
X45832D01*
X46751Y-374500D02*
Y-372663D01*
X47669Y-371745D01*
X48588Y-372663D01*
Y-374500D01*
Y-373123D01*
X46751D01*
X51342Y-374500D02*
X49506D01*
X51342Y-372663D01*
Y-372204D01*
X50883Y-371745D01*
X49965D01*
X49506Y-372204D01*
X77488Y-409721D02*
Y-412017D01*
X77947Y-412476D01*
X78866D01*
X79325Y-412017D01*
Y-409721D01*
X82080D02*
X81161Y-410181D01*
X80243Y-411099D01*
Y-412017D01*
X80702Y-412476D01*
X81621D01*
X82080Y-412017D01*
Y-411558D01*
X81621Y-411099D01*
X80243D01*
X82998Y-412935D02*
X84835D01*
X85753Y-412476D02*
Y-410640D01*
X86672Y-409721D01*
X87590Y-410640D01*
Y-412476D01*
Y-411099D01*
X85753D01*
X90345Y-412476D02*
X88508D01*
X90345Y-410640D01*
Y-410181D01*
X89886Y-409721D01*
X88967D01*
X88508Y-410181D01*
X69807Y-297280D02*
Y-299576D01*
X70266Y-300035D01*
X71185D01*
X71644Y-299576D01*
Y-297280D01*
X74399D02*
X73480Y-297740D01*
X72562Y-298658D01*
Y-299576D01*
X73021Y-300035D01*
X73940D01*
X74399Y-299576D01*
Y-299117D01*
X73940Y-298658D01*
X72562D01*
X75317Y-300495D02*
X77154D01*
X78072Y-300035D02*
Y-298199D01*
X78991Y-297280D01*
X79909Y-298199D01*
Y-300035D01*
Y-298658D01*
X78072D01*
X80827Y-297740D02*
X81286Y-297280D01*
X82205D01*
X82664Y-297740D01*
Y-298199D01*
X82205Y-298658D01*
X81745D01*
X82205D01*
X82664Y-299117D01*
Y-299576D01*
X82205Y-300035D01*
X81286D01*
X80827Y-299576D01*
X76488Y-185721D02*
Y-188017D01*
X76947Y-188476D01*
X77866D01*
X78325Y-188017D01*
Y-185721D01*
X81080D02*
X80161Y-186180D01*
X79243Y-187099D01*
Y-188017D01*
X79702Y-188476D01*
X80621D01*
X81080Y-188017D01*
Y-187558D01*
X80621Y-187099D01*
X79243D01*
X81998Y-188935D02*
X83835D01*
X84753Y-188476D02*
Y-186640D01*
X85672Y-185721D01*
X86590Y-186640D01*
Y-188476D01*
Y-187099D01*
X84753D01*
X88886Y-188476D02*
Y-185721D01*
X87508Y-187099D01*
X89345D01*
X38500Y-150745D02*
Y-153041D01*
X38959Y-153500D01*
X39878D01*
X40337Y-153041D01*
Y-150745D01*
X41255Y-153500D02*
X42173D01*
X41714D01*
Y-150745D01*
X41255Y-151204D01*
X43551Y-153959D02*
X45388D01*
X46306Y-153500D02*
Y-151663D01*
X47224Y-150745D01*
X48143Y-151663D01*
Y-153500D01*
Y-152122D01*
X46306D01*
X50438Y-153500D02*
Y-150745D01*
X49061Y-152122D01*
X50898D01*
X20755Y-51500D02*
X18459D01*
X18000Y-51959D01*
Y-52877D01*
X18459Y-53337D01*
X20755D01*
X18000Y-54255D02*
Y-55173D01*
Y-54714D01*
X20755D01*
X20296Y-54255D01*
Y-56551D02*
X20755Y-57010D01*
Y-57928D01*
X20296Y-58388D01*
X18459D01*
X18000Y-57928D01*
Y-57010D01*
X18459Y-56551D01*
X20296D01*
X18000Y-59306D02*
Y-60224D01*
Y-59765D01*
X20755D01*
X20296Y-59306D01*
X51755Y-59500D02*
X49459D01*
X49000Y-59959D01*
Y-60878D01*
X49459Y-61337D01*
X51755D01*
X49000Y-62255D02*
Y-63173D01*
Y-62714D01*
X51755D01*
X51296Y-62255D01*
Y-64551D02*
X51755Y-65010D01*
Y-65928D01*
X51296Y-66387D01*
X49459D01*
X49000Y-65928D01*
Y-65010D01*
X49459Y-64551D01*
X51296D01*
X49000Y-69143D02*
Y-67306D01*
X50837Y-69143D01*
X51296D01*
X51755Y-68683D01*
Y-67765D01*
X51296Y-67306D01*
X75015Y-136913D02*
X72719D01*
X72260Y-137373D01*
Y-138291D01*
X72719Y-138750D01*
X75015D01*
X72260Y-141046D02*
X75015D01*
X73637Y-139668D01*
Y-141505D01*
X71801Y-142423D02*
Y-144260D01*
X72260Y-145178D02*
X74097D01*
X75015Y-146097D01*
X74097Y-147015D01*
X72260D01*
X73637D01*
Y-145178D01*
X72260Y-149311D02*
X75015D01*
X73637Y-147933D01*
Y-149770D01*
X39563Y-484745D02*
Y-487041D01*
X40022Y-487500D01*
X40940D01*
X41400Y-487041D01*
Y-484745D01*
X42318Y-487500D02*
X43236D01*
X42777D01*
Y-484745D01*
X42318Y-485204D01*
X44614Y-487959D02*
X46450D01*
X47369Y-487500D02*
Y-485663D01*
X48287Y-484745D01*
X49206Y-485663D01*
Y-487500D01*
Y-486123D01*
X47369D01*
X50124Y-487500D02*
X51042D01*
X50583D01*
Y-484745D01*
X50124Y-485204D01*
X76488Y-520721D02*
Y-523017D01*
X76947Y-523476D01*
X77866D01*
X78325Y-523017D01*
Y-520721D01*
X81080D02*
X80161Y-521180D01*
X79243Y-522099D01*
Y-523017D01*
X79702Y-523476D01*
X80621D01*
X81080Y-523017D01*
Y-522558D01*
X80621Y-522099D01*
X79243D01*
X81998Y-523936D02*
X83835D01*
X84753Y-523476D02*
Y-521640D01*
X85672Y-520721D01*
X86590Y-521640D01*
Y-523476D01*
Y-522099D01*
X84753D01*
X87508Y-523476D02*
X88427D01*
X87967D01*
Y-520721D01*
X87508Y-521180D01*
X75015Y-475347D02*
X72719D01*
X72260Y-475806D01*
Y-476724D01*
X72719Y-477183D01*
X75015D01*
X72260Y-479479D02*
X75015D01*
X73637Y-478101D01*
Y-479938D01*
X71801Y-480857D02*
Y-482693D01*
X72260Y-483611D02*
X74097D01*
X75015Y-484530D01*
X74097Y-485448D01*
X72260D01*
X73637D01*
Y-483611D01*
X72260Y-486367D02*
Y-487285D01*
Y-486826D01*
X75015D01*
X74556Y-486367D01*
D17*
X0Y-542000D02*
Y0D01*
Y-542000D02*
X141732D01*
X0Y0D02*
X141732D01*
Y-542000D02*
Y0D01*
D65*
X78000Y-376000D02*
X79000Y-375000D01*
X78000Y-380000D02*
Y-376000D01*
X51000Y-407000D02*
X78000Y-380000D01*
X86000Y-393000D02*
X94000Y-401000D01*
Y-413000D02*
Y-401000D01*
Y-413000D02*
X99000Y-418000D01*
X55063Y-333063D02*
X65000Y-343000D01*
X55063Y-333063D02*
Y-332000D01*
X90500Y-353000D02*
X95500Y-358000D01*
X111000D01*
X116000Y-353000D01*
X113000Y-342000D02*
X116000D01*
X102000Y-353000D02*
X113000Y-342000D01*
X100500Y-353000D02*
X102000D01*
X80500Y-343000D02*
X90500Y-353000D01*
X65000Y-343000D02*
X80500D01*
X55063Y-362063D02*
Y-359000D01*
Y-362063D02*
X61000Y-368000D01*
X32000Y-370260D02*
Y-366000D01*
X33937Y-364063D01*
Y-343000D01*
Y-332000D01*
X30000Y-147000D02*
X31000Y-148000D01*
X62000Y-259000D02*
Y-249173D01*
X31890Y-250110D02*
X34200Y-247800D01*
Y-230200D01*
X34000Y-230000D02*
X34200Y-230200D01*
X92000Y-307000D02*
Y-289000D01*
X82000Y-279000D02*
X92000Y-289000D01*
X73000Y-267000D02*
X75000Y-265000D01*
X69445Y-267000D02*
X73000D01*
X41445Y-295000D02*
X69445Y-267000D01*
X31890Y-255260D02*
Y-250110D01*
X111000Y-235000D02*
X117000Y-229000D01*
X106000Y-235000D02*
X111000D01*
X100000Y-241000D02*
X106000Y-235000D01*
X110000Y-248000D02*
X117000Y-241000D01*
X94000Y-248000D02*
X110000D01*
X90000Y-244000D02*
X94000Y-248000D01*
X90000Y-244000D02*
Y-241000D01*
X80000Y-231000D02*
X90000Y-241000D01*
X65000Y-231000D02*
X80000D01*
X65000D02*
Y-230000D01*
X55000Y-220000D02*
X65000Y-230000D01*
X34000D02*
Y-219000D01*
X109000Y-135000D02*
X115000Y-129000D01*
X94000Y-135000D02*
X109000D01*
X90000Y-131000D02*
X94000Y-135000D01*
X90000Y-131000D02*
Y-129000D01*
X108000Y-121000D02*
X111000D01*
X115000Y-117000D01*
X100000Y-129000D02*
X108000Y-121000D01*
X84000Y-129000D02*
X90000D01*
X74000Y-119000D02*
X84000Y-129000D01*
X66500Y-119000D02*
X74000D01*
X66500D02*
Y-118000D01*
X56500Y-108000D02*
X66500Y-118000D01*
X30000Y-147000D02*
X35000Y-142000D01*
X30000Y-148000D02*
X31000D01*
X35000Y-142000D02*
Y-119000D01*
Y-107000D01*
X55000Y-140000D02*
Y-133000D01*
Y-140000D02*
X59000Y-144000D01*
X77000Y-154000D02*
Y-149260D01*
X48000Y-183000D02*
X77000Y-154000D01*
X95000Y-197000D02*
X97000Y-199000D01*
X95000Y-197000D02*
Y-180500D01*
X84500Y-170000D02*
X95000Y-180500D01*
X82000Y-126000D02*
Y-119000D01*
X33937Y-455000D02*
Y-444000D01*
Y-481063D02*
Y-455000D01*
X32000Y-483000D02*
X33937Y-481063D01*
X48000Y-521000D02*
X77000Y-492000D01*
Y-488000D01*
X53000Y-444000D02*
X63000Y-454000D01*
Y-455000D02*
Y-454000D01*
Y-455000D02*
X76559D01*
X86559Y-465000D01*
X89000D01*
X96000Y-472000D01*
X114000D01*
X117000Y-469000D01*
Y-465000D01*
X99000D02*
X106000D01*
X117000Y-454000D01*
X88563Y-504000D02*
X94000D01*
X101000Y-511000D01*
Y-528000D02*
Y-511000D01*
X60000Y-483000D02*
Y-472433D01*
D66*
X23937Y-346992D02*
Y-343000D01*
X23000Y-347929D02*
X23937Y-346992D01*
X23000Y-352071D02*
Y-347929D01*
Y-352071D02*
X23937Y-353008D01*
Y-364063D02*
Y-353008D01*
X28000Y-370000D02*
Y-350000D01*
X24000Y-374000D02*
X28000Y-370000D01*
X24000Y-443937D02*
Y-374000D01*
X23937Y-444000D02*
X24000Y-443937D01*
X19000Y-455000D02*
X23937D01*
X16000Y-452000D02*
X19000Y-455000D01*
X16000Y-452000D02*
Y-441000D01*
X20000Y-437000D01*
Y-368000D01*
X23937Y-364063D01*
X16000Y-335063D02*
X23937Y-343000D01*
X16000Y-335063D02*
Y-329000D01*
X22000Y-323000D01*
X23937Y-332000D02*
X26000Y-329937D01*
Y-297000D01*
X130000Y-446000D02*
X134000Y-450000D01*
X123000Y-446000D02*
X130000D01*
X118000Y-441000D02*
X123000Y-446000D01*
X118000Y-441000D02*
Y-403000D01*
X107000Y-392000D02*
X118000Y-403000D01*
Y-367000D02*
X123000D01*
X132500Y-357500D01*
Y-330500D01*
X128000Y-326000D02*
X132500Y-330500D01*
X128000Y-326000D02*
Y-302638D01*
X120362Y-295000D02*
X128000Y-302638D01*
X113000Y-295000D02*
X120362D01*
X101000Y-283000D02*
X113000Y-295000D01*
X22000Y-323000D02*
Y-295343D01*
X22075Y-295268D01*
Y-258075D01*
X21000Y-257000D02*
X22075Y-258075D01*
X26075Y-296925D02*
Y-248925D01*
X26000Y-297000D02*
X26075Y-296925D01*
X21000Y-257000D02*
X22000D01*
X22075Y-256925D01*
Y-247268D01*
X24000Y-245343D01*
Y-230000D01*
X26075Y-248925D02*
X30000Y-245000D01*
Y-238000D01*
X119000Y-255000D02*
X126000D01*
X134000Y-247000D01*
Y-223000D01*
X122000Y-211000D02*
X134000Y-223000D01*
X122000Y-211000D02*
Y-154000D01*
X116000Y-148000D02*
X122000Y-154000D01*
X116000Y-148000D02*
Y-140000D01*
X21000Y-209000D02*
Y-143000D01*
X18000Y-230000D02*
X24000D01*
X15000Y-227000D02*
X18000Y-230000D01*
X15000Y-227000D02*
Y-215000D01*
X21000Y-209000D01*
X24000Y-219000D02*
X25000Y-218000D01*
X116000Y-140000D02*
X117688Y-138312D01*
X127925D01*
X133000Y-133237D01*
Y-104000D01*
X121000Y-92000D02*
X133000Y-104000D01*
X119000Y-92000D02*
X121000D01*
X27000Y-139781D02*
Y-139000D01*
Y-139781D02*
X27512Y-140294D01*
Y-143706D02*
Y-140294D01*
X25000Y-146219D02*
X27512Y-143706D01*
X25000Y-218000D02*
Y-146219D01*
X27000Y-139000D02*
X30000Y-136000D01*
X25000Y-107000D02*
Y-106000D01*
X30000Y-136000D02*
Y-127000D01*
X10500Y-107500D02*
X22000Y-119000D01*
X21000Y-143000D02*
X23000Y-142000D01*
Y-128343D01*
X25000Y-126343D01*
Y-119000D01*
X22000D02*
X25000D01*
X10500Y-95343D02*
X20867Y-84976D01*
X22524D01*
X24500Y-83000D01*
X10500Y-107500D02*
Y-95343D01*
X19000Y-459937D02*
X23937Y-455000D01*
X19000Y-478000D02*
Y-459937D01*
X122000Y-483260D02*
X134000Y-471260D01*
Y-450000D01*
D67*
X33937Y-455000D02*
D03*
X23937Y-444000D02*
D03*
X89000Y-454000D02*
D03*
X53000Y-444000D02*
D03*
X99000Y-465000D02*
D03*
X127000D02*
D03*
X53000Y-455000D02*
D03*
X117000Y-454000D02*
D03*
X8000Y-473000D02*
D03*
X132000Y-504000D02*
D03*
X8000Y-498000D02*
D03*
Y-523000D02*
D03*
X33937Y-343000D02*
D03*
X23937Y-332000D02*
D03*
X90500Y-342000D02*
D03*
X55063Y-332000D02*
D03*
X100500Y-353000D02*
D03*
X126000D02*
D03*
X55000Y-343000D02*
D03*
X116000Y-342000D02*
D03*
X9000Y-361000D02*
D03*
X132500Y-393000D02*
D03*
X9000Y-386000D02*
D03*
Y-411000D02*
D03*
X115000Y-117000D02*
D03*
X125000Y-129000D02*
D03*
X90000Y-117000D02*
D03*
X9000Y-137000D02*
D03*
X56500Y-108000D02*
D03*
X35000Y-119000D02*
D03*
X66500Y-7500D02*
D03*
X9000Y-162000D02*
D03*
X132500Y-170000D02*
D03*
X9000Y-186937D02*
D03*
X56500Y-119000D02*
D03*
X25000Y-107000D02*
D03*
X117000Y-229000D02*
D03*
X55000Y-231000D02*
D03*
X90000Y-229000D02*
D03*
X55000Y-220000D02*
D03*
X24000Y-219000D02*
D03*
X34000Y-230000D02*
D03*
X127000Y-241000D02*
D03*
X100000D02*
D03*
Y-129000D02*
D03*
X9000Y-299000D02*
D03*
Y-274000D02*
D03*
X133000Y-275874D02*
D03*
X9000Y-249000D02*
D03*
D68*
X23937Y-455000D02*
D03*
X33937Y-444000D02*
D03*
X99000Y-454000D02*
D03*
X63000Y-444000D02*
D03*
X89000Y-465000D02*
D03*
X117000D02*
D03*
X63000Y-455000D02*
D03*
X127000Y-454000D02*
D03*
X23937Y-343000D02*
D03*
X33937Y-332000D02*
D03*
X100500Y-342000D02*
D03*
X65063Y-332000D02*
D03*
X90500Y-353000D02*
D03*
X116000D02*
D03*
X65000Y-343000D02*
D03*
X126000Y-342000D02*
D03*
X125000Y-117000D02*
D03*
X115000Y-129000D02*
D03*
X100000Y-117000D02*
D03*
X66500Y-108000D02*
D03*
X25000Y-119000D02*
D03*
X76500Y-7500D02*
D03*
X66500Y-119000D02*
D03*
X35000Y-107000D02*
D03*
X127000Y-229000D02*
D03*
X65000Y-231000D02*
D03*
X100000Y-229000D02*
D03*
X65000Y-220000D02*
D03*
X34000Y-219000D02*
D03*
X24000Y-230000D02*
D03*
X117000Y-241000D02*
D03*
X90000D02*
D03*
Y-129000D02*
D03*
D69*
X8000Y-483000D02*
D03*
X132000Y-514000D02*
D03*
X8000Y-508000D02*
D03*
Y-533000D02*
D03*
X9000Y-371000D02*
D03*
X132500Y-403000D02*
D03*
X9000Y-396000D02*
D03*
Y-421000D02*
D03*
Y-147000D02*
D03*
Y-172000D02*
D03*
X132500Y-180000D02*
D03*
X9000Y-196937D02*
D03*
Y-309000D02*
D03*
Y-284000D02*
D03*
X133000Y-285874D02*
D03*
X9000Y-259000D02*
D03*
D70*
X11811Y-11811D02*
D03*
X129921D02*
D03*
D71*
X28000Y-350000D02*
D03*
X20000Y-368000D02*
D03*
X107000Y-392000D02*
D03*
X118000Y-367000D02*
D03*
X101000Y-283000D02*
D03*
X21000Y-257000D02*
D03*
X30000Y-238000D02*
D03*
X119000Y-255000D02*
D03*
X116000Y-140000D02*
D03*
X119000Y-92000D02*
D03*
X30000Y-127000D02*
D03*
X21000Y-143000D02*
D03*
X24500Y-83000D02*
D03*
X19000Y-478000D02*
D03*
X122000Y-483260D02*
D03*
D72*
X79000Y-375000D02*
D03*
X51000Y-407000D02*
D03*
X86000Y-393000D02*
D03*
X99000Y-418000D02*
D03*
X55063Y-359000D02*
D03*
X61000Y-368000D02*
D03*
X32000Y-370260D02*
D03*
X62000Y-259000D02*
D03*
Y-249173D02*
D03*
X92000Y-307000D02*
D03*
X82000Y-279000D02*
D03*
X75000Y-265000D02*
D03*
X41445Y-295000D02*
D03*
X31890Y-255260D02*
D03*
X31000Y-200000D02*
D03*
X57437Y-196000D02*
D03*
X55000Y-133000D02*
D03*
X59000Y-144000D02*
D03*
X137795Y-65144D02*
D03*
X8500Y-37000D02*
D03*
X72500Y-31000D02*
D03*
X118000Y-14500D02*
D03*
X18500Y-23500D02*
D03*
X91000Y-161000D02*
D03*
X73500Y-89000D02*
D03*
X28055Y-40000D02*
D03*
X59500Y-33000D02*
D03*
X60000Y-48000D02*
D03*
X129500Y-18000D02*
D03*
X132500Y-90000D02*
D03*
X84500Y-72000D02*
D03*
X3000Y-92000D02*
D03*
X77000Y-149260D02*
D03*
X48000Y-183000D02*
D03*
X97000Y-199000D02*
D03*
X84500Y-170000D02*
D03*
X32000Y-483000D02*
D03*
X48000Y-521000D02*
D03*
X77000Y-488000D02*
D03*
X88563Y-504000D02*
D03*
X101000Y-528000D02*
D03*
X60000Y-472433D02*
D03*
Y-483000D02*
D03*
D73*
X80441Y-408441D02*
D03*
X85559D02*
D03*
X80441Y-413559D02*
D03*
X85559D02*
D03*
X80441Y-418677D02*
D03*
X85559D02*
D03*
X80441Y-403323D02*
D03*
X85559D02*
D03*
X72760Y-296000D02*
D03*
X77878D02*
D03*
X72760Y-301118D02*
D03*
X77878D02*
D03*
X72760Y-306236D02*
D03*
X77878D02*
D03*
X72760Y-290882D02*
D03*
X77878D02*
D03*
X84559Y-179323D02*
D03*
X79441D02*
D03*
X84559Y-194677D02*
D03*
X79441D02*
D03*
X84559Y-189559D02*
D03*
X79441D02*
D03*
X84559Y-184441D02*
D03*
X79441D02*
D03*
Y-519441D02*
D03*
X84559D02*
D03*
X79441Y-524559D02*
D03*
X84559D02*
D03*
X79441Y-529677D02*
D03*
X84559D02*
D03*
X79441Y-514323D02*
D03*
X84559D02*
D03*
D74*
X31000Y-260000D02*
D03*
X61937Y-309906D02*
D03*
X57000Y-258000D02*
D03*
X41445Y-310000D02*
D03*
X134000D02*
D03*
X99000Y-311000D02*
D03*
X123000Y-286000D02*
D03*
X119000Y-266000D02*
D03*
X100000Y-258000D02*
D03*
X120000Y-304559D02*
D03*
X51000Y-268000D02*
D03*
X93319Y-273000D02*
D03*
X73000Y-244000D02*
D03*
X54063Y-245000D02*
D03*
X18000Y-262000D02*
D03*
X52000Y-313000D02*
D03*
X32000Y-311000D02*
D03*
X16000Y-149000D02*
D03*
X66000Y-198000D02*
D03*
X76000Y-170000D02*
D03*
X114000Y-161000D02*
D03*
X132000Y-140000D02*
D03*
X38000Y-90000D02*
D03*
X128000Y-147000D02*
D03*
X103000Y-141000D02*
D03*
X7000Y-123000D02*
D03*
X45000Y-198000D02*
D03*
X131000Y-199000D02*
D03*
X128563Y-156000D02*
D03*
X118000Y-23500D02*
D03*
X32000Y-153000D02*
D03*
X116000Y-192968D02*
D03*
X48000Y-135000D02*
D03*
X91252Y-143000D02*
D03*
X52000Y-152000D02*
D03*
X73000Y-130000D02*
D03*
X31000Y-535405D02*
D03*
X48000Y-359000D02*
D03*
X31000Y-374000D02*
D03*
X53000Y-377000D02*
D03*
X59000Y-425000D02*
D03*
X30000Y-423000D02*
D03*
X67000Y-419937D02*
D03*
X92000Y-385000D02*
D03*
X125000Y-419000D02*
D03*
X122000Y-382000D02*
D03*
X96000Y-371000D02*
D03*
X73000Y-468000D02*
D03*
X53650Y-471000D02*
D03*
X23000Y-483000D02*
D03*
X32000Y-487063D02*
D03*
X53000Y-493000D02*
D03*
X62382Y-536000D02*
D03*
X66000Y-531000D02*
D03*
X91000Y-496000D02*
D03*
X133000Y-533000D02*
D03*
X91252Y-482000D02*
D03*
X131000Y-488000D02*
D03*
X129921Y-376000D02*
D03*
X105000Y-479000D02*
D03*
X102000Y-536000D02*
D03*
X73000Y-503000D02*
D03*
X121063Y-519063D02*
D03*
X42063Y-533000D02*
D03*
X19000Y-509000D02*
D03*
X136437Y-433000D02*
D03*
X91252Y-425000D02*
D03*
X118610Y-503000D02*
D03*
X62382Y-357000D02*
D03*
X44000Y-421000D02*
D03*
X75000Y-390000D02*
D03*
X82000Y-159000D02*
D03*
X75740Y-355000D02*
D03*
D75*
X30000Y-148000D02*
D03*
M02*
