G04*
G04 #@! TF.GenerationSoftware,Altium Limited,Altium Designer,22.3.1 (43)*
G04*
G04 Layer_Color=32896*
%FSLAX25Y25*%
%MOIN*%
G70*
G04*
G04 #@! TF.SameCoordinates,279A1D3E-A716-413B-99E7-0DBA20A4D314*
G04*
G04*
G04 #@! TF.FilePolarity,Positive*
G04*
G01*
G75*
%ADD15C,0.00394*%
%ADD17C,0.01000*%
D15*
X38945Y-371745D02*
Y-374041D01*
X39404Y-374500D01*
X40322D01*
X40782Y-374041D01*
Y-371745D01*
X41700Y-374500D02*
X42618D01*
X42159D01*
Y-371745D01*
X41700Y-372204D01*
X43996Y-374959D02*
X45832D01*
X46751Y-374500D02*
Y-372663D01*
X47669Y-371745D01*
X48588Y-372663D01*
Y-374500D01*
Y-373123D01*
X46751D01*
X51342Y-374500D02*
X49506D01*
X51342Y-372663D01*
Y-372204D01*
X50883Y-371745D01*
X49965D01*
X49506Y-372204D01*
X77488Y-409721D02*
Y-412017D01*
X77947Y-412476D01*
X78866D01*
X79325Y-412017D01*
Y-409721D01*
X82080D02*
X81161Y-410181D01*
X80243Y-411099D01*
Y-412017D01*
X80702Y-412476D01*
X81621D01*
X82080Y-412017D01*
Y-411558D01*
X81621Y-411099D01*
X80243D01*
X82998Y-412935D02*
X84835D01*
X85753Y-412476D02*
Y-410640D01*
X86672Y-409721D01*
X87590Y-410640D01*
Y-412476D01*
Y-411099D01*
X85753D01*
X90345Y-412476D02*
X88508D01*
X90345Y-410640D01*
Y-410181D01*
X89886Y-409721D01*
X88967D01*
X88508Y-410181D01*
X69807Y-297280D02*
Y-299576D01*
X70266Y-300035D01*
X71185D01*
X71644Y-299576D01*
Y-297280D01*
X74399D02*
X73480Y-297740D01*
X72562Y-298658D01*
Y-299576D01*
X73021Y-300035D01*
X73940D01*
X74399Y-299576D01*
Y-299117D01*
X73940Y-298658D01*
X72562D01*
X75317Y-300495D02*
X77154D01*
X78072Y-300035D02*
Y-298199D01*
X78991Y-297280D01*
X79909Y-298199D01*
Y-300035D01*
Y-298658D01*
X78072D01*
X80827Y-297740D02*
X81286Y-297280D01*
X82205D01*
X82664Y-297740D01*
Y-298199D01*
X82205Y-298658D01*
X81745D01*
X82205D01*
X82664Y-299117D01*
Y-299576D01*
X82205Y-300035D01*
X81286D01*
X80827Y-299576D01*
X76488Y-185721D02*
Y-188017D01*
X76947Y-188476D01*
X77866D01*
X78325Y-188017D01*
Y-185721D01*
X81080D02*
X80161Y-186180D01*
X79243Y-187099D01*
Y-188017D01*
X79702Y-188476D01*
X80621D01*
X81080Y-188017D01*
Y-187558D01*
X80621Y-187099D01*
X79243D01*
X81998Y-188935D02*
X83835D01*
X84753Y-188476D02*
Y-186640D01*
X85672Y-185721D01*
X86590Y-186640D01*
Y-188476D01*
Y-187099D01*
X84753D01*
X88886Y-188476D02*
Y-185721D01*
X87508Y-187099D01*
X89345D01*
X38500Y-150745D02*
Y-153041D01*
X38959Y-153500D01*
X39878D01*
X40337Y-153041D01*
Y-150745D01*
X41255Y-153500D02*
X42173D01*
X41714D01*
Y-150745D01*
X41255Y-151204D01*
X43551Y-153959D02*
X45388D01*
X46306Y-153500D02*
Y-151663D01*
X47224Y-150745D01*
X48143Y-151663D01*
Y-153500D01*
Y-152122D01*
X46306D01*
X50438Y-153500D02*
Y-150745D01*
X49061Y-152122D01*
X50898D01*
X20755Y-51500D02*
X18459D01*
X18000Y-51959D01*
Y-52877D01*
X18459Y-53337D01*
X20755D01*
X18000Y-54255D02*
Y-55173D01*
Y-54714D01*
X20755D01*
X20296Y-54255D01*
Y-56551D02*
X20755Y-57010D01*
Y-57928D01*
X20296Y-58388D01*
X18459D01*
X18000Y-57928D01*
Y-57010D01*
X18459Y-56551D01*
X20296D01*
X18000Y-59306D02*
Y-60224D01*
Y-59765D01*
X20755D01*
X20296Y-59306D01*
X51755Y-59500D02*
X49459D01*
X49000Y-59959D01*
Y-60878D01*
X49459Y-61337D01*
X51755D01*
X49000Y-62255D02*
Y-63173D01*
Y-62714D01*
X51755D01*
X51296Y-62255D01*
Y-64551D02*
X51755Y-65010D01*
Y-65928D01*
X51296Y-66387D01*
X49459D01*
X49000Y-65928D01*
Y-65010D01*
X49459Y-64551D01*
X51296D01*
X49000Y-69143D02*
Y-67306D01*
X50837Y-69143D01*
X51296D01*
X51755Y-68683D01*
Y-67765D01*
X51296Y-67306D01*
X75015Y-136913D02*
X72719D01*
X72260Y-137373D01*
Y-138291D01*
X72719Y-138750D01*
X75015D01*
X72260Y-141046D02*
X75015D01*
X73637Y-139668D01*
Y-141505D01*
X71801Y-142423D02*
Y-144260D01*
X72260Y-145178D02*
X74097D01*
X75015Y-146097D01*
X74097Y-147015D01*
X72260D01*
X73637D01*
Y-145178D01*
X72260Y-149311D02*
X75015D01*
X73637Y-147933D01*
Y-149770D01*
X39563Y-484745D02*
Y-487041D01*
X40022Y-487500D01*
X40940D01*
X41400Y-487041D01*
Y-484745D01*
X42318Y-487500D02*
X43236D01*
X42777D01*
Y-484745D01*
X42318Y-485204D01*
X44614Y-487959D02*
X46450D01*
X47369Y-487500D02*
Y-485663D01*
X48287Y-484745D01*
X49206Y-485663D01*
Y-487500D01*
Y-486123D01*
X47369D01*
X50124Y-487500D02*
X51042D01*
X50583D01*
Y-484745D01*
X50124Y-485204D01*
X76488Y-520721D02*
Y-523017D01*
X76947Y-523476D01*
X77866D01*
X78325Y-523017D01*
Y-520721D01*
X81080D02*
X80161Y-521180D01*
X79243Y-522099D01*
Y-523017D01*
X79702Y-523476D01*
X80621D01*
X81080Y-523017D01*
Y-522558D01*
X80621Y-522099D01*
X79243D01*
X81998Y-523936D02*
X83835D01*
X84753Y-523476D02*
Y-521640D01*
X85672Y-520721D01*
X86590Y-521640D01*
Y-523476D01*
Y-522099D01*
X84753D01*
X87508Y-523476D02*
X88427D01*
X87967D01*
Y-520721D01*
X87508Y-521180D01*
X75015Y-475347D02*
X72719D01*
X72260Y-475806D01*
Y-476724D01*
X72719Y-477183D01*
X75015D01*
X72260Y-479479D02*
X75015D01*
X73637Y-478101D01*
Y-479938D01*
X71801Y-480857D02*
Y-482693D01*
X72260Y-483611D02*
X74097D01*
X75015Y-484530D01*
X74097Y-485448D01*
X72260D01*
X73637D01*
Y-483611D01*
X72260Y-486367D02*
Y-487285D01*
Y-486826D01*
X75015D01*
X74556Y-486367D01*
D17*
X0Y-542000D02*
Y0D01*
Y-542000D02*
X141732D01*
X0Y0D02*
X141732D01*
Y-542000D02*
Y0D01*
M02*
