G04*
G04 #@! TF.GenerationSoftware,Altium Limited,Altium Designer,22.3.1 (43)*
G04*
G04 Layer_Physical_Order=1*
G04 Layer_Color=255*
%FSLAX25Y25*%
%MOIN*%
G70*
G04*
G04 #@! TF.SameCoordinates,279A1D3E-A716-413B-99E7-0DBA20A4D314*
G04*
G04*
G04 #@! TF.FilePolarity,Positive*
G04*
G01*
G75*
%ADD15C,0.00394*%
%ADD17C,0.01000*%
%ADD19R,0.07087X0.04528*%
%ADD20R,0.05709X0.04724*%
%ADD21R,0.06102X0.05118*%
%ADD22R,0.04724X0.05709*%
G04:AMPARAMS|DCode=23|XSize=23.62mil|YSize=39.37mil|CornerRadius=2.01mil|HoleSize=0mil|Usage=FLASHONLY|Rotation=0.000|XOffset=0mil|YOffset=0mil|HoleType=Round|Shape=RoundedRectangle|*
%AMROUNDEDRECTD23*
21,1,0.02362,0.03535,0,0,0.0*
21,1,0.01961,0.03937,0,0,0.0*
1,1,0.00402,0.00980,-0.01768*
1,1,0.00402,-0.00980,-0.01768*
1,1,0.00402,-0.00980,0.01768*
1,1,0.00402,0.00980,0.01768*
%
%ADD23ROUNDEDRECTD23*%
%ADD24R,0.04528X0.07087*%
G04:AMPARAMS|DCode=25|XSize=25.59mil|YSize=47.24mil|CornerRadius=1.92mil|HoleSize=0mil|Usage=FLASHONLY|Rotation=90.000|XOffset=0mil|YOffset=0mil|HoleType=Round|Shape=RoundedRectangle|*
%AMROUNDEDRECTD25*
21,1,0.02559,0.04341,0,0,90.0*
21,1,0.02175,0.04724,0,0,90.0*
1,1,0.00384,0.02170,0.01088*
1,1,0.00384,0.02170,-0.01088*
1,1,0.00384,-0.02170,-0.01088*
1,1,0.00384,-0.02170,0.01088*
%
%ADD25ROUNDEDRECTD25*%
G04:AMPARAMS|DCode=26|XSize=25.59mil|YSize=64.96mil|CornerRadius=1.92mil|HoleSize=0mil|Usage=FLASHONLY|Rotation=90.000|XOffset=0mil|YOffset=0mil|HoleType=Round|Shape=RoundedRectangle|*
%AMROUNDEDRECTD26*
21,1,0.02559,0.06112,0,0,90.0*
21,1,0.02175,0.06496,0,0,90.0*
1,1,0.00384,0.03056,0.01088*
1,1,0.00384,0.03056,-0.01088*
1,1,0.00384,-0.03056,-0.01088*
1,1,0.00384,-0.03056,0.01088*
%
%ADD26ROUNDEDRECTD26*%
%ADD27R,0.11614X0.10039*%
%ADD28R,0.04724X0.07874*%
%ADD29R,0.05118X0.06102*%
%ADD30R,0.07874X0.04724*%
%ADD31R,0.05034X0.10827*%
%ADD32O,0.02756X0.09843*%
G04:AMPARAMS|DCode=33|XSize=125.98mil|YSize=68.9mil|CornerRadius=2.07mil|HoleSize=0mil|Usage=FLASHONLY|Rotation=0.000|XOffset=0mil|YOffset=0mil|HoleType=Round|Shape=RoundedRectangle|*
%AMROUNDEDRECTD33*
21,1,0.12598,0.06476,0,0,0.0*
21,1,0.12185,0.06890,0,0,0.0*
1,1,0.00413,0.06093,-0.03238*
1,1,0.00413,-0.06093,-0.03238*
1,1,0.00413,-0.06093,0.03238*
1,1,0.00413,0.06093,0.03238*
%
%ADD33ROUNDEDRECTD33*%
G04:AMPARAMS|DCode=34|XSize=35.43mil|YSize=68.9mil|CornerRadius=1.95mil|HoleSize=0mil|Usage=FLASHONLY|Rotation=0.000|XOffset=0mil|YOffset=0mil|HoleType=Round|Shape=RoundedRectangle|*
%AMROUNDEDRECTD34*
21,1,0.03543,0.06500,0,0,0.0*
21,1,0.03154,0.06890,0,0,0.0*
1,1,0.00390,0.01577,-0.03250*
1,1,0.00390,-0.01577,-0.03250*
1,1,0.00390,-0.01577,0.03250*
1,1,0.00390,0.01577,0.03250*
%
%ADD34ROUNDEDRECTD34*%
G04:AMPARAMS|DCode=35|XSize=127.95mil|YSize=80.71mil|CornerRadius=2.02mil|HoleSize=0mil|Usage=FLASHONLY|Rotation=0.000|XOffset=0mil|YOffset=0mil|HoleType=Round|Shape=RoundedRectangle|*
%AMROUNDEDRECTD35*
21,1,0.12795,0.07667,0,0,0.0*
21,1,0.12392,0.08071,0,0,0.0*
1,1,0.00404,0.06196,-0.03834*
1,1,0.00404,-0.06196,-0.03834*
1,1,0.00404,-0.06196,0.03834*
1,1,0.00404,0.06196,0.03834*
%
%ADD35ROUNDEDRECTD35*%
G04:AMPARAMS|DCode=36|XSize=39.37mil|YSize=80.71mil|CornerRadius=1.97mil|HoleSize=0mil|Usage=FLASHONLY|Rotation=0.000|XOffset=0mil|YOffset=0mil|HoleType=Round|Shape=RoundedRectangle|*
%AMROUNDEDRECTD36*
21,1,0.03937,0.07677,0,0,0.0*
21,1,0.03543,0.08071,0,0,0.0*
1,1,0.00394,0.01772,-0.03839*
1,1,0.00394,-0.01772,-0.03839*
1,1,0.00394,-0.01772,0.03839*
1,1,0.00394,0.01772,0.03839*
%
%ADD36ROUNDEDRECTD36*%
G04:AMPARAMS|DCode=64|XSize=116.14mil|YSize=192.91mil|CornerRadius=2.32mil|HoleSize=0mil|Usage=FLASHONLY|Rotation=0.000|XOffset=0mil|YOffset=0mil|HoleType=Round|Shape=RoundedRectangle|*
%AMROUNDEDRECTD64*
21,1,0.11614,0.18827,0,0,0.0*
21,1,0.11150,0.19291,0,0,0.0*
1,1,0.00465,0.05575,-0.09413*
1,1,0.00465,-0.05575,-0.09413*
1,1,0.00465,-0.05575,0.09413*
1,1,0.00465,0.05575,0.09413*
%
%ADD64ROUNDEDRECTD64*%
%ADD65C,0.01400*%
%ADD66C,0.03000*%
%ADD67C,0.06299*%
%ADD68R,0.06299X0.06299*%
%ADD69R,0.06299X0.06299*%
%ADD70C,0.13000*%
%ADD71C,0.05000*%
%ADD72C,0.02756*%
%ADD73C,0.01968*%
%ADD74C,0.03150*%
%ADD75C,0.03937*%
G36*
X141732Y-541000D02*
X0D01*
Y0D01*
X141732D01*
Y-541000D01*
D02*
G37*
%LPC*%
G36*
X80650Y-3350D02*
X77000D01*
Y-7000D01*
X80650D01*
Y-3350D01*
D02*
G37*
G36*
X76000D02*
X72350D01*
Y-7000D01*
X76000D01*
Y-3350D01*
D02*
G37*
G36*
X130421Y-3922D02*
Y-11311D01*
X137810D01*
X137707Y-10262D01*
X137255Y-8773D01*
X136522Y-7401D01*
X135534Y-6198D01*
X134332Y-5211D01*
X132959Y-4477D01*
X131470Y-4025D01*
X130421Y-3922D01*
D02*
G37*
G36*
X129421D02*
X128373Y-4025D01*
X126883Y-4477D01*
X125511Y-5211D01*
X124308Y-6198D01*
X123321Y-7401D01*
X122587Y-8773D01*
X122136Y-10262D01*
X122032Y-11311D01*
X129421D01*
Y-3922D01*
D02*
G37*
G36*
X12311D02*
Y-11311D01*
X19700D01*
X19597Y-10262D01*
X19145Y-8773D01*
X18411Y-7401D01*
X17424Y-6198D01*
X16221Y-5211D01*
X14849Y-4477D01*
X13360Y-4025D01*
X12311Y-3922D01*
D02*
G37*
G36*
X11311D02*
X10262Y-4025D01*
X8773Y-4477D01*
X7401Y-5211D01*
X6198Y-6198D01*
X5211Y-7401D01*
X4477Y-8773D01*
X4025Y-10262D01*
X3922Y-11311D01*
X11311D01*
Y-3922D01*
D02*
G37*
G36*
X80650Y-8000D02*
X77000D01*
Y-11650D01*
X80650D01*
Y-8000D01*
D02*
G37*
G36*
X76000D02*
X72350D01*
Y-11650D01*
X76000D01*
Y-8000D01*
D02*
G37*
G36*
X66500Y-3315D02*
X65417Y-3457D01*
X64407Y-3875D01*
X63541Y-4541D01*
X63225Y-4951D01*
X61000D01*
X60024Y-5145D01*
X59198Y-5698D01*
X50915Y-13980D01*
X45496D01*
Y-19499D01*
X45145Y-20024D01*
X44951Y-21000D01*
X45145Y-21975D01*
X45496Y-22501D01*
Y-26020D01*
X51451D01*
Y-36444D01*
X45698Y-42198D01*
X43743Y-44152D01*
X43232Y-44128D01*
X32302Y-33198D01*
X31475Y-32645D01*
X30500Y-32451D01*
X15500D01*
X14525Y-32645D01*
X13698Y-33198D01*
X11134Y-35761D01*
X10490Y-35698D01*
X10214Y-35286D01*
X9428Y-34760D01*
X9000Y-34675D01*
Y-37000D01*
X8500D01*
Y-37500D01*
X6175D01*
X6260Y-37928D01*
X6786Y-38714D01*
X7475Y-39175D01*
X7733Y-39688D01*
X7590Y-39902D01*
X7396Y-40878D01*
Y-41751D01*
X7243Y-41981D01*
X7150Y-42447D01*
Y-48947D01*
X7243Y-49413D01*
X7507Y-49808D01*
X7902Y-50072D01*
X8368Y-50165D01*
X11522D01*
X11988Y-50072D01*
X12383Y-49808D01*
X12647Y-49413D01*
X12740Y-48947D01*
Y-42447D01*
X12647Y-41981D01*
X12632Y-41957D01*
X14180Y-40409D01*
X14733Y-39582D01*
X14785Y-39320D01*
X16556Y-37549D01*
X26543D01*
X26695Y-38049D01*
X26341Y-38286D01*
X25815Y-39072D01*
X25730Y-39500D01*
X30380D01*
X30304Y-39116D01*
X30326Y-39087D01*
X30870Y-38975D01*
X38896Y-47001D01*
Y-48741D01*
X38810Y-48798D01*
X38546Y-49194D01*
X38453Y-49661D01*
Y-57339D01*
X38546Y-57806D01*
X38810Y-58201D01*
X39206Y-58466D01*
X39673Y-58559D01*
X43216D01*
X43683Y-58466D01*
X44079Y-58201D01*
X44344Y-57806D01*
X44437Y-57339D01*
Y-50668D01*
X48556Y-46549D01*
X57579D01*
X57815Y-46990D01*
X57760Y-47072D01*
X57675Y-47500D01*
X62325D01*
X62240Y-47072D01*
X62185Y-46990D01*
X62421Y-46549D01*
X71951D01*
Y-54000D01*
X71983Y-54161D01*
Y-61413D01*
X79017D01*
Y-48587D01*
X77049D01*
Y-46549D01*
X84646D01*
X85621Y-46355D01*
X86448Y-45802D01*
X88323Y-43928D01*
X89072Y-44429D01*
X90000Y-44614D01*
X90928Y-44429D01*
X91714Y-43903D01*
X92240Y-43117D01*
X92245Y-43091D01*
X92755D01*
X92760Y-43117D01*
X93286Y-43903D01*
X94072Y-44429D01*
X94951Y-44604D01*
Y-48587D01*
X90093D01*
Y-61413D01*
X94951D01*
Y-71949D01*
X92878D01*
Y-80051D01*
X93888D01*
Y-80937D01*
X94082Y-81912D01*
X94635Y-82739D01*
X105698Y-93802D01*
X106525Y-94355D01*
X107500Y-94549D01*
X116572D01*
X117235Y-95057D01*
X118086Y-95410D01*
X119000Y-95530D01*
X119914Y-95410D01*
X120765Y-95057D01*
X121496Y-94496D01*
X122057Y-93765D01*
X122410Y-92914D01*
X122530Y-92000D01*
X122410Y-91086D01*
X122057Y-90235D01*
X121496Y-89504D01*
X120765Y-88943D01*
X119914Y-88590D01*
X119000Y-88470D01*
X118086Y-88590D01*
X117235Y-88943D01*
X116572Y-89451D01*
X108556D01*
X99618Y-80513D01*
X99809Y-80051D01*
X99996D01*
Y-75203D01*
X100049Y-74937D01*
Y-68413D01*
X104017D01*
Y-55587D01*
X100049D01*
Y-44604D01*
X100928Y-44429D01*
X101714Y-43903D01*
X102240Y-43117D01*
X102347Y-42579D01*
X102857Y-42579D01*
X102948Y-43039D01*
X103430Y-43759D01*
X104150Y-44241D01*
X105000Y-44410D01*
X105850Y-44241D01*
X106570Y-43759D01*
X107052Y-43039D01*
X107221Y-42189D01*
Y-40175D01*
X108512D01*
X117081Y-48744D01*
Y-55787D01*
X115293D01*
Y-68213D01*
X121927D01*
Y-63529D01*
X125401D01*
Y-65654D01*
X127034D01*
Y-69039D01*
X127150Y-69625D01*
X127481Y-70121D01*
X129338Y-71977D01*
Y-77713D01*
X135662D01*
Y-68239D01*
X130092D01*
Y-65654D01*
X131725D01*
Y-58346D01*
X130092D01*
Y-56099D01*
X132217D01*
Y-49775D01*
X124909D01*
Y-56099D01*
X127034D01*
Y-58346D01*
X125401D01*
Y-60471D01*
X121927D01*
Y-55787D01*
X120140D01*
Y-48110D01*
X120023Y-47525D01*
X119692Y-47029D01*
X110227Y-37564D01*
X109731Y-37233D01*
X109146Y-37116D01*
X107221D01*
Y-35102D01*
X107052Y-34253D01*
X106570Y-33532D01*
X105850Y-33051D01*
X105000Y-32882D01*
X104150Y-33051D01*
X103430Y-33532D01*
X102948Y-34253D01*
X102857Y-34713D01*
X102347Y-34713D01*
X102240Y-34174D01*
X101714Y-33388D01*
X100928Y-32862D01*
X100049Y-32688D01*
Y-32056D01*
X100556Y-31549D01*
X114444D01*
X119138Y-36243D01*
Y-40370D01*
X125862D01*
X125951Y-40833D01*
Y-41701D01*
X124709D01*
Y-48425D01*
X132417D01*
Y-41701D01*
X131049D01*
Y-35000D01*
X130855Y-34025D01*
X130302Y-33198D01*
X129475Y-32645D01*
X128500Y-32451D01*
X125862D01*
Y-30496D01*
X120601D01*
X119913Y-29808D01*
X120105Y-29346D01*
X122000D01*
Y-24409D01*
Y-19472D01*
X119138D01*
Y-20734D01*
X118778Y-20975D01*
X118638Y-20987D01*
X118500Y-20969D01*
Y-23500D01*
Y-26031D01*
X118638Y-26013D01*
X118778Y-26025D01*
X119138Y-26266D01*
Y-28380D01*
X118676Y-28571D01*
X117302Y-27198D01*
X116475Y-26645D01*
X115500Y-26451D01*
X99500D01*
X98524Y-26645D01*
X97698Y-27198D01*
X95698Y-29198D01*
X95145Y-30024D01*
X94951Y-31000D01*
Y-32688D01*
X94072Y-32862D01*
X93286Y-33388D01*
X92760Y-34174D01*
X92755Y-34200D01*
X92245D01*
X92240Y-34174D01*
X91714Y-33388D01*
X90928Y-32862D01*
X90000Y-32678D01*
X89072Y-32862D01*
X88286Y-33388D01*
X87760Y-34174D01*
X87576Y-35102D01*
Y-37465D01*
X83590Y-41451D01*
X54307D01*
X54116Y-40989D01*
X55802Y-39302D01*
X56355Y-38475D01*
X56549Y-37500D01*
Y-26020D01*
X59110D01*
Y-13980D01*
X58778D01*
X58586Y-13518D01*
X62056Y-10049D01*
X63225D01*
X63541Y-10459D01*
X64407Y-11125D01*
X65417Y-11543D01*
X66500Y-11685D01*
X67583Y-11543D01*
X68593Y-11125D01*
X69459Y-10459D01*
X70125Y-9593D01*
X70543Y-8583D01*
X70685Y-7500D01*
X70543Y-6417D01*
X70125Y-5407D01*
X69459Y-4541D01*
X68593Y-3875D01*
X67583Y-3457D01*
X66500Y-3315D01*
D02*
G37*
G36*
X118500Y-12175D02*
Y-14000D01*
X120325D01*
X120240Y-13572D01*
X119714Y-12786D01*
X118928Y-12260D01*
X118500Y-12175D01*
D02*
G37*
G36*
X117500D02*
X117072Y-12260D01*
X116286Y-12786D01*
X115760Y-13572D01*
X115675Y-14000D01*
X117500D01*
Y-12175D01*
D02*
G37*
G36*
X120325Y-15000D02*
X118500D01*
Y-16825D01*
X118928Y-16740D01*
X119714Y-16214D01*
X120240Y-15428D01*
X120325Y-15000D01*
D02*
G37*
G36*
X117500D02*
X115675D01*
X115760Y-15428D01*
X116286Y-16214D01*
X117072Y-16740D01*
X117500Y-16825D01*
Y-15000D01*
D02*
G37*
G36*
X34504Y-13980D02*
X28197D01*
Y-19500D01*
X34504D01*
Y-13980D01*
D02*
G37*
G36*
X19700Y-12311D02*
X12311D01*
Y-19700D01*
X13360Y-19597D01*
X14849Y-19145D01*
X16221Y-18411D01*
X17424Y-17424D01*
X18411Y-16221D01*
X19145Y-14849D01*
X19597Y-13360D01*
X19700Y-12311D01*
D02*
G37*
G36*
X11311D02*
X3922D01*
X4025Y-13360D01*
X4477Y-14849D01*
X5211Y-16221D01*
X6198Y-17424D01*
X7401Y-18411D01*
X8773Y-19145D01*
X10262Y-19597D01*
X11311Y-19700D01*
Y-12311D01*
D02*
G37*
G36*
X137810D02*
X122032D01*
X122136Y-13360D01*
X122587Y-14849D01*
X123321Y-16221D01*
X124308Y-17424D01*
X125511Y-18411D01*
X126883Y-19145D01*
X127538Y-19343D01*
X127786Y-19714D01*
X128572Y-20240D01*
X129000Y-20325D01*
Y-18000D01*
X130000D01*
Y-20325D01*
X130428Y-20240D01*
X131214Y-19714D01*
X131281Y-19615D01*
X131470Y-19597D01*
X132959Y-19145D01*
X134332Y-18411D01*
X135534Y-17424D01*
X136522Y-16221D01*
X137255Y-14849D01*
X137707Y-13360D01*
X137810Y-12311D01*
D02*
G37*
G36*
X117500Y-20969D02*
X117328Y-20991D01*
X116701Y-21251D01*
X116164Y-21664D01*
X115751Y-22201D01*
X115491Y-22828D01*
X115469Y-23000D01*
X117500D01*
Y-20969D01*
D02*
G37*
G36*
X18000Y-21175D02*
X17572Y-21260D01*
X16786Y-21786D01*
X16260Y-22572D01*
X16175Y-23000D01*
X18000D01*
Y-21175D01*
D02*
G37*
G36*
X125862Y-19472D02*
X123000D01*
Y-23909D01*
X125862D01*
Y-19472D01*
D02*
G37*
G36*
X105000Y-13590D02*
X104150Y-13759D01*
X103430Y-14241D01*
X102948Y-14961D01*
X102779Y-15811D01*
Y-22898D01*
X102948Y-23747D01*
X103430Y-24468D01*
X104150Y-24949D01*
X105000Y-25118D01*
X105850Y-24949D01*
X106570Y-24468D01*
X107052Y-23747D01*
X107221Y-22898D01*
Y-15811D01*
X107052Y-14961D01*
X106570Y-14241D01*
X105850Y-13759D01*
X105000Y-13590D01*
D02*
G37*
G36*
X100000D02*
X99150Y-13759D01*
X98430Y-14241D01*
X97948Y-14961D01*
X97779Y-15811D01*
Y-22898D01*
X97948Y-23747D01*
X98430Y-24468D01*
X99150Y-24949D01*
X100000Y-25118D01*
X100850Y-24949D01*
X101570Y-24468D01*
X102052Y-23747D01*
X102221Y-22898D01*
Y-15811D01*
X102052Y-14961D01*
X101570Y-14241D01*
X100850Y-13759D01*
X100000Y-13590D01*
D02*
G37*
G36*
X95000D02*
X94150Y-13759D01*
X93430Y-14241D01*
X92948Y-14961D01*
X92779Y-15811D01*
Y-22898D01*
X92948Y-23747D01*
X93430Y-24468D01*
X94150Y-24949D01*
X95000Y-25118D01*
X95850Y-24949D01*
X96570Y-24468D01*
X97052Y-23747D01*
X97221Y-22898D01*
Y-15811D01*
X97052Y-14961D01*
X96570Y-14241D01*
X95850Y-13759D01*
X95000Y-13590D01*
D02*
G37*
G36*
X90000D02*
X89150Y-13759D01*
X88430Y-14241D01*
X87948Y-14961D01*
X87779Y-15811D01*
Y-22898D01*
X87948Y-23747D01*
X88430Y-24468D01*
X89150Y-24949D01*
X90000Y-25118D01*
X90850Y-24949D01*
X91570Y-24468D01*
X92052Y-23747D01*
X92221Y-22898D01*
Y-15811D01*
X92052Y-14961D01*
X91570Y-14241D01*
X90850Y-13759D01*
X90000Y-13590D01*
D02*
G37*
G36*
X18000Y-24000D02*
X16175D01*
X16260Y-24428D01*
X16786Y-25214D01*
X17572Y-25740D01*
X18000Y-25825D01*
Y-24000D01*
D02*
G37*
G36*
X34504Y-20500D02*
X28197D01*
Y-26020D01*
X34504D01*
Y-20500D01*
D02*
G37*
G36*
X27197Y-13980D02*
X20890D01*
Y-18947D01*
X19000Y-20837D01*
Y-23500D01*
Y-25825D01*
X19428Y-25740D01*
X20214Y-25214D01*
X20390Y-24952D01*
X20890Y-25104D01*
Y-26020D01*
X27197D01*
Y-20000D01*
Y-13980D01*
D02*
G37*
G36*
X117500Y-24000D02*
X115469D01*
X115491Y-24172D01*
X115751Y-24799D01*
X116164Y-25336D01*
X116701Y-25749D01*
X117328Y-26008D01*
X117500Y-26031D01*
Y-24000D01*
D02*
G37*
G36*
X125862Y-24909D02*
X123000D01*
Y-29346D01*
X125862D01*
Y-24909D01*
D02*
G37*
G36*
X73000Y-28675D02*
Y-30500D01*
X74825D01*
X74740Y-30072D01*
X74214Y-29286D01*
X73428Y-28760D01*
X73000Y-28675D01*
D02*
G37*
G36*
X72000D02*
X71572Y-28760D01*
X70786Y-29286D01*
X70260Y-30072D01*
X70175Y-30500D01*
X72000D01*
Y-28675D01*
D02*
G37*
G36*
X60000Y-30675D02*
Y-32500D01*
X61825D01*
X61740Y-32072D01*
X61214Y-31286D01*
X60428Y-30760D01*
X60000Y-30675D01*
D02*
G37*
G36*
X59000D02*
X58572Y-30760D01*
X57786Y-31286D01*
X57260Y-32072D01*
X57175Y-32500D01*
X59000D01*
Y-30675D01*
D02*
G37*
G36*
X74825Y-31500D02*
X73000D01*
Y-33325D01*
X73428Y-33240D01*
X74214Y-32714D01*
X74740Y-31928D01*
X74825Y-31500D01*
D02*
G37*
G36*
X72000D02*
X70175D01*
X70260Y-31928D01*
X70786Y-32714D01*
X71572Y-33240D01*
X72000Y-33325D01*
Y-31500D01*
D02*
G37*
G36*
X61825Y-33500D02*
X60000D01*
Y-35325D01*
X60428Y-35240D01*
X61214Y-34714D01*
X61740Y-33928D01*
X61825Y-33500D01*
D02*
G37*
G36*
X59000D02*
X57175D01*
X57260Y-33928D01*
X57786Y-34714D01*
X58572Y-35240D01*
X59000Y-35325D01*
Y-33500D01*
D02*
G37*
G36*
X8000Y-34675D02*
X7572Y-34760D01*
X6786Y-35286D01*
X6260Y-36072D01*
X6175Y-36500D01*
X8000D01*
Y-34675D01*
D02*
G37*
G36*
X30380Y-40500D02*
X25730D01*
X25815Y-40928D01*
X26037Y-41260D01*
X26012Y-41321D01*
X25617Y-41585D01*
X25353Y-41981D01*
X25260Y-42447D01*
Y-45197D01*
X30850D01*
Y-42447D01*
X30757Y-41981D01*
X30493Y-41585D01*
X30098Y-41321D01*
X30073Y-41260D01*
X30295Y-40928D01*
X30380Y-40500D01*
D02*
G37*
G36*
X30850Y-46197D02*
X28555D01*
Y-50165D01*
X29632D01*
X30098Y-50072D01*
X30493Y-49808D01*
X30757Y-49413D01*
X30850Y-48947D01*
Y-46197D01*
D02*
G37*
G36*
X27555D02*
X25260D01*
Y-48947D01*
X25353Y-49413D01*
X25617Y-49808D01*
X26012Y-50072D01*
X26478Y-50165D01*
X27555D01*
Y-46197D01*
D02*
G37*
G36*
X62325Y-48500D02*
X57487D01*
X57316Y-48534D01*
X56921Y-48798D01*
X56656Y-49194D01*
X56563Y-49661D01*
Y-53000D01*
X62547D01*
Y-49661D01*
X62454Y-49194D01*
X62248Y-48886D01*
X62325Y-48500D01*
D02*
G37*
G36*
X62547Y-54000D02*
X60055D01*
Y-58559D01*
X61327D01*
X61794Y-58466D01*
X62190Y-58201D01*
X62454Y-57806D01*
X62547Y-57339D01*
Y-54000D01*
D02*
G37*
G36*
X59055D02*
X56563D01*
Y-57339D01*
X56656Y-57806D01*
X56921Y-58201D01*
X57316Y-58466D01*
X57784Y-58559D01*
X59055D01*
Y-54000D01*
D02*
G37*
G36*
X139799Y-58146D02*
X136937D01*
Y-61500D01*
X139799D01*
Y-58146D01*
D02*
G37*
G36*
X135937D02*
X133075D01*
Y-61500D01*
X135937D01*
Y-58146D01*
D02*
G37*
G36*
X140120Y-65644D02*
X138295D01*
Y-67469D01*
X138723Y-67384D01*
X139510Y-66858D01*
X140035Y-66071D01*
X140120Y-65644D01*
D02*
G37*
G36*
X139799Y-62500D02*
X136437D01*
X133075D01*
Y-65854D01*
X135512D01*
X135555Y-66071D01*
X136081Y-66858D01*
X136867Y-67384D01*
X137295Y-67469D01*
Y-65144D01*
X137795D01*
Y-64644D01*
X140120D01*
X140035Y-64216D01*
X139799Y-63863D01*
Y-62500D01*
D02*
G37*
G36*
X84000Y-69675D02*
X83572Y-69760D01*
X82786Y-70286D01*
X82260Y-71072D01*
X82175Y-71500D01*
X84000D01*
Y-69675D01*
D02*
G37*
G36*
Y-72500D02*
X82175D01*
X82260Y-72928D01*
X82786Y-73714D01*
X83572Y-74240D01*
X84000Y-74325D01*
Y-72500D01*
D02*
G37*
G36*
X92122Y-71949D02*
X89063D01*
Y-75500D01*
X92122D01*
Y-71949D01*
D02*
G37*
G36*
X85000Y-69675D02*
Y-72000D01*
Y-74742D01*
X85004Y-74746D01*
Y-75500D01*
X88063D01*
Y-71949D01*
X86914D01*
X86740Y-71072D01*
X86214Y-70286D01*
X85428Y-69760D01*
X85000Y-69675D01*
D02*
G37*
G36*
X92122Y-76500D02*
X89063D01*
Y-80051D01*
X92122D01*
Y-76500D01*
D02*
G37*
G36*
X88063D02*
X85004D01*
Y-80051D01*
X88063D01*
Y-76500D01*
D02*
G37*
G36*
X135862Y-79063D02*
X133000D01*
Y-83500D01*
X135862D01*
Y-79063D01*
D02*
G37*
G36*
X132000D02*
X129138D01*
Y-83500D01*
X132000D01*
Y-79063D01*
D02*
G37*
G36*
X10937Y-83638D02*
X6500D01*
Y-86500D01*
X10937D01*
Y-83638D01*
D02*
G37*
G36*
X5500D02*
X1063D01*
Y-86500D01*
X5500D01*
Y-83638D01*
D02*
G37*
G36*
X74000Y-86675D02*
Y-88500D01*
X75825D01*
X75740Y-88072D01*
X75214Y-87286D01*
X74428Y-86760D01*
X74000Y-86675D01*
D02*
G37*
G36*
X67000Y-85638D02*
X62563D01*
Y-88500D01*
X67000D01*
Y-85638D01*
D02*
G37*
G36*
X135862Y-84500D02*
X132500D01*
X129138D01*
Y-88937D01*
X129795D01*
X130187Y-89437D01*
X130175Y-89500D01*
X134825D01*
X134813Y-89437D01*
X135205Y-88937D01*
X135862D01*
Y-84500D01*
D02*
G37*
G36*
X38500Y-87469D02*
Y-89500D01*
X40531D01*
X40508Y-89328D01*
X40249Y-88701D01*
X39836Y-88164D01*
X39298Y-87751D01*
X38672Y-87492D01*
X38500Y-87469D01*
D02*
G37*
G36*
X37500D02*
X37328Y-87492D01*
X36702Y-87751D01*
X36164Y-88164D01*
X35751Y-88701D01*
X35491Y-89328D01*
X35469Y-89500D01*
X37500D01*
Y-87469D01*
D02*
G37*
G36*
X5500Y-87500D02*
X1063D01*
Y-90362D01*
X1063D01*
X1139Y-90505D01*
X760Y-91072D01*
X675Y-91500D01*
X5325D01*
X5240Y-91072D01*
X5100Y-90862D01*
X5367Y-90362D01*
X5500D01*
Y-87500D01*
D02*
G37*
G36*
X10937D02*
X6500D01*
Y-90362D01*
X10937D01*
Y-87500D01*
D02*
G37*
G36*
X75825Y-89500D02*
X74000D01*
Y-91325D01*
X74428Y-91240D01*
X75214Y-90714D01*
X75740Y-89928D01*
X75825Y-89500D01*
D02*
G37*
G36*
X72437Y-85638D02*
X68000D01*
Y-89000D01*
Y-92362D01*
X72437D01*
Y-91705D01*
X72937Y-91312D01*
X73000Y-91325D01*
Y-89000D01*
Y-86675D01*
X72937Y-86687D01*
X72437Y-86295D01*
Y-85638D01*
D02*
G37*
G36*
X134825Y-90500D02*
X133000D01*
Y-92325D01*
X133428Y-92240D01*
X134214Y-91714D01*
X134740Y-90928D01*
X134825Y-90500D01*
D02*
G37*
G36*
X132000D02*
X130175D01*
X130260Y-90928D01*
X130786Y-91714D01*
X131572Y-92240D01*
X132000Y-92325D01*
Y-90500D01*
D02*
G37*
G36*
X67000Y-89500D02*
X62563D01*
Y-92362D01*
X67000D01*
Y-89500D01*
D02*
G37*
G36*
X40531Y-90500D02*
X38500D01*
Y-92531D01*
X38672Y-92509D01*
X39298Y-92249D01*
X39836Y-91836D01*
X40249Y-91299D01*
X40508Y-90672D01*
X40531Y-90500D01*
D02*
G37*
G36*
X37500D02*
X35469D01*
X35491Y-90672D01*
X35751Y-91299D01*
X36164Y-91836D01*
X36702Y-92249D01*
X37328Y-92509D01*
X37500Y-92531D01*
Y-90500D01*
D02*
G37*
G36*
X20577Y-41229D02*
X17423D01*
X16957Y-41321D01*
X16562Y-41585D01*
X16298Y-41981D01*
X16205Y-42447D01*
Y-48947D01*
X16298Y-49413D01*
X16451Y-49643D01*
Y-65835D01*
X12908D01*
X12437Y-65928D01*
X12037Y-66195D01*
X11771Y-66594D01*
X11677Y-67065D01*
Y-73541D01*
X11771Y-74012D01*
X12037Y-74411D01*
X12437Y-74678D01*
X12908Y-74772D01*
X14475D01*
Y-83638D01*
X12087D01*
Y-90362D01*
X14475D01*
Y-98024D01*
X14669Y-98999D01*
X15221Y-99826D01*
X21061Y-105666D01*
X20957Y-105917D01*
X20815Y-107000D01*
X20882Y-107513D01*
X15198Y-113198D01*
X14645Y-114024D01*
X14451Y-115000D01*
Y-122000D01*
X14645Y-122976D01*
X15198Y-123802D01*
X20198Y-128802D01*
X21024Y-129355D01*
X22000Y-129549D01*
X27573D01*
X28235Y-130057D01*
X29086Y-130410D01*
X30000Y-130530D01*
X30914Y-130410D01*
X31765Y-130057D01*
X32496Y-129496D01*
X33057Y-128765D01*
X33410Y-127914D01*
X33530Y-127000D01*
X33410Y-126086D01*
X33057Y-125235D01*
X32496Y-124504D01*
X31765Y-123943D01*
X30914Y-123590D01*
X30000Y-123470D01*
X29432Y-123545D01*
X29390Y-123550D01*
X29150Y-123077D01*
X29150Y-122777D01*
Y-122777D01*
X29150Y-122776D01*
Y-114850D01*
X21462D01*
X21254Y-114350D01*
X24487Y-111118D01*
X25000Y-111185D01*
X26083Y-111043D01*
X27093Y-110625D01*
X27959Y-109959D01*
X28625Y-109093D01*
X29043Y-108083D01*
X29185Y-107000D01*
X29043Y-105917D01*
X28625Y-104907D01*
X27959Y-104041D01*
X27093Y-103375D01*
X26083Y-102957D01*
X25483Y-102878D01*
X19573Y-96968D01*
Y-90362D01*
X21961D01*
Y-86093D01*
X22461Y-85847D01*
X22735Y-86057D01*
X23586Y-86410D01*
X24500Y-86530D01*
X25414Y-86410D01*
X25539Y-86358D01*
X26500Y-86549D01*
X27476Y-86355D01*
X28302Y-85802D01*
X33056Y-81049D01*
X43079D01*
Y-82334D01*
X43172Y-82803D01*
X43438Y-83200D01*
X43835Y-83466D01*
X44304Y-83559D01*
X47951D01*
Y-84500D01*
X48145Y-85475D01*
X48698Y-86302D01*
X49525Y-86855D01*
X49806Y-86911D01*
X51539Y-88644D01*
Y-92362D01*
X55561D01*
X56500Y-92549D01*
X57439Y-92362D01*
X61413D01*
Y-85638D01*
X55743D01*
X54126Y-84021D01*
X54317Y-83559D01*
X56696D01*
X57165Y-83466D01*
X57562Y-83200D01*
X57828Y-82803D01*
X57921Y-82334D01*
Y-74666D01*
X57828Y-74197D01*
X57562Y-73800D01*
X57165Y-73534D01*
X56696Y-73441D01*
X53049D01*
Y-58259D01*
X53135Y-58201D01*
X53399Y-57806D01*
X53492Y-57339D01*
Y-49661D01*
X53399Y-49194D01*
X53135Y-48798D01*
X52739Y-48534D01*
X52272Y-48441D01*
X48728D01*
X48261Y-48534D01*
X47866Y-48798D01*
X47601Y-49194D01*
X47508Y-49661D01*
Y-57339D01*
X47601Y-57806D01*
X47866Y-58201D01*
X47951Y-58259D01*
Y-73441D01*
X44304D01*
X43835Y-73534D01*
X43438Y-73800D01*
X43172Y-74197D01*
X43079Y-74666D01*
Y-75951D01*
X32000D01*
X31025Y-76145D01*
X30198Y-76698D01*
X26654Y-80241D01*
X26265Y-79943D01*
X25414Y-79590D01*
X24500Y-79470D01*
X23586Y-79590D01*
X22735Y-79943D01*
X22004Y-80504D01*
X21443Y-81235D01*
X21090Y-82086D01*
X20970Y-83000D01*
X21004Y-83262D01*
X20675Y-83638D01*
X19573D01*
Y-74772D01*
X25093D01*
X25563Y-74678D01*
X25962Y-74411D01*
X26229Y-74012D01*
X26323Y-73541D01*
Y-67065D01*
X26229Y-66594D01*
X25962Y-66195D01*
X25563Y-65928D01*
X25093Y-65835D01*
X21549D01*
Y-49643D01*
X21702Y-49413D01*
X21795Y-48947D01*
Y-42447D01*
X21702Y-41981D01*
X21438Y-41585D01*
X21043Y-41321D01*
X20577Y-41229D01*
D02*
G37*
G36*
X5325Y-92500D02*
X3500D01*
Y-94325D01*
X3928Y-94240D01*
X4714Y-93714D01*
X5240Y-92928D01*
X5325Y-92500D01*
D02*
G37*
G36*
X2500D02*
X675D01*
X760Y-92928D01*
X1286Y-93714D01*
X2072Y-94240D01*
X2500Y-94325D01*
Y-92500D01*
D02*
G37*
G36*
X38950Y-103050D02*
X31050D01*
Y-110950D01*
X38950D01*
Y-103050D01*
D02*
G37*
G36*
X129150Y-112850D02*
X125500D01*
Y-116500D01*
X129150D01*
Y-112850D01*
D02*
G37*
G36*
X104150D02*
X100500D01*
Y-116500D01*
X104150D01*
Y-112850D01*
D02*
G37*
G36*
X99500D02*
X95850D01*
Y-116500D01*
X99500D01*
Y-112850D01*
D02*
G37*
G36*
X124500D02*
X120850D01*
Y-116500D01*
X124500D01*
Y-112850D01*
D02*
G37*
G36*
X129150Y-117500D02*
X125500D01*
Y-121150D01*
X129150D01*
Y-117500D01*
D02*
G37*
G36*
X115000Y-113016D02*
X113969Y-113152D01*
X113008Y-113550D01*
X112183Y-114183D01*
X111550Y-115008D01*
X111152Y-115969D01*
X111016Y-117000D01*
X111152Y-118031D01*
X111550Y-118992D01*
X112183Y-119817D01*
X113008Y-120450D01*
X113969Y-120848D01*
X114624Y-120934D01*
X114901Y-120971D01*
X114868Y-121471D01*
X104517D01*
X104150Y-121150D01*
Y-117500D01*
X100000D01*
X95850D01*
Y-119923D01*
X95389Y-120114D01*
X93689Y-118415D01*
X93848Y-118031D01*
X93984Y-117000D01*
X93848Y-115969D01*
X93450Y-115008D01*
X92817Y-114183D01*
X91992Y-113550D01*
X91031Y-113152D01*
X90000Y-113016D01*
X88969Y-113152D01*
X88008Y-113550D01*
X87183Y-114183D01*
X86550Y-115008D01*
X86358Y-115471D01*
X85980D01*
X85395Y-115587D01*
X84899Y-115919D01*
X81283Y-119534D01*
X81007Y-119719D01*
X76607Y-124118D01*
X75551D01*
X74966Y-124235D01*
X74470Y-124566D01*
X73640Y-125396D01*
X71726D01*
X71141Y-125512D01*
X70645Y-125844D01*
X68844Y-127645D01*
X68512Y-128141D01*
X68396Y-128726D01*
Y-129441D01*
X67919Y-129919D01*
X67587Y-130415D01*
X67471Y-131000D01*
Y-131409D01*
X67318Y-131511D01*
X67097Y-131842D01*
X67019Y-132232D01*
Y-135768D01*
X67055Y-135951D01*
X66737Y-136451D01*
X53000D01*
X52025Y-136645D01*
X51198Y-137198D01*
X48944Y-139451D01*
X22000D01*
X21545Y-139541D01*
X21000Y-139470D01*
X20086Y-139590D01*
X19235Y-139943D01*
X18504Y-140504D01*
X17943Y-141235D01*
X17590Y-142086D01*
X17470Y-143000D01*
X17590Y-143914D01*
X17943Y-144765D01*
X18504Y-145496D01*
X19235Y-146057D01*
X20086Y-146410D01*
X21000Y-146530D01*
X21914Y-146410D01*
X22765Y-146057D01*
X23496Y-145496D01*
X24057Y-144765D01*
X24147Y-144549D01*
X42944D01*
X44217Y-145822D01*
X45044Y-146375D01*
X45074Y-146380D01*
Y-147161D01*
X44637D01*
X44250Y-147238D01*
X43922Y-147457D01*
X43702Y-147785D01*
X43626Y-148172D01*
Y-150347D01*
X43702Y-150734D01*
X43922Y-151063D01*
Y-151197D01*
X43702Y-151525D01*
X43626Y-151912D01*
Y-154088D01*
X43702Y-154475D01*
X43922Y-154803D01*
Y-154937D01*
X43702Y-155265D01*
X43626Y-155652D01*
Y-157828D01*
X43702Y-158215D01*
X43922Y-158543D01*
X44250Y-158762D01*
X44490Y-158810D01*
Y-161347D01*
X42366Y-163471D01*
X23500D01*
X22915Y-163587D01*
X22419Y-163919D01*
X18919Y-167419D01*
X18587Y-167915D01*
X18501Y-168346D01*
X17401D01*
Y-175654D01*
X23725D01*
Y-168346D01*
X22971D01*
X22779Y-167884D01*
X24134Y-166529D01*
X43000D01*
X43585Y-166413D01*
X44081Y-166081D01*
X47101Y-163062D01*
X47433Y-162566D01*
X47549Y-161980D01*
Y-158839D01*
X48977D01*
X49364Y-158762D01*
X49692Y-158543D01*
X49912Y-158215D01*
X49989Y-157828D01*
Y-155652D01*
X49912Y-155265D01*
X49692Y-154937D01*
Y-154803D01*
X49912Y-154475D01*
X50411Y-154266D01*
X50624Y-154393D01*
X50701Y-154498D01*
Y-156500D01*
X54063D01*
X57425D01*
Y-153146D01*
X55254D01*
X55144Y-152981D01*
X54663Y-152500D01*
X52000D01*
Y-152000D01*
X51500D01*
Y-149469D01*
X51328Y-149492D01*
X50701Y-149751D01*
X50489Y-149914D01*
X49989Y-149668D01*
Y-148172D01*
X49912Y-147785D01*
X49692Y-147457D01*
X49364Y-147238D01*
X48977Y-147161D01*
X48540D01*
Y-144807D01*
X48752Y-144549D01*
X50000D01*
X50976Y-144355D01*
X51802Y-143802D01*
X54056Y-141549D01*
X57848D01*
X58000Y-142049D01*
X57430Y-142430D01*
X56948Y-143150D01*
X56779Y-144000D01*
X56948Y-144850D01*
X57430Y-145570D01*
X58150Y-146052D01*
X59000Y-146221D01*
X59048Y-146211D01*
X60408Y-147571D01*
Y-153346D01*
X58775D01*
Y-160654D01*
X60408D01*
Y-164657D01*
X59318D01*
Y-173343D01*
X61680D01*
X66811Y-178473D01*
Y-180588D01*
X66887Y-180975D01*
X67107Y-181303D01*
X67435Y-181522D01*
X67822Y-181599D01*
X69219D01*
Y-182401D01*
X67822D01*
X67435Y-182478D01*
X67107Y-182697D01*
X66887Y-183025D01*
X66811Y-183412D01*
Y-185588D01*
X66887Y-185975D01*
X67107Y-186303D01*
X67435Y-186522D01*
X67822Y-186599D01*
X73934D01*
X74321Y-186522D01*
X74649Y-186303D01*
X74669Y-186273D01*
X75169Y-186425D01*
Y-186500D01*
X81500D01*
Y-176330D01*
X76425D01*
X75944Y-176426D01*
X75537Y-176698D01*
X75264Y-177106D01*
X75171Y-177578D01*
X75147Y-177593D01*
X74669Y-177727D01*
X74649Y-177697D01*
X74321Y-177478D01*
X73934Y-177401D01*
X70064D01*
X65446Y-172783D01*
Y-164657D01*
X63466D01*
Y-160654D01*
X65099D01*
Y-153346D01*
X63466D01*
Y-146937D01*
X63350Y-146352D01*
X63018Y-145856D01*
X61211Y-144048D01*
X61221Y-144000D01*
X61052Y-143150D01*
X60570Y-142430D01*
X60000Y-142049D01*
X60152Y-141549D01*
X67938D01*
X67988Y-142049D01*
X67649Y-142116D01*
X67318Y-142338D01*
X67097Y-142669D01*
X67019Y-143059D01*
Y-146595D01*
X67097Y-146985D01*
X67318Y-147316D01*
X67490Y-147431D01*
Y-154520D01*
X67607Y-155105D01*
X67938Y-155601D01*
X82289Y-169952D01*
X82279Y-170000D01*
X82448Y-170850D01*
X82930Y-171570D01*
X83650Y-172052D01*
X84500Y-172221D01*
X85350Y-172052D01*
X86070Y-171570D01*
X86552Y-170850D01*
X86630Y-170454D01*
X86841Y-170347D01*
X87168Y-170315D01*
X87201Y-170353D01*
Y-175559D01*
X88703D01*
Y-176257D01*
X88203Y-176524D01*
X88056Y-176426D01*
X87575Y-176330D01*
X82500D01*
Y-186500D01*
X88831D01*
Y-186425D01*
X89331Y-186273D01*
X89351Y-186303D01*
X89679Y-186522D01*
X90066Y-186599D01*
X96178D01*
X96565Y-186522D01*
X96893Y-186303D01*
X97113Y-185975D01*
X97137Y-185852D01*
X97148Y-185850D01*
X97644Y-185519D01*
X100081Y-183081D01*
X100413Y-182585D01*
X100529Y-182000D01*
Y-178633D01*
X100884Y-178279D01*
X101346Y-178471D01*
Y-178662D01*
X108654D01*
Y-177029D01*
X114500D01*
X115085Y-176913D01*
X115581Y-176581D01*
X120633Y-171529D01*
X128858D01*
X129050Y-171992D01*
X129683Y-172817D01*
X130508Y-173450D01*
X131469Y-173848D01*
X132500Y-173984D01*
X133531Y-173848D01*
X134492Y-173450D01*
X135317Y-172817D01*
X135950Y-171992D01*
X136348Y-171031D01*
X136484Y-170000D01*
X136348Y-168969D01*
X135950Y-168008D01*
X135317Y-167183D01*
X134492Y-166550D01*
X133531Y-166152D01*
X132500Y-166016D01*
X131469Y-166152D01*
X130508Y-166550D01*
X129683Y-167183D01*
X129050Y-168008D01*
X128858Y-168471D01*
X120000D01*
X119415Y-168587D01*
X118919Y-168919D01*
X113866Y-173971D01*
X108654D01*
Y-172338D01*
X101827D01*
X101583Y-172338D01*
X101259Y-171927D01*
X101266Y-171838D01*
X102302Y-170802D01*
X102855Y-169975D01*
X103049Y-169000D01*
Y-155556D01*
X115182Y-143422D01*
X116000Y-143530D01*
X116914Y-143410D01*
X117765Y-143057D01*
X118496Y-142496D01*
X119057Y-141765D01*
X119410Y-140914D01*
X119530Y-140000D01*
X119410Y-139086D01*
X119057Y-138235D01*
X118496Y-137504D01*
X117765Y-136943D01*
X116914Y-136590D01*
X116000Y-136470D01*
X115086Y-136590D01*
X114235Y-136943D01*
X113504Y-137504D01*
X112943Y-138235D01*
X112789Y-138606D01*
X98698Y-152698D01*
X98145Y-153524D01*
X97951Y-154500D01*
Y-167944D01*
X96444Y-169451D01*
X95303D01*
Y-168441D01*
X87201D01*
Y-169647D01*
X87168Y-169685D01*
X86841Y-169653D01*
X86630Y-169546D01*
X86552Y-169150D01*
X86070Y-168430D01*
X85350Y-167948D01*
X84500Y-167779D01*
X84452Y-167789D01*
X70549Y-153886D01*
Y-147772D01*
X70606Y-147724D01*
X71049Y-147551D01*
X71311Y-147726D01*
X71780Y-147819D01*
X73740D01*
X74209Y-147726D01*
X74606Y-147460D01*
X75129Y-147537D01*
X75184Y-148058D01*
X74948Y-148410D01*
X74779Y-149260D01*
X74948Y-150110D01*
X75430Y-150830D01*
X76150Y-151311D01*
X77000Y-151480D01*
X77850Y-151311D01*
X78570Y-150830D01*
X79052Y-150110D01*
X79221Y-149260D01*
X79052Y-148410D01*
X78570Y-147690D01*
X78529Y-147662D01*
Y-145327D01*
X78501Y-145183D01*
Y-143059D01*
X78423Y-142669D01*
X78202Y-142338D01*
X77871Y-142116D01*
X77480Y-142039D01*
X75520D01*
X75309Y-141866D01*
Y-140012D01*
X75115Y-139036D01*
X74562Y-138209D01*
X73835Y-137482D01*
X74000Y-136940D01*
X74209Y-136899D01*
X74606Y-136633D01*
X75129Y-136710D01*
X75520Y-136788D01*
X77480D01*
X77871Y-136710D01*
X78202Y-136489D01*
X78423Y-136158D01*
X78501Y-135768D01*
Y-134103D01*
X80522Y-132081D01*
X80854Y-131585D01*
X80970Y-131000D01*
Y-127193D01*
X83634Y-124529D01*
X91909D01*
X91923Y-124550D01*
X91656Y-125050D01*
X86050D01*
Y-132950D01*
X93950D01*
Y-126766D01*
X94411Y-126574D01*
X96112Y-128275D01*
X96016Y-129000D01*
X96152Y-130031D01*
X96550Y-130992D01*
X97183Y-131817D01*
X98008Y-132450D01*
X98969Y-132848D01*
X100000Y-132984D01*
X101031Y-132848D01*
X101992Y-132450D01*
X102817Y-131817D01*
X103450Y-130992D01*
X103848Y-130031D01*
X103984Y-129000D01*
X103848Y-127969D01*
X103450Y-127008D01*
X102817Y-126183D01*
X101992Y-125550D01*
X101031Y-125152D01*
X100491Y-125081D01*
X100356Y-124804D01*
X100337Y-124556D01*
X100369Y-124529D01*
X121367D01*
X122389Y-125551D01*
X122356Y-126050D01*
X122183Y-126183D01*
X121550Y-127008D01*
X121152Y-127969D01*
X121016Y-129000D01*
X121152Y-130031D01*
X121550Y-130992D01*
X122183Y-131817D01*
X123008Y-132450D01*
X123969Y-132848D01*
X125000Y-132984D01*
X126031Y-132848D01*
X126992Y-132450D01*
X127817Y-131817D01*
X128450Y-130992D01*
X128848Y-130031D01*
X128984Y-129000D01*
X128848Y-127969D01*
X128450Y-127008D01*
X127817Y-126183D01*
X126992Y-125550D01*
X126316Y-125270D01*
X126081Y-124919D01*
X123081Y-121919D01*
X122679Y-121650D01*
X122749Y-121181D01*
X122762Y-121150D01*
X124500D01*
Y-117500D01*
X120850D01*
Y-120971D01*
X120850Y-121150D01*
X120483Y-121471D01*
X115132D01*
X115099Y-120971D01*
X115376Y-120934D01*
X116031Y-120848D01*
X116992Y-120450D01*
X117817Y-119817D01*
X118450Y-118992D01*
X118848Y-118031D01*
X118984Y-117000D01*
X118848Y-115969D01*
X118450Y-115008D01*
X117817Y-114183D01*
X116992Y-113550D01*
X116031Y-113152D01*
X115000Y-113016D01*
D02*
G37*
G36*
X7500Y-120469D02*
Y-122500D01*
X9531D01*
X9509Y-122328D01*
X9249Y-121702D01*
X8836Y-121164D01*
X8298Y-120751D01*
X7672Y-120492D01*
X7500Y-120469D01*
D02*
G37*
G36*
X6500D02*
X6328Y-120492D01*
X5702Y-120751D01*
X5164Y-121164D01*
X4751Y-121702D01*
X4492Y-122328D01*
X4469Y-122500D01*
X6500D01*
Y-120469D01*
D02*
G37*
G36*
X70450Y-115050D02*
X62550D01*
Y-122950D01*
X70450D01*
Y-115050D01*
D02*
G37*
G36*
X35000Y-115016D02*
X33969Y-115152D01*
X33008Y-115550D01*
X32183Y-116183D01*
X31550Y-117008D01*
X31152Y-117969D01*
X31016Y-119000D01*
X31152Y-120031D01*
X31550Y-120992D01*
X32183Y-121817D01*
X33008Y-122450D01*
X33969Y-122848D01*
X35000Y-122984D01*
X36031Y-122848D01*
X36992Y-122450D01*
X37817Y-121817D01*
X38450Y-120992D01*
X38848Y-120031D01*
X38984Y-119000D01*
X38848Y-117969D01*
X38450Y-117008D01*
X37817Y-116183D01*
X36992Y-115550D01*
X36031Y-115152D01*
X35000Y-115016D01*
D02*
G37*
G36*
X9531Y-123500D02*
X7500D01*
Y-125531D01*
X7672Y-125508D01*
X8298Y-125249D01*
X8836Y-124836D01*
X9249Y-124299D01*
X9509Y-123672D01*
X9531Y-123500D01*
D02*
G37*
G36*
X6500D02*
X4469D01*
X4492Y-123672D01*
X4751Y-124299D01*
X5164Y-124836D01*
X5702Y-125249D01*
X6328Y-125508D01*
X6500Y-125531D01*
Y-123500D01*
D02*
G37*
G36*
X118950Y-125050D02*
X111050D01*
Y-132950D01*
X118950D01*
Y-125050D01*
D02*
G37*
G36*
X23162Y-131346D02*
X16838D01*
Y-133471D01*
X11000D01*
X10865Y-133498D01*
X10031Y-133152D01*
X9000Y-133016D01*
X7969Y-133152D01*
X7008Y-133550D01*
X6183Y-134183D01*
X5550Y-135008D01*
X5152Y-135969D01*
X5095Y-136403D01*
X5087Y-136415D01*
X4971Y-137000D01*
X5087Y-137585D01*
X5095Y-137597D01*
X5152Y-138031D01*
X5550Y-138992D01*
X6183Y-139817D01*
X7008Y-140450D01*
X7969Y-140848D01*
X9000Y-140984D01*
X10031Y-140848D01*
X10992Y-140450D01*
X11817Y-139817D01*
X12450Y-138992D01*
X12848Y-138031D01*
X12984Y-137000D01*
X12971Y-136905D01*
X13301Y-136529D01*
X16838D01*
Y-138654D01*
X23162D01*
Y-131346D01*
D02*
G37*
G36*
X48500Y-132469D02*
Y-134500D01*
X50531D01*
X50508Y-134328D01*
X50249Y-133702D01*
X49836Y-133164D01*
X49299Y-132751D01*
X48672Y-132492D01*
X48500Y-132469D01*
D02*
G37*
G36*
X43374Y-131146D02*
X40512D01*
Y-134500D01*
X43374D01*
Y-131146D01*
D02*
G37*
G36*
X56500Y-104016D02*
X55469Y-104152D01*
X54508Y-104550D01*
X53683Y-105183D01*
X53050Y-106008D01*
X52652Y-106969D01*
X52516Y-108000D01*
X52652Y-109031D01*
X53050Y-109992D01*
X53683Y-110817D01*
X53883Y-110971D01*
X53714Y-111471D01*
X50571D01*
X49986Y-111587D01*
X49489Y-111919D01*
X46922Y-114486D01*
X46415Y-114587D01*
X45919Y-114919D01*
X45587Y-115415D01*
X45471Y-116000D01*
Y-119367D01*
X34919Y-129919D01*
X34587Y-130415D01*
X34471Y-131000D01*
Y-131346D01*
X32838D01*
Y-133471D01*
X31036D01*
Y-131346D01*
X24712D01*
Y-138654D01*
X31036D01*
Y-136529D01*
X32838D01*
Y-138654D01*
X39162D01*
Y-131346D01*
X38471D01*
X38279Y-130884D01*
X48081Y-121081D01*
X48413Y-120585D01*
X48529Y-120000D01*
Y-117164D01*
X48652Y-117081D01*
X51204Y-114529D01*
X56368D01*
X56401Y-115029D01*
X56124Y-115066D01*
X55469Y-115152D01*
X54508Y-115550D01*
X53683Y-116183D01*
X53050Y-117008D01*
X52652Y-117969D01*
X52516Y-119000D01*
X52652Y-120031D01*
X53050Y-120992D01*
X53543Y-121635D01*
X53471Y-122000D01*
Y-131403D01*
X53430Y-131430D01*
X52948Y-132150D01*
X52779Y-133000D01*
X52948Y-133850D01*
X53430Y-134570D01*
X54150Y-135052D01*
X55000Y-135221D01*
X55850Y-135052D01*
X56570Y-134570D01*
X57052Y-133850D01*
X57221Y-133000D01*
X57052Y-132150D01*
X56570Y-131430D01*
X56529Y-131403D01*
Y-122980D01*
X57531Y-122848D01*
X58492Y-122450D01*
X59317Y-121817D01*
X59950Y-120992D01*
X60348Y-120031D01*
X60484Y-119000D01*
X60348Y-117969D01*
X59950Y-117008D01*
X59317Y-116183D01*
X58492Y-115550D01*
X57531Y-115152D01*
X56876Y-115066D01*
X56599Y-115029D01*
X56632Y-114529D01*
X61500D01*
X62085Y-114413D01*
X62581Y-114081D01*
X64713Y-111950D01*
X70450D01*
Y-104050D01*
X62550D01*
Y-109787D01*
X60866Y-111471D01*
X59286D01*
X59117Y-110971D01*
X59317Y-110817D01*
X59950Y-109992D01*
X60348Y-109031D01*
X60484Y-108000D01*
X60348Y-106969D01*
X59950Y-106008D01*
X59317Y-105183D01*
X58492Y-104550D01*
X57531Y-104152D01*
X56500Y-104016D01*
D02*
G37*
G36*
X50531Y-135500D02*
X48500D01*
Y-137531D01*
X48672Y-137508D01*
X49299Y-137249D01*
X49836Y-136836D01*
X50249Y-136299D01*
X50508Y-135672D01*
X50531Y-135500D01*
D02*
G37*
G36*
X47236Y-131146D02*
X44374D01*
Y-135000D01*
Y-138854D01*
X47236D01*
Y-137989D01*
X47500Y-137764D01*
Y-135000D01*
Y-132236D01*
X47236Y-132011D01*
Y-131146D01*
D02*
G37*
G36*
X43374Y-135500D02*
X40512D01*
Y-138854D01*
X43374D01*
Y-135500D01*
D02*
G37*
G36*
X132500Y-137469D02*
Y-139500D01*
X134531D01*
X134509Y-139328D01*
X134249Y-138701D01*
X133836Y-138164D01*
X133299Y-137751D01*
X132672Y-137492D01*
X132500Y-137469D01*
D02*
G37*
G36*
X131500D02*
X131328Y-137492D01*
X130701Y-137751D01*
X130164Y-138164D01*
X129751Y-138701D01*
X129491Y-139328D01*
X129469Y-139500D01*
X131500D01*
Y-137469D01*
D02*
G37*
G36*
X103500Y-138469D02*
Y-140500D01*
X105531D01*
X105508Y-140328D01*
X105249Y-139701D01*
X104836Y-139164D01*
X104298Y-138751D01*
X103672Y-138491D01*
X103500Y-138469D01*
D02*
G37*
G36*
X102500D02*
X102328Y-138491D01*
X101701Y-138751D01*
X101164Y-139164D01*
X100751Y-139701D01*
X100491Y-140328D01*
X100469Y-140500D01*
X102500D01*
Y-138469D01*
D02*
G37*
G36*
X91752Y-140469D02*
Y-142500D01*
X93783D01*
X93761Y-142328D01*
X93501Y-141701D01*
X93088Y-141164D01*
X92550Y-140751D01*
X91924Y-140491D01*
X91752Y-140469D01*
D02*
G37*
G36*
X90752D02*
X90580Y-140491D01*
X89954Y-140751D01*
X89416Y-141164D01*
X89003Y-141701D01*
X88743Y-142328D01*
X88721Y-142500D01*
X90752D01*
Y-140469D01*
D02*
G37*
G36*
X134531Y-140500D02*
X132500D01*
Y-142531D01*
X132672Y-142508D01*
X133299Y-142249D01*
X133836Y-141836D01*
X134249Y-141298D01*
X134509Y-140672D01*
X134531Y-140500D01*
D02*
G37*
G36*
X131500D02*
X129469D01*
X129491Y-140672D01*
X129751Y-141298D01*
X130164Y-141836D01*
X130701Y-142249D01*
X131328Y-142508D01*
X131500Y-142531D01*
Y-140500D01*
D02*
G37*
G36*
X105531Y-141500D02*
X103500D01*
Y-143531D01*
X103672Y-143509D01*
X104298Y-143249D01*
X104836Y-142836D01*
X105249Y-142298D01*
X105508Y-141672D01*
X105531Y-141500D01*
D02*
G37*
G36*
X102500D02*
X100469D01*
X100491Y-141672D01*
X100751Y-142298D01*
X101164Y-142836D01*
X101701Y-143249D01*
X102328Y-143509D01*
X102500Y-143531D01*
Y-141500D01*
D02*
G37*
G36*
X93783Y-143500D02*
X91752D01*
Y-145531D01*
X91924Y-145509D01*
X92550Y-145249D01*
X93088Y-144836D01*
X93501Y-144299D01*
X93761Y-143672D01*
X93783Y-143500D01*
D02*
G37*
G36*
X90752D02*
X88721D01*
X88743Y-143672D01*
X89003Y-144299D01*
X89416Y-144836D01*
X89954Y-145249D01*
X90580Y-145509D01*
X90752Y-145531D01*
Y-143500D01*
D02*
G37*
G36*
X13150Y-142850D02*
X9500D01*
Y-146500D01*
X13150D01*
Y-142850D01*
D02*
G37*
G36*
X128500Y-144469D02*
Y-146500D01*
X130531D01*
X130508Y-146328D01*
X130249Y-145702D01*
X129836Y-145164D01*
X129298Y-144751D01*
X128672Y-144492D01*
X128500Y-144469D01*
D02*
G37*
G36*
X127500D02*
X127328Y-144492D01*
X126701Y-144751D01*
X126164Y-145164D01*
X125751Y-145702D01*
X125491Y-146328D01*
X125469Y-146500D01*
X127500D01*
Y-144469D01*
D02*
G37*
G36*
X8500Y-142850D02*
X4850D01*
Y-146500D01*
X8500D01*
Y-142850D01*
D02*
G37*
G36*
X15500Y-146469D02*
X15328Y-146492D01*
X14702Y-146751D01*
X14164Y-147164D01*
X13751Y-147702D01*
X13650Y-147946D01*
X13150Y-147847D01*
Y-147500D01*
X9500D01*
Y-151150D01*
X13150D01*
Y-150153D01*
X13650Y-150054D01*
X13751Y-150299D01*
X14164Y-150836D01*
X14702Y-151249D01*
X15328Y-151508D01*
X15500Y-151531D01*
Y-149000D01*
Y-146469D01*
D02*
G37*
G36*
X130531Y-147500D02*
X128500D01*
Y-149531D01*
X128672Y-149509D01*
X129298Y-149249D01*
X129836Y-148836D01*
X130249Y-148299D01*
X130508Y-147672D01*
X130531Y-147500D01*
D02*
G37*
G36*
X127500D02*
X125469D01*
X125491Y-147672D01*
X125751Y-148299D01*
X126164Y-148836D01*
X126701Y-149249D01*
X127328Y-149509D01*
X127500Y-149531D01*
Y-147500D01*
D02*
G37*
G36*
X24854Y-147638D02*
X21500D01*
Y-150500D01*
X24854D01*
Y-147638D01*
D02*
G37*
G36*
X8500Y-147500D02*
X4850D01*
Y-151150D01*
X8500D01*
Y-147500D01*
D02*
G37*
G36*
X52500Y-149469D02*
Y-151500D01*
X54531D01*
X54509Y-151328D01*
X54249Y-150701D01*
X53836Y-150164D01*
X53298Y-149751D01*
X52672Y-149492D01*
X52500Y-149469D01*
D02*
G37*
G36*
X24854Y-151500D02*
X21500D01*
Y-154362D01*
X24854D01*
Y-151500D01*
D02*
G37*
G36*
X16500Y-146469D02*
Y-149000D01*
Y-151531D01*
X16672Y-151508D01*
X17146Y-151854D01*
Y-154362D01*
X20500D01*
Y-151000D01*
Y-147638D01*
X18200D01*
X17836Y-147164D01*
X17299Y-146751D01*
X16672Y-146492D01*
X16500Y-146469D01*
D02*
G37*
G36*
X129063Y-153469D02*
Y-155500D01*
X131094D01*
X131071Y-155328D01*
X130812Y-154701D01*
X130399Y-154164D01*
X129861Y-153751D01*
X129235Y-153491D01*
X129063Y-153469D01*
D02*
G37*
G36*
X128063D02*
X127891Y-153491D01*
X127264Y-153751D01*
X126727Y-154164D01*
X126314Y-154701D01*
X126055Y-155328D01*
X126032Y-155500D01*
X128063D01*
Y-153469D01*
D02*
G37*
G36*
X30000Y-145208D02*
X29277Y-145303D01*
X28604Y-145582D01*
X28025Y-146026D01*
X27582Y-146604D01*
X27303Y-147277D01*
X27208Y-148000D01*
X27303Y-148723D01*
X27582Y-149396D01*
X28025Y-149975D01*
X28604Y-150418D01*
X29277Y-150697D01*
X29855Y-150773D01*
X29956Y-150901D01*
X30043Y-151104D01*
X30068Y-151288D01*
X29751Y-151701D01*
X29491Y-152328D01*
X29469Y-152500D01*
X32000D01*
Y-153500D01*
X29469D01*
X29491Y-153672D01*
X29751Y-154298D01*
X30164Y-154836D01*
X30702Y-155249D01*
X31328Y-155508D01*
X31525Y-155535D01*
X32001Y-155650D01*
X32011Y-156078D01*
Y-157345D01*
X24654D01*
Y-155712D01*
X17346D01*
Y-157345D01*
X12126D01*
X11541Y-157461D01*
X11045Y-157793D01*
X10493Y-158344D01*
X10031Y-158152D01*
X9000Y-158016D01*
X7969Y-158152D01*
X7008Y-158550D01*
X6183Y-159183D01*
X5550Y-160008D01*
X5152Y-160969D01*
X5095Y-161403D01*
X5087Y-161415D01*
X4971Y-162000D01*
X5087Y-162585D01*
X5095Y-162597D01*
X5152Y-163031D01*
X5550Y-163992D01*
X6183Y-164817D01*
X7008Y-165450D01*
X7969Y-165848D01*
X9000Y-165984D01*
X10031Y-165848D01*
X10992Y-165450D01*
X11817Y-164817D01*
X12450Y-163992D01*
X12848Y-163031D01*
X12984Y-162000D01*
X12848Y-160969D01*
X12821Y-160903D01*
X13155Y-160403D01*
X17346D01*
Y-162036D01*
X24654D01*
Y-160403D01*
X33846D01*
X34432Y-160287D01*
X34928Y-159956D01*
X36044Y-158839D01*
X37363D01*
X37750Y-158762D01*
X38078Y-158543D01*
X38298Y-158215D01*
X38375Y-157828D01*
Y-155652D01*
X38298Y-155265D01*
X38127Y-155011D01*
X38223Y-154947D01*
X38486Y-154553D01*
X38579Y-154088D01*
Y-153500D01*
X35193D01*
Y-152500D01*
X38579D01*
Y-151912D01*
X38486Y-151447D01*
X38223Y-151053D01*
X38127Y-150989D01*
X38298Y-150734D01*
X38375Y-150347D01*
Y-148172D01*
X38298Y-147785D01*
X38078Y-147457D01*
X37750Y-147238D01*
X37363Y-147161D01*
X35257D01*
X35015Y-146919D01*
X34518Y-146587D01*
X33933Y-146471D01*
X32316D01*
X31975Y-146026D01*
X31396Y-145582D01*
X30723Y-145303D01*
X30000Y-145208D01*
D02*
G37*
G36*
X82500Y-156469D02*
Y-158500D01*
X84531D01*
X84509Y-158328D01*
X84249Y-157702D01*
X83836Y-157164D01*
X83298Y-156751D01*
X82672Y-156491D01*
X82500Y-156469D01*
D02*
G37*
G36*
X81500D02*
X81328Y-156491D01*
X80702Y-156751D01*
X80164Y-157164D01*
X79751Y-157702D01*
X79492Y-158328D01*
X79469Y-158500D01*
X81500D01*
Y-156469D01*
D02*
G37*
G36*
X131094Y-156500D02*
X129063D01*
Y-158531D01*
X129235Y-158509D01*
X129861Y-158249D01*
X130399Y-157836D01*
X130812Y-157299D01*
X131071Y-156672D01*
X131094Y-156500D01*
D02*
G37*
G36*
X128063D02*
X126032D01*
X126055Y-156672D01*
X126314Y-157299D01*
X126727Y-157836D01*
X127264Y-158249D01*
X127891Y-158509D01*
X128063Y-158531D01*
Y-156500D01*
D02*
G37*
G36*
X114500Y-158469D02*
Y-160500D01*
X116531D01*
X116508Y-160328D01*
X116249Y-159702D01*
X115836Y-159164D01*
X115298Y-158751D01*
X114672Y-158492D01*
X114500Y-158469D01*
D02*
G37*
G36*
X113500D02*
X113328Y-158492D01*
X112701Y-158751D01*
X112164Y-159164D01*
X111751Y-159702D01*
X111492Y-160328D01*
X111469Y-160500D01*
X113500D01*
Y-158469D01*
D02*
G37*
G36*
X57425Y-157500D02*
X54563D01*
Y-160854D01*
X57425D01*
Y-157500D01*
D02*
G37*
G36*
X53563D02*
X50701D01*
Y-160854D01*
X53563D01*
Y-157500D01*
D02*
G37*
G36*
X91500Y-158675D02*
Y-161000D01*
X90500D01*
Y-158675D01*
X90072Y-158760D01*
X89286Y-159286D01*
X88760Y-160072D01*
X88662Y-160567D01*
X87201D01*
Y-163626D01*
X95303D01*
Y-160567D01*
X93338D01*
X93240Y-160072D01*
X92714Y-159286D01*
X91928Y-158760D01*
X91500Y-158675D01*
D02*
G37*
G36*
X84531Y-159500D02*
X82500D01*
Y-161531D01*
X82672Y-161509D01*
X83298Y-161249D01*
X83836Y-160836D01*
X84249Y-160299D01*
X84509Y-159672D01*
X84531Y-159500D01*
D02*
G37*
G36*
X81500D02*
X79469D01*
X79492Y-159672D01*
X79751Y-160299D01*
X80164Y-160836D01*
X80702Y-161249D01*
X81328Y-161509D01*
X81500Y-161531D01*
Y-159500D01*
D02*
G37*
G36*
X116531Y-161500D02*
X114500D01*
Y-163531D01*
X114672Y-163508D01*
X115298Y-163249D01*
X115836Y-162836D01*
X116249Y-162299D01*
X116508Y-161672D01*
X116531Y-161500D01*
D02*
G37*
G36*
X113500D02*
X111469D01*
X111492Y-161672D01*
X111751Y-162299D01*
X112164Y-162836D01*
X112701Y-163249D01*
X113328Y-163508D01*
X113500Y-163531D01*
Y-161500D01*
D02*
G37*
G36*
X95303Y-164626D02*
X91752D01*
Y-167685D01*
X95303D01*
Y-164626D01*
D02*
G37*
G36*
X90752D02*
X87201D01*
Y-167685D01*
X90752D01*
Y-164626D01*
D02*
G37*
G36*
X76500Y-167469D02*
Y-169500D01*
X78531D01*
X78509Y-169328D01*
X78249Y-168702D01*
X77836Y-168164D01*
X77298Y-167751D01*
X76672Y-167491D01*
X76500Y-167469D01*
D02*
G37*
G36*
X75500D02*
X75328Y-167491D01*
X74701Y-167751D01*
X74164Y-168164D01*
X73751Y-168702D01*
X73492Y-169328D01*
X73469Y-169500D01*
X75500D01*
Y-167469D01*
D02*
G37*
G36*
X13150Y-167850D02*
X9500D01*
Y-171500D01*
X13150D01*
Y-167850D01*
D02*
G37*
G36*
X8500D02*
X4850D01*
Y-171500D01*
X8500D01*
Y-167850D01*
D02*
G37*
G36*
X78531Y-170500D02*
X76500D01*
Y-172531D01*
X76672Y-172509D01*
X77298Y-172249D01*
X77836Y-171836D01*
X78249Y-171299D01*
X78509Y-170672D01*
X78531Y-170500D01*
D02*
G37*
G36*
X75500D02*
X73469D01*
X73492Y-170672D01*
X73751Y-171299D01*
X74164Y-171836D01*
X74701Y-172249D01*
X75328Y-172509D01*
X75500Y-172531D01*
Y-170500D01*
D02*
G37*
G36*
X53635Y-164657D02*
X47507D01*
Y-167471D01*
X37000D01*
X36415Y-167587D01*
X35919Y-167919D01*
X34419Y-169419D01*
X34087Y-169915D01*
X33971Y-170500D01*
Y-171846D01*
X32338D01*
Y-173971D01*
X31599D01*
Y-168346D01*
X25275D01*
Y-175654D01*
X28929D01*
X29856Y-176581D01*
X30352Y-176913D01*
X30937Y-177029D01*
X32338D01*
Y-179154D01*
X38662D01*
Y-171846D01*
X37029D01*
Y-171133D01*
X37633Y-170529D01*
X47507D01*
Y-173343D01*
X53635D01*
Y-164657D01*
D02*
G37*
G36*
X13150Y-172500D02*
X9500D01*
Y-176150D01*
X13150D01*
Y-172500D01*
D02*
G37*
G36*
X8500D02*
X4850D01*
Y-176150D01*
X8500D01*
Y-172500D01*
D02*
G37*
G36*
X136650Y-175850D02*
X133000D01*
Y-179500D01*
X136650D01*
Y-175850D01*
D02*
G37*
G36*
X132000D02*
X128350D01*
Y-179500D01*
X132000D01*
Y-175850D01*
D02*
G37*
G36*
X136650Y-180500D02*
X133000D01*
Y-184150D01*
X136650D01*
Y-180500D01*
D02*
G37*
G36*
X132000D02*
X128350D01*
Y-184150D01*
X132000D01*
Y-180500D01*
D02*
G37*
G36*
X48000Y-180779D02*
X47150Y-180948D01*
X46430Y-181430D01*
X45948Y-182150D01*
X45779Y-183000D01*
X45789Y-183048D01*
X42303Y-186534D01*
X35654D01*
Y-185901D01*
X28346D01*
Y-186534D01*
X17634D01*
X16955Y-185856D01*
X16459Y-185524D01*
X15874Y-185408D01*
X12641D01*
X12450Y-184945D01*
X11817Y-184120D01*
X10992Y-183487D01*
X10031Y-183089D01*
X9000Y-182953D01*
X7969Y-183089D01*
X7008Y-183487D01*
X6183Y-184120D01*
X5550Y-184945D01*
X5152Y-185906D01*
X5095Y-186340D01*
X5087Y-186352D01*
X4971Y-186937D01*
X5087Y-187522D01*
X5095Y-187534D01*
X5152Y-187968D01*
X5550Y-188929D01*
X6183Y-189754D01*
X7008Y-190387D01*
X7969Y-190785D01*
X9000Y-190921D01*
X10031Y-190785D01*
X10992Y-190387D01*
X11817Y-189754D01*
X12450Y-188929D01*
X12641Y-188466D01*
X15240D01*
X15919Y-189144D01*
X16415Y-189476D01*
X17000Y-189592D01*
X28346D01*
Y-192225D01*
X35654D01*
Y-189592D01*
X42937D01*
X43522Y-189476D01*
X44019Y-189144D01*
X47952Y-185211D01*
X48000Y-185221D01*
X48850Y-185052D01*
X49570Y-184570D01*
X50052Y-183850D01*
X50221Y-183000D01*
X50052Y-182150D01*
X49570Y-181430D01*
X48850Y-180948D01*
X48000Y-180779D01*
D02*
G37*
G36*
X108654Y-180212D02*
X101346D01*
Y-186536D01*
X102471D01*
Y-188229D01*
X102009Y-188421D01*
X101944Y-188356D01*
X101447Y-188024D01*
X100862Y-187908D01*
X97034D01*
X96893Y-187697D01*
X96565Y-187478D01*
X96178Y-187401D01*
X90066D01*
X89679Y-187478D01*
X89351Y-187697D01*
X89331Y-187727D01*
X88831Y-187575D01*
Y-187500D01*
X82500D01*
Y-197670D01*
X87575D01*
X88056Y-197574D01*
X88463Y-197302D01*
X88736Y-196894D01*
X88829Y-196422D01*
X88853Y-196407D01*
X89331Y-196273D01*
X89351Y-196303D01*
X89679Y-196522D01*
X90066Y-196599D01*
X93058D01*
X94892Y-198433D01*
X94779Y-199000D01*
X94948Y-199850D01*
X95430Y-200570D01*
X96150Y-201052D01*
X97000Y-201221D01*
X97850Y-201052D01*
X98570Y-200570D01*
X99052Y-199850D01*
X99221Y-199000D01*
X99052Y-198150D01*
X98570Y-197430D01*
X97850Y-196948D01*
X97704Y-196920D01*
X96971Y-196186D01*
X97113Y-195975D01*
X97189Y-195588D01*
Y-193412D01*
X97113Y-193025D01*
X96893Y-192697D01*
X96565Y-192478D01*
X96178Y-192401D01*
X90066D01*
X89679Y-192478D01*
X89351Y-192697D01*
X89331Y-192727D01*
X88831Y-192575D01*
Y-191425D01*
X89331Y-191273D01*
X89351Y-191303D01*
X89679Y-191522D01*
X90066Y-191599D01*
X96178D01*
X96565Y-191522D01*
X96893Y-191303D01*
X97113Y-190975D01*
X97114Y-190966D01*
X100229D01*
X100838Y-191576D01*
Y-196229D01*
X107162D01*
Y-188920D01*
X105529D01*
Y-186536D01*
X108654D01*
Y-180212D01*
D02*
G37*
G36*
X111374Y-188721D02*
X108512D01*
Y-192075D01*
X111374D01*
Y-188721D01*
D02*
G37*
G36*
X62543Y-189705D02*
X58500D01*
Y-192469D01*
X62543D01*
Y-189705D01*
D02*
G37*
G36*
X57500D02*
X53457D01*
Y-192469D01*
X57500D01*
Y-189705D01*
D02*
G37*
G36*
X116500Y-190437D02*
Y-192469D01*
X118531D01*
X118509Y-192296D01*
X118249Y-191670D01*
X117836Y-191132D01*
X117298Y-190719D01*
X116672Y-190460D01*
X116500Y-190437D01*
D02*
G37*
G36*
X46536Y-171846D02*
X40212D01*
Y-179154D01*
X46536D01*
Y-177029D01*
X47741D01*
X52356Y-181644D01*
X52852Y-181976D01*
X53437Y-182092D01*
X53657D01*
Y-184221D01*
X58507D01*
X64804Y-190518D01*
X65301Y-190850D01*
X65886Y-190966D01*
X66886D01*
X66887Y-190975D01*
X67107Y-191303D01*
X67435Y-191522D01*
X67822Y-191599D01*
X73934D01*
X74321Y-191522D01*
X74649Y-191303D01*
X74669Y-191273D01*
X75169Y-191425D01*
Y-192248D01*
X75089Y-192313D01*
X74669Y-192470D01*
X74399Y-192290D01*
X73934Y-192197D01*
X71378D01*
Y-194500D01*
Y-196803D01*
X73934D01*
X74399Y-196710D01*
X74681Y-196522D01*
X75082Y-196616D01*
X75226Y-196700D01*
X75264Y-196894D01*
X75537Y-197302D01*
X75944Y-197574D01*
X76425Y-197670D01*
X81500D01*
Y-187500D01*
X75169D01*
Y-187575D01*
X74669Y-187727D01*
X74649Y-187697D01*
X74321Y-187478D01*
X73934Y-187401D01*
X67822D01*
X67435Y-187478D01*
X67107Y-187697D01*
X66999Y-187858D01*
X66499Y-187888D01*
X62343Y-183732D01*
Y-178094D01*
X53657D01*
Y-178094D01*
X53285Y-178248D01*
X49455Y-174419D01*
X48959Y-174087D01*
X48374Y-173971D01*
X46536D01*
Y-171846D01*
D02*
G37*
G36*
X70378Y-192197D02*
X67822D01*
X67357Y-192290D01*
X66962Y-192553D01*
X66699Y-192947D01*
X66607Y-193412D01*
Y-194000D01*
X70378D01*
Y-192197D01*
D02*
G37*
G36*
X118531Y-193468D02*
X116500D01*
Y-195500D01*
X116672Y-195477D01*
X117298Y-195218D01*
X117836Y-194805D01*
X118249Y-194267D01*
X118509Y-193641D01*
X118531Y-193468D01*
D02*
G37*
G36*
X115236Y-188721D02*
X112374D01*
Y-192575D01*
Y-196429D01*
X115236D01*
Y-195958D01*
X115500Y-195732D01*
Y-192968D01*
Y-190205D01*
X115236Y-189980D01*
Y-188721D01*
D02*
G37*
G36*
X111374Y-193075D02*
X108512D01*
Y-196429D01*
X111374D01*
Y-193075D01*
D02*
G37*
G36*
X13150Y-192787D02*
X9500D01*
Y-196437D01*
X13150D01*
Y-192787D01*
D02*
G37*
G36*
X8500D02*
X4850D01*
Y-196437D01*
X8500D01*
Y-192787D01*
D02*
G37*
G36*
X35854Y-193575D02*
X32500D01*
Y-196437D01*
X35854D01*
Y-193575D01*
D02*
G37*
G36*
X31500D02*
X28146D01*
Y-196437D01*
X31500D01*
Y-193575D01*
D02*
G37*
G36*
X65500Y-195469D02*
X65328Y-195492D01*
X64701Y-195751D01*
X64164Y-196164D01*
X63751Y-196702D01*
X63491Y-197328D01*
X63469Y-197500D01*
X65500D01*
Y-195469D01*
D02*
G37*
G36*
X45500D02*
Y-197500D01*
X47531D01*
X47508Y-197328D01*
X47249Y-196702D01*
X46836Y-196164D01*
X46299Y-195751D01*
X45672Y-195492D01*
X45500Y-195469D01*
D02*
G37*
G36*
X44500D02*
X44328Y-195492D01*
X43701Y-195751D01*
X43164Y-196164D01*
X42751Y-196702D01*
X42491Y-197328D01*
X42469Y-197500D01*
X44500D01*
Y-195469D01*
D02*
G37*
G36*
X62543Y-193468D02*
X58000D01*
X53457D01*
Y-196232D01*
X55059D01*
X55197Y-196928D01*
X55723Y-197714D01*
X56509Y-198240D01*
X56937Y-198325D01*
Y-196000D01*
X57937D01*
Y-198325D01*
X58365Y-198240D01*
X59151Y-197714D01*
X59677Y-196928D01*
X59815Y-196232D01*
X62543D01*
Y-193468D01*
D02*
G37*
G36*
X131500Y-196469D02*
Y-198500D01*
X133531D01*
X133509Y-198328D01*
X133249Y-197702D01*
X132836Y-197164D01*
X132299Y-196751D01*
X131672Y-196492D01*
X131500Y-196469D01*
D02*
G37*
G36*
X130500D02*
X130328Y-196492D01*
X129701Y-196751D01*
X129164Y-197164D01*
X128751Y-197702D01*
X128491Y-198328D01*
X128469Y-198500D01*
X130500D01*
Y-196469D01*
D02*
G37*
G36*
X70378Y-195000D02*
X66607D01*
Y-195104D01*
X66500Y-195197D01*
Y-198000D01*
Y-200531D01*
X66672Y-200508D01*
X67299Y-200249D01*
X67836Y-199836D01*
X68249Y-199299D01*
X68293Y-199193D01*
X68459Y-199081D01*
X70378Y-197163D01*
Y-195000D01*
D02*
G37*
G36*
X65500Y-198500D02*
X63469D01*
X63491Y-198672D01*
X63751Y-199299D01*
X64164Y-199836D01*
X64701Y-200249D01*
X65328Y-200508D01*
X65500Y-200531D01*
Y-198500D01*
D02*
G37*
G36*
X47531D02*
X45500D01*
Y-200531D01*
X45672Y-200508D01*
X46299Y-200249D01*
X46836Y-199836D01*
X47249Y-199299D01*
X47508Y-198672D01*
X47531Y-198500D01*
D02*
G37*
G36*
X44500D02*
X42469D01*
X42491Y-198672D01*
X42751Y-199299D01*
X43164Y-199836D01*
X43701Y-200249D01*
X44328Y-200508D01*
X44500Y-200531D01*
Y-198500D01*
D02*
G37*
G36*
X13150Y-197437D02*
X9500D01*
Y-201087D01*
X13150D01*
Y-197437D01*
D02*
G37*
G36*
X8500D02*
X4850D01*
Y-201087D01*
X8500D01*
Y-197437D01*
D02*
G37*
G36*
X133531Y-199500D02*
X131500D01*
Y-201531D01*
X131672Y-201508D01*
X132299Y-201249D01*
X132836Y-200836D01*
X133249Y-200299D01*
X133509Y-199672D01*
X133531Y-199500D01*
D02*
G37*
G36*
X130500D02*
X128469D01*
X128491Y-199672D01*
X128751Y-200299D01*
X129164Y-200836D01*
X129701Y-201249D01*
X130328Y-201508D01*
X130500Y-201531D01*
Y-199500D01*
D02*
G37*
G36*
X35854Y-197437D02*
X28146D01*
Y-200299D01*
X28635D01*
X28760Y-200928D01*
X29286Y-201714D01*
X30072Y-202240D01*
X30500Y-202325D01*
Y-200000D01*
X31500D01*
Y-202325D01*
X31928Y-202240D01*
X32714Y-201714D01*
X33240Y-200928D01*
X33365Y-200299D01*
X35854D01*
Y-197437D01*
D02*
G37*
G36*
X37950Y-215050D02*
X30050D01*
Y-222950D01*
X37950D01*
Y-215050D01*
D02*
G37*
G36*
X104150Y-224850D02*
X100500D01*
Y-228500D01*
X104150D01*
Y-224850D01*
D02*
G37*
G36*
X131150D02*
X127500D01*
Y-228500D01*
X131150D01*
Y-224850D01*
D02*
G37*
G36*
X99500D02*
X95850D01*
Y-228500D01*
X99500D01*
Y-224850D01*
D02*
G37*
G36*
X126500D02*
X122850D01*
Y-228500D01*
X126500D01*
Y-224850D01*
D02*
G37*
G36*
X131150Y-229500D02*
X127500D01*
Y-233150D01*
X131150D01*
Y-229500D01*
D02*
G37*
G36*
X34000Y-226016D02*
X32969Y-226152D01*
X32008Y-226550D01*
X31183Y-227183D01*
X30550Y-228008D01*
X30152Y-228969D01*
X30016Y-230000D01*
X30152Y-231031D01*
X30550Y-231992D01*
X31183Y-232817D01*
X32008Y-233450D01*
X32969Y-233848D01*
X34000Y-233984D01*
X35031Y-233848D01*
X35992Y-233450D01*
X36817Y-232817D01*
X37450Y-231992D01*
X37848Y-231031D01*
X37984Y-230000D01*
X37848Y-228969D01*
X37450Y-228008D01*
X36817Y-227183D01*
X35992Y-226550D01*
X35031Y-226152D01*
X34000Y-226016D01*
D02*
G37*
G36*
X68950Y-227050D02*
X61050D01*
Y-234950D01*
X68950D01*
Y-227050D01*
D02*
G37*
G36*
X120950Y-237050D02*
X113050D01*
Y-244950D01*
X120950D01*
Y-237050D01*
D02*
G37*
G36*
X24000Y-214815D02*
X22917Y-214957D01*
X21907Y-215375D01*
X21041Y-216040D01*
X20676Y-216515D01*
X20024Y-216645D01*
X19198Y-217198D01*
X13198Y-223198D01*
X12645Y-224025D01*
X12451Y-225000D01*
Y-233000D01*
X12645Y-233976D01*
X13198Y-234802D01*
X18198Y-239802D01*
X19025Y-240355D01*
X20000Y-240549D01*
X27573D01*
X27959Y-240846D01*
X27789Y-241346D01*
X22901D01*
Y-247471D01*
X12641D01*
X12450Y-247008D01*
X11817Y-246183D01*
X10992Y-245550D01*
X10031Y-245152D01*
X9000Y-245016D01*
X7969Y-245152D01*
X7008Y-245550D01*
X6183Y-246183D01*
X5550Y-247008D01*
X5152Y-247969D01*
X5016Y-249000D01*
X5152Y-250031D01*
X5550Y-250992D01*
X6183Y-251817D01*
X7008Y-252450D01*
X7969Y-252848D01*
X9000Y-252984D01*
X10031Y-252848D01*
X10992Y-252450D01*
X11817Y-251817D01*
X12450Y-250992D01*
X12641Y-250529D01*
X23801D01*
X23992Y-250991D01*
X21454Y-253530D01*
X21000Y-253470D01*
X20086Y-253590D01*
X19235Y-253943D01*
X18504Y-254504D01*
X17943Y-255235D01*
X17590Y-256086D01*
X17470Y-257000D01*
X17590Y-257914D01*
X17943Y-258765D01*
X18082Y-258947D01*
X17820Y-259427D01*
X17328Y-259491D01*
X16702Y-259751D01*
X16164Y-260164D01*
X15751Y-260701D01*
X15492Y-261328D01*
X15469Y-261500D01*
X18000D01*
Y-262500D01*
X15469D01*
X15492Y-262672D01*
X15751Y-263299D01*
X16164Y-263836D01*
X16702Y-264249D01*
X17328Y-264509D01*
X18000Y-264597D01*
X18146Y-264725D01*
Y-266362D01*
X21500D01*
Y-263000D01*
X22000D01*
Y-262500D01*
X25854D01*
Y-259638D01*
X24018D01*
X23771Y-259138D01*
X24057Y-258765D01*
X24410Y-257914D01*
X24430Y-257764D01*
X28644Y-253549D01*
X29812D01*
X30079Y-254049D01*
X29838Y-254410D01*
X29669Y-255260D01*
X29838Y-256110D01*
X30319Y-256830D01*
X30517Y-256962D01*
X30396Y-257483D01*
X30328Y-257491D01*
X29702Y-257751D01*
X29164Y-258164D01*
X28751Y-258701D01*
X28492Y-259328D01*
X28469Y-259500D01*
X31000D01*
Y-260000D01*
X31500D01*
Y-262531D01*
X31672Y-262509D01*
X31956Y-262391D01*
X32456Y-262725D01*
Y-263828D01*
X32533Y-264215D01*
X32752Y-264543D01*
X33081Y-264762D01*
X33468Y-264839D01*
X34108D01*
Y-266729D01*
X31492Y-269345D01*
X25654D01*
Y-267712D01*
X18346D01*
Y-272365D01*
X18240Y-272471D01*
X12641D01*
X12450Y-272008D01*
X11817Y-271183D01*
X10992Y-270550D01*
X10031Y-270152D01*
X9000Y-270016D01*
X7969Y-270152D01*
X7008Y-270550D01*
X6183Y-271183D01*
X5550Y-272008D01*
X5152Y-272969D01*
X5016Y-274000D01*
X5152Y-275031D01*
X5550Y-275992D01*
X6183Y-276817D01*
X7008Y-277450D01*
X7969Y-277848D01*
X9000Y-277984D01*
X10031Y-277848D01*
X10992Y-277450D01*
X11817Y-276817D01*
X12450Y-275992D01*
X12641Y-275529D01*
X17717D01*
X17909Y-275991D01*
X15919Y-277982D01*
X15587Y-278478D01*
X15471Y-279063D01*
Y-281937D01*
X15587Y-282522D01*
X15919Y-283018D01*
X16901Y-284001D01*
Y-288654D01*
X23225D01*
Y-281346D01*
X18572D01*
X18529Y-281304D01*
Y-279696D01*
X21697Y-276529D01*
X43874D01*
X44459Y-276413D01*
X44956Y-276081D01*
X48333Y-272704D01*
X48665Y-272207D01*
X48781Y-271622D01*
Y-270098D01*
X49281Y-269927D01*
X49701Y-270249D01*
X50328Y-270509D01*
X50500Y-270531D01*
Y-268000D01*
Y-265469D01*
X50328Y-265492D01*
X49701Y-265751D01*
X49281Y-266073D01*
X48781Y-265902D01*
Y-264839D01*
X49422D01*
X49809Y-264762D01*
X50137Y-264543D01*
X50357Y-264215D01*
X50434Y-263828D01*
Y-261653D01*
X50357Y-261265D01*
X50186Y-261011D01*
X50282Y-260947D01*
X50545Y-260553D01*
X50638Y-260088D01*
Y-257912D01*
X50545Y-257447D01*
X50333Y-257130D01*
X50545Y-256813D01*
X50638Y-256347D01*
Y-254172D01*
X50613Y-254049D01*
X50985Y-253549D01*
X52944D01*
X55031Y-255635D01*
X55103Y-255923D01*
X55066Y-256291D01*
X54751Y-256701D01*
X54492Y-257328D01*
X54469Y-257500D01*
X57000D01*
Y-258000D01*
X57500D01*
Y-260531D01*
X57672Y-260508D01*
X58298Y-260249D01*
X58836Y-259836D01*
X59249Y-259298D01*
X59303Y-259168D01*
X59823Y-259220D01*
X59948Y-259850D01*
X60430Y-260570D01*
X60471Y-260597D01*
Y-265346D01*
X59775D01*
Y-272654D01*
X63931D01*
Y-275657D01*
X62397D01*
Y-284343D01*
X62668D01*
Y-288960D01*
X61141D01*
X60754Y-289037D01*
X60426Y-289256D01*
X60206Y-289584D01*
X60129Y-289971D01*
Y-292147D01*
X60206Y-292534D01*
X60426Y-292862D01*
X60754Y-293081D01*
X61141Y-293158D01*
X62668D01*
Y-293960D01*
X61141D01*
X60754Y-294037D01*
X60426Y-294256D01*
X60206Y-294584D01*
X60129Y-294971D01*
Y-297147D01*
X60206Y-297534D01*
X60426Y-297862D01*
X60754Y-298081D01*
X61141Y-298158D01*
X67253D01*
X67640Y-298081D01*
X67968Y-297862D01*
X67988Y-297832D01*
X68488Y-297984D01*
Y-298059D01*
X74819D01*
Y-287889D01*
X69744D01*
X69263Y-287985D01*
X68856Y-288257D01*
X68583Y-288665D01*
X68489Y-289137D01*
X68466Y-289152D01*
X67988Y-289286D01*
X67968Y-289256D01*
X67640Y-289037D01*
X67253Y-288960D01*
X65726D01*
Y-284343D01*
X68524D01*
Y-275657D01*
X66990D01*
Y-271524D01*
X66874Y-270938D01*
X66542Y-270442D01*
X66099Y-269999D01*
Y-265346D01*
X63529D01*
Y-260597D01*
X63570Y-260570D01*
X64052Y-259850D01*
X64221Y-259000D01*
X64052Y-258150D01*
X63570Y-257430D01*
X63000Y-257049D01*
X63152Y-256549D01*
X69451D01*
Y-257039D01*
X69240Y-257212D01*
X67279D01*
X66889Y-257290D01*
X66558Y-257511D01*
X66337Y-257842D01*
X66259Y-258232D01*
Y-261768D01*
X66337Y-262158D01*
X66558Y-262489D01*
X66730Y-262604D01*
Y-266260D01*
X66847Y-266845D01*
X67178Y-267341D01*
X79919Y-280081D01*
X80252Y-280304D01*
X80430Y-280570D01*
X81150Y-281052D01*
X82000Y-281221D01*
X82850Y-281052D01*
X83570Y-280570D01*
X84052Y-279850D01*
X84221Y-279000D01*
X84052Y-278150D01*
X83570Y-277430D01*
X82850Y-276948D01*
X82000Y-276779D01*
X81150Y-276948D01*
X81127Y-276964D01*
X69789Y-265626D01*
Y-262945D01*
X69846Y-262897D01*
X70289Y-262724D01*
X70551Y-262899D01*
X71020Y-262992D01*
X72980D01*
X73272Y-262934D01*
X73467Y-263405D01*
X73430Y-263430D01*
X72948Y-264150D01*
X72779Y-265000D01*
X72948Y-265850D01*
X73430Y-266570D01*
X74150Y-267052D01*
X75000Y-267221D01*
X75850Y-267052D01*
X76570Y-266570D01*
X77052Y-265850D01*
X77221Y-265000D01*
X77171Y-264753D01*
X77270Y-264260D01*
Y-262604D01*
X77442Y-262489D01*
X77663Y-262158D01*
X77741Y-261768D01*
Y-258232D01*
X77663Y-257842D01*
X77442Y-257511D01*
X77111Y-257290D01*
X76720Y-257212D01*
X74760D01*
X74549Y-257039D01*
Y-255260D01*
X74355Y-254284D01*
X73802Y-253457D01*
X73001Y-252657D01*
X72999Y-252592D01*
X73178Y-252126D01*
X73449Y-252072D01*
X73846Y-251807D01*
X74369Y-251884D01*
X74760Y-251961D01*
X76720D01*
X77111Y-251884D01*
X77442Y-251662D01*
X77663Y-251331D01*
X77741Y-250941D01*
Y-248422D01*
X84081Y-242081D01*
X84413Y-241585D01*
X84529Y-241000D01*
Y-239134D01*
X85589Y-238074D01*
X86050Y-238266D01*
Y-244950D01*
X93950D01*
Y-238766D01*
X94411Y-238574D01*
X96112Y-240275D01*
X96016Y-241000D01*
X96152Y-242031D01*
X96550Y-242992D01*
X97183Y-243817D01*
X98008Y-244450D01*
X98969Y-244848D01*
X100000Y-244984D01*
X101031Y-244848D01*
X101992Y-244450D01*
X102817Y-243817D01*
X103450Y-242992D01*
X103848Y-242031D01*
X103984Y-241000D01*
X103848Y-239969D01*
X103450Y-239008D01*
X102817Y-238183D01*
X101992Y-237550D01*
X101031Y-237152D01*
X100491Y-237081D01*
X100356Y-236804D01*
X100337Y-236556D01*
X100369Y-236529D01*
X123366D01*
X124389Y-237551D01*
X124356Y-238051D01*
X124183Y-238183D01*
X123550Y-239008D01*
X123152Y-239969D01*
X123016Y-241000D01*
X123152Y-242031D01*
X123550Y-242992D01*
X124183Y-243817D01*
X125008Y-244450D01*
X125969Y-244848D01*
X127000Y-244984D01*
X128031Y-244848D01*
X128992Y-244450D01*
X129817Y-243817D01*
X130450Y-242992D01*
X130848Y-242031D01*
X130984Y-241000D01*
X130848Y-239969D01*
X130450Y-239008D01*
X129817Y-238183D01*
X128992Y-237550D01*
X128316Y-237270D01*
X128081Y-236919D01*
X125081Y-233919D01*
X124679Y-233650D01*
X124749Y-233182D01*
X124762Y-233150D01*
X126500D01*
Y-229500D01*
X122850D01*
Y-232971D01*
X122850Y-233150D01*
X122483Y-233471D01*
X117132D01*
X117099Y-232971D01*
X117376Y-232934D01*
X118031Y-232848D01*
X118992Y-232450D01*
X119817Y-231817D01*
X120450Y-230992D01*
X120848Y-230031D01*
X120984Y-229000D01*
X120848Y-227969D01*
X120450Y-227008D01*
X119817Y-226183D01*
X118992Y-225550D01*
X118031Y-225152D01*
X117000Y-225016D01*
X115969Y-225152D01*
X115008Y-225550D01*
X114183Y-226183D01*
X113550Y-227008D01*
X113152Y-227969D01*
X113016Y-229000D01*
X113152Y-230031D01*
X113550Y-230992D01*
X114183Y-231817D01*
X115008Y-232450D01*
X115969Y-232848D01*
X116624Y-232934D01*
X116901Y-232971D01*
X116868Y-233471D01*
X104517D01*
X104150Y-233150D01*
Y-229500D01*
X100000D01*
X95850D01*
Y-231923D01*
X95389Y-232114D01*
X93993Y-230719D01*
X93657Y-230494D01*
X93656Y-230493D01*
X93848Y-230031D01*
X93984Y-229000D01*
X93848Y-227969D01*
X93450Y-227008D01*
X92817Y-226183D01*
X91992Y-225550D01*
X91031Y-225152D01*
X90000Y-225016D01*
X88969Y-225152D01*
X88008Y-225550D01*
X87183Y-226183D01*
X86550Y-227008D01*
X86152Y-227969D01*
X86016Y-229000D01*
X86112Y-229725D01*
X79366Y-236471D01*
X73878D01*
X73293Y-236587D01*
X72796Y-236919D01*
X67178Y-242537D01*
X66847Y-243033D01*
X66730Y-243618D01*
Y-246569D01*
X66558Y-246684D01*
X66337Y-247015D01*
X66259Y-247406D01*
Y-250941D01*
X66261Y-250951D01*
X65861Y-251451D01*
X63411D01*
X63260Y-250951D01*
X63570Y-250743D01*
X64052Y-250023D01*
X64221Y-249173D01*
X64052Y-248323D01*
X63570Y-247603D01*
X63529Y-247576D01*
Y-245000D01*
X63413Y-244415D01*
X63081Y-243919D01*
X56529Y-237367D01*
Y-234642D01*
X56992Y-234450D01*
X57817Y-233817D01*
X58450Y-232992D01*
X58848Y-232031D01*
X58984Y-231000D01*
X58848Y-229969D01*
X58450Y-229008D01*
X57817Y-228183D01*
X57617Y-228029D01*
X57786Y-227529D01*
X59000D01*
X59585Y-227413D01*
X60081Y-227081D01*
X63213Y-223950D01*
X68950D01*
Y-216050D01*
X61050D01*
Y-221787D01*
X58367Y-224471D01*
X55132D01*
X55099Y-223971D01*
X55376Y-223934D01*
X56031Y-223848D01*
X56992Y-223450D01*
X57817Y-222817D01*
X58450Y-221992D01*
X58848Y-221031D01*
X58984Y-220000D01*
X58848Y-218969D01*
X58450Y-218008D01*
X57817Y-217183D01*
X56992Y-216550D01*
X56031Y-216152D01*
X55000Y-216016D01*
X53969Y-216152D01*
X53008Y-216550D01*
X52183Y-217183D01*
X51550Y-218008D01*
X51152Y-218969D01*
X51016Y-220000D01*
X51152Y-221031D01*
X51550Y-221992D01*
X52183Y-222817D01*
X53008Y-223450D01*
X53969Y-223848D01*
X54624Y-223934D01*
X54901Y-223971D01*
X54868Y-224471D01*
X47000D01*
X46415Y-224587D01*
X45919Y-224919D01*
X43919Y-226919D01*
X43587Y-227415D01*
X43471Y-228000D01*
Y-235367D01*
X40982Y-237856D01*
X40650Y-238352D01*
X40534Y-238937D01*
Y-241346D01*
X38901D01*
Y-242471D01*
X37099D01*
Y-241346D01*
X32211D01*
X32041Y-240846D01*
X32496Y-240496D01*
X33057Y-239765D01*
X33410Y-238914D01*
X33530Y-238000D01*
X33410Y-237086D01*
X33057Y-236235D01*
X32496Y-235504D01*
X31765Y-234943D01*
X30914Y-234590D01*
X30000Y-234470D01*
X29086Y-234590D01*
X28235Y-234943D01*
X27573Y-235451D01*
X21056D01*
X20254Y-234650D01*
X20461Y-234150D01*
X28150D01*
Y-225850D01*
X19850D01*
Y-233539D01*
X19350Y-233746D01*
X17549Y-231944D01*
Y-226056D01*
X21383Y-222222D01*
X21907Y-222625D01*
X22917Y-223043D01*
X24000Y-223185D01*
X25083Y-223043D01*
X26093Y-222625D01*
X26959Y-221959D01*
X27625Y-221093D01*
X28043Y-220083D01*
X28185Y-219000D01*
X28043Y-217917D01*
X27625Y-216907D01*
X26959Y-216040D01*
X26093Y-215375D01*
X25083Y-214957D01*
X24000Y-214815D01*
D02*
G37*
G36*
X100500Y-255469D02*
Y-257500D01*
X102531D01*
X102508Y-257328D01*
X102249Y-256701D01*
X101836Y-256164D01*
X101298Y-255751D01*
X100672Y-255491D01*
X100500Y-255469D01*
D02*
G37*
G36*
X99500D02*
X99328Y-255491D01*
X98702Y-255751D01*
X98164Y-256164D01*
X97751Y-256701D01*
X97492Y-257328D01*
X97469Y-257500D01*
X99500D01*
Y-255469D01*
D02*
G37*
G36*
X13150Y-254850D02*
X9500D01*
Y-258500D01*
X13150D01*
Y-254850D01*
D02*
G37*
G36*
X8500D02*
X4850D01*
Y-258500D01*
X8500D01*
Y-254850D01*
D02*
G37*
G36*
X102531Y-258500D02*
X100500D01*
Y-260531D01*
X100672Y-260508D01*
X101298Y-260249D01*
X101836Y-259836D01*
X102249Y-259298D01*
X102508Y-258672D01*
X102531Y-258500D01*
D02*
G37*
G36*
X99500D02*
X97469D01*
X97492Y-258672D01*
X97751Y-259298D01*
X98164Y-259836D01*
X98702Y-260249D01*
X99328Y-260508D01*
X99500Y-260531D01*
Y-258500D01*
D02*
G37*
G36*
X56500D02*
X54469D01*
X54492Y-258672D01*
X54751Y-259298D01*
X55164Y-259836D01*
X55702Y-260249D01*
X56328Y-260508D01*
X56500Y-260531D01*
Y-258500D01*
D02*
G37*
G36*
X30500Y-260500D02*
X28469D01*
X28492Y-260672D01*
X28751Y-261298D01*
X29164Y-261836D01*
X29702Y-262249D01*
X30328Y-262509D01*
X30500Y-262531D01*
Y-260500D01*
D02*
G37*
G36*
X13150Y-259500D02*
X9500D01*
Y-263150D01*
X13150D01*
Y-259500D01*
D02*
G37*
G36*
X8500D02*
X4850D01*
Y-263150D01*
X8500D01*
Y-259500D01*
D02*
G37*
G36*
X119500Y-263469D02*
Y-265500D01*
X121531D01*
X121509Y-265328D01*
X121249Y-264702D01*
X120836Y-264164D01*
X120299Y-263751D01*
X119672Y-263492D01*
X119500Y-263469D01*
D02*
G37*
G36*
X118500D02*
X118328Y-263492D01*
X117701Y-263751D01*
X117164Y-264164D01*
X116751Y-264702D01*
X116491Y-265328D01*
X116469Y-265500D01*
X118500D01*
Y-263469D01*
D02*
G37*
G36*
X25854Y-263500D02*
X22500D01*
Y-266362D01*
X25854D01*
Y-263500D01*
D02*
G37*
G36*
X58425Y-265146D02*
X55563D01*
Y-268500D01*
X58425D01*
Y-265146D01*
D02*
G37*
G36*
X121531Y-266500D02*
X119500D01*
Y-268531D01*
X119672Y-268509D01*
X120299Y-268249D01*
X120836Y-267836D01*
X121249Y-267299D01*
X121509Y-266672D01*
X121531Y-266500D01*
D02*
G37*
G36*
X118500D02*
X116469D01*
X116491Y-266672D01*
X116751Y-267299D01*
X117164Y-267836D01*
X117701Y-268249D01*
X118328Y-268509D01*
X118500Y-268531D01*
Y-266500D01*
D02*
G37*
G36*
X93819Y-270469D02*
Y-272500D01*
X95850D01*
X95827Y-272328D01*
X95568Y-271702D01*
X95155Y-271164D01*
X94617Y-270751D01*
X93991Y-270492D01*
X93819Y-270469D01*
D02*
G37*
G36*
X92819D02*
X92647Y-270492D01*
X92020Y-270751D01*
X91483Y-271164D01*
X91070Y-271702D01*
X90810Y-272328D01*
X90788Y-272500D01*
X92819D01*
Y-270469D01*
D02*
G37*
G36*
X58425Y-269500D02*
X55563D01*
Y-272854D01*
X58425D01*
Y-269500D01*
D02*
G37*
G36*
X51701Y-265146D02*
X51500Y-265260D01*
Y-268000D01*
Y-270833D01*
X51701Y-271009D01*
Y-272854D01*
X54563D01*
Y-269000D01*
Y-265146D01*
X51701D01*
Y-265146D01*
D02*
G37*
G36*
X95850Y-273500D02*
X90788D01*
D01*
X90466Y-274000D01*
X89268D01*
Y-277059D01*
X97370D01*
Y-274000D01*
X96172D01*
X95850Y-273500D01*
D01*
D02*
G37*
G36*
X119000Y-251470D02*
X118086Y-251590D01*
X117235Y-251943D01*
X116504Y-252504D01*
X115943Y-253235D01*
X115590Y-254086D01*
X115481Y-254914D01*
X108198Y-262198D01*
X107645Y-263024D01*
X107451Y-264000D01*
Y-272944D01*
X100914Y-279481D01*
X100086Y-279590D01*
X99235Y-279943D01*
X98504Y-280504D01*
X97943Y-281235D01*
X97774Y-281642D01*
X97370Y-281874D01*
X89268D01*
Y-285879D01*
X86637Y-288510D01*
X86441D01*
X85466Y-288704D01*
X85388Y-288756D01*
X83385D01*
X82920Y-288849D01*
X82638Y-289037D01*
X82236Y-288943D01*
X82093Y-288859D01*
X82055Y-288665D01*
X81782Y-288257D01*
X81375Y-287985D01*
X80894Y-287889D01*
X75819D01*
Y-298059D01*
X82150D01*
Y-297984D01*
X82650Y-297832D01*
X82670Y-297862D01*
X82998Y-298081D01*
X83385Y-298158D01*
X89497D01*
X89884Y-298081D01*
X90212Y-297862D01*
X90395Y-297588D01*
X97693D01*
X98278Y-297472D01*
X98774Y-297141D01*
X105131Y-290784D01*
X111973D01*
Y-284460D01*
X111973D01*
X111821Y-284093D01*
X118511Y-277403D01*
X129358D01*
X129550Y-277866D01*
X130183Y-278691D01*
X131008Y-279324D01*
X131969Y-279722D01*
X133000Y-279858D01*
X134031Y-279722D01*
X134992Y-279324D01*
X135817Y-278691D01*
X136450Y-277866D01*
X136848Y-276905D01*
X136984Y-275874D01*
X136848Y-274843D01*
X136450Y-273882D01*
X135817Y-273057D01*
X134992Y-272424D01*
X134031Y-272026D01*
X133000Y-271890D01*
X131969Y-272026D01*
X131008Y-272424D01*
X130183Y-273057D01*
X129550Y-273882D01*
X129358Y-274345D01*
X117878D01*
X117293Y-274461D01*
X116797Y-274793D01*
X107129Y-284460D01*
X105107D01*
X104725Y-284460D01*
X104373Y-284133D01*
X104360Y-284035D01*
X104410Y-283914D01*
X104519Y-283086D01*
X111802Y-275802D01*
X112355Y-274975D01*
X112549Y-274000D01*
Y-265056D01*
X119086Y-258519D01*
X119914Y-258410D01*
X120765Y-258057D01*
X121496Y-257496D01*
X122057Y-256765D01*
X122410Y-255914D01*
X122530Y-255000D01*
X122410Y-254086D01*
X122057Y-253235D01*
X121496Y-252504D01*
X120765Y-251943D01*
X119914Y-251590D01*
X119000Y-251470D01*
D02*
G37*
G36*
X97370Y-278059D02*
X93819D01*
Y-281118D01*
X97370D01*
Y-278059D01*
D02*
G37*
G36*
X92819D02*
X89268D01*
Y-281118D01*
X92819D01*
Y-278059D01*
D02*
G37*
G36*
X13150Y-279850D02*
X9500D01*
Y-283500D01*
X13150D01*
Y-279850D01*
D02*
G37*
G36*
X8500D02*
X4850D01*
Y-283500D01*
X8500D01*
Y-279850D01*
D02*
G37*
G36*
X137150Y-281724D02*
X133500D01*
Y-285374D01*
X137150D01*
Y-281724D01*
D02*
G37*
G36*
X132500D02*
X128850D01*
Y-285374D01*
X132500D01*
Y-281724D01*
D02*
G37*
G36*
X56713Y-275657D02*
X50586D01*
Y-278471D01*
X37000D01*
X36415Y-278587D01*
X35919Y-278919D01*
X34982Y-279856D01*
X34650Y-280352D01*
X34534Y-280937D01*
Y-283346D01*
X32901D01*
Y-285471D01*
X31099D01*
Y-281346D01*
X24775D01*
Y-288654D01*
X31099D01*
Y-288529D01*
X32901D01*
Y-290654D01*
X39225D01*
Y-283346D01*
X37592D01*
Y-281571D01*
X37633Y-281529D01*
X50586D01*
Y-284343D01*
X56713D01*
Y-275657D01*
D02*
G37*
G36*
X123500Y-283469D02*
Y-285500D01*
X125531D01*
X125508Y-285328D01*
X125249Y-284701D01*
X124836Y-284164D01*
X124299Y-283751D01*
X123672Y-283491D01*
X123500Y-283469D01*
D02*
G37*
G36*
X122500D02*
X122328Y-283491D01*
X121702Y-283751D01*
X121164Y-284164D01*
X120751Y-284701D01*
X120492Y-285328D01*
X120469Y-285500D01*
X122500D01*
Y-283469D01*
D02*
G37*
G36*
X13150Y-284500D02*
X9500D01*
Y-288150D01*
X13150D01*
Y-284500D01*
D02*
G37*
G36*
X8500D02*
X4850D01*
Y-288150D01*
X8500D01*
Y-284500D01*
D02*
G37*
G36*
X125531Y-286500D02*
X123500D01*
Y-288531D01*
X123672Y-288509D01*
X124299Y-288249D01*
X124836Y-287836D01*
X125249Y-287298D01*
X125508Y-286672D01*
X125531Y-286500D01*
D02*
G37*
G36*
X122500D02*
X120469D01*
X120492Y-286672D01*
X120751Y-287298D01*
X121164Y-287836D01*
X121702Y-288249D01*
X122328Y-288509D01*
X122500Y-288531D01*
Y-286500D01*
D02*
G37*
G36*
X137150Y-286374D02*
X133500D01*
Y-290024D01*
X137150D01*
Y-286374D01*
D02*
G37*
G36*
X132500D02*
X128850D01*
Y-290024D01*
X132500D01*
Y-286374D01*
D02*
G37*
G36*
X41445Y-292779D02*
X40595Y-292948D01*
X39875Y-293430D01*
X39393Y-294150D01*
X39224Y-295000D01*
X39234Y-295048D01*
X36748Y-297534D01*
X35654D01*
Y-296901D01*
X28346D01*
Y-297534D01*
X26254D01*
X25937Y-297471D01*
X12641D01*
X12450Y-297008D01*
X11817Y-296183D01*
X10992Y-295550D01*
X10031Y-295152D01*
X9000Y-295016D01*
X7969Y-295152D01*
X7008Y-295550D01*
X6183Y-296183D01*
X5550Y-297008D01*
X5152Y-297969D01*
X5016Y-299000D01*
X5152Y-300031D01*
X5550Y-300992D01*
X6183Y-301817D01*
X7008Y-302450D01*
X7969Y-302848D01*
X9000Y-302984D01*
X10031Y-302848D01*
X10992Y-302450D01*
X11817Y-301817D01*
X12450Y-300992D01*
X12641Y-300529D01*
X25683D01*
X26000Y-300592D01*
X28346D01*
Y-303225D01*
X35654D01*
Y-300592D01*
X37382D01*
X37967Y-300476D01*
X38463Y-300144D01*
X41397Y-297211D01*
X41445Y-297221D01*
X42295Y-297052D01*
X43015Y-296570D01*
X43497Y-295850D01*
X43666Y-295000D01*
X43497Y-294150D01*
X43015Y-293430D01*
X42295Y-292948D01*
X41445Y-292779D01*
D02*
G37*
G36*
X111973Y-292334D02*
X104665D01*
Y-298658D01*
X106790D01*
Y-300905D01*
X104220D01*
Y-303030D01*
X102952D01*
X99900Y-299978D01*
X99404Y-299646D01*
X98819Y-299530D01*
X90395D01*
X90212Y-299256D01*
X89884Y-299037D01*
X89497Y-298960D01*
X83385D01*
X82998Y-299037D01*
X82670Y-299256D01*
X82650Y-299286D01*
X82150Y-299134D01*
Y-299059D01*
X75819D01*
Y-309229D01*
X80894D01*
X81375Y-309133D01*
X81782Y-308861D01*
X82055Y-308453D01*
X82148Y-307981D01*
X82172Y-307966D01*
X82650Y-307833D01*
X82670Y-307862D01*
X82998Y-308081D01*
X83385Y-308158D01*
X89497D01*
X89884Y-308081D01*
X90035Y-307980D01*
X90430Y-308570D01*
X91150Y-309052D01*
X92000Y-309221D01*
X92850Y-309052D01*
X93570Y-308570D01*
X94052Y-307850D01*
X94221Y-307000D01*
X94052Y-306150D01*
X93570Y-305430D01*
X92850Y-304948D01*
X92000Y-304779D01*
X91880Y-304803D01*
X91644Y-304646D01*
X91059Y-304530D01*
X90395D01*
X90212Y-304256D01*
X89884Y-304037D01*
X89497Y-303960D01*
X83385D01*
X82998Y-304037D01*
X82670Y-304256D01*
X82650Y-304286D01*
X82150Y-304134D01*
Y-302984D01*
X82650Y-302833D01*
X82670Y-302862D01*
X82998Y-303081D01*
X83385Y-303158D01*
X89497D01*
X89884Y-303081D01*
X90212Y-302862D01*
X90395Y-302589D01*
X98185D01*
X101237Y-305641D01*
X101734Y-305972D01*
X102319Y-306088D01*
X104220D01*
Y-308213D01*
X110544D01*
Y-300905D01*
X109848D01*
Y-298658D01*
X111973D01*
Y-292334D01*
D02*
G37*
G36*
X47099Y-283346D02*
X40775D01*
Y-290654D01*
X45428D01*
X49305Y-294531D01*
X49098Y-295031D01*
X46657D01*
Y-301158D01*
X55343D01*
Y-300213D01*
X55843Y-300006D01*
X57978Y-302140D01*
X58474Y-302472D01*
X59059Y-302589D01*
X60243D01*
X60426Y-302862D01*
X60754Y-303081D01*
X61141Y-303158D01*
X67253D01*
X67640Y-303081D01*
X67968Y-302862D01*
X67988Y-302833D01*
X68488Y-302984D01*
Y-303807D01*
X68408Y-303872D01*
X67988Y-304029D01*
X67718Y-303849D01*
X67253Y-303756D01*
X64697D01*
Y-306059D01*
X64197D01*
Y-306559D01*
X59926D01*
Y-307147D01*
X60018Y-307612D01*
X60248Y-307956D01*
X60101Y-308069D01*
X59688Y-308607D01*
X59429Y-309233D01*
X59406Y-309405D01*
X64468D01*
X64446Y-309233D01*
X64292Y-308862D01*
X64592Y-308366D01*
X64599Y-308362D01*
X67253D01*
X67718Y-308269D01*
X68000Y-308081D01*
X68401Y-308175D01*
X68545Y-308259D01*
X68583Y-308453D01*
X68856Y-308861D01*
X69263Y-309133D01*
X69744Y-309229D01*
X74819D01*
Y-299059D01*
X68488D01*
Y-299134D01*
X67988Y-299286D01*
X67968Y-299256D01*
X67640Y-299037D01*
X67253Y-298960D01*
X61141D01*
X60754Y-299037D01*
X60426Y-299256D01*
X60243Y-299530D01*
X59693D01*
X57176Y-297013D01*
X56680Y-296681D01*
X56094Y-296565D01*
X55343D01*
Y-295031D01*
X52529D01*
Y-294063D01*
X52413Y-293478D01*
X52081Y-292982D01*
X47099Y-287999D01*
Y-283346D01*
D02*
G37*
G36*
X114756Y-300705D02*
X111894D01*
Y-304059D01*
X114756D01*
Y-300705D01*
D02*
G37*
G36*
X120500Y-302028D02*
Y-304059D01*
X122531D01*
X122509Y-303887D01*
X122249Y-303261D01*
X121836Y-302723D01*
X121299Y-302310D01*
X120672Y-302050D01*
X120500Y-302028D01*
D02*
G37*
G36*
X63697Y-303756D02*
X61141D01*
X60676Y-303849D01*
X60281Y-304112D01*
X60018Y-304506D01*
X59926Y-304972D01*
Y-305559D01*
X63697D01*
Y-303756D01*
D02*
G37*
G36*
X122531Y-305059D02*
X120500D01*
Y-307090D01*
X120672Y-307068D01*
X121299Y-306808D01*
X121836Y-306395D01*
X122249Y-305858D01*
X122509Y-305231D01*
X122531Y-305059D01*
D02*
G37*
G36*
X118618Y-300705D02*
X115756D01*
Y-304559D01*
Y-308413D01*
X118618D01*
Y-307315D01*
X119118Y-306981D01*
X119328Y-307068D01*
X119500Y-307090D01*
Y-304559D01*
Y-302028D01*
X119328Y-302050D01*
X119118Y-302137D01*
X118618Y-301803D01*
Y-300705D01*
D02*
G37*
G36*
X35854Y-304575D02*
X32500D01*
Y-307437D01*
X35854D01*
Y-304575D01*
D02*
G37*
G36*
X31500D02*
X28146D01*
Y-307437D01*
X31500D01*
Y-304575D01*
D02*
G37*
G36*
X114756Y-305059D02*
X111894D01*
Y-308413D01*
X114756D01*
Y-305059D01*
D02*
G37*
G36*
X13150Y-304850D02*
X9500D01*
Y-308500D01*
X13150D01*
Y-304850D01*
D02*
G37*
G36*
X8500D02*
X4850D01*
Y-308500D01*
X8500D01*
Y-304850D01*
D02*
G37*
G36*
X55543Y-306642D02*
X51500D01*
Y-309405D01*
X55543D01*
Y-306642D01*
D02*
G37*
G36*
X50500D02*
X46457D01*
Y-309405D01*
X50500D01*
Y-306642D01*
D02*
G37*
G36*
X134500Y-307469D02*
Y-309500D01*
X136531D01*
X136509Y-309328D01*
X136249Y-308701D01*
X135836Y-308164D01*
X135299Y-307751D01*
X134672Y-307491D01*
X134500Y-307469D01*
D02*
G37*
G36*
X133500D02*
X133328Y-307491D01*
X132702Y-307751D01*
X132164Y-308164D01*
X131751Y-308701D01*
X131491Y-309328D01*
X131469Y-309500D01*
X133500D01*
Y-307469D01*
D02*
G37*
G36*
X41945D02*
Y-309500D01*
X43976D01*
X43953Y-309328D01*
X43694Y-308701D01*
X43281Y-308164D01*
X42743Y-307751D01*
X42117Y-307491D01*
X41945Y-307469D01*
D02*
G37*
G36*
X40945D02*
X40773Y-307491D01*
X40146Y-307751D01*
X39608Y-308164D01*
X39196Y-308701D01*
X38936Y-309328D01*
X38914Y-309500D01*
X40945D01*
Y-307469D01*
D02*
G37*
G36*
X99500Y-308469D02*
Y-310500D01*
X101531D01*
X101508Y-310328D01*
X101249Y-309701D01*
X100836Y-309164D01*
X100299Y-308751D01*
X99672Y-308491D01*
X99500Y-308469D01*
D02*
G37*
G36*
X98500D02*
X98328Y-308491D01*
X97702Y-308751D01*
X97164Y-309164D01*
X96751Y-309701D01*
X96491Y-310328D01*
X96469Y-310500D01*
X98500D01*
Y-308469D01*
D02*
G37*
G36*
X64468Y-310405D02*
X62437D01*
Y-312437D01*
X62609Y-312414D01*
X63235Y-312155D01*
X63773Y-311742D01*
X64186Y-311204D01*
X64446Y-310578D01*
X64468Y-310405D01*
D02*
G37*
G36*
X61437D02*
X59406D01*
X59429Y-310578D01*
X59688Y-311204D01*
X60101Y-311742D01*
X60638Y-312155D01*
X61265Y-312414D01*
X61437Y-312437D01*
Y-310405D01*
D02*
G37*
G36*
X136531Y-310500D02*
X134500D01*
Y-312531D01*
X134672Y-312509D01*
X135299Y-312249D01*
X135836Y-311836D01*
X136249Y-311298D01*
X136509Y-310672D01*
X136531Y-310500D01*
D02*
G37*
G36*
X133500D02*
X131469D01*
X131491Y-310672D01*
X131751Y-311298D01*
X132164Y-311836D01*
X132702Y-312249D01*
X133328Y-312509D01*
X133500Y-312531D01*
Y-310500D01*
D02*
G37*
G36*
X43976D02*
X41945D01*
Y-312531D01*
X42117Y-312509D01*
X42743Y-312249D01*
X43281Y-311836D01*
X43694Y-311298D01*
X43953Y-310672D01*
X43976Y-310500D01*
D02*
G37*
G36*
X40945D02*
X38914D01*
X38936Y-310672D01*
X39196Y-311298D01*
X39608Y-311836D01*
X40146Y-312249D01*
X40773Y-312509D01*
X40945Y-312531D01*
Y-310500D01*
D02*
G37*
G36*
X13150Y-309500D02*
X9500D01*
Y-313150D01*
X13150D01*
Y-309500D01*
D02*
G37*
G36*
X8500D02*
X4850D01*
Y-313150D01*
X8500D01*
Y-309500D01*
D02*
G37*
G36*
X101531Y-311500D02*
X99500D01*
Y-313531D01*
X99672Y-313509D01*
X100299Y-313249D01*
X100836Y-312836D01*
X101249Y-312298D01*
X101508Y-311672D01*
X101531Y-311500D01*
D02*
G37*
G36*
X98500D02*
X96469D01*
X96491Y-311672D01*
X96751Y-312298D01*
X97164Y-312836D01*
X97702Y-313249D01*
X98328Y-313509D01*
X98500Y-313531D01*
Y-311500D01*
D02*
G37*
G36*
X35854Y-308437D02*
X28146D01*
Y-311299D01*
X29442D01*
X29491Y-311672D01*
X29751Y-312298D01*
X30164Y-312836D01*
X30702Y-313249D01*
X31328Y-313509D01*
X31500Y-313531D01*
Y-311000D01*
X32500D01*
Y-313531D01*
X32672Y-313509D01*
X33299Y-313249D01*
X33836Y-312836D01*
X34249Y-312298D01*
X34508Y-311672D01*
X34558Y-311299D01*
X35854D01*
Y-308437D01*
D02*
G37*
G36*
X55543Y-310405D02*
X51000D01*
X46457D01*
Y-313169D01*
X49425D01*
X49492Y-313672D01*
X49751Y-314299D01*
X50164Y-314836D01*
X50701Y-315249D01*
X51328Y-315509D01*
X51500Y-315531D01*
Y-313000D01*
X52500D01*
Y-315531D01*
X52672Y-315509D01*
X53298Y-315249D01*
X53836Y-314836D01*
X54249Y-314299D01*
X54509Y-313672D01*
X54575Y-313169D01*
X55543D01*
Y-310405D01*
D02*
G37*
G36*
X37887Y-328050D02*
X29987D01*
Y-335950D01*
X37887D01*
Y-328050D01*
D02*
G37*
G36*
X23937Y-327815D02*
X22854Y-327957D01*
X21844Y-328375D01*
X20978Y-329041D01*
X20312Y-329907D01*
X19894Y-330917D01*
X19752Y-332000D01*
X19819Y-332513D01*
X15221Y-337111D01*
X14669Y-337938D01*
X14475Y-338913D01*
Y-347024D01*
X14669Y-347999D01*
X15221Y-348826D01*
X18198Y-351802D01*
X19025Y-352355D01*
X20000Y-352549D01*
X25572D01*
X26235Y-353057D01*
X27086Y-353410D01*
X28000Y-353530D01*
X28914Y-353410D01*
X29765Y-353057D01*
X30496Y-352496D01*
X31057Y-351765D01*
X31410Y-350914D01*
X31530Y-350000D01*
X31410Y-349086D01*
X31057Y-348235D01*
X30496Y-347504D01*
X29765Y-346943D01*
X28914Y-346590D01*
X28087Y-346481D01*
Y-338850D01*
X21345D01*
X21153Y-338388D01*
X23424Y-336118D01*
X23937Y-336185D01*
X25020Y-336043D01*
X26030Y-335625D01*
X26897Y-334960D01*
X27562Y-334093D01*
X27980Y-333083D01*
X28122Y-332000D01*
X27980Y-330917D01*
X27562Y-329907D01*
X26897Y-329041D01*
X26030Y-328375D01*
X25020Y-327957D01*
X23937Y-327815D01*
D02*
G37*
G36*
X104650Y-337850D02*
X101000D01*
Y-341500D01*
X104650D01*
Y-337850D01*
D02*
G37*
G36*
X130150D02*
X126500D01*
Y-341500D01*
X130150D01*
Y-337850D01*
D02*
G37*
G36*
X100000D02*
X96350D01*
Y-341500D01*
X100000D01*
Y-337850D01*
D02*
G37*
G36*
X125500D02*
X121850D01*
Y-341500D01*
X125500D01*
Y-337850D01*
D02*
G37*
G36*
X130150Y-342500D02*
X126500D01*
Y-346150D01*
X130150D01*
Y-342500D01*
D02*
G37*
G36*
X68950Y-339050D02*
X61050D01*
Y-346950D01*
X68950D01*
Y-339050D01*
D02*
G37*
G36*
X33937Y-339016D02*
X32906Y-339152D01*
X31945Y-339550D01*
X31120Y-340183D01*
X30487Y-341008D01*
X30089Y-341969D01*
X29953Y-343000D01*
X30089Y-344031D01*
X30487Y-344992D01*
X31120Y-345817D01*
X31945Y-346450D01*
X32906Y-346848D01*
X33937Y-346984D01*
X34968Y-346848D01*
X35929Y-346450D01*
X36754Y-345817D01*
X37387Y-344992D01*
X37785Y-344031D01*
X37921Y-343000D01*
X37785Y-341969D01*
X37387Y-341008D01*
X36754Y-340183D01*
X35929Y-339550D01*
X34968Y-339152D01*
X33937Y-339016D01*
D02*
G37*
G36*
X62882Y-354469D02*
Y-356500D01*
X64913D01*
X64890Y-356328D01*
X64631Y-355701D01*
X64218Y-355164D01*
X63680Y-354751D01*
X63054Y-354491D01*
X62882Y-354469D01*
D02*
G37*
G36*
X61882D02*
X61710Y-354491D01*
X61083Y-354751D01*
X60545Y-355164D01*
X60133Y-355701D01*
X59873Y-356328D01*
X59851Y-356500D01*
X61882D01*
Y-354469D01*
D02*
G37*
G36*
X55063Y-328016D02*
X54032Y-328152D01*
X53071Y-328550D01*
X52246Y-329183D01*
X51613Y-330008D01*
X51215Y-330969D01*
X51079Y-332000D01*
X51215Y-333031D01*
X51613Y-333992D01*
X52246Y-334817D01*
X52446Y-334971D01*
X52277Y-335471D01*
X50500D01*
X49915Y-335587D01*
X49419Y-335919D01*
X44919Y-340419D01*
X44587Y-340915D01*
X44471Y-341500D01*
Y-346429D01*
X35982Y-354919D01*
X35696Y-355346D01*
X33901D01*
Y-357471D01*
X32099D01*
Y-355346D01*
X25775D01*
Y-362451D01*
X24225D01*
Y-355346D01*
X17901D01*
Y-359471D01*
X12641D01*
X12450Y-359008D01*
X11817Y-358183D01*
X10992Y-357550D01*
X10031Y-357152D01*
X9000Y-357016D01*
X7969Y-357152D01*
X7008Y-357550D01*
X6183Y-358183D01*
X5550Y-359008D01*
X5152Y-359969D01*
X5016Y-361000D01*
X5152Y-362031D01*
X5550Y-362992D01*
X6183Y-363817D01*
X7008Y-364450D01*
X7969Y-364848D01*
X9000Y-364984D01*
X10031Y-364848D01*
X10992Y-364450D01*
X11817Y-363817D01*
X12450Y-362992D01*
X12641Y-362529D01*
X17901D01*
Y-362654D01*
X21149D01*
X21295Y-363133D01*
X21198Y-363198D01*
X19914Y-364481D01*
X19086Y-364590D01*
X18235Y-364943D01*
X17504Y-365504D01*
X16943Y-366235D01*
X16590Y-367086D01*
X16470Y-368000D01*
X16590Y-368914D01*
X16943Y-369765D01*
X17504Y-370496D01*
X18235Y-371057D01*
X19086Y-371410D01*
X19731Y-371495D01*
X20035Y-371646D01*
X20146Y-372015D01*
Y-374563D01*
X23500D01*
Y-371701D01*
X21518D01*
X21418Y-371201D01*
X21765Y-371057D01*
X22496Y-370496D01*
X23057Y-369765D01*
X23410Y-368914D01*
X23519Y-368086D01*
X24056Y-367549D01*
X31902D01*
X31951Y-368049D01*
X31150Y-368208D01*
X30430Y-368690D01*
X29948Y-369410D01*
X29779Y-370260D01*
X29948Y-371110D01*
X30011Y-371204D01*
X29866Y-371683D01*
X29702Y-371751D01*
X29164Y-372164D01*
X28928Y-372471D01*
X27854D01*
Y-371701D01*
X24500D01*
Y-375063D01*
Y-378425D01*
X27854D01*
Y-375529D01*
X28928D01*
X29164Y-375836D01*
X29702Y-376249D01*
X30328Y-376508D01*
X30500Y-376531D01*
Y-374000D01*
X31500D01*
Y-376531D01*
X31672Y-376508D01*
X32002Y-376372D01*
X32289Y-376549D01*
X32456Y-376725D01*
Y-378759D01*
X29807Y-381408D01*
X27654D01*
Y-379775D01*
X20346D01*
Y-384429D01*
X20303Y-384471D01*
X12641D01*
X12450Y-384008D01*
X11817Y-383183D01*
X10992Y-382550D01*
X10031Y-382152D01*
X9000Y-382016D01*
X7969Y-382152D01*
X7008Y-382550D01*
X6183Y-383183D01*
X5550Y-384008D01*
X5152Y-384969D01*
X5016Y-386000D01*
X5152Y-387031D01*
X5550Y-387992D01*
X6183Y-388817D01*
X7008Y-389450D01*
X7969Y-389848D01*
X9000Y-389984D01*
X10031Y-389848D01*
X10992Y-389450D01*
X11817Y-388817D01*
X12450Y-387992D01*
X12641Y-387529D01*
X20937D01*
X21522Y-387413D01*
X22018Y-387081D01*
X23001Y-386099D01*
X26781D01*
X26973Y-386561D01*
X23981Y-389552D01*
X23650Y-390049D01*
X23534Y-390634D01*
Y-391346D01*
X21901D01*
Y-398654D01*
X28225D01*
Y-391346D01*
X27221D01*
X27014Y-390846D01*
X29330Y-388529D01*
X38063D01*
X38648Y-388413D01*
X39144Y-388081D01*
X47208Y-380018D01*
X48000D01*
X48585Y-379901D01*
X48678Y-379839D01*
X49422D01*
X49809Y-379762D01*
X50137Y-379543D01*
X50357Y-379215D01*
X50434Y-378828D01*
Y-378706D01*
X50934Y-378537D01*
X51164Y-378836D01*
X51701Y-379249D01*
X52256Y-379479D01*
Y-380854D01*
X55118D01*
Y-377000D01*
Y-373146D01*
X52256D01*
Y-374521D01*
X51701Y-374751D01*
X51164Y-375164D01*
X51121Y-375219D01*
X50763Y-375122D01*
X50638Y-375028D01*
Y-372912D01*
X50545Y-372447D01*
X50333Y-372130D01*
X50545Y-371813D01*
X50638Y-371347D01*
Y-369967D01*
X54056Y-366549D01*
X58820D01*
X59056Y-366990D01*
X58948Y-367150D01*
X58779Y-368000D01*
X58948Y-368850D01*
X59430Y-369570D01*
X60150Y-370052D01*
X61000Y-370221D01*
X61048Y-370211D01*
X61963Y-371126D01*
Y-373346D01*
X60330D01*
Y-380654D01*
X61963D01*
Y-383657D01*
X57905D01*
Y-392343D01*
X59439D01*
Y-395969D01*
X59556Y-396554D01*
X59887Y-397050D01*
X67419Y-404581D01*
X67869Y-404882D01*
X67888Y-404975D01*
X68107Y-405303D01*
X68435Y-405522D01*
X68822Y-405599D01*
X70349D01*
Y-406401D01*
X68822D01*
X68435Y-406478D01*
X68107Y-406697D01*
X67888Y-407025D01*
X67810Y-407412D01*
Y-409588D01*
X67888Y-409975D01*
X68107Y-410303D01*
X68435Y-410522D01*
X68822Y-410599D01*
X74934D01*
X75321Y-410522D01*
X75649Y-410303D01*
X75669Y-410273D01*
X76169Y-410425D01*
Y-410500D01*
X82500D01*
Y-400330D01*
X77425D01*
X76944Y-400426D01*
X76537Y-400698D01*
X76264Y-401106D01*
X76171Y-401578D01*
X76147Y-401593D01*
X75669Y-401727D01*
X75649Y-401697D01*
X75321Y-401478D01*
X74934Y-401401D01*
X68822D01*
X68607Y-401444D01*
X62498Y-395335D01*
Y-392343D01*
X64032D01*
Y-387099D01*
X64574Y-386558D01*
X64905Y-386062D01*
X65022Y-385476D01*
Y-380654D01*
X66654D01*
Y-373346D01*
X65022D01*
Y-370492D01*
X64905Y-369907D01*
X64574Y-369411D01*
X63211Y-368048D01*
X63221Y-368000D01*
X63052Y-367150D01*
X62945Y-366990D01*
X63180Y-366549D01*
X70178D01*
X70228Y-367049D01*
X69889Y-367116D01*
X69558Y-367337D01*
X69337Y-367669D01*
X69259Y-368059D01*
Y-371595D01*
X69337Y-371985D01*
X69558Y-372316D01*
X69731Y-372431D01*
Y-380000D01*
X69847Y-380585D01*
X70178Y-381081D01*
X76313Y-387215D01*
X76029Y-387639D01*
X75672Y-387491D01*
X75500Y-387469D01*
Y-389500D01*
X77531D01*
X77508Y-389328D01*
X77361Y-388971D01*
X77785Y-388687D01*
X83178Y-394081D01*
X83675Y-394413D01*
X84260Y-394529D01*
X84403D01*
X84430Y-394570D01*
X85150Y-395052D01*
X86000Y-395221D01*
X86850Y-395052D01*
X87570Y-394570D01*
X88052Y-393850D01*
X88221Y-393000D01*
X88052Y-392150D01*
X87570Y-391430D01*
X86850Y-390948D01*
X86000Y-390779D01*
X85150Y-390948D01*
X84683Y-391261D01*
X72789Y-379366D01*
Y-372772D01*
X72846Y-372724D01*
X73289Y-372551D01*
X73551Y-372726D01*
X74020Y-372819D01*
X75980D01*
X76449Y-372726D01*
X76846Y-372460D01*
X77369Y-372537D01*
X77471Y-372557D01*
Y-373403D01*
X77430Y-373430D01*
X76948Y-374150D01*
X76779Y-375000D01*
X76948Y-375850D01*
X77430Y-376570D01*
X78150Y-377052D01*
X79000Y-377221D01*
X79850Y-377052D01*
X80570Y-376570D01*
X81052Y-375850D01*
X81221Y-375000D01*
X81052Y-374150D01*
X80570Y-373430D01*
X80529Y-373403D01*
Y-372185D01*
X80663Y-371985D01*
X80741Y-371595D01*
Y-368059D01*
X80663Y-367669D01*
X80442Y-367337D01*
X80111Y-367116D01*
X79720Y-367039D01*
X77760D01*
X77549Y-366866D01*
Y-366000D01*
X77355Y-365024D01*
X76802Y-364198D01*
X75097Y-362492D01*
X75304Y-361992D01*
X75980D01*
X76449Y-361899D01*
X76846Y-361633D01*
X77369Y-361710D01*
X77760Y-361788D01*
X79720D01*
X80111Y-361710D01*
X80442Y-361489D01*
X80663Y-361158D01*
X80741Y-360768D01*
Y-359162D01*
X81081Y-358822D01*
X81413Y-358325D01*
X81529Y-357740D01*
Y-351634D01*
X84633Y-348529D01*
X91909D01*
X91923Y-348550D01*
X91656Y-349050D01*
X86550D01*
Y-356950D01*
X94450D01*
Y-351266D01*
X94911Y-351074D01*
X96554Y-352716D01*
X96516Y-353000D01*
X96652Y-354031D01*
X97050Y-354992D01*
X97683Y-355817D01*
X98508Y-356450D01*
X99469Y-356848D01*
X100500Y-356984D01*
X101531Y-356848D01*
X102492Y-356450D01*
X103317Y-355817D01*
X103950Y-354992D01*
X104348Y-354031D01*
X104484Y-353000D01*
X104348Y-351969D01*
X103950Y-351008D01*
X103317Y-350183D01*
X103044Y-349974D01*
X103214Y-349474D01*
X112050D01*
Y-356950D01*
X119950D01*
Y-349474D01*
X120922D01*
X122523Y-351074D01*
X122152Y-351969D01*
X122016Y-353000D01*
X122152Y-354031D01*
X122550Y-354992D01*
X123183Y-355817D01*
X124008Y-356450D01*
X124969Y-356848D01*
X126000Y-356984D01*
X127031Y-356848D01*
X127992Y-356450D01*
X128817Y-355817D01*
X129450Y-354992D01*
X129848Y-354031D01*
X129984Y-353000D01*
X129848Y-351969D01*
X129450Y-351008D01*
X128817Y-350183D01*
X127992Y-349550D01*
X127031Y-349152D01*
X126000Y-349016D01*
X124969Y-349152D01*
X124939Y-349165D01*
X122637Y-346863D01*
X122318Y-346650D01*
X122469Y-346150D01*
X125500D01*
Y-342500D01*
X121850D01*
Y-345964D01*
X121632Y-346298D01*
X121460Y-346415D01*
X116555D01*
X116522Y-345915D01*
X117031Y-345848D01*
X117992Y-345450D01*
X118817Y-344817D01*
X119450Y-343992D01*
X119848Y-343031D01*
X119984Y-342000D01*
X119848Y-340969D01*
X119450Y-340008D01*
X118817Y-339183D01*
X117992Y-338550D01*
X117031Y-338152D01*
X116000Y-338016D01*
X114969Y-338152D01*
X114008Y-338550D01*
X113183Y-339183D01*
X112550Y-340008D01*
X112152Y-340969D01*
X112016Y-342000D01*
X112152Y-343031D01*
X112550Y-343992D01*
X113183Y-344817D01*
X114008Y-345450D01*
X114969Y-345848D01*
X115478Y-345915D01*
X115445Y-346415D01*
X105040D01*
X104650Y-346150D01*
Y-342500D01*
X100500D01*
X96350D01*
Y-344423D01*
X95889Y-344614D01*
X94993Y-343719D01*
X94657Y-343495D01*
X94303Y-343140D01*
X94348Y-343031D01*
X94484Y-342000D01*
X94348Y-340969D01*
X93950Y-340008D01*
X93317Y-339183D01*
X92492Y-338550D01*
X91531Y-338152D01*
X90500Y-338016D01*
X89469Y-338152D01*
X88508Y-338550D01*
X87683Y-339183D01*
X87050Y-340008D01*
X86858Y-340471D01*
X83000D01*
X82415Y-340587D01*
X81919Y-340919D01*
X70178Y-352659D01*
X69847Y-353155D01*
X69731Y-353740D01*
Y-356396D01*
X69558Y-356511D01*
X69337Y-356842D01*
X69259Y-357232D01*
Y-360768D01*
X69296Y-360951D01*
X68977Y-361451D01*
X56215D01*
X56063Y-360951D01*
X56633Y-360570D01*
X57115Y-359850D01*
X57284Y-359000D01*
X57115Y-358150D01*
X56633Y-357430D01*
X56592Y-357402D01*
Y-346615D01*
X56992Y-346450D01*
X57817Y-345817D01*
X58450Y-344992D01*
X58848Y-344031D01*
X58984Y-343000D01*
X58848Y-341969D01*
X58450Y-341008D01*
X57817Y-340183D01*
X56992Y-339550D01*
X56031Y-339152D01*
X55491Y-339081D01*
X55356Y-338804D01*
X55337Y-338556D01*
X55369Y-338529D01*
X60063D01*
X60648Y-338413D01*
X61144Y-338081D01*
X63276Y-335950D01*
X69013D01*
Y-328050D01*
X61113D01*
Y-333787D01*
X59430Y-335471D01*
X57849D01*
X57679Y-334971D01*
X57880Y-334817D01*
X58513Y-333992D01*
X58911Y-333031D01*
X59047Y-332000D01*
X58911Y-330969D01*
X58513Y-330008D01*
X57880Y-329183D01*
X57055Y-328550D01*
X56094Y-328152D01*
X55063Y-328016D01*
D02*
G37*
G36*
X64913Y-357500D02*
X62882D01*
Y-359531D01*
X63054Y-359508D01*
X63680Y-359249D01*
X64218Y-358836D01*
X64631Y-358298D01*
X64890Y-357672D01*
X64913Y-357500D01*
D02*
G37*
G36*
X61882D02*
X59851D01*
X59873Y-357672D01*
X60133Y-358298D01*
X60545Y-358836D01*
X61083Y-359249D01*
X61710Y-359508D01*
X61882Y-359531D01*
Y-357500D01*
D02*
G37*
G36*
X13150Y-366850D02*
X9500D01*
Y-370500D01*
X13150D01*
Y-366850D01*
D02*
G37*
G36*
X96500Y-368469D02*
Y-370500D01*
X98531D01*
X98509Y-370328D01*
X98249Y-369702D01*
X97836Y-369164D01*
X97299Y-368751D01*
X96672Y-368492D01*
X96500Y-368469D01*
D02*
G37*
G36*
X95500D02*
X95328Y-368492D01*
X94701Y-368751D01*
X94164Y-369164D01*
X93751Y-369702D01*
X93492Y-370328D01*
X93469Y-370500D01*
X95500D01*
Y-368469D01*
D02*
G37*
G36*
X8500Y-366850D02*
X4850D01*
Y-370500D01*
X8500D01*
Y-366850D01*
D02*
G37*
G36*
X98531Y-371500D02*
X96500D01*
Y-373531D01*
X96672Y-373509D01*
X97299Y-373249D01*
X97836Y-372836D01*
X98249Y-372299D01*
X98509Y-371672D01*
X98531Y-371500D01*
D02*
G37*
G36*
X95500D02*
X93469D01*
X93492Y-371672D01*
X93751Y-372299D01*
X94164Y-372836D01*
X94701Y-373249D01*
X95328Y-373509D01*
X95500Y-373531D01*
Y-371500D01*
D02*
G37*
G36*
X13150D02*
X9500D01*
Y-375150D01*
X13150D01*
Y-371500D01*
D02*
G37*
G36*
X8500D02*
X4850D01*
Y-375150D01*
X8500D01*
Y-371500D01*
D02*
G37*
G36*
X130421Y-373469D02*
Y-375500D01*
X132452D01*
X132430Y-375328D01*
X132170Y-374701D01*
X131758Y-374164D01*
X131220Y-373751D01*
X130593Y-373492D01*
X130421Y-373469D01*
D02*
G37*
G36*
X129421D02*
X129249Y-373492D01*
X128623Y-373751D01*
X128085Y-374164D01*
X127672Y-374701D01*
X127413Y-375328D01*
X127390Y-375500D01*
X129421D01*
Y-373469D01*
D02*
G37*
G36*
X58980Y-373146D02*
X56118D01*
Y-376500D01*
X58980D01*
Y-373146D01*
D02*
G37*
G36*
X23500Y-375563D02*
X20146D01*
Y-378425D01*
X23500D01*
Y-375563D01*
D02*
G37*
G36*
X132452Y-376500D02*
X130421D01*
Y-378531D01*
X130593Y-378508D01*
X131220Y-378249D01*
X131758Y-377836D01*
X132170Y-377298D01*
X132430Y-376672D01*
X132452Y-376500D01*
D02*
G37*
G36*
X129421D02*
X127390D01*
X127413Y-376672D01*
X127672Y-377298D01*
X128085Y-377836D01*
X128623Y-378249D01*
X129249Y-378508D01*
X129421Y-378531D01*
Y-376500D01*
D02*
G37*
G36*
X58980Y-377500D02*
X56118D01*
Y-380854D01*
X58980D01*
Y-377500D01*
D02*
G37*
G36*
X122500Y-379469D02*
Y-381500D01*
X124531D01*
X124509Y-381328D01*
X124249Y-380701D01*
X123836Y-380164D01*
X123299Y-379751D01*
X122672Y-379491D01*
X122500Y-379469D01*
D02*
G37*
G36*
X121500D02*
X121328Y-379491D01*
X120702Y-379751D01*
X120164Y-380164D01*
X119751Y-380701D01*
X119492Y-381328D01*
X119469Y-381500D01*
X121500D01*
Y-379469D01*
D02*
G37*
G36*
X91500Y-382469D02*
X91328Y-382491D01*
X90702Y-382751D01*
X90164Y-383164D01*
X89751Y-383701D01*
X89491Y-384328D01*
X89469Y-384500D01*
X91500D01*
Y-382469D01*
D02*
G37*
G36*
X124531Y-382500D02*
X122500D01*
Y-384531D01*
X122672Y-384508D01*
X123299Y-384249D01*
X123836Y-383836D01*
X124249Y-383298D01*
X124509Y-382672D01*
X124531Y-382500D01*
D02*
G37*
G36*
X121500D02*
X119469D01*
X119492Y-382672D01*
X119751Y-383298D01*
X120164Y-383836D01*
X120702Y-384249D01*
X121328Y-384508D01*
X121500Y-384531D01*
Y-382500D01*
D02*
G37*
G36*
X100051Y-383504D02*
X96500D01*
Y-386563D01*
X100051D01*
Y-383504D01*
D02*
G37*
G36*
X74500Y-387469D02*
X74328Y-387491D01*
X73702Y-387751D01*
X73164Y-388164D01*
X72751Y-388702D01*
X72492Y-389328D01*
X72469Y-389500D01*
X74500D01*
Y-387469D01*
D02*
G37*
G36*
X100051Y-387563D02*
X96500D01*
Y-390622D01*
X100051D01*
Y-387563D01*
D02*
G37*
G36*
X92500Y-382469D02*
Y-385000D01*
X92000D01*
Y-385500D01*
X89469D01*
X89491Y-385672D01*
X89751Y-386298D01*
X90164Y-386836D01*
X90702Y-387249D01*
X91328Y-387509D01*
X91949Y-387590D01*
Y-390622D01*
X95500D01*
Y-387063D01*
Y-383504D01*
X94098D01*
X93836Y-383164D01*
X93299Y-382751D01*
X92672Y-382491D01*
X92500Y-382469D01*
D02*
G37*
G36*
X52221Y-383657D02*
X46094D01*
Y-386471D01*
X45063D01*
X44478Y-386587D01*
X43982Y-386919D01*
X37429Y-393471D01*
X36099D01*
Y-391346D01*
X29775D01*
Y-398654D01*
X36099D01*
Y-396529D01*
X37429D01*
X38901Y-398001D01*
Y-402654D01*
X45225D01*
Y-395346D01*
X40587D01*
X40245Y-394981D01*
X45594Y-389632D01*
X46094Y-389777D01*
Y-392343D01*
X52221D01*
Y-383657D01*
D02*
G37*
G36*
X118000Y-363470D02*
X117086Y-363590D01*
X116235Y-363943D01*
X115504Y-364504D01*
X114943Y-365235D01*
X114590Y-366086D01*
X114481Y-366914D01*
X105198Y-376198D01*
X104645Y-377025D01*
X104451Y-378000D01*
Y-389573D01*
X103943Y-390235D01*
X103590Y-391086D01*
X103481Y-391914D01*
X103007Y-392388D01*
X100051D01*
Y-391378D01*
X91949D01*
Y-395567D01*
X91767Y-395840D01*
X91573Y-396815D01*
Y-401197D01*
X91066D01*
X90601Y-401290D01*
X90319Y-401478D01*
X89917Y-401384D01*
X89774Y-401300D01*
X89736Y-401106D01*
X89463Y-400698D01*
X89056Y-400426D01*
X88575Y-400330D01*
X83500D01*
Y-410500D01*
X89831D01*
Y-410425D01*
X90331Y-410273D01*
X90351Y-410303D01*
X90679Y-410522D01*
X91066Y-410599D01*
X97178D01*
X97565Y-410522D01*
X97893Y-410303D01*
X98076Y-410029D01*
X99500D01*
X100085Y-409913D01*
X100581Y-409581D01*
X103081Y-407081D01*
X103413Y-406585D01*
X103529Y-406000D01*
Y-404956D01*
X104203Y-404283D01*
X104665Y-404474D01*
Y-405225D01*
X111973D01*
Y-403592D01*
X113937D01*
X114522Y-403476D01*
X115018Y-403144D01*
X123634Y-394529D01*
X128858D01*
X129050Y-394992D01*
X129683Y-395817D01*
X130508Y-396450D01*
X131469Y-396848D01*
X132500Y-396984D01*
X133531Y-396848D01*
X134492Y-396450D01*
X135317Y-395817D01*
X135950Y-394992D01*
X136348Y-394031D01*
X136484Y-393000D01*
X136348Y-391969D01*
X135950Y-391008D01*
X135317Y-390183D01*
X134492Y-389550D01*
X133531Y-389152D01*
X132500Y-389016D01*
X131469Y-389152D01*
X130508Y-389550D01*
X129683Y-390183D01*
X129050Y-391008D01*
X128858Y-391471D01*
X123000D01*
X122415Y-391587D01*
X121919Y-391919D01*
X113303Y-400534D01*
X111973D01*
Y-398901D01*
X104665D01*
Y-400534D01*
X104260D01*
X103675Y-400650D01*
X103178Y-400982D01*
X100919Y-403241D01*
X100587Y-403738D01*
X100471Y-404323D01*
Y-405367D01*
X98866Y-406971D01*
X98076D01*
X97893Y-406697D01*
X97565Y-406478D01*
X97178Y-406401D01*
X95410D01*
X95224Y-405901D01*
X95337Y-405803D01*
X97178D01*
X97643Y-405710D01*
X98037Y-405447D01*
X98301Y-405053D01*
X98393Y-404588D01*
Y-402412D01*
X98301Y-401947D01*
X98037Y-401553D01*
X97643Y-401290D01*
X97178Y-401197D01*
X96671D01*
Y-398496D01*
X100051D01*
Y-397486D01*
X104063D01*
X105038Y-397292D01*
X105865Y-396739D01*
X107086Y-395519D01*
X107914Y-395410D01*
X108765Y-395057D01*
X109496Y-394496D01*
X110057Y-393765D01*
X110410Y-392914D01*
X110530Y-392000D01*
X110410Y-391086D01*
X110057Y-390235D01*
X109549Y-389573D01*
Y-379056D01*
X118086Y-370519D01*
X118914Y-370410D01*
X119765Y-370057D01*
X120496Y-369496D01*
X121057Y-368765D01*
X121410Y-367914D01*
X121530Y-367000D01*
X121410Y-366086D01*
X121057Y-365235D01*
X120496Y-364504D01*
X119765Y-363943D01*
X118914Y-363590D01*
X118000Y-363470D01*
D02*
G37*
G36*
X77531Y-390500D02*
X75500D01*
Y-392531D01*
X75672Y-392509D01*
X76298Y-392249D01*
X76836Y-391836D01*
X77249Y-391299D01*
X77508Y-390672D01*
X77531Y-390500D01*
D02*
G37*
G36*
X74500D02*
X72469D01*
X72492Y-390672D01*
X72751Y-391299D01*
X73164Y-391836D01*
X73702Y-392249D01*
X74328Y-392509D01*
X74500Y-392531D01*
Y-390500D01*
D02*
G37*
G36*
X13150Y-391850D02*
X9500D01*
Y-395500D01*
X13150D01*
Y-391850D01*
D02*
G37*
G36*
X8500D02*
X4850D01*
Y-395500D01*
X8500D01*
Y-391850D01*
D02*
G37*
G36*
X13150Y-396500D02*
X9500D01*
Y-400150D01*
X13150D01*
Y-396500D01*
D02*
G37*
G36*
X8500D02*
X4850D01*
Y-400150D01*
X8500D01*
Y-396500D01*
D02*
G37*
G36*
X136650Y-398850D02*
X133000D01*
Y-402500D01*
X136650D01*
Y-398850D01*
D02*
G37*
G36*
X132000D02*
X128350D01*
Y-402500D01*
X132000D01*
Y-398850D01*
D02*
G37*
G36*
X136650Y-403500D02*
X133000D01*
Y-407150D01*
X136650D01*
Y-403500D01*
D02*
G37*
G36*
X132000D02*
X128350D01*
Y-407150D01*
X132000D01*
Y-403500D01*
D02*
G37*
G36*
X51000Y-404779D02*
X50150Y-404948D01*
X49430Y-405430D01*
X48948Y-406150D01*
X48779Y-407000D01*
X48789Y-407048D01*
X45303Y-410534D01*
X33654D01*
Y-408901D01*
X26346D01*
Y-409471D01*
X12641D01*
X12450Y-409008D01*
X11817Y-408183D01*
X10992Y-407550D01*
X10031Y-407152D01*
X9000Y-407016D01*
X7969Y-407152D01*
X7008Y-407550D01*
X6183Y-408183D01*
X5550Y-409008D01*
X5152Y-409969D01*
X5016Y-411000D01*
X5152Y-412031D01*
X5550Y-412992D01*
X6183Y-413817D01*
X7008Y-414450D01*
X7969Y-414848D01*
X9000Y-414984D01*
X10031Y-414848D01*
X10992Y-414450D01*
X11817Y-413817D01*
X12450Y-412992D01*
X12641Y-412529D01*
X26346D01*
Y-415225D01*
X33654D01*
Y-413592D01*
X45937D01*
X46522Y-413476D01*
X47019Y-413144D01*
X50952Y-409211D01*
X51000Y-409221D01*
X51850Y-409052D01*
X52570Y-408570D01*
X53052Y-407850D01*
X53221Y-407000D01*
X53052Y-406150D01*
X52570Y-405430D01*
X51850Y-404948D01*
X51000Y-404779D01*
D02*
G37*
G36*
X111973Y-406775D02*
X104665D01*
Y-411428D01*
X104122Y-411971D01*
X98076D01*
X97893Y-411697D01*
X97565Y-411478D01*
X97178Y-411401D01*
X91066D01*
X90679Y-411478D01*
X90351Y-411697D01*
X90331Y-411727D01*
X89831Y-411575D01*
Y-411500D01*
X83500D01*
Y-421670D01*
X88575D01*
X89056Y-421574D01*
X89463Y-421302D01*
X89736Y-420894D01*
X89829Y-420422D01*
X89853Y-420407D01*
X90331Y-420273D01*
X90351Y-420303D01*
X90679Y-420522D01*
X91066Y-420599D01*
X97178D01*
X97565Y-420522D01*
X97893Y-420303D01*
X98150Y-420052D01*
X99000Y-420221D01*
X99850Y-420052D01*
X100045Y-419921D01*
X100085Y-419913D01*
X100581Y-419581D01*
X100913Y-419085D01*
X100921Y-419045D01*
X101052Y-418850D01*
X101221Y-418000D01*
X101052Y-417150D01*
X100570Y-416430D01*
X99850Y-415948D01*
X99000Y-415779D01*
X98150Y-415948D01*
X97430Y-416430D01*
X97417Y-416449D01*
X97178Y-416401D01*
X91066D01*
X90679Y-416478D01*
X90351Y-416697D01*
X90331Y-416727D01*
X89831Y-416575D01*
Y-415425D01*
X90331Y-415273D01*
X90351Y-415303D01*
X90679Y-415522D01*
X91066Y-415599D01*
X97178D01*
X97565Y-415522D01*
X97893Y-415303D01*
X98076Y-415029D01*
X104756D01*
X105341Y-414913D01*
X105837Y-414581D01*
X106346Y-414072D01*
X106445Y-414113D01*
X106803Y-414323D01*
X106906Y-414841D01*
X107238Y-415337D01*
X109901Y-418001D01*
Y-422654D01*
X116225D01*
Y-415346D01*
X111572D01*
X109848Y-413622D01*
Y-413099D01*
X111973D01*
Y-406775D01*
D02*
G37*
G36*
X53099Y-395346D02*
X46775D01*
Y-402654D01*
X53099D01*
Y-402612D01*
X53561Y-402421D01*
X57471Y-406330D01*
Y-407031D01*
X54657D01*
Y-413158D01*
X62192D01*
X63615Y-414581D01*
X64112Y-414913D01*
X64697Y-415029D01*
X67924D01*
X68107Y-415303D01*
X68435Y-415522D01*
X68822Y-415599D01*
X74934D01*
X75321Y-415522D01*
X75649Y-415303D01*
X75669Y-415273D01*
X76169Y-415425D01*
Y-416248D01*
X76089Y-416313D01*
X75669Y-416470D01*
X75399Y-416290D01*
X74934Y-416197D01*
X72378D01*
Y-418500D01*
Y-420803D01*
X74934D01*
X75399Y-420710D01*
X75681Y-420522D01*
X76082Y-420616D01*
X76226Y-420700D01*
X76264Y-420894D01*
X76537Y-421302D01*
X76944Y-421574D01*
X77425Y-421670D01*
X82500D01*
Y-411500D01*
X76169D01*
Y-411575D01*
X75669Y-411727D01*
X75649Y-411697D01*
X75321Y-411478D01*
X74934Y-411401D01*
X68822D01*
X68435Y-411478D01*
X68107Y-411697D01*
X67924Y-411971D01*
X65330D01*
X63373Y-410013D01*
X63343Y-409993D01*
Y-407031D01*
X60529D01*
Y-405697D01*
X60413Y-405112D01*
X60081Y-404615D01*
X53385Y-397919D01*
X53099Y-397728D01*
Y-395346D01*
D02*
G37*
G36*
X71378Y-416197D02*
X68822D01*
X68357Y-416290D01*
X67962Y-416553D01*
X67699Y-416947D01*
X67607Y-417412D01*
X67599Y-417419D01*
X67500Y-417406D01*
Y-419937D01*
Y-422468D01*
X67672Y-422445D01*
X68299Y-422186D01*
X68836Y-421773D01*
X69072Y-421466D01*
X70441D01*
X71026Y-421350D01*
X71378Y-421115D01*
Y-418500D01*
Y-416197D01*
D02*
G37*
G36*
X125500Y-416469D02*
Y-418500D01*
X127531D01*
X127508Y-418328D01*
X127249Y-417701D01*
X126836Y-417164D01*
X126298Y-416751D01*
X125672Y-416492D01*
X125500Y-416469D01*
D02*
G37*
G36*
X120437Y-415146D02*
X117575D01*
Y-418500D01*
X120437D01*
Y-415146D01*
D02*
G37*
G36*
X66500Y-417406D02*
X66328Y-417428D01*
X65702Y-417688D01*
X65164Y-418101D01*
X64751Y-418639D01*
X64491Y-419265D01*
X64469Y-419437D01*
X66500D01*
Y-417406D01*
D02*
G37*
G36*
X33854Y-416575D02*
X30500D01*
Y-419437D01*
X33854D01*
Y-416575D01*
D02*
G37*
G36*
X29500D02*
X26146D01*
Y-419437D01*
X29500D01*
Y-416575D01*
D02*
G37*
G36*
X13150Y-416850D02*
X9500D01*
Y-420500D01*
X13150D01*
Y-416850D01*
D02*
G37*
G36*
X44500Y-418469D02*
Y-420500D01*
X46531D01*
X46508Y-420328D01*
X46249Y-419701D01*
X45836Y-419164D01*
X45298Y-418751D01*
X44672Y-418492D01*
X44500Y-418469D01*
D02*
G37*
G36*
X43500D02*
X43328Y-418492D01*
X42702Y-418751D01*
X42164Y-419164D01*
X41751Y-419701D01*
X41491Y-420328D01*
X41469Y-420500D01*
X43500D01*
Y-418469D01*
D02*
G37*
G36*
X8500Y-416850D02*
X4850D01*
Y-420500D01*
X8500D01*
Y-416850D01*
D02*
G37*
G36*
X63543Y-418642D02*
X59500D01*
Y-421406D01*
X63543D01*
Y-418642D01*
D02*
G37*
G36*
X58500D02*
X54457D01*
Y-421406D01*
X58500D01*
Y-418642D01*
D02*
G37*
G36*
X127531Y-419500D02*
X125500D01*
Y-421531D01*
X125672Y-421509D01*
X126298Y-421249D01*
X126836Y-420836D01*
X127249Y-420298D01*
X127508Y-419672D01*
X127531Y-419500D01*
D02*
G37*
G36*
X66500Y-420437D02*
X64469D01*
X64491Y-420609D01*
X64751Y-421236D01*
X65164Y-421773D01*
X65702Y-422186D01*
X66328Y-422445D01*
X66500Y-422468D01*
Y-420437D01*
D02*
G37*
G36*
X124299Y-415146D02*
X121437D01*
Y-419000D01*
Y-422854D01*
X124299D01*
Y-422009D01*
X124500Y-421833D01*
Y-419000D01*
Y-416167D01*
X124299Y-415991D01*
Y-415146D01*
D02*
G37*
G36*
X120437Y-419500D02*
X117575D01*
Y-422854D01*
X120437D01*
Y-419500D01*
D02*
G37*
G36*
X46531Y-421500D02*
X44500D01*
Y-423531D01*
X44672Y-423509D01*
X45298Y-423249D01*
X45836Y-422836D01*
X46249Y-422298D01*
X46508Y-421672D01*
X46531Y-421500D01*
D02*
G37*
G36*
X43500D02*
X41469D01*
X41491Y-421672D01*
X41751Y-422298D01*
X42164Y-422836D01*
X42702Y-423249D01*
X43328Y-423509D01*
X43500Y-423531D01*
Y-421500D01*
D02*
G37*
G36*
X91752Y-422469D02*
Y-424500D01*
X93783D01*
X93761Y-424328D01*
X93501Y-423701D01*
X93088Y-423164D01*
X92550Y-422751D01*
X91924Y-422492D01*
X91752Y-422469D01*
D02*
G37*
G36*
X90752D02*
X90580Y-422492D01*
X89954Y-422751D01*
X89416Y-423164D01*
X89003Y-423701D01*
X88743Y-424328D01*
X88721Y-424500D01*
X90752D01*
Y-422469D01*
D02*
G37*
G36*
X13150Y-421500D02*
X9500D01*
Y-425150D01*
X13150D01*
Y-421500D01*
D02*
G37*
G36*
X8500D02*
X4850D01*
Y-425150D01*
X8500D01*
Y-421500D01*
D02*
G37*
G36*
X33854Y-420437D02*
X26146D01*
Y-423299D01*
X27442D01*
X27492Y-423672D01*
X27751Y-424298D01*
X28164Y-424836D01*
X28701Y-425249D01*
X29328Y-425508D01*
X29500Y-425531D01*
Y-423000D01*
X30500D01*
Y-425531D01*
X30672Y-425508D01*
X31299Y-425249D01*
X31836Y-424836D01*
X32249Y-424298D01*
X32509Y-423672D01*
X32558Y-423299D01*
X33854D01*
Y-420437D01*
D02*
G37*
G36*
X93783Y-425500D02*
X91752D01*
Y-427531D01*
X91924Y-427508D01*
X92550Y-427249D01*
X93088Y-426836D01*
X93501Y-426299D01*
X93761Y-425672D01*
X93783Y-425500D01*
D02*
G37*
G36*
X90752D02*
X88721D01*
X88743Y-425672D01*
X89003Y-426299D01*
X89416Y-426836D01*
X89954Y-427249D01*
X90580Y-427508D01*
X90752Y-427531D01*
Y-425500D01*
D02*
G37*
G36*
X63543Y-422405D02*
X59000D01*
X54457D01*
Y-425169D01*
X56425D01*
X56492Y-425672D01*
X56751Y-426299D01*
X57164Y-426836D01*
X57701Y-427249D01*
X58328Y-427508D01*
X58500Y-427531D01*
Y-425000D01*
X59500D01*
Y-427531D01*
X59672Y-427508D01*
X60299Y-427249D01*
X60836Y-426836D01*
X61249Y-426299D01*
X61509Y-425672D01*
X61575Y-425169D01*
X63543D01*
Y-422405D01*
D02*
G37*
G36*
X136937Y-430469D02*
Y-432500D01*
X138968D01*
X138945Y-432328D01*
X138686Y-431702D01*
X138273Y-431164D01*
X137735Y-430751D01*
X137109Y-430491D01*
X136937Y-430469D01*
D02*
G37*
G36*
X135937D02*
X135765Y-430491D01*
X135138Y-430751D01*
X134601Y-431164D01*
X134188Y-431702D01*
X133929Y-432328D01*
X133906Y-432500D01*
X135937D01*
Y-430469D01*
D02*
G37*
G36*
X138968Y-433500D02*
X136937D01*
Y-435531D01*
X137109Y-435508D01*
X137735Y-435249D01*
X138273Y-434836D01*
X138686Y-434299D01*
X138945Y-433672D01*
X138968Y-433500D01*
D02*
G37*
G36*
X135937D02*
X133906D01*
X133929Y-433672D01*
X134188Y-434299D01*
X134601Y-434836D01*
X135138Y-435249D01*
X135765Y-435508D01*
X135937Y-435531D01*
Y-433500D01*
D02*
G37*
G36*
X37887Y-440050D02*
X29987D01*
Y-447950D01*
X37887D01*
Y-440050D01*
D02*
G37*
G36*
X23937Y-439815D02*
X22854Y-439957D01*
X21844Y-440375D01*
X20978Y-441041D01*
X20312Y-441907D01*
X19894Y-442917D01*
X19752Y-444000D01*
X19894Y-445083D01*
X20312Y-446093D01*
X20978Y-446959D01*
X21844Y-447625D01*
X22854Y-448043D01*
X23937Y-448185D01*
X25020Y-448043D01*
X26030Y-447625D01*
X26897Y-446959D01*
X27562Y-446093D01*
X27980Y-445083D01*
X28122Y-444000D01*
X27980Y-442917D01*
X27562Y-441907D01*
X26897Y-441041D01*
X26030Y-440375D01*
X25020Y-439957D01*
X23937Y-439815D01*
D02*
G37*
G36*
X131150Y-449850D02*
X127500D01*
Y-453500D01*
X131150D01*
Y-449850D01*
D02*
G37*
G36*
X103150D02*
X99500D01*
Y-453500D01*
X103150D01*
Y-449850D01*
D02*
G37*
G36*
X126500D02*
X122850D01*
Y-453500D01*
X126500D01*
Y-449850D01*
D02*
G37*
G36*
X98500D02*
X94850D01*
Y-453500D01*
X98500D01*
Y-449850D01*
D02*
G37*
G36*
X131150Y-454500D02*
X127500D01*
Y-458150D01*
X131150D01*
Y-454500D01*
D02*
G37*
G36*
X66950Y-451050D02*
X59050D01*
Y-458950D01*
X66950D01*
Y-451050D01*
D02*
G37*
G36*
X33937Y-451016D02*
X32906Y-451152D01*
X31945Y-451550D01*
X31120Y-452183D01*
X30487Y-453008D01*
X30089Y-453969D01*
X29953Y-455000D01*
X30089Y-456031D01*
X30487Y-456992D01*
X31120Y-457817D01*
X31945Y-458450D01*
X32906Y-458848D01*
X33937Y-458984D01*
X34968Y-458848D01*
X35929Y-458450D01*
X36754Y-457817D01*
X37387Y-456992D01*
X37785Y-456031D01*
X37921Y-455000D01*
X37785Y-453969D01*
X37387Y-453008D01*
X36754Y-452183D01*
X35929Y-451550D01*
X34968Y-451152D01*
X33937Y-451016D01*
D02*
G37*
G36*
X28087Y-450850D02*
X19787D01*
Y-459150D01*
X28087D01*
Y-450850D01*
D02*
G37*
G36*
X53000Y-440016D02*
X51969Y-440152D01*
X51008Y-440550D01*
X50183Y-441183D01*
X49550Y-442008D01*
X49152Y-442969D01*
X49016Y-444000D01*
X49152Y-445031D01*
X49550Y-445992D01*
X50183Y-446817D01*
X51008Y-447450D01*
X51969Y-447848D01*
X52624Y-447934D01*
X52901Y-447971D01*
X52868Y-448471D01*
X47252D01*
X46667Y-448587D01*
X46170Y-448919D01*
X40982Y-454108D01*
X40650Y-454604D01*
X40534Y-455189D01*
Y-468346D01*
X38901D01*
Y-470471D01*
X35536D01*
Y-468346D01*
X29212D01*
Y-475451D01*
X27662D01*
Y-468346D01*
X21338D01*
Y-470471D01*
X14000D01*
X13415Y-470587D01*
X12919Y-470919D01*
X12366Y-471471D01*
X11642D01*
X11450Y-471008D01*
X10817Y-470183D01*
X9992Y-469550D01*
X9031Y-469152D01*
X8000Y-469016D01*
X6969Y-469152D01*
X6008Y-469550D01*
X5183Y-470183D01*
X4550Y-471008D01*
X4152Y-471969D01*
X4016Y-473000D01*
X4152Y-474031D01*
X4550Y-474992D01*
X5183Y-475817D01*
X6008Y-476450D01*
X6969Y-476848D01*
X8000Y-476984D01*
X9031Y-476848D01*
X9992Y-476450D01*
X10817Y-475817D01*
X11450Y-474992D01*
X11642Y-474529D01*
X13000D01*
X13585Y-474413D01*
X14081Y-474081D01*
X14634Y-473529D01*
X21338D01*
Y-474817D01*
X20889Y-475038D01*
X20765Y-474943D01*
X19914Y-474590D01*
X19000Y-474470D01*
X18086Y-474590D01*
X17235Y-474943D01*
X16504Y-475504D01*
X15943Y-476235D01*
X15590Y-477086D01*
X15470Y-478000D01*
X15590Y-478914D01*
X15943Y-479765D01*
X16504Y-480496D01*
X17235Y-481057D01*
X18086Y-481410D01*
X19000Y-481530D01*
X19914Y-481410D01*
X20545Y-481148D01*
X20860Y-481559D01*
X20751Y-481702D01*
X20492Y-482328D01*
X20469Y-482500D01*
X25531D01*
X25508Y-482328D01*
X25249Y-481702D01*
X24836Y-481164D01*
X24687Y-481049D01*
X24857Y-480549D01*
X30848D01*
X31000Y-481049D01*
X30430Y-481430D01*
X29948Y-482150D01*
X29779Y-483000D01*
X29948Y-483850D01*
X30430Y-484570D01*
X30326Y-485102D01*
X30164Y-485227D01*
X29751Y-485765D01*
X29491Y-486391D01*
X29469Y-486563D01*
X32000D01*
Y-487063D01*
X32500D01*
Y-489594D01*
X32589Y-489582D01*
X32613Y-489586D01*
X32813Y-489703D01*
X33074Y-489946D01*
Y-491759D01*
X31425Y-493408D01*
X26654D01*
Y-491775D01*
X19346D01*
Y-496428D01*
X19304Y-496471D01*
X11642D01*
X11450Y-496008D01*
X10817Y-495183D01*
X9992Y-494550D01*
X9031Y-494152D01*
X8000Y-494016D01*
X6969Y-494152D01*
X6008Y-494550D01*
X5183Y-495183D01*
X4550Y-496008D01*
X4152Y-496969D01*
X4016Y-498000D01*
X4152Y-499031D01*
X4550Y-499992D01*
X5183Y-500817D01*
X6008Y-501450D01*
X6969Y-501848D01*
X8000Y-501984D01*
X9031Y-501848D01*
X9992Y-501450D01*
X10817Y-500817D01*
X11450Y-499992D01*
X11642Y-499529D01*
X19937D01*
X20522Y-499413D01*
X21019Y-499081D01*
X22001Y-498099D01*
X26654D01*
Y-496466D01*
X28717D01*
X28909Y-496928D01*
X24982Y-500856D01*
X24650Y-501352D01*
X24534Y-501937D01*
Y-502346D01*
X22901D01*
Y-509654D01*
X29225D01*
Y-502346D01*
X28471D01*
X28279Y-501884D01*
X31497Y-498666D01*
X41863D01*
X42448Y-498550D01*
X42944Y-498218D01*
X48324Y-492839D01*
X49920D01*
X50094Y-492897D01*
X50438Y-493270D01*
X50491Y-493672D01*
X50751Y-494299D01*
X51164Y-494836D01*
X51701Y-495249D01*
X52328Y-495508D01*
X52701Y-495558D01*
Y-495854D01*
X55563D01*
Y-492000D01*
Y-488146D01*
X52701D01*
Y-490442D01*
X52328Y-490491D01*
X51701Y-490751D01*
X51552Y-490866D01*
X51052Y-490619D01*
Y-489652D01*
X50975Y-489265D01*
X50804Y-489011D01*
X50900Y-488947D01*
X51163Y-488553D01*
X51256Y-488088D01*
Y-485912D01*
X51163Y-485447D01*
X50951Y-485130D01*
X51163Y-484812D01*
X51256Y-484347D01*
Y-483349D01*
X54056Y-480549D01*
X58848D01*
X59000Y-481049D01*
X58430Y-481430D01*
X57948Y-482150D01*
X57779Y-483000D01*
X57948Y-483850D01*
X58430Y-484570D01*
X59150Y-485052D01*
X60000Y-485221D01*
X60850Y-485052D01*
X61570Y-484570D01*
X61601Y-484567D01*
X64471Y-487437D01*
Y-488346D01*
X60775D01*
Y-495654D01*
X64471D01*
Y-496272D01*
X63086Y-497657D01*
X57842D01*
Y-506343D01*
X60558D01*
X67029Y-512814D01*
X66887Y-513025D01*
X66811Y-513412D01*
Y-515588D01*
X66887Y-515975D01*
X67107Y-516303D01*
X67435Y-516522D01*
X67822Y-516599D01*
X69349D01*
Y-517401D01*
X67822D01*
X67435Y-517478D01*
X67107Y-517697D01*
X66887Y-518025D01*
X66811Y-518412D01*
Y-520588D01*
X66887Y-520975D01*
X67107Y-521303D01*
X67435Y-521522D01*
X67822Y-521599D01*
X73934D01*
X74321Y-521522D01*
X74649Y-521303D01*
X74669Y-521273D01*
X75169Y-521425D01*
Y-521500D01*
X81500D01*
Y-511330D01*
X76425D01*
X75944Y-511426D01*
X75537Y-511698D01*
X75264Y-512106D01*
X75171Y-512578D01*
X75147Y-512593D01*
X74669Y-512727D01*
X74649Y-512697D01*
X74321Y-512478D01*
X73934Y-512401D01*
X70942D01*
X63969Y-505429D01*
Y-501099D01*
X67081Y-497987D01*
X67413Y-497491D01*
X67529Y-496906D01*
Y-494508D01*
X67413Y-493923D01*
X67099Y-493453D01*
Y-490547D01*
X67367Y-490146D01*
X67686Y-490078D01*
X67923Y-490078D01*
X67938Y-490101D01*
X82919Y-505081D01*
X83415Y-505413D01*
X84000Y-505529D01*
X86966D01*
X86993Y-505570D01*
X87713Y-506052D01*
X88563Y-506221D01*
X89413Y-506052D01*
X90133Y-505570D01*
X90615Y-504850D01*
X90784Y-504000D01*
X90615Y-503150D01*
X90133Y-502430D01*
X89413Y-501948D01*
X88563Y-501779D01*
X87713Y-501948D01*
X86993Y-502430D01*
X86966Y-502471D01*
X84633D01*
X70549Y-488386D01*
Y-486205D01*
X70606Y-486157D01*
X71049Y-485984D01*
X71311Y-486159D01*
X71780Y-486252D01*
X73740D01*
X74209Y-486159D01*
X74606Y-485893D01*
X75129Y-485970D01*
X75202Y-485985D01*
X75281Y-486139D01*
X75365Y-486527D01*
X74948Y-487150D01*
X74779Y-488000D01*
X74948Y-488850D01*
X75430Y-489570D01*
X76150Y-490052D01*
X77000Y-490221D01*
X77850Y-490052D01*
X78570Y-489570D01*
X79052Y-488850D01*
X79221Y-488000D01*
X79052Y-487150D01*
X78570Y-486430D01*
X78529Y-486403D01*
Y-483760D01*
X78501Y-483616D01*
Y-481492D01*
X78423Y-481102D01*
X78202Y-480771D01*
X77871Y-480549D01*
X77480Y-480472D01*
X75520D01*
X75309Y-480299D01*
Y-478882D01*
X75115Y-477906D01*
X74562Y-477079D01*
X73680Y-476198D01*
X73273Y-475925D01*
X73424Y-475425D01*
X73740D01*
X74209Y-475332D01*
X74606Y-475067D01*
X75129Y-475143D01*
X75520Y-475221D01*
X77480D01*
X77871Y-475143D01*
X78202Y-474922D01*
X78423Y-474591D01*
X78501Y-474201D01*
Y-470665D01*
X78423Y-470275D01*
X78202Y-469944D01*
X78029Y-469829D01*
Y-467245D01*
X83745Y-461529D01*
X85050D01*
Y-468950D01*
X92950D01*
Y-463061D01*
X93450Y-462869D01*
X93815Y-463113D01*
X94400Y-463229D01*
X94967D01*
X95290Y-463637D01*
X95152Y-463969D01*
X95016Y-465000D01*
X95152Y-466031D01*
X95550Y-466992D01*
X96183Y-467817D01*
X97008Y-468450D01*
X97969Y-468848D01*
X99000Y-468984D01*
X100031Y-468848D01*
X100992Y-468450D01*
X101817Y-467817D01*
X102450Y-466992D01*
X102848Y-466031D01*
X102984Y-465000D01*
X102848Y-463969D01*
X102450Y-463008D01*
X101817Y-462183D01*
X100992Y-461550D01*
X100942Y-461529D01*
X101041Y-461029D01*
X112559D01*
X113050Y-461050D01*
X113050Y-461529D01*
Y-468950D01*
X120950D01*
X120950Y-461050D01*
X121441Y-461029D01*
X121867D01*
X123678Y-462841D01*
X123550Y-463008D01*
X123152Y-463969D01*
X123016Y-465000D01*
X123152Y-466031D01*
X123550Y-466992D01*
X124183Y-467817D01*
X125008Y-468450D01*
X125969Y-468848D01*
X127000Y-468984D01*
X128031Y-468848D01*
X128992Y-468450D01*
X129817Y-467817D01*
X130450Y-466992D01*
X130848Y-466031D01*
X130984Y-465000D01*
X130848Y-463969D01*
X130450Y-463008D01*
X129817Y-462183D01*
X128992Y-461550D01*
X128031Y-461152D01*
X127000Y-461016D01*
X126275Y-461112D01*
X123812Y-458650D01*
X124020Y-458150D01*
X126500D01*
Y-454500D01*
X122850D01*
Y-457683D01*
X122500Y-457971D01*
X119042D01*
X118942Y-457471D01*
X118992Y-457450D01*
X119817Y-456817D01*
X120450Y-455992D01*
X120848Y-455031D01*
X120984Y-454000D01*
X120848Y-452969D01*
X120450Y-452008D01*
X119817Y-451183D01*
X118992Y-450550D01*
X118031Y-450152D01*
X117000Y-450016D01*
X115969Y-450152D01*
X115008Y-450550D01*
X114183Y-451183D01*
X113550Y-452008D01*
X113152Y-452969D01*
X113016Y-454000D01*
X113152Y-455031D01*
X113550Y-455992D01*
X114183Y-456817D01*
X115008Y-457450D01*
X115058Y-457471D01*
X114959Y-457971D01*
X103150D01*
Y-454500D01*
X99000D01*
X94850D01*
Y-456223D01*
X94350Y-456490D01*
X94196Y-456387D01*
X93611Y-456271D01*
X93433D01*
X92656Y-455493D01*
X92848Y-455031D01*
X92984Y-454000D01*
X92848Y-452969D01*
X92450Y-452008D01*
X91817Y-451183D01*
X90992Y-450550D01*
X90031Y-450152D01*
X89000Y-450016D01*
X87969Y-450152D01*
X87008Y-450550D01*
X86183Y-451183D01*
X85550Y-452008D01*
X85270Y-452684D01*
X84919Y-452919D01*
X77367Y-460471D01*
X72020D01*
X71434Y-460587D01*
X70938Y-460919D01*
X67938Y-463919D01*
X67607Y-464415D01*
X67490Y-465000D01*
Y-469829D01*
X67318Y-469944D01*
X67097Y-470275D01*
X67019Y-470665D01*
Y-474201D01*
X67097Y-474591D01*
X67318Y-474922D01*
X67361Y-474951D01*
X67209Y-475451D01*
X53299D01*
Y-473904D01*
X53650Y-473597D01*
X54322Y-473509D01*
X54948Y-473249D01*
X55486Y-472836D01*
X55899Y-472298D01*
X56158Y-471672D01*
X56181Y-471500D01*
X53650D01*
Y-470500D01*
X56181D01*
X56158Y-470328D01*
X55946Y-469816D01*
X56370Y-469533D01*
X58138Y-471300D01*
X57948Y-471583D01*
X57779Y-472433D01*
X57948Y-473283D01*
X58430Y-474003D01*
X59150Y-474485D01*
X60000Y-474654D01*
X60850Y-474485D01*
X61570Y-474003D01*
X62052Y-473283D01*
X62221Y-472433D01*
X62052Y-471583D01*
X61570Y-470863D01*
X61492Y-470810D01*
X61413Y-470415D01*
X61081Y-469918D01*
X54529Y-463367D01*
Y-458641D01*
X54992Y-458450D01*
X55817Y-457817D01*
X56450Y-456992D01*
X56848Y-456031D01*
X56984Y-455000D01*
X56848Y-453969D01*
X56450Y-453008D01*
X55817Y-452183D01*
X55617Y-452029D01*
X55786Y-451529D01*
X57000D01*
X57585Y-451413D01*
X58081Y-451081D01*
X61213Y-447950D01*
X66950D01*
Y-440050D01*
X59050D01*
Y-445787D01*
X56366Y-448471D01*
X53132D01*
X53099Y-447971D01*
X53376Y-447934D01*
X54031Y-447848D01*
X54992Y-447450D01*
X55817Y-446817D01*
X56450Y-445992D01*
X56848Y-445031D01*
X56984Y-444000D01*
X56848Y-442969D01*
X56450Y-442008D01*
X55817Y-441183D01*
X54992Y-440550D01*
X54031Y-440152D01*
X53000Y-440016D01*
D02*
G37*
G36*
X105500Y-476469D02*
Y-478500D01*
X107531D01*
X107509Y-478328D01*
X107249Y-477702D01*
X106836Y-477164D01*
X106298Y-476751D01*
X105672Y-476491D01*
X105500Y-476469D01*
D02*
G37*
G36*
X104500D02*
X104328Y-476491D01*
X103701Y-476751D01*
X103164Y-477164D01*
X102751Y-477702D01*
X102491Y-478328D01*
X102469Y-478500D01*
X104500D01*
Y-476469D01*
D02*
G37*
G36*
X91752Y-479469D02*
Y-481500D01*
X93783D01*
X93761Y-481328D01*
X93501Y-480701D01*
X93088Y-480164D01*
X92550Y-479751D01*
X91924Y-479492D01*
X91752Y-479469D01*
D02*
G37*
G36*
X90752D02*
X90580Y-479492D01*
X89954Y-479751D01*
X89416Y-480164D01*
X89003Y-480701D01*
X88743Y-481328D01*
X88721Y-481500D01*
X90752D01*
Y-479469D01*
D02*
G37*
G36*
X107531Y-479500D02*
X105500D01*
Y-481531D01*
X105672Y-481508D01*
X106298Y-481249D01*
X106836Y-480836D01*
X107249Y-480299D01*
X107509Y-479672D01*
X107531Y-479500D01*
D02*
G37*
G36*
X104500D02*
X102469D01*
X102491Y-479672D01*
X102751Y-480299D01*
X103164Y-480836D01*
X103701Y-481249D01*
X104328Y-481508D01*
X104500Y-481531D01*
Y-479500D01*
D02*
G37*
G36*
X12150Y-478850D02*
X8500D01*
Y-482500D01*
X12150D01*
Y-478850D01*
D02*
G37*
G36*
X7500D02*
X3850D01*
Y-482500D01*
X7500D01*
Y-478850D01*
D02*
G37*
G36*
X93783Y-482500D02*
X91752D01*
Y-484531D01*
X91924Y-484509D01*
X92550Y-484249D01*
X93088Y-483836D01*
X93501Y-483298D01*
X93761Y-482672D01*
X93783Y-482500D01*
D02*
G37*
G36*
X90752D02*
X88721D01*
X88743Y-482672D01*
X89003Y-483298D01*
X89416Y-483836D01*
X89954Y-484249D01*
X90580Y-484509D01*
X90752Y-484531D01*
Y-482500D01*
D02*
G37*
G36*
X25833Y-483500D02*
X20167D01*
X19991Y-483701D01*
X19146D01*
Y-486563D01*
X26854D01*
Y-483701D01*
X26009D01*
X25833Y-483500D01*
D02*
G37*
G36*
X12150D02*
X8500D01*
Y-487150D01*
X12150D01*
Y-483500D01*
D02*
G37*
G36*
X7500D02*
X3850D01*
Y-487150D01*
X7500D01*
Y-483500D01*
D02*
G37*
G36*
X131500Y-485469D02*
Y-487500D01*
X133531D01*
X133509Y-487328D01*
X133249Y-486701D01*
X132836Y-486164D01*
X132299Y-485751D01*
X131672Y-485492D01*
X131500Y-485469D01*
D02*
G37*
G36*
X130500D02*
X130328Y-485492D01*
X129701Y-485751D01*
X129164Y-486164D01*
X128751Y-486701D01*
X128491Y-487328D01*
X128469Y-487500D01*
X130500D01*
Y-485469D01*
D02*
G37*
G36*
X31500Y-487563D02*
X29469D01*
X29491Y-487735D01*
X29751Y-488362D01*
X30164Y-488899D01*
X30702Y-489312D01*
X31328Y-489572D01*
X31500Y-489594D01*
Y-487563D01*
D02*
G37*
G36*
X26854D02*
X23500D01*
Y-490425D01*
X26854D01*
Y-487563D01*
D02*
G37*
G36*
X22500D02*
X19146D01*
Y-490425D01*
X22500D01*
Y-487563D01*
D02*
G37*
G36*
X133531Y-488500D02*
X131500D01*
Y-490531D01*
X131672Y-490509D01*
X132299Y-490249D01*
X132836Y-489836D01*
X133249Y-489298D01*
X133509Y-488672D01*
X133531Y-488500D01*
D02*
G37*
G36*
X130500D02*
X128469D01*
X128491Y-488672D01*
X128751Y-489298D01*
X129164Y-489836D01*
X129701Y-490249D01*
X130328Y-490509D01*
X130500Y-490531D01*
Y-488500D01*
D02*
G37*
G36*
X59425Y-488146D02*
X56563D01*
Y-491500D01*
X59425D01*
Y-488146D01*
D02*
G37*
G36*
X90500Y-493469D02*
X90328Y-493492D01*
X89701Y-493751D01*
X89164Y-494164D01*
X88751Y-494701D01*
X88491Y-495328D01*
X88469Y-495500D01*
X90500D01*
Y-493469D01*
D02*
G37*
G36*
X59425Y-492500D02*
X56563D01*
Y-495854D01*
X59425D01*
Y-492500D01*
D02*
G37*
G36*
X100051Y-494504D02*
X96500D01*
Y-497563D01*
X100051D01*
Y-494504D01*
D02*
G37*
G36*
X90500Y-496500D02*
X88469D01*
X88491Y-496672D01*
X88751Y-497298D01*
X89164Y-497836D01*
X89701Y-498249D01*
X90328Y-498509D01*
X90500Y-498531D01*
Y-496500D01*
D02*
G37*
G36*
X100051Y-498563D02*
X96500D01*
Y-501622D01*
X100051D01*
Y-498563D01*
D02*
G37*
G36*
X91500Y-493469D02*
Y-496000D01*
Y-498573D01*
X91949Y-498882D01*
Y-501622D01*
X95500D01*
Y-498063D01*
Y-494504D01*
X94104D01*
X93937Y-494471D01*
X93072D01*
X92836Y-494164D01*
X92299Y-493751D01*
X91672Y-493492D01*
X91500Y-493469D01*
D02*
G37*
G36*
X119110Y-500469D02*
Y-502500D01*
X121141D01*
X121119Y-502328D01*
X120859Y-501701D01*
X120447Y-501164D01*
X119909Y-500751D01*
X119282Y-500492D01*
X119110Y-500469D01*
D02*
G37*
G36*
X118110D02*
X117938Y-500492D01*
X117312Y-500751D01*
X116774Y-501164D01*
X116361Y-501701D01*
X116102Y-502328D01*
X116079Y-502500D01*
X118110D01*
Y-500469D01*
D02*
G37*
G36*
X73500D02*
Y-502500D01*
X75531D01*
X75508Y-502328D01*
X75249Y-501701D01*
X74836Y-501164D01*
X74299Y-500751D01*
X73672Y-500492D01*
X73500Y-500469D01*
D02*
G37*
G36*
X72500D02*
X72328Y-500492D01*
X71702Y-500751D01*
X71164Y-501164D01*
X70751Y-501701D01*
X70491Y-502328D01*
X70469Y-502500D01*
X72500D01*
Y-500469D01*
D02*
G37*
G36*
X122000Y-479730D02*
X121086Y-479850D01*
X120235Y-480203D01*
X119504Y-480764D01*
X118943Y-481495D01*
X118590Y-482346D01*
X118470Y-483260D01*
X118590Y-484173D01*
X118943Y-485025D01*
X119451Y-485687D01*
Y-488621D01*
X104684Y-503388D01*
X100051D01*
Y-502378D01*
X91949D01*
Y-509496D01*
X93451D01*
Y-510566D01*
X91820Y-512197D01*
X90066D01*
X89601Y-512290D01*
X89319Y-512478D01*
X88917Y-512384D01*
X88774Y-512300D01*
X88736Y-512106D01*
X88463Y-511698D01*
X88056Y-511426D01*
X87575Y-511330D01*
X82500D01*
Y-521500D01*
X88831D01*
Y-521425D01*
X89331Y-521273D01*
X89351Y-521303D01*
X89679Y-521522D01*
X90066Y-521599D01*
X96178D01*
X96565Y-521522D01*
X96893Y-521303D01*
X97076Y-521029D01*
X104346D01*
Y-522225D01*
X108134D01*
X108415Y-522413D01*
X109000Y-522529D01*
X109585Y-522413D01*
X109866Y-522225D01*
X111654D01*
Y-519009D01*
X125134Y-505529D01*
X128358D01*
X128550Y-505992D01*
X129183Y-506817D01*
X130008Y-507450D01*
X130969Y-507848D01*
X132000Y-507984D01*
X133031Y-507848D01*
X133992Y-507450D01*
X134817Y-506817D01*
X135450Y-505992D01*
X135848Y-505031D01*
X135984Y-504000D01*
X135848Y-502969D01*
X135450Y-502008D01*
X134817Y-501183D01*
X133992Y-500550D01*
X133031Y-500152D01*
X132000Y-500016D01*
X130969Y-500152D01*
X130008Y-500550D01*
X129183Y-501183D01*
X128550Y-502008D01*
X128358Y-502471D01*
X124500D01*
X123915Y-502587D01*
X123419Y-502919D01*
X110436Y-515901D01*
X104346D01*
Y-517971D01*
X97076D01*
X96893Y-517697D01*
X96565Y-517478D01*
X96178Y-517401D01*
X94410D01*
X94224Y-516901D01*
X94337Y-516803D01*
X96178D01*
X96643Y-516710D01*
X97038Y-516447D01*
X97301Y-516053D01*
X97393Y-515588D01*
Y-513833D01*
X97802Y-513424D01*
X98355Y-512598D01*
X98549Y-511622D01*
Y-509496D01*
X100051D01*
Y-508486D01*
X105740D01*
X106716Y-508292D01*
X107543Y-507739D01*
X123802Y-491480D01*
X124355Y-490653D01*
X124549Y-489677D01*
Y-485687D01*
X125057Y-485025D01*
X125410Y-484173D01*
X125530Y-483260D01*
X125410Y-482346D01*
X125057Y-481495D01*
X124496Y-480764D01*
X123765Y-480203D01*
X122914Y-479850D01*
X122000Y-479730D01*
D02*
G37*
G36*
X52158Y-497657D02*
X46031D01*
Y-502901D01*
X44461Y-504471D01*
X37099D01*
Y-502346D01*
X30775D01*
Y-509654D01*
X37099D01*
Y-507969D01*
X37599Y-507762D01*
X39847Y-510010D01*
X39708Y-510346D01*
X39708D01*
Y-517654D01*
X46032D01*
Y-510346D01*
X44295D01*
X44283Y-510285D01*
X43951Y-509789D01*
X42154Y-507991D01*
X42346Y-507529D01*
X45094D01*
X45680Y-507413D01*
X46176Y-507081D01*
X46914Y-506343D01*
X52158D01*
Y-497657D01*
D02*
G37*
G36*
X121141Y-503500D02*
X119110D01*
Y-505531D01*
X119282Y-505509D01*
X119909Y-505249D01*
X120447Y-504836D01*
X120859Y-504298D01*
X121119Y-503672D01*
X121141Y-503500D01*
D02*
G37*
G36*
X118110D02*
X116079D01*
X116102Y-503672D01*
X116361Y-504298D01*
X116774Y-504836D01*
X117312Y-505249D01*
X117938Y-505509D01*
X118110Y-505531D01*
Y-503500D01*
D02*
G37*
G36*
X75531D02*
X73500D01*
Y-505531D01*
X73672Y-505509D01*
X74299Y-505249D01*
X74836Y-504836D01*
X75249Y-504298D01*
X75508Y-503672D01*
X75531Y-503500D01*
D02*
G37*
G36*
X72500D02*
X70469D01*
X70491Y-503672D01*
X70751Y-504298D01*
X71164Y-504836D01*
X71702Y-505249D01*
X72328Y-505509D01*
X72500Y-505531D01*
Y-503500D01*
D02*
G37*
G36*
X12150Y-503850D02*
X8500D01*
Y-507500D01*
X12150D01*
Y-503850D01*
D02*
G37*
G36*
X7500D02*
X3850D01*
Y-507500D01*
X7500D01*
Y-503850D01*
D02*
G37*
G36*
X19500Y-506469D02*
Y-508500D01*
X21531D01*
X21508Y-508328D01*
X21249Y-507701D01*
X20836Y-507164D01*
X20299Y-506751D01*
X19672Y-506492D01*
X19500Y-506469D01*
D02*
G37*
G36*
X18500D02*
X18328Y-506492D01*
X17702Y-506751D01*
X17164Y-507164D01*
X16751Y-507701D01*
X16491Y-508328D01*
X16469Y-508500D01*
X18500D01*
Y-506469D01*
D02*
G37*
G36*
X21531Y-509500D02*
X19500D01*
Y-511531D01*
X19672Y-511509D01*
X20299Y-511249D01*
X20836Y-510836D01*
X21249Y-510298D01*
X21508Y-509672D01*
X21531Y-509500D01*
D02*
G37*
G36*
X18500D02*
X16469D01*
X16491Y-509672D01*
X16751Y-510298D01*
X17164Y-510836D01*
X17702Y-511249D01*
X18328Y-511509D01*
X18500Y-511531D01*
Y-509500D01*
D02*
G37*
G36*
X12150Y-508500D02*
X8500D01*
Y-512150D01*
X12150D01*
Y-508500D01*
D02*
G37*
G36*
X7500D02*
X3850D01*
Y-512150D01*
X7500D01*
Y-508500D01*
D02*
G37*
G36*
X136150Y-509850D02*
X132500D01*
Y-513500D01*
X136150D01*
Y-509850D01*
D02*
G37*
G36*
X131500D02*
X127850D01*
Y-513500D01*
X131500D01*
Y-509850D01*
D02*
G37*
G36*
X136150Y-514500D02*
X132500D01*
Y-518150D01*
X136150D01*
Y-514500D01*
D02*
G37*
G36*
X131500D02*
X127850D01*
Y-518150D01*
X131500D01*
Y-514500D01*
D02*
G37*
G36*
X121563Y-516532D02*
Y-518563D01*
X123594D01*
X123572Y-518391D01*
X123312Y-517765D01*
X122899Y-517227D01*
X122362Y-516814D01*
X121735Y-516554D01*
X121563Y-516532D01*
D02*
G37*
G36*
X120563D02*
X120391Y-516554D01*
X119764Y-516814D01*
X119227Y-517227D01*
X118814Y-517765D01*
X118554Y-518391D01*
X118532Y-518563D01*
X120563D01*
Y-516532D01*
D02*
G37*
G36*
X48000Y-518779D02*
X47150Y-518948D01*
X46430Y-519430D01*
X45948Y-520150D01*
X45779Y-521000D01*
X45807Y-521138D01*
X45459Y-521534D01*
X34654D01*
Y-519901D01*
X27346D01*
Y-521471D01*
X11642D01*
X11450Y-521008D01*
X10817Y-520183D01*
X9992Y-519550D01*
X9031Y-519152D01*
X8000Y-519016D01*
X6969Y-519152D01*
X6008Y-519550D01*
X5183Y-520183D01*
X4550Y-521008D01*
X4152Y-521969D01*
X4016Y-523000D01*
X4152Y-524031D01*
X4550Y-524992D01*
X5183Y-525817D01*
X6008Y-526450D01*
X6969Y-526848D01*
X8000Y-526984D01*
X9031Y-526848D01*
X9992Y-526450D01*
X10817Y-525817D01*
X11450Y-524992D01*
X11642Y-524529D01*
X27346D01*
Y-526225D01*
X34654D01*
Y-524592D01*
X46189D01*
X46774Y-524476D01*
X47270Y-524144D01*
X48242Y-523172D01*
X48850Y-523052D01*
X49570Y-522570D01*
X50052Y-521850D01*
X50221Y-521000D01*
X50052Y-520150D01*
X49570Y-519430D01*
X48850Y-518948D01*
X48000Y-518779D01*
D02*
G37*
G36*
X123594Y-519563D02*
X121563D01*
Y-521594D01*
X121735Y-521571D01*
X122362Y-521312D01*
X122899Y-520899D01*
X123312Y-520362D01*
X123572Y-519735D01*
X123594Y-519563D01*
D02*
G37*
G36*
X120563D02*
X118532D01*
X118554Y-519735D01*
X118814Y-520362D01*
X119227Y-520899D01*
X119764Y-521312D01*
X120391Y-521571D01*
X120563Y-521594D01*
Y-519563D01*
D02*
G37*
G36*
X96178Y-522401D02*
X90066D01*
X89679Y-522478D01*
X89351Y-522697D01*
X89331Y-522727D01*
X88831Y-522575D01*
Y-522500D01*
X82500D01*
Y-532670D01*
X87575D01*
X88056Y-532574D01*
X88463Y-532302D01*
X88736Y-531894D01*
X88829Y-531422D01*
X88853Y-531407D01*
X89331Y-531273D01*
X89351Y-531303D01*
X89679Y-531522D01*
X90066Y-531599D01*
X96178D01*
X96565Y-531522D01*
X96893Y-531303D01*
X97076Y-531029D01*
X99500D01*
X100085Y-530913D01*
X100581Y-530581D01*
X100952Y-530211D01*
X101000Y-530221D01*
X101850Y-530052D01*
X102570Y-529570D01*
X103052Y-528850D01*
X103221Y-528000D01*
X103052Y-527150D01*
X102899Y-526922D01*
X103122Y-526355D01*
X103230Y-526330D01*
X104346Y-527446D01*
Y-530099D01*
X107071D01*
X107352Y-530287D01*
X107937Y-530403D01*
X108367D01*
X112045Y-534081D01*
X112541Y-534413D01*
X113126Y-534529D01*
X117901D01*
Y-536654D01*
X124225D01*
Y-529346D01*
X117901D01*
Y-531471D01*
X113760D01*
X111654Y-529365D01*
Y-523775D01*
X105001D01*
X104644Y-523419D01*
X104148Y-523087D01*
X103563Y-522971D01*
X97076D01*
X96893Y-522697D01*
X96565Y-522478D01*
X96178Y-522401D01*
D02*
G37*
G36*
X53906Y-510346D02*
X47582D01*
Y-517654D01*
X49897D01*
X53657Y-521414D01*
Y-526658D01*
X62343D01*
Y-526138D01*
X62843Y-525871D01*
X62907Y-525913D01*
X63492Y-526029D01*
X66924D01*
X67107Y-526303D01*
X67435Y-526522D01*
X67822Y-526599D01*
X73934D01*
X74321Y-526522D01*
X74649Y-526303D01*
X74669Y-526273D01*
X75169Y-526425D01*
Y-527248D01*
X75089Y-527313D01*
X74669Y-527470D01*
X74399Y-527290D01*
X73934Y-527197D01*
X71378D01*
Y-529500D01*
Y-531803D01*
X73934D01*
X74399Y-531710D01*
X74681Y-531522D01*
X75082Y-531616D01*
X75226Y-531700D01*
X75264Y-531894D01*
X75537Y-532302D01*
X75944Y-532574D01*
X76425Y-532670D01*
X81500D01*
Y-522500D01*
X75169D01*
Y-522575D01*
X74669Y-522727D01*
X74649Y-522697D01*
X74321Y-522478D01*
X73934Y-522401D01*
X67822D01*
X67435Y-522478D01*
X67107Y-522697D01*
X66924Y-522971D01*
X64126D01*
X63668Y-522513D01*
X63172Y-522182D01*
X62587Y-522065D01*
X62343D01*
Y-520531D01*
X57099D01*
X53906Y-517338D01*
Y-510346D01*
D02*
G37*
G36*
X70378Y-527197D02*
X67822D01*
X67357Y-527290D01*
X66962Y-527553D01*
X66699Y-527947D01*
X66607Y-528412D01*
X66537Y-528474D01*
X66500Y-528469D01*
Y-531000D01*
Y-533531D01*
X66672Y-533508D01*
X67299Y-533249D01*
X67836Y-532836D01*
X68072Y-532529D01*
X69378D01*
X69963Y-532413D01*
X70378Y-532136D01*
Y-529500D01*
Y-527197D01*
D02*
G37*
G36*
X34854Y-527575D02*
X31500D01*
Y-530437D01*
X34854D01*
Y-527575D01*
D02*
G37*
G36*
X30500D02*
X27146D01*
Y-530437D01*
X30500D01*
Y-527575D01*
D02*
G37*
G36*
X65500Y-528469D02*
X65328Y-528491D01*
X64701Y-528751D01*
X64164Y-529164D01*
X63751Y-529702D01*
X63491Y-530328D01*
X63469Y-530500D01*
X65500D01*
Y-528469D01*
D02*
G37*
G36*
X12150Y-528850D02*
X8500D01*
Y-532500D01*
X12150D01*
Y-528850D01*
D02*
G37*
G36*
X133500Y-530469D02*
Y-532500D01*
X135531D01*
X135509Y-532328D01*
X135249Y-531702D01*
X134836Y-531164D01*
X134299Y-530751D01*
X133672Y-530491D01*
X133500Y-530469D01*
D02*
G37*
G36*
X42563D02*
Y-532500D01*
X44594D01*
X44572Y-532328D01*
X44312Y-531702D01*
X43899Y-531164D01*
X43361Y-530751D01*
X42735Y-530491D01*
X42563Y-530469D01*
D02*
G37*
G36*
X41563D02*
X41391Y-530491D01*
X40764Y-530751D01*
X40227Y-531164D01*
X39814Y-531702D01*
X39555Y-532328D01*
X39532Y-532500D01*
X41563D01*
Y-530469D01*
D02*
G37*
G36*
X7500Y-528850D02*
X3850D01*
Y-532500D01*
X7500D01*
Y-528850D01*
D02*
G37*
G36*
X128437Y-529146D02*
X125575D01*
Y-532500D01*
X128437D01*
Y-529146D01*
D02*
G37*
G36*
X65500Y-531500D02*
X63469D01*
X63491Y-531672D01*
X63751Y-532299D01*
X64164Y-532836D01*
X64701Y-533249D01*
X65328Y-533508D01*
X65500Y-533531D01*
Y-531500D01*
D02*
G37*
G36*
X34854Y-531437D02*
X27146D01*
Y-534299D01*
X28221D01*
X28419Y-534595D01*
X28483Y-534799D01*
X28469Y-534905D01*
X33531D01*
X33517Y-534799D01*
X33581Y-534595D01*
X33779Y-534299D01*
X34854D01*
Y-531437D01*
D02*
G37*
G36*
X57500Y-532142D02*
X53457D01*
Y-534905D01*
X57500D01*
Y-532142D01*
D02*
G37*
G36*
X102500Y-533469D02*
Y-535500D01*
X104531D01*
X104508Y-535328D01*
X104249Y-534701D01*
X103836Y-534164D01*
X103298Y-533751D01*
X102672Y-533492D01*
X102500Y-533469D01*
D02*
G37*
G36*
X101500D02*
X101328Y-533492D01*
X100701Y-533751D01*
X100164Y-534164D01*
X99751Y-534701D01*
X99492Y-535328D01*
X99469Y-535500D01*
X101500D01*
Y-533469D01*
D02*
G37*
G36*
X135531Y-533500D02*
X133500D01*
Y-535531D01*
X133672Y-535508D01*
X134299Y-535249D01*
X134836Y-534836D01*
X135249Y-534299D01*
X135509Y-533672D01*
X135531Y-533500D01*
D02*
G37*
G36*
X44594D02*
X42563D01*
Y-535531D01*
X42735Y-535508D01*
X43361Y-535249D01*
X43899Y-534836D01*
X44312Y-534299D01*
X44572Y-533672D01*
X44594Y-533500D01*
D02*
G37*
G36*
X41563D02*
X39532D01*
X39555Y-533672D01*
X39814Y-534299D01*
X40227Y-534836D01*
X40764Y-535249D01*
X41391Y-535508D01*
X41563Y-535531D01*
Y-533500D01*
D02*
G37*
G36*
X132299Y-529146D02*
X129437D01*
Y-533000D01*
Y-536854D01*
X132299D01*
Y-536009D01*
X132500Y-535833D01*
Y-533000D01*
Y-530167D01*
X132299Y-529991D01*
Y-529146D01*
D02*
G37*
G36*
X128437Y-533500D02*
X125575D01*
Y-536854D01*
X128437D01*
Y-533500D01*
D02*
G37*
G36*
X12150Y-533500D02*
X8500D01*
Y-537150D01*
X12150D01*
Y-533500D01*
D02*
G37*
G36*
X7500D02*
X3850D01*
Y-537150D01*
X7500D01*
Y-533500D01*
D02*
G37*
G36*
X33531Y-535906D02*
X31500D01*
Y-537937D01*
X31672Y-537914D01*
X32298Y-537655D01*
X32836Y-537242D01*
X33249Y-536704D01*
X33509Y-536078D01*
X33531Y-535906D01*
D02*
G37*
G36*
X30500D02*
X28469D01*
X28492Y-536078D01*
X28751Y-536704D01*
X29164Y-537242D01*
X29702Y-537655D01*
X30328Y-537914D01*
X30500Y-537937D01*
Y-535906D01*
D02*
G37*
G36*
X104531Y-536500D02*
X102500D01*
Y-538531D01*
X102672Y-538509D01*
X103298Y-538249D01*
X103836Y-537836D01*
X104249Y-537298D01*
X104508Y-536672D01*
X104531Y-536500D01*
D02*
G37*
G36*
X101500D02*
X99469D01*
X99492Y-536672D01*
X99751Y-537298D01*
X100164Y-537836D01*
X100701Y-538249D01*
X101328Y-538509D01*
X101500Y-538531D01*
Y-536500D01*
D02*
G37*
G36*
X62543Y-532142D02*
X58500D01*
Y-535405D01*
Y-538669D01*
X62543D01*
Y-538576D01*
X63054Y-538509D01*
X63680Y-538249D01*
X64218Y-537836D01*
X64631Y-537298D01*
X64890Y-536672D01*
X64913Y-536500D01*
X62382D01*
Y-535500D01*
X64913D01*
X64890Y-535328D01*
X64631Y-534701D01*
X64218Y-534164D01*
X63680Y-533751D01*
X63054Y-533492D01*
X62543Y-533424D01*
Y-532142D01*
D02*
G37*
G36*
X57500Y-535906D02*
X53457D01*
Y-538669D01*
X57500D01*
Y-535906D01*
D02*
G37*
%LPD*%
G36*
X81471Y-239331D02*
Y-240367D01*
X75452Y-246385D01*
X74943D01*
X74773Y-245885D01*
X74836Y-245836D01*
X75249Y-245299D01*
X75508Y-244672D01*
X75531Y-244500D01*
X73000D01*
Y-243500D01*
X75531D01*
X75508Y-243328D01*
X75249Y-242702D01*
X74836Y-242164D01*
X74299Y-241751D01*
X73672Y-241492D01*
X73305Y-241443D01*
X73126Y-240915D01*
X74511Y-239529D01*
X80000D01*
X80585Y-239413D01*
X80971Y-239156D01*
X81471Y-239331D01*
D02*
G37*
G36*
X52383Y-228029D02*
X52183Y-228183D01*
X51550Y-229008D01*
X51152Y-229969D01*
X51016Y-231000D01*
X51152Y-232031D01*
X51550Y-232992D01*
X52183Y-233817D01*
X53008Y-234450D01*
X53471Y-234642D01*
Y-238000D01*
X53587Y-238585D01*
X53919Y-239081D01*
X60471Y-245634D01*
Y-247576D01*
X60430Y-247603D01*
X59948Y-248323D01*
X59779Y-249173D01*
X59948Y-250023D01*
X60430Y-250743D01*
X60740Y-250951D01*
X60589Y-251451D01*
X59064D01*
X58688Y-251376D01*
X57981D01*
X55802Y-249198D01*
X54975Y-248645D01*
X54000Y-248451D01*
X53372D01*
X53344Y-247951D01*
X53563Y-247764D01*
Y-245000D01*
Y-242236D01*
X53299Y-242011D01*
Y-241146D01*
X50437D01*
Y-245000D01*
X49937D01*
Y-245500D01*
X46575D01*
Y-248451D01*
X45225D01*
Y-241346D01*
X43592D01*
Y-239570D01*
X46081Y-237081D01*
X46413Y-236585D01*
X46529Y-236000D01*
Y-228633D01*
X47633Y-227529D01*
X52214D01*
X52383Y-228029D01*
D02*
G37*
G36*
X43891Y-254049D02*
X43866Y-254172D01*
Y-256347D01*
X43959Y-256813D01*
X44171Y-257130D01*
X43959Y-257447D01*
X43866Y-257912D01*
Y-260088D01*
X43959Y-260553D01*
X44222Y-260947D01*
X44318Y-261011D01*
X44147Y-261265D01*
X44070Y-261653D01*
Y-263828D01*
X44147Y-264215D01*
X44367Y-264543D01*
X44695Y-264762D01*
X45082Y-264839D01*
X45723D01*
Y-270989D01*
X43240Y-273471D01*
X25654D01*
Y-272403D01*
X32126D01*
X32711Y-272287D01*
X33207Y-271955D01*
X36719Y-268444D01*
X37051Y-267948D01*
X37167Y-267362D01*
Y-264839D01*
X37808D01*
X38195Y-264762D01*
X38523Y-264543D01*
X38742Y-264215D01*
X38819Y-263828D01*
Y-261653D01*
X38742Y-261265D01*
X38572Y-261011D01*
X38667Y-260947D01*
X38931Y-260553D01*
X39023Y-260088D01*
Y-259500D01*
X35638D01*
Y-258500D01*
X39023D01*
Y-257912D01*
X38931Y-257447D01*
X38667Y-257053D01*
X38572Y-256989D01*
X38742Y-256734D01*
X38819Y-256347D01*
Y-254172D01*
X38795Y-254049D01*
X39140Y-253549D01*
X43509D01*
X43891Y-254049D01*
D02*
G37*
%LPC*%
G36*
X54563Y-242469D02*
Y-244500D01*
X56594D01*
X56572Y-244328D01*
X56312Y-243702D01*
X55899Y-243164D01*
X55361Y-242751D01*
X54735Y-242492D01*
X54563Y-242469D01*
D02*
G37*
G36*
X49437Y-241146D02*
X46575D01*
Y-244500D01*
X49437D01*
Y-241146D01*
D02*
G37*
G36*
X56594Y-245500D02*
X54563D01*
Y-247531D01*
X54735Y-247509D01*
X55361Y-247249D01*
X55899Y-246836D01*
X56312Y-246299D01*
X56572Y-245672D01*
X56594Y-245500D01*
D02*
G37*
%LPD*%
G36*
X54663Y-338556D02*
X54644Y-338804D01*
X54509Y-339081D01*
X53969Y-339152D01*
X53008Y-339550D01*
X52183Y-340183D01*
X51550Y-341008D01*
X51152Y-341969D01*
X51016Y-343000D01*
X51152Y-344031D01*
X51550Y-344992D01*
X52183Y-345817D01*
X53008Y-346450D01*
X53534Y-346668D01*
Y-357402D01*
X53493Y-357430D01*
X53011Y-358150D01*
X52842Y-359000D01*
X53011Y-359850D01*
X53493Y-360570D01*
X54063Y-360951D01*
X53911Y-361451D01*
X53000D01*
X52025Y-361645D01*
X51198Y-362198D01*
X50944Y-362451D01*
X48299D01*
Y-361558D01*
X48672Y-361508D01*
X49299Y-361249D01*
X49836Y-360836D01*
X50249Y-360298D01*
X50508Y-359672D01*
X50531Y-359500D01*
X48000D01*
Y-358500D01*
X50531D01*
X50508Y-358328D01*
X50249Y-357701D01*
X49836Y-357164D01*
X49299Y-356751D01*
X48672Y-356491D01*
X48299Y-356442D01*
Y-355146D01*
X45437D01*
Y-359000D01*
X44937D01*
Y-359500D01*
X41575D01*
Y-362451D01*
X40225D01*
Y-355346D01*
X40225Y-355346D01*
X40225D01*
X40347Y-354879D01*
X47081Y-348144D01*
X47413Y-347648D01*
X47529Y-347063D01*
Y-342133D01*
X51134Y-338529D01*
X54631D01*
X54663Y-338556D01*
D02*
G37*
G36*
X44619Y-368049D02*
X44617Y-368050D01*
X44222Y-368313D01*
X43959Y-368707D01*
X43866Y-369172D01*
Y-371347D01*
X43959Y-371813D01*
X44171Y-372130D01*
X43959Y-372447D01*
X43866Y-372912D01*
Y-375088D01*
X43959Y-375553D01*
X44222Y-375947D01*
X44318Y-376011D01*
X44147Y-376266D01*
X44070Y-376653D01*
Y-378828D01*
X44071Y-378829D01*
X37429Y-385471D01*
X28697D01*
X28154Y-385578D01*
X28031Y-385564D01*
X27654Y-385362D01*
Y-384466D01*
X30441D01*
X31026Y-384350D01*
X31522Y-384018D01*
X35702Y-379839D01*
X37808D01*
X38195Y-379762D01*
X38523Y-379543D01*
X38742Y-379215D01*
X38819Y-378828D01*
Y-376653D01*
X38742Y-376266D01*
X38572Y-376011D01*
X38667Y-375947D01*
X38931Y-375553D01*
X39023Y-375088D01*
Y-374500D01*
X35638D01*
Y-373500D01*
X39023D01*
Y-372912D01*
X38931Y-372447D01*
X38667Y-372053D01*
X38572Y-371989D01*
X38742Y-371734D01*
X38819Y-371347D01*
Y-369172D01*
X38742Y-368785D01*
X38523Y-368457D01*
X38195Y-368238D01*
X37808Y-368161D01*
X33468D01*
X33081Y-368238D01*
X32987Y-368300D01*
X32850Y-368208D01*
X32049Y-368049D01*
X32098Y-367549D01*
X44570D01*
X44619Y-368049D01*
D02*
G37*
%LPC*%
G36*
X44437Y-355146D02*
X41575D01*
Y-358500D01*
X44437D01*
Y-355146D01*
D02*
G37*
%LPD*%
G36*
X50383Y-452029D02*
X50183Y-452183D01*
X49550Y-453008D01*
X49152Y-453969D01*
X49016Y-455000D01*
X49152Y-456031D01*
X49550Y-456992D01*
X50183Y-457817D01*
X51008Y-458450D01*
X51471Y-458641D01*
Y-464000D01*
X51587Y-464585D01*
X51919Y-465081D01*
X55117Y-468280D01*
X54833Y-468703D01*
X54322Y-468492D01*
X53690Y-468408D01*
X53299Y-468146D01*
X53299Y-468146D01*
X53299Y-468146D01*
X50437D01*
Y-472000D01*
X49937D01*
Y-472500D01*
X46575D01*
Y-475451D01*
X45225D01*
Y-468346D01*
X43592D01*
Y-455823D01*
X47885Y-451529D01*
X50214D01*
X50383Y-452029D01*
D02*
G37*
G36*
X45237Y-481049D02*
X45235Y-481049D01*
X44840Y-481313D01*
X44577Y-481707D01*
X44484Y-482172D01*
Y-484347D01*
X44577Y-484812D01*
X44789Y-485130D01*
X44577Y-485447D01*
X44484Y-485912D01*
Y-488088D01*
X44577Y-488553D01*
X44840Y-488947D01*
X44936Y-489011D01*
X44765Y-489265D01*
X44688Y-489652D01*
Y-491828D01*
X44742Y-492095D01*
X41230Y-495608D01*
X34205D01*
X34013Y-495146D01*
X36320Y-492839D01*
X38426D01*
X38813Y-492762D01*
X39141Y-492543D01*
X39360Y-492215D01*
X39437Y-491828D01*
Y-489652D01*
X39360Y-489265D01*
X39190Y-489011D01*
X39285Y-488947D01*
X39549Y-488553D01*
X39641Y-488088D01*
Y-487500D01*
X36256D01*
Y-486500D01*
X39641D01*
Y-485912D01*
X39549Y-485447D01*
X39285Y-485053D01*
X39190Y-484989D01*
X39360Y-484734D01*
X39437Y-484347D01*
Y-482172D01*
X39360Y-481785D01*
X39141Y-481457D01*
X38813Y-481238D01*
X38426Y-481161D01*
X34086D01*
X33699Y-481238D01*
X33491Y-481377D01*
X33000Y-481049D01*
X33152Y-480549D01*
X45188D01*
X45237Y-481049D01*
D02*
G37*
%LPC*%
G36*
X49437Y-468146D02*
X46575D01*
Y-471500D01*
X49437D01*
Y-468146D01*
D02*
G37*
%LPD*%
D15*
X38945Y-371745D02*
Y-374041D01*
X39404Y-374500D01*
X40322D01*
X40782Y-374041D01*
Y-371745D01*
X41700Y-374500D02*
X42618D01*
X42159D01*
Y-371745D01*
X41700Y-372204D01*
X43996Y-374959D02*
X45832D01*
X46751Y-374500D02*
Y-372663D01*
X47669Y-371745D01*
X48588Y-372663D01*
Y-374500D01*
Y-373123D01*
X46751D01*
X51342Y-374500D02*
X49506D01*
X51342Y-372663D01*
Y-372204D01*
X50883Y-371745D01*
X49965D01*
X49506Y-372204D01*
X77488Y-409721D02*
Y-412017D01*
X77947Y-412476D01*
X78866D01*
X79325Y-412017D01*
Y-409721D01*
X82080D02*
X81161Y-410181D01*
X80243Y-411099D01*
Y-412017D01*
X80702Y-412476D01*
X81621D01*
X82080Y-412017D01*
Y-411558D01*
X81621Y-411099D01*
X80243D01*
X82998Y-412935D02*
X84835D01*
X85753Y-412476D02*
Y-410640D01*
X86672Y-409721D01*
X87590Y-410640D01*
Y-412476D01*
Y-411099D01*
X85753D01*
X90345Y-412476D02*
X88508D01*
X90345Y-410640D01*
Y-410181D01*
X89886Y-409721D01*
X88967D01*
X88508Y-410181D01*
X69807Y-297280D02*
Y-299576D01*
X70266Y-300035D01*
X71185D01*
X71644Y-299576D01*
Y-297280D01*
X74399D02*
X73480Y-297740D01*
X72562Y-298658D01*
Y-299576D01*
X73021Y-300035D01*
X73940D01*
X74399Y-299576D01*
Y-299117D01*
X73940Y-298658D01*
X72562D01*
X75317Y-300495D02*
X77154D01*
X78072Y-300035D02*
Y-298199D01*
X78991Y-297280D01*
X79909Y-298199D01*
Y-300035D01*
Y-298658D01*
X78072D01*
X80827Y-297740D02*
X81286Y-297280D01*
X82205D01*
X82664Y-297740D01*
Y-298199D01*
X82205Y-298658D01*
X81745D01*
X82205D01*
X82664Y-299117D01*
Y-299576D01*
X82205Y-300035D01*
X81286D01*
X80827Y-299576D01*
X76488Y-185721D02*
Y-188017D01*
X76947Y-188476D01*
X77866D01*
X78325Y-188017D01*
Y-185721D01*
X81080D02*
X80161Y-186180D01*
X79243Y-187099D01*
Y-188017D01*
X79702Y-188476D01*
X80621D01*
X81080Y-188017D01*
Y-187558D01*
X80621Y-187099D01*
X79243D01*
X81998Y-188935D02*
X83835D01*
X84753Y-188476D02*
Y-186640D01*
X85672Y-185721D01*
X86590Y-186640D01*
Y-188476D01*
Y-187099D01*
X84753D01*
X88886Y-188476D02*
Y-185721D01*
X87508Y-187099D01*
X89345D01*
X38500Y-150745D02*
Y-153041D01*
X38959Y-153500D01*
X39878D01*
X40337Y-153041D01*
Y-150745D01*
X41255Y-153500D02*
X42173D01*
X41714D01*
Y-150745D01*
X41255Y-151204D01*
X43551Y-153959D02*
X45388D01*
X46306Y-153500D02*
Y-151663D01*
X47224Y-150745D01*
X48143Y-151663D01*
Y-153500D01*
Y-152122D01*
X46306D01*
X50438Y-153500D02*
Y-150745D01*
X49061Y-152122D01*
X50898D01*
X20755Y-51500D02*
X18459D01*
X18000Y-51959D01*
Y-52877D01*
X18459Y-53337D01*
X20755D01*
X18000Y-54255D02*
Y-55173D01*
Y-54714D01*
X20755D01*
X20296Y-54255D01*
Y-56551D02*
X20755Y-57010D01*
Y-57928D01*
X20296Y-58388D01*
X18459D01*
X18000Y-57928D01*
Y-57010D01*
X18459Y-56551D01*
X20296D01*
X18000Y-59306D02*
Y-60224D01*
Y-59765D01*
X20755D01*
X20296Y-59306D01*
X51755Y-59500D02*
X49459D01*
X49000Y-59959D01*
Y-60878D01*
X49459Y-61337D01*
X51755D01*
X49000Y-62255D02*
Y-63173D01*
Y-62714D01*
X51755D01*
X51296Y-62255D01*
Y-64551D02*
X51755Y-65010D01*
Y-65928D01*
X51296Y-66387D01*
X49459D01*
X49000Y-65928D01*
Y-65010D01*
X49459Y-64551D01*
X51296D01*
X49000Y-69143D02*
Y-67306D01*
X50837Y-69143D01*
X51296D01*
X51755Y-68683D01*
Y-67765D01*
X51296Y-67306D01*
X75015Y-136913D02*
X72719D01*
X72260Y-137373D01*
Y-138291D01*
X72719Y-138750D01*
X75015D01*
X72260Y-141046D02*
X75015D01*
X73637Y-139668D01*
Y-141505D01*
X71801Y-142423D02*
Y-144260D01*
X72260Y-145178D02*
X74097D01*
X75015Y-146097D01*
X74097Y-147015D01*
X72260D01*
X73637D01*
Y-145178D01*
X72260Y-149311D02*
X75015D01*
X73637Y-147933D01*
Y-149770D01*
X39563Y-484745D02*
Y-487041D01*
X40022Y-487500D01*
X40940D01*
X41400Y-487041D01*
Y-484745D01*
X42318Y-487500D02*
X43236D01*
X42777D01*
Y-484745D01*
X42318Y-485204D01*
X44614Y-487959D02*
X46450D01*
X47369Y-487500D02*
Y-485663D01*
X48287Y-484745D01*
X49206Y-485663D01*
Y-487500D01*
Y-486123D01*
X47369D01*
X50124Y-487500D02*
X51042D01*
X50583D01*
Y-484745D01*
X50124Y-485204D01*
X76488Y-520721D02*
Y-523017D01*
X76947Y-523476D01*
X77866D01*
X78325Y-523017D01*
Y-520721D01*
X81080D02*
X80161Y-521180D01*
X79243Y-522099D01*
Y-523017D01*
X79702Y-523476D01*
X80621D01*
X81080Y-523017D01*
Y-522558D01*
X80621Y-522099D01*
X79243D01*
X81998Y-523936D02*
X83835D01*
X84753Y-523476D02*
Y-521640D01*
X85672Y-520721D01*
X86590Y-521640D01*
Y-523476D01*
Y-522099D01*
X84753D01*
X87508Y-523476D02*
X88427D01*
X87967D01*
Y-520721D01*
X87508Y-521180D01*
X75015Y-475347D02*
X72719D01*
X72260Y-475806D01*
Y-476724D01*
X72719Y-477183D01*
X75015D01*
X72260Y-479479D02*
X75015D01*
X73637Y-478101D01*
Y-479938D01*
X71801Y-480857D02*
Y-482693D01*
X72260Y-483611D02*
X74097D01*
X75015Y-484530D01*
X74097Y-485448D01*
X72260D01*
X73637D01*
Y-483611D01*
X72260Y-486367D02*
Y-487285D01*
Y-486826D01*
X75015D01*
X74556Y-486367D01*
D17*
X0Y-542000D02*
Y0D01*
Y-542000D02*
X141732D01*
X0Y0D02*
X141732D01*
Y-542000D02*
Y0D01*
D19*
X59000Y-421906D02*
D03*
Y-410094D02*
D03*
X51000Y-309906D02*
D03*
Y-298095D02*
D03*
X58000Y-192968D02*
D03*
Y-181158D02*
D03*
X58000Y-535405D02*
D03*
Y-523595D02*
D03*
D20*
X30000Y-412063D02*
D03*
Y-419937D02*
D03*
X108319Y-409937D02*
D03*
Y-402063D02*
D03*
X24000Y-375063D02*
D03*
Y-382937D02*
D03*
X108319Y-295496D02*
D03*
Y-287622D02*
D03*
X32000Y-300063D02*
D03*
Y-307937D02*
D03*
X22000Y-263000D02*
D03*
Y-270874D02*
D03*
X105000Y-175500D02*
D03*
Y-183374D02*
D03*
X21000Y-151000D02*
D03*
Y-158874D02*
D03*
X128563Y-52937D02*
D03*
Y-45063D02*
D03*
X32000Y-189063D02*
D03*
Y-196937D02*
D03*
X23000Y-487063D02*
D03*
Y-494937D02*
D03*
X31000Y-523063D02*
D03*
Y-530937D02*
D03*
X108000Y-526937D02*
D03*
Y-519063D02*
D03*
D21*
X96000Y-394937D02*
D03*
Y-387063D02*
D03*
X93319Y-285433D02*
D03*
Y-277559D02*
D03*
X91252Y-164126D02*
D03*
Y-172000D02*
D03*
X96000Y-505937D02*
D03*
Y-498063D02*
D03*
D22*
X120937Y-419000D02*
D03*
X113063D02*
D03*
X55618Y-377000D02*
D03*
X63492D02*
D03*
X49937Y-399000D02*
D03*
X42063D02*
D03*
X32937Y-395000D02*
D03*
X25063D02*
D03*
X44937Y-359000D02*
D03*
X37063D02*
D03*
X28937D02*
D03*
X21063D02*
D03*
X27937Y-285000D02*
D03*
X20063D02*
D03*
X49937Y-245000D02*
D03*
X42063D02*
D03*
X33937D02*
D03*
X26063D02*
D03*
X43937Y-287000D02*
D03*
X36063D02*
D03*
X115256Y-304559D02*
D03*
X107382D02*
D03*
X55063Y-269000D02*
D03*
X62937D02*
D03*
X20000Y-135000D02*
D03*
X27874D02*
D03*
X104000Y-192575D02*
D03*
X111874D02*
D03*
X54063Y-157000D02*
D03*
X61937D02*
D03*
X28437Y-172000D02*
D03*
X20563D02*
D03*
X43374Y-175500D02*
D03*
X35500D02*
D03*
X136437Y-62000D02*
D03*
X128563D02*
D03*
X36000Y-135000D02*
D03*
X43874D02*
D03*
X32374Y-472000D02*
D03*
X24500D02*
D03*
X49937D02*
D03*
X42063D02*
D03*
X33937Y-506000D02*
D03*
X26063D02*
D03*
X50744Y-514000D02*
D03*
X42870D02*
D03*
X128937Y-533000D02*
D03*
X121063D02*
D03*
X56063Y-492000D02*
D03*
X63937D02*
D03*
D23*
X78740Y-369827D02*
D03*
X75000D02*
D03*
X71260D02*
D03*
Y-359000D02*
D03*
X75000D02*
D03*
X78740D02*
D03*
X75740Y-260000D02*
D03*
X72000D02*
D03*
X68260D02*
D03*
Y-249173D02*
D03*
X72000D02*
D03*
X75740D02*
D03*
X76500Y-134000D02*
D03*
X72760D02*
D03*
X69020D02*
D03*
Y-144827D02*
D03*
X72760D02*
D03*
X76500D02*
D03*
Y-483260D02*
D03*
X72760D02*
D03*
X69020D02*
D03*
Y-472433D02*
D03*
X72760D02*
D03*
X76500D02*
D03*
D24*
X49158Y-388000D02*
D03*
X60969D02*
D03*
X53650Y-280000D02*
D03*
X65461D02*
D03*
X50571Y-169000D02*
D03*
X62382D02*
D03*
X49095Y-502000D02*
D03*
X60905D02*
D03*
D25*
X35638Y-370260D02*
D03*
Y-374000D02*
D03*
Y-377740D02*
D03*
X47252D02*
D03*
Y-374000D02*
D03*
Y-370260D02*
D03*
X35638Y-255260D02*
D03*
Y-259000D02*
D03*
Y-262740D02*
D03*
X47252D02*
D03*
Y-259000D02*
D03*
Y-255260D02*
D03*
X46807Y-149260D02*
D03*
Y-153000D02*
D03*
Y-156740D02*
D03*
X35193D02*
D03*
Y-153000D02*
D03*
Y-149260D02*
D03*
X36256Y-483260D02*
D03*
Y-487000D02*
D03*
Y-490740D02*
D03*
X47870D02*
D03*
Y-487000D02*
D03*
Y-483260D02*
D03*
D26*
X71878Y-403500D02*
D03*
Y-408500D02*
D03*
Y-413500D02*
D03*
Y-418500D02*
D03*
X94122Y-403500D02*
D03*
Y-408500D02*
D03*
Y-413500D02*
D03*
Y-418500D02*
D03*
X64197Y-291059D02*
D03*
Y-296059D02*
D03*
Y-301059D02*
D03*
Y-306059D02*
D03*
X86441Y-291059D02*
D03*
Y-296059D02*
D03*
Y-301059D02*
D03*
Y-306059D02*
D03*
X93122Y-194500D02*
D03*
Y-189500D02*
D03*
Y-184500D02*
D03*
Y-179500D02*
D03*
X70878Y-194500D02*
D03*
Y-189500D02*
D03*
Y-184500D02*
D03*
Y-179500D02*
D03*
Y-514500D02*
D03*
Y-519500D02*
D03*
Y-524500D02*
D03*
Y-529500D02*
D03*
X93122Y-514500D02*
D03*
Y-519500D02*
D03*
Y-524500D02*
D03*
Y-529500D02*
D03*
D27*
X27697Y-20000D02*
D03*
X52303D02*
D03*
D28*
X132500Y-84000D02*
D03*
Y-72976D02*
D03*
X122500Y-24409D02*
D03*
Y-35433D02*
D03*
D29*
X96437Y-76000D02*
D03*
X88563D02*
D03*
D30*
X6000Y-87000D02*
D03*
X17024D02*
D03*
X67500Y-89000D02*
D03*
X56476D02*
D03*
D31*
X75500Y-55000D02*
D03*
X93610D02*
D03*
X100500Y-62000D02*
D03*
X118610D02*
D03*
D32*
X90000Y-38646D02*
D03*
X95000D02*
D03*
X100000D02*
D03*
X105000D02*
D03*
X90000Y-19354D02*
D03*
X95000D02*
D03*
X100000D02*
D03*
X105000D02*
D03*
D33*
X19000Y-70303D02*
D03*
D34*
X9945Y-45697D02*
D03*
X19000D02*
D03*
X28055D02*
D03*
D35*
X50500Y-78500D02*
D03*
D36*
X41445Y-53500D02*
D03*
X50500D02*
D03*
X59555D02*
D03*
D64*
X83000Y-411000D02*
D03*
X75319Y-298559D02*
D03*
X82000Y-187000D02*
D03*
Y-522000D02*
D03*
D65*
X61988Y-171488D02*
X70748Y-180248D01*
Y-179437D01*
X61937Y-168949D02*
Y-157000D01*
Y-146937D01*
X59000Y-411095D02*
X62291D01*
X59000Y-410094D02*
Y-405697D01*
Y-411095D02*
Y-410094D01*
X19063Y-361000D02*
X21063Y-359000D01*
X9000Y-361000D02*
X19063D01*
X71878Y-408500D02*
Y-403500D01*
X64697Y-413500D02*
X71878D01*
X62291Y-411095D02*
X64697Y-413500D01*
X52303Y-399000D02*
X59000Y-405697D01*
X49937Y-399000D02*
X52303D01*
X78740Y-369827D02*
X79000Y-370087D01*
Y-375000D02*
Y-370087D01*
X45937Y-412063D02*
X51000Y-407000D01*
X30000Y-412063D02*
X45937D01*
X28937Y-411000D02*
X30000Y-412063D01*
X9000Y-411000D02*
X28937D01*
X108319Y-414256D02*
X113063Y-419000D01*
X108319Y-414256D02*
Y-409937D01*
X104756Y-413500D02*
X108319Y-409937D01*
X94122Y-413500D02*
X104756D01*
X102000Y-406000D02*
Y-404323D01*
X104260Y-402063D01*
X108319D01*
X123000Y-393000D02*
X132500D01*
X113937Y-402063D02*
X123000Y-393000D01*
X108319Y-402063D02*
X113937D01*
X99500Y-408500D02*
X102000Y-406000D01*
X94122Y-408500D02*
X99500D01*
X94122Y-418500D02*
X99500D01*
X71260Y-380000D02*
Y-369827D01*
Y-380000D02*
X84260Y-393000D01*
X86000D01*
X99000Y-418000D02*
X99500Y-418500D01*
X126000Y-353000D02*
Y-352389D01*
X121556Y-347944D02*
X126000Y-352389D01*
X97056Y-347944D02*
X121556D01*
X93911Y-344800D02*
X97056Y-347944D01*
X93800Y-344800D02*
X93911D01*
X91000Y-342000D02*
X93800Y-344800D01*
X90500Y-342000D02*
X91000D01*
X93000Y-347000D02*
X99000Y-353000D01*
X84000Y-347000D02*
X93000D01*
X99000Y-353000D02*
X100500D01*
X55000Y-343000D02*
X55063Y-343063D01*
Y-359000D02*
Y-343063D01*
X61000Y-368000D02*
X63492Y-370492D01*
Y-377000D02*
Y-370492D01*
X60969Y-388000D02*
X63492Y-385476D01*
Y-377000D01*
X60969Y-395969D02*
Y-388000D01*
Y-395969D02*
X68500Y-403500D01*
X71878D01*
X45063Y-388000D02*
X49158D01*
X38063Y-395000D02*
X45063Y-388000D01*
X46575Y-378488D02*
X48000D01*
X38063Y-387000D02*
X46575Y-378488D01*
X28697Y-387000D02*
X38063D01*
Y-395000D02*
X42063Y-399000D01*
X32937Y-395000D02*
X38063D01*
X47252Y-377740D02*
X48000Y-378488D01*
X25063Y-390634D02*
X28697Y-387000D01*
X25063Y-395000D02*
Y-390634D01*
X30441Y-382937D02*
X35638Y-377740D01*
X24000Y-382937D02*
X30441D01*
X20937Y-386000D02*
X24000Y-382937D01*
X9000Y-386000D02*
X20937D01*
X32000Y-370260D02*
X35638D01*
X60063Y-337000D02*
X65063Y-332000D01*
X50500Y-337000D02*
X60063D01*
X46000Y-341500D02*
X50500Y-337000D01*
X46000Y-347063D02*
Y-341500D01*
X37063Y-356000D02*
X46000Y-347063D01*
X37063Y-359000D02*
Y-356000D01*
X28937Y-359000D02*
X37063D01*
X46020Y-161980D02*
Y-156740D01*
X20000Y-172000D02*
Y-168500D01*
X26000Y-299063D02*
X37382D01*
X33937Y-244000D02*
X42063D01*
X91252Y-184437D02*
X96563D01*
X106319Y-304559D02*
X108319Y-302559D01*
X37000Y-169000D02*
X50965D01*
X33846Y-158874D02*
X35980Y-156740D01*
X65886Y-189437D02*
X72748D01*
X58000Y-180563D02*
X60500Y-183063D01*
X53437Y-180563D02*
X58000D01*
X97693Y-296059D02*
X117878Y-275874D01*
X17000Y-188063D02*
X42937D01*
X91252Y-189437D02*
X100862D01*
X57437Y-193532D02*
X58000Y-192968D01*
X57437Y-196000D02*
Y-193532D01*
X54063Y-268000D02*
X55063Y-269000D01*
X51000Y-268000D02*
X54063D01*
X49937Y-245000D02*
X54063D01*
X21000Y-262000D02*
X22000Y-263000D01*
X18000Y-262000D02*
X21000D01*
X61937Y-308319D02*
X64197Y-306059D01*
X61937Y-309906D02*
Y-308319D01*
X93319Y-277559D02*
Y-273000D01*
X32000Y-259000D02*
X35638D01*
X31000Y-260000D02*
X32000Y-259000D01*
X72000Y-245000D02*
X73000Y-244000D01*
X72000Y-249173D02*
Y-245000D01*
X62000Y-268063D02*
X62937Y-269000D01*
X62000Y-268063D02*
Y-259000D01*
Y-249173D02*
Y-245000D01*
X42063Y-244000D02*
Y-238937D01*
Y-245000D02*
Y-244000D01*
X35638Y-267362D02*
Y-262740D01*
X32126Y-270874D02*
X35638Y-267362D01*
X22000Y-270874D02*
X32126D01*
X37000Y-280000D02*
X53650D01*
X36063Y-280937D02*
X37000Y-280000D01*
X36063Y-287000D02*
Y-280937D01*
X21063Y-275000D02*
X43874D01*
X17000Y-279063D02*
X21063Y-275000D01*
X17000Y-281937D02*
Y-279063D01*
X47252Y-271622D02*
Y-262740D01*
X43874Y-275000D02*
X47252Y-271622D01*
X17000Y-281937D02*
X20063Y-285000D01*
X29937Y-287000D02*
X36063D01*
X27937Y-285000D02*
X29937Y-287000D01*
X117878Y-275874D02*
X133000D01*
X86441Y-306059D02*
X91059D01*
X92000Y-307000D01*
X81000Y-279000D02*
X82000D01*
X68260Y-266260D02*
X81000Y-279000D01*
X68260Y-266260D02*
Y-260000D01*
X89000Y-229000D02*
X90000D01*
X80000Y-238000D02*
X89000Y-229000D01*
X73878Y-238000D02*
X80000D01*
X83000Y-241000D02*
Y-238500D01*
X85500Y-236000D01*
X94000D01*
X68260Y-243618D02*
X73878Y-238000D01*
X68260Y-249173D02*
Y-243618D01*
X75740Y-264260D02*
Y-260000D01*
X75000Y-265000D02*
X75740Y-264260D01*
X37382Y-299063D02*
X41445Y-295000D01*
X25937Y-299000D02*
X26000Y-299063D01*
X9000Y-299000D02*
X25937D01*
X64197Y-296059D02*
Y-291059D01*
Y-281264D01*
X65461Y-280000D01*
Y-271524D01*
X62937Y-269000D02*
X65461Y-271524D01*
X55000Y-238000D02*
X62000Y-245000D01*
X55000Y-238000D02*
Y-231000D01*
X47000Y-120000D02*
Y-116000D01*
X61500Y-113000D02*
X66500Y-108000D01*
X50571Y-113000D02*
X61500D01*
X47571Y-116000D02*
X50571Y-113000D01*
X47000Y-116000D02*
X47571D01*
X36000Y-131000D02*
X47000Y-120000D01*
X59000Y-226000D02*
X65000Y-220000D01*
X47000Y-226000D02*
X59000D01*
X45000Y-228000D02*
X47000Y-226000D01*
X45000Y-236000D02*
Y-228000D01*
X42063Y-238937D02*
X45000Y-236000D01*
X25063Y-249000D02*
X26063Y-248000D01*
X9000Y-249000D02*
X25063D01*
X31890Y-255260D02*
X35638D01*
X18874Y-274000D02*
X22000Y-270874D01*
X9000Y-274000D02*
X18874D01*
X59059Y-301059D02*
X64197D01*
X56094Y-298095D02*
X59059Y-301059D01*
X51000Y-298095D02*
X56094D01*
X51000D02*
Y-294063D01*
X43937Y-287000D02*
X51000Y-294063D01*
X102319Y-304559D02*
X106319D01*
X108319Y-302559D02*
Y-295496D01*
X98819Y-301059D02*
X102319Y-304559D01*
X86441Y-301059D02*
X98819D01*
X86441Y-296059D02*
X97693D01*
X127000Y-241000D02*
Y-238000D01*
X124000Y-235000D02*
X127000Y-238000D01*
X96111Y-235000D02*
X124000D01*
X92911Y-231800D02*
X96111Y-235000D01*
X92800Y-231800D02*
X92911D01*
X94000Y-236000D02*
X99000Y-241000D01*
X90000Y-229000D02*
X92800Y-231800D01*
X99000Y-241000D02*
X100000D01*
X75740Y-248260D02*
X83000Y-241000D01*
X75740Y-249173D02*
Y-248260D01*
X90111Y-117000D02*
X96111Y-123000D01*
X90000Y-117000D02*
X90111D01*
X96111Y-123000D02*
X122000D01*
X99000Y-129000D02*
X100000D01*
X93000Y-123000D02*
X99000Y-129000D01*
X83000Y-123000D02*
X93000D01*
X125000Y-129000D02*
Y-126000D01*
X122000Y-123000D02*
X125000Y-126000D01*
X79441Y-126559D02*
X83000Y-123000D01*
X79441Y-131000D02*
Y-126559D01*
X69000Y-133980D02*
X69020Y-134000D01*
X76500Y-133941D02*
X79441Y-131000D01*
X76500Y-134000D02*
Y-133941D01*
X55000Y-133000D02*
Y-122000D01*
X27874Y-135000D02*
X36000D01*
X28312Y-172875D02*
X30937Y-175500D01*
X35500D01*
X30000Y-148000D02*
X33933D01*
X16000Y-149000D02*
X16740D01*
X18740Y-151000D01*
X33933Y-148000D02*
X35193Y-149260D01*
X30000Y-199000D02*
X31000Y-200000D01*
X36000Y-135000D02*
Y-131000D01*
X55000Y-122000D02*
X56500Y-120500D01*
Y-119000D01*
X64937Y-106437D02*
X66500Y-108000D01*
X137795Y-65144D02*
Y-63358D01*
X136437Y-62000D02*
X137795Y-63358D01*
X121591Y-23500D02*
X122500Y-24409D01*
X118000Y-23500D02*
X121591D01*
X18500D02*
X22000Y-20000D01*
X27697D01*
X28055Y-45697D02*
Y-40000D01*
X3000Y-92000D02*
Y-90000D01*
X6000Y-87000D01*
X43874Y-135000D02*
X48000D01*
X32000Y-153000D02*
X35980D01*
X18740Y-151000D02*
X21000D01*
X30000Y-199000D02*
Y-196937D01*
X112268Y-192968D02*
X116000D01*
X111874Y-192575D02*
X112268Y-192968D01*
X91000Y-161000D02*
X91252Y-161252D01*
Y-164126D02*
Y-161252D01*
X52000Y-152000D02*
X54063Y-154063D01*
Y-157000D02*
Y-154063D01*
X72760Y-134000D02*
Y-130240D01*
X70748Y-184437D02*
Y-180248D01*
X15874Y-186937D02*
X17000Y-188063D01*
X9000Y-186937D02*
X15874D01*
X6500Y-137000D02*
X9000D01*
X11000Y-135000D01*
X20000D01*
X6500Y-162000D02*
X9000D01*
X12126Y-158874D01*
X21000D01*
X6500Y-186937D02*
X9000D01*
X43000Y-165000D02*
X46020Y-161980D01*
X23500Y-165000D02*
X43000D01*
X21000Y-158874D02*
X33846D01*
X59000Y-144000D02*
X61937Y-146937D01*
Y-168949D02*
X61988Y-169000D01*
X132500Y-90000D02*
Y-84000D01*
X59555Y-48445D02*
X60000Y-48000D01*
X59555Y-53500D02*
Y-48445D01*
X84500Y-72000D02*
X88500Y-76000D01*
X88563D01*
X67500Y-89000D02*
X73500D01*
X128563Y-69039D02*
X132500Y-72976D01*
X128563Y-69039D02*
Y-62000D01*
X118610D02*
X128563D01*
Y-52937D01*
X118610Y-62000D02*
Y-48110D01*
X109146Y-38646D02*
X118610Y-48110D01*
X105000Y-38646D02*
X109146D01*
X35500Y-175500D02*
Y-170500D01*
X37000Y-169000D01*
X61988Y-171488D02*
Y-169000D01*
X20000Y-168500D02*
X23500Y-165000D01*
X46020Y-156740D02*
X46740D01*
X43374Y-175500D02*
X48374D01*
X53437Y-180563D01*
X76500Y-144827D02*
X77000Y-145327D01*
Y-149260D02*
Y-145327D01*
X42937Y-188063D02*
X48000Y-183000D01*
X69020Y-154520D02*
Y-144827D01*
Y-154520D02*
X84500Y-170000D01*
X100862Y-189437D02*
X104000Y-192575D01*
Y-184374D01*
X105000Y-183374D01*
X96563Y-184437D02*
X99000Y-182000D01*
Y-178000D01*
X101500Y-175500D01*
X105000D01*
X114500D01*
X120000Y-170000D01*
X132500D01*
X58000Y-181551D02*
X65886Y-189437D01*
X93122Y-194500D02*
X97000Y-198378D01*
Y-199000D02*
Y-198378D01*
X46807Y-153000D02*
Y-149260D01*
Y-144807D01*
X46020Y-144020D02*
X46807Y-144807D01*
X32374Y-472000D02*
X42063D01*
Y-455189D01*
X47252Y-450000D01*
X57000D01*
X63000Y-444000D01*
X77241Y-125648D02*
X82089Y-120800D01*
X82180D01*
X85980Y-117000D01*
X90000D01*
X69925Y-128726D02*
X71726Y-126925D01*
X74274D01*
X69000Y-133980D02*
Y-131000D01*
X72760Y-130240D02*
X73000Y-130000D01*
X69000Y-131000D02*
X69925Y-130075D01*
Y-128726D01*
X74274Y-126925D02*
X75551Y-125648D01*
X77241D01*
X8000Y-498000D02*
X19937D01*
X23000Y-494937D01*
X32059D01*
X36256Y-490740D01*
X32000Y-483000D02*
X32260Y-483260D01*
X36256D01*
X47870Y-491130D02*
Y-490740D01*
X26063Y-506000D02*
Y-501937D01*
X30863Y-497137D01*
X41863D01*
X47870Y-491130D01*
X45094Y-506000D02*
X49095Y-502000D01*
X33937Y-506000D02*
X38000D01*
X42870Y-510870D01*
Y-514000D02*
Y-510870D01*
X38000Y-506000D02*
X45094D01*
X8000Y-523000D02*
X30937D01*
X31000Y-523063D01*
X46189D01*
X48000Y-521252D01*
Y-521000D01*
X77000Y-488000D02*
Y-483760D01*
X76500Y-483260D02*
X77000Y-483760D01*
X86000Y-454000D02*
X89000D01*
X78000Y-462000D02*
X86000Y-454000D01*
X72020Y-462000D02*
X78000D01*
X69020Y-465000D02*
X72020Y-462000D01*
X69020Y-472433D02*
Y-465000D01*
X76500Y-472433D02*
Y-466611D01*
X83111Y-460000D01*
X89000Y-454000D02*
X92800Y-457800D01*
X93611D01*
X95311Y-459500D01*
X122500D01*
X127000Y-464000D01*
Y-465000D02*
Y-464000D01*
X95700Y-461700D02*
X99000Y-465000D01*
X83111Y-460000D02*
X92700D01*
X94400Y-461700D01*
X95700D01*
X69020Y-489020D02*
Y-483260D01*
Y-489020D02*
X84000Y-504000D01*
X88563D01*
X99500Y-529500D02*
X101000Y-528000D01*
X93122Y-529500D02*
X99500D01*
X93122Y-519500D02*
X107500D01*
X113126Y-533000D02*
X121063D01*
X109000Y-528874D02*
X113126Y-533000D01*
X109000Y-521000D02*
Y-519500D01*
X124500Y-504000D01*
X132000D01*
X107500Y-519500D02*
X109000Y-521000D01*
X93122Y-524500D02*
X103563D01*
X107937Y-528874D01*
X109000D01*
X50744Y-516339D02*
Y-514000D01*
Y-516339D02*
X58000Y-523595D01*
X62587D01*
X63492Y-524500D01*
X70878D01*
Y-519500D02*
Y-514500D01*
X60905Y-504528D02*
X70878Y-514500D01*
X60905Y-504528D02*
Y-502000D01*
X53000Y-464000D02*
Y-455000D01*
Y-464000D02*
X60000Y-471000D01*
Y-472433D02*
Y-471000D01*
Y-483000D02*
X62197D01*
X66000Y-489492D02*
Y-486803D01*
X62197Y-483000D02*
X66000Y-486803D01*
X60905Y-502000D02*
X66000Y-496906D01*
Y-494508D01*
X63492Y-492000D02*
X66000Y-494508D01*
X63492Y-492000D02*
X66000Y-489492D01*
X78740Y-359000D02*
X80000Y-357740D01*
Y-351000D01*
X84000Y-347000D01*
X71260Y-359000D02*
Y-353740D01*
X83000Y-342000D01*
X90500D01*
X94063Y-387063D02*
X96000D01*
X92000Y-385000D02*
X94063Y-387063D01*
X67000Y-419937D02*
X70441D01*
X71878Y-418500D01*
X59000Y-425000D02*
Y-421906D01*
X59000Y-421906D02*
X59000Y-421906D01*
X53000Y-377000D02*
X55618D01*
X31000Y-374000D02*
X35638D01*
X24000Y-375063D02*
X25063Y-374000D01*
X31000D01*
X75000Y-359000D02*
Y-355740D01*
X75740Y-355000D01*
X120937Y-419000D02*
X125000D01*
X32000Y-311000D02*
Y-307937D01*
X52000Y-313000D02*
Y-310906D01*
X51000Y-309906D02*
X52000Y-310906D01*
X115256Y-304559D02*
X120000D01*
X66000Y-198000D02*
X67378D01*
X70878Y-194500D01*
X31000Y-535405D02*
Y-530937D01*
X66000Y-531000D02*
X69378D01*
X70878Y-529500D01*
X23000Y-487063D02*
Y-483000D01*
X32000Y-487063D02*
X36193D01*
X36256Y-487000D01*
X128937Y-533000D02*
X133000D01*
X93937Y-496000D02*
X96000Y-498063D01*
X91000Y-496000D02*
X93937D01*
X72760Y-472433D02*
Y-468240D01*
X73000Y-468000D01*
X49937Y-472000D02*
X52650D01*
X53650Y-471000D01*
X8000Y-473000D02*
X13000D01*
X14000Y-472000D01*
X24500D01*
D66*
X17024Y-338913D02*
X23937Y-332000D01*
X17024Y-347024D02*
Y-338913D01*
Y-347024D02*
X20000Y-350000D01*
X28000D01*
X47252Y-369748D02*
X52000Y-365000D01*
X53000Y-364000D01*
X23000Y-365000D02*
X52000D01*
X20000Y-368000D02*
X23000Y-365000D01*
X104063Y-394937D02*
X107000Y-392000D01*
X96000Y-394937D02*
X104063D01*
X107000Y-378000D02*
X118000Y-367000D01*
X107000Y-392000D02*
Y-378000D01*
X101000Y-283000D02*
X110000Y-274000D01*
X98567Y-285433D02*
X101000Y-283000D01*
X94122Y-396815D02*
X96000Y-394937D01*
X94122Y-403500D02*
Y-396815D01*
X53000Y-364000D02*
X73000D01*
X75000Y-366000D01*
Y-369827D02*
Y-366000D01*
X47252Y-373961D02*
Y-370260D01*
Y-369748D01*
X47500Y-21000D02*
X54000D01*
X47500D02*
X61000Y-7500D01*
X9945Y-40878D02*
X10106D01*
X72000Y-260000D02*
Y-255260D01*
X70740Y-254000D02*
X72000Y-255260D01*
X58763Y-254000D02*
X70740D01*
X58688Y-253925D02*
X58763Y-254000D01*
X56925Y-253925D02*
X58688D01*
X54000Y-251000D02*
X56925Y-253925D01*
X48000Y-251000D02*
X54000D01*
X47252Y-258961D02*
Y-255260D01*
X48000Y-254512D01*
Y-251000D01*
X27588D02*
X48000D01*
X21588Y-257000D02*
X27588Y-251000D01*
X21000Y-257000D02*
X21588D01*
X20000Y-238000D02*
X30000D01*
X15000Y-233000D02*
X20000Y-238000D01*
X93319Y-285433D02*
X98567D01*
X110000Y-274000D02*
Y-264000D01*
X119000Y-255000D01*
X87693Y-291059D02*
X93319Y-285433D01*
X86441Y-291059D02*
X87693D01*
X15000Y-233000D02*
Y-225000D01*
X21000Y-219000D01*
X24000D01*
X100500Y-154500D02*
X115000Y-140000D01*
X116000D01*
X96437Y-80937D02*
X107500Y-92000D01*
X119000D01*
X22000Y-127000D02*
X30000D01*
X17000Y-122000D02*
X22000Y-127000D01*
Y-142000D02*
X44000D01*
X17024Y-98024D02*
Y-87000D01*
X91252Y-179437D02*
Y-172000D01*
X54000Y-37500D02*
Y-21000D01*
X47500Y-44000D02*
X54000Y-37500D01*
X61000Y-7500D02*
X66500D01*
X30500Y-35000D02*
X41445Y-45945D01*
X15500Y-35000D02*
X30500D01*
X12378Y-38122D02*
X15500Y-35000D01*
X12378Y-38606D02*
Y-38122D01*
X10106Y-40878D02*
X12378Y-38606D01*
X9945Y-45697D02*
Y-40878D01*
X17024Y-72280D02*
X19000Y-70303D01*
X17024Y-87000D02*
Y-72280D01*
X32000Y-78500D02*
X50500D01*
X96437Y-80937D02*
Y-76000D01*
X50500Y-78500D02*
Y-53500D01*
Y-84500D02*
Y-78500D01*
X24500Y-83000D02*
X25500D01*
X26500Y-84000D01*
X32000Y-78500D01*
X50750Y-84250D02*
X56500Y-90000D01*
X128500Y-45000D02*
X128563Y-45063D01*
X128500Y-45000D02*
Y-35000D01*
X97500Y-31000D02*
X99500Y-29000D01*
X115500D01*
X121500Y-35000D01*
X96437Y-76000D02*
X97500Y-74937D01*
X74500Y-44000D02*
X84646D01*
X74500Y-54000D02*
X75500Y-55000D01*
X84646Y-44000D02*
X90000Y-38646D01*
X19000Y-70303D02*
Y-45697D01*
X74500Y-54000D02*
Y-44000D01*
X47500D02*
X74500D01*
X41445Y-50055D02*
Y-45945D01*
Y-53500D02*
Y-50055D01*
X47500Y-44000D01*
X44000Y-142000D02*
X46020Y-144020D01*
X91252Y-172000D02*
X97500D01*
X50000Y-142000D02*
X53000Y-139000D01*
X71748D01*
X72760Y-140012D01*
Y-144827D02*
Y-140012D01*
X97500Y-172000D02*
X100500Y-169000D01*
Y-154500D01*
X44000Y-142000D02*
X50000D01*
X17000Y-122000D02*
Y-115000D01*
X25000Y-107000D01*
Y-106000D01*
X17024Y-98024D02*
X25000Y-106000D01*
X47870Y-486961D02*
Y-483260D01*
Y-483130D01*
X53000Y-478000D01*
X52000Y-479000D02*
X53000Y-478000D01*
X51000D02*
X52000Y-479000D01*
X19000Y-478000D02*
X51000D01*
X53000D02*
X71878D01*
X72760Y-478882D01*
Y-483260D02*
Y-478882D01*
X93122Y-514500D02*
X96000Y-511622D01*
Y-505937D01*
X105740D01*
X122000Y-489677D01*
Y-483260D01*
X97500Y-74937D02*
Y-31000D01*
X121500Y-35000D02*
X128500D01*
D67*
X33937Y-455000D02*
D03*
X23937Y-444000D02*
D03*
X89000Y-454000D02*
D03*
X53000Y-444000D02*
D03*
X99000Y-465000D02*
D03*
X127000D02*
D03*
X53000Y-455000D02*
D03*
X117000Y-454000D02*
D03*
X8000Y-473000D02*
D03*
X132000Y-504000D02*
D03*
X8000Y-498000D02*
D03*
Y-523000D02*
D03*
X33937Y-343000D02*
D03*
X23937Y-332000D02*
D03*
X90500Y-342000D02*
D03*
X55063Y-332000D02*
D03*
X100500Y-353000D02*
D03*
X126000D02*
D03*
X55000Y-343000D02*
D03*
X116000Y-342000D02*
D03*
X9000Y-361000D02*
D03*
X132500Y-393000D02*
D03*
X9000Y-386000D02*
D03*
Y-411000D02*
D03*
X115000Y-117000D02*
D03*
X125000Y-129000D02*
D03*
X90000Y-117000D02*
D03*
X9000Y-137000D02*
D03*
X56500Y-108000D02*
D03*
X35000Y-119000D02*
D03*
X66500Y-7500D02*
D03*
X9000Y-162000D02*
D03*
X132500Y-170000D02*
D03*
X9000Y-186937D02*
D03*
X56500Y-119000D02*
D03*
X25000Y-107000D02*
D03*
X117000Y-229000D02*
D03*
X55000Y-231000D02*
D03*
X90000Y-229000D02*
D03*
X55000Y-220000D02*
D03*
X24000Y-219000D02*
D03*
X34000Y-230000D02*
D03*
X127000Y-241000D02*
D03*
X100000D02*
D03*
Y-129000D02*
D03*
X9000Y-299000D02*
D03*
Y-274000D02*
D03*
X133000Y-275874D02*
D03*
X9000Y-249000D02*
D03*
D68*
X23937Y-455000D02*
D03*
X33937Y-444000D02*
D03*
X99000Y-454000D02*
D03*
X63000Y-444000D02*
D03*
X89000Y-465000D02*
D03*
X117000D02*
D03*
X63000Y-455000D02*
D03*
X127000Y-454000D02*
D03*
X23937Y-343000D02*
D03*
X33937Y-332000D02*
D03*
X100500Y-342000D02*
D03*
X65063Y-332000D02*
D03*
X90500Y-353000D02*
D03*
X116000D02*
D03*
X65000Y-343000D02*
D03*
X126000Y-342000D02*
D03*
X125000Y-117000D02*
D03*
X115000Y-129000D02*
D03*
X100000Y-117000D02*
D03*
X66500Y-108000D02*
D03*
X25000Y-119000D02*
D03*
X76500Y-7500D02*
D03*
X66500Y-119000D02*
D03*
X35000Y-107000D02*
D03*
X127000Y-229000D02*
D03*
X65000Y-231000D02*
D03*
X100000Y-229000D02*
D03*
X65000Y-220000D02*
D03*
X34000Y-219000D02*
D03*
X24000Y-230000D02*
D03*
X117000Y-241000D02*
D03*
X90000D02*
D03*
Y-129000D02*
D03*
D69*
X8000Y-483000D02*
D03*
X132000Y-514000D02*
D03*
X8000Y-508000D02*
D03*
Y-533000D02*
D03*
X9000Y-371000D02*
D03*
X132500Y-403000D02*
D03*
X9000Y-396000D02*
D03*
Y-421000D02*
D03*
Y-147000D02*
D03*
Y-172000D02*
D03*
X132500Y-180000D02*
D03*
X9000Y-196937D02*
D03*
Y-309000D02*
D03*
Y-284000D02*
D03*
X133000Y-285874D02*
D03*
X9000Y-259000D02*
D03*
D70*
X11811Y-11811D02*
D03*
X129921D02*
D03*
D71*
X28000Y-350000D02*
D03*
X20000Y-368000D02*
D03*
X107000Y-392000D02*
D03*
X118000Y-367000D02*
D03*
X101000Y-283000D02*
D03*
X21000Y-257000D02*
D03*
X30000Y-238000D02*
D03*
X119000Y-255000D02*
D03*
X116000Y-140000D02*
D03*
X119000Y-92000D02*
D03*
X30000Y-127000D02*
D03*
X21000Y-143000D02*
D03*
X24500Y-83000D02*
D03*
X19000Y-478000D02*
D03*
X122000Y-483260D02*
D03*
D72*
X79000Y-375000D02*
D03*
X51000Y-407000D02*
D03*
X86000Y-393000D02*
D03*
X99000Y-418000D02*
D03*
X55063Y-359000D02*
D03*
X61000Y-368000D02*
D03*
X32000Y-370260D02*
D03*
X62000Y-259000D02*
D03*
Y-249173D02*
D03*
X92000Y-307000D02*
D03*
X82000Y-279000D02*
D03*
X75000Y-265000D02*
D03*
X41445Y-295000D02*
D03*
X31890Y-255260D02*
D03*
X31000Y-200000D02*
D03*
X57437Y-196000D02*
D03*
X55000Y-133000D02*
D03*
X59000Y-144000D02*
D03*
X137795Y-65144D02*
D03*
X8500Y-37000D02*
D03*
X72500Y-31000D02*
D03*
X118000Y-14500D02*
D03*
X18500Y-23500D02*
D03*
X91000Y-161000D02*
D03*
X73500Y-89000D02*
D03*
X28055Y-40000D02*
D03*
X59500Y-33000D02*
D03*
X60000Y-48000D02*
D03*
X129500Y-18000D02*
D03*
X132500Y-90000D02*
D03*
X84500Y-72000D02*
D03*
X3000Y-92000D02*
D03*
X77000Y-149260D02*
D03*
X48000Y-183000D02*
D03*
X97000Y-199000D02*
D03*
X84500Y-170000D02*
D03*
X32000Y-483000D02*
D03*
X48000Y-521000D02*
D03*
X77000Y-488000D02*
D03*
X88563Y-504000D02*
D03*
X101000Y-528000D02*
D03*
X60000Y-472433D02*
D03*
Y-483000D02*
D03*
D73*
X80441Y-408441D02*
D03*
X85559D02*
D03*
X80441Y-413559D02*
D03*
X85559D02*
D03*
X80441Y-418677D02*
D03*
X85559D02*
D03*
X80441Y-403323D02*
D03*
X85559D02*
D03*
X72760Y-296000D02*
D03*
X77878D02*
D03*
X72760Y-301118D02*
D03*
X77878D02*
D03*
X72760Y-306236D02*
D03*
X77878D02*
D03*
X72760Y-290882D02*
D03*
X77878D02*
D03*
X84559Y-179323D02*
D03*
X79441D02*
D03*
X84559Y-194677D02*
D03*
X79441D02*
D03*
X84559Y-189559D02*
D03*
X79441D02*
D03*
X84559Y-184441D02*
D03*
X79441D02*
D03*
Y-519441D02*
D03*
X84559D02*
D03*
X79441Y-524559D02*
D03*
X84559D02*
D03*
X79441Y-529677D02*
D03*
X84559D02*
D03*
X79441Y-514323D02*
D03*
X84559D02*
D03*
D74*
X31000Y-260000D02*
D03*
X61937Y-309906D02*
D03*
X57000Y-258000D02*
D03*
X41445Y-310000D02*
D03*
X134000D02*
D03*
X99000Y-311000D02*
D03*
X123000Y-286000D02*
D03*
X119000Y-266000D02*
D03*
X100000Y-258000D02*
D03*
X120000Y-304559D02*
D03*
X51000Y-268000D02*
D03*
X93319Y-273000D02*
D03*
X73000Y-244000D02*
D03*
X54063Y-245000D02*
D03*
X18000Y-262000D02*
D03*
X52000Y-313000D02*
D03*
X32000Y-311000D02*
D03*
X16000Y-149000D02*
D03*
X66000Y-198000D02*
D03*
X76000Y-170000D02*
D03*
X114000Y-161000D02*
D03*
X132000Y-140000D02*
D03*
X38000Y-90000D02*
D03*
X128000Y-147000D02*
D03*
X103000Y-141000D02*
D03*
X7000Y-123000D02*
D03*
X45000Y-198000D02*
D03*
X131000Y-199000D02*
D03*
X128563Y-156000D02*
D03*
X118000Y-23500D02*
D03*
X32000Y-153000D02*
D03*
X116000Y-192968D02*
D03*
X48000Y-135000D02*
D03*
X91252Y-143000D02*
D03*
X52000Y-152000D02*
D03*
X73000Y-130000D02*
D03*
X31000Y-535405D02*
D03*
X48000Y-359000D02*
D03*
X31000Y-374000D02*
D03*
X53000Y-377000D02*
D03*
X59000Y-425000D02*
D03*
X30000Y-423000D02*
D03*
X67000Y-419937D02*
D03*
X92000Y-385000D02*
D03*
X125000Y-419000D02*
D03*
X122000Y-382000D02*
D03*
X96000Y-371000D02*
D03*
X73000Y-468000D02*
D03*
X53650Y-471000D02*
D03*
X23000Y-483000D02*
D03*
X32000Y-487063D02*
D03*
X53000Y-493000D02*
D03*
X62382Y-536000D02*
D03*
X66000Y-531000D02*
D03*
X91000Y-496000D02*
D03*
X133000Y-533000D02*
D03*
X91252Y-482000D02*
D03*
X131000Y-488000D02*
D03*
X129921Y-376000D02*
D03*
X105000Y-479000D02*
D03*
X102000Y-536000D02*
D03*
X73000Y-503000D02*
D03*
X121063Y-519063D02*
D03*
X42063Y-533000D02*
D03*
X19000Y-509000D02*
D03*
X136437Y-433000D02*
D03*
X91252Y-425000D02*
D03*
X118610Y-503000D02*
D03*
X62382Y-357000D02*
D03*
X44000Y-421000D02*
D03*
X75000Y-390000D02*
D03*
X82000Y-159000D02*
D03*
X75740Y-355000D02*
D03*
D75*
X30000Y-148000D02*
D03*
M02*
