G04*
G04 #@! TF.GenerationSoftware,Altium Limited,Altium Designer,22.9.1 (49)*
G04*
G04 Layer_Color=65535*
%FSLAX25Y25*%
%MOIN*%
G70*
G04*
G04 #@! TF.SameCoordinates,E6D2D5AF-3703-4330-9E41-3BAFFAD507BF*
G04*
G04*
G04 #@! TF.FilePolarity,Positive*
G04*
G01*
G75*
%ADD10C,0.00984*%
%ADD11C,0.01575*%
%ADD12C,0.00034*%
%ADD13C,0.00787*%
%ADD14C,0.01968*%
%ADD15C,0.00591*%
%ADD16C,0.01181*%
%ADD17R,0.10039X0.02165*%
%ADD18C,0.01000*%
D10*
X74331Y-35059D02*
G03*
X74331Y-35059I-492J0D01*
G01*
X99240Y-495653D02*
G03*
X99240Y-495653I-492J0D01*
G01*
X4256Y-321000D02*
G03*
X4256Y-321000I-492J0D01*
G01*
X82240Y-418153D02*
G03*
X82240Y-418153I-492J0D01*
G01*
X101240Y-378153D02*
G03*
X101240Y-378153I-492J0D01*
G01*
X4756Y-412000D02*
G03*
X4756Y-412000I-492J0D01*
G01*
X3756Y-384500D02*
G03*
X3756Y-384500I-492J0D01*
G01*
X147303Y-418000D02*
G03*
X147303Y-418000I-492J0D01*
G01*
X89654Y-372000D02*
G03*
X89654Y-372000I-492J0D01*
G01*
X43205Y-379815D02*
G03*
X43205Y-379815I-492J0D01*
G01*
X4256Y-265173D02*
G03*
X4256Y-265173I-492J0D01*
G01*
Y-292500D02*
G03*
X4256Y-292500I-492J0D01*
G01*
X3256Y-531000D02*
G03*
X3256Y-531000I-492J0D01*
G01*
Y-561000D02*
G03*
X3256Y-561000I-492J0D01*
G01*
X3181Y-502000D02*
G03*
X3181Y-502000I-492J0D01*
G01*
X4756Y-439500D02*
G03*
X4756Y-439500I-492J0D01*
G01*
X148799Y-292059D02*
G03*
X148799Y-292059I-492J0D01*
G01*
X144303Y-541063D02*
G03*
X144303Y-541063I-492J0D01*
G01*
X42945Y-257815D02*
G03*
X42945Y-257815I-492J0D01*
G01*
X97055Y-260154D02*
G03*
X97055Y-260154I-492J0D01*
G01*
X86394Y-255173D02*
G03*
X86394Y-255173I-492J0D01*
G01*
X73374Y-293713D02*
G03*
X73374Y-293713I-492J0D01*
G01*
X80240Y-536154D02*
G03*
X80240Y-536154I-492J0D01*
G01*
X86914Y-490433D02*
G03*
X86914Y-490433I-492J0D01*
G01*
X43323Y-497815D02*
G03*
X43323Y-497815I-492J0D01*
G01*
X100815Y-140154D02*
G03*
X100815Y-140154I-492J0D01*
G01*
X3256Y-202969D02*
G03*
X3256Y-202969I-492J0D01*
G01*
X147878Y-185000D02*
G03*
X147878Y-185000I-492J0D01*
G01*
X3256Y-175819D02*
G03*
X3256Y-175819I-492J0D01*
G01*
X80815Y-176154D02*
G03*
X80815Y-176154I-492J0D01*
G01*
X43260Y-145815D02*
G03*
X43260Y-145815I-492J0D01*
G01*
X3256Y-149000D02*
G03*
X3256Y-149000I-492J0D01*
G01*
X32185Y-28697D02*
G03*
X32185Y-28697I-492J0D01*
G01*
X62339Y-28189D02*
G03*
X62339Y-28189I-492J0D01*
G01*
X87914Y-134000D02*
G03*
X87914Y-134000I-492J0D01*
G01*
X73887Y-586477D02*
Y-583328D01*
X75462D01*
X75987Y-583853D01*
Y-584902D01*
X75462Y-585427D01*
X73887D01*
X74937D02*
X75987Y-586477D01*
X77036D02*
X78086D01*
X77561D01*
Y-584377D01*
X77036D01*
X81234Y-586477D02*
X80185D01*
X79660Y-585952D01*
Y-584902D01*
X80185Y-584377D01*
X81234D01*
X81759Y-584902D01*
Y-585427D01*
X79660D01*
X82809Y-586477D02*
X84383D01*
X84908Y-585952D01*
X84383Y-585427D01*
X83333D01*
X82809Y-584902D01*
X83333Y-584377D01*
X84908D01*
X90155Y-587526D02*
X90680D01*
X91205Y-587001D01*
Y-584377D01*
X89631D01*
X89106Y-584902D01*
Y-585952D01*
X89631Y-586477D01*
X91205D01*
X92254Y-584377D02*
Y-586477D01*
Y-585427D01*
X92779Y-584902D01*
X93304Y-584377D01*
X93829D01*
X95928Y-586477D02*
X96977D01*
X97502Y-585952D01*
Y-584902D01*
X96977Y-584377D01*
X95928D01*
X95403Y-584902D01*
Y-585952D01*
X95928Y-586477D01*
X98551Y-584377D02*
Y-585952D01*
X99076Y-586477D01*
X100651D01*
Y-584377D01*
X101700Y-587526D02*
Y-584377D01*
X103274D01*
X103799Y-584902D01*
Y-585952D01*
X103274Y-586477D01*
X101700D01*
X75677Y-581023D02*
X74628D01*
X74103Y-580499D01*
Y-579449D01*
X74628Y-578924D01*
X75677D01*
X76202Y-579449D01*
Y-579974D01*
X74103D01*
X77251Y-578924D02*
Y-580499D01*
X77776Y-581023D01*
X78301Y-580499D01*
X78826Y-581023D01*
X79351Y-580499D01*
Y-578924D01*
X83549Y-581023D02*
X85648Y-578924D01*
X91945D02*
X90371D01*
X89846Y-579449D01*
Y-580499D01*
X90371Y-581023D01*
X91945D01*
X92994D02*
Y-577875D01*
Y-579974D02*
X94569Y-578924D01*
X92994Y-579974D02*
X94569Y-581023D01*
X99292D02*
X101391Y-578924D01*
X107688Y-581023D02*
X105589D01*
X107688Y-578924D01*
Y-578399D01*
X107163Y-577875D01*
X106114D01*
X105589Y-578399D01*
X108737D02*
X109262Y-577875D01*
X110312D01*
X110837Y-578399D01*
Y-580499D01*
X110312Y-581023D01*
X109262D01*
X108737Y-580499D01*
Y-578399D01*
X113985Y-581023D02*
X111886D01*
X113985Y-578924D01*
Y-578399D01*
X113460Y-577875D01*
X112411D01*
X111886Y-578399D01*
X117134Y-581023D02*
X115035D01*
X117134Y-578924D01*
Y-578399D01*
X116609Y-577875D01*
X115559D01*
X115035Y-578399D01*
X118183Y-581548D02*
X120282D01*
X121332Y-581023D02*
X122381D01*
X121857D01*
Y-577875D01*
X121332Y-578399D01*
X123956D02*
X124480Y-577875D01*
X125530D01*
X126055Y-578399D01*
Y-580499D01*
X125530Y-581023D01*
X124480D01*
X123956Y-580499D01*
Y-578399D01*
X73500Y-575500D02*
Y-573401D01*
X74550Y-572351D01*
X75599Y-573401D01*
Y-575500D01*
Y-573926D01*
X73500D01*
X78223Y-572351D02*
X77173D01*
X76649Y-572876D01*
Y-574975D01*
X77173Y-575500D01*
X78223D01*
X78748Y-574975D01*
Y-572876D01*
X78223Y-572351D01*
X79797D02*
X81896D01*
X80847D01*
Y-575500D01*
X85045Y-572351D02*
X82946D01*
Y-573926D01*
X83995D01*
X82946D01*
Y-575500D01*
X89243Y-572351D02*
Y-575500D01*
X90817D01*
X91342Y-574975D01*
Y-574450D01*
Y-573926D01*
X90817Y-573401D01*
X89243D01*
X92916Y-575500D02*
X93966D01*
X94491Y-574975D01*
Y-573926D01*
X93966Y-573401D01*
X92916D01*
X92392Y-573926D01*
Y-574975D01*
X92916Y-575500D01*
X96065Y-573401D02*
X97114D01*
X97639Y-573926D01*
Y-575500D01*
X96065D01*
X95540Y-574975D01*
X96065Y-574450D01*
X97639D01*
X98689Y-573401D02*
Y-575500D01*
Y-574450D01*
X99213Y-573926D01*
X99738Y-573401D01*
X100263D01*
X103936Y-572351D02*
Y-575500D01*
X102362D01*
X101837Y-574975D01*
Y-573926D01*
X102362Y-573401D01*
X103936D01*
X108134Y-572351D02*
Y-574450D01*
X109184Y-575500D01*
X110233Y-574450D01*
Y-572351D01*
X113382Y-575500D02*
X111283D01*
X113382Y-573401D01*
Y-572876D01*
X112857Y-572351D01*
X111808D01*
X111283Y-572876D01*
D11*
X108000Y-499807D02*
G03*
X108000Y-499807I-787J0D01*
G01*
X91000Y-422307D02*
G03*
X91000Y-422307I-787J0D01*
G01*
X110000Y-382307D02*
G03*
X110000Y-382307I-787J0D01*
G01*
X105815Y-264307D02*
G03*
X105815Y-264307I-787J0D01*
G01*
X82134Y-297866D02*
G03*
X82134Y-297866I-787J0D01*
G01*
X89000Y-540307D02*
G03*
X89000Y-540307I-787J0D01*
G01*
X109575Y-144307D02*
G03*
X109575Y-144307I-787J0D01*
G01*
X89575Y-180307D02*
G03*
X89575Y-180307I-787J0D01*
G01*
D12*
X59957Y-589333D02*
X60367D01*
X59821Y-589299D02*
X60469D01*
X59753Y-589265D02*
X60537D01*
X59684Y-589231D02*
X60605D01*
X59650Y-589196D02*
X60674D01*
X59616Y-589162D02*
X60708D01*
X59548Y-589128D02*
X60742D01*
X59514Y-589094D02*
X60776D01*
X59480Y-589060D02*
X60810D01*
X59480Y-589026D02*
X60844D01*
X59446Y-588992D02*
X60878D01*
X59412Y-588958D02*
X60878D01*
X59412Y-588924D02*
X60912D01*
X59377Y-588890D02*
X60912D01*
X59377Y-588855D02*
X60947D01*
X59343Y-588821D02*
X60947D01*
X59343Y-588787D02*
X60981D01*
X59309Y-588753D02*
X60981D01*
X59309Y-588719D02*
X60981D01*
X59309Y-588685D02*
X60981D01*
X59309Y-588651D02*
X61015D01*
X59309Y-588617D02*
X61015D01*
X59309Y-588583D02*
X61015D01*
X59275Y-588548D02*
X61015D01*
X59275Y-588514D02*
X61015D01*
X59275Y-588480D02*
X61015D01*
X59275Y-588446D02*
X61015D01*
X59275Y-588412D02*
X61015D01*
X59309Y-588378D02*
X61015D01*
X59309Y-588344D02*
X61015D01*
X59309Y-588310D02*
X61015D01*
X59309Y-588275D02*
X60981D01*
X59309Y-588241D02*
X60981D01*
X62004Y-588207D02*
X62311D01*
X59343D02*
X60981D01*
X57979D02*
X58286D01*
X61868Y-588173D02*
X62448D01*
X59343D02*
X60947D01*
X57842D02*
X58422D01*
X61799Y-588139D02*
X62550D01*
X59343D02*
X60947D01*
X57774D02*
X58525D01*
X61731Y-588105D02*
X62618D01*
X59377D02*
X60947D01*
X57706D02*
X58559D01*
X61663Y-588071D02*
X62652D01*
X59377D02*
X60912D01*
X57638D02*
X58627D01*
X61629Y-588037D02*
X62720D01*
X59412D02*
X60878D01*
X57604D02*
X58661D01*
X61595Y-588002D02*
X62754D01*
X59446D02*
X60878D01*
X57569D02*
X58729D01*
X61561Y-587968D02*
X62789D01*
X59446D02*
X60844D01*
X57501D02*
X58763D01*
X61527Y-587934D02*
X62823D01*
X59480D02*
X60810D01*
X57501D02*
X58797D01*
X61492Y-587900D02*
X62857D01*
X59514D02*
X60776D01*
X57467D02*
X58797D01*
X61458Y-587866D02*
X62857D01*
X59548D02*
X60742D01*
X57433D02*
X58832D01*
X61458Y-587832D02*
X62891D01*
X59582D02*
X60708D01*
X57399D02*
X58866D01*
X61424Y-587798D02*
X62925D01*
X59616D02*
X60674D01*
X57399D02*
X58866D01*
X61390Y-587764D02*
X62925D01*
X59684D02*
X60640D01*
X57365D02*
X58900D01*
X61390Y-587730D02*
X62959D01*
X59719D02*
X60571D01*
X57365D02*
X58934D01*
X61356Y-587696D02*
X62959D01*
X59821D02*
X60503D01*
X57331D02*
X58934D01*
X61356Y-587661D02*
X62993D01*
X59889D02*
X60401D01*
X57331D02*
X58934D01*
X61356Y-587627D02*
X62993D01*
X57297D02*
X58968D01*
X61322Y-587593D02*
X62993D01*
X57297D02*
X58968D01*
X61322Y-587559D02*
X63027D01*
X57297D02*
X58968D01*
X61322Y-587525D02*
X63027D01*
X57297D02*
X58968D01*
X61322Y-587491D02*
X63027D01*
X57297D02*
X59002D01*
X61322Y-587457D02*
X63027D01*
X57262D02*
X59002D01*
X61322Y-587423D02*
X63027D01*
X57262D02*
X59002D01*
X61322Y-587389D02*
X63027D01*
X57262D02*
X59002D01*
X61322Y-587354D02*
X63027D01*
X57262D02*
X59002D01*
X61322Y-587320D02*
X63027D01*
X57262D02*
X59002D01*
X61322Y-587286D02*
X63027D01*
X57262D02*
X59002D01*
X61322Y-587252D02*
X63027D01*
X57262D02*
X59002D01*
X61322Y-587218D02*
X63027D01*
X57297D02*
X59002D01*
X61322Y-587184D02*
X63027D01*
X57297D02*
X58968D01*
X61322Y-587150D02*
X63027D01*
X57297D02*
X58968D01*
X61322Y-587116D02*
X62993D01*
X57297D02*
X58968D01*
X64085Y-587081D02*
X64290D01*
X61356D02*
X62993D01*
X60060D02*
X60230D01*
X57297D02*
X58968D01*
X56034D02*
X56205D01*
X63914Y-587047D02*
X64460D01*
X61356D02*
X62993D01*
X59889D02*
X60435D01*
X57331D02*
X58934D01*
X55864D02*
X56375D01*
X63846Y-587013D02*
X64528D01*
X61356D02*
X62959D01*
X59787D02*
X60503D01*
X57331D02*
X58934D01*
X55761D02*
X56478D01*
X63778Y-586979D02*
X64597D01*
X61390D02*
X62959D01*
X59719D02*
X60571D01*
X57365D02*
X58900D01*
X55693D02*
X56546D01*
X63710Y-586945D02*
X64665D01*
X61390D02*
X62925D01*
X59684D02*
X60640D01*
X57365D02*
X58900D01*
X55625D02*
X56614D01*
X63642Y-586911D02*
X64733D01*
X61424D02*
X62925D01*
X59616D02*
X60674D01*
X57399D02*
X58866D01*
X55591D02*
X56648D01*
X63607Y-586877D02*
X64767D01*
X61458D02*
X62891D01*
X59582D02*
X60708D01*
X57399D02*
X58866D01*
X55557D02*
X56682D01*
X63573Y-586843D02*
X64801D01*
X61458D02*
X62857D01*
X59548D02*
X60776D01*
X57433D02*
X58832D01*
X55523D02*
X56717D01*
X63539Y-586809D02*
X64835D01*
X61492D02*
X62857D01*
X59514D02*
X60810D01*
X57467D02*
X58797D01*
X55489D02*
X56751D01*
X63505Y-586774D02*
X64870D01*
X61527D02*
X62823D01*
X59480D02*
X60810D01*
X57501D02*
X58763D01*
X55454D02*
X56785D01*
X63505Y-586740D02*
X64870D01*
X61561D02*
X62789D01*
X59446D02*
X60844D01*
X57535D02*
X58763D01*
X55420D02*
X56819D01*
X63471Y-586706D02*
X64904D01*
X61595D02*
X62754D01*
X59446D02*
X60878D01*
X57569D02*
X58695D01*
X55386D02*
X56853D01*
X63437Y-586672D02*
X64938D01*
X61629D02*
X62720D01*
X59412D02*
X60878D01*
X57604D02*
X58661D01*
X55386D02*
X56853D01*
X63437Y-586638D02*
X64938D01*
X61697D02*
X62652D01*
X59377D02*
X60912D01*
X57638D02*
X58627D01*
X55352D02*
X56887D01*
X63403Y-586604D02*
X64972D01*
X61731D02*
X62618D01*
X59377D02*
X60947D01*
X57706D02*
X58559D01*
X55352D02*
X56887D01*
X63403Y-586570D02*
X64972D01*
X61799D02*
X62550D01*
X59343D02*
X60947D01*
X57774D02*
X58490D01*
X55318D02*
X56921D01*
X63369Y-586536D02*
X65006D01*
X61902D02*
X62448D01*
X59343D02*
X60947D01*
X57842D02*
X58422D01*
X55318D02*
X56921D01*
X63369Y-586502D02*
X65006D01*
X62038D02*
X62311D01*
X59343D02*
X60981D01*
X58013D02*
X58252D01*
X55284D02*
X56921D01*
X63369Y-586468D02*
X65006D01*
X59309D02*
X60981D01*
X55284D02*
X56955D01*
X63335Y-586433D02*
X65040D01*
X59309D02*
X60981D01*
X55284D02*
X56955D01*
X63335Y-586399D02*
X65040D01*
X59309D02*
X61015D01*
X55284D02*
X56955D01*
X63335Y-586365D02*
X65040D01*
X59309D02*
X61015D01*
X55250D02*
X56955D01*
X63335Y-586331D02*
X65040D01*
X59309D02*
X61015D01*
X55250D02*
X56989D01*
X63335Y-586297D02*
X65040D01*
X59275D02*
X61015D01*
X55250D02*
X56989D01*
X63335Y-586263D02*
X65040D01*
X59275D02*
X61015D01*
X55250D02*
X56989D01*
X63335Y-586229D02*
X65040D01*
X59275D02*
X61015D01*
X55250D02*
X56989D01*
X63335Y-586195D02*
X65040D01*
X59275D02*
X61015D01*
X55250D02*
X56989D01*
X63335Y-586160D02*
X65040D01*
X59275D02*
X61015D01*
X55250D02*
X56989D01*
X63335Y-586126D02*
X65040D01*
X59309D02*
X61015D01*
X55250D02*
X56989D01*
X63335Y-586092D02*
X65040D01*
X59309D02*
X61015D01*
X55250D02*
X56955D01*
X63335Y-586058D02*
X65040D01*
X59309D02*
X61015D01*
X55284D02*
X56955D01*
X63335Y-586024D02*
X65040D01*
X59309D02*
X60981D01*
X55284D02*
X56955D01*
X63369Y-585990D02*
X65006D01*
X59309D02*
X60981D01*
X55284D02*
X56955D01*
X63369Y-585956D02*
X65006D01*
X59343D02*
X60981D01*
X55284D02*
X56955D01*
X65961Y-585922D02*
X66439D01*
X63369D02*
X65006D01*
X61936D02*
X62413D01*
X59343D02*
X60981D01*
X57911D02*
X58354D01*
X55318D02*
X56921D01*
X53851D02*
X54329D01*
X65859Y-585887D02*
X66541D01*
X63403D02*
X64972D01*
X61834D02*
X62516D01*
X59343D02*
X60947D01*
X57808D02*
X58456D01*
X55318D02*
X56921D01*
X53749D02*
X54431D01*
X65791Y-585853D02*
X66609D01*
X63403D02*
X64972D01*
X61765D02*
X62584D01*
X59377D02*
X60947D01*
X57740D02*
X58559D01*
X55318D02*
X56887D01*
X53680D02*
X54499D01*
X65722Y-585819D02*
X66677D01*
X63403D02*
X64972D01*
X61697D02*
X62652D01*
X59377D02*
X60912D01*
X57672D02*
X58593D01*
X55352D02*
X56887D01*
X53646D02*
X54567D01*
X65688Y-585785D02*
X66712D01*
X63437D02*
X64938D01*
X61663D02*
X62686D01*
X59412D02*
X60912D01*
X57604D02*
X58661D01*
X55352D02*
X56853D01*
X53578D02*
X54602D01*
X65654Y-585751D02*
X66780D01*
X63471D02*
X64904D01*
X61595D02*
X62720D01*
X59412D02*
X60878D01*
X57569D02*
X58695D01*
X55386D02*
X56853D01*
X53544D02*
X54670D01*
X65620Y-585717D02*
X66814D01*
X63471D02*
X64904D01*
X61561D02*
X62754D01*
X59446D02*
X60844D01*
X57535D02*
X58729D01*
X55420D02*
X56819D01*
X53510D02*
X54704D01*
X65586Y-585683D02*
X66848D01*
X63505D02*
X64870D01*
X61527D02*
X62789D01*
X59480D02*
X60844D01*
X57501D02*
X58763D01*
X55420D02*
X56785D01*
X53476D02*
X54738D01*
X65552Y-585649D02*
X66882D01*
X63539D02*
X64835D01*
X61492D02*
X62823D01*
X59514D02*
X60810D01*
X57467D02*
X58797D01*
X55454D02*
X56785D01*
X53442D02*
X54772D01*
X65518Y-585615D02*
X66882D01*
X63573D02*
X64801D01*
X61492D02*
X62857D01*
X59514D02*
X60776D01*
X57433D02*
X58832D01*
X55489D02*
X56751D01*
X53408D02*
X54806D01*
X65484Y-585580D02*
X66916D01*
X63607D02*
X64767D01*
X61458D02*
X62891D01*
X59582D02*
X60742D01*
X57433D02*
X58866D01*
X55523D02*
X56717D01*
X53373D02*
X54806D01*
X65484Y-585546D02*
X66951D01*
X63642D02*
X64733D01*
X61424D02*
X62891D01*
X59616D02*
X60708D01*
X57399D02*
X58866D01*
X55557D02*
X56648D01*
X53373D02*
X54840D01*
X65450Y-585512D02*
X66951D01*
X63676D02*
X64699D01*
X61424D02*
X62925D01*
X59650D02*
X60640D01*
X57365D02*
X58900D01*
X55625D02*
X56614D01*
X53339D02*
X54840D01*
X65415Y-585478D02*
X66985D01*
X63744D02*
X64631D01*
X61390D02*
X62959D01*
X59719D02*
X60605D01*
X57365D02*
X58900D01*
X55659D02*
X56580D01*
X53339D02*
X54874D01*
X65415Y-585444D02*
X66985D01*
X63812D02*
X64562D01*
X61390D02*
X62959D01*
X59753D02*
X60537D01*
X57331D02*
X58934D01*
X55727D02*
X56512D01*
X53305D02*
X54874D01*
X65415Y-585410D02*
X67019D01*
X63880D02*
X64494D01*
X61356D02*
X62959D01*
X59855D02*
X60469D01*
X57331D02*
X58934D01*
X55796D02*
X56410D01*
X53305D02*
X54909D01*
X65381Y-585376D02*
X67019D01*
X64017D02*
X64358D01*
X61356D02*
X62993D01*
X59957D02*
X60333D01*
X57331D02*
X58968D01*
X55932D02*
X56307D01*
X53271D02*
X54909D01*
X65381Y-585342D02*
X67019D01*
X61356D02*
X62993D01*
X57297D02*
X58968D01*
X53271D02*
X54943D01*
X65381Y-585308D02*
X67053D01*
X61322D02*
X62993D01*
X57297D02*
X58968D01*
X53271D02*
X54943D01*
X65347Y-585274D02*
X67053D01*
X61322D02*
X63027D01*
X57297D02*
X58968D01*
X53237D02*
X54943D01*
X65347Y-585239D02*
X67053D01*
X61322D02*
X63027D01*
X57297D02*
X59002D01*
X53237D02*
X54943D01*
X65347Y-585205D02*
X67053D01*
X61322D02*
X63027D01*
X57262D02*
X59002D01*
X53237D02*
X54943D01*
X65347Y-585171D02*
X67053D01*
X61322D02*
X63027D01*
X57262D02*
X59002D01*
X53237D02*
X54943D01*
X65347Y-585137D02*
X67053D01*
X61322D02*
X63027D01*
X57262D02*
X59002D01*
X53237D02*
X54977D01*
X65347Y-585103D02*
X67053D01*
X61322D02*
X63027D01*
X57262D02*
X59002D01*
X53237D02*
X54977D01*
X65347Y-585069D02*
X67053D01*
X61322D02*
X63027D01*
X57262D02*
X59002D01*
X53237D02*
X54977D01*
X65347Y-585035D02*
X67053D01*
X61322D02*
X63027D01*
X57262D02*
X59002D01*
X53237D02*
X54977D01*
X65347Y-585001D02*
X67053D01*
X61322D02*
X63027D01*
X57262D02*
X59002D01*
X53237D02*
X54943D01*
X65347Y-584967D02*
X67053D01*
X61322D02*
X63027D01*
X57262D02*
X59002D01*
X53237D02*
X54943D01*
X65347Y-584932D02*
X67053D01*
X61322D02*
X63027D01*
X57297D02*
X59002D01*
X53237D02*
X54943D01*
X65347Y-584898D02*
X67053D01*
X61322D02*
X63027D01*
X57297D02*
X58968D01*
X53237D02*
X54943D01*
X65381Y-584864D02*
X67053D01*
X61322D02*
X62993D01*
X57297D02*
X58968D01*
X53271D02*
X54943D01*
X65381Y-584830D02*
X67019D01*
X61356D02*
X62993D01*
X57297D02*
X58968D01*
X53271D02*
X54943D01*
X68008Y-584796D02*
X68417D01*
X65381D02*
X67019D01*
X63983D02*
X64392D01*
X61356D02*
X62993D01*
X59957D02*
X60367D01*
X57331D02*
X58968D01*
X55932D02*
X56307D01*
X53271D02*
X54909D01*
X51872D02*
X52282D01*
X67906Y-584762D02*
X68554D01*
X65415D02*
X67019D01*
X63880D02*
X64494D01*
X61356D02*
X62959D01*
X59821D02*
X60469D01*
X57331D02*
X58934D01*
X55796D02*
X56444D01*
X53305D02*
X54909D01*
X51770D02*
X52384D01*
X67837Y-584728D02*
X68622D01*
X65415D02*
X66985D01*
X63778D02*
X64597D01*
X61390D02*
X62959D01*
X59753D02*
X60537D01*
X57331D02*
X58934D01*
X55727D02*
X56512D01*
X53305D02*
X54874D01*
X51702D02*
X52486D01*
X67769Y-584694D02*
X68690D01*
X65415D02*
X66985D01*
X63744D02*
X64631D01*
X61390D02*
X62959D01*
X59684D02*
X60605D01*
X57365D02*
X58900D01*
X55659D02*
X56580D01*
X53339D02*
X54874D01*
X51634D02*
X52521D01*
X67701Y-584659D02*
X68724D01*
X65450D02*
X66951D01*
X63676D02*
X64699D01*
X61424D02*
X62925D01*
X59650D02*
X60674D01*
X57365D02*
X58900D01*
X55625D02*
X56614D01*
X53339D02*
X54840D01*
X51565D02*
X52589D01*
X67667Y-584625D02*
X68758D01*
X65484D02*
X66951D01*
X63642D02*
X64733D01*
X61424D02*
X62891D01*
X59616D02*
X60708D01*
X57399D02*
X58866D01*
X55557D02*
X56682D01*
X53373D02*
X54840D01*
X51531D02*
X52623D01*
X67633Y-584591D02*
X68827D01*
X65484D02*
X66916D01*
X63607D02*
X64767D01*
X61458D02*
X62891D01*
X59548D02*
X60742D01*
X57433D02*
X58832D01*
X55523D02*
X56717D01*
X53373D02*
X54806D01*
X51497D02*
X52657D01*
X67599Y-584557D02*
X68861D01*
X65518D02*
X66882D01*
X63573D02*
X64801D01*
X61492D02*
X62857D01*
X59514D02*
X60776D01*
X57433D02*
X58832D01*
X55489D02*
X56751D01*
X53408D02*
X54772D01*
X51463D02*
X52691D01*
X67564Y-584523D02*
X68895D01*
X65552D02*
X66882D01*
X63539D02*
X64835D01*
X61492D02*
X62823D01*
X59480D02*
X60810D01*
X57467D02*
X58797D01*
X55454D02*
X56785D01*
X53442D02*
X54772D01*
X51429D02*
X52725D01*
X67530Y-584489D02*
X68895D01*
X65586D02*
X66848D01*
X63505D02*
X64870D01*
X61527D02*
X62789D01*
X59480D02*
X60844D01*
X57501D02*
X58763D01*
X55420D02*
X56785D01*
X53476D02*
X54738D01*
X51395D02*
X52759D01*
X67496Y-584455D02*
X68929D01*
X65620D02*
X66814D01*
X63471D02*
X64904D01*
X61561D02*
X62754D01*
X59446D02*
X60878D01*
X57535D02*
X58729D01*
X55420D02*
X56819D01*
X53510D02*
X54704D01*
X51361D02*
X52794D01*
X67496Y-584421D02*
X68963D01*
X65654D02*
X66746D01*
X63471D02*
X64904D01*
X61629D02*
X62720D01*
X59412D02*
X60878D01*
X57569D02*
X58695D01*
X55386D02*
X56853D01*
X53544D02*
X54670D01*
X51361D02*
X52828D01*
X67462Y-584386D02*
X68963D01*
X65688D02*
X66712D01*
X63437D02*
X64938D01*
X61663D02*
X62686D01*
X59412D02*
X60912D01*
X57638D02*
X58661D01*
X55352D02*
X56853D01*
X53578D02*
X54602D01*
X51327D02*
X52828D01*
X67462Y-584352D02*
X68997D01*
X65756D02*
X66677D01*
X63403D02*
X64972D01*
X61697D02*
X62618D01*
X59377D02*
X60912D01*
X57672D02*
X58593D01*
X55352D02*
X56887D01*
X53646D02*
X54567D01*
X51327D02*
X52862D01*
X67428Y-584318D02*
X68997D01*
X65791D02*
X66609D01*
X63403D02*
X64972D01*
X61765D02*
X62584D01*
X59377D02*
X60947D01*
X57740D02*
X58525D01*
X55318D02*
X56921D01*
X53680D02*
X54499D01*
X51293D02*
X52862D01*
X67428Y-584284D02*
X69031D01*
X65893D02*
X66541D01*
X63369D02*
X65006D01*
X61834D02*
X62482D01*
X59343D02*
X60947D01*
X57808D02*
X58456D01*
X55318D02*
X56921D01*
X53783D02*
X54431D01*
X51293D02*
X52896D01*
X67394Y-584250D02*
X69031D01*
X65995D02*
X66439D01*
X63369D02*
X65006D01*
X61936D02*
X62379D01*
X59343D02*
X60981D01*
X57911D02*
X58354D01*
X55318D02*
X56921D01*
X53885D02*
X54329D01*
X51258D02*
X52896D01*
X67394Y-584216D02*
X69065D01*
X63369D02*
X65006D01*
X59309D02*
X60981D01*
X55284D02*
X56955D01*
X51258D02*
X52896D01*
X67394Y-584182D02*
X69065D01*
X63369D02*
X65040D01*
X59309D02*
X60981D01*
X55284D02*
X56955D01*
X51258D02*
X52930D01*
X67394Y-584148D02*
X69065D01*
X63335D02*
X65040D01*
X59309D02*
X60981D01*
X55284D02*
X56955D01*
X51224D02*
X52930D01*
X67360Y-584114D02*
X69065D01*
X63335D02*
X65040D01*
X59309D02*
X61015D01*
X55250D02*
X56955D01*
X51224D02*
X52930D01*
X67360Y-584080D02*
X69065D01*
X63335D02*
X65040D01*
X59309D02*
X61015D01*
X55250D02*
X56955D01*
X51224D02*
X52930D01*
X67360Y-584045D02*
X69065D01*
X63335D02*
X65040D01*
X59309D02*
X61015D01*
X55250D02*
X56989D01*
X51224D02*
X52930D01*
X67360Y-584011D02*
X69065D01*
X63335D02*
X65040D01*
X59275D02*
X61015D01*
X55250D02*
X56989D01*
X51224D02*
X52930D01*
X67360Y-583977D02*
X69065D01*
X63335D02*
X65040D01*
X59275D02*
X61015D01*
X55250D02*
X56989D01*
X51224D02*
X52930D01*
X67360Y-583943D02*
X69065D01*
X63335D02*
X65040D01*
X59275D02*
X61015D01*
X55250D02*
X56989D01*
X51224D02*
X52930D01*
X67360Y-583909D02*
X69065D01*
X63335D02*
X65040D01*
X59275D02*
X61015D01*
X55250D02*
X56989D01*
X51224D02*
X52930D01*
X67360Y-583875D02*
X69065D01*
X63335D02*
X65040D01*
X59275D02*
X61015D01*
X55250D02*
X56989D01*
X51224D02*
X52930D01*
X67360Y-583841D02*
X69065D01*
X63335D02*
X65040D01*
X59309D02*
X61015D01*
X55250D02*
X56989D01*
X51224D02*
X52930D01*
X67360Y-583807D02*
X69065D01*
X63335D02*
X65040D01*
X59309D02*
X61015D01*
X55250D02*
X56955D01*
X51224D02*
X52930D01*
X67360Y-583773D02*
X69065D01*
X63335D02*
X65040D01*
X59309D02*
X61015D01*
X55284D02*
X56955D01*
X51224D02*
X52930D01*
X67394Y-583738D02*
X69065D01*
X63335D02*
X65040D01*
X59309D02*
X60981D01*
X55284D02*
X56955D01*
X51258D02*
X52930D01*
X67394Y-583704D02*
X69065D01*
X63369D02*
X65006D01*
X59309D02*
X60981D01*
X55284D02*
X56955D01*
X51258D02*
X52896D01*
X67394Y-583670D02*
X69031D01*
X66063D02*
X66370D01*
X63369D02*
X65006D01*
X62004D02*
X62311D01*
X59343D02*
X60981D01*
X57979D02*
X58286D01*
X55284D02*
X56921D01*
X53953D02*
X54260D01*
X51258D02*
X52896D01*
X67428Y-583636D02*
X69031D01*
X65927D02*
X66507D01*
X63369D02*
X65006D01*
X61868D02*
X62448D01*
X59343D02*
X60947D01*
X57842D02*
X58422D01*
X55318D02*
X56921D01*
X53817D02*
X54397D01*
X51258D02*
X52896D01*
X67428Y-583602D02*
X69031D01*
X65825D02*
X66575D01*
X63403D02*
X64972D01*
X61799D02*
X62550D01*
X59343D02*
X60947D01*
X57774D02*
X58525D01*
X55318D02*
X56921D01*
X53715D02*
X54465D01*
X51293D02*
X52862D01*
X67428Y-583568D02*
X68997D01*
X65756D02*
X66643D01*
X63403D02*
X64972D01*
X61731D02*
X62618D01*
X59377D02*
X60947D01*
X57706D02*
X58559D01*
X55352D02*
X56887D01*
X53646D02*
X54533D01*
X51293D02*
X52862D01*
X67462Y-583534D02*
X68997D01*
X65722D02*
X66712D01*
X63437D02*
X64938D01*
X61663D02*
X62652D01*
X59377D02*
X60912D01*
X57638D02*
X58627D01*
X55352D02*
X56887D01*
X53612D02*
X54602D01*
X51327D02*
X52828D01*
X67496Y-583500D02*
X68963D01*
X65654D02*
X66746D01*
X63437D02*
X64938D01*
X61629D02*
X62720D01*
X59412D02*
X60878D01*
X57604D02*
X58661D01*
X55386D02*
X56853D01*
X53544D02*
X54636D01*
X51327D02*
X52828D01*
X67496Y-583465D02*
X68929D01*
X65620D02*
X66780D01*
X63471D02*
X64904D01*
X61595D02*
X62754D01*
X59446D02*
X60878D01*
X57569D02*
X58729D01*
X55386D02*
X56819D01*
X53510D02*
X54670D01*
X51361D02*
X52794D01*
X67530Y-583431D02*
X68929D01*
X65586D02*
X66814D01*
X63505D02*
X64870D01*
X61561D02*
X62789D01*
X59446D02*
X60844D01*
X57501D02*
X58763D01*
X55420D02*
X56819D01*
X53476D02*
X54704D01*
X51395D02*
X52759D01*
X67564Y-583397D02*
X68895D01*
X65552D02*
X66848D01*
X63505D02*
X64870D01*
X61527D02*
X62823D01*
X59480D02*
X60810D01*
X57501D02*
X58797D01*
X55454D02*
X56785D01*
X53442D02*
X54738D01*
X51429D02*
X52759D01*
X67599Y-583363D02*
X68861D01*
X65518D02*
X66882D01*
X63539D02*
X64835D01*
X61492D02*
X62857D01*
X59514D02*
X60776D01*
X57467D02*
X58797D01*
X55489D02*
X56751D01*
X53408D02*
X54772D01*
X51429D02*
X52725D01*
X67633Y-583329D02*
X68827D01*
X65518D02*
X66916D01*
X63573D02*
X64801D01*
X61458D02*
X62857D01*
X59548D02*
X60742D01*
X57433D02*
X58832D01*
X55523D02*
X56717D01*
X53408D02*
X54806D01*
X51463D02*
X52691D01*
X67667Y-583295D02*
X68793D01*
X65484D02*
X66916D01*
X63607D02*
X64767D01*
X61458D02*
X62891D01*
X59582D02*
X60708D01*
X57399D02*
X58866D01*
X55557D02*
X56682D01*
X53373D02*
X54840D01*
X51497D02*
X52657D01*
X67701Y-583261D02*
X68758D01*
X65450D02*
X66951D01*
X63676D02*
X64699D01*
X61424D02*
X62925D01*
X59616D02*
X60674D01*
X57399D02*
X58866D01*
X55591D02*
X56648D01*
X53339D02*
X54840D01*
X51565D02*
X52623D01*
X67735Y-583227D02*
X68690D01*
X65450D02*
X66985D01*
X63710D02*
X64665D01*
X61390D02*
X62925D01*
X59684D02*
X60640D01*
X57365D02*
X58900D01*
X55625D02*
X56580D01*
X53339D02*
X54874D01*
X51600D02*
X52555D01*
X67803Y-583193D02*
X68656D01*
X65415D02*
X66985D01*
X63778D02*
X64597D01*
X61390D02*
X62959D01*
X59719D02*
X60571D01*
X57365D02*
X58934D01*
X55693D02*
X56546D01*
X53305D02*
X54874D01*
X51668D02*
X52486D01*
X67871Y-583158D02*
X68588D01*
X65415D02*
X67019D01*
X63846D02*
X64528D01*
X61356D02*
X62959D01*
X59787D02*
X60503D01*
X57331D02*
X58934D01*
X55761D02*
X56478D01*
X53305D02*
X54909D01*
X51736D02*
X52418D01*
X67974Y-583124D02*
X68485D01*
X65381D02*
X67019D01*
X63949D02*
X64426D01*
X61356D02*
X62993D01*
X59889D02*
X60401D01*
X57331D02*
X58934D01*
X55864D02*
X56375D01*
X53271D02*
X54909D01*
X51838D02*
X52350D01*
X65381Y-583090D02*
X67019D01*
X61356D02*
X62993D01*
X57297D02*
X58968D01*
X53271D02*
X54909D01*
X65381Y-583056D02*
X67053D01*
X61322D02*
X62993D01*
X57297D02*
X58968D01*
X53271D02*
X54943D01*
X65347Y-583022D02*
X67053D01*
X61322D02*
X63027D01*
X57297D02*
X58968D01*
X53271D02*
X54943D01*
X65347Y-582988D02*
X67053D01*
X61322D02*
X63027D01*
X57297D02*
X58968D01*
X53237D02*
X54943D01*
X65347Y-582954D02*
X67053D01*
X61322D02*
X63027D01*
X57297D02*
X59002D01*
X53237D02*
X54943D01*
X65347Y-582920D02*
X67053D01*
X61322D02*
X63027D01*
X57262D02*
X59002D01*
X53237D02*
X54943D01*
X65347Y-582886D02*
X67053D01*
X61322D02*
X63027D01*
X57262D02*
X59002D01*
X53237D02*
X54977D01*
X65347Y-582852D02*
X67053D01*
X61322D02*
X63027D01*
X57262D02*
X59002D01*
X53237D02*
X54977D01*
X65347Y-582817D02*
X67053D01*
X61322D02*
X63027D01*
X57262D02*
X59002D01*
X53237D02*
X54977D01*
X43310D02*
X47847D01*
X36829D02*
X40069D01*
X34338D02*
X35225D01*
X31541D02*
X32530D01*
X28846D02*
X29733D01*
X22467D02*
X27379D01*
X65347Y-582783D02*
X67053D01*
X61322D02*
X63027D01*
X57262D02*
X59002D01*
X53237D02*
X54977D01*
X43310D02*
X47847D01*
X36829D02*
X40342D01*
X34338D02*
X35225D01*
X31541D02*
X32530D01*
X28846D02*
X29733D01*
X22467D02*
X27379D01*
X65347Y-582749D02*
X67053D01*
X61322D02*
X63027D01*
X57262D02*
X59002D01*
X53237D02*
X54943D01*
X43310D02*
X47847D01*
X36829D02*
X40479D01*
X34338D02*
X35225D01*
X31541D02*
X32530D01*
X28846D02*
X29733D01*
X22467D02*
X27379D01*
X65347Y-582715D02*
X67053D01*
X61322D02*
X63027D01*
X57262D02*
X59002D01*
X53237D02*
X54943D01*
X43310D02*
X47847D01*
X36829D02*
X40615D01*
X34338D02*
X35225D01*
X31507D02*
X32564D01*
X28846D02*
X29733D01*
X22467D02*
X27379D01*
X65347Y-582681D02*
X67053D01*
X61322D02*
X63027D01*
X57297D02*
X59002D01*
X53237D02*
X54943D01*
X43310D02*
X47847D01*
X36829D02*
X40718D01*
X34338D02*
X35225D01*
X31507D02*
X32564D01*
X28846D02*
X29733D01*
X22467D02*
X27379D01*
X65347Y-582647D02*
X67053D01*
X61322D02*
X63027D01*
X57297D02*
X58968D01*
X53237D02*
X54943D01*
X43310D02*
X47847D01*
X36829D02*
X40820D01*
X34338D02*
X35225D01*
X31507D02*
X32564D01*
X28846D02*
X29733D01*
X22467D02*
X27379D01*
X65347Y-582613D02*
X67053D01*
X61322D02*
X63027D01*
X57297D02*
X58968D01*
X53271D02*
X54943D01*
X43310D02*
X47847D01*
X36829D02*
X40888D01*
X34338D02*
X35225D01*
X31473D02*
X32599D01*
X28846D02*
X29733D01*
X22467D02*
X27379D01*
X65381Y-582579D02*
X67053D01*
X61322D02*
X62993D01*
X57297D02*
X58968D01*
X53271D02*
X54943D01*
X43310D02*
X47847D01*
X36829D02*
X40956D01*
X34338D02*
X35225D01*
X31473D02*
X32599D01*
X28846D02*
X29733D01*
X22467D02*
X27379D01*
X68144Y-582544D02*
X68315D01*
X65381D02*
X67019D01*
X64119D02*
X64255D01*
X61356D02*
X62993D01*
X60060D02*
X60230D01*
X57297D02*
X58968D01*
X56034D02*
X56205D01*
X53271D02*
X54909D01*
X52009D02*
X52179D01*
X43310D02*
X47847D01*
X36829D02*
X41025D01*
X34338D02*
X35225D01*
X31473D02*
X32599D01*
X28846D02*
X29733D01*
X22467D02*
X27379D01*
X67974Y-582510D02*
X68485D01*
X65381D02*
X67019D01*
X63914D02*
X64460D01*
X61356D02*
X62993D01*
X59889D02*
X60401D01*
X57331D02*
X58934D01*
X55864D02*
X56375D01*
X53271D02*
X54909D01*
X51804D02*
X52350D01*
X43310D02*
X47847D01*
X36829D02*
X41093D01*
X34338D02*
X35225D01*
X31439D02*
X32633D01*
X28846D02*
X29733D01*
X22467D02*
X27379D01*
X67871Y-582476D02*
X68588D01*
X65415D02*
X67019D01*
X63846D02*
X64528D01*
X61356D02*
X62959D01*
X59787D02*
X60503D01*
X57331D02*
X58934D01*
X55761D02*
X56478D01*
X53305D02*
X54909D01*
X51736D02*
X52452D01*
X43310D02*
X47847D01*
X36829D02*
X41161D01*
X34338D02*
X35225D01*
X31439D02*
X32633D01*
X28846D02*
X29733D01*
X22467D02*
X27379D01*
X67803Y-582442D02*
X68656D01*
X65415D02*
X66985D01*
X63778D02*
X64597D01*
X61390D02*
X62959D01*
X59719D02*
X60571D01*
X57365D02*
X58900D01*
X55693D02*
X56546D01*
X53305D02*
X54874D01*
X51668D02*
X52521D01*
X43310D02*
X47847D01*
X36829D02*
X41195D01*
X34338D02*
X35225D01*
X31439D02*
X32633D01*
X28846D02*
X29733D01*
X22467D02*
X27379D01*
X67735Y-582408D02*
X68690D01*
X65450D02*
X66985D01*
X63710D02*
X64665D01*
X61390D02*
X62925D01*
X59684D02*
X60640D01*
X57365D02*
X58900D01*
X55625D02*
X56614D01*
X53339D02*
X54874D01*
X51600D02*
X52555D01*
X43310D02*
X47847D01*
X36829D02*
X41263D01*
X34338D02*
X35225D01*
X31405D02*
X32667D01*
X28846D02*
X29733D01*
X22467D02*
X27379D01*
X67701Y-582374D02*
X68758D01*
X65450D02*
X66951D01*
X63642D02*
X64733D01*
X61424D02*
X62925D01*
X59616D02*
X60674D01*
X57399D02*
X58866D01*
X55591D02*
X56648D01*
X53339D02*
X54840D01*
X51565D02*
X52623D01*
X43310D02*
X47847D01*
X36829D02*
X41297D01*
X34338D02*
X35225D01*
X31405D02*
X32667D01*
X28846D02*
X29733D01*
X22467D02*
X27379D01*
X67667Y-582340D02*
X68793D01*
X65484D02*
X66916D01*
X63607D02*
X64767D01*
X61458D02*
X62891D01*
X59582D02*
X60708D01*
X57399D02*
X58866D01*
X55557D02*
X56682D01*
X53373D02*
X54840D01*
X51497D02*
X52657D01*
X43310D02*
X47847D01*
X36829D02*
X41332D01*
X34338D02*
X35225D01*
X31405D02*
X32667D01*
X28846D02*
X29733D01*
X22467D02*
X27379D01*
X67599Y-582306D02*
X68827D01*
X65518D02*
X66916D01*
X63573D02*
X64801D01*
X61458D02*
X62857D01*
X59548D02*
X60776D01*
X57433D02*
X58832D01*
X55523D02*
X56717D01*
X53408D02*
X54806D01*
X51463D02*
X52691D01*
X43310D02*
X47847D01*
X36829D02*
X41366D01*
X34338D02*
X35225D01*
X31371D02*
X32701D01*
X28846D02*
X29733D01*
X22467D02*
X27379D01*
X67564Y-582272D02*
X68861D01*
X65518D02*
X66882D01*
X63539D02*
X64835D01*
X61492D02*
X62857D01*
X59514D02*
X60810D01*
X57467D02*
X58797D01*
X55489D02*
X56751D01*
X53408D02*
X54772D01*
X51429D02*
X52725D01*
X43310D02*
X47847D01*
X36829D02*
X41434D01*
X34338D02*
X35225D01*
X31371D02*
X32701D01*
X28846D02*
X29733D01*
X22467D02*
X27379D01*
X67564Y-582237D02*
X68895D01*
X65552D02*
X66848D01*
X63505D02*
X64870D01*
X61527D02*
X62823D01*
X59480D02*
X60810D01*
X57501D02*
X58797D01*
X55454D02*
X56785D01*
X53442D02*
X54738D01*
X51395D02*
X52759D01*
X43310D02*
X47847D01*
X36829D02*
X41468D01*
X34338D02*
X35225D01*
X31371D02*
X32701D01*
X28846D02*
X29733D01*
X22467D02*
X27379D01*
X67530Y-582203D02*
X68929D01*
X65586D02*
X66814D01*
X63505D02*
X64870D01*
X61561D02*
X62789D01*
X59446D02*
X60844D01*
X57535D02*
X58763D01*
X56239D02*
X56819D01*
X55420D02*
X55966D01*
X53476D02*
X54704D01*
X51395D02*
X52794D01*
X43310D02*
X47847D01*
X36829D02*
X41502D01*
X34338D02*
X35225D01*
X31336D02*
X32735D01*
X28846D02*
X29733D01*
X22467D02*
X27379D01*
X67496Y-582169D02*
X68929D01*
X65620D02*
X66780D01*
X63471D02*
X64904D01*
X61595D02*
X62754D01*
X59446D02*
X60878D01*
X57569D02*
X58695D01*
X56341D02*
X56853D01*
X55386D02*
X55898D01*
X53510D02*
X54670D01*
X51361D02*
X52794D01*
X43310D02*
X47847D01*
X36829D02*
X41502D01*
X34338D02*
X35225D01*
X31336D02*
X32735D01*
X28846D02*
X29733D01*
X22467D02*
X27379D01*
X67496Y-582135D02*
X68963D01*
X65654D02*
X66746D01*
X63437D02*
X64938D01*
X61629D02*
X62720D01*
X59412D02*
X60878D01*
X57604D02*
X58661D01*
X56410D02*
X56853D01*
X55386D02*
X55830D01*
X53578D02*
X54636D01*
X51327D02*
X52828D01*
X43310D02*
X47847D01*
X36829D02*
X41536D01*
X34338D02*
X35225D01*
X31336D02*
X32735D01*
X28846D02*
X29733D01*
X22467D02*
X27379D01*
X67462Y-582101D02*
X68997D01*
X65722D02*
X66677D01*
X63437D02*
X64938D01*
X61697D02*
X62652D01*
X59377D02*
X60912D01*
X57638D02*
X58627D01*
X56444D02*
X56887D01*
X55352D02*
X55796D01*
X53612D02*
X54602D01*
X51327D02*
X52828D01*
X43310D02*
X47847D01*
X36829D02*
X41570D01*
X34338D02*
X35225D01*
X31302D02*
X32769D01*
X28846D02*
X29733D01*
X22467D02*
X27379D01*
X67428Y-582067D02*
X68997D01*
X65756D02*
X66643D01*
X63403D02*
X64972D01*
X61731D02*
X62618D01*
X59377D02*
X60947D01*
X57706D02*
X58559D01*
X56478D02*
X56887D01*
X55352D02*
X55761D01*
X53680D02*
X54533D01*
X51293D02*
X52862D01*
X43310D02*
X47847D01*
X36829D02*
X41605D01*
X34338D02*
X35225D01*
X31302D02*
X32769D01*
X28846D02*
X29733D01*
X22467D02*
X27379D01*
X67428Y-582033D02*
X69031D01*
X65825D02*
X66575D01*
X63403D02*
X64972D01*
X61799D02*
X62550D01*
X59343D02*
X60947D01*
X57774D02*
X58490D01*
X56512D02*
X56921D01*
X55318D02*
X55727D01*
X53715D02*
X54465D01*
X51293D02*
X52862D01*
X43310D02*
X47847D01*
X39762D02*
X41639D01*
X36829D02*
X37681D01*
X34338D02*
X35225D01*
X31302D02*
X32769D01*
X28846D02*
X29733D01*
X22467D02*
X27379D01*
X67428Y-581999D02*
X69031D01*
X65927D02*
X66473D01*
X63369D02*
X65006D01*
X61902D02*
X62448D01*
X59343D02*
X60947D01*
X57842D02*
X58422D01*
X56546D02*
X56921D01*
X55318D02*
X55693D01*
X53817D02*
X54363D01*
X51258D02*
X52896D01*
X43310D02*
X47847D01*
X40104D02*
X41639D01*
X36829D02*
X37681D01*
X34338D02*
X35225D01*
X31302D02*
X32803D01*
X28846D02*
X29733D01*
X22467D02*
X27379D01*
X67394Y-581964D02*
X69031D01*
X66063D02*
X66336D01*
X63369D02*
X65006D01*
X62038D02*
X62311D01*
X59343D02*
X60981D01*
X58013D02*
X58252D01*
X56580D02*
X56921D01*
X55284D02*
X55659D01*
X53953D02*
X54226D01*
X51258D02*
X52896D01*
X43310D02*
X47847D01*
X40240D02*
X41673D01*
X36829D02*
X37681D01*
X34338D02*
X35225D01*
X31268D02*
X32803D01*
X28846D02*
X29733D01*
X22467D02*
X23320D01*
X67394Y-581930D02*
X69065D01*
X63369D02*
X65006D01*
X59309D02*
X60981D01*
X56580D02*
X56955D01*
X55284D02*
X55659D01*
X51258D02*
X52896D01*
X43310D02*
X44231D01*
X40342D02*
X41707D01*
X36829D02*
X37681D01*
X34338D02*
X35225D01*
X31268D02*
X32803D01*
X28846D02*
X29733D01*
X22467D02*
X23320D01*
X67394Y-581896D02*
X69065D01*
X63335D02*
X65040D01*
X59309D02*
X60981D01*
X56614D02*
X56955D01*
X55284D02*
X55625D01*
X51224D02*
X52930D01*
X43310D02*
X44231D01*
X40445D02*
X41707D01*
X36829D02*
X37681D01*
X34372D02*
X35225D01*
X31268D02*
X32837D01*
X28846D02*
X29733D01*
X22467D02*
X23320D01*
X67360Y-581862D02*
X69065D01*
X63335D02*
X65040D01*
X59309D02*
X61015D01*
X56614D02*
X56955D01*
X55284D02*
X55625D01*
X51224D02*
X52930D01*
X43310D02*
X44231D01*
X40513D02*
X41741D01*
X36829D02*
X37681D01*
X34372D02*
X35225D01*
X31234D02*
X32837D01*
X28846D02*
X29733D01*
X22467D02*
X23320D01*
X67360Y-581828D02*
X69065D01*
X63335D02*
X65040D01*
X59309D02*
X61015D01*
X56648D02*
X56955D01*
X55250D02*
X55591D01*
X51224D02*
X52930D01*
X43310D02*
X44231D01*
X40581D02*
X41775D01*
X36829D02*
X37681D01*
X34372D02*
X35225D01*
X31234D02*
X32837D01*
X28846D02*
X29733D01*
X22467D02*
X23320D01*
X67360Y-581794D02*
X69065D01*
X63335D02*
X65040D01*
X59309D02*
X61015D01*
X56648D02*
X56989D01*
X55250D02*
X55591D01*
X51224D02*
X52930D01*
X43310D02*
X44231D01*
X40649D02*
X41775D01*
X36829D02*
X37681D01*
X34372D02*
X35225D01*
X31234D02*
X32871D01*
X28846D02*
X29733D01*
X22467D02*
X23320D01*
X67360Y-581760D02*
X69065D01*
X63335D02*
X65040D01*
X59275D02*
X61015D01*
X56648D02*
X56989D01*
X55250D02*
X55591D01*
X51224D02*
X52930D01*
X43310D02*
X44231D01*
X40683D02*
X41809D01*
X36829D02*
X37681D01*
X34372D02*
X35225D01*
X31200D02*
X32871D01*
X28846D02*
X29733D01*
X22467D02*
X23320D01*
X67360Y-581726D02*
X69065D01*
X63335D02*
X65040D01*
X59275D02*
X61015D01*
X56648D02*
X56989D01*
X55250D02*
X55591D01*
X51224D02*
X52930D01*
X43310D02*
X44231D01*
X40752D02*
X41809D01*
X36829D02*
X37681D01*
X34372D02*
X35225D01*
X31200D02*
X32871D01*
X28846D02*
X29733D01*
X22467D02*
X23320D01*
X67360Y-581692D02*
X69065D01*
X63335D02*
X65040D01*
X59275D02*
X61015D01*
X56648D02*
X56989D01*
X55250D02*
X55591D01*
X51224D02*
X52930D01*
X43310D02*
X44231D01*
X40786D02*
X41809D01*
X36829D02*
X37681D01*
X34372D02*
X35225D01*
X31200D02*
X32906D01*
X28846D02*
X29733D01*
X22467D02*
X23320D01*
X67360Y-581658D02*
X69065D01*
X63335D02*
X65040D01*
X59275D02*
X61015D01*
X56648D02*
X56989D01*
X55250D02*
X55591D01*
X51224D02*
X52930D01*
X43310D02*
X44231D01*
X40820D02*
X41843D01*
X36829D02*
X37681D01*
X34372D02*
X35225D01*
X31166D02*
X32906D01*
X28846D02*
X29733D01*
X22467D02*
X23320D01*
X67360Y-581623D02*
X69065D01*
X63335D02*
X65040D01*
X59275D02*
X61015D01*
X56648D02*
X56989D01*
X55250D02*
X55591D01*
X51224D02*
X52930D01*
X43310D02*
X44231D01*
X40854D02*
X41843D01*
X36829D02*
X37681D01*
X34372D02*
X35225D01*
X31166D02*
X32906D01*
X28846D02*
X29733D01*
X22467D02*
X23320D01*
X67360Y-581589D02*
X69065D01*
X63335D02*
X65040D01*
X59309D02*
X61015D01*
X56648D02*
X56989D01*
X55250D02*
X55591D01*
X51224D02*
X52930D01*
X43310D02*
X44231D01*
X40888D02*
X41877D01*
X36829D02*
X37681D01*
X34372D02*
X35225D01*
X32053D02*
X32940D01*
X31166D02*
X32019D01*
X28846D02*
X29733D01*
X22467D02*
X23320D01*
X67360Y-581555D02*
X69065D01*
X63335D02*
X65040D01*
X59309D02*
X61015D01*
X56648D02*
X56955D01*
X55250D02*
X55591D01*
X51224D02*
X52930D01*
X43310D02*
X44231D01*
X40922D02*
X41877D01*
X36829D02*
X37681D01*
X34372D02*
X35225D01*
X32087D02*
X32940D01*
X31132D02*
X32019D01*
X28846D02*
X29733D01*
X22467D02*
X23320D01*
X67360Y-581521D02*
X69065D01*
X63335D02*
X65040D01*
X59309D02*
X61015D01*
X56614D02*
X56955D01*
X55284D02*
X55591D01*
X51224D02*
X52930D01*
X43310D02*
X44231D01*
X40922D02*
X41877D01*
X36829D02*
X37681D01*
X34372D02*
X35225D01*
X32087D02*
X32940D01*
X31132D02*
X32019D01*
X28846D02*
X29733D01*
X22467D02*
X23320D01*
X67394Y-581487D02*
X69065D01*
X63335D02*
X65040D01*
X59309D02*
X60981D01*
X56614D02*
X56955D01*
X55284D02*
X55625D01*
X51224D02*
X52930D01*
X43310D02*
X44231D01*
X40956D02*
X41912D01*
X36829D02*
X37681D01*
X34372D02*
X35225D01*
X32087D02*
X32974D01*
X31132D02*
X31985D01*
X28846D02*
X29733D01*
X22467D02*
X23320D01*
X67394Y-581453D02*
X69065D01*
X63369D02*
X65006D01*
X59309D02*
X60981D01*
X56614D02*
X56955D01*
X55284D02*
X55625D01*
X51258D02*
X52930D01*
X43310D02*
X44231D01*
X40990D02*
X41912D01*
X36829D02*
X37681D01*
X34372D02*
X35225D01*
X32121D02*
X32974D01*
X31098D02*
X31985D01*
X28846D02*
X29733D01*
X22467D02*
X23320D01*
X67394Y-581419D02*
X69031D01*
X63369D02*
X65006D01*
X59343D02*
X60981D01*
X56580D02*
X56955D01*
X55284D02*
X55659D01*
X51258D02*
X52896D01*
X43310D02*
X44231D01*
X40990D02*
X41912D01*
X36829D02*
X37681D01*
X34372D02*
X35225D01*
X32121D02*
X32974D01*
X31098D02*
X31985D01*
X28846D02*
X29733D01*
X22467D02*
X23320D01*
X67394Y-581385D02*
X69031D01*
X65961D02*
X66439D01*
X63369D02*
X65006D01*
X61936D02*
X62413D01*
X59343D02*
X60981D01*
X57911D02*
X58354D01*
X56546D02*
X56921D01*
X55318D02*
X55659D01*
X53851D02*
X54329D01*
X51258D02*
X52896D01*
X43310D02*
X44231D01*
X41025D02*
X41912D01*
X36829D02*
X37681D01*
X34372D02*
X35225D01*
X32121D02*
X33008D01*
X31098D02*
X31951D01*
X28846D02*
X29733D01*
X22467D02*
X23320D01*
X67428Y-581351D02*
X69031D01*
X65859D02*
X66541D01*
X63403D02*
X64972D01*
X61834D02*
X62516D01*
X59343D02*
X60947D01*
X57808D02*
X58456D01*
X56546D02*
X56921D01*
X55318D02*
X55693D01*
X53749D02*
X54431D01*
X51293D02*
X52896D01*
X43310D02*
X44231D01*
X41025D02*
X41946D01*
X36829D02*
X37681D01*
X34372D02*
X35225D01*
X32155D02*
X33008D01*
X31064D02*
X31951D01*
X28846D02*
X29733D01*
X22467D02*
X23320D01*
X67428Y-581316D02*
X68997D01*
X65791D02*
X66609D01*
X63403D02*
X64972D01*
X61765D02*
X62584D01*
X59377D02*
X60947D01*
X57740D02*
X58559D01*
X56512D02*
X56887D01*
X55318D02*
X55727D01*
X53680D02*
X54499D01*
X51293D02*
X52862D01*
X43310D02*
X44231D01*
X41059D02*
X41946D01*
X36829D02*
X37681D01*
X34372D02*
X35225D01*
X32155D02*
X33008D01*
X31064D02*
X31951D01*
X28846D02*
X29733D01*
X22467D02*
X23320D01*
X67462Y-581282D02*
X68997D01*
X65722D02*
X66677D01*
X63403D02*
X64972D01*
X61697D02*
X62652D01*
X59377D02*
X60912D01*
X57672D02*
X58593D01*
X56478D02*
X56887D01*
X55352D02*
X55761D01*
X53646D02*
X54567D01*
X51327D02*
X52862D01*
X43310D02*
X44231D01*
X41059D02*
X41946D01*
X36829D02*
X37681D01*
X34372D02*
X35225D01*
X32155D02*
X33008D01*
X31064D02*
X31916D01*
X28846D02*
X29733D01*
X22467D02*
X23320D01*
X67462Y-581248D02*
X68963D01*
X65688D02*
X66712D01*
X63437D02*
X64938D01*
X61663D02*
X62686D01*
X59412D02*
X60912D01*
X57604D02*
X58661D01*
X56410D02*
X56853D01*
X55352D02*
X55796D01*
X53578D02*
X54602D01*
X51327D02*
X52828D01*
X43310D02*
X44231D01*
X41093D02*
X41946D01*
X36829D02*
X37681D01*
X34372D02*
X35225D01*
X32189D02*
X33042D01*
X31029D02*
X31916D01*
X28846D02*
X29733D01*
X22467D02*
X23320D01*
X67496Y-581214D02*
X68963D01*
X65654D02*
X66780D01*
X63471D02*
X64904D01*
X61595D02*
X62720D01*
X59412D02*
X60878D01*
X57569D02*
X58695D01*
X56375D02*
X56853D01*
X55386D02*
X55864D01*
X53544D02*
X54670D01*
X51361D02*
X52828D01*
X43310D02*
X44231D01*
X41093D02*
X41980D01*
X36829D02*
X37681D01*
X34372D02*
X35225D01*
X32189D02*
X33042D01*
X31029D02*
X31916D01*
X28846D02*
X29733D01*
X22467D02*
X23320D01*
X67530Y-581180D02*
X68929D01*
X65620D02*
X66814D01*
X63471D02*
X64904D01*
X61561D02*
X62754D01*
X59446D02*
X60844D01*
X57535D02*
X58729D01*
X56307D02*
X56819D01*
X55420D02*
X55932D01*
X53510D02*
X54704D01*
X51361D02*
X52794D01*
X43310D02*
X44231D01*
X41093D02*
X41980D01*
X36829D02*
X37681D01*
X34372D02*
X35225D01*
X32189D02*
X33042D01*
X31029D02*
X31882D01*
X28846D02*
X29733D01*
X22467D02*
X23320D01*
X67530Y-581146D02*
X68895D01*
X65586D02*
X66848D01*
X63505D02*
X64870D01*
X61527D02*
X62789D01*
X59480D02*
X60844D01*
X57501D02*
X58763D01*
X56137D02*
X56785D01*
X55420D02*
X56103D01*
X53476D02*
X54738D01*
X51395D02*
X52759D01*
X43310D02*
X44231D01*
X41127D02*
X41980D01*
X36829D02*
X37681D01*
X34372D02*
X35225D01*
X32223D02*
X33076D01*
X30995D02*
X31882D01*
X28846D02*
X29733D01*
X22467D02*
X23320D01*
X67564Y-581112D02*
X68861D01*
X65552D02*
X66882D01*
X63539D02*
X64835D01*
X61492D02*
X62823D01*
X59514D02*
X60810D01*
X57467D02*
X58797D01*
X55454D02*
X56785D01*
X53442D02*
X54772D01*
X51429D02*
X52725D01*
X43310D02*
X44231D01*
X41127D02*
X41980D01*
X36829D02*
X37681D01*
X34372D02*
X35225D01*
X32223D02*
X33076D01*
X30995D02*
X31882D01*
X28846D02*
X29733D01*
X22467D02*
X23320D01*
X67599Y-581078D02*
X68861D01*
X65518D02*
X66882D01*
X63573D02*
X64801D01*
X61492D02*
X62857D01*
X59514D02*
X60776D01*
X57433D02*
X58832D01*
X55489D02*
X56751D01*
X53408D02*
X54806D01*
X51463D02*
X52691D01*
X43310D02*
X44231D01*
X41127D02*
X41980D01*
X36829D02*
X37681D01*
X34372D02*
X35225D01*
X32223D02*
X33076D01*
X30995D02*
X31848D01*
X28846D02*
X29733D01*
X22467D02*
X23320D01*
X67633Y-581043D02*
X68827D01*
X65484D02*
X66916D01*
X63607D02*
X64767D01*
X61458D02*
X62891D01*
X59582D02*
X60742D01*
X57433D02*
X58866D01*
X55523D02*
X56717D01*
X53373D02*
X54806D01*
X51497D02*
X52657D01*
X43310D02*
X44231D01*
X41127D02*
X41980D01*
X36829D02*
X37681D01*
X34372D02*
X35225D01*
X32258D02*
X33110D01*
X30961D02*
X31848D01*
X28846D02*
X29733D01*
X22467D02*
X23320D01*
X67667Y-581009D02*
X68758D01*
X65484D02*
X66951D01*
X63642D02*
X64733D01*
X61424D02*
X62891D01*
X59616D02*
X60708D01*
X57399D02*
X58866D01*
X55557D02*
X56648D01*
X53373D02*
X54840D01*
X51531D02*
X52623D01*
X43310D02*
X44231D01*
X41127D02*
X41980D01*
X36829D02*
X37681D01*
X34372D02*
X35225D01*
X32258D02*
X33110D01*
X30961D02*
X31848D01*
X28846D02*
X29733D01*
X22467D02*
X23320D01*
X67735Y-580975D02*
X68724D01*
X65450D02*
X66951D01*
X63676D02*
X64699D01*
X61424D02*
X62925D01*
X59650D02*
X60640D01*
X57365D02*
X58900D01*
X55625D02*
X56614D01*
X53339D02*
X54840D01*
X51565D02*
X52589D01*
X43310D02*
X44231D01*
X41161D02*
X41980D01*
X36829D02*
X37681D01*
X34372D02*
X35225D01*
X32258D02*
X33110D01*
X30961D02*
X31814D01*
X28846D02*
X29733D01*
X22467D02*
X23320D01*
X67769Y-580941D02*
X68656D01*
X65415D02*
X66985D01*
X63744D02*
X64631D01*
X61390D02*
X62959D01*
X59719D02*
X60605D01*
X57365D02*
X58900D01*
X55659D02*
X56580D01*
X53339D02*
X54874D01*
X51634D02*
X52521D01*
X43310D02*
X44231D01*
X41161D02*
X41980D01*
X36829D02*
X37681D01*
X34372D02*
X35225D01*
X32292D02*
X33144D01*
X30927D02*
X31814D01*
X28846D02*
X29733D01*
X22467D02*
X23320D01*
X67837Y-580907D02*
X68622D01*
X65415D02*
X66985D01*
X63812D02*
X64562D01*
X61390D02*
X62959D01*
X59753D02*
X60537D01*
X57331D02*
X58934D01*
X55727D02*
X56512D01*
X53305D02*
X54874D01*
X51702D02*
X52452D01*
X43310D02*
X44231D01*
X41161D02*
X41980D01*
X36829D02*
X37681D01*
X34372D02*
X35225D01*
X32292D02*
X33144D01*
X30927D02*
X31814D01*
X28846D02*
X29733D01*
X22467D02*
X23320D01*
X67906Y-580873D02*
X68520D01*
X65415D02*
X67019D01*
X63880D02*
X64494D01*
X61356D02*
X62959D01*
X59855D02*
X60469D01*
X57331D02*
X58934D01*
X55796D02*
X56410D01*
X53305D02*
X54909D01*
X51770D02*
X52384D01*
X43310D02*
X44231D01*
X41161D02*
X41980D01*
X36829D02*
X37681D01*
X34372D02*
X35225D01*
X32292D02*
X33144D01*
X30927D02*
X31780D01*
X28846D02*
X29733D01*
X22467D02*
X23320D01*
X68042Y-580839D02*
X68417D01*
X65381D02*
X67019D01*
X64017D02*
X64358D01*
X61356D02*
X62993D01*
X59957D02*
X60333D01*
X57331D02*
X58968D01*
X55932D02*
X56307D01*
X53271D02*
X54909D01*
X51907D02*
X52248D01*
X43310D02*
X44231D01*
X41161D02*
X41980D01*
X36829D02*
X37681D01*
X34372D02*
X35225D01*
X32326D02*
X33179D01*
X30893D02*
X31780D01*
X28846D02*
X29733D01*
X22467D02*
X23320D01*
X65381Y-580805D02*
X67019D01*
X61356D02*
X62993D01*
X57297D02*
X58968D01*
X53271D02*
X54943D01*
X43310D02*
X44231D01*
X41161D02*
X41980D01*
X36829D02*
X37681D01*
X34372D02*
X35225D01*
X32326D02*
X33179D01*
X30893D02*
X31780D01*
X28846D02*
X29733D01*
X22467D02*
X23320D01*
X65381Y-580771D02*
X67053D01*
X61322D02*
X62993D01*
X57297D02*
X58968D01*
X53271D02*
X54943D01*
X43310D02*
X44231D01*
X41161D02*
X41980D01*
X36829D02*
X37681D01*
X34372D02*
X35225D01*
X32326D02*
X33179D01*
X30893D02*
X31746D01*
X28846D02*
X29733D01*
X22467D02*
X23320D01*
X65347Y-580736D02*
X67053D01*
X61322D02*
X63027D01*
X57297D02*
X58968D01*
X53237D02*
X54943D01*
X43310D02*
X44231D01*
X41161D02*
X41980D01*
X36829D02*
X37681D01*
X34372D02*
X35225D01*
X32360D02*
X33213D01*
X30859D02*
X31746D01*
X28846D02*
X29733D01*
X22467D02*
X23320D01*
X65347Y-580702D02*
X67053D01*
X61322D02*
X63027D01*
X57297D02*
X59002D01*
X53237D02*
X54943D01*
X43310D02*
X44231D01*
X41161D02*
X41980D01*
X36829D02*
X37681D01*
X34372D02*
X35225D01*
X32360D02*
X33213D01*
X30859D02*
X31746D01*
X28846D02*
X29733D01*
X22467D02*
X23320D01*
X65347Y-580668D02*
X67053D01*
X61322D02*
X63027D01*
X57262D02*
X59002D01*
X53237D02*
X54943D01*
X43310D02*
X44231D01*
X41161D02*
X41980D01*
X36829D02*
X37681D01*
X34372D02*
X35225D01*
X32360D02*
X33213D01*
X30859D02*
X31712D01*
X28846D02*
X29733D01*
X22467D02*
X23320D01*
X65347Y-580634D02*
X67053D01*
X61322D02*
X63027D01*
X57262D02*
X59002D01*
X53237D02*
X54943D01*
X43310D02*
X44231D01*
X41161D02*
X41980D01*
X36829D02*
X37681D01*
X34372D02*
X35225D01*
X32394D02*
X33247D01*
X30825D02*
X31712D01*
X28846D02*
X29733D01*
X22467D02*
X23320D01*
X65347Y-580600D02*
X67053D01*
X61322D02*
X63027D01*
X57262D02*
X59002D01*
X53237D02*
X54977D01*
X43310D02*
X44231D01*
X41161D02*
X41980D01*
X36829D02*
X37681D01*
X34372D02*
X35225D01*
X32394D02*
X33247D01*
X30825D02*
X31712D01*
X28846D02*
X29733D01*
X22467D02*
X23320D01*
X65347Y-580566D02*
X67053D01*
X61322D02*
X63027D01*
X57262D02*
X59002D01*
X53237D02*
X54977D01*
X43310D02*
X44231D01*
X41127D02*
X41980D01*
X36829D02*
X37681D01*
X34372D02*
X35225D01*
X32394D02*
X33247D01*
X30825D02*
X31678D01*
X28846D02*
X29733D01*
X22467D02*
X23320D01*
X65347Y-580532D02*
X67053D01*
X61322D02*
X63027D01*
X57262D02*
X59002D01*
X53237D02*
X54977D01*
X43310D02*
X44231D01*
X41127D02*
X41980D01*
X36829D02*
X37681D01*
X34372D02*
X35225D01*
X32428D02*
X33281D01*
X30791D02*
X31678D01*
X28846D02*
X29733D01*
X22467D02*
X23320D01*
X65347Y-580498D02*
X67053D01*
X61322D02*
X63027D01*
X57262D02*
X59002D01*
X53237D02*
X54977D01*
X43310D02*
X44231D01*
X41127D02*
X41980D01*
X36829D02*
X37681D01*
X34372D02*
X35225D01*
X32428D02*
X33281D01*
X30791D02*
X31678D01*
X28846D02*
X29733D01*
X22467D02*
X23320D01*
X65347Y-580464D02*
X67053D01*
X61322D02*
X63027D01*
X57262D02*
X59002D01*
X53237D02*
X54943D01*
X43310D02*
X44231D01*
X41127D02*
X41980D01*
X36829D02*
X37681D01*
X34372D02*
X35225D01*
X32428D02*
X33281D01*
X30791D02*
X31644D01*
X28846D02*
X29733D01*
X22467D02*
X23320D01*
X65347Y-580429D02*
X67053D01*
X61322D02*
X63027D01*
X57262D02*
X59002D01*
X53237D02*
X54943D01*
X43310D02*
X44231D01*
X41093D02*
X41980D01*
X36829D02*
X37681D01*
X34372D02*
X35225D01*
X32462D02*
X33315D01*
X30757D02*
X31644D01*
X28846D02*
X29733D01*
X22467D02*
X23320D01*
X65347Y-580395D02*
X67053D01*
X61322D02*
X63027D01*
X57297D02*
X59002D01*
X53237D02*
X54943D01*
X43310D02*
X44231D01*
X41093D02*
X41980D01*
X36829D02*
X37681D01*
X34372D02*
X35225D01*
X32462D02*
X33315D01*
X30757D02*
X31644D01*
X28846D02*
X29733D01*
X22467D02*
X23320D01*
X65347Y-580361D02*
X67053D01*
X61322D02*
X63027D01*
X57297D02*
X58968D01*
X53237D02*
X54943D01*
X43310D02*
X44231D01*
X41093D02*
X41946D01*
X36829D02*
X37681D01*
X34372D02*
X35225D01*
X32462D02*
X33315D01*
X30757D02*
X31609D01*
X28846D02*
X29733D01*
X22467D02*
X23320D01*
X65381Y-580327D02*
X67053D01*
X61322D02*
X62993D01*
X57297D02*
X58968D01*
X53271D02*
X54943D01*
X43310D02*
X44231D01*
X41059D02*
X41946D01*
X36829D02*
X37681D01*
X34372D02*
X35225D01*
X32496D02*
X33349D01*
X30722D02*
X31609D01*
X28846D02*
X29733D01*
X22467D02*
X23320D01*
X65381Y-580293D02*
X67019D01*
X61356D02*
X62993D01*
X57297D02*
X58968D01*
X53271D02*
X54943D01*
X43310D02*
X44231D01*
X41059D02*
X41946D01*
X36829D02*
X37681D01*
X34372D02*
X35225D01*
X32496D02*
X33349D01*
X30722D02*
X31609D01*
X28846D02*
X29733D01*
X22467D02*
X23320D01*
X68008Y-580259D02*
X68417D01*
X65381D02*
X67019D01*
X63983D02*
X64392D01*
X61356D02*
X62993D01*
X59957D02*
X60367D01*
X57331D02*
X58968D01*
X55932D02*
X56307D01*
X53271D02*
X54909D01*
X51872D02*
X52282D01*
X43310D02*
X44231D01*
X41025D02*
X41946D01*
X36829D02*
X37681D01*
X34372D02*
X35225D01*
X32496D02*
X33349D01*
X30722D02*
X31575D01*
X28846D02*
X29733D01*
X22467D02*
X23320D01*
X67906Y-580225D02*
X68554D01*
X65415D02*
X67019D01*
X63880D02*
X64494D01*
X61356D02*
X62959D01*
X59821D02*
X60469D01*
X57331D02*
X58934D01*
X55796D02*
X56444D01*
X53305D02*
X54909D01*
X51770D02*
X52384D01*
X43310D02*
X44231D01*
X41025D02*
X41912D01*
X36829D02*
X37681D01*
X34372D02*
X35225D01*
X32530D02*
X33383D01*
X30688D02*
X31575D01*
X28846D02*
X29733D01*
X22467D02*
X23320D01*
X67837Y-580191D02*
X68622D01*
X65415D02*
X66985D01*
X63778D02*
X64597D01*
X61390D02*
X62959D01*
X59753D02*
X60537D01*
X57331D02*
X58934D01*
X55727D02*
X56512D01*
X53305D02*
X54874D01*
X51702D02*
X52486D01*
X43310D02*
X44231D01*
X40990D02*
X41912D01*
X36829D02*
X37681D01*
X34372D02*
X35225D01*
X32530D02*
X33383D01*
X30688D02*
X31575D01*
X28846D02*
X29733D01*
X22467D02*
X23320D01*
X67769Y-580157D02*
X68690D01*
X65415D02*
X66985D01*
X63744D02*
X64631D01*
X61390D02*
X62959D01*
X59684D02*
X60605D01*
X57365D02*
X58900D01*
X55659D02*
X56580D01*
X53339D02*
X54874D01*
X51634D02*
X52521D01*
X43310D02*
X44231D01*
X40956D02*
X41912D01*
X36829D02*
X37681D01*
X34372D02*
X35225D01*
X32530D02*
X33383D01*
X30688D02*
X31541D01*
X28846D02*
X29733D01*
X22467D02*
X23320D01*
X67701Y-580122D02*
X68724D01*
X65450D02*
X66951D01*
X63676D02*
X64699D01*
X61424D02*
X62925D01*
X59650D02*
X60674D01*
X57365D02*
X58900D01*
X55625D02*
X56614D01*
X53339D02*
X54840D01*
X51565D02*
X52589D01*
X43310D02*
X44231D01*
X40922D02*
X41912D01*
X36829D02*
X37681D01*
X34372D02*
X35225D01*
X32564D02*
X33417D01*
X30654D02*
X31541D01*
X28846D02*
X29733D01*
X22467D02*
X23320D01*
X67667Y-580088D02*
X68758D01*
X65484D02*
X66951D01*
X63642D02*
X64733D01*
X61424D02*
X62891D01*
X59616D02*
X60708D01*
X57399D02*
X58866D01*
X55557D02*
X56682D01*
X53373D02*
X54840D01*
X51531D02*
X52623D01*
X43310D02*
X44231D01*
X40922D02*
X41877D01*
X36829D02*
X37681D01*
X34372D02*
X35225D01*
X32564D02*
X33417D01*
X30654D02*
X31541D01*
X28846D02*
X29733D01*
X22467D02*
X23320D01*
X67633Y-580054D02*
X68827D01*
X65484D02*
X66916D01*
X63607D02*
X64767D01*
X61458D02*
X62891D01*
X59548D02*
X60742D01*
X57433D02*
X58832D01*
X55523D02*
X56717D01*
X53373D02*
X54806D01*
X51497D02*
X52657D01*
X43310D02*
X44231D01*
X40888D02*
X41877D01*
X36829D02*
X37681D01*
X34372D02*
X35225D01*
X32564D02*
X33417D01*
X30654D02*
X31507D01*
X28846D02*
X29733D01*
X22467D02*
X23320D01*
X67599Y-580020D02*
X68861D01*
X65518D02*
X66882D01*
X63573D02*
X64801D01*
X61492D02*
X62857D01*
X59514D02*
X60776D01*
X57433D02*
X58832D01*
X55489D02*
X56751D01*
X53408D02*
X54772D01*
X51463D02*
X52691D01*
X43310D02*
X44231D01*
X40854D02*
X41877D01*
X36829D02*
X37681D01*
X34372D02*
X35225D01*
X32599D02*
X33451D01*
X30620D02*
X31507D01*
X28846D02*
X29733D01*
X22467D02*
X23320D01*
X67564Y-579986D02*
X68895D01*
X65552D02*
X66882D01*
X63539D02*
X64835D01*
X61492D02*
X62823D01*
X59480D02*
X60810D01*
X57467D02*
X58797D01*
X55454D02*
X56785D01*
X53442D02*
X54772D01*
X51429D02*
X52725D01*
X43310D02*
X44231D01*
X40786D02*
X41843D01*
X36829D02*
X37681D01*
X34372D02*
X35225D01*
X32599D02*
X33451D01*
X30620D02*
X31507D01*
X28846D02*
X29733D01*
X22467D02*
X23320D01*
X67530Y-579952D02*
X68895D01*
X65586D02*
X66848D01*
X63505D02*
X64870D01*
X61527D02*
X62789D01*
X59480D02*
X60844D01*
X57501D02*
X58763D01*
X55420D02*
X56785D01*
X53476D02*
X54738D01*
X51395D02*
X52759D01*
X43310D02*
X44231D01*
X40752D02*
X41843D01*
X36829D02*
X37681D01*
X34372D02*
X35225D01*
X32599D02*
X33451D01*
X30620D02*
X31473D01*
X28846D02*
X29733D01*
X22467D02*
X23320D01*
X67496Y-579918D02*
X68929D01*
X65620D02*
X66814D01*
X63471D02*
X64904D01*
X61561D02*
X62754D01*
X59446D02*
X60878D01*
X57535D02*
X58729D01*
X55420D02*
X56819D01*
X53510D02*
X54704D01*
X51361D02*
X52794D01*
X43310D02*
X44231D01*
X40718D02*
X41809D01*
X36829D02*
X37681D01*
X34372D02*
X35225D01*
X32633D02*
X33486D01*
X30586D02*
X31473D01*
X28846D02*
X29733D01*
X22467D02*
X23320D01*
X67496Y-579884D02*
X68963D01*
X65654D02*
X66780D01*
X63471D02*
X64904D01*
X61629D02*
X62720D01*
X59412D02*
X60878D01*
X57569D02*
X58695D01*
X55386D02*
X56853D01*
X53544D02*
X54670D01*
X51361D02*
X52828D01*
X43310D02*
X44231D01*
X40649D02*
X41809D01*
X36829D02*
X37681D01*
X34372D02*
X35225D01*
X32633D02*
X33486D01*
X30586D02*
X31473D01*
X28846D02*
X29733D01*
X22467D02*
X23320D01*
X67462Y-579849D02*
X68963D01*
X65688D02*
X66712D01*
X63437D02*
X64938D01*
X61663D02*
X62686D01*
X59412D02*
X60912D01*
X57604D02*
X58661D01*
X55352D02*
X56853D01*
X53578D02*
X54602D01*
X51327D02*
X52828D01*
X43310D02*
X44231D01*
X40581D02*
X41775D01*
X36829D02*
X37681D01*
X34372D02*
X35225D01*
X32633D02*
X33486D01*
X30586D02*
X31439D01*
X28846D02*
X29733D01*
X22467D02*
X23320D01*
X67462Y-579815D02*
X68997D01*
X65756D02*
X66677D01*
X63403D02*
X64972D01*
X61697D02*
X62618D01*
X59377D02*
X60912D01*
X57672D02*
X58593D01*
X55352D02*
X56887D01*
X53646D02*
X54567D01*
X51327D02*
X52862D01*
X43310D02*
X44231D01*
X40513D02*
X41775D01*
X36829D02*
X37681D01*
X34372D02*
X35225D01*
X32667D02*
X33520D01*
X30552D02*
X31439D01*
X28846D02*
X29733D01*
X22467D02*
X23320D01*
X67428Y-579781D02*
X68997D01*
X65791D02*
X66609D01*
X63403D02*
X64972D01*
X61765D02*
X62584D01*
X59377D02*
X60947D01*
X57740D02*
X58525D01*
X55318D02*
X56887D01*
X53680D02*
X54499D01*
X51293D02*
X52862D01*
X43310D02*
X44231D01*
X40411D02*
X41741D01*
X36829D02*
X37681D01*
X34372D02*
X35225D01*
X32667D02*
X33520D01*
X30552D02*
X31439D01*
X28846D02*
X29733D01*
X22467D02*
X23320D01*
X67428Y-579747D02*
X69031D01*
X65893D02*
X66541D01*
X63369D02*
X65006D01*
X61834D02*
X62482D01*
X59343D02*
X60947D01*
X57808D02*
X58456D01*
X55318D02*
X56921D01*
X53783D02*
X54431D01*
X51293D02*
X52896D01*
X43310D02*
X44231D01*
X40308D02*
X41707D01*
X36829D02*
X37681D01*
X34372D02*
X35225D01*
X32667D02*
X33520D01*
X30552D02*
X31405D01*
X28846D02*
X29733D01*
X22467D02*
X23320D01*
X67394Y-579713D02*
X69031D01*
X65995D02*
X66439D01*
X63369D02*
X65006D01*
X61936D02*
X62379D01*
X59343D02*
X60981D01*
X57911D02*
X58354D01*
X55318D02*
X56921D01*
X53885D02*
X54329D01*
X51258D02*
X52896D01*
X43310D02*
X44231D01*
X40172D02*
X41707D01*
X36829D02*
X37681D01*
X34372D02*
X35225D01*
X32701D02*
X33554D01*
X30518D02*
X31405D01*
X28846D02*
X29733D01*
X22467D02*
X27004D01*
X67394Y-579679D02*
X69065D01*
X63369D02*
X65006D01*
X59309D02*
X60981D01*
X55284D02*
X56955D01*
X51258D02*
X52896D01*
X43310D02*
X44231D01*
X39967D02*
X41673D01*
X36829D02*
X37681D01*
X34372D02*
X35225D01*
X32701D02*
X33554D01*
X30518D02*
X31405D01*
X28846D02*
X29733D01*
X22467D02*
X27004D01*
X67394Y-579645D02*
X69065D01*
X63369D02*
X65006D01*
X59309D02*
X60981D01*
X55284D02*
X56955D01*
X51258D02*
X52930D01*
X43310D02*
X44231D01*
X36829D02*
X41639D01*
X34372D02*
X35225D01*
X32701D02*
X33554D01*
X30518D02*
X31371D01*
X28846D02*
X29733D01*
X22467D02*
X27004D01*
X67394Y-579611D02*
X69065D01*
X63335D02*
X65040D01*
X59309D02*
X60981D01*
X55284D02*
X56955D01*
X51224D02*
X52930D01*
X43310D02*
X44231D01*
X36829D02*
X41605D01*
X34372D02*
X35225D01*
X32735D02*
X33588D01*
X30484D02*
X31371D01*
X28846D02*
X29733D01*
X22467D02*
X27004D01*
X67360Y-579577D02*
X69065D01*
X63335D02*
X65040D01*
X59309D02*
X61015D01*
X55250D02*
X56955D01*
X51224D02*
X52930D01*
X43310D02*
X44231D01*
X36829D02*
X41570D01*
X34372D02*
X35225D01*
X32735D02*
X33588D01*
X30484D02*
X31371D01*
X28846D02*
X29733D01*
X22467D02*
X27004D01*
X67360Y-579542D02*
X69065D01*
X63335D02*
X65040D01*
X59309D02*
X61015D01*
X55250D02*
X56955D01*
X51224D02*
X52930D01*
X43310D02*
X44231D01*
X36829D02*
X41536D01*
X34372D02*
X35225D01*
X32735D02*
X33588D01*
X30484D02*
X31336D01*
X28846D02*
X29733D01*
X22467D02*
X27004D01*
X67360Y-579508D02*
X69065D01*
X63335D02*
X65040D01*
X59309D02*
X61015D01*
X55250D02*
X56989D01*
X51224D02*
X52930D01*
X43310D02*
X44231D01*
X36829D02*
X41502D01*
X34372D02*
X35225D01*
X32769D02*
X33622D01*
X30450D02*
X31336D01*
X28846D02*
X29733D01*
X22467D02*
X27004D01*
X67360Y-579474D02*
X69065D01*
X63335D02*
X65040D01*
X59275D02*
X61015D01*
X55250D02*
X56989D01*
X51224D02*
X52930D01*
X43310D02*
X44231D01*
X36829D02*
X41468D01*
X34372D02*
X35225D01*
X32769D02*
X33622D01*
X30450D02*
X31336D01*
X28846D02*
X29733D01*
X22467D02*
X27004D01*
X67360Y-579440D02*
X69065D01*
X63335D02*
X65040D01*
X59275D02*
X61015D01*
X55250D02*
X56989D01*
X51224D02*
X52930D01*
X43310D02*
X44231D01*
X36829D02*
X41434D01*
X34372D02*
X35225D01*
X32769D02*
X33622D01*
X30450D02*
X31302D01*
X28846D02*
X29733D01*
X22467D02*
X27004D01*
X67360Y-579406D02*
X69065D01*
X63335D02*
X65040D01*
X59275D02*
X61015D01*
X55250D02*
X56989D01*
X51224D02*
X52930D01*
X43310D02*
X44231D01*
X36829D02*
X41400D01*
X34372D02*
X35225D01*
X32803D02*
X33656D01*
X30415D02*
X31302D01*
X28846D02*
X29733D01*
X22467D02*
X27004D01*
X67360Y-579372D02*
X69065D01*
X63335D02*
X65040D01*
X59275D02*
X61015D01*
X55250D02*
X56989D01*
X51224D02*
X52930D01*
X43310D02*
X44231D01*
X36829D02*
X41332D01*
X34372D02*
X35225D01*
X32803D02*
X33656D01*
X30415D02*
X31302D01*
X28846D02*
X29733D01*
X22467D02*
X27004D01*
X67360Y-579338D02*
X69065D01*
X63335D02*
X65040D01*
X59275D02*
X61015D01*
X55250D02*
X56989D01*
X51224D02*
X52930D01*
X43310D02*
X44231D01*
X36829D02*
X41297D01*
X34372D02*
X35225D01*
X32803D02*
X33656D01*
X30415D02*
X31268D01*
X28846D02*
X29733D01*
X22467D02*
X27004D01*
X67360Y-579304D02*
X69065D01*
X63335D02*
X65040D01*
X59309D02*
X61015D01*
X55250D02*
X56989D01*
X51224D02*
X52930D01*
X43310D02*
X44231D01*
X36829D02*
X41229D01*
X34372D02*
X35225D01*
X32837D02*
X33690D01*
X30381D02*
X31268D01*
X28846D02*
X29733D01*
X22467D02*
X27004D01*
X67360Y-579270D02*
X69065D01*
X63335D02*
X65040D01*
X59309D02*
X61015D01*
X55250D02*
X56955D01*
X51224D02*
X52930D01*
X43310D02*
X44231D01*
X36829D02*
X41161D01*
X34372D02*
X35225D01*
X32837D02*
X33690D01*
X30381D02*
X31268D01*
X28846D02*
X29733D01*
X22467D02*
X27004D01*
X67360Y-579236D02*
X69065D01*
X63335D02*
X65040D01*
X59309D02*
X61015D01*
X55284D02*
X56955D01*
X51224D02*
X52930D01*
X43310D02*
X44231D01*
X36829D02*
X41093D01*
X34372D02*
X35225D01*
X32837D02*
X33690D01*
X30381D02*
X31234D01*
X28846D02*
X29733D01*
X22467D02*
X27004D01*
X67394Y-579201D02*
X69065D01*
X63335D02*
X65040D01*
X59309D02*
X60981D01*
X55284D02*
X56955D01*
X51258D02*
X52930D01*
X43310D02*
X44231D01*
X36829D02*
X41025D01*
X34372D02*
X35225D01*
X32871D02*
X33724D01*
X30347D02*
X31234D01*
X28846D02*
X29733D01*
X22467D02*
X27004D01*
X67394Y-579167D02*
X69065D01*
X63369D02*
X65006D01*
X59309D02*
X60981D01*
X55284D02*
X56955D01*
X51258D02*
X52896D01*
X43310D02*
X44231D01*
X36829D02*
X40956D01*
X34372D02*
X35225D01*
X32871D02*
X33724D01*
X30347D02*
X31234D01*
X28846D02*
X29733D01*
X22467D02*
X27004D01*
X67394Y-579133D02*
X69031D01*
X66063D02*
X66370D01*
X63369D02*
X65006D01*
X62004D02*
X62311D01*
X59343D02*
X60981D01*
X57979D02*
X58286D01*
X55284D02*
X56921D01*
X53953D02*
X54260D01*
X51258D02*
X52896D01*
X43310D02*
X44231D01*
X36829D02*
X40888D01*
X34372D02*
X35225D01*
X32871D02*
X33724D01*
X30347D02*
X31200D01*
X28846D02*
X29733D01*
X22467D02*
X27004D01*
X67428Y-579099D02*
X69031D01*
X65927D02*
X66507D01*
X63369D02*
X65006D01*
X61868D02*
X62448D01*
X59343D02*
X60947D01*
X57842D02*
X58422D01*
X55318D02*
X56921D01*
X53817D02*
X54397D01*
X51258D02*
X52896D01*
X43310D02*
X44231D01*
X36829D02*
X40956D01*
X34372D02*
X35225D01*
X32906D02*
X33759D01*
X30313D02*
X31200D01*
X28846D02*
X29733D01*
X22467D02*
X27004D01*
X67428Y-579065D02*
X69031D01*
X65825D02*
X66575D01*
X63403D02*
X64972D01*
X61799D02*
X62550D01*
X59343D02*
X60947D01*
X57774D02*
X58525D01*
X55318D02*
X56921D01*
X53715D02*
X54465D01*
X51293D02*
X52862D01*
X43310D02*
X44231D01*
X36829D02*
X41025D01*
X34372D02*
X35225D01*
X32906D02*
X33759D01*
X30313D02*
X31200D01*
X28846D02*
X29733D01*
X22467D02*
X27004D01*
X67428Y-579031D02*
X68997D01*
X65756D02*
X66643D01*
X63403D02*
X64972D01*
X61731D02*
X62618D01*
X59377D02*
X60947D01*
X57706D02*
X58559D01*
X55352D02*
X56887D01*
X53646D02*
X54533D01*
X51293D02*
X52862D01*
X43310D02*
X44231D01*
X36829D02*
X41059D01*
X34372D02*
X35225D01*
X32906D02*
X33759D01*
X30313D02*
X31166D01*
X28846D02*
X29733D01*
X22467D02*
X27004D01*
X67462Y-578997D02*
X68997D01*
X65722D02*
X66712D01*
X63437D02*
X64938D01*
X61663D02*
X62652D01*
X59377D02*
X60912D01*
X57638D02*
X58627D01*
X55352D02*
X56887D01*
X53612D02*
X54602D01*
X51327D02*
X52828D01*
X43310D02*
X44231D01*
X36829D02*
X41127D01*
X34372D02*
X35225D01*
X32940D02*
X33793D01*
X30279D02*
X31166D01*
X28846D02*
X29733D01*
X22467D02*
X27004D01*
X67496Y-578963D02*
X68963D01*
X65654D02*
X66746D01*
X63437D02*
X64938D01*
X61629D02*
X62720D01*
X59412D02*
X60878D01*
X57604D02*
X58661D01*
X55386D02*
X56853D01*
X53544D02*
X54636D01*
X51327D02*
X52828D01*
X43310D02*
X44231D01*
X36829D02*
X41161D01*
X34372D02*
X35225D01*
X32940D02*
X33793D01*
X30279D02*
X31166D01*
X28846D02*
X29733D01*
X22467D02*
X27004D01*
X67496Y-578929D02*
X68929D01*
X65620D02*
X66780D01*
X63471D02*
X64904D01*
X61595D02*
X62754D01*
X59446D02*
X60878D01*
X57569D02*
X58729D01*
X55386D02*
X56819D01*
X53510D02*
X54670D01*
X51361D02*
X52794D01*
X43310D02*
X44231D01*
X36829D02*
X41195D01*
X34372D02*
X35225D01*
X32940D02*
X33793D01*
X30279D02*
X31132D01*
X28846D02*
X29733D01*
X22467D02*
X27004D01*
X67530Y-578894D02*
X68929D01*
X65586D02*
X66814D01*
X63505D02*
X64870D01*
X61561D02*
X62789D01*
X59446D02*
X60844D01*
X57501D02*
X58763D01*
X55420D02*
X56819D01*
X53476D02*
X54704D01*
X51395D02*
X52759D01*
X43310D02*
X44231D01*
X36829D02*
X41229D01*
X34372D02*
X35225D01*
X32974D02*
X33827D01*
X30245D02*
X31132D01*
X28846D02*
X29733D01*
X22467D02*
X27004D01*
X67564Y-578860D02*
X68895D01*
X65552D02*
X66848D01*
X63505D02*
X64870D01*
X61527D02*
X62823D01*
X59480D02*
X60810D01*
X57501D02*
X58797D01*
X55454D02*
X56785D01*
X53442D02*
X54738D01*
X51429D02*
X52759D01*
X43310D02*
X44231D01*
X36829D02*
X41263D01*
X34372D02*
X35225D01*
X32974D02*
X33827D01*
X30245D02*
X31132D01*
X28846D02*
X29733D01*
X22467D02*
X27004D01*
X67599Y-578826D02*
X68861D01*
X65518D02*
X66882D01*
X63539D02*
X64835D01*
X61492D02*
X62857D01*
X59514D02*
X60776D01*
X57467D02*
X58797D01*
X55489D02*
X56751D01*
X53408D02*
X54772D01*
X51429D02*
X52725D01*
X43310D02*
X44231D01*
X39524D02*
X41297D01*
X36829D02*
X37681D01*
X34372D02*
X35225D01*
X32974D02*
X33827D01*
X30245D02*
X31098D01*
X28846D02*
X29733D01*
X22467D02*
X23320D01*
X67633Y-578792D02*
X68827D01*
X65518D02*
X66916D01*
X63573D02*
X64801D01*
X61458D02*
X62857D01*
X59548D02*
X60742D01*
X57433D02*
X58832D01*
X55523D02*
X56717D01*
X53408D02*
X54806D01*
X51463D02*
X52691D01*
X43310D02*
X44231D01*
X39899D02*
X41332D01*
X36829D02*
X37681D01*
X34372D02*
X35225D01*
X33008D02*
X33861D01*
X30211D02*
X31098D01*
X28846D02*
X29733D01*
X22467D02*
X23320D01*
X67667Y-578758D02*
X68793D01*
X65484D02*
X66916D01*
X63607D02*
X64767D01*
X61458D02*
X62891D01*
X59582D02*
X60708D01*
X57399D02*
X58866D01*
X55557D02*
X56682D01*
X53373D02*
X54840D01*
X51497D02*
X52657D01*
X43310D02*
X44231D01*
X40069D02*
X41366D01*
X36829D02*
X37681D01*
X34372D02*
X35225D01*
X33008D02*
X33861D01*
X30211D02*
X31098D01*
X28846D02*
X29733D01*
X22467D02*
X23320D01*
X67701Y-578724D02*
X68758D01*
X65450D02*
X66951D01*
X63676D02*
X64699D01*
X61424D02*
X62925D01*
X59616D02*
X60674D01*
X57399D02*
X58866D01*
X55591D02*
X56648D01*
X53339D02*
X54840D01*
X51565D02*
X52623D01*
X43310D02*
X44231D01*
X40172D02*
X41400D01*
X36829D02*
X37681D01*
X34372D02*
X35225D01*
X33008D02*
X33861D01*
X30211D02*
X31064D01*
X28846D02*
X29733D01*
X22467D02*
X23320D01*
X67735Y-578690D02*
X68690D01*
X65450D02*
X66985D01*
X63710D02*
X64665D01*
X61390D02*
X62925D01*
X59684D02*
X60640D01*
X57365D02*
X58900D01*
X55625D02*
X56580D01*
X53339D02*
X54874D01*
X51600D02*
X52555D01*
X43310D02*
X44231D01*
X40274D02*
X41434D01*
X36829D02*
X37681D01*
X34372D02*
X35225D01*
X33042D02*
X33895D01*
X30211D02*
X31064D01*
X28846D02*
X29733D01*
X22467D02*
X23320D01*
X67803Y-578656D02*
X68656D01*
X65415D02*
X66985D01*
X63778D02*
X64597D01*
X61390D02*
X62959D01*
X59719D02*
X60571D01*
X57365D02*
X58934D01*
X55693D02*
X56546D01*
X53305D02*
X54874D01*
X51668D02*
X52486D01*
X43310D02*
X44231D01*
X40342D02*
X41434D01*
X36829D02*
X37681D01*
X34372D02*
X35225D01*
X33042D02*
X33895D01*
X30177D02*
X31064D01*
X28846D02*
X29733D01*
X22467D02*
X23320D01*
X67871Y-578621D02*
X68588D01*
X65415D02*
X67019D01*
X63846D02*
X64528D01*
X61356D02*
X62959D01*
X59787D02*
X60503D01*
X57331D02*
X58934D01*
X55761D02*
X56478D01*
X53305D02*
X54909D01*
X51736D02*
X52418D01*
X43310D02*
X44231D01*
X40411D02*
X41468D01*
X36829D02*
X37681D01*
X34372D02*
X35225D01*
X33042D02*
X33895D01*
X30177D02*
X31029D01*
X28846D02*
X29733D01*
X22467D02*
X23320D01*
X67974Y-578587D02*
X68485D01*
X65381D02*
X67019D01*
X63949D02*
X64426D01*
X61356D02*
X62993D01*
X59889D02*
X60401D01*
X57331D02*
X58934D01*
X55864D02*
X56375D01*
X53271D02*
X54909D01*
X51838D02*
X52350D01*
X43310D02*
X44231D01*
X40445D02*
X41468D01*
X36829D02*
X37681D01*
X34372D02*
X35225D01*
X33076D02*
X33929D01*
X30177D02*
X31029D01*
X28846D02*
X29733D01*
X22467D02*
X23320D01*
X65381Y-578553D02*
X67019D01*
X61356D02*
X62993D01*
X57297D02*
X58968D01*
X53271D02*
X54909D01*
X43310D02*
X44231D01*
X40513D02*
X41502D01*
X36829D02*
X37681D01*
X34372D02*
X35225D01*
X33076D02*
X33929D01*
X30143D02*
X31029D01*
X28846D02*
X29733D01*
X22467D02*
X23320D01*
X65381Y-578519D02*
X67053D01*
X61322D02*
X62993D01*
X57297D02*
X58968D01*
X53271D02*
X54943D01*
X43310D02*
X44231D01*
X40547D02*
X41502D01*
X36829D02*
X37681D01*
X34372D02*
X35225D01*
X33076D02*
X33929D01*
X30143D02*
X30995D01*
X28846D02*
X29733D01*
X22467D02*
X23320D01*
X65347Y-578485D02*
X67053D01*
X61322D02*
X63027D01*
X57297D02*
X58968D01*
X53271D02*
X54943D01*
X43310D02*
X44231D01*
X40581D02*
X41536D01*
X36829D02*
X37681D01*
X34372D02*
X35225D01*
X33110D02*
X33963D01*
X30143D02*
X30995D01*
X28846D02*
X29733D01*
X22467D02*
X23320D01*
X65347Y-578451D02*
X67053D01*
X61322D02*
X63027D01*
X57297D02*
X58968D01*
X53237D02*
X54943D01*
X43310D02*
X44231D01*
X40615D02*
X41536D01*
X36829D02*
X37681D01*
X34372D02*
X35225D01*
X33110D02*
X33963D01*
X30108D02*
X30995D01*
X28846D02*
X29733D01*
X22467D02*
X23320D01*
X65347Y-578417D02*
X67053D01*
X61322D02*
X63027D01*
X57297D02*
X59002D01*
X53237D02*
X54943D01*
X43310D02*
X44231D01*
X40649D02*
X41570D01*
X36829D02*
X37681D01*
X34372D02*
X35225D01*
X33110D02*
X33963D01*
X30108D02*
X30961D01*
X28846D02*
X29733D01*
X22467D02*
X23320D01*
X65347Y-578383D02*
X67053D01*
X61322D02*
X63027D01*
X57262D02*
X59002D01*
X53237D02*
X54943D01*
X43310D02*
X44231D01*
X40649D02*
X41570D01*
X36829D02*
X37681D01*
X34372D02*
X35225D01*
X33144D02*
X33963D01*
X30108D02*
X30961D01*
X28846D02*
X29733D01*
X22467D02*
X23320D01*
X65347Y-578348D02*
X67053D01*
X61322D02*
X63027D01*
X57262D02*
X59002D01*
X53237D02*
X54977D01*
X43310D02*
X44231D01*
X40683D02*
X41570D01*
X36829D02*
X37681D01*
X34372D02*
X35225D01*
X33144D02*
X33997D01*
X30074D02*
X30961D01*
X28846D02*
X29733D01*
X22467D02*
X23320D01*
X65347Y-578314D02*
X67053D01*
X61322D02*
X63027D01*
X57262D02*
X59002D01*
X53237D02*
X54977D01*
X43310D02*
X44231D01*
X40718D02*
X41605D01*
X36829D02*
X37681D01*
X34372D02*
X35225D01*
X33144D02*
X33997D01*
X30074D02*
X30927D01*
X28846D02*
X29733D01*
X22467D02*
X23320D01*
X65347Y-578280D02*
X67053D01*
X61322D02*
X63027D01*
X57262D02*
X59002D01*
X53237D02*
X54977D01*
X43310D02*
X44231D01*
X40718D02*
X41605D01*
X36829D02*
X37681D01*
X34372D02*
X35225D01*
X33179D02*
X33997D01*
X30074D02*
X30927D01*
X28846D02*
X29699D01*
X22467D02*
X23320D01*
X65347Y-578246D02*
X67053D01*
X61322D02*
X63027D01*
X57262D02*
X59002D01*
X53237D02*
X54977D01*
X43310D02*
X44231D01*
X40752D02*
X41605D01*
X36829D02*
X37681D01*
X34372D02*
X35225D01*
X33179D02*
X34031D01*
X30040D02*
X30927D01*
X28846D02*
X29699D01*
X22467D02*
X23320D01*
X65347Y-578212D02*
X67053D01*
X61322D02*
X63027D01*
X57262D02*
X59002D01*
X53237D02*
X54943D01*
X43310D02*
X44231D01*
X40752D02*
X41639D01*
X36829D02*
X37681D01*
X34372D02*
X35225D01*
X33179D02*
X34031D01*
X30040D02*
X30893D01*
X28846D02*
X29699D01*
X22467D02*
X23320D01*
X65347Y-578178D02*
X67053D01*
X61322D02*
X63027D01*
X57262D02*
X59002D01*
X53237D02*
X54943D01*
X43310D02*
X44231D01*
X40786D02*
X41639D01*
X36829D02*
X37681D01*
X34372D02*
X35225D01*
X33213D02*
X34031D01*
X30040D02*
X30893D01*
X28846D02*
X29699D01*
X22467D02*
X23320D01*
X65347Y-578144D02*
X67053D01*
X61322D02*
X63027D01*
X57297D02*
X59002D01*
X53237D02*
X54943D01*
X43310D02*
X44231D01*
X40786D02*
X41639D01*
X36829D02*
X37681D01*
X34372D02*
X35225D01*
X33213D02*
X34065D01*
X30006D02*
X30893D01*
X28846D02*
X29699D01*
X22467D02*
X23320D01*
X65347Y-578110D02*
X67053D01*
X61322D02*
X63027D01*
X57297D02*
X58968D01*
X53237D02*
X54943D01*
X43310D02*
X44231D01*
X40786D02*
X41639D01*
X36829D02*
X37681D01*
X34372D02*
X35225D01*
X33213D02*
X34065D01*
X30006D02*
X30859D01*
X28846D02*
X29699D01*
X22467D02*
X23320D01*
X65347Y-578076D02*
X67053D01*
X61322D02*
X63027D01*
X57297D02*
X58968D01*
X53271D02*
X54943D01*
X43310D02*
X44231D01*
X40786D02*
X41639D01*
X36829D02*
X37681D01*
X34372D02*
X35225D01*
X33247D02*
X34065D01*
X30006D02*
X30859D01*
X28846D02*
X29699D01*
X22467D02*
X23320D01*
X65381Y-578042D02*
X67053D01*
X61322D02*
X62993D01*
X57297D02*
X58968D01*
X53271D02*
X54943D01*
X43310D02*
X44231D01*
X40820D02*
X41639D01*
X36829D02*
X37681D01*
X34372D02*
X35225D01*
X33247D02*
X34100D01*
X29972D02*
X30859D01*
X28846D02*
X29699D01*
X22467D02*
X23320D01*
X68144Y-578007D02*
X68315D01*
X65381D02*
X67019D01*
X64119D02*
X64255D01*
X61356D02*
X62993D01*
X60060D02*
X60230D01*
X57297D02*
X58968D01*
X56034D02*
X56205D01*
X53271D02*
X54909D01*
X52009D02*
X52145D01*
X43310D02*
X44231D01*
X40820D02*
X41639D01*
X36829D02*
X37681D01*
X34372D02*
X35225D01*
X33247D02*
X34100D01*
X29972D02*
X30825D01*
X28846D02*
X29699D01*
X22467D02*
X23320D01*
X67974Y-577973D02*
X68485D01*
X65381D02*
X67019D01*
X63914D02*
X64460D01*
X61356D02*
X62993D01*
X59889D02*
X60401D01*
X57331D02*
X58934D01*
X55864D02*
X56375D01*
X53271D02*
X54909D01*
X51804D02*
X52350D01*
X43310D02*
X44231D01*
X40820D02*
X41673D01*
X36829D02*
X37681D01*
X34372D02*
X35225D01*
X33281D02*
X34100D01*
X29972D02*
X30825D01*
X28846D02*
X29699D01*
X22467D02*
X23320D01*
X67871Y-577939D02*
X68588D01*
X65415D02*
X67019D01*
X63846D02*
X64528D01*
X61356D02*
X62959D01*
X59787D02*
X60503D01*
X57331D02*
X58934D01*
X55761D02*
X56478D01*
X53305D02*
X54909D01*
X51736D02*
X52452D01*
X43310D02*
X44231D01*
X40820D02*
X41673D01*
X36829D02*
X37681D01*
X34372D02*
X35225D01*
X33281D02*
X34134D01*
X29938D02*
X30825D01*
X28846D02*
X29699D01*
X22467D02*
X23320D01*
X67803Y-577905D02*
X68656D01*
X65415D02*
X66985D01*
X63778D02*
X64597D01*
X61390D02*
X62959D01*
X59719D02*
X60571D01*
X57365D02*
X58900D01*
X55693D02*
X56546D01*
X53305D02*
X54874D01*
X51668D02*
X52521D01*
X43310D02*
X44231D01*
X40820D02*
X41673D01*
X36829D02*
X37681D01*
X34372D02*
X35225D01*
X33281D02*
X34134D01*
X29938D02*
X30791D01*
X28846D02*
X29699D01*
X22467D02*
X23320D01*
X67735Y-577871D02*
X68690D01*
X65450D02*
X66985D01*
X63710D02*
X64665D01*
X61390D02*
X62925D01*
X59684D02*
X60640D01*
X57365D02*
X58900D01*
X55625D02*
X56614D01*
X53339D02*
X54874D01*
X51600D02*
X52555D01*
X43310D02*
X44231D01*
X40820D02*
X41673D01*
X36829D02*
X37681D01*
X34372D02*
X35225D01*
X33315D02*
X34134D01*
X29938D02*
X30791D01*
X28846D02*
X29699D01*
X22467D02*
X23320D01*
X67701Y-577837D02*
X68758D01*
X65450D02*
X66951D01*
X63642D02*
X64733D01*
X61424D02*
X62925D01*
X59616D02*
X60674D01*
X57399D02*
X58866D01*
X55591D02*
X56648D01*
X53339D02*
X54840D01*
X51565D02*
X52623D01*
X43310D02*
X44231D01*
X40820D02*
X41673D01*
X36829D02*
X37681D01*
X34372D02*
X35225D01*
X33315D02*
X34168D01*
X29904D02*
X30791D01*
X28846D02*
X29699D01*
X22467D02*
X23320D01*
X67667Y-577803D02*
X68793D01*
X65484D02*
X66916D01*
X63607D02*
X64767D01*
X61458D02*
X62891D01*
X59582D02*
X60708D01*
X57399D02*
X58866D01*
X55557D02*
X56682D01*
X53373D02*
X54840D01*
X51497D02*
X52657D01*
X43310D02*
X44231D01*
X40820D02*
X41673D01*
X36829D02*
X37681D01*
X34372D02*
X35225D01*
X33315D02*
X34168D01*
X29904D02*
X30757D01*
X28846D02*
X29699D01*
X22467D02*
X23320D01*
X67599Y-577769D02*
X68827D01*
X65518D02*
X66916D01*
X63573D02*
X64801D01*
X61458D02*
X62857D01*
X59548D02*
X60776D01*
X57433D02*
X58832D01*
X55523D02*
X56717D01*
X53408D02*
X54806D01*
X51463D02*
X52691D01*
X43310D02*
X44231D01*
X40820D02*
X41673D01*
X36829D02*
X37681D01*
X34372D02*
X35225D01*
X33349D02*
X34168D01*
X29904D02*
X30757D01*
X28846D02*
X29699D01*
X22467D02*
X23320D01*
X67564Y-577735D02*
X68861D01*
X65518D02*
X66882D01*
X63539D02*
X64835D01*
X61492D02*
X62857D01*
X59514D02*
X60810D01*
X57467D02*
X58797D01*
X55489D02*
X56751D01*
X53408D02*
X54772D01*
X51429D02*
X52725D01*
X43310D02*
X44231D01*
X40820D02*
X41673D01*
X36829D02*
X37681D01*
X34372D02*
X35225D01*
X33349D02*
X34202D01*
X29870D02*
X30757D01*
X28846D02*
X29699D01*
X22467D02*
X23320D01*
X67564Y-577700D02*
X68895D01*
X65552D02*
X66848D01*
X63505D02*
X64870D01*
X61527D02*
X62823D01*
X59480D02*
X60810D01*
X57501D02*
X58797D01*
X55454D02*
X56785D01*
X53442D02*
X54738D01*
X51395D02*
X52759D01*
X43310D02*
X44231D01*
X40820D02*
X41673D01*
X36829D02*
X37681D01*
X34372D02*
X35225D01*
X33349D02*
X34202D01*
X29870D02*
X30722D01*
X28846D02*
X29699D01*
X22467D02*
X23320D01*
X67530Y-577666D02*
X68929D01*
X65586D02*
X66814D01*
X63505D02*
X64870D01*
X61561D02*
X62789D01*
X59446D02*
X60844D01*
X57535D02*
X58763D01*
X55420D02*
X56819D01*
X53476D02*
X54704D01*
X51395D02*
X52794D01*
X43310D02*
X44231D01*
X40820D02*
X41673D01*
X36829D02*
X37681D01*
X34372D02*
X35225D01*
X33383D02*
X34202D01*
X29870D02*
X30722D01*
X28846D02*
X29699D01*
X22467D02*
X23320D01*
X67496Y-577632D02*
X68929D01*
X65620D02*
X66780D01*
X63471D02*
X64904D01*
X61595D02*
X62754D01*
X59446D02*
X60878D01*
X57569D02*
X58695D01*
X55386D02*
X56853D01*
X53510D02*
X54670D01*
X51361D02*
X52794D01*
X43310D02*
X44231D01*
X40820D02*
X41673D01*
X36829D02*
X37681D01*
X34372D02*
X35225D01*
X33383D02*
X34236D01*
X29836D02*
X30722D01*
X28846D02*
X29699D01*
X22467D02*
X23320D01*
X67496Y-577598D02*
X68963D01*
X65654D02*
X66746D01*
X63437D02*
X64938D01*
X61629D02*
X62720D01*
X59412D02*
X60878D01*
X57604D02*
X58661D01*
X55386D02*
X56853D01*
X53578D02*
X54636D01*
X51327D02*
X52828D01*
X43310D02*
X44231D01*
X40820D02*
X41673D01*
X36829D02*
X37681D01*
X34372D02*
X35225D01*
X33383D02*
X34236D01*
X29836D02*
X30688D01*
X28846D02*
X29699D01*
X22467D02*
X23320D01*
X67462Y-577564D02*
X68997D01*
X65722D02*
X66712D01*
X63437D02*
X64938D01*
X61663D02*
X62652D01*
X59377D02*
X60912D01*
X57638D02*
X58627D01*
X55352D02*
X56887D01*
X53612D02*
X54602D01*
X51327D02*
X52828D01*
X43310D02*
X44231D01*
X40820D02*
X41673D01*
X36829D02*
X37681D01*
X34372D02*
X35225D01*
X33417D02*
X34236D01*
X29836D02*
X30688D01*
X28846D02*
X29699D01*
X22467D02*
X23320D01*
X67428Y-577530D02*
X68997D01*
X65756D02*
X66643D01*
X63403D02*
X64972D01*
X61731D02*
X62618D01*
X59377D02*
X60947D01*
X57706D02*
X58559D01*
X55352D02*
X56887D01*
X53680D02*
X54533D01*
X51293D02*
X52862D01*
X43310D02*
X44231D01*
X40820D02*
X41673D01*
X36829D02*
X37681D01*
X34372D02*
X35225D01*
X33417D02*
X34270D01*
X29801D02*
X30688D01*
X28846D02*
X29699D01*
X22467D02*
X23320D01*
X67428Y-577496D02*
X69031D01*
X65825D02*
X66575D01*
X63403D02*
X64972D01*
X61799D02*
X62550D01*
X59343D02*
X60947D01*
X57774D02*
X58490D01*
X55318D02*
X56921D01*
X53715D02*
X54465D01*
X51293D02*
X52862D01*
X43310D02*
X44231D01*
X40786D02*
X41673D01*
X36829D02*
X37681D01*
X34372D02*
X35225D01*
X33417D02*
X34270D01*
X29801D02*
X30654D01*
X28846D02*
X29699D01*
X22467D02*
X23320D01*
X67428Y-577462D02*
X69031D01*
X65927D02*
X66473D01*
X63369D02*
X65006D01*
X61902D02*
X62448D01*
X59343D02*
X60947D01*
X57842D02*
X58422D01*
X55318D02*
X56921D01*
X53817D02*
X54397D01*
X51258D02*
X52896D01*
X43310D02*
X44231D01*
X40786D02*
X41673D01*
X36829D02*
X37681D01*
X34372D02*
X35225D01*
X33451D02*
X34270D01*
X29801D02*
X30654D01*
X28846D02*
X29699D01*
X22467D02*
X23320D01*
X67394Y-577427D02*
X69031D01*
X66063D02*
X66336D01*
X63369D02*
X65006D01*
X62038D02*
X62311D01*
X59343D02*
X60981D01*
X58013D02*
X58286D01*
X55284D02*
X56921D01*
X53953D02*
X54226D01*
X51258D02*
X52896D01*
X43310D02*
X44231D01*
X40786D02*
X41639D01*
X36829D02*
X37681D01*
X34372D02*
X35225D01*
X33451D02*
X34304D01*
X29767D02*
X30654D01*
X28846D02*
X29699D01*
X22467D02*
X23320D01*
X67394Y-577393D02*
X69065D01*
X63369D02*
X65006D01*
X59309D02*
X60981D01*
X55284D02*
X56955D01*
X51258D02*
X52896D01*
X43310D02*
X44231D01*
X40752D02*
X41639D01*
X36829D02*
X37681D01*
X34372D02*
X35225D01*
X33451D02*
X34304D01*
X29767D02*
X30620D01*
X28846D02*
X29699D01*
X22467D02*
X23320D01*
X67394Y-577359D02*
X69065D01*
X63335D02*
X65040D01*
X59309D02*
X60981D01*
X55284D02*
X56955D01*
X51224D02*
X52930D01*
X43310D02*
X44231D01*
X40752D02*
X41639D01*
X36829D02*
X37681D01*
X34372D02*
X35225D01*
X33486D02*
X34304D01*
X29767D02*
X30620D01*
X28846D02*
X29699D01*
X22467D02*
X23320D01*
X67360Y-577325D02*
X69065D01*
X63335D02*
X65040D01*
X59309D02*
X61015D01*
X55284D02*
X56955D01*
X51224D02*
X52930D01*
X43310D02*
X44231D01*
X40752D02*
X41639D01*
X36829D02*
X37681D01*
X34372D02*
X35225D01*
X33486D02*
X34338D01*
X29733D02*
X30620D01*
X28846D02*
X29699D01*
X22467D02*
X23320D01*
X67360Y-577291D02*
X69065D01*
X63335D02*
X65040D01*
X59309D02*
X61015D01*
X55250D02*
X56955D01*
X51224D02*
X52930D01*
X43310D02*
X44231D01*
X40718D02*
X41639D01*
X36829D02*
X37681D01*
X34372D02*
X35225D01*
X33486D02*
X34338D01*
X29733D02*
X30586D01*
X28846D02*
X29699D01*
X22467D02*
X23320D01*
X67360Y-577257D02*
X69065D01*
X63335D02*
X65040D01*
X59309D02*
X61015D01*
X55250D02*
X56989D01*
X51224D02*
X52930D01*
X43310D02*
X44231D01*
X40683D02*
X41639D01*
X36829D02*
X37681D01*
X34372D02*
X35225D01*
X33520D02*
X34338D01*
X29733D02*
X30586D01*
X28846D02*
X29699D01*
X22467D02*
X23320D01*
X67360Y-577223D02*
X69065D01*
X63335D02*
X65040D01*
X59275D02*
X61015D01*
X55250D02*
X56989D01*
X51224D02*
X52930D01*
X43310D02*
X44231D01*
X40683D02*
X41605D01*
X36829D02*
X37681D01*
X33520D02*
X35225D01*
X28846D02*
X30586D01*
X22467D02*
X23320D01*
X67360Y-577189D02*
X69065D01*
X63335D02*
X65040D01*
X59275D02*
X61015D01*
X55250D02*
X56989D01*
X51224D02*
X52930D01*
X43310D02*
X44231D01*
X40649D02*
X41605D01*
X36829D02*
X37681D01*
X33520D02*
X35225D01*
X28846D02*
X30552D01*
X22467D02*
X23320D01*
X67360Y-577155D02*
X69065D01*
X63335D02*
X65040D01*
X59275D02*
X61015D01*
X55250D02*
X56989D01*
X51224D02*
X52930D01*
X43310D02*
X44231D01*
X40615D02*
X41605D01*
X36829D02*
X37681D01*
X33554D02*
X35225D01*
X28846D02*
X30552D01*
X22467D02*
X23320D01*
X67360Y-577120D02*
X69065D01*
X63335D02*
X65040D01*
X59275D02*
X61015D01*
X55250D02*
X56989D01*
X51224D02*
X52930D01*
X43310D02*
X44231D01*
X40581D02*
X41605D01*
X36829D02*
X37681D01*
X33554D02*
X35225D01*
X28846D02*
X30552D01*
X22467D02*
X23320D01*
X67360Y-577086D02*
X69065D01*
X63335D02*
X65040D01*
X59275D02*
X61015D01*
X55250D02*
X56989D01*
X51224D02*
X52930D01*
X43310D02*
X44231D01*
X40547D02*
X41570D01*
X36829D02*
X37681D01*
X33554D02*
X35225D01*
X28846D02*
X30518D01*
X22467D02*
X23320D01*
X67360Y-577052D02*
X69065D01*
X63335D02*
X65040D01*
X59309D02*
X61015D01*
X55250D02*
X56989D01*
X51224D02*
X52930D01*
X43310D02*
X44231D01*
X40513D02*
X41570D01*
X36829D02*
X37681D01*
X33588D02*
X35225D01*
X28846D02*
X30518D01*
X22467D02*
X23320D01*
X67360Y-577018D02*
X69065D01*
X63335D02*
X65040D01*
X59309D02*
X61015D01*
X55250D02*
X56955D01*
X51224D02*
X52930D01*
X43310D02*
X44231D01*
X40479D02*
X41570D01*
X36829D02*
X37681D01*
X33588D02*
X35225D01*
X28846D02*
X30518D01*
X22467D02*
X23320D01*
X67360Y-576984D02*
X69065D01*
X63335D02*
X65040D01*
X59309D02*
X61015D01*
X55284D02*
X56955D01*
X51224D02*
X52930D01*
X43310D02*
X44231D01*
X40411D02*
X41536D01*
X36829D02*
X37681D01*
X33588D02*
X35225D01*
X28846D02*
X30484D01*
X22467D02*
X23320D01*
X67394Y-576950D02*
X69065D01*
X63335D02*
X65040D01*
X59309D02*
X60981D01*
X55284D02*
X56955D01*
X51224D02*
X52930D01*
X43310D02*
X44231D01*
X40342D02*
X41536D01*
X36829D02*
X37681D01*
X33622D02*
X35225D01*
X28846D02*
X30484D01*
X22467D02*
X23320D01*
X67394Y-576916D02*
X69065D01*
X63369D02*
X65006D01*
X59309D02*
X60981D01*
X55284D02*
X56955D01*
X51258D02*
X52930D01*
X43310D02*
X44231D01*
X40274D02*
X41502D01*
X36829D02*
X37681D01*
X33622D02*
X35225D01*
X28846D02*
X30484D01*
X22467D02*
X23320D01*
X67394Y-576882D02*
X69031D01*
X63369D02*
X65006D01*
X59343D02*
X60981D01*
X55284D02*
X56955D01*
X51258D02*
X52896D01*
X43310D02*
X44231D01*
X40172D02*
X41502D01*
X36829D02*
X37681D01*
X33622D02*
X35225D01*
X28846D02*
X30450D01*
X22467D02*
X23320D01*
X67394Y-576848D02*
X69031D01*
X65961D02*
X66439D01*
X63369D02*
X65006D01*
X61936D02*
X62413D01*
X59343D02*
X60981D01*
X57911D02*
X58354D01*
X55318D02*
X56921D01*
X53851D02*
X54329D01*
X51258D02*
X52896D01*
X43310D02*
X44231D01*
X40069D02*
X41502D01*
X36829D02*
X37681D01*
X33656D02*
X35225D01*
X28846D02*
X30450D01*
X22467D02*
X23320D01*
X67428Y-576814D02*
X69031D01*
X65859D02*
X66541D01*
X63403D02*
X64972D01*
X61834D02*
X62516D01*
X59343D02*
X60947D01*
X57808D02*
X58456D01*
X55318D02*
X56921D01*
X53749D02*
X54431D01*
X51293D02*
X52896D01*
X43310D02*
X44231D01*
X39899D02*
X41468D01*
X36829D02*
X37681D01*
X33656D02*
X35225D01*
X28846D02*
X30450D01*
X22467D02*
X27277D01*
X67428Y-576779D02*
X68997D01*
X65791D02*
X66609D01*
X63403D02*
X64972D01*
X61765D02*
X62584D01*
X59377D02*
X60947D01*
X57740D02*
X58559D01*
X55318D02*
X56887D01*
X53680D02*
X54499D01*
X51293D02*
X52862D01*
X43310D02*
X44231D01*
X39524D02*
X41434D01*
X36829D02*
X37681D01*
X33656D02*
X35225D01*
X28846D02*
X30415D01*
X22467D02*
X27277D01*
X67462Y-576745D02*
X68997D01*
X65722D02*
X66677D01*
X63403D02*
X64972D01*
X61697D02*
X62652D01*
X59377D02*
X60912D01*
X57672D02*
X58593D01*
X55352D02*
X56887D01*
X53646D02*
X54567D01*
X51327D02*
X52862D01*
X43310D02*
X44231D01*
X36829D02*
X41434D01*
X33690D02*
X35225D01*
X28846D02*
X30415D01*
X22467D02*
X27277D01*
X67462Y-576711D02*
X68963D01*
X65688D02*
X66712D01*
X63437D02*
X64938D01*
X61663D02*
X62686D01*
X59412D02*
X60912D01*
X57604D02*
X58661D01*
X55352D02*
X56853D01*
X53578D02*
X54602D01*
X51327D02*
X52828D01*
X43310D02*
X44231D01*
X36829D02*
X41400D01*
X33690D02*
X35225D01*
X28846D02*
X30381D01*
X22467D02*
X27277D01*
X67496Y-576677D02*
X68963D01*
X65654D02*
X66780D01*
X63471D02*
X64904D01*
X61595D02*
X62720D01*
X59412D02*
X60878D01*
X57569D02*
X58695D01*
X55386D02*
X56853D01*
X53544D02*
X54670D01*
X51361D02*
X52828D01*
X43310D02*
X44231D01*
X36829D02*
X41400D01*
X33690D02*
X35225D01*
X28846D02*
X30381D01*
X22467D02*
X27277D01*
X67530Y-576643D02*
X68929D01*
X65620D02*
X66814D01*
X63471D02*
X64904D01*
X61561D02*
X62754D01*
X59446D02*
X60844D01*
X57535D02*
X58729D01*
X55420D02*
X56819D01*
X53510D02*
X54704D01*
X51361D02*
X52794D01*
X43310D02*
X44231D01*
X36829D02*
X41366D01*
X33724D02*
X35225D01*
X28846D02*
X30381D01*
X22467D02*
X27277D01*
X67530Y-576609D02*
X68895D01*
X65586D02*
X66848D01*
X63505D02*
X64870D01*
X61527D02*
X62789D01*
X59480D02*
X60844D01*
X57501D02*
X58763D01*
X55420D02*
X56785D01*
X53476D02*
X54738D01*
X51395D02*
X52759D01*
X43310D02*
X44231D01*
X36829D02*
X41332D01*
X33724D02*
X35225D01*
X28846D02*
X30347D01*
X22467D02*
X27277D01*
X67564Y-576575D02*
X68861D01*
X65552D02*
X66882D01*
X63539D02*
X64835D01*
X61492D02*
X62823D01*
X59514D02*
X60810D01*
X57467D02*
X58797D01*
X55454D02*
X56785D01*
X53442D02*
X54772D01*
X51429D02*
X52725D01*
X43310D02*
X44231D01*
X36829D02*
X41297D01*
X33724D02*
X35225D01*
X28846D02*
X30347D01*
X22467D02*
X27277D01*
X67599Y-576541D02*
X68861D01*
X65518D02*
X66882D01*
X63573D02*
X64801D01*
X61492D02*
X62857D01*
X59514D02*
X60776D01*
X57433D02*
X58832D01*
X55489D02*
X56751D01*
X53408D02*
X54806D01*
X51463D02*
X52691D01*
X43310D02*
X44231D01*
X36829D02*
X41297D01*
X33759D02*
X35225D01*
X28846D02*
X30347D01*
X22467D02*
X27277D01*
X67633Y-576506D02*
X68827D01*
X65484D02*
X66916D01*
X63607D02*
X64767D01*
X61458D02*
X62891D01*
X59548D02*
X60742D01*
X57433D02*
X58866D01*
X55523D02*
X56717D01*
X53373D02*
X54806D01*
X51497D02*
X52657D01*
X43310D02*
X44231D01*
X36829D02*
X41263D01*
X33759D02*
X35225D01*
X28846D02*
X30313D01*
X22467D02*
X27277D01*
X67667Y-576472D02*
X68758D01*
X65484D02*
X66951D01*
X63642D02*
X64733D01*
X61424D02*
X62891D01*
X59616D02*
X60708D01*
X57399D02*
X58866D01*
X55557D02*
X56648D01*
X53373D02*
X54840D01*
X51531D02*
X52623D01*
X43310D02*
X44231D01*
X36829D02*
X41229D01*
X33793D02*
X35225D01*
X28846D02*
X30313D01*
X22467D02*
X27277D01*
X67735Y-576438D02*
X68724D01*
X65450D02*
X66951D01*
X63676D02*
X64699D01*
X61424D02*
X62925D01*
X59650D02*
X60640D01*
X57365D02*
X58900D01*
X55625D02*
X56614D01*
X53339D02*
X54840D01*
X51565D02*
X52589D01*
X43310D02*
X44231D01*
X36829D02*
X41195D01*
X33793D02*
X35225D01*
X28846D02*
X30279D01*
X22467D02*
X27277D01*
X67769Y-576404D02*
X68656D01*
X65415D02*
X66985D01*
X63744D02*
X64631D01*
X61390D02*
X62959D01*
X59719D02*
X60605D01*
X57365D02*
X58900D01*
X55659D02*
X56580D01*
X53339D02*
X54874D01*
X51634D02*
X52521D01*
X43310D02*
X44231D01*
X36829D02*
X41161D01*
X33793D02*
X35225D01*
X28846D02*
X30279D01*
X22467D02*
X27277D01*
X67837Y-576370D02*
X68622D01*
X65415D02*
X66985D01*
X63812D02*
X64562D01*
X61390D02*
X62959D01*
X59753D02*
X60537D01*
X57331D02*
X58934D01*
X55727D02*
X56512D01*
X53305D02*
X54874D01*
X51702D02*
X52452D01*
X43310D02*
X44231D01*
X36829D02*
X41093D01*
X33827D02*
X35225D01*
X28846D02*
X30279D01*
X22467D02*
X27277D01*
X67906Y-576336D02*
X68520D01*
X65415D02*
X67019D01*
X63880D02*
X64494D01*
X61356D02*
X62959D01*
X59855D02*
X60469D01*
X57331D02*
X58934D01*
X55796D02*
X56410D01*
X53305D02*
X54909D01*
X51770D02*
X52384D01*
X43310D02*
X44231D01*
X36829D02*
X41059D01*
X33827D02*
X35225D01*
X28846D02*
X30245D01*
X22467D02*
X27277D01*
X68042Y-576302D02*
X68417D01*
X65381D02*
X67019D01*
X64017D02*
X64358D01*
X61356D02*
X62993D01*
X59957D02*
X60333D01*
X57331D02*
X58968D01*
X55932D02*
X56307D01*
X53271D02*
X54909D01*
X51907D02*
X52282D01*
X43310D02*
X44231D01*
X36829D02*
X41025D01*
X33861D02*
X35225D01*
X28846D02*
X30245D01*
X22467D02*
X27277D01*
X65381Y-576268D02*
X67019D01*
X61356D02*
X62993D01*
X57297D02*
X58968D01*
X53271D02*
X54943D01*
X43310D02*
X44231D01*
X36829D02*
X40956D01*
X33861D02*
X35225D01*
X28846D02*
X30211D01*
X22467D02*
X27277D01*
X65381Y-576233D02*
X67053D01*
X61322D02*
X62993D01*
X57297D02*
X58968D01*
X53271D02*
X54943D01*
X43310D02*
X44231D01*
X36829D02*
X40922D01*
X33861D02*
X35225D01*
X28846D02*
X30211D01*
X22467D02*
X27277D01*
X65347Y-576199D02*
X67053D01*
X61322D02*
X63027D01*
X57297D02*
X58968D01*
X53237D02*
X54943D01*
X43310D02*
X44231D01*
X36829D02*
X40854D01*
X33895D02*
X35225D01*
X28846D02*
X30211D01*
X22467D02*
X27277D01*
X65347Y-576165D02*
X67053D01*
X61322D02*
X63027D01*
X57297D02*
X59002D01*
X53237D02*
X54943D01*
X43310D02*
X44231D01*
X36829D02*
X40786D01*
X33895D02*
X35225D01*
X28846D02*
X30177D01*
X22467D02*
X27277D01*
X65347Y-576131D02*
X67053D01*
X61322D02*
X63027D01*
X57262D02*
X59002D01*
X53237D02*
X54943D01*
X43310D02*
X44231D01*
X36829D02*
X40683D01*
X33929D02*
X35225D01*
X28846D02*
X30177D01*
X22467D02*
X27277D01*
X65347Y-576097D02*
X67053D01*
X61322D02*
X63027D01*
X57262D02*
X59002D01*
X53237D02*
X54943D01*
X43310D02*
X44231D01*
X36829D02*
X40615D01*
X33929D02*
X35225D01*
X28846D02*
X30143D01*
X22467D02*
X27277D01*
X65347Y-576063D02*
X67053D01*
X61322D02*
X63027D01*
X57262D02*
X59002D01*
X53237D02*
X54977D01*
X43310D02*
X44231D01*
X36829D02*
X40479D01*
X33929D02*
X35225D01*
X28846D02*
X30143D01*
X22467D02*
X27277D01*
X65347Y-576029D02*
X67053D01*
X61322D02*
X63027D01*
X57262D02*
X59002D01*
X53237D02*
X54977D01*
X43310D02*
X44231D01*
X36829D02*
X40342D01*
X33963D02*
X35225D01*
X28846D02*
X30143D01*
X22467D02*
X27277D01*
X65347Y-575995D02*
X67053D01*
X61322D02*
X63027D01*
X57262D02*
X59002D01*
X53237D02*
X54977D01*
X43310D02*
X44231D01*
X36829D02*
X40138D01*
X33963D02*
X35225D01*
X28846D02*
X30108D01*
X22467D02*
X27277D01*
X65347Y-575961D02*
X67053D01*
X61322D02*
X63027D01*
X57262D02*
X59002D01*
X53237D02*
X54977D01*
X65347Y-575926D02*
X67053D01*
X61322D02*
X63027D01*
X57262D02*
X59002D01*
X53237D02*
X54943D01*
X65347Y-575892D02*
X67053D01*
X61322D02*
X63027D01*
X57262D02*
X59002D01*
X53237D02*
X54943D01*
X65347Y-575858D02*
X67053D01*
X61322D02*
X63027D01*
X57297D02*
X59002D01*
X53237D02*
X54943D01*
X65347Y-575824D02*
X67053D01*
X61322D02*
X63027D01*
X57297D02*
X58968D01*
X53237D02*
X54943D01*
X65381Y-575790D02*
X67053D01*
X61322D02*
X62993D01*
X57297D02*
X58968D01*
X53271D02*
X54943D01*
X65381Y-575756D02*
X67019D01*
X61356D02*
X62993D01*
X57297D02*
X58968D01*
X53271D02*
X54943D01*
X68042Y-575722D02*
X68417D01*
X65381D02*
X67019D01*
X63983D02*
X64392D01*
X61356D02*
X62993D01*
X59957D02*
X60333D01*
X57331D02*
X58968D01*
X55932D02*
X56307D01*
X53271D02*
X54909D01*
X51872D02*
X52282D01*
X67906Y-575688D02*
X68520D01*
X65415D02*
X67019D01*
X63880D02*
X64494D01*
X61356D02*
X62959D01*
X59855D02*
X60469D01*
X57331D02*
X58934D01*
X55796D02*
X56444D01*
X53305D02*
X54909D01*
X51770D02*
X52384D01*
X67837Y-575654D02*
X68622D01*
X65415D02*
X66985D01*
X63812D02*
X64562D01*
X61390D02*
X62959D01*
X59753D02*
X60537D01*
X57331D02*
X58934D01*
X55727D02*
X56512D01*
X53305D02*
X54874D01*
X51702D02*
X52486D01*
X67769Y-575620D02*
X68690D01*
X65415D02*
X66985D01*
X63744D02*
X64631D01*
X61390D02*
X62959D01*
X59684D02*
X60605D01*
X57365D02*
X58900D01*
X55659D02*
X56580D01*
X53339D02*
X54874D01*
X51634D02*
X52521D01*
X67701Y-575585D02*
X68724D01*
X65450D02*
X66951D01*
X63676D02*
X64699D01*
X61424D02*
X62925D01*
X59650D02*
X60674D01*
X57365D02*
X58900D01*
X55625D02*
X56614D01*
X53339D02*
X54840D01*
X51565D02*
X52589D01*
X67667Y-575551D02*
X68758D01*
X65484D02*
X66951D01*
X63642D02*
X64733D01*
X61424D02*
X62891D01*
X59616D02*
X60708D01*
X57399D02*
X58866D01*
X55557D02*
X56682D01*
X53373D02*
X54840D01*
X51531D02*
X52623D01*
X67633Y-575517D02*
X68827D01*
X65484D02*
X66916D01*
X63607D02*
X64767D01*
X61458D02*
X62891D01*
X59548D02*
X60742D01*
X57433D02*
X58832D01*
X55523D02*
X56717D01*
X53373D02*
X54806D01*
X51497D02*
X52657D01*
X67599Y-575483D02*
X68861D01*
X65518D02*
X66882D01*
X63573D02*
X64801D01*
X61492D02*
X62857D01*
X59514D02*
X60776D01*
X57433D02*
X58832D01*
X55489D02*
X56751D01*
X53408D02*
X54772D01*
X51463D02*
X52691D01*
X67564Y-575449D02*
X68895D01*
X65552D02*
X66882D01*
X63539D02*
X64835D01*
X61492D02*
X62823D01*
X59480D02*
X60810D01*
X57467D02*
X58797D01*
X55454D02*
X56785D01*
X53442D02*
X54772D01*
X51429D02*
X52725D01*
X67530Y-575415D02*
X68895D01*
X65586D02*
X66848D01*
X63505D02*
X64870D01*
X61527D02*
X62789D01*
X59480D02*
X60844D01*
X57501D02*
X58763D01*
X55420D02*
X56785D01*
X53476D02*
X54738D01*
X51395D02*
X52759D01*
X67496Y-575381D02*
X68929D01*
X65620D02*
X66814D01*
X63471D02*
X64904D01*
X61561D02*
X62754D01*
X59446D02*
X60878D01*
X57535D02*
X58729D01*
X55420D02*
X56819D01*
X53510D02*
X54704D01*
X51361D02*
X52794D01*
X67496Y-575347D02*
X68963D01*
X65654D02*
X66780D01*
X63471D02*
X64904D01*
X61595D02*
X62720D01*
X59412D02*
X60878D01*
X57569D02*
X58695D01*
X55386D02*
X56853D01*
X53544D02*
X54670D01*
X51361D02*
X52828D01*
X67462Y-575313D02*
X68963D01*
X65688D02*
X66712D01*
X63437D02*
X64938D01*
X61663D02*
X62686D01*
X59412D02*
X60912D01*
X57604D02*
X58661D01*
X55352D02*
X56853D01*
X53578D02*
X54602D01*
X51327D02*
X52828D01*
X67462Y-575278D02*
X68997D01*
X65756D02*
X66677D01*
X63403D02*
X64972D01*
X61697D02*
X62618D01*
X59377D02*
X60912D01*
X57672D02*
X58593D01*
X55352D02*
X56887D01*
X53646D02*
X54567D01*
X51327D02*
X52862D01*
X67428Y-575244D02*
X68997D01*
X65791D02*
X66609D01*
X63403D02*
X64972D01*
X61765D02*
X62584D01*
X59377D02*
X60947D01*
X57740D02*
X58525D01*
X55318D02*
X56887D01*
X53680D02*
X54499D01*
X51293D02*
X52862D01*
X67428Y-575210D02*
X69031D01*
X65893D02*
X66541D01*
X63369D02*
X65006D01*
X61834D02*
X62482D01*
X59343D02*
X60947D01*
X57808D02*
X58456D01*
X55318D02*
X56921D01*
X53783D02*
X54431D01*
X51293D02*
X52896D01*
X67394Y-575176D02*
X69031D01*
X65995D02*
X66439D01*
X63369D02*
X65006D01*
X61936D02*
X62379D01*
X59343D02*
X60981D01*
X57911D02*
X58354D01*
X55318D02*
X56921D01*
X53885D02*
X54329D01*
X51258D02*
X52896D01*
X67394Y-575142D02*
X69065D01*
X63369D02*
X65006D01*
X59309D02*
X60981D01*
X55284D02*
X56955D01*
X51258D02*
X52896D01*
X67394Y-575108D02*
X69065D01*
X63369D02*
X65006D01*
X59309D02*
X60981D01*
X55284D02*
X56955D01*
X51258D02*
X52930D01*
X67394Y-575074D02*
X69065D01*
X63335D02*
X65040D01*
X59309D02*
X60981D01*
X55284D02*
X56955D01*
X51224D02*
X52930D01*
X67360Y-575040D02*
X69065D01*
X63335D02*
X65040D01*
X59309D02*
X61015D01*
X55250D02*
X56955D01*
X51224D02*
X52930D01*
X67360Y-575005D02*
X69065D01*
X63335D02*
X65040D01*
X59309D02*
X61015D01*
X55250D02*
X56955D01*
X51224D02*
X52930D01*
X67360Y-574971D02*
X69065D01*
X63335D02*
X65040D01*
X59309D02*
X61015D01*
X55250D02*
X56989D01*
X51224D02*
X52930D01*
X67360Y-574937D02*
X69065D01*
X63335D02*
X65040D01*
X59275D02*
X61015D01*
X55250D02*
X56989D01*
X51224D02*
X52930D01*
X67360Y-574903D02*
X69065D01*
X63335D02*
X65040D01*
X59275D02*
X61015D01*
X55250D02*
X56989D01*
X51224D02*
X52930D01*
X67360Y-574869D02*
X69065D01*
X63335D02*
X65040D01*
X59275D02*
X61015D01*
X55250D02*
X56989D01*
X51224D02*
X52930D01*
X67360Y-574835D02*
X69065D01*
X63335D02*
X65040D01*
X59275D02*
X61015D01*
X55250D02*
X56989D01*
X51224D02*
X52930D01*
X67360Y-574801D02*
X69065D01*
X63335D02*
X65040D01*
X59275D02*
X61015D01*
X55250D02*
X56989D01*
X51224D02*
X52930D01*
X67360Y-574767D02*
X69065D01*
X63335D02*
X65040D01*
X59309D02*
X61015D01*
X55250D02*
X56989D01*
X51224D02*
X52930D01*
X67360Y-574733D02*
X69065D01*
X63335D02*
X65040D01*
X59309D02*
X61015D01*
X55250D02*
X56955D01*
X51224D02*
X52930D01*
X67360Y-574698D02*
X69065D01*
X63335D02*
X65040D01*
X59309D02*
X61015D01*
X55284D02*
X56955D01*
X51224D02*
X52930D01*
X67394Y-574664D02*
X69065D01*
X63335D02*
X65040D01*
X59309D02*
X60981D01*
X55284D02*
X56955D01*
X51258D02*
X52930D01*
X67394Y-574630D02*
X69065D01*
X63369D02*
X65006D01*
X59309D02*
X60981D01*
X55284D02*
X56955D01*
X51258D02*
X52896D01*
X67394Y-574596D02*
X69031D01*
X66063D02*
X66370D01*
X63369D02*
X65006D01*
X62004D02*
X62311D01*
X59343D02*
X60981D01*
X57979D02*
X58286D01*
X55284D02*
X56921D01*
X53953D02*
X54260D01*
X51258D02*
X52896D01*
X67428Y-574562D02*
X69031D01*
X65927D02*
X66507D01*
X63369D02*
X65006D01*
X61868D02*
X62448D01*
X59343D02*
X60947D01*
X57842D02*
X58422D01*
X55318D02*
X56921D01*
X53817D02*
X54397D01*
X51258D02*
X52896D01*
X67428Y-574528D02*
X69031D01*
X65825D02*
X66575D01*
X63403D02*
X64972D01*
X61799D02*
X62550D01*
X59343D02*
X60947D01*
X57774D02*
X58525D01*
X55318D02*
X56921D01*
X53715D02*
X54465D01*
X51293D02*
X52862D01*
X67428Y-574494D02*
X68997D01*
X65756D02*
X66643D01*
X63403D02*
X64972D01*
X61731D02*
X62618D01*
X59377D02*
X60947D01*
X57706D02*
X58559D01*
X55352D02*
X56887D01*
X53646D02*
X54533D01*
X51293D02*
X52862D01*
X67462Y-574460D02*
X68997D01*
X65722D02*
X66712D01*
X63437D02*
X64938D01*
X61663D02*
X62652D01*
X59377D02*
X60912D01*
X57638D02*
X58627D01*
X55352D02*
X56887D01*
X53612D02*
X54602D01*
X51327D02*
X52828D01*
X67496Y-574426D02*
X68963D01*
X65654D02*
X66746D01*
X63437D02*
X64938D01*
X61629D02*
X62720D01*
X59412D02*
X60878D01*
X57604D02*
X58661D01*
X55386D02*
X56853D01*
X53544D02*
X54636D01*
X51327D02*
X52828D01*
X67496Y-574391D02*
X68929D01*
X65620D02*
X66780D01*
X63471D02*
X64904D01*
X61595D02*
X62754D01*
X59446D02*
X60878D01*
X57569D02*
X58729D01*
X55386D02*
X56853D01*
X53510D02*
X54670D01*
X51361D02*
X52794D01*
X67530Y-574357D02*
X68929D01*
X65586D02*
X66814D01*
X63505D02*
X64870D01*
X61561D02*
X62789D01*
X59446D02*
X60844D01*
X57501D02*
X58763D01*
X55420D02*
X56819D01*
X53476D02*
X54704D01*
X51395D02*
X52759D01*
X67564Y-574323D02*
X68895D01*
X65552D02*
X66848D01*
X63505D02*
X64870D01*
X61527D02*
X62823D01*
X59480D02*
X60810D01*
X57501D02*
X58797D01*
X55454D02*
X56785D01*
X53442D02*
X54738D01*
X51429D02*
X52759D01*
X67599Y-574289D02*
X68861D01*
X65518D02*
X66882D01*
X63539D02*
X64835D01*
X61492D02*
X62857D01*
X59514D02*
X60776D01*
X57467D02*
X58797D01*
X55489D02*
X56751D01*
X53408D02*
X54772D01*
X51429D02*
X52725D01*
X67633Y-574255D02*
X68827D01*
X65518D02*
X66916D01*
X63573D02*
X64801D01*
X61458D02*
X62857D01*
X59548D02*
X60742D01*
X57433D02*
X58832D01*
X55523D02*
X56717D01*
X53408D02*
X54806D01*
X51463D02*
X52691D01*
X67667Y-574221D02*
X68793D01*
X65484D02*
X66916D01*
X63607D02*
X64767D01*
X61458D02*
X62891D01*
X59582D02*
X60708D01*
X57399D02*
X58866D01*
X55557D02*
X56682D01*
X53373D02*
X54840D01*
X51497D02*
X52657D01*
X67701Y-574187D02*
X68758D01*
X65450D02*
X66951D01*
X63676D02*
X64699D01*
X61424D02*
X62925D01*
X59616D02*
X60674D01*
X57399D02*
X58866D01*
X55591D02*
X56648D01*
X53339D02*
X54840D01*
X51565D02*
X52623D01*
X67735Y-574153D02*
X68690D01*
X65450D02*
X66985D01*
X63710D02*
X64665D01*
X61390D02*
X62925D01*
X59684D02*
X60640D01*
X57365D02*
X58900D01*
X55625D02*
X56580D01*
X53339D02*
X54874D01*
X51600D02*
X52555D01*
X67803Y-574119D02*
X68656D01*
X65415D02*
X66985D01*
X63778D02*
X64597D01*
X61390D02*
X62959D01*
X59719D02*
X60571D01*
X57365D02*
X58934D01*
X55693D02*
X56546D01*
X53305D02*
X54874D01*
X51668D02*
X52486D01*
X67871Y-574084D02*
X68588D01*
X65415D02*
X67019D01*
X63846D02*
X64528D01*
X61356D02*
X62959D01*
X59787D02*
X60503D01*
X57331D02*
X58934D01*
X55761D02*
X56478D01*
X53305D02*
X54909D01*
X51736D02*
X52418D01*
X67974Y-574050D02*
X68485D01*
X65381D02*
X67019D01*
X63949D02*
X64426D01*
X61356D02*
X62993D01*
X59889D02*
X60401D01*
X57331D02*
X58934D01*
X55864D02*
X56375D01*
X53271D02*
X54909D01*
X51838D02*
X52350D01*
X65381Y-574016D02*
X67019D01*
X61356D02*
X62993D01*
X57297D02*
X58968D01*
X53271D02*
X54909D01*
X65381Y-573982D02*
X67053D01*
X61322D02*
X62993D01*
X57297D02*
X58968D01*
X53271D02*
X54943D01*
X65347Y-573948D02*
X67053D01*
X61322D02*
X63027D01*
X57297D02*
X58968D01*
X53271D02*
X54943D01*
X65347Y-573914D02*
X67053D01*
X61322D02*
X63027D01*
X57297D02*
X58968D01*
X53237D02*
X54943D01*
X65347Y-573880D02*
X67053D01*
X61322D02*
X63027D01*
X57297D02*
X59002D01*
X53237D02*
X54943D01*
X65347Y-573846D02*
X67053D01*
X61322D02*
X63027D01*
X57262D02*
X59002D01*
X53237D02*
X54943D01*
X65347Y-573811D02*
X67053D01*
X61322D02*
X63027D01*
X57262D02*
X59002D01*
X53237D02*
X54943D01*
X65347Y-573777D02*
X67053D01*
X61322D02*
X63027D01*
X57262D02*
X59002D01*
X53237D02*
X54977D01*
X65347Y-573743D02*
X67053D01*
X61322D02*
X63027D01*
X57262D02*
X59002D01*
X53237D02*
X54977D01*
X65347Y-573709D02*
X67053D01*
X61322D02*
X63027D01*
X57262D02*
X59002D01*
X53237D02*
X54977D01*
X65347Y-573675D02*
X67053D01*
X61322D02*
X63027D01*
X57262D02*
X59002D01*
X53237D02*
X54943D01*
X65347Y-573641D02*
X67053D01*
X61322D02*
X63027D01*
X57262D02*
X59002D01*
X53237D02*
X54943D01*
X65347Y-573607D02*
X67053D01*
X61322D02*
X63027D01*
X57297D02*
X59002D01*
X53237D02*
X54943D01*
X65347Y-573573D02*
X67053D01*
X61322D02*
X63027D01*
X57297D02*
X58968D01*
X53237D02*
X54943D01*
X65347Y-573539D02*
X67053D01*
X61322D02*
X63027D01*
X57297D02*
X58968D01*
X53271D02*
X54943D01*
X65381Y-573504D02*
X67053D01*
X61322D02*
X62993D01*
X57297D02*
X58968D01*
X53271D02*
X54943D01*
X65381Y-573470D02*
X67019D01*
X64119D02*
X64255D01*
X61356D02*
X62993D01*
X60060D02*
X60230D01*
X57297D02*
X58968D01*
X56034D02*
X56205D01*
X53271D02*
X54909D01*
X65381Y-573436D02*
X67019D01*
X63914D02*
X64460D01*
X61356D02*
X62993D01*
X59889D02*
X60401D01*
X57331D02*
X58934D01*
X55864D02*
X56375D01*
X53271D02*
X54909D01*
X65415Y-573402D02*
X67019D01*
X63846D02*
X64528D01*
X61356D02*
X62959D01*
X59787D02*
X60503D01*
X57331D02*
X58934D01*
X55761D02*
X56478D01*
X53305D02*
X54909D01*
X65415Y-573368D02*
X66985D01*
X63778D02*
X64597D01*
X61390D02*
X62959D01*
X59719D02*
X60571D01*
X57365D02*
X58900D01*
X55693D02*
X56546D01*
X53305D02*
X54874D01*
X65450Y-573334D02*
X66985D01*
X63710D02*
X64665D01*
X61390D02*
X62925D01*
X59684D02*
X60640D01*
X57365D02*
X58900D01*
X55625D02*
X56614D01*
X53339D02*
X54874D01*
X65450Y-573300D02*
X66951D01*
X63642D02*
X64733D01*
X61424D02*
X62925D01*
X59616D02*
X60674D01*
X57399D02*
X58866D01*
X55591D02*
X56648D01*
X53339D02*
X54840D01*
X65484Y-573266D02*
X66916D01*
X63607D02*
X64767D01*
X61458D02*
X62891D01*
X59582D02*
X60708D01*
X57399D02*
X58866D01*
X55557D02*
X56682D01*
X53373D02*
X54840D01*
X65518Y-573232D02*
X66916D01*
X63573D02*
X64801D01*
X61458D02*
X62857D01*
X59548D02*
X60776D01*
X57433D02*
X58832D01*
X55523D02*
X56717D01*
X53408D02*
X54806D01*
X65518Y-573198D02*
X66882D01*
X63539D02*
X64835D01*
X61492D02*
X62857D01*
X59514D02*
X60776D01*
X57467D02*
X58797D01*
X55489D02*
X56751D01*
X53408D02*
X54772D01*
X65552Y-573163D02*
X66848D01*
X63505D02*
X64870D01*
X61527D02*
X62823D01*
X59480D02*
X60810D01*
X57501D02*
X58797D01*
X55454D02*
X56785D01*
X53442D02*
X54738D01*
X65586Y-573129D02*
X66814D01*
X63505D02*
X64870D01*
X61561D02*
X62789D01*
X59446D02*
X60844D01*
X57535D02*
X58763D01*
X55420D02*
X56819D01*
X53476D02*
X54704D01*
X65620Y-573095D02*
X66780D01*
X63471D02*
X64904D01*
X61595D02*
X62754D01*
X59446D02*
X60878D01*
X57569D02*
X58729D01*
X55386D02*
X56853D01*
X53510D02*
X54670D01*
X65654Y-573061D02*
X66746D01*
X63437D02*
X64938D01*
X61629D02*
X62720D01*
X59412D02*
X60878D01*
X57604D02*
X58661D01*
X55386D02*
X56853D01*
X53578D02*
X54636D01*
X65722Y-573027D02*
X66712D01*
X63437D02*
X64938D01*
X61663D02*
X62652D01*
X59377D02*
X60912D01*
X57638D02*
X58627D01*
X55352D02*
X56887D01*
X53612D02*
X54602D01*
X65756Y-572993D02*
X66643D01*
X63403D02*
X64972D01*
X61731D02*
X62618D01*
X59377D02*
X60947D01*
X57706D02*
X58559D01*
X55352D02*
X56887D01*
X53646D02*
X54533D01*
X65825Y-572959D02*
X66575D01*
X63403D02*
X64972D01*
X61799D02*
X62550D01*
X59343D02*
X60947D01*
X57774D02*
X58490D01*
X55318D02*
X56921D01*
X53715D02*
X54465D01*
X65927Y-572925D02*
X66473D01*
X63369D02*
X65006D01*
X61902D02*
X62448D01*
X59343D02*
X60947D01*
X57842D02*
X58422D01*
X55318D02*
X56921D01*
X53817D02*
X54397D01*
X66063Y-572891D02*
X66336D01*
X63369D02*
X65006D01*
X62038D02*
X62311D01*
X59343D02*
X60981D01*
X58013D02*
X58286D01*
X55284D02*
X56921D01*
X53953D02*
X54226D01*
X63369Y-572856D02*
X65006D01*
X59309D02*
X60981D01*
X55284D02*
X56955D01*
X63335Y-572822D02*
X65040D01*
X59309D02*
X60981D01*
X55284D02*
X56955D01*
X63335Y-572788D02*
X65040D01*
X59309D02*
X61015D01*
X55284D02*
X56955D01*
X63335Y-572754D02*
X65040D01*
X59309D02*
X61015D01*
X55250D02*
X56955D01*
X63335Y-572720D02*
X65040D01*
X59309D02*
X61015D01*
X55250D02*
X56989D01*
X63335Y-572686D02*
X65040D01*
X59275D02*
X61015D01*
X55250D02*
X56989D01*
X63335Y-572652D02*
X65040D01*
X59275D02*
X61015D01*
X55250D02*
X56989D01*
X63335Y-572618D02*
X65040D01*
X59275D02*
X61015D01*
X55250D02*
X56989D01*
X63335Y-572583D02*
X65040D01*
X59275D02*
X61015D01*
X55250D02*
X56989D01*
X63335Y-572549D02*
X65040D01*
X59275D02*
X61015D01*
X55250D02*
X56989D01*
X63335Y-572515D02*
X65040D01*
X59309D02*
X61015D01*
X55250D02*
X56989D01*
X63335Y-572481D02*
X65040D01*
X59309D02*
X61015D01*
X55250D02*
X56955D01*
X63335Y-572447D02*
X65040D01*
X59309D02*
X61015D01*
X55284D02*
X56955D01*
X63335Y-572413D02*
X65040D01*
X59309D02*
X60981D01*
X55284D02*
X56955D01*
X63369Y-572379D02*
X65006D01*
X59309D02*
X60981D01*
X55284D02*
X56955D01*
X63369Y-572345D02*
X65006D01*
X59343D02*
X60981D01*
X55284D02*
X56955D01*
X63369Y-572310D02*
X65006D01*
X61936D02*
X62413D01*
X59343D02*
X60981D01*
X57911D02*
X58354D01*
X55318D02*
X56921D01*
X63403Y-572276D02*
X64972D01*
X61834D02*
X62516D01*
X59343D02*
X60947D01*
X57808D02*
X58456D01*
X55318D02*
X56921D01*
X63403Y-572242D02*
X64972D01*
X61765D02*
X62584D01*
X59377D02*
X60947D01*
X57740D02*
X58559D01*
X55318D02*
X56887D01*
X63403Y-572208D02*
X64972D01*
X61697D02*
X62652D01*
X59377D02*
X60912D01*
X57672D02*
X58593D01*
X55352D02*
X56887D01*
X63437Y-572174D02*
X64938D01*
X61663D02*
X62686D01*
X59412D02*
X60912D01*
X57604D02*
X58661D01*
X55352D02*
X56853D01*
X63471Y-572140D02*
X64904D01*
X61595D02*
X62720D01*
X59412D02*
X60878D01*
X57569D02*
X58695D01*
X55386D02*
X56853D01*
X63471Y-572106D02*
X64904D01*
X61561D02*
X62754D01*
X59446D02*
X60844D01*
X57535D02*
X58729D01*
X55420D02*
X56819D01*
X63505Y-572072D02*
X64870D01*
X61527D02*
X62789D01*
X59480D02*
X60844D01*
X57501D02*
X58763D01*
X55420D02*
X56785D01*
X63539Y-572038D02*
X64835D01*
X61492D02*
X62823D01*
X59514D02*
X60810D01*
X57467D02*
X58797D01*
X55454D02*
X56785D01*
X63573Y-572004D02*
X64801D01*
X61492D02*
X62857D01*
X59514D02*
X60776D01*
X57433D02*
X58832D01*
X55489D02*
X56751D01*
X63607Y-571969D02*
X64767D01*
X61458D02*
X62891D01*
X59548D02*
X60742D01*
X57433D02*
X58866D01*
X55523D02*
X56717D01*
X63642Y-571935D02*
X64733D01*
X61424D02*
X62891D01*
X59616D02*
X60708D01*
X57399D02*
X58866D01*
X55557D02*
X56648D01*
X63676Y-571901D02*
X64699D01*
X61424D02*
X62925D01*
X59650D02*
X60640D01*
X57365D02*
X58900D01*
X55625D02*
X56614D01*
X63744Y-571867D02*
X64631D01*
X61390D02*
X62959D01*
X59719D02*
X60605D01*
X57365D02*
X58900D01*
X55659D02*
X56580D01*
X63812Y-571833D02*
X64562D01*
X61390D02*
X62959D01*
X59753D02*
X60537D01*
X57331D02*
X58934D01*
X55727D02*
X56512D01*
X63880Y-571799D02*
X64494D01*
X61356D02*
X62959D01*
X59855D02*
X60469D01*
X57331D02*
X58934D01*
X55796D02*
X56410D01*
X64017Y-571765D02*
X64358D01*
X61356D02*
X62993D01*
X59957D02*
X60333D01*
X57331D02*
X58968D01*
X55932D02*
X56307D01*
X61356Y-571731D02*
X62993D01*
X57297D02*
X58968D01*
X61322Y-571697D02*
X62993D01*
X57297D02*
X58968D01*
X61322Y-571662D02*
X63027D01*
X57297D02*
X58968D01*
X61322Y-571628D02*
X63027D01*
X57297D02*
X59002D01*
X61322Y-571594D02*
X63027D01*
X57262D02*
X59002D01*
X61322Y-571560D02*
X63027D01*
X57262D02*
X59002D01*
X61322Y-571526D02*
X63027D01*
X57262D02*
X59002D01*
X61322Y-571492D02*
X63027D01*
X57262D02*
X59002D01*
X61322Y-571458D02*
X63027D01*
X57262D02*
X59002D01*
X61322Y-571424D02*
X63027D01*
X57262D02*
X59002D01*
X61322Y-571389D02*
X63027D01*
X57262D02*
X59002D01*
X61322Y-571355D02*
X63027D01*
X57262D02*
X59002D01*
X61322Y-571321D02*
X63027D01*
X57297D02*
X59002D01*
X61322Y-571287D02*
X63027D01*
X57297D02*
X58968D01*
X61322Y-571253D02*
X62993D01*
X57297D02*
X58968D01*
X61356Y-571219D02*
X62993D01*
X57297D02*
X58968D01*
X61356Y-571185D02*
X62993D01*
X59957D02*
X60333D01*
X57331D02*
X58968D01*
X61356Y-571151D02*
X62959D01*
X59855D02*
X60469D01*
X57331D02*
X58934D01*
X61390Y-571117D02*
X62959D01*
X59753D02*
X60537D01*
X57331D02*
X58934D01*
X61390Y-571082D02*
X62959D01*
X59684D02*
X60605D01*
X57365D02*
X58900D01*
X61424Y-571048D02*
X62925D01*
X59650D02*
X60674D01*
X57365D02*
X58900D01*
X61424Y-571014D02*
X62891D01*
X59616D02*
X60708D01*
X57399D02*
X58866D01*
X61458Y-570980D02*
X62891D01*
X59548D02*
X60742D01*
X57433D02*
X58832D01*
X61492Y-570946D02*
X62857D01*
X59514D02*
X60776D01*
X57433D02*
X58832D01*
X61492Y-570912D02*
X62823D01*
X59480D02*
X60810D01*
X57467D02*
X58797D01*
X61527Y-570878D02*
X62789D01*
X59480D02*
X60844D01*
X57501D02*
X58763D01*
X61561Y-570844D02*
X62754D01*
X59446D02*
X60878D01*
X57535D02*
X58729D01*
X61595Y-570810D02*
X62720D01*
X59412D02*
X60878D01*
X57569D02*
X58695D01*
X61663Y-570776D02*
X62686D01*
X59412D02*
X60912D01*
X57604D02*
X58661D01*
X61697Y-570741D02*
X62618D01*
X59377D02*
X60912D01*
X57672D02*
X58593D01*
X61765Y-570707D02*
X62584D01*
X59377D02*
X60947D01*
X57740D02*
X58525D01*
X61834Y-570673D02*
X62516D01*
X59343D02*
X60947D01*
X57808D02*
X58456D01*
X61936Y-570639D02*
X62379D01*
X59343D02*
X60981D01*
X57911D02*
X58354D01*
X59343Y-570605D02*
X60981D01*
X59309Y-570571D02*
X60981D01*
X59309Y-570537D02*
X60981D01*
X59309Y-570503D02*
X61015D01*
X59309Y-570468D02*
X61015D01*
X59309Y-570434D02*
X61015D01*
X59275Y-570400D02*
X61015D01*
X59275Y-570366D02*
X61015D01*
X59275Y-570332D02*
X61015D01*
X59275Y-570298D02*
X61015D01*
X59275Y-570264D02*
X61015D01*
X59309Y-570230D02*
X61015D01*
X59309Y-570195D02*
X61015D01*
X59309Y-570161D02*
X61015D01*
X59309Y-570127D02*
X60981D01*
X59309Y-570093D02*
X60981D01*
X59343Y-570059D02*
X60981D01*
X59343Y-570025D02*
X60947D01*
X59343Y-569991D02*
X60947D01*
X59377Y-569957D02*
X60947D01*
X59377Y-569923D02*
X60912D01*
X59412Y-569888D02*
X60878D01*
X59446Y-569854D02*
X60878D01*
X59446Y-569820D02*
X60844D01*
X59480Y-569786D02*
X60810D01*
X59514Y-569752D02*
X60776D01*
X59548Y-569718D02*
X60742D01*
X59582Y-569684D02*
X60708D01*
X59616Y-569650D02*
X60674D01*
X59684Y-569616D02*
X60640D01*
X59719Y-569582D02*
X60571D01*
X59787Y-569547D02*
X60503D01*
X59889Y-569513D02*
X60401D01*
D13*
X73484Y-29744D02*
X94665D01*
Y14744D01*
X73484D02*
X94665D01*
X73484Y-29744D02*
Y14744D01*
X104063Y-516342D02*
Y-496658D01*
X111937Y-516342D02*
Y-496658D01*
X104063D02*
X111937D01*
X104063Y-516342D02*
X111937D01*
X20299Y-326394D02*
X25614Y-321079D01*
X5536Y-326394D02*
Y-305606D01*
X25614D01*
Y-321079D02*
Y-305606D01*
X5536Y-326394D02*
X20299D01*
X87063Y-438842D02*
Y-419158D01*
X94937Y-438842D02*
Y-419158D01*
X87063D02*
X94937D01*
X87063Y-438842D02*
X94937D01*
X106063Y-398843D02*
Y-379157D01*
X113937Y-398843D02*
Y-379157D01*
X106063D02*
X113937D01*
X106063Y-398843D02*
X113937D01*
X38402Y-70512D02*
X44701D01*
X38402Y-59488D02*
X44701D01*
X11748Y-69512D02*
X18047D01*
X11748Y-58488D02*
X18047D01*
X20799Y-417394D02*
X26114Y-412079D01*
X6036Y-417394D02*
Y-396606D01*
X26114D01*
Y-412079D02*
Y-396606D01*
X6036Y-417394D02*
X20799D01*
X19799Y-389894D02*
X25114Y-384579D01*
X5035Y-389894D02*
Y-369106D01*
X25114D01*
Y-384579D02*
Y-369106D01*
X5035Y-389894D02*
X19799D01*
X70575Y-361000D02*
Y-351000D01*
X50575D02*
X70575D01*
X50575Y-361000D02*
Y-351000D01*
Y-361000D02*
X70575D01*
X26012D02*
Y-351000D01*
Y-361000D02*
X46012D01*
Y-351000D01*
X26012D02*
X46012D01*
Y-350000D02*
Y-340000D01*
X26012D02*
X46012D01*
X26012Y-350000D02*
Y-340000D01*
Y-350000D02*
X46012D01*
X70638D02*
Y-340000D01*
X50638D02*
X70638D01*
X50638Y-350000D02*
Y-340000D01*
Y-350000D02*
X70638D01*
X124961Y-417921D02*
X130276Y-412606D01*
X145039Y-433394D02*
Y-412606D01*
X124961Y-433394D02*
X145039D01*
X124961D02*
Y-417921D01*
X130276Y-412606D02*
X145039D01*
X118075Y-371000D02*
Y-361000D01*
Y-371000D02*
X138075D01*
Y-361000D01*
X118075D02*
X138075D01*
X92575Y-371000D02*
Y-361000D01*
Y-371000D02*
X112575D01*
Y-361000D01*
X92575D02*
X112575D01*
X138075Y-360000D02*
Y-350000D01*
X118075D02*
X138075D01*
X118075Y-360000D02*
Y-350000D01*
Y-360000D02*
X138075D01*
X112575D02*
Y-350000D01*
X92575D02*
X112575D01*
X92575Y-360000D02*
Y-350000D01*
Y-360000D02*
X112575D01*
X66236Y-387539D02*
X67024D01*
X66236Y-392461D02*
X67024D01*
X75973Y-379382D02*
X88177D01*
X75973Y-375445D02*
X88177D01*
X75973Y-379382D02*
Y-375445D01*
X88177Y-379382D02*
Y-375445D01*
X14075Y-338000D02*
X141075D01*
X114141Y-373000D02*
Y-338000D01*
X39536Y-429394D02*
Y-428606D01*
X34614Y-429394D02*
Y-428606D01*
X35681Y-410461D02*
X36469D01*
X35681Y-405539D02*
X36469D01*
X52681Y-414461D02*
X53469D01*
X52681Y-409539D02*
X53469D01*
X62925Y-431165D02*
Y-426835D01*
X69225Y-431165D02*
Y-426835D01*
X32461Y-392894D02*
Y-392106D01*
X27539Y-392894D02*
Y-392106D01*
X31681Y-374461D02*
X32469D01*
X31681Y-369539D02*
X32469D01*
X46551Y-380898D02*
X50488D01*
X46551Y-393102D02*
X50488D01*
X46551D02*
Y-380898D01*
X50488Y-393102D02*
Y-380898D01*
X47681Y-374461D02*
X48469D01*
X47681Y-369539D02*
X48469D01*
X59973Y-397850D02*
X64303D01*
X59973Y-404150D02*
X64303D01*
X25815Y-231000D02*
X45815D01*
Y-241000D02*
Y-231000D01*
X25815Y-241000D02*
X45815D01*
X25815D02*
Y-231000D01*
X5536Y-270567D02*
X20299D01*
X25614Y-265252D02*
Y-249780D01*
X5536D02*
X25614D01*
X5536Y-270567D02*
Y-249780D01*
X20299Y-270567D02*
X25614Y-265252D01*
X5536Y-297894D02*
X20299D01*
X25614Y-292579D02*
Y-277106D01*
X5536D02*
X25614D01*
X5536Y-297894D02*
Y-277106D01*
X20299Y-297894D02*
X25614Y-292579D01*
X25815Y-230000D02*
X45815D01*
X25815D02*
Y-220000D01*
X45815D01*
Y-230000D02*
Y-220000D01*
X4535Y-536394D02*
X19299D01*
X24614Y-531079D02*
Y-515606D01*
X4535D02*
X24614D01*
X4535Y-536394D02*
Y-515606D01*
X19299Y-536394D02*
X24614Y-531079D01*
X4535Y-566394D02*
X19299D01*
X24614Y-561079D02*
Y-545606D01*
X4535D02*
X24614D01*
X4535Y-566394D02*
Y-545606D01*
X19299Y-566394D02*
X24614Y-561079D01*
X4461Y-507394D02*
X19224D01*
X24539Y-502079D02*
Y-486606D01*
X4461D02*
X24539D01*
X4461Y-507394D02*
Y-486606D01*
X19224Y-507394D02*
X24539Y-502079D01*
X25512Y-467000D02*
X45512D01*
X25512D02*
Y-457000D01*
X45512D01*
Y-467000D02*
Y-457000D01*
X25512Y-468000D02*
X45512D01*
Y-478000D02*
Y-468000D01*
X25512Y-478000D02*
X45512D01*
X25512D02*
Y-468000D01*
X6036Y-444894D02*
X20799D01*
X26114Y-439579D02*
Y-424106D01*
X6036D02*
X26114D01*
X6036Y-444894D02*
Y-424106D01*
X20799Y-444894D02*
X26114Y-439579D01*
X49575Y-478000D02*
X69575D01*
X49575D02*
Y-468000D01*
X69575D01*
Y-478000D02*
Y-468000D01*
X49575Y-467000D02*
X69575D01*
X49575D02*
Y-457000D01*
X69575D01*
Y-467000D02*
Y-457000D01*
X90575Y-478000D02*
X110575D01*
Y-488000D02*
Y-478000D01*
X90575Y-488000D02*
X110575D01*
X90575D02*
Y-478000D01*
Y-477000D02*
X110575D01*
X90575D02*
Y-467000D01*
X110575D01*
Y-477000D02*
Y-467000D01*
X118575Y-478000D02*
X138575D01*
Y-488000D02*
Y-478000D01*
X118575Y-488000D02*
X138575D01*
X118575D02*
Y-478000D01*
Y-477000D02*
X138575D01*
X118575D02*
Y-467000D01*
X138575D01*
Y-477000D02*
Y-467000D01*
X51055Y-230500D02*
X71055D01*
X51055D02*
Y-220500D01*
X71055D01*
Y-230500D02*
Y-220500D01*
X51055Y-241500D02*
X71055D01*
X51055D02*
Y-231500D01*
X71055D01*
Y-241500D02*
Y-231500D01*
X131772Y-286665D02*
X146536D01*
X126457Y-307453D02*
Y-291980D01*
Y-307453D02*
X146536D01*
Y-286665D01*
X126457Y-291980D02*
X131772Y-286665D01*
X127276Y-535669D02*
X142039D01*
X121961Y-556457D02*
Y-540984D01*
Y-556457D02*
X142039D01*
Y-535669D01*
X121961Y-540984D02*
X127276Y-535669D01*
X91815Y-242000D02*
X111815D01*
Y-252000D02*
Y-242000D01*
X91815Y-252000D02*
X111815D01*
X91815D02*
Y-242000D01*
Y-240000D02*
X111815D01*
X91815D02*
Y-230000D01*
X111815D01*
Y-240000D02*
Y-230000D01*
X118815Y-242000D02*
X138815D01*
Y-252000D02*
Y-242000D01*
X118815Y-252000D02*
X138815D01*
X118815D02*
Y-242000D01*
Y-240000D02*
X138815D01*
X118815D02*
Y-230000D01*
X138815D01*
Y-240000D02*
Y-230000D01*
X30421Y-288539D02*
X31209D01*
X30421Y-293461D02*
X31209D01*
X46421Y-290539D02*
X47209D01*
X46421Y-295461D02*
X47209D01*
X36355Y-310394D02*
Y-309606D01*
X41276Y-310394D02*
Y-309606D01*
X26355Y-273331D02*
Y-272543D01*
X31276Y-273331D02*
Y-272543D01*
X50229Y-271102D02*
Y-258898D01*
X46291Y-271102D02*
Y-258898D01*
Y-271102D02*
X50229D01*
X46291Y-258898D02*
X50229D01*
X36421Y-248539D02*
X37209D01*
X36421Y-253461D02*
X37209D01*
X52421Y-248539D02*
X53209D01*
X52421Y-253461D02*
X53209D01*
X101606Y-406461D02*
X102394D01*
X101606Y-401539D02*
X102394D01*
X118106Y-406461D02*
X118894D01*
X118106Y-401539D02*
X118894D01*
X101878Y-280843D02*
X109752D01*
X101878Y-261157D02*
X109752D01*
Y-280843D02*
Y-261157D01*
X101878Y-280843D02*
Y-261157D01*
X84917Y-262555D02*
Y-258618D01*
X72713Y-262555D02*
Y-258618D01*
X84917D01*
X72713Y-262555D02*
X84917D01*
X64205Y-289150D02*
X68536D01*
X64205Y-282850D02*
X68536D01*
X78197Y-314402D02*
X86071D01*
X78197Y-294717D02*
X86071D01*
Y-314402D02*
Y-294717D01*
X78197Y-314402D02*
Y-294717D01*
X97673Y-288461D02*
X98461D01*
X97673Y-283539D02*
X98461D01*
X113421Y-288461D02*
X114209D01*
X113421Y-283539D02*
X114209D01*
X65421Y-277461D02*
X66209D01*
X65421Y-272539D02*
X66209D01*
X60965Y-312165D02*
Y-307835D01*
X54665Y-312165D02*
Y-307835D01*
X115181Y-523461D02*
X115969D01*
X115181Y-518539D02*
X115969D01*
X59410Y-523150D02*
X63740D01*
X59410Y-516850D02*
X63740D01*
X67725Y-549665D02*
Y-545335D01*
X61425Y-549665D02*
Y-545335D01*
X85063Y-556843D02*
X92937D01*
X85063Y-537157D02*
X92937D01*
Y-556843D02*
Y-537157D01*
X85063Y-556843D02*
Y-537157D01*
X85437Y-497815D02*
Y-493878D01*
X73232Y-497815D02*
Y-493878D01*
X85437D01*
X73232Y-497815D02*
X85437D01*
X66181Y-512461D02*
X66969D01*
X66181Y-507539D02*
X66969D01*
X98354Y-523461D02*
X99142D01*
X98354Y-518539D02*
X99142D01*
X52988Y-529539D02*
X53776D01*
X52988Y-534461D02*
X53776D01*
X35114Y-545394D02*
Y-544606D01*
X40036Y-545394D02*
Y-544606D01*
X50606Y-511102D02*
Y-498898D01*
X46669Y-511102D02*
Y-498898D01*
Y-511102D02*
X50606D01*
X46669Y-498898D02*
X50606D01*
X36181Y-521539D02*
X36969D01*
X36181Y-526461D02*
X36969D01*
X27114Y-509394D02*
Y-508606D01*
X32036Y-509394D02*
Y-508606D01*
X34618Y-487539D02*
X35406D01*
X34618Y-492461D02*
X35406D01*
X52181Y-487539D02*
X52969D01*
X52181Y-492461D02*
X52969D01*
X112641Y-490000D02*
Y-455000D01*
X12575D02*
X139575D01*
X13815Y-219000D02*
X140815D01*
X113881Y-254000D02*
Y-219000D01*
X105638Y-160843D02*
X113512D01*
X105638Y-141157D02*
X113512D01*
Y-160843D02*
Y-141157D01*
X105638Y-160843D02*
Y-141157D01*
X86394Y-63457D02*
X99780D01*
X86394Y-70543D02*
X99780D01*
Y-63654D02*
Y-63457D01*
X86394Y-63654D02*
X91512D01*
X99780Y-70543D02*
Y-70346D01*
X86394D02*
X91512D01*
X4535Y-208362D02*
X19299D01*
X24614Y-203047D02*
Y-187575D01*
X4535D02*
X24614D01*
X4535Y-208362D02*
Y-187575D01*
X19299Y-208362D02*
X24614Y-203047D01*
X130851Y-179606D02*
X145614D01*
X125536Y-200394D02*
Y-184921D01*
Y-200394D02*
X145614D01*
Y-179606D01*
X125536Y-184921D02*
X130851Y-179606D01*
X4535Y-181213D02*
X19299D01*
X24614Y-175898D02*
Y-160425D01*
X4535D02*
X24614D01*
X4535Y-181213D02*
Y-160425D01*
X19299Y-181213D02*
X24614Y-175898D01*
X85638Y-196843D02*
X93512D01*
X85638Y-177157D02*
X93512D01*
Y-196843D02*
Y-177157D01*
X85638Y-196843D02*
Y-177157D01*
X46606Y-146898D02*
X50543D01*
X46606Y-159102D02*
X50543D01*
X46606D02*
Y-146898D01*
X50543Y-159102D02*
Y-146898D01*
X4535Y-154394D02*
X19299D01*
X24614Y-149079D02*
Y-133606D01*
X4535D02*
X24614D01*
X4535Y-154394D02*
Y-133606D01*
X19299Y-154394D02*
X24614Y-149079D01*
X137575Y-122000D02*
Y-112000D01*
X117575D02*
X137575D01*
X117575Y-122000D02*
Y-112000D01*
Y-122000D02*
X137575D01*
X117575Y-134000D02*
Y-124000D01*
Y-134000D02*
X137575D01*
Y-124000D01*
X117575D02*
X137575D01*
X112575Y-122000D02*
Y-112000D01*
X92575D02*
X112575D01*
X92575Y-122000D02*
Y-112000D01*
Y-122000D02*
X112575D01*
X31118Y-132539D02*
X31906D01*
X31118Y-137461D02*
X31906D01*
X118433Y-168280D02*
X119221D01*
X118433Y-163358D02*
X119221D01*
X71075Y-112000D02*
Y-102000D01*
X51075D02*
X71075D01*
X51075Y-112000D02*
Y-102000D01*
Y-112000D02*
X71075D01*
X103181Y-168673D02*
X103969D01*
X103181Y-163752D02*
X103969D01*
X61886Y-165850D02*
X66217D01*
X61886Y-172150D02*
X66217D01*
X62425Y-189228D02*
Y-184898D01*
X68725Y-189228D02*
Y-184898D01*
X86370Y-60347D02*
X91488D01*
X99756Y-60543D02*
Y-60347D01*
X86370Y-53654D02*
X91488D01*
X99756D02*
Y-53457D01*
X86370Y-60543D02*
X99756D01*
X86370Y-53457D02*
X99756D01*
X20662Y-86654D02*
X25780D01*
X12394D02*
Y-86457D01*
X20662Y-93347D02*
X25780D01*
X12394Y-93543D02*
Y-93347D01*
Y-86457D02*
X25780D01*
X12394Y-93543D02*
X25780D01*
X43587Y-80154D02*
X48705D01*
X35319D02*
Y-79957D01*
X43587Y-86847D02*
X48705D01*
X35319Y-87043D02*
Y-86847D01*
Y-79957D02*
X48705D01*
X35319Y-87043D02*
X48705D01*
X120595Y-36457D02*
Y-25945D01*
X110555Y-36457D02*
Y-25945D01*
X120595D01*
X27575Y-124000D02*
Y-114000D01*
Y-124000D02*
X47575D01*
Y-114000D01*
X27575D02*
X47575D01*
X31036Y-155331D02*
Y-154543D01*
X26114Y-155331D02*
Y-154543D01*
X67181Y-153539D02*
X67969D01*
X67181Y-158461D02*
X67969D01*
X31681Y-174461D02*
X32469D01*
X31681Y-169539D02*
X32469D01*
X46618Y-177961D02*
X47406D01*
X46618Y-173039D02*
X47406D01*
X5512Y-48677D02*
Y-33323D01*
X31890Y-48677D02*
Y-33323D01*
X5512Y-48677D02*
X31890D01*
X5512Y-33323D02*
X31890D01*
X35469Y-47973D02*
Y-33406D01*
X61847Y-47973D02*
Y-33406D01*
X35469Y-47973D02*
X61847D01*
X35469Y-33406D02*
X61847D01*
X42036Y-193394D02*
Y-192606D01*
X37114Y-193394D02*
Y-192606D01*
X71075Y-123000D02*
Y-113000D01*
X51075D02*
X71075D01*
X51075Y-123000D02*
Y-113000D01*
Y-123000D02*
X71075D01*
X47118Y-132539D02*
X47906D01*
X47118Y-137461D02*
X47906D01*
X47575Y-112000D02*
Y-102000D01*
X27575D02*
X47575D01*
X27575Y-112000D02*
Y-102000D01*
Y-112000D02*
X47575D01*
X86437Y-141382D02*
Y-137445D01*
X74232Y-141382D02*
Y-137445D01*
X86437D01*
X74232Y-141382D02*
X86437D01*
X92575Y-134000D02*
Y-124000D01*
Y-134000D02*
X112575D01*
Y-124000D01*
X92575D02*
X112575D01*
X114641Y-136000D02*
Y-101000D01*
X14575D02*
X141575D01*
D14*
X49141Y-363000D02*
Y-332000D01*
X2000Y-349575D02*
X19575Y-332000D01*
X90009Y-373000D02*
Y-332000D01*
X19575D02*
X135075D01*
X90075Y-372934D02*
X147141D01*
X135075Y-332000D02*
X147141Y-344066D01*
X2000Y-446500D02*
Y-349575D01*
X3575Y-363000D02*
X89141Y-363000D01*
X2000Y-446500D02*
X147141D01*
Y-344066D01*
X89749Y-213000D02*
X90575Y-213826D01*
X133575Y-449000D02*
X145641Y-461066D01*
X2000Y-568500D02*
X145641D01*
X88509Y-490000D02*
Y-449000D01*
X145641Y-568500D02*
Y-461066D01*
X18075Y-449000D02*
X133575D01*
X88575Y-489934D02*
X145641D01*
X2000Y-465075D02*
X18075Y-449000D01*
X47641Y-480000D02*
Y-449000D01*
X2500Y-480000D02*
X87641Y-480000D01*
X2000Y-568500D02*
Y-465075D01*
X48881Y-244000D02*
Y-213000D01*
X90575Y-253934D02*
X146881D01*
X2000Y-328500D02*
X146881D01*
Y-225066D01*
X90575Y-253934D02*
Y-213826D01*
X19315Y-213000D02*
X134815D01*
X146881Y-225066D01*
X2000Y-328500D02*
Y-230315D01*
Y-244000D02*
X88881Y-244000D01*
X2000Y-230315D02*
X19315Y-213000D01*
X3575Y-126000D02*
X89641D01*
X2000Y-210000D02*
Y-113075D01*
Y-210000D02*
X147641D01*
X2000Y-113075D02*
X20075Y-95000D01*
X90509Y-136000D02*
Y-95000D01*
X90575Y-135934D02*
X147641D01*
X20075Y-95000D02*
X135575D01*
X147641Y-107066D01*
Y-210000D02*
Y-107066D01*
X49641Y-126000D02*
Y-95000D01*
D15*
X98160Y-16606D02*
Y-14507D01*
X98685D01*
X99209Y-15032D01*
Y-16606D01*
Y-15032D01*
X99734Y-14507D01*
X100259Y-15032D01*
Y-16606D01*
X101308D02*
X102358D01*
X101833D01*
Y-14507D01*
X101308D01*
X103932Y-16606D02*
Y-14507D01*
X105507D01*
X106031Y-15032D01*
Y-16606D01*
X110229Y-13457D02*
X112328D01*
Y-13982D01*
X110229Y-16081D01*
Y-16606D01*
X113378Y-13457D02*
Y-15556D01*
X114427Y-16606D01*
X115477Y-15556D01*
Y-13457D01*
X98598Y-11811D02*
X99648D01*
X99123D01*
Y-8662D01*
X98598Y-9187D01*
X103321Y-11811D02*
X101222D01*
X103321Y-9712D01*
Y-9187D01*
X102797Y-8662D01*
X101747D01*
X101222Y-9187D01*
X104371Y-8662D02*
Y-10762D01*
X105420Y-11811D01*
X106470Y-10762D01*
Y-8662D01*
X98575Y-6000D02*
Y-2851D01*
X100149D01*
X100674Y-3376D01*
Y-4426D01*
X100149Y-4950D01*
X98575D01*
X102248Y-6000D02*
X103298D01*
X103823Y-5475D01*
Y-4426D01*
X103298Y-3901D01*
X102248D01*
X101724Y-4426D01*
Y-5475D01*
X102248Y-6000D01*
X104872Y-3901D02*
Y-5475D01*
X105397Y-6000D01*
X105922Y-5475D01*
X106446Y-6000D01*
X106971Y-5475D01*
Y-3901D01*
X109595Y-6000D02*
X108545D01*
X108021Y-5475D01*
Y-4426D01*
X108545Y-3901D01*
X109595D01*
X110120Y-4426D01*
Y-4950D01*
X108021D01*
X111169Y-3901D02*
Y-6000D01*
Y-4950D01*
X111694Y-4426D01*
X112219Y-3901D01*
X112744D01*
X117466Y-2851D02*
X118516D01*
X117991D01*
Y-6000D01*
X117466D01*
X118516D01*
X120090D02*
Y-2851D01*
X122189Y-6000D01*
Y-2851D01*
X3525Y-482901D02*
X4574D01*
X5099Y-483426D01*
Y-485000D01*
X3525D01*
X3000Y-484475D01*
X3525Y-483951D01*
X5099D01*
X6149Y-485000D02*
Y-482901D01*
X7723D01*
X8248Y-483426D01*
Y-485000D01*
X9822Y-482901D02*
X10871D01*
X11396Y-483426D01*
Y-485000D01*
X9822D01*
X9297Y-484475D01*
X9822Y-483951D01*
X11396D01*
X12446Y-485000D02*
X13495D01*
X12970D01*
Y-481851D01*
X12446D01*
X15594Y-485000D02*
X16644D01*
X17169Y-484475D01*
Y-483426D01*
X16644Y-482901D01*
X15594D01*
X15070Y-483426D01*
Y-484475D01*
X15594Y-485000D01*
X19268Y-486050D02*
X19793D01*
X20317Y-485525D01*
Y-482901D01*
X18743D01*
X18218Y-483426D01*
Y-484475D01*
X18743Y-485000D01*
X20317D01*
X24515D02*
X25565D01*
X25040D01*
Y-482901D01*
X24515D01*
X27139Y-485000D02*
Y-482901D01*
X28714D01*
X29238Y-483426D01*
Y-485000D01*
X70481Y-460894D02*
X71531D01*
X72056Y-461419D01*
Y-462993D01*
X70481D01*
X69957Y-462469D01*
X70481Y-461944D01*
X72056D01*
X73105Y-462993D02*
Y-460894D01*
X74680D01*
X75204Y-461419D01*
Y-462993D01*
X76779Y-460894D02*
X77828D01*
X78353Y-461419D01*
Y-462993D01*
X76779D01*
X76254Y-462469D01*
X76779Y-461944D01*
X78353D01*
X79403Y-462993D02*
X80452D01*
X79927D01*
Y-459845D01*
X79403D01*
X82551Y-462993D02*
X83601D01*
X84125Y-462469D01*
Y-461419D01*
X83601Y-460894D01*
X82551D01*
X82026Y-461419D01*
Y-462469D01*
X82551Y-462993D01*
X86224Y-464043D02*
X86749D01*
X87274Y-463518D01*
Y-460894D01*
X85700D01*
X85175Y-461419D01*
Y-462469D01*
X85700Y-462993D01*
X87274D01*
X4025Y-365401D02*
X5074D01*
X5599Y-365926D01*
Y-367500D01*
X4025D01*
X3500Y-366975D01*
X4025Y-366451D01*
X5599D01*
X6649Y-367500D02*
Y-365401D01*
X8223D01*
X8748Y-365926D01*
Y-367500D01*
X10322Y-365401D02*
X11372D01*
X11896Y-365926D01*
Y-367500D01*
X10322D01*
X9797Y-366975D01*
X10322Y-366451D01*
X11896D01*
X12946Y-367500D02*
X13995D01*
X13471D01*
Y-364351D01*
X12946D01*
X16094Y-367500D02*
X17144D01*
X17669Y-366975D01*
Y-365926D01*
X17144Y-365401D01*
X16094D01*
X15570Y-365926D01*
Y-366975D01*
X16094Y-367500D01*
X19768Y-368549D02*
X20292D01*
X20817Y-368025D01*
Y-365401D01*
X19243D01*
X18718Y-365926D01*
Y-366975D01*
X19243Y-367500D01*
X20817D01*
X25015D02*
X26065D01*
X25540D01*
Y-365401D01*
X25015D01*
X27639Y-367500D02*
Y-365401D01*
X29214D01*
X29738Y-365926D01*
Y-367500D01*
X71682Y-343251D02*
X72731D01*
X73256Y-343776D01*
Y-345351D01*
X71682D01*
X71157Y-344826D01*
X71682Y-344301D01*
X73256D01*
X74306Y-345351D02*
Y-343251D01*
X75880D01*
X76405Y-343776D01*
Y-345351D01*
X77979Y-343251D02*
X79029D01*
X79553Y-343776D01*
Y-345351D01*
X77979D01*
X77454Y-344826D01*
X77979Y-344301D01*
X79553D01*
X80603Y-345351D02*
X81652D01*
X81128D01*
Y-342202D01*
X80603D01*
X83751Y-345351D02*
X84801D01*
X85326Y-344826D01*
Y-343776D01*
X84801Y-343251D01*
X83751D01*
X83227Y-343776D01*
Y-344826D01*
X83751Y-345351D01*
X87425Y-346400D02*
X87950D01*
X88474Y-345875D01*
Y-343251D01*
X86900D01*
X86375Y-343776D01*
Y-344826D01*
X86900Y-345351D01*
X88474D01*
X20075Y-337000D02*
Y-333852D01*
X21649D01*
X22174Y-334376D01*
Y-335426D01*
X21649Y-335950D01*
X20075D01*
X23223Y-333852D02*
Y-337000D01*
X24273Y-335950D01*
X25323Y-337000D01*
Y-333852D01*
X26372Y-337000D02*
Y-333852D01*
X27422Y-334901D01*
X28471Y-333852D01*
Y-337000D01*
X32669D02*
X33719D01*
X33194D01*
Y-334901D01*
X32669D01*
X35293Y-337000D02*
Y-334901D01*
X36867D01*
X37392Y-335426D01*
Y-337000D01*
X38442Y-338050D02*
Y-334901D01*
X40016D01*
X40541Y-335426D01*
Y-336475D01*
X40016Y-337000D01*
X38442D01*
X41590Y-334901D02*
Y-336475D01*
X42115Y-337000D01*
X43689D01*
Y-334901D01*
X45264Y-334376D02*
Y-334901D01*
X44739D01*
X45788D01*
X45264D01*
Y-336475D01*
X45788Y-337000D01*
X75575Y-357000D02*
Y-353852D01*
X77149D01*
X77674Y-354376D01*
Y-355426D01*
X77149Y-355950D01*
X75575D01*
X78724Y-353852D02*
Y-357000D01*
X79773Y-355950D01*
X80823Y-357000D01*
Y-353852D01*
X81872Y-357000D02*
Y-353852D01*
X82922Y-354901D01*
X83971Y-353852D01*
Y-357000D01*
X93600Y-345901D02*
X94649D01*
X95174Y-346426D01*
Y-348000D01*
X93600D01*
X93075Y-347475D01*
X93600Y-346951D01*
X95174D01*
X98323Y-345901D02*
X96748D01*
X96223Y-346426D01*
Y-347475D01*
X96748Y-348000D01*
X98323D01*
X99897Y-345376D02*
Y-345901D01*
X99372D01*
X100422D01*
X99897D01*
Y-347475D01*
X100422Y-348000D01*
X101996D02*
X103045D01*
X102521D01*
Y-345901D01*
X101996D01*
X104620D02*
X105669Y-348000D01*
X106719Y-345901D01*
X109343Y-348000D02*
X108293D01*
X107768Y-347475D01*
Y-346426D01*
X108293Y-345901D01*
X109343D01*
X109867Y-346426D01*
Y-346951D01*
X107768D01*
X93075Y-339851D02*
Y-343000D01*
Y-341426D01*
X93600Y-340901D01*
X94649D01*
X95174Y-341426D01*
Y-343000D01*
X96223D02*
X97273D01*
X96748D01*
Y-340901D01*
X96223D01*
X99897Y-344050D02*
X100422D01*
X100946Y-343525D01*
Y-340901D01*
X99372D01*
X98847Y-341426D01*
Y-342475D01*
X99372Y-343000D01*
X100946D01*
X101996Y-339851D02*
Y-343000D01*
Y-341426D01*
X102521Y-340901D01*
X103570D01*
X104095Y-341426D01*
Y-343000D01*
X121075D02*
X122125D01*
X121600D01*
Y-339851D01*
X121075D01*
X124223Y-343000D02*
X125273D01*
X125798Y-342475D01*
Y-341426D01*
X125273Y-340901D01*
X124223D01*
X123699Y-341426D01*
Y-342475D01*
X124223Y-343000D01*
X126847Y-340901D02*
Y-342475D01*
X127372Y-343000D01*
X127897Y-342475D01*
X128422Y-343000D01*
X128946Y-342475D01*
Y-340901D01*
X94649Y-337000D02*
X93600D01*
X93075Y-336475D01*
Y-335426D01*
X93600Y-334901D01*
X94649D01*
X95174Y-335426D01*
Y-335950D01*
X93075D01*
X96223Y-337000D02*
Y-334901D01*
X97798D01*
X98323Y-335426D01*
Y-337000D01*
X99897Y-334901D02*
X100946D01*
X101471Y-335426D01*
Y-337000D01*
X99897D01*
X99372Y-336475D01*
X99897Y-335950D01*
X101471D01*
X102521Y-333852D02*
Y-337000D01*
X104095D01*
X104620Y-336475D01*
Y-335950D01*
Y-335426D01*
X104095Y-334901D01*
X102521D01*
X105669Y-337000D02*
X106719D01*
X106194D01*
Y-333852D01*
X105669D01*
X109867Y-337000D02*
X108818D01*
X108293Y-336475D01*
Y-335426D01*
X108818Y-334901D01*
X109867D01*
X110392Y-335426D01*
Y-335950D01*
X108293D01*
X116689Y-334376D02*
X116165Y-333852D01*
X115115D01*
X114590Y-334376D01*
Y-334901D01*
X115115Y-335426D01*
X116165D01*
X116689Y-335950D01*
Y-336475D01*
X116165Y-337000D01*
X115115D01*
X114590Y-336475D01*
X117739Y-337000D02*
X118788D01*
X118264D01*
Y-334901D01*
X117739D01*
X121412Y-338050D02*
X121937D01*
X122462Y-337525D01*
Y-334901D01*
X120887D01*
X120363Y-335426D01*
Y-336475D01*
X120887Y-337000D01*
X122462D01*
X123511D02*
Y-334901D01*
X125086D01*
X125610Y-335426D01*
Y-337000D01*
X127185Y-334901D02*
X128234D01*
X128759Y-335426D01*
Y-337000D01*
X127185D01*
X126660Y-336475D01*
X127185Y-335950D01*
X128759D01*
X129808Y-337000D02*
X130858D01*
X130333D01*
Y-333852D01*
X129808D01*
X132432Y-334376D02*
X132957Y-333852D01*
X134007D01*
X134531Y-334376D01*
Y-334901D01*
X133482Y-335950D01*
Y-336475D02*
Y-337000D01*
X62512Y-333852D02*
X63561D01*
X63037D01*
Y-337000D01*
X62512D01*
X63561D01*
X65136D02*
Y-333852D01*
X67235Y-337000D01*
Y-333852D01*
X71433Y-334376D02*
X71958Y-333852D01*
X73007D01*
X73532Y-334376D01*
Y-334901D01*
X72483Y-335950D01*
Y-336475D02*
Y-337000D01*
X5574Y-422500D02*
X4525D01*
X4000Y-421975D01*
Y-420926D01*
X4525Y-420401D01*
X5574D01*
X6099Y-420926D01*
Y-421451D01*
X4000D01*
X7149Y-422500D02*
Y-420401D01*
X8723D01*
X9248Y-420926D01*
Y-422500D01*
X10822Y-420401D02*
X11872D01*
X12396Y-420926D01*
Y-422500D01*
X10822D01*
X10297Y-421975D01*
X10822Y-421451D01*
X12396D01*
X13446Y-419351D02*
Y-422500D01*
X15020D01*
X15545Y-421975D01*
Y-421451D01*
Y-420926D01*
X15020Y-420401D01*
X13446D01*
X16594Y-422500D02*
X17644D01*
X17119D01*
Y-419351D01*
X16594D01*
X20793Y-422500D02*
X19743D01*
X19218Y-421975D01*
Y-420926D01*
X19743Y-420401D01*
X20793D01*
X21317Y-420926D01*
Y-421451D01*
X19218D01*
X25515Y-422500D02*
X26565D01*
X26040D01*
Y-420401D01*
X25515D01*
X28139Y-422500D02*
Y-420401D01*
X29713D01*
X30238Y-420926D01*
Y-422500D01*
X4500Y-395000D02*
Y-391851D01*
X6074D01*
X6599Y-392376D01*
Y-393426D01*
X6074Y-393951D01*
X4500D01*
X7649Y-391851D02*
Y-395000D01*
X8698Y-393951D01*
X9748Y-395000D01*
Y-391851D01*
X10797Y-395000D02*
Y-391851D01*
X11847Y-392901D01*
X12896Y-391851D01*
Y-395000D01*
X17094D02*
X18144D01*
X17619D01*
Y-392901D01*
X17094D01*
X19718Y-395000D02*
Y-392901D01*
X21293D01*
X21817Y-393426D01*
Y-395000D01*
X18174Y-353852D02*
X16075D01*
Y-355426D01*
X17124Y-354901D01*
X17649D01*
X18174Y-355426D01*
Y-356475D01*
X17649Y-357000D01*
X16600D01*
X16075Y-356475D01*
X19223Y-353852D02*
Y-355950D01*
X20273Y-357000D01*
X21323Y-355950D01*
Y-353852D01*
X13075Y-345376D02*
X13600Y-344851D01*
X14649D01*
X15174Y-345376D01*
Y-345901D01*
X14649Y-346426D01*
X14124D01*
X14649D01*
X15174Y-346951D01*
Y-347475D01*
X14649Y-348000D01*
X13600D01*
X13075Y-347475D01*
X16224Y-348000D02*
Y-347475D01*
X16748D01*
Y-348000D01*
X16224D01*
X18847Y-345376D02*
X19372Y-344851D01*
X20422D01*
X20946Y-345376D01*
Y-345901D01*
X20422Y-346426D01*
X19897D01*
X20422D01*
X20946Y-346951D01*
Y-347475D01*
X20422Y-348000D01*
X19372D01*
X18847Y-347475D01*
X21996Y-344851D02*
Y-346951D01*
X23045Y-348000D01*
X24095Y-346951D01*
Y-344851D01*
X121600Y-345901D02*
X122649D01*
X123174Y-346426D01*
Y-348000D01*
X121600D01*
X121075Y-347475D01*
X121600Y-346951D01*
X123174D01*
X126323Y-345901D02*
X124748D01*
X124223Y-346426D01*
Y-347475D01*
X124748Y-348000D01*
X126323D01*
X127897Y-345376D02*
Y-345901D01*
X127372D01*
X128422D01*
X127897D01*
Y-347475D01*
X128422Y-348000D01*
X129996D02*
X131045D01*
X130521D01*
Y-345901D01*
X129996D01*
X132620D02*
X133669Y-348000D01*
X134719Y-345901D01*
X137343Y-348000D02*
X136293D01*
X135768Y-347475D01*
Y-346426D01*
X136293Y-345901D01*
X137343D01*
X137867Y-346426D01*
Y-346951D01*
X135768D01*
X136525Y-410500D02*
X137574D01*
X138099Y-409975D01*
Y-408926D01*
X137574Y-408401D01*
X136525D01*
X136000Y-408926D01*
Y-409975D01*
X136525Y-410500D01*
X139149Y-408401D02*
Y-409975D01*
X139673Y-410500D01*
X141248D01*
Y-408401D01*
X142822Y-407876D02*
Y-408401D01*
X142297D01*
X143347D01*
X142822D01*
Y-409975D01*
X143347Y-410500D01*
X5600Y-246401D02*
X6649D01*
X7174Y-246926D01*
Y-248500D01*
X5600D01*
X5075Y-247975D01*
X5600Y-247450D01*
X7174D01*
X8224Y-248500D02*
Y-246401D01*
X9798D01*
X10323Y-246926D01*
Y-248500D01*
X11897Y-246401D02*
X12946D01*
X13471Y-246926D01*
Y-248500D01*
X11897D01*
X11372Y-247975D01*
X11897Y-247450D01*
X13471D01*
X14521Y-248500D02*
X15570D01*
X15045D01*
Y-245352D01*
X14521D01*
X17669Y-248500D02*
X18719D01*
X19244Y-247975D01*
Y-246926D01*
X18719Y-246401D01*
X17669D01*
X17144Y-246926D01*
Y-247975D01*
X17669Y-248500D01*
X21343Y-249550D02*
X21867D01*
X22392Y-249025D01*
Y-246401D01*
X20818D01*
X20293Y-246926D01*
Y-247975D01*
X20818Y-248500D01*
X22392D01*
X26590D02*
X27640D01*
X27115D01*
Y-246401D01*
X26590D01*
X29214Y-248500D02*
Y-246401D01*
X30788D01*
X31313Y-246926D01*
Y-248500D01*
X72037Y-224901D02*
X73086D01*
X73611Y-225426D01*
Y-227000D01*
X72037D01*
X71512Y-226475D01*
X72037Y-225951D01*
X73611D01*
X74660Y-227000D02*
Y-224901D01*
X76235D01*
X76760Y-225426D01*
Y-227000D01*
X78334Y-224901D02*
X79383D01*
X79908Y-225426D01*
Y-227000D01*
X78334D01*
X77809Y-226475D01*
X78334Y-225951D01*
X79908D01*
X80958Y-227000D02*
X82007D01*
X81482D01*
Y-223851D01*
X80958D01*
X84106Y-227000D02*
X85156D01*
X85681Y-226475D01*
Y-225426D01*
X85156Y-224901D01*
X84106D01*
X83582Y-225426D01*
Y-226475D01*
X84106Y-227000D01*
X87780Y-228050D02*
X88304D01*
X88829Y-227525D01*
Y-224901D01*
X87255D01*
X86730Y-225426D01*
Y-226475D01*
X87255Y-227000D01*
X88829D01*
X4960Y-129489D02*
X6010D01*
X6534Y-130014D01*
Y-131588D01*
X4960D01*
X4435Y-131063D01*
X4960Y-130538D01*
X6534D01*
X7584Y-131588D02*
Y-129489D01*
X9158D01*
X9683Y-130014D01*
Y-131588D01*
X11257Y-129489D02*
X12307D01*
X12832Y-130014D01*
Y-131588D01*
X11257D01*
X10733Y-131063D01*
X11257Y-130538D01*
X12832D01*
X13881Y-131588D02*
X14931D01*
X14406D01*
Y-128439D01*
X13881D01*
X17030Y-131588D02*
X18079D01*
X18604Y-131063D01*
Y-130014D01*
X18079Y-129489D01*
X17030D01*
X16505Y-130014D01*
Y-131063D01*
X17030Y-131588D01*
X20703Y-132637D02*
X21228D01*
X21753Y-132113D01*
Y-129489D01*
X20178D01*
X19654Y-130014D01*
Y-131063D01*
X20178Y-131588D01*
X21753D01*
X25951D02*
X27000D01*
X26476D01*
Y-129489D01*
X25951D01*
X28575Y-131588D02*
Y-129489D01*
X30149D01*
X30674Y-130014D01*
Y-131588D01*
X93149Y-454000D02*
X92100D01*
X91575Y-453475D01*
Y-452426D01*
X92100Y-451901D01*
X93149D01*
X93674Y-452426D01*
Y-452950D01*
X91575D01*
X94723Y-454000D02*
Y-451901D01*
X96298D01*
X96823Y-452426D01*
Y-454000D01*
X98397Y-451901D02*
X99446D01*
X99971Y-452426D01*
Y-454000D01*
X98397D01*
X97872Y-453475D01*
X98397Y-452950D01*
X99971D01*
X101021Y-450851D02*
Y-454000D01*
X102595D01*
X103120Y-453475D01*
Y-452950D01*
Y-452426D01*
X102595Y-451901D01*
X101021D01*
X104169Y-454000D02*
X105219D01*
X104694D01*
Y-450851D01*
X104169D01*
X108367Y-454000D02*
X107318D01*
X106793Y-453475D01*
Y-452426D01*
X107318Y-451901D01*
X108367D01*
X108892Y-452426D01*
Y-452950D01*
X106793D01*
X115189Y-451376D02*
X114665Y-450851D01*
X113615D01*
X113090Y-451376D01*
Y-451901D01*
X113615Y-452426D01*
X114665D01*
X115189Y-452950D01*
Y-453475D01*
X114665Y-454000D01*
X113615D01*
X113090Y-453475D01*
X116239Y-454000D02*
X117288D01*
X116764D01*
Y-451901D01*
X116239D01*
X119912Y-455050D02*
X120437D01*
X120962Y-454525D01*
Y-451901D01*
X119387D01*
X118863Y-452426D01*
Y-453475D01*
X119387Y-454000D01*
X120962D01*
X122011D02*
Y-451901D01*
X123586D01*
X124110Y-452426D01*
Y-454000D01*
X125685Y-451901D02*
X126734D01*
X127259Y-452426D01*
Y-454000D01*
X125685D01*
X125160Y-453475D01*
X125685Y-452950D01*
X127259D01*
X128308Y-454000D02*
X129358D01*
X128833D01*
Y-450851D01*
X128308D01*
X130932Y-451376D02*
X131457Y-450851D01*
X132507D01*
X133031Y-451376D01*
Y-451901D01*
X131982Y-452950D01*
Y-453475D02*
Y-454000D01*
X120100Y-462901D02*
X121149D01*
X121674Y-463426D01*
Y-465000D01*
X120100D01*
X119575Y-464475D01*
X120100Y-463950D01*
X121674D01*
X124823Y-462901D02*
X123248D01*
X122723Y-463426D01*
Y-464475D01*
X123248Y-465000D01*
X124823D01*
X126397Y-462376D02*
Y-462901D01*
X125872D01*
X126922D01*
X126397D01*
Y-464475D01*
X126922Y-465000D01*
X128496D02*
X129545D01*
X129021D01*
Y-462901D01*
X128496D01*
X131120D02*
X132169Y-465000D01*
X133219Y-462901D01*
X135843Y-465000D02*
X134793D01*
X134268Y-464475D01*
Y-463426D01*
X134793Y-462901D01*
X135843D01*
X136367Y-463426D01*
Y-463950D01*
X134268D01*
X119575Y-460000D02*
X120624D01*
X120100D01*
Y-456851D01*
X119575D01*
X122723Y-460000D02*
X123773D01*
X124298Y-459475D01*
Y-458426D01*
X123773Y-457901D01*
X122723D01*
X122199Y-458426D01*
Y-459475D01*
X122723Y-460000D01*
X125347Y-457901D02*
Y-459475D01*
X125872Y-460000D01*
X126397Y-459475D01*
X126922Y-460000D01*
X127446Y-459475D01*
Y-457901D01*
X92100Y-462901D02*
X93149D01*
X93674Y-463426D01*
Y-465000D01*
X92100D01*
X91575Y-464475D01*
X92100Y-463950D01*
X93674D01*
X96823Y-462901D02*
X95248D01*
X94723Y-463426D01*
Y-464475D01*
X95248Y-465000D01*
X96823D01*
X98397Y-462376D02*
Y-462901D01*
X97872D01*
X98922D01*
X98397D01*
Y-464475D01*
X98922Y-465000D01*
X100496D02*
X101546D01*
X101021D01*
Y-462901D01*
X100496D01*
X103120D02*
X104169Y-465000D01*
X105219Y-462901D01*
X107843Y-465000D02*
X106793D01*
X106268Y-464475D01*
Y-463426D01*
X106793Y-462901D01*
X107843D01*
X108367Y-463426D01*
Y-463950D01*
X106268D01*
X74500Y-476000D02*
Y-472851D01*
X76074D01*
X76599Y-473376D01*
Y-474426D01*
X76074Y-474951D01*
X74500D01*
X77649Y-472851D02*
Y-476000D01*
X78698Y-474951D01*
X79748Y-476000D01*
Y-472851D01*
X80797Y-476000D02*
Y-472851D01*
X81847Y-473901D01*
X82896Y-472851D01*
Y-476000D01*
X134525Y-533500D02*
X135574D01*
X136099Y-532975D01*
Y-531926D01*
X135574Y-531401D01*
X134525D01*
X134000Y-531926D01*
Y-532975D01*
X134525Y-533500D01*
X137149Y-531401D02*
Y-532975D01*
X137673Y-533500D01*
X139248D01*
Y-531401D01*
X140822Y-530876D02*
Y-531401D01*
X140297D01*
X141347D01*
X140822D01*
Y-532975D01*
X141347Y-533500D01*
X91575Y-456851D02*
Y-460000D01*
Y-458426D01*
X92100Y-457901D01*
X93149D01*
X93674Y-458426D01*
Y-460000D01*
X94723D02*
X95773D01*
X95248D01*
Y-457901D01*
X94723D01*
X98397Y-461050D02*
X98922D01*
X99446Y-460525D01*
Y-457901D01*
X97872D01*
X97347Y-458426D01*
Y-459475D01*
X97872Y-460000D01*
X99446D01*
X100496Y-456851D02*
Y-460000D01*
Y-458426D01*
X101021Y-457901D01*
X102070D01*
X102595Y-458426D01*
Y-460000D01*
X61012Y-450851D02*
X62062D01*
X61537D01*
Y-454000D01*
X61012D01*
X62062D01*
X63636D02*
Y-450851D01*
X65735Y-454000D01*
Y-450851D01*
X69933Y-451376D02*
X70458Y-450851D01*
X71507D01*
X72032Y-451376D01*
Y-451901D01*
X70982Y-452950D01*
Y-453475D02*
Y-454000D01*
X4500Y-514500D02*
Y-511351D01*
X6074D01*
X6599Y-511876D01*
Y-512926D01*
X6074Y-513450D01*
X4500D01*
X7649Y-511351D02*
Y-514500D01*
X8698Y-513450D01*
X9748Y-514500D01*
Y-511351D01*
X10797Y-514500D02*
Y-511351D01*
X11847Y-512401D01*
X12896Y-511351D01*
Y-514500D01*
X17094D02*
X18144D01*
X17619D01*
Y-512401D01*
X17094D01*
X19718Y-514500D02*
Y-512401D01*
X21293D01*
X21817Y-512926D01*
Y-514500D01*
X16674Y-470852D02*
X14575D01*
Y-472426D01*
X15624Y-471901D01*
X16149D01*
X16674Y-472426D01*
Y-473475D01*
X16149Y-474000D01*
X15100D01*
X14575Y-473475D01*
X17724Y-470852D02*
Y-472951D01*
X18773Y-474000D01*
X19823Y-472951D01*
Y-470852D01*
X18575Y-454000D02*
Y-450851D01*
X20149D01*
X20674Y-451376D01*
Y-452426D01*
X20149Y-452950D01*
X18575D01*
X21723Y-450851D02*
Y-454000D01*
X22773Y-452950D01*
X23823Y-454000D01*
Y-450851D01*
X24872Y-454000D02*
Y-450851D01*
X25922Y-451901D01*
X26971Y-450851D01*
Y-454000D01*
X31169D02*
X32219D01*
X31694D01*
Y-451901D01*
X31169D01*
X33793Y-454000D02*
Y-451901D01*
X35367D01*
X35892Y-452426D01*
Y-454000D01*
X36942Y-455050D02*
Y-451901D01*
X38516D01*
X39041Y-452426D01*
Y-453475D01*
X38516Y-454000D01*
X36942D01*
X40090Y-451901D02*
Y-453475D01*
X40615Y-454000D01*
X42189D01*
Y-451901D01*
X43764Y-451376D02*
Y-451901D01*
X43239D01*
X44288D01*
X43764D01*
Y-453475D01*
X44288Y-454000D01*
X11575Y-462376D02*
X12100Y-461852D01*
X13149D01*
X13674Y-462376D01*
Y-462901D01*
X13149Y-463426D01*
X12625D01*
X13149D01*
X13674Y-463950D01*
Y-464475D01*
X13149Y-465000D01*
X12100D01*
X11575Y-464475D01*
X14724Y-465000D02*
Y-464475D01*
X15248D01*
Y-465000D01*
X14724D01*
X17347Y-462376D02*
X17872Y-461852D01*
X18922D01*
X19446Y-462376D01*
Y-462901D01*
X18922Y-463426D01*
X18397D01*
X18922D01*
X19446Y-463950D01*
Y-464475D01*
X18922Y-465000D01*
X17872D01*
X17347Y-464475D01*
X20496Y-461852D02*
Y-463950D01*
X21545Y-465000D01*
X22595Y-463950D01*
Y-461852D01*
X5574Y-543500D02*
X4525D01*
X4000Y-542975D01*
Y-541926D01*
X4525Y-541401D01*
X5574D01*
X6099Y-541926D01*
Y-542451D01*
X4000D01*
X7149Y-543500D02*
Y-541401D01*
X8723D01*
X9248Y-541926D01*
Y-543500D01*
X10822Y-541401D02*
X11872D01*
X12396Y-541926D01*
Y-543500D01*
X10822D01*
X10297Y-542975D01*
X10822Y-542451D01*
X12396D01*
X13446Y-540351D02*
Y-543500D01*
X15020D01*
X15545Y-542975D01*
Y-542451D01*
Y-541926D01*
X15020Y-541401D01*
X13446D01*
X16594Y-543500D02*
X17644D01*
X17119D01*
Y-540351D01*
X16594D01*
X20793Y-543500D02*
X19743D01*
X19218Y-542975D01*
Y-541926D01*
X19743Y-541401D01*
X20793D01*
X21317Y-541926D01*
Y-542451D01*
X19218D01*
X25515Y-543500D02*
X26565D01*
X26040D01*
Y-541401D01*
X25515D01*
X28139Y-543500D02*
Y-541401D01*
X29713D01*
X30238Y-541926D01*
Y-543500D01*
X62252Y-214851D02*
X63302D01*
X62777D01*
Y-218000D01*
X62252D01*
X63302D01*
X64876D02*
Y-214851D01*
X66975Y-218000D01*
Y-214851D01*
X71173Y-215376D02*
X71698Y-214851D01*
X72747D01*
X73272Y-215376D01*
Y-215901D01*
X72223Y-216950D01*
Y-217475D02*
Y-218000D01*
X138340Y-285000D02*
X139389D01*
X139914Y-284475D01*
Y-283426D01*
X139389Y-282901D01*
X138340D01*
X137815Y-283426D01*
Y-284475D01*
X138340Y-285000D01*
X140964Y-282901D02*
Y-284475D01*
X141488Y-285000D01*
X143063D01*
Y-282901D01*
X144637Y-282376D02*
Y-282901D01*
X144112D01*
X145162D01*
X144637D01*
Y-284475D01*
X145162Y-285000D01*
X92815Y-220851D02*
Y-224000D01*
Y-222426D01*
X93340Y-221901D01*
X94389D01*
X94914Y-222426D01*
Y-224000D01*
X95964D02*
X97013D01*
X96488D01*
Y-221901D01*
X95964D01*
X99637Y-225050D02*
X100162D01*
X100687Y-224525D01*
Y-221901D01*
X99112D01*
X98588Y-222426D01*
Y-223475D01*
X99112Y-224000D01*
X100687D01*
X101736Y-220851D02*
Y-224000D01*
Y-222426D01*
X102261Y-221901D01*
X103310D01*
X103835Y-222426D01*
Y-224000D01*
X78693Y-238000D02*
Y-234852D01*
X80267D01*
X80792Y-235376D01*
Y-236426D01*
X80267Y-236950D01*
X78693D01*
X81842Y-234852D02*
Y-238000D01*
X82891Y-236950D01*
X83941Y-238000D01*
Y-234852D01*
X84990Y-238000D02*
Y-234852D01*
X86040Y-235901D01*
X87089Y-234852D01*
Y-238000D01*
X93340Y-226901D02*
X94389D01*
X94914Y-227426D01*
Y-229000D01*
X93340D01*
X92815Y-228475D01*
X93340Y-227951D01*
X94914D01*
X98063Y-226901D02*
X96488D01*
X95964Y-227426D01*
Y-228475D01*
X96488Y-229000D01*
X98063D01*
X99637Y-226376D02*
Y-226901D01*
X99112D01*
X100162D01*
X99637D01*
Y-228475D01*
X100162Y-229000D01*
X101736D02*
X102786D01*
X102261D01*
Y-226901D01*
X101736D01*
X104360D02*
X105409Y-229000D01*
X106459Y-226901D01*
X109083Y-229000D02*
X108033D01*
X107509Y-228475D01*
Y-227426D01*
X108033Y-226901D01*
X109083D01*
X109608Y-227426D01*
Y-227951D01*
X107509D01*
X94389Y-218000D02*
X93340D01*
X92815Y-217475D01*
Y-216426D01*
X93340Y-215901D01*
X94389D01*
X94914Y-216426D01*
Y-216950D01*
X92815D01*
X95964Y-218000D02*
Y-215901D01*
X97538D01*
X98063Y-216426D01*
Y-218000D01*
X99637Y-215901D02*
X100687D01*
X101211Y-216426D01*
Y-218000D01*
X99637D01*
X99112Y-217475D01*
X99637Y-216950D01*
X101211D01*
X102261Y-214851D02*
Y-218000D01*
X103835D01*
X104360Y-217475D01*
Y-216950D01*
Y-216426D01*
X103835Y-215901D01*
X102261D01*
X105409Y-218000D02*
X106459D01*
X105934D01*
Y-214851D01*
X105409D01*
X109608Y-218000D02*
X108558D01*
X108033Y-217475D01*
Y-216426D01*
X108558Y-215901D01*
X109608D01*
X110132Y-216426D01*
Y-216950D01*
X108033D01*
X116429Y-215376D02*
X115905Y-214851D01*
X114855D01*
X114330Y-215376D01*
Y-215901D01*
X114855Y-216426D01*
X115905D01*
X116429Y-216950D01*
Y-217475D01*
X115905Y-218000D01*
X114855D01*
X114330Y-217475D01*
X117479Y-218000D02*
X118529D01*
X118004D01*
Y-215901D01*
X117479D01*
X121152Y-219050D02*
X121677D01*
X122202Y-218525D01*
Y-215901D01*
X120628D01*
X120103Y-216426D01*
Y-217475D01*
X120628Y-218000D01*
X122202D01*
X123251D02*
Y-215901D01*
X124826D01*
X125350Y-216426D01*
Y-218000D01*
X126925Y-215901D02*
X127974D01*
X128499Y-216426D01*
Y-218000D01*
X126925D01*
X126400Y-217475D01*
X126925Y-216950D01*
X128499D01*
X129549Y-218000D02*
X130598D01*
X130073D01*
Y-214851D01*
X129549D01*
X132173Y-215376D02*
X132697Y-214851D01*
X133747D01*
X134272Y-215376D01*
Y-215901D01*
X133222Y-216950D01*
Y-217475D02*
Y-218000D01*
X121340Y-226901D02*
X122389D01*
X122914Y-227426D01*
Y-229000D01*
X121340D01*
X120815Y-228475D01*
X121340Y-227951D01*
X122914D01*
X126063Y-226901D02*
X124488D01*
X123964Y-227426D01*
Y-228475D01*
X124488Y-229000D01*
X126063D01*
X127637Y-226376D02*
Y-226901D01*
X127112D01*
X128162D01*
X127637D01*
Y-228475D01*
X128162Y-229000D01*
X129736D02*
X130786D01*
X130261D01*
Y-226901D01*
X129736D01*
X132360D02*
X133409Y-229000D01*
X134459Y-226901D01*
X137083Y-229000D02*
X136033D01*
X135509Y-228475D01*
Y-227426D01*
X136033Y-226901D01*
X137083D01*
X137608Y-227426D01*
Y-227951D01*
X135509D01*
X120815Y-224000D02*
X121865D01*
X121340D01*
Y-220851D01*
X120815D01*
X123964Y-224000D02*
X125013D01*
X125538Y-223475D01*
Y-222426D01*
X125013Y-221901D01*
X123964D01*
X123439Y-222426D01*
Y-223475D01*
X123964Y-224000D01*
X126587Y-221901D02*
Y-223475D01*
X127112Y-224000D01*
X127637Y-223475D01*
X128162Y-224000D01*
X128687Y-223475D01*
Y-221901D01*
X7149Y-304000D02*
X6100D01*
X5575Y-303475D01*
Y-302426D01*
X6100Y-301901D01*
X7149D01*
X7674Y-302426D01*
Y-302951D01*
X5575D01*
X8724Y-304000D02*
Y-301901D01*
X10298D01*
X10823Y-302426D01*
Y-304000D01*
X12397Y-301901D02*
X13446D01*
X13971Y-302426D01*
Y-304000D01*
X12397D01*
X11872Y-303475D01*
X12397Y-302951D01*
X13971D01*
X15021Y-300851D02*
Y-304000D01*
X16595D01*
X17120Y-303475D01*
Y-302951D01*
Y-302426D01*
X16595Y-301901D01*
X15021D01*
X18169Y-304000D02*
X19219D01*
X18694D01*
Y-300851D01*
X18169D01*
X22367Y-304000D02*
X21318D01*
X20793Y-303475D01*
Y-302426D01*
X21318Y-301901D01*
X22367D01*
X22892Y-302426D01*
Y-302951D01*
X20793D01*
X27090Y-304000D02*
X28140D01*
X27615D01*
Y-301901D01*
X27090D01*
X29714Y-304000D02*
Y-301901D01*
X31288D01*
X31813Y-302426D01*
Y-304000D01*
X6075Y-276000D02*
Y-272851D01*
X7649D01*
X8174Y-273376D01*
Y-274426D01*
X7649Y-274951D01*
X6075D01*
X9223Y-272851D02*
Y-276000D01*
X10273Y-274951D01*
X11323Y-276000D01*
Y-272851D01*
X12372Y-276000D02*
Y-272851D01*
X13422Y-273901D01*
X14471Y-272851D01*
Y-276000D01*
X18669D02*
X19719D01*
X19194D01*
Y-273901D01*
X18669D01*
X21293Y-276000D02*
Y-273901D01*
X22867D01*
X23392Y-274426D01*
Y-276000D01*
X15914Y-234852D02*
X13815D01*
Y-236426D01*
X14865Y-235901D01*
X15389D01*
X15914Y-236426D01*
Y-237475D01*
X15389Y-238000D01*
X14340D01*
X13815Y-237475D01*
X16964Y-234852D02*
Y-236950D01*
X18013Y-238000D01*
X19063Y-236950D01*
Y-234852D01*
X19815Y-218000D02*
Y-214851D01*
X21389D01*
X21914Y-215376D01*
Y-216426D01*
X21389Y-216950D01*
X19815D01*
X22964Y-214851D02*
Y-218000D01*
X24013Y-216950D01*
X25063Y-218000D01*
Y-214851D01*
X26112Y-218000D02*
Y-214851D01*
X27162Y-215901D01*
X28211Y-214851D01*
Y-218000D01*
X32409D02*
X33459D01*
X32934D01*
Y-215901D01*
X32409D01*
X35033Y-218000D02*
Y-215901D01*
X36608D01*
X37132Y-216426D01*
Y-218000D01*
X38182Y-219050D02*
Y-215901D01*
X39756D01*
X40281Y-216426D01*
Y-217475D01*
X39756Y-218000D01*
X38182D01*
X41331Y-215901D02*
Y-217475D01*
X41855Y-218000D01*
X43429D01*
Y-215901D01*
X45004Y-215376D02*
Y-215901D01*
X44479D01*
X45529D01*
X45004D01*
Y-217475D01*
X45529Y-218000D01*
X10815Y-226376D02*
X11340Y-225851D01*
X12389D01*
X12914Y-226376D01*
Y-226901D01*
X12389Y-227426D01*
X11865D01*
X12389D01*
X12914Y-227951D01*
Y-228475D01*
X12389Y-229000D01*
X11340D01*
X10815Y-228475D01*
X13964Y-229000D02*
Y-228475D01*
X14488D01*
Y-229000D01*
X13964D01*
X16588Y-226376D02*
X17112Y-225851D01*
X18162D01*
X18687Y-226376D01*
Y-226901D01*
X18162Y-227426D01*
X17637D01*
X18162D01*
X18687Y-227951D01*
Y-228475D01*
X18162Y-229000D01*
X17112D01*
X16588Y-228475D01*
X19736Y-225851D02*
Y-227951D01*
X20786Y-229000D01*
X21835Y-227951D01*
Y-225851D01*
X138100Y-177000D02*
X139149D01*
X139674Y-176475D01*
Y-175426D01*
X139149Y-174901D01*
X138100D01*
X137575Y-175426D01*
Y-176475D01*
X138100Y-177000D01*
X140724Y-174901D02*
Y-176475D01*
X141248Y-177000D01*
X142823D01*
Y-174901D01*
X144397Y-174376D02*
Y-174901D01*
X143872D01*
X144922D01*
X144397D01*
Y-176475D01*
X144922Y-177000D01*
X7149Y-186000D02*
X6100D01*
X5575Y-185475D01*
Y-184426D01*
X6100Y-183901D01*
X7149D01*
X7674Y-184426D01*
Y-184950D01*
X5575D01*
X8724Y-186000D02*
Y-183901D01*
X10298D01*
X10823Y-184426D01*
Y-186000D01*
X12397Y-183901D02*
X13446D01*
X13971Y-184426D01*
Y-186000D01*
X12397D01*
X11872Y-185475D01*
X12397Y-184950D01*
X13971D01*
X15021Y-182852D02*
Y-186000D01*
X16595D01*
X17120Y-185475D01*
Y-184950D01*
Y-184426D01*
X16595Y-183901D01*
X15021D01*
X18169Y-186000D02*
X19219D01*
X18694D01*
Y-182852D01*
X18169D01*
X22367Y-186000D02*
X21318D01*
X20793Y-185475D01*
Y-184426D01*
X21318Y-183901D01*
X22367D01*
X22892Y-184426D01*
Y-184950D01*
X20793D01*
X27090Y-186000D02*
X28140D01*
X27615D01*
Y-183901D01*
X27090D01*
X29714Y-186000D02*
Y-183901D01*
X31288D01*
X31813Y-184426D01*
Y-186000D01*
X5575Y-159000D02*
Y-155851D01*
X7149D01*
X7674Y-156376D01*
Y-157426D01*
X7149Y-157950D01*
X5575D01*
X8724Y-155851D02*
Y-159000D01*
X9773Y-157950D01*
X10823Y-159000D01*
Y-155851D01*
X11872Y-159000D02*
Y-155851D01*
X12922Y-156901D01*
X13971Y-155851D01*
Y-159000D01*
X18169D02*
X19219D01*
X18694D01*
Y-156901D01*
X18169D01*
X20793Y-159000D02*
Y-156901D01*
X22367D01*
X22892Y-157426D01*
Y-159000D01*
X63012Y-96851D02*
X64061D01*
X63537D01*
Y-100000D01*
X63012D01*
X64061D01*
X65636D02*
Y-96851D01*
X67735Y-100000D01*
Y-96851D01*
X71933Y-97376D02*
X72458Y-96851D01*
X73507D01*
X74032Y-97376D01*
Y-97901D01*
X72983Y-98950D01*
Y-99475D02*
Y-100000D01*
X73575Y-119000D02*
Y-115851D01*
X75149D01*
X75674Y-116376D01*
Y-117426D01*
X75149Y-117950D01*
X73575D01*
X76723Y-115851D02*
Y-119000D01*
X77773Y-117950D01*
X78823Y-119000D01*
Y-115851D01*
X79872Y-119000D02*
Y-115851D01*
X80922Y-116901D01*
X81971Y-115851D01*
Y-119000D01*
X18674Y-116851D02*
X16575D01*
Y-118426D01*
X17624Y-117901D01*
X18149D01*
X18674Y-118426D01*
Y-119475D01*
X18149Y-120000D01*
X17100D01*
X16575Y-119475D01*
X19724Y-116851D02*
Y-118950D01*
X20773Y-120000D01*
X21823Y-118950D01*
Y-116851D01*
X13575Y-108376D02*
X14100Y-107852D01*
X15149D01*
X15674Y-108376D01*
Y-108901D01*
X15149Y-109426D01*
X14624D01*
X15149D01*
X15674Y-109950D01*
Y-110475D01*
X15149Y-111000D01*
X14100D01*
X13575Y-110475D01*
X16724Y-111000D02*
Y-110475D01*
X17248D01*
Y-111000D01*
X16724D01*
X19347Y-108376D02*
X19872Y-107852D01*
X20922D01*
X21446Y-108376D01*
Y-108901D01*
X20922Y-109426D01*
X20397D01*
X20922D01*
X21446Y-109950D01*
Y-110475D01*
X20922Y-111000D01*
X19872D01*
X19347Y-110475D01*
X22496Y-107852D02*
Y-109950D01*
X23546Y-111000D01*
X24595Y-109950D01*
Y-107852D01*
X72600Y-105901D02*
X73649D01*
X74174Y-106426D01*
Y-108000D01*
X72600D01*
X72075Y-107475D01*
X72600Y-106950D01*
X74174D01*
X75223Y-108000D02*
Y-105901D01*
X76798D01*
X77323Y-106426D01*
Y-108000D01*
X78897Y-105901D02*
X79946D01*
X80471Y-106426D01*
Y-108000D01*
X78897D01*
X78372Y-107475D01*
X78897Y-106950D01*
X80471D01*
X81521Y-108000D02*
X82570D01*
X82046D01*
Y-104851D01*
X81521D01*
X84669Y-108000D02*
X85719D01*
X86244Y-107475D01*
Y-106426D01*
X85719Y-105901D01*
X84669D01*
X84145Y-106426D01*
Y-107475D01*
X84669Y-108000D01*
X88343Y-109050D02*
X88867D01*
X89392Y-108525D01*
Y-105901D01*
X87818D01*
X87293Y-106426D01*
Y-107475D01*
X87818Y-108000D01*
X89392D01*
X20575Y-100000D02*
Y-96851D01*
X22149D01*
X22674Y-97376D01*
Y-98426D01*
X22149Y-98950D01*
X20575D01*
X23723Y-96851D02*
Y-100000D01*
X24773Y-98950D01*
X25823Y-100000D01*
Y-96851D01*
X26872Y-100000D02*
Y-96851D01*
X27922Y-97901D01*
X28971Y-96851D01*
Y-100000D01*
X33169D02*
X34219D01*
X33694D01*
Y-97901D01*
X33169D01*
X35793Y-100000D02*
Y-97901D01*
X37367D01*
X37892Y-98426D01*
Y-100000D01*
X38942Y-101050D02*
Y-97901D01*
X40516D01*
X41041Y-98426D01*
Y-99475D01*
X40516Y-100000D01*
X38942D01*
X42090Y-97901D02*
Y-99475D01*
X42615Y-100000D01*
X44189D01*
Y-97901D01*
X45764Y-97376D02*
Y-97901D01*
X45239D01*
X46288D01*
X45764D01*
Y-99475D01*
X46288Y-100000D01*
X95149D02*
X94100D01*
X93575Y-99475D01*
Y-98426D01*
X94100Y-97901D01*
X95149D01*
X95674Y-98426D01*
Y-98950D01*
X93575D01*
X96724Y-100000D02*
Y-97901D01*
X98298D01*
X98823Y-98426D01*
Y-100000D01*
X100397Y-97901D02*
X101446D01*
X101971Y-98426D01*
Y-100000D01*
X100397D01*
X99872Y-99475D01*
X100397Y-98950D01*
X101971D01*
X103021Y-96851D02*
Y-100000D01*
X104595D01*
X105120Y-99475D01*
Y-98950D01*
Y-98426D01*
X104595Y-97901D01*
X103021D01*
X106169Y-100000D02*
X107219D01*
X106694D01*
Y-96851D01*
X106169D01*
X110367Y-100000D02*
X109318D01*
X108793Y-99475D01*
Y-98426D01*
X109318Y-97901D01*
X110367D01*
X110892Y-98426D01*
Y-98950D01*
X108793D01*
X117189Y-97376D02*
X116665Y-96851D01*
X115615D01*
X115090Y-97376D01*
Y-97901D01*
X115615Y-98426D01*
X116665D01*
X117189Y-98950D01*
Y-99475D01*
X116665Y-100000D01*
X115615D01*
X115090Y-99475D01*
X118239Y-100000D02*
X119288D01*
X118764D01*
Y-97901D01*
X118239D01*
X121912Y-101050D02*
X122437D01*
X122962Y-100525D01*
Y-97901D01*
X121388D01*
X120863Y-98426D01*
Y-99475D01*
X121388Y-100000D01*
X122962D01*
X124011D02*
Y-97901D01*
X125586D01*
X126110Y-98426D01*
Y-100000D01*
X127685Y-97901D02*
X128734D01*
X129259Y-98426D01*
Y-100000D01*
X127685D01*
X127160Y-99475D01*
X127685Y-98950D01*
X129259D01*
X130308Y-100000D02*
X131358D01*
X130833D01*
Y-96851D01*
X130308D01*
X132932Y-97376D02*
X133457Y-96851D01*
X134507D01*
X135031Y-97376D01*
Y-97901D01*
X133982Y-98950D01*
Y-99475D02*
Y-100000D01*
X93575Y-102851D02*
Y-106000D01*
Y-104426D01*
X94100Y-103901D01*
X95149D01*
X95674Y-104426D01*
Y-106000D01*
X96724D02*
X97773D01*
X97248D01*
Y-103901D01*
X96724D01*
X100397Y-107050D02*
X100922D01*
X101446Y-106525D01*
Y-103901D01*
X99872D01*
X99347Y-104426D01*
Y-105475D01*
X99872Y-106000D01*
X101446D01*
X102496Y-102851D02*
Y-106000D01*
Y-104426D01*
X103021Y-103901D01*
X104070D01*
X104595Y-104426D01*
Y-106000D01*
X121575D02*
X122625D01*
X122100D01*
Y-102851D01*
X121575D01*
X124723Y-106000D02*
X125773D01*
X126298Y-105475D01*
Y-104426D01*
X125773Y-103901D01*
X124723D01*
X124199Y-104426D01*
Y-105475D01*
X124723Y-106000D01*
X127347Y-103901D02*
Y-105475D01*
X127872Y-106000D01*
X128397Y-105475D01*
X128922Y-106000D01*
X129446Y-105475D01*
Y-103901D01*
X122100Y-108901D02*
X123149D01*
X123674Y-109426D01*
Y-111000D01*
X122100D01*
X121575Y-110475D01*
X122100Y-109950D01*
X123674D01*
X126823Y-108901D02*
X125248D01*
X124723Y-109426D01*
Y-110475D01*
X125248Y-111000D01*
X126823D01*
X128397Y-108376D02*
Y-108901D01*
X127872D01*
X128922D01*
X128397D01*
Y-110475D01*
X128922Y-111000D01*
X130496D02*
X131545D01*
X131021D01*
Y-108901D01*
X130496D01*
X133120D02*
X134169Y-111000D01*
X135219Y-108901D01*
X137843Y-111000D02*
X136793D01*
X136268Y-110475D01*
Y-109426D01*
X136793Y-108901D01*
X137843D01*
X138367Y-109426D01*
Y-109950D01*
X136268D01*
X94100Y-108901D02*
X95149D01*
X95674Y-109426D01*
Y-111000D01*
X94100D01*
X93575Y-110475D01*
X94100Y-109950D01*
X95674D01*
X98823Y-108901D02*
X97248D01*
X96724Y-109426D01*
Y-110475D01*
X97248Y-111000D01*
X98823D01*
X100397Y-108376D02*
Y-108901D01*
X99872D01*
X100922D01*
X100397D01*
Y-110475D01*
X100922Y-111000D01*
X102496D02*
X103545D01*
X103021D01*
Y-108901D01*
X102496D01*
X105120D02*
X106169Y-111000D01*
X107219Y-108901D01*
X109843Y-111000D02*
X108793D01*
X108268Y-110475D01*
Y-109426D01*
X108793Y-108901D01*
X109843D01*
X110367Y-109426D01*
Y-109950D01*
X108268D01*
X81075Y-171852D02*
Y-174475D01*
X81600Y-175000D01*
X82649D01*
X83174Y-174475D01*
Y-171852D01*
X86323D02*
X85273Y-172376D01*
X84224Y-173426D01*
Y-174475D01*
X84748Y-175000D01*
X85798D01*
X86323Y-174475D01*
Y-173951D01*
X85798Y-173426D01*
X84224D01*
X87372Y-175525D02*
X89471D01*
X90521Y-175000D02*
Y-172901D01*
X91570Y-171852D01*
X92620Y-172901D01*
Y-175000D01*
Y-173426D01*
X90521D01*
X95244Y-175000D02*
Y-171852D01*
X93669Y-173426D01*
X95768D01*
X107228Y-137163D02*
Y-139787D01*
X107753Y-140312D01*
X108802D01*
X109327Y-139787D01*
Y-137163D01*
X110377D02*
X112476D01*
Y-137688D01*
X110377Y-139787D01*
Y-140312D01*
X113525Y-140837D02*
X115624D01*
X116674Y-140312D02*
Y-138213D01*
X117724Y-137163D01*
X118773Y-138213D01*
Y-140312D01*
Y-138738D01*
X116674D01*
X121397Y-140312D02*
Y-137163D01*
X119823Y-138738D01*
X121922D01*
X99964Y-256663D02*
Y-259287D01*
X100489Y-259812D01*
X101539D01*
X102064Y-259287D01*
Y-256663D01*
X103113D02*
X105212D01*
Y-257188D01*
X103113Y-259287D01*
Y-259812D01*
X106262Y-260337D02*
X108361D01*
X109410Y-259812D02*
Y-257713D01*
X110460Y-256663D01*
X111509Y-257713D01*
Y-259812D01*
Y-258238D01*
X109410D01*
X112559Y-257188D02*
X113084Y-256663D01*
X114133D01*
X114658Y-257188D01*
Y-257713D01*
X114133Y-258238D01*
X113608D01*
X114133D01*
X114658Y-258762D01*
Y-259287D01*
X114133Y-259812D01*
X113084D01*
X112559Y-259287D01*
X103153Y-374423D02*
Y-377047D01*
X103678Y-377572D01*
X104728D01*
X105252Y-377047D01*
Y-374423D01*
X106302D02*
X108401D01*
Y-374948D01*
X106302Y-377047D01*
Y-377572D01*
X109450Y-378097D02*
X111549D01*
X112599Y-377572D02*
Y-375473D01*
X113649Y-374423D01*
X114698Y-375473D01*
Y-377572D01*
Y-375997D01*
X112599D01*
X117847Y-377572D02*
X115748D01*
X117847Y-375473D01*
Y-374948D01*
X117322Y-374423D01*
X116272D01*
X115748Y-374948D01*
X102753Y-492163D02*
Y-494787D01*
X103278Y-495312D01*
X104327D01*
X104852Y-494787D01*
Y-492163D01*
X105902D02*
X108001D01*
Y-492688D01*
X105902Y-494787D01*
Y-495312D01*
X109050Y-495837D02*
X111149D01*
X112199Y-495312D02*
Y-493213D01*
X113248Y-492163D01*
X114298Y-493213D01*
Y-495312D01*
Y-493738D01*
X112199D01*
X115347Y-495312D02*
X116397D01*
X115872D01*
Y-492163D01*
X115347Y-492688D01*
X9652Y-70951D02*
X9127Y-70426D01*
X8078D01*
X7553Y-70951D01*
Y-73049D01*
X8078Y-73574D01*
X9127D01*
X9652Y-73049D01*
X10702Y-73574D02*
X11751D01*
X11226D01*
Y-70426D01*
X10702Y-70951D01*
X13325D02*
X13850Y-70426D01*
X14900D01*
X15424Y-70951D01*
Y-73049D01*
X14900Y-73574D01*
X13850D01*
X13325Y-73049D01*
Y-70951D01*
X16474Y-73049D02*
X16999Y-73574D01*
X18048D01*
X18573Y-73049D01*
Y-70951D01*
X18048Y-70426D01*
X16999D01*
X16474Y-70951D01*
Y-71475D01*
X16999Y-72000D01*
X18573D01*
X24950Y-67411D02*
X24426Y-67936D01*
Y-68985D01*
X24950Y-69510D01*
X27049D01*
X27574Y-68985D01*
Y-67936D01*
X27049Y-67411D01*
X27574Y-66361D02*
Y-65312D01*
Y-65837D01*
X24426D01*
X24950Y-66361D01*
Y-63738D02*
X24426Y-63213D01*
Y-62163D01*
X24950Y-61638D01*
X27049D01*
X27574Y-62163D01*
Y-63213D01*
X27049Y-63738D01*
X24950D01*
Y-60589D02*
X24426Y-60064D01*
Y-59015D01*
X24950Y-58490D01*
X25475D01*
X26000Y-59015D01*
X26525Y-58490D01*
X27049D01*
X27574Y-59015D01*
Y-60064D01*
X27049Y-60589D01*
X26525D01*
X26000Y-60064D01*
X25475Y-60589D01*
X24950D01*
X26000Y-60064D02*
Y-59015D01*
X55589Y-74450D02*
X55064Y-73926D01*
X54015D01*
X53490Y-74450D01*
Y-76550D01*
X54015Y-77074D01*
X55064D01*
X55589Y-76550D01*
X56639Y-77074D02*
X57688D01*
X57163D01*
Y-73926D01*
X56639Y-74450D01*
X59262D02*
X59787Y-73926D01*
X60837D01*
X61361Y-74450D01*
Y-76550D01*
X60837Y-77074D01*
X59787D01*
X59262Y-76550D01*
Y-74450D01*
X62411Y-73926D02*
X64510D01*
Y-74450D01*
X62411Y-76550D01*
Y-77074D01*
X53951Y-68411D02*
X53426Y-68936D01*
Y-69985D01*
X53951Y-70510D01*
X56050D01*
X56574Y-69985D01*
Y-68936D01*
X56050Y-68411D01*
X56574Y-67361D02*
Y-66312D01*
Y-66837D01*
X53426D01*
X53951Y-67361D01*
Y-64738D02*
X53426Y-64213D01*
Y-63163D01*
X53951Y-62638D01*
X56050D01*
X56574Y-63163D01*
Y-64213D01*
X56050Y-64738D01*
X53951D01*
X53426Y-59490D02*
X53951Y-60540D01*
X55000Y-61589D01*
X56050D01*
X56574Y-61064D01*
Y-60015D01*
X56050Y-59490D01*
X55525D01*
X55000Y-60015D01*
Y-61589D01*
X83075Y-532351D02*
Y-534975D01*
X83600Y-535500D01*
X84649D01*
X85174Y-534975D01*
Y-532351D01*
X88323D02*
X87273Y-532876D01*
X86224Y-533926D01*
Y-534975D01*
X86748Y-535500D01*
X87798D01*
X88323Y-534975D01*
Y-534450D01*
X87798Y-533926D01*
X86224D01*
X89372Y-536025D02*
X91471D01*
X92521Y-535500D02*
Y-533401D01*
X93570Y-532351D01*
X94620Y-533401D01*
Y-535500D01*
Y-533926D01*
X92521D01*
X95669Y-535500D02*
X96719D01*
X96194D01*
Y-532351D01*
X95669Y-532876D01*
X73075Y-483851D02*
Y-486475D01*
X73600Y-487000D01*
X74649D01*
X75174Y-486475D01*
Y-483851D01*
X77798Y-487000D02*
Y-483851D01*
X76223Y-485426D01*
X78323D01*
X79372Y-487525D02*
X81471D01*
X82521Y-487000D02*
Y-484901D01*
X83570Y-483851D01*
X84620Y-484901D01*
Y-487000D01*
Y-485426D01*
X82521D01*
X85669Y-487000D02*
X86719D01*
X86194D01*
Y-483851D01*
X85669Y-484376D01*
X45638Y-494851D02*
Y-497475D01*
X46163Y-498000D01*
X47212D01*
X47737Y-497475D01*
Y-494851D01*
X48787Y-498000D02*
X49836D01*
X49311D01*
Y-494851D01*
X48787Y-495376D01*
X51410Y-498525D02*
X53509D01*
X54559Y-498000D02*
Y-495901D01*
X55608Y-494851D01*
X56658Y-495901D01*
Y-498000D01*
Y-496426D01*
X54559D01*
X57708Y-498000D02*
X58757D01*
X58232D01*
Y-494851D01*
X57708Y-495376D01*
X46114Y-486000D02*
Y-482852D01*
X47689D01*
X48213Y-483376D01*
Y-484426D01*
X47689Y-484950D01*
X46114D01*
X47164D02*
X48213Y-486000D01*
X49263Y-485475D02*
X49788Y-486000D01*
X50837D01*
X51362Y-485475D01*
Y-483376D01*
X50837Y-482852D01*
X49788D01*
X49263Y-483376D01*
Y-483901D01*
X49788Y-484426D01*
X51362D01*
X52412Y-486525D02*
X54510D01*
X55560Y-486000D02*
Y-483901D01*
X56610Y-482852D01*
X57659Y-483901D01*
Y-486000D01*
Y-484426D01*
X55560D01*
X58709Y-486000D02*
X59758D01*
X59233D01*
Y-482852D01*
X58709Y-483376D01*
X44500Y-556500D02*
X41351D01*
Y-554926D01*
X41876Y-554401D01*
X42926D01*
X43450Y-554926D01*
Y-556500D01*
Y-555450D02*
X44500Y-554401D01*
X41876Y-553351D02*
X41351Y-552827D01*
Y-551777D01*
X41876Y-551252D01*
X42401D01*
X42926Y-551777D01*
X43450Y-551252D01*
X43975D01*
X44500Y-551777D01*
Y-552827D01*
X43975Y-553351D01*
X43450D01*
X42926Y-552827D01*
X42401Y-553351D01*
X41876D01*
X42926Y-552827D02*
Y-551777D01*
X45025Y-550203D02*
Y-548104D01*
X44500Y-547054D02*
X42401D01*
X41351Y-546005D01*
X42401Y-544955D01*
X44500D01*
X42926D01*
Y-547054D01*
X44500Y-543906D02*
Y-542856D01*
Y-543381D01*
X41351D01*
X41876Y-543906D01*
X32138Y-486000D02*
Y-482852D01*
X33712D01*
X34237Y-483376D01*
Y-484426D01*
X33712Y-484950D01*
X32138D01*
X33187D02*
X34237Y-486000D01*
X35287Y-482852D02*
X37386D01*
Y-483376D01*
X35287Y-485475D01*
Y-486000D01*
X38435Y-486525D02*
X40534D01*
X41584Y-486000D02*
Y-483901D01*
X42633Y-482852D01*
X43683Y-483901D01*
Y-486000D01*
Y-484426D01*
X41584D01*
X44732Y-486000D02*
X45782D01*
X45257D01*
Y-482852D01*
X44732Y-483376D01*
X110575Y-527500D02*
Y-524352D01*
X112149D01*
X112674Y-524876D01*
Y-525926D01*
X112149Y-526450D01*
X110575D01*
X111625D02*
X112674Y-527500D01*
X115823Y-524352D02*
X114773Y-524876D01*
X113724Y-525926D01*
Y-526975D01*
X114248Y-527500D01*
X115298D01*
X115823Y-526975D01*
Y-526450D01*
X115298Y-525926D01*
X113724D01*
X116872Y-528025D02*
X118971D01*
X120021Y-527500D02*
Y-525401D01*
X121070Y-524352D01*
X122120Y-525401D01*
Y-527500D01*
Y-525926D01*
X120021D01*
X123169Y-527500D02*
X124219D01*
X123694D01*
Y-524352D01*
X123169Y-524876D01*
X90500Y-528500D02*
Y-525351D01*
X92074D01*
X92599Y-525876D01*
Y-526926D01*
X92074Y-527451D01*
X90500D01*
X91549D02*
X92599Y-528500D01*
X95748Y-525351D02*
X93649D01*
Y-526926D01*
X94698Y-526401D01*
X95223D01*
X95748Y-526926D01*
Y-527975D01*
X95223Y-528500D01*
X94173D01*
X93649Y-527975D01*
X96797Y-529025D02*
X98896D01*
X99946Y-528500D02*
Y-526401D01*
X100995Y-525351D01*
X102045Y-526401D01*
Y-528500D01*
Y-526926D01*
X99946D01*
X103094Y-528500D02*
X104144D01*
X103619D01*
Y-525351D01*
X103094Y-525876D01*
X49260Y-528000D02*
Y-524852D01*
X50834D01*
X51359Y-525376D01*
Y-526426D01*
X50834Y-526951D01*
X49260D01*
X50309D02*
X51359Y-528000D01*
X53983D02*
Y-524852D01*
X52408Y-526426D01*
X54508D01*
X55557Y-528525D02*
X57656D01*
X58706Y-528000D02*
Y-525901D01*
X59755Y-524852D01*
X60805Y-525901D01*
Y-528000D01*
Y-526426D01*
X58706D01*
X61854Y-528000D02*
X62904D01*
X62379D01*
Y-524852D01*
X61854Y-525376D01*
X32638Y-519937D02*
Y-516788D01*
X34212D01*
X34737Y-517313D01*
Y-518363D01*
X34212Y-518888D01*
X32638D01*
X33687D02*
X34737Y-519937D01*
X35787Y-517313D02*
X36311Y-516788D01*
X37361D01*
X37886Y-517313D01*
Y-517838D01*
X37361Y-518363D01*
X36836D01*
X37361D01*
X37886Y-518888D01*
Y-519412D01*
X37361Y-519937D01*
X36311D01*
X35787Y-519412D01*
X38935Y-520462D02*
X41034D01*
X42084Y-519937D02*
Y-517838D01*
X43133Y-516788D01*
X44183Y-517838D01*
Y-519937D01*
Y-518363D01*
X42084D01*
X45232Y-519937D02*
X46282D01*
X45757D01*
Y-516788D01*
X45232Y-517313D01*
X60638Y-506000D02*
Y-502851D01*
X62212D01*
X62737Y-503376D01*
Y-504426D01*
X62212Y-504951D01*
X60638D01*
X61687D02*
X62737Y-506000D01*
X65886D02*
X63787D01*
X65886Y-503901D01*
Y-503376D01*
X65361Y-502851D01*
X64311D01*
X63787Y-503376D01*
X66935Y-506525D02*
X69034D01*
X70084Y-506000D02*
Y-503901D01*
X71133Y-502851D01*
X72183Y-503901D01*
Y-506000D01*
Y-504426D01*
X70084D01*
X73232Y-506000D02*
X74282D01*
X73757D01*
Y-502851D01*
X73232Y-503376D01*
X35575Y-512000D02*
X32426D01*
Y-510426D01*
X32951Y-509901D01*
X34001D01*
X34525Y-510426D01*
Y-512000D01*
Y-510951D02*
X35575Y-509901D01*
Y-508851D02*
Y-507802D01*
Y-508327D01*
X32426D01*
X32951Y-508851D01*
X36100Y-506228D02*
Y-504129D01*
X35575Y-503079D02*
X33476D01*
X32426Y-502030D01*
X33476Y-500980D01*
X35575D01*
X34001D01*
Y-503079D01*
X35575Y-499930D02*
Y-498881D01*
Y-499406D01*
X32426D01*
X32951Y-499930D01*
X115238Y-556401D02*
X114714Y-556926D01*
Y-557975D01*
X115238Y-558500D01*
X117337D01*
X117862Y-557975D01*
Y-556926D01*
X117337Y-556401D01*
X115238Y-555351D02*
X114714Y-554827D01*
Y-553777D01*
X115238Y-553252D01*
X115763D01*
X116288Y-553777D01*
Y-554302D01*
Y-553777D01*
X116813Y-553252D01*
X117337D01*
X117862Y-553777D01*
Y-554827D01*
X117337Y-555351D01*
X118387Y-552203D02*
Y-550104D01*
X117862Y-549054D02*
X115763D01*
X114714Y-548005D01*
X115763Y-546955D01*
X117862D01*
X116288D01*
Y-549054D01*
X117862Y-545906D02*
Y-544856D01*
Y-545381D01*
X114714D01*
X115238Y-545906D01*
X56451Y-552401D02*
X55926Y-552926D01*
Y-553975D01*
X56451Y-554500D01*
X58550D01*
X59075Y-553975D01*
Y-552926D01*
X58550Y-552401D01*
X59075Y-549252D02*
Y-551351D01*
X56976Y-549252D01*
X56451D01*
X55926Y-549777D01*
Y-550827D01*
X56451Y-551351D01*
X59600Y-548203D02*
Y-546104D01*
X59075Y-545054D02*
X56976D01*
X55926Y-544005D01*
X56976Y-542955D01*
X59075D01*
X57501D01*
Y-545054D01*
X59075Y-541906D02*
Y-540856D01*
Y-541381D01*
X55926D01*
X56451Y-541906D01*
X57832Y-513376D02*
X57307Y-512851D01*
X56257D01*
X55732Y-513376D01*
Y-515475D01*
X56257Y-516000D01*
X57307D01*
X57832Y-515475D01*
X58881Y-516000D02*
X59930D01*
X59406D01*
Y-512851D01*
X58881Y-513376D01*
X61505Y-516525D02*
X63604D01*
X64653Y-516000D02*
Y-513901D01*
X65703Y-512851D01*
X66752Y-513901D01*
Y-516000D01*
Y-514426D01*
X64653D01*
X67802Y-516000D02*
X68852D01*
X68327D01*
Y-512851D01*
X67802Y-513376D01*
X84500Y-413851D02*
Y-416475D01*
X85025Y-417000D01*
X86074D01*
X86599Y-416475D01*
Y-413851D01*
X89748D02*
X88698Y-414376D01*
X87649Y-415426D01*
Y-416475D01*
X88173Y-417000D01*
X89223D01*
X89748Y-416475D01*
Y-415950D01*
X89223Y-415426D01*
X87649D01*
X90797Y-417525D02*
X92896D01*
X93946Y-417000D02*
Y-414901D01*
X94995Y-413851D01*
X96045Y-414901D01*
Y-417000D01*
Y-415426D01*
X93946D01*
X99193Y-417000D02*
X97094D01*
X99193Y-414901D01*
Y-414376D01*
X98669Y-413851D01*
X97619D01*
X97094Y-414376D01*
X75095Y-364678D02*
Y-367302D01*
X75619Y-367827D01*
X76669D01*
X77194Y-367302D01*
Y-364678D01*
X79817Y-367827D02*
Y-364678D01*
X78243Y-366252D01*
X80342D01*
X81392Y-368352D02*
X83491D01*
X84540Y-367827D02*
Y-365728D01*
X85590Y-364678D01*
X86639Y-365728D01*
Y-367827D01*
Y-366252D01*
X84540D01*
X89788Y-367827D02*
X87689D01*
X89788Y-365728D01*
Y-365203D01*
X89263Y-364678D01*
X88214D01*
X87689Y-365203D01*
X45520Y-376025D02*
Y-378648D01*
X46045Y-379173D01*
X47094D01*
X47619Y-378648D01*
Y-376025D01*
X48668Y-379173D02*
X49718D01*
X49193D01*
Y-376025D01*
X48668Y-376549D01*
X51292Y-379698D02*
X53391D01*
X54441Y-379173D02*
Y-377074D01*
X55490Y-376025D01*
X56540Y-377074D01*
Y-379173D01*
Y-377599D01*
X54441D01*
X59689Y-379173D02*
X57589D01*
X59689Y-377074D01*
Y-376549D01*
X59164Y-376025D01*
X58114D01*
X57589Y-376549D01*
X48520Y-368000D02*
Y-364851D01*
X50094D01*
X50619Y-365376D01*
Y-366426D01*
X50094Y-366950D01*
X48520D01*
X49569D02*
X50619Y-368000D01*
X51668Y-367475D02*
X52193Y-368000D01*
X53243D01*
X53767Y-367475D01*
Y-365376D01*
X53243Y-364851D01*
X52193D01*
X51668Y-365376D01*
Y-365901D01*
X52193Y-366426D01*
X53767D01*
X54817Y-368525D02*
X56916D01*
X57966Y-368000D02*
Y-365901D01*
X59015Y-364851D01*
X60065Y-365901D01*
Y-368000D01*
Y-366426D01*
X57966D01*
X63213Y-368000D02*
X61114D01*
X63213Y-365901D01*
Y-365376D01*
X62688Y-364851D01*
X61639D01*
X61114Y-365376D01*
X36075Y-421937D02*
Y-418788D01*
X37649D01*
X38174Y-419313D01*
Y-420363D01*
X37649Y-420888D01*
X36075D01*
X37124D02*
X38174Y-421937D01*
X39224Y-419313D02*
X39748Y-418788D01*
X40798D01*
X41323Y-419313D01*
Y-419838D01*
X40798Y-420363D01*
X41323Y-420888D01*
Y-421412D01*
X40798Y-421937D01*
X39748D01*
X39224Y-421412D01*
Y-420888D01*
X39748Y-420363D01*
X39224Y-419838D01*
Y-419313D01*
X39748Y-420363D02*
X40798D01*
X42372Y-422462D02*
X44471D01*
X45521Y-421937D02*
Y-419838D01*
X46570Y-418788D01*
X47620Y-419838D01*
Y-421937D01*
Y-420363D01*
X45521D01*
X50768Y-421937D02*
X48669D01*
X50768Y-419838D01*
Y-419313D01*
X50244Y-418788D01*
X49194D01*
X48669Y-419313D01*
X32075Y-368000D02*
Y-364851D01*
X33649D01*
X34174Y-365376D01*
Y-366426D01*
X33649Y-366950D01*
X32075D01*
X33125D02*
X34174Y-368000D01*
X35223Y-364851D02*
X37323D01*
Y-365376D01*
X35223Y-367475D01*
Y-368000D01*
X38372Y-368525D02*
X40471D01*
X41521Y-368000D02*
Y-365901D01*
X42570Y-364851D01*
X43620Y-365901D01*
Y-368000D01*
Y-366426D01*
X41521D01*
X46768Y-368000D02*
X44669D01*
X46768Y-365901D01*
Y-365376D01*
X46244Y-364851D01*
X45194D01*
X44669Y-365376D01*
X112500Y-411500D02*
Y-408351D01*
X114074D01*
X114599Y-408876D01*
Y-409926D01*
X114074Y-410451D01*
X112500D01*
X113549D02*
X114599Y-411500D01*
X117748Y-408351D02*
X116698Y-408876D01*
X115649Y-409926D01*
Y-410975D01*
X116173Y-411500D01*
X117223D01*
X117748Y-410975D01*
Y-410451D01*
X117223Y-409926D01*
X115649D01*
X118797Y-412025D02*
X120896D01*
X121946Y-411500D02*
Y-409401D01*
X122995Y-408351D01*
X124045Y-409401D01*
Y-411500D01*
Y-409926D01*
X121946D01*
X127193Y-411500D02*
X125094D01*
X127193Y-409401D01*
Y-408876D01*
X126669Y-408351D01*
X125619D01*
X125094Y-408876D01*
X93500Y-412000D02*
Y-408851D01*
X95074D01*
X95599Y-409376D01*
Y-410426D01*
X95074Y-410951D01*
X93500D01*
X94550D02*
X95599Y-412000D01*
X98748Y-408851D02*
X96649D01*
Y-410426D01*
X97698Y-409901D01*
X98223D01*
X98748Y-410426D01*
Y-411475D01*
X98223Y-412000D01*
X97173D01*
X96649Y-411475D01*
X99797Y-412525D02*
X101896D01*
X102946Y-412000D02*
Y-409901D01*
X103995Y-408851D01*
X105045Y-409901D01*
Y-412000D01*
Y-410426D01*
X102946D01*
X108193Y-412000D02*
X106094D01*
X108193Y-409901D01*
Y-409376D01*
X107669Y-408851D01*
X106619D01*
X106094Y-409376D01*
X48449Y-408000D02*
Y-404851D01*
X50023D01*
X50548Y-405376D01*
Y-406426D01*
X50023Y-406951D01*
X48449D01*
X49499D02*
X50548Y-408000D01*
X53172D02*
Y-404851D01*
X51597Y-406426D01*
X53697D01*
X54746Y-408525D02*
X56845D01*
X57895Y-408000D02*
Y-405901D01*
X58944Y-404851D01*
X59994Y-405901D01*
Y-408000D01*
Y-406426D01*
X57895D01*
X63142Y-408000D02*
X61043D01*
X63142Y-405901D01*
Y-405376D01*
X62618Y-404851D01*
X61568D01*
X61043Y-405376D01*
X36012Y-404000D02*
Y-400851D01*
X37586D01*
X38111Y-401376D01*
Y-402426D01*
X37586Y-402950D01*
X36012D01*
X37062D02*
X38111Y-404000D01*
X39160Y-401376D02*
X39685Y-400851D01*
X40735D01*
X41260Y-401376D01*
Y-401901D01*
X40735Y-402426D01*
X40210D01*
X40735D01*
X41260Y-402950D01*
Y-403475D01*
X40735Y-404000D01*
X39685D01*
X39160Y-403475D01*
X42309Y-404525D02*
X44408D01*
X45458Y-404000D02*
Y-401901D01*
X46507Y-400851D01*
X47557Y-401901D01*
Y-404000D01*
Y-402426D01*
X45458D01*
X50705Y-404000D02*
X48606D01*
X50705Y-401901D01*
Y-401376D01*
X50181Y-400851D01*
X49131D01*
X48606Y-401376D01*
X60693Y-386000D02*
Y-382852D01*
X62267D01*
X62792Y-383376D01*
Y-384426D01*
X62267Y-384950D01*
X60693D01*
X61743D02*
X62792Y-386000D01*
X65941D02*
X63842D01*
X65941Y-383901D01*
Y-383376D01*
X65416Y-382852D01*
X64366D01*
X63842Y-383376D01*
X66990Y-386525D02*
X69089D01*
X70139Y-386000D02*
Y-383901D01*
X71188Y-382852D01*
X72238Y-383901D01*
Y-386000D01*
Y-384426D01*
X70139D01*
X75387Y-386000D02*
X73287D01*
X75387Y-383901D01*
Y-383376D01*
X74862Y-382852D01*
X73812D01*
X73287Y-383376D01*
X36500Y-394000D02*
X33351D01*
Y-392426D01*
X33876Y-391901D01*
X34926D01*
X35451Y-392426D01*
Y-394000D01*
Y-392951D02*
X36500Y-391901D01*
Y-390851D02*
Y-389802D01*
Y-390327D01*
X33351D01*
X33876Y-390851D01*
X37025Y-388228D02*
Y-386128D01*
X36500Y-385079D02*
X34401D01*
X33351Y-384030D01*
X34401Y-382980D01*
X36500D01*
X34926D01*
Y-385079D01*
X36500Y-379831D02*
Y-381930D01*
X34401Y-379831D01*
X33876D01*
X33351Y-380356D01*
Y-381406D01*
X33876Y-381930D01*
X108036Y-438376D02*
X107511Y-437851D01*
X106462D01*
X105937Y-438376D01*
Y-440475D01*
X106462Y-441000D01*
X107511D01*
X108036Y-440475D01*
X109086Y-438376D02*
X109610Y-437851D01*
X110660D01*
X111185Y-438376D01*
Y-438901D01*
X110660Y-439426D01*
X110135D01*
X110660D01*
X111185Y-439951D01*
Y-440475D01*
X110660Y-441000D01*
X109610D01*
X109086Y-440475D01*
X112234Y-441525D02*
X114333D01*
X115383Y-441000D02*
Y-438901D01*
X116432Y-437851D01*
X117482Y-438901D01*
Y-441000D01*
Y-439426D01*
X115383D01*
X120630Y-441000D02*
X118531D01*
X120630Y-438901D01*
Y-438376D01*
X120106Y-437851D01*
X119056D01*
X118531Y-438376D01*
X57451Y-432901D02*
X56926Y-433426D01*
Y-434475D01*
X57451Y-435000D01*
X59550D01*
X60075Y-434475D01*
Y-433426D01*
X59550Y-432901D01*
X60075Y-429752D02*
Y-431851D01*
X57976Y-429752D01*
X57451D01*
X56926Y-430277D01*
Y-431327D01*
X57451Y-431851D01*
X60600Y-428703D02*
Y-426604D01*
X60075Y-425554D02*
X57976D01*
X56926Y-424505D01*
X57976Y-423455D01*
X60075D01*
X58501D01*
Y-425554D01*
X60075Y-420307D02*
Y-422406D01*
X57976Y-420307D01*
X57451D01*
X56926Y-420831D01*
Y-421881D01*
X57451Y-422406D01*
X59237Y-393376D02*
X58712Y-392851D01*
X57663D01*
X57138Y-393376D01*
Y-395475D01*
X57663Y-396000D01*
X58712D01*
X59237Y-395475D01*
X60286Y-396000D02*
X61336D01*
X60811D01*
Y-392851D01*
X60286Y-393376D01*
X62910Y-396525D02*
X65009D01*
X66059Y-396000D02*
Y-393901D01*
X67109Y-392851D01*
X68158Y-393901D01*
Y-396000D01*
Y-394426D01*
X66059D01*
X71307Y-396000D02*
X69208D01*
X71307Y-393901D01*
Y-393376D01*
X70782Y-392851D01*
X69732D01*
X69208Y-393376D01*
X91724Y-138000D02*
X89100D01*
X88575Y-138525D01*
Y-139574D01*
X89100Y-140099D01*
X91724D01*
X88575Y-142723D02*
X91724D01*
X90149Y-141149D01*
Y-143248D01*
X88050Y-144297D02*
Y-146396D01*
X88575Y-147446D02*
X90674D01*
X91724Y-148495D01*
X90674Y-149545D01*
X88575D01*
X90149D01*
Y-147446D01*
X88575Y-152169D02*
X91724D01*
X90149Y-150594D01*
Y-152693D01*
X75075Y-289851D02*
Y-292475D01*
X75600Y-293000D01*
X76649D01*
X77174Y-292475D01*
Y-289851D01*
X80323D02*
X79273Y-290376D01*
X78224Y-291426D01*
Y-292475D01*
X78748Y-293000D01*
X79798D01*
X80323Y-292475D01*
Y-291950D01*
X79798Y-291426D01*
X78224D01*
X81372Y-293525D02*
X83471D01*
X84521Y-293000D02*
Y-290901D01*
X85570Y-289851D01*
X86620Y-290901D01*
Y-293000D01*
Y-291426D01*
X84521D01*
X87669Y-290376D02*
X88194Y-289851D01*
X89244D01*
X89768Y-290376D01*
Y-290901D01*
X89244Y-291426D01*
X88719D01*
X89244D01*
X89768Y-291950D01*
Y-292475D01*
X89244Y-293000D01*
X88194D01*
X87669Y-292475D01*
X89964Y-257000D02*
X87340D01*
X86815Y-257525D01*
Y-258574D01*
X87340Y-259099D01*
X89964D01*
X86815Y-261723D02*
X89964D01*
X88389Y-260149D01*
Y-262248D01*
X86290Y-263297D02*
Y-265396D01*
X86815Y-266446D02*
X88914D01*
X89964Y-267495D01*
X88914Y-268545D01*
X86815D01*
X88389D01*
Y-266446D01*
X89439Y-269594D02*
X89964Y-270119D01*
Y-271169D01*
X89439Y-271693D01*
X88914D01*
X88389Y-271169D01*
Y-270644D01*
Y-271169D01*
X87865Y-271693D01*
X87340D01*
X86815Y-271169D01*
Y-270119D01*
X87340Y-269594D01*
X43878Y-271851D02*
Y-274475D01*
X44403Y-275000D01*
X45452D01*
X45977Y-274475D01*
Y-271851D01*
X47027Y-275000D02*
X48076D01*
X47551D01*
Y-271851D01*
X47027Y-272376D01*
X49650Y-275525D02*
X51749D01*
X52799Y-275000D02*
Y-272901D01*
X53849Y-271851D01*
X54898Y-272901D01*
Y-275000D01*
Y-273426D01*
X52799D01*
X55948Y-272376D02*
X56472Y-271851D01*
X57522D01*
X58047Y-272376D01*
Y-272901D01*
X57522Y-273426D01*
X56997D01*
X57522D01*
X58047Y-273951D01*
Y-274475D01*
X57522Y-275000D01*
X56472D01*
X55948Y-274475D01*
X46815Y-247000D02*
Y-243851D01*
X48389D01*
X48914Y-244376D01*
Y-245426D01*
X48389Y-245951D01*
X46815D01*
X47865D02*
X48914Y-247000D01*
X49964Y-246475D02*
X50488Y-247000D01*
X51538D01*
X52063Y-246475D01*
Y-244376D01*
X51538Y-243851D01*
X50488D01*
X49964Y-244376D01*
Y-244901D01*
X50488Y-245426D01*
X52063D01*
X53112Y-247525D02*
X55211D01*
X56261Y-247000D02*
Y-244901D01*
X57310Y-243851D01*
X58360Y-244901D01*
Y-247000D01*
Y-245426D01*
X56261D01*
X59409Y-244376D02*
X59934Y-243851D01*
X60984D01*
X61509Y-244376D01*
Y-244901D01*
X60984Y-245426D01*
X60459D01*
X60984D01*
X61509Y-245951D01*
Y-246475D01*
X60984Y-247000D01*
X59934D01*
X59409Y-246475D01*
X34752Y-319000D02*
X31604D01*
Y-317426D01*
X32128Y-316901D01*
X33178D01*
X33703Y-317426D01*
Y-319000D01*
Y-317951D02*
X34752Y-316901D01*
X32128Y-315851D02*
X31604Y-315327D01*
Y-314277D01*
X32128Y-313752D01*
X32653D01*
X33178Y-314277D01*
X33703Y-313752D01*
X34227D01*
X34752Y-314277D01*
Y-315327D01*
X34227Y-315851D01*
X33703D01*
X33178Y-315327D01*
X32653Y-315851D01*
X32128D01*
X33178Y-315327D02*
Y-314277D01*
X35277Y-312703D02*
Y-310604D01*
X34752Y-309554D02*
X32653D01*
X31604Y-308505D01*
X32653Y-307455D01*
X34752D01*
X33178D01*
Y-309554D01*
X32128Y-306406D02*
X31604Y-305881D01*
Y-304831D01*
X32128Y-304307D01*
X32653D01*
X33178Y-304831D01*
Y-305356D01*
Y-304831D01*
X33703Y-304307D01*
X34227D01*
X34752Y-304831D01*
Y-305881D01*
X34227Y-306406D01*
X23815Y-257000D02*
Y-253852D01*
X25389D01*
X25914Y-254376D01*
Y-255426D01*
X25389Y-255950D01*
X23815D01*
X24865D02*
X25914Y-257000D01*
X26964Y-253852D02*
X29063D01*
Y-254376D01*
X26964Y-256475D01*
Y-257000D01*
X30112Y-257525D02*
X32211D01*
X33261Y-257000D02*
Y-254901D01*
X34310Y-253852D01*
X35360Y-254901D01*
Y-257000D01*
Y-255426D01*
X33261D01*
X36409Y-254376D02*
X36934Y-253852D01*
X37984D01*
X38508Y-254376D01*
Y-254901D01*
X37984Y-255426D01*
X37459D01*
X37984D01*
X38508Y-255950D01*
Y-256475D01*
X37984Y-257000D01*
X36934D01*
X36409Y-256475D01*
X109878Y-293000D02*
Y-289851D01*
X111452D01*
X111977Y-290376D01*
Y-291426D01*
X111452Y-291950D01*
X109878D01*
X110928D02*
X111977Y-293000D01*
X115126Y-289851D02*
X114076Y-290376D01*
X113027Y-291426D01*
Y-292475D01*
X113551Y-293000D01*
X114601D01*
X115126Y-292475D01*
Y-291950D01*
X114601Y-291426D01*
X113027D01*
X116175Y-293525D02*
X118274D01*
X119324Y-293000D02*
Y-290901D01*
X120373Y-289851D01*
X121423Y-290901D01*
Y-293000D01*
Y-291426D01*
X119324D01*
X122472Y-290376D02*
X122997Y-289851D01*
X124047D01*
X124572Y-290376D01*
Y-290901D01*
X124047Y-291426D01*
X123522D01*
X124047D01*
X124572Y-291950D01*
Y-292475D01*
X124047Y-293000D01*
X122997D01*
X122472Y-292475D01*
X92815Y-293000D02*
Y-289851D01*
X94389D01*
X94914Y-290376D01*
Y-291426D01*
X94389Y-291950D01*
X92815D01*
X93865D02*
X94914Y-293000D01*
X98063Y-289851D02*
X95964D01*
Y-291426D01*
X97013Y-290901D01*
X97538D01*
X98063Y-291426D01*
Y-292475D01*
X97538Y-293000D01*
X96488D01*
X95964Y-292475D01*
X99112Y-293525D02*
X101211D01*
X102261Y-293000D02*
Y-290901D01*
X103310Y-289851D01*
X104360Y-290901D01*
Y-293000D01*
Y-291426D01*
X102261D01*
X105409Y-290376D02*
X105934Y-289851D01*
X106984D01*
X107509Y-290376D01*
Y-290901D01*
X106984Y-291426D01*
X106459D01*
X106984D01*
X107509Y-291950D01*
Y-292475D01*
X106984Y-293000D01*
X105934D01*
X105409Y-292475D01*
X42453Y-289000D02*
Y-285852D01*
X44027D01*
X44552Y-286376D01*
Y-287426D01*
X44027Y-287950D01*
X42453D01*
X43502D02*
X44552Y-289000D01*
X47176D02*
Y-285852D01*
X45601Y-287426D01*
X47701D01*
X48750Y-289525D02*
X50849D01*
X51899Y-289000D02*
Y-286901D01*
X52948Y-285852D01*
X53998Y-286901D01*
Y-289000D01*
Y-287426D01*
X51899D01*
X55047Y-286376D02*
X55572Y-285852D01*
X56621D01*
X57146Y-286376D01*
Y-286901D01*
X56621Y-287426D01*
X56097D01*
X56621D01*
X57146Y-287950D01*
Y-288475D01*
X56621Y-289000D01*
X55572D01*
X55047Y-288475D01*
X25815Y-287000D02*
Y-283852D01*
X27389D01*
X27914Y-284376D01*
Y-285426D01*
X27389Y-285950D01*
X25815D01*
X26865D02*
X27914Y-287000D01*
X28964Y-284376D02*
X29488Y-283852D01*
X30538D01*
X31063Y-284376D01*
Y-284901D01*
X30538Y-285426D01*
X30013D01*
X30538D01*
X31063Y-285950D01*
Y-286475D01*
X30538Y-287000D01*
X29488D01*
X28964Y-286475D01*
X32112Y-287525D02*
X34211D01*
X35261Y-287000D02*
Y-284901D01*
X36310Y-283852D01*
X37360Y-284901D01*
Y-287000D01*
Y-285426D01*
X35261D01*
X38409Y-284376D02*
X38934Y-283852D01*
X39984D01*
X40508Y-284376D01*
Y-284901D01*
X39984Y-285426D01*
X39459D01*
X39984D01*
X40508Y-285950D01*
Y-286475D01*
X39984Y-287000D01*
X38934D01*
X38409Y-286475D01*
X60878Y-271000D02*
Y-267851D01*
X62452D01*
X62977Y-268376D01*
Y-269426D01*
X62452Y-269951D01*
X60878D01*
X61928D02*
X62977Y-271000D01*
X66126D02*
X64027D01*
X66126Y-268901D01*
Y-268376D01*
X65601Y-267851D01*
X64551D01*
X64027Y-268376D01*
X67175Y-271525D02*
X69274D01*
X70324Y-271000D02*
Y-268901D01*
X71373Y-267851D01*
X72423Y-268901D01*
Y-271000D01*
Y-269426D01*
X70324D01*
X73472Y-268376D02*
X73997Y-267851D01*
X75047D01*
X75572Y-268376D01*
Y-268901D01*
X75047Y-269426D01*
X74522D01*
X75047D01*
X75572Y-269951D01*
Y-270475D01*
X75047Y-271000D01*
X73997D01*
X73472Y-270475D01*
X35252Y-278000D02*
X32103D01*
Y-276426D01*
X32628Y-275901D01*
X33678D01*
X34203Y-276426D01*
Y-278000D01*
Y-276951D02*
X35252Y-275901D01*
Y-274851D02*
Y-273802D01*
Y-274327D01*
X32103D01*
X32628Y-274851D01*
X35777Y-272228D02*
Y-270129D01*
X35252Y-269079D02*
X33153D01*
X32103Y-268029D01*
X33153Y-266980D01*
X35252D01*
X33678D01*
Y-269079D01*
X32628Y-265931D02*
X32103Y-265406D01*
Y-264356D01*
X32628Y-263831D01*
X33153D01*
X33678Y-264356D01*
Y-264881D01*
Y-264356D01*
X34203Y-263831D01*
X34727D01*
X35252Y-264356D01*
Y-265406D01*
X34727Y-265931D01*
X116439Y-301099D02*
X116964Y-300574D01*
Y-299525D01*
X116439Y-299000D01*
X114340D01*
X113815Y-299525D01*
Y-300574D01*
X114340Y-301099D01*
X116439Y-302149D02*
X116964Y-302673D01*
Y-303723D01*
X116439Y-304248D01*
X115914D01*
X115389Y-303723D01*
Y-303198D01*
Y-303723D01*
X114865Y-304248D01*
X114340D01*
X113815Y-303723D01*
Y-302673D01*
X114340Y-302149D01*
X113290Y-305297D02*
Y-307396D01*
X113815Y-308446D02*
X115914D01*
X116964Y-309495D01*
X115914Y-310545D01*
X113815D01*
X115389D01*
Y-308446D01*
X116439Y-311594D02*
X116964Y-312119D01*
Y-313169D01*
X116439Y-313693D01*
X115914D01*
X115389Y-313169D01*
Y-312644D01*
Y-313169D01*
X114865Y-313693D01*
X114340D01*
X113815Y-313169D01*
Y-312119D01*
X114340Y-311594D01*
X50191Y-312901D02*
X49667Y-313426D01*
Y-314475D01*
X50191Y-315000D01*
X52290D01*
X52815Y-314475D01*
Y-313426D01*
X52290Y-312901D01*
X52815Y-309752D02*
Y-311852D01*
X50716Y-309752D01*
X50191D01*
X49667Y-310277D01*
Y-311327D01*
X50191Y-311852D01*
X53340Y-308703D02*
Y-306604D01*
X52815Y-305554D02*
X50716D01*
X49667Y-304505D01*
X50716Y-303455D01*
X52815D01*
X51241D01*
Y-305554D01*
X50191Y-302406D02*
X49667Y-301881D01*
Y-300831D01*
X50191Y-300307D01*
X50716D01*
X51241Y-300831D01*
Y-301356D01*
Y-300831D01*
X51766Y-300307D01*
X52290D01*
X52815Y-300831D01*
Y-301881D01*
X52290Y-302406D01*
X63977Y-279376D02*
X63452Y-278852D01*
X62403D01*
X61878Y-279376D01*
Y-281475D01*
X62403Y-282000D01*
X63452D01*
X63977Y-281475D01*
X65027Y-282000D02*
X66076D01*
X65551D01*
Y-278852D01*
X65027Y-279376D01*
X67651Y-282525D02*
X69749D01*
X70799Y-282000D02*
Y-279901D01*
X71849Y-278852D01*
X72898Y-279901D01*
Y-282000D01*
Y-280426D01*
X70799D01*
X73948Y-279376D02*
X74472Y-278852D01*
X75522D01*
X76047Y-279376D01*
Y-279901D01*
X75522Y-280426D01*
X74997D01*
X75522D01*
X76047Y-280950D01*
Y-281475D01*
X75522Y-282000D01*
X74472D01*
X73948Y-281475D01*
X49575Y-131000D02*
Y-127851D01*
X51149D01*
X51674Y-128376D01*
Y-129426D01*
X51149Y-129950D01*
X49575D01*
X50625D02*
X51674Y-131000D01*
X52723Y-130475D02*
X53248Y-131000D01*
X54298D01*
X54823Y-130475D01*
Y-128376D01*
X54298Y-127851D01*
X53248D01*
X52723Y-128376D01*
Y-128901D01*
X53248Y-129426D01*
X54823D01*
X55872Y-131525D02*
X57971D01*
X59021Y-131000D02*
Y-128901D01*
X60070Y-127851D01*
X61120Y-128901D01*
Y-131000D01*
Y-129426D01*
X59021D01*
X63744Y-131000D02*
Y-127851D01*
X62169Y-129426D01*
X64268D01*
X37575Y-186000D02*
Y-182852D01*
X39149D01*
X39674Y-183376D01*
Y-184426D01*
X39149Y-184950D01*
X37575D01*
X38625D02*
X39674Y-186000D01*
X40723Y-183376D02*
X41248Y-182852D01*
X42298D01*
X42823Y-183376D01*
Y-183901D01*
X42298Y-184426D01*
X42823Y-184950D01*
Y-185475D01*
X42298Y-186000D01*
X41248D01*
X40723Y-185475D01*
Y-184950D01*
X41248Y-184426D01*
X40723Y-183901D01*
Y-183376D01*
X41248Y-184426D02*
X42298D01*
X43872Y-186525D02*
X45971D01*
X47021Y-186000D02*
Y-183901D01*
X48070Y-182852D01*
X49120Y-183901D01*
Y-186000D01*
Y-184426D01*
X47021D01*
X51744Y-186000D02*
Y-182852D01*
X50169Y-184426D01*
X52268D01*
X51000Y-17351D02*
Y-19975D01*
X51525Y-20500D01*
X52574D01*
X53099Y-19975D01*
Y-17351D01*
X54149Y-20500D02*
X55198D01*
X54673D01*
Y-17351D01*
X54149Y-17876D01*
X56772D02*
X57297Y-17351D01*
X58347D01*
X58872Y-17876D01*
Y-19975D01*
X58347Y-20500D01*
X57297D01*
X56772Y-19975D01*
Y-17876D01*
X62020Y-20500D02*
X59921D01*
X62020Y-18401D01*
Y-17876D01*
X61495Y-17351D01*
X60446D01*
X59921Y-17876D01*
X23500Y-17851D02*
Y-20475D01*
X24025Y-21000D01*
X25074D01*
X25599Y-20475D01*
Y-17851D01*
X26649Y-21000D02*
X27698D01*
X27173D01*
Y-17851D01*
X26649Y-18376D01*
X29272D02*
X29797Y-17851D01*
X30847D01*
X31372Y-18376D01*
Y-20475D01*
X30847Y-21000D01*
X29797D01*
X29272Y-20475D01*
Y-18376D01*
X32421Y-21000D02*
X33470D01*
X32946D01*
Y-17851D01*
X32421Y-18376D01*
X46575Y-141851D02*
Y-144475D01*
X47100Y-145000D01*
X48149D01*
X48674Y-144475D01*
Y-141851D01*
X49724Y-145000D02*
X50773D01*
X50248D01*
Y-141851D01*
X49724Y-142376D01*
X52347Y-145525D02*
X54446D01*
X55496Y-145000D02*
Y-142901D01*
X56546Y-141851D01*
X57595Y-142901D01*
Y-145000D01*
Y-143426D01*
X55496D01*
X60219Y-145000D02*
Y-141851D01*
X58644Y-143426D01*
X60744D01*
X44575Y-171000D02*
Y-167851D01*
X46149D01*
X46674Y-168376D01*
Y-169426D01*
X46149Y-169950D01*
X44575D01*
X45625D02*
X46674Y-171000D01*
X49298D02*
Y-167851D01*
X47723Y-169426D01*
X49823D01*
X50872Y-171525D02*
X52971D01*
X54021Y-171000D02*
Y-168901D01*
X55070Y-167851D01*
X56120Y-168901D01*
Y-171000D01*
Y-169426D01*
X54021D01*
X58744Y-171000D02*
Y-167851D01*
X57169Y-169426D01*
X59268D01*
X30075Y-168500D02*
Y-165351D01*
X31649D01*
X32174Y-165876D01*
Y-166926D01*
X31649Y-167450D01*
X30075D01*
X31124D02*
X32174Y-168500D01*
X33224Y-165876D02*
X33748Y-165351D01*
X34798D01*
X35323Y-165876D01*
Y-166401D01*
X34798Y-166926D01*
X34273D01*
X34798D01*
X35323Y-167450D01*
Y-167975D01*
X34798Y-168500D01*
X33748D01*
X33224Y-167975D01*
X36372Y-169025D02*
X38471D01*
X39521Y-168500D02*
Y-166401D01*
X40570Y-165351D01*
X41620Y-166401D01*
Y-168500D01*
Y-166926D01*
X39521D01*
X44244Y-168500D02*
Y-165351D01*
X42669Y-166926D01*
X44768D01*
X65575Y-152000D02*
Y-148852D01*
X67149D01*
X67674Y-149376D01*
Y-150426D01*
X67149Y-150951D01*
X65575D01*
X66624D02*
X67674Y-152000D01*
X70823D02*
X68723D01*
X70823Y-149901D01*
Y-149376D01*
X70298Y-148852D01*
X69248D01*
X68723Y-149376D01*
X71872Y-152525D02*
X73971D01*
X75021Y-152000D02*
Y-149901D01*
X76070Y-148852D01*
X77120Y-149901D01*
Y-152000D01*
Y-150426D01*
X75021D01*
X79744Y-152000D02*
Y-148852D01*
X78169Y-150426D01*
X80268D01*
X34575Y-159000D02*
X31426D01*
Y-157426D01*
X31951Y-156901D01*
X33001D01*
X33525Y-157426D01*
Y-159000D01*
Y-157950D02*
X34575Y-156901D01*
Y-155851D02*
Y-154802D01*
Y-155327D01*
X31426D01*
X31951Y-155851D01*
X35100Y-153228D02*
Y-151129D01*
X34575Y-150079D02*
X32476D01*
X31426Y-149030D01*
X32476Y-147980D01*
X34575D01*
X33001D01*
Y-150079D01*
X34575Y-145356D02*
X31426D01*
X33001Y-146930D01*
Y-144831D01*
X76674Y-13851D02*
X75625D01*
X76149D01*
Y-16475D01*
X75625Y-17000D01*
X75100D01*
X74575Y-16475D01*
X77723Y-17000D02*
X78773D01*
X78248D01*
Y-13851D01*
X77723Y-14376D01*
X80347D02*
X80872Y-13851D01*
X81922D01*
X82446Y-14376D01*
Y-16475D01*
X81922Y-17000D01*
X80872D01*
X80347Y-16475D01*
Y-14376D01*
X83496D02*
X84021Y-13851D01*
X85070D01*
X85595Y-14376D01*
Y-16475D01*
X85070Y-17000D01*
X84021D01*
X83496Y-16475D01*
Y-14376D01*
X124723Y-30390D02*
X121575D01*
Y-31964D01*
X122100Y-32489D01*
X124199D01*
X124723Y-31964D01*
Y-30390D01*
X121575Y-33538D02*
Y-34588D01*
Y-34063D01*
X124723D01*
X124199Y-33538D01*
X41208Y-91124D02*
X41733Y-91649D01*
X42782D01*
X43307Y-91124D01*
Y-89025D01*
X42782Y-88500D01*
X41733D01*
X41208Y-89025D01*
X40159Y-88500D02*
X39109D01*
X39634D01*
Y-91649D01*
X40159Y-91124D01*
X37535D02*
X37010Y-91649D01*
X35960D01*
X35436Y-91124D01*
Y-89025D01*
X35960Y-88500D01*
X37010D01*
X37535Y-89025D01*
Y-91124D01*
X32287Y-91649D02*
X34386D01*
Y-90074D01*
X33336Y-90599D01*
X32812D01*
X32287Y-90074D01*
Y-89025D01*
X32812Y-88500D01*
X33861D01*
X34386Y-89025D01*
X9599Y-82876D02*
X9074Y-82351D01*
X8025D01*
X7500Y-82876D01*
Y-84975D01*
X8025Y-85500D01*
X9074D01*
X9599Y-84975D01*
X10649Y-85500D02*
X11698D01*
X11173D01*
Y-82351D01*
X10649Y-82876D01*
X13272D02*
X13797Y-82351D01*
X14847D01*
X15371Y-82876D01*
Y-84975D01*
X14847Y-85500D01*
X13797D01*
X13272Y-84975D01*
Y-82876D01*
X17995Y-85500D02*
Y-82351D01*
X16421Y-83926D01*
X18520D01*
X96674Y-39376D02*
X96149Y-38851D01*
X95100D01*
X94575Y-39376D01*
Y-41475D01*
X95100Y-42000D01*
X96149D01*
X96674Y-41475D01*
X97724Y-42000D02*
X98773D01*
X98248D01*
Y-38851D01*
X97724Y-39376D01*
X100347D02*
X100872Y-38851D01*
X101922D01*
X102446Y-39376D01*
Y-41475D01*
X101922Y-42000D01*
X100872D01*
X100347Y-41475D01*
Y-39376D01*
X103496D02*
X104021Y-38851D01*
X105070D01*
X105595Y-39376D01*
Y-39901D01*
X105070Y-40426D01*
X104545D01*
X105070D01*
X105595Y-40951D01*
Y-41475D01*
X105070Y-42000D01*
X104021D01*
X103496Y-41475D01*
X93107Y-71876D02*
X92582Y-71351D01*
X91533D01*
X91008Y-71876D01*
Y-73975D01*
X91533Y-74500D01*
X92582D01*
X93107Y-73975D01*
X94157Y-74500D02*
X95206D01*
X94681D01*
Y-71351D01*
X94157Y-71876D01*
X96780D02*
X97305Y-71351D01*
X98355D01*
X98879Y-71876D01*
Y-73975D01*
X98355Y-74500D01*
X97305D01*
X96780Y-73975D01*
Y-71876D01*
X102028Y-74500D02*
X99929D01*
X102028Y-72401D01*
Y-71876D01*
X101503Y-71351D01*
X100454D01*
X99929Y-71876D01*
X101674Y-50376D02*
X101149Y-49852D01*
X100100D01*
X99575Y-50376D01*
Y-52475D01*
X100100Y-53000D01*
X101149D01*
X101674Y-52475D01*
X102724Y-53000D02*
X103773D01*
X103248D01*
Y-49852D01*
X102724Y-50376D01*
X105347D02*
X105872Y-49852D01*
X106922D01*
X107446Y-50376D01*
Y-52475D01*
X106922Y-53000D01*
X105872D01*
X105347Y-52475D01*
Y-50376D01*
X108496Y-53000D02*
X109546D01*
X109021D01*
Y-49852D01*
X108496Y-50376D01*
X57951Y-191901D02*
X57426Y-192426D01*
Y-193475D01*
X57951Y-194000D01*
X60050D01*
X60575Y-193475D01*
Y-192426D01*
X60050Y-191901D01*
X60575Y-188752D02*
Y-190851D01*
X58476Y-188752D01*
X57951D01*
X57426Y-189277D01*
Y-190327D01*
X57951Y-190851D01*
X61100Y-187703D02*
Y-185604D01*
X60575Y-184554D02*
X58476D01*
X57426Y-183505D01*
X58476Y-182455D01*
X60575D01*
X59001D01*
Y-184554D01*
X60575Y-179831D02*
X57426D01*
X59001Y-181406D01*
Y-179307D01*
X61674Y-161376D02*
X61149Y-160852D01*
X60100D01*
X59575Y-161376D01*
Y-163475D01*
X60100Y-164000D01*
X61149D01*
X61674Y-163475D01*
X62723Y-164000D02*
X63773D01*
X63248D01*
Y-160852D01*
X62723Y-161376D01*
X65347Y-164525D02*
X67446D01*
X68496Y-164000D02*
Y-161901D01*
X69546Y-160852D01*
X70595Y-161901D01*
Y-164000D01*
Y-162426D01*
X68496D01*
X73219Y-164000D02*
Y-160852D01*
X71645Y-162426D01*
X73744D01*
X97575Y-173500D02*
Y-170352D01*
X99149D01*
X99674Y-170876D01*
Y-171926D01*
X99149Y-172450D01*
X97575D01*
X98624D02*
X99674Y-173500D01*
X102823Y-170352D02*
X100724D01*
Y-171926D01*
X101773Y-171401D01*
X102298D01*
X102823Y-171926D01*
Y-172975D01*
X102298Y-173500D01*
X101248D01*
X100724Y-172975D01*
X103872Y-174025D02*
X105971D01*
X107021Y-173500D02*
Y-171401D01*
X108070Y-170352D01*
X109120Y-171401D01*
Y-173500D01*
Y-171926D01*
X107021D01*
X111744Y-173500D02*
Y-170352D01*
X110169Y-171926D01*
X112268D01*
X115575Y-173000D02*
Y-169852D01*
X117149D01*
X117674Y-170376D01*
Y-171426D01*
X117149Y-171950D01*
X115575D01*
X116624D02*
X117674Y-173000D01*
X120823Y-169852D02*
X119773Y-170376D01*
X118723Y-171426D01*
Y-172475D01*
X119248Y-173000D01*
X120298D01*
X120823Y-172475D01*
Y-171950D01*
X120298Y-171426D01*
X118723D01*
X121872Y-173525D02*
X123971D01*
X125021Y-173000D02*
Y-170901D01*
X126070Y-169852D01*
X127120Y-170901D01*
Y-173000D01*
Y-171426D01*
X125021D01*
X129744Y-173000D02*
Y-169852D01*
X128169Y-171426D01*
X130268D01*
X30575Y-131000D02*
Y-127851D01*
X32149D01*
X32674Y-128376D01*
Y-129426D01*
X32149Y-129950D01*
X30575D01*
X31624D02*
X32674Y-131000D01*
X33724Y-127851D02*
X35823D01*
Y-128376D01*
X33724Y-130475D01*
Y-131000D01*
X36872Y-131525D02*
X38971D01*
X40021Y-131000D02*
Y-128901D01*
X41070Y-127851D01*
X42120Y-128901D01*
Y-131000D01*
Y-129426D01*
X40021D01*
X44744Y-131000D02*
Y-127851D01*
X43169Y-129426D01*
X45268D01*
X116699Y-186599D02*
X117224Y-186074D01*
Y-185025D01*
X116699Y-184500D01*
X114600D01*
X114075Y-185025D01*
Y-186074D01*
X114600Y-186599D01*
X116699Y-187649D02*
X117224Y-188173D01*
Y-189223D01*
X116699Y-189748D01*
X116174D01*
X115649Y-189223D01*
Y-188698D01*
Y-189223D01*
X115124Y-189748D01*
X114600D01*
X114075Y-189223D01*
Y-188173D01*
X114600Y-187649D01*
X113550Y-190797D02*
Y-192896D01*
X114075Y-193946D02*
X116174D01*
X117224Y-194995D01*
X116174Y-196045D01*
X114075D01*
X115649D01*
Y-193946D01*
X114075Y-198669D02*
X117224D01*
X115649Y-197094D01*
Y-199194D01*
X46020Y-384351D02*
Y-386975D01*
X46545Y-387500D01*
X47594D01*
X48119Y-386975D01*
Y-384351D01*
X49168Y-387500D02*
X50218D01*
X49693D01*
Y-384351D01*
X49168Y-384876D01*
X51792Y-388025D02*
X53891D01*
X54941Y-387500D02*
Y-385401D01*
X55990Y-384351D01*
X57040Y-385401D01*
Y-387500D01*
Y-385926D01*
X54941D01*
X60189Y-387500D02*
X58089D01*
X60189Y-385401D01*
Y-384876D01*
X59664Y-384351D01*
X58614D01*
X58089Y-384876D01*
X81983Y-493347D02*
X79360D01*
X78835Y-493871D01*
Y-494921D01*
X79360Y-495446D01*
X81983D01*
X78835Y-498069D02*
X81983D01*
X80409Y-496495D01*
Y-498594D01*
X78310Y-499644D02*
Y-501743D01*
X78835Y-502792D02*
X80934D01*
X81983Y-503842D01*
X80934Y-504891D01*
X78835D01*
X80409D01*
Y-502792D01*
X78835Y-505941D02*
Y-506990D01*
Y-506466D01*
X81983D01*
X81459Y-505941D01*
X46138Y-502352D02*
Y-504975D01*
X46663Y-505500D01*
X47712D01*
X48237Y-504975D01*
Y-502352D01*
X49286Y-505500D02*
X50336D01*
X49811D01*
Y-502352D01*
X49286Y-502876D01*
X51910Y-506025D02*
X54009D01*
X55059Y-505500D02*
Y-503401D01*
X56108Y-502352D01*
X57158Y-503401D01*
Y-505500D01*
Y-503926D01*
X55059D01*
X58207Y-505500D02*
X59257D01*
X58732D01*
Y-502352D01*
X58207Y-502876D01*
X46075Y-150352D02*
Y-152975D01*
X46600Y-153500D01*
X47649D01*
X48174Y-152975D01*
Y-150352D01*
X49224Y-153500D02*
X50273D01*
X49748D01*
Y-150352D01*
X49224Y-150876D01*
X51847Y-154025D02*
X53946D01*
X54996Y-153500D02*
Y-151401D01*
X56046Y-150352D01*
X57095Y-151401D01*
Y-153500D01*
Y-151926D01*
X54996D01*
X59719Y-153500D02*
Y-150352D01*
X58144Y-151926D01*
X60244D01*
X20850Y-34500D02*
X18226D01*
X17701Y-35025D01*
Y-36074D01*
X18226Y-36599D01*
X20850D01*
X17701Y-37649D02*
Y-38698D01*
Y-38173D01*
X20850D01*
X20325Y-37649D01*
Y-40273D02*
X20850Y-40797D01*
Y-41847D01*
X20325Y-42371D01*
X18226D01*
X17701Y-41847D01*
Y-40797D01*
X18226Y-40273D01*
X20325D01*
X17701Y-43421D02*
Y-44471D01*
Y-43946D01*
X20850D01*
X20325Y-43421D01*
X50306Y-34189D02*
X47682D01*
X47158Y-34714D01*
Y-35763D01*
X47682Y-36288D01*
X50306D01*
X47158Y-37338D02*
Y-38387D01*
Y-37862D01*
X50306D01*
X49782Y-37338D01*
Y-39961D02*
X50306Y-40486D01*
Y-41536D01*
X49782Y-42061D01*
X47682D01*
X47158Y-41536D01*
Y-40486D01*
X47682Y-39961D01*
X49782D01*
X47158Y-45209D02*
Y-43110D01*
X49257Y-45209D01*
X49782D01*
X50306Y-44684D01*
Y-43635D01*
X49782Y-43110D01*
X82983Y-136913D02*
X80360D01*
X79835Y-137438D01*
Y-138488D01*
X80360Y-139013D01*
X82983D01*
X79835Y-141636D02*
X82983D01*
X81409Y-140062D01*
Y-142161D01*
X79310Y-143211D02*
Y-145310D01*
X79835Y-146359D02*
X81934D01*
X82983Y-147409D01*
X81934Y-148458D01*
X79835D01*
X81409D01*
Y-146359D01*
X79835Y-151082D02*
X82983D01*
X81409Y-149508D01*
Y-151607D01*
D16*
X62992Y-5907D02*
X70864D01*
X66928Y-1972D02*
Y-9843D01*
D17*
X115555Y-27028D02*
D03*
D18*
X0Y-590551D02*
X149307D01*
X0Y-0D02*
X0Y-590551D01*
X0Y-0D02*
X149307D01*
Y-590551D02*
Y-0D01*
M02*
