G04*
G04 #@! TF.GenerationSoftware,Altium Limited,Altium Designer,22.9.1 (49)*
G04*
G04 Layer_Color=8421504*
%FSLAX25Y25*%
%MOIN*%
G70*
G04*
G04 #@! TF.SameCoordinates,E6D2D5AF-3703-4330-9E41-3BAFFAD507BF*
G04*
G04*
G04 #@! TF.FilePolarity,Positive*
G04*
G01*
G75*
%ADD15C,0.00591*%
%ADD18C,0.01000*%
%ADD19O,0.07480X0.02362*%
%ADD20R,0.05118X0.06102*%
%ADD21R,0.03543X0.09843*%
%ADD22R,0.04724X0.05709*%
G04:AMPARAMS|DCode=23|XSize=23.62mil|YSize=39.37mil|CornerRadius=2.01mil|HoleSize=0mil|Usage=FLASHONLY|Rotation=0.000|XOffset=0mil|YOffset=0mil|HoleType=Round|Shape=RoundedRectangle|*
%AMROUNDEDRECTD23*
21,1,0.02362,0.03535,0,0,0.0*
21,1,0.01961,0.03937,0,0,0.0*
1,1,0.00402,0.00980,-0.01768*
1,1,0.00402,-0.00980,-0.01768*
1,1,0.00402,-0.00980,0.01768*
1,1,0.00402,0.00980,0.01768*
%
%ADD23ROUNDEDRECTD23*%
%ADD24R,0.05709X0.04724*%
%ADD25R,0.07087X0.04528*%
G04:AMPARAMS|DCode=26|XSize=25.59mil|YSize=47.24mil|CornerRadius=1.92mil|HoleSize=0mil|Usage=FLASHONLY|Rotation=90.000|XOffset=0mil|YOffset=0mil|HoleType=Round|Shape=RoundedRectangle|*
%AMROUNDEDRECTD26*
21,1,0.02559,0.04341,0,0,90.0*
21,1,0.02175,0.04724,0,0,90.0*
1,1,0.00384,0.02170,0.01088*
1,1,0.00384,0.02170,-0.01088*
1,1,0.00384,-0.02170,-0.01088*
1,1,0.00384,-0.02170,0.01088*
%
%ADD26ROUNDEDRECTD26*%
%ADD27R,0.04528X0.07087*%
%ADD28R,0.06102X0.05118*%
%ADD29R,0.07874X0.04724*%
%ADD30R,0.10827X0.05034*%
G04:AMPARAMS|DCode=31|XSize=125.98mil|YSize=68.9mil|CornerRadius=2.07mil|HoleSize=0mil|Usage=FLASHONLY|Rotation=0.000|XOffset=0mil|YOffset=0mil|HoleType=Round|Shape=RoundedRectangle|*
%AMROUNDEDRECTD31*
21,1,0.12598,0.06476,0,0,0.0*
21,1,0.12185,0.06890,0,0,0.0*
1,1,0.00413,0.06093,-0.03238*
1,1,0.00413,-0.06093,-0.03238*
1,1,0.00413,-0.06093,0.03238*
1,1,0.00413,0.06093,0.03238*
%
%ADD31ROUNDEDRECTD31*%
G04:AMPARAMS|DCode=32|XSize=35.43mil|YSize=68.9mil|CornerRadius=1.95mil|HoleSize=0mil|Usage=FLASHONLY|Rotation=0.000|XOffset=0mil|YOffset=0mil|HoleType=Round|Shape=RoundedRectangle|*
%AMROUNDEDRECTD32*
21,1,0.03543,0.06500,0,0,0.0*
21,1,0.03154,0.06890,0,0,0.0*
1,1,0.00390,0.01577,-0.03250*
1,1,0.00390,-0.01577,-0.03250*
1,1,0.00390,-0.01577,0.03250*
1,1,0.00390,0.01577,0.03250*
%
%ADD32ROUNDEDRECTD32*%
G04:AMPARAMS|DCode=33|XSize=127.95mil|YSize=80.71mil|CornerRadius=2.02mil|HoleSize=0mil|Usage=FLASHONLY|Rotation=0.000|XOffset=0mil|YOffset=0mil|HoleType=Round|Shape=RoundedRectangle|*
%AMROUNDEDRECTD33*
21,1,0.12795,0.07667,0,0,0.0*
21,1,0.12392,0.08071,0,0,0.0*
1,1,0.00404,0.06196,-0.03834*
1,1,0.00404,-0.06196,-0.03834*
1,1,0.00404,-0.06196,0.03834*
1,1,0.00404,0.06196,0.03834*
%
%ADD33ROUNDEDRECTD33*%
G04:AMPARAMS|DCode=34|XSize=39.37mil|YSize=80.71mil|CornerRadius=1.97mil|HoleSize=0mil|Usage=FLASHONLY|Rotation=0.000|XOffset=0mil|YOffset=0mil|HoleType=Round|Shape=RoundedRectangle|*
%AMROUNDEDRECTD34*
21,1,0.03937,0.07677,0,0,0.0*
21,1,0.03543,0.08071,0,0,0.0*
1,1,0.00394,0.01772,-0.03839*
1,1,0.00394,-0.01772,-0.03839*
1,1,0.00394,-0.01772,0.03839*
1,1,0.00394,0.01772,0.03839*
%
%ADD34ROUNDEDRECTD34*%
D15*
X46020Y-384351D02*
Y-386975D01*
X46545Y-387500D01*
X47594D01*
X48119Y-386975D01*
Y-384351D01*
X49168Y-387500D02*
X50218D01*
X49693D01*
Y-384351D01*
X49168Y-384876D01*
X51792Y-388025D02*
X53891D01*
X54941Y-387500D02*
Y-385401D01*
X55990Y-384351D01*
X57040Y-385401D01*
Y-387500D01*
Y-385926D01*
X54941D01*
X60189Y-387500D02*
X58089D01*
X60189Y-385401D01*
Y-384876D01*
X59664Y-384351D01*
X58614D01*
X58089Y-384876D01*
X81983Y-493347D02*
X79360D01*
X78835Y-493871D01*
Y-494921D01*
X79360Y-495446D01*
X81983D01*
X78835Y-498069D02*
X81983D01*
X80409Y-496495D01*
Y-498594D01*
X78310Y-499644D02*
Y-501743D01*
X78835Y-502792D02*
X80934D01*
X81983Y-503842D01*
X80934Y-504891D01*
X78835D01*
X80409D01*
Y-502792D01*
X78835Y-505941D02*
Y-506990D01*
Y-506466D01*
X81983D01*
X81459Y-505941D01*
X46138Y-502352D02*
Y-504975D01*
X46663Y-505500D01*
X47712D01*
X48237Y-504975D01*
Y-502352D01*
X49286Y-505500D02*
X50336D01*
X49811D01*
Y-502352D01*
X49286Y-502876D01*
X51910Y-506025D02*
X54009D01*
X55059Y-505500D02*
Y-503401D01*
X56108Y-502352D01*
X57158Y-503401D01*
Y-505500D01*
Y-503926D01*
X55059D01*
X58207Y-505500D02*
X59257D01*
X58732D01*
Y-502352D01*
X58207Y-502876D01*
X46075Y-150352D02*
Y-152975D01*
X46600Y-153500D01*
X47649D01*
X48174Y-152975D01*
Y-150352D01*
X49224Y-153500D02*
X50273D01*
X49748D01*
Y-150352D01*
X49224Y-150876D01*
X51847Y-154025D02*
X53946D01*
X54996Y-153500D02*
Y-151401D01*
X56046Y-150352D01*
X57095Y-151401D01*
Y-153500D01*
Y-151926D01*
X54996D01*
X59719Y-153500D02*
Y-150352D01*
X58144Y-151926D01*
X60244D01*
X20850Y-34500D02*
X18226D01*
X17701Y-35025D01*
Y-36074D01*
X18226Y-36599D01*
X20850D01*
X17701Y-37649D02*
Y-38698D01*
Y-38173D01*
X20850D01*
X20325Y-37649D01*
Y-40273D02*
X20850Y-40797D01*
Y-41847D01*
X20325Y-42371D01*
X18226D01*
X17701Y-41847D01*
Y-40797D01*
X18226Y-40273D01*
X20325D01*
X17701Y-43421D02*
Y-44471D01*
Y-43946D01*
X20850D01*
X20325Y-43421D01*
X50306Y-34189D02*
X47682D01*
X47158Y-34714D01*
Y-35763D01*
X47682Y-36288D01*
X50306D01*
X47158Y-37338D02*
Y-38387D01*
Y-37862D01*
X50306D01*
X49782Y-37338D01*
Y-39961D02*
X50306Y-40486D01*
Y-41536D01*
X49782Y-42061D01*
X47682D01*
X47158Y-41536D01*
Y-40486D01*
X47682Y-39961D01*
X49782D01*
X47158Y-45209D02*
Y-43110D01*
X49257Y-45209D01*
X49782D01*
X50306Y-44684D01*
Y-43635D01*
X49782Y-43110D01*
X82983Y-136913D02*
X80360D01*
X79835Y-137438D01*
Y-138488D01*
X80360Y-139013D01*
X82983D01*
X79835Y-141636D02*
X82983D01*
X81409Y-140062D01*
Y-142161D01*
X79310Y-143211D02*
Y-145310D01*
X79835Y-146359D02*
X81934D01*
X82983Y-147409D01*
X81934Y-148458D01*
X79835D01*
X81409D01*
Y-146359D01*
X79835Y-151082D02*
X82983D01*
X81409Y-149508D01*
Y-151607D01*
D18*
X0Y-590551D02*
X149307D01*
X0Y-0D02*
X0Y-590551D01*
X0Y-0D02*
X149307D01*
Y-590551D02*
Y-0D01*
D19*
X98748Y-499000D02*
D03*
Y-504000D02*
D03*
Y-509000D02*
D03*
Y-514000D02*
D03*
X117252Y-499000D02*
D03*
Y-504000D02*
D03*
Y-509000D02*
D03*
Y-514000D02*
D03*
X81748Y-421500D02*
D03*
Y-426500D02*
D03*
Y-431500D02*
D03*
Y-436500D02*
D03*
X100252Y-421500D02*
D03*
Y-426500D02*
D03*
Y-431500D02*
D03*
Y-436500D02*
D03*
X100748Y-381500D02*
D03*
Y-386500D02*
D03*
Y-391500D02*
D03*
Y-396500D02*
D03*
X119252Y-381500D02*
D03*
Y-386500D02*
D03*
Y-391500D02*
D03*
Y-396500D02*
D03*
X115067Y-278500D02*
D03*
Y-273500D02*
D03*
Y-268500D02*
D03*
Y-263500D02*
D03*
X96563Y-278500D02*
D03*
Y-273500D02*
D03*
Y-268500D02*
D03*
Y-263500D02*
D03*
X91386Y-312059D02*
D03*
Y-307059D02*
D03*
Y-302059D02*
D03*
Y-297059D02*
D03*
X72882Y-312059D02*
D03*
Y-307059D02*
D03*
Y-302059D02*
D03*
Y-297059D02*
D03*
X98252Y-554500D02*
D03*
Y-549500D02*
D03*
Y-544500D02*
D03*
Y-539500D02*
D03*
X79748Y-554500D02*
D03*
Y-549500D02*
D03*
Y-544500D02*
D03*
Y-539500D02*
D03*
X118827Y-158500D02*
D03*
Y-153500D02*
D03*
Y-148500D02*
D03*
Y-143500D02*
D03*
X100323Y-158500D02*
D03*
Y-153500D02*
D03*
Y-148500D02*
D03*
Y-143500D02*
D03*
X98827Y-194500D02*
D03*
Y-189500D02*
D03*
Y-184500D02*
D03*
Y-179500D02*
D03*
X80323Y-194500D02*
D03*
Y-189500D02*
D03*
Y-184500D02*
D03*
Y-179500D02*
D03*
D20*
X40063Y-75000D02*
D03*
X47937D02*
D03*
X13063Y-77500D02*
D03*
X20937D02*
D03*
X86638Y-47000D02*
D03*
X94512D02*
D03*
D21*
X35449Y-65000D02*
D03*
X47654D02*
D03*
X8795Y-64000D02*
D03*
X21000D02*
D03*
D22*
X62693Y-390000D02*
D03*
X70567D02*
D03*
X40012Y-408000D02*
D03*
X32138D02*
D03*
X57012Y-412000D02*
D03*
X49138D02*
D03*
X36012Y-372000D02*
D03*
X28138D02*
D03*
X52012D02*
D03*
X44138D02*
D03*
X26878Y-291000D02*
D03*
X34752D02*
D03*
X42878Y-293000D02*
D03*
X50752D02*
D03*
X32878Y-251000D02*
D03*
X40752D02*
D03*
X48878D02*
D03*
X56752D02*
D03*
X105937Y-404000D02*
D03*
X98063D02*
D03*
X122437D02*
D03*
X114563D02*
D03*
X102004Y-286000D02*
D03*
X94130D02*
D03*
X117752Y-286000D02*
D03*
X109878D02*
D03*
X69752Y-275000D02*
D03*
X61878D02*
D03*
X119512Y-521000D02*
D03*
X111638D02*
D03*
X70512Y-510000D02*
D03*
X62638D02*
D03*
X102685Y-521000D02*
D03*
X94811D02*
D03*
X49445Y-532000D02*
D03*
X57319D02*
D03*
X32638Y-524000D02*
D03*
X40512D02*
D03*
X31075Y-490000D02*
D03*
X38949D02*
D03*
X48638D02*
D03*
X56512D02*
D03*
X27575Y-135000D02*
D03*
X35449D02*
D03*
X122764Y-165819D02*
D03*
X114890D02*
D03*
X107512Y-166213D02*
D03*
X99638D02*
D03*
X63638Y-156000D02*
D03*
X71512D02*
D03*
X36012Y-172000D02*
D03*
X28138D02*
D03*
X50949Y-175500D02*
D03*
X43075D02*
D03*
X43575Y-135000D02*
D03*
X51449D02*
D03*
D23*
X85815Y-382827D02*
D03*
X82075D02*
D03*
X78335D02*
D03*
Y-372000D02*
D03*
X82075D02*
D03*
X85815D02*
D03*
X82555Y-255173D02*
D03*
X78815D02*
D03*
X75075D02*
D03*
Y-266000D02*
D03*
X78815D02*
D03*
X82555D02*
D03*
X83075Y-490433D02*
D03*
X79335D02*
D03*
X75595D02*
D03*
Y-501260D02*
D03*
X79335D02*
D03*
X83075D02*
D03*
X84075Y-134000D02*
D03*
X80335D02*
D03*
X76595D02*
D03*
Y-144827D02*
D03*
X80335D02*
D03*
X84075D02*
D03*
D24*
X37075Y-425063D02*
D03*
Y-432937D02*
D03*
X30000Y-388563D02*
D03*
Y-396437D02*
D03*
X38815Y-313937D02*
D03*
Y-306063D02*
D03*
X28815Y-276874D02*
D03*
Y-269000D02*
D03*
X37575Y-548937D02*
D03*
Y-541063D02*
D03*
X29575Y-512937D02*
D03*
Y-505063D02*
D03*
X28575Y-151000D02*
D03*
Y-158874D02*
D03*
X39575Y-189063D02*
D03*
Y-196937D02*
D03*
D25*
X66075Y-434906D02*
D03*
Y-423095D02*
D03*
X57815Y-304095D02*
D03*
Y-315906D02*
D03*
X64575Y-541595D02*
D03*
Y-553406D02*
D03*
X65575Y-192969D02*
D03*
Y-181158D02*
D03*
D26*
X42713Y-383260D02*
D03*
Y-387000D02*
D03*
Y-390740D02*
D03*
X54327D02*
D03*
Y-387000D02*
D03*
Y-383260D02*
D03*
X54067Y-261260D02*
D03*
Y-265000D02*
D03*
Y-268740D02*
D03*
X42453D02*
D03*
Y-265000D02*
D03*
Y-261260D02*
D03*
X54445Y-501260D02*
D03*
Y-505000D02*
D03*
Y-508740D02*
D03*
X42831D02*
D03*
Y-505000D02*
D03*
Y-501260D02*
D03*
X42768Y-149260D02*
D03*
Y-153000D02*
D03*
Y-156740D02*
D03*
X54382D02*
D03*
Y-153000D02*
D03*
Y-149260D02*
D03*
D27*
X56232Y-401000D02*
D03*
X68043D02*
D03*
X72276Y-286000D02*
D03*
X60465D02*
D03*
X67480Y-520000D02*
D03*
X55669D02*
D03*
X58146Y-169000D02*
D03*
X69957D02*
D03*
D28*
X111575Y-433437D02*
D03*
Y-425563D02*
D03*
X109815Y-308000D02*
D03*
Y-300126D02*
D03*
X110500Y-553437D02*
D03*
Y-545563D02*
D03*
X109075Y-192437D02*
D03*
Y-184563D02*
D03*
D29*
X87575Y-67000D02*
D03*
X98598D02*
D03*
X98575Y-57000D02*
D03*
X87551D02*
D03*
X13575Y-90000D02*
D03*
X24599D02*
D03*
X36500Y-83500D02*
D03*
X47524D02*
D03*
D30*
X115575Y-21890D02*
D03*
Y-40000D02*
D03*
D31*
X18701Y-53303D02*
D03*
D32*
X9646Y-28697D02*
D03*
X18701D02*
D03*
X27756D02*
D03*
D33*
X48658Y-53189D02*
D03*
D34*
X39603Y-28189D02*
D03*
X48658D02*
D03*
X57713D02*
D03*
M02*
