M48
;Layer_Color=9474304
;FILE_FORMAT=2:5
INCH,LZ
;TYPE=PLATED
T1F00S00C0.02756
T2F00S00C0.02799
T3F00S00C0.03937
T4F00S00C0.04331
T5F00S00C0.05906
;TYPE=NON_PLATED
T6F00S00C0.12598
T7F00S00C0.13800
%
T01
X010852Y-0080256
X0125984Y-0072835
T02
X0413441Y-0117548
X0437063Y-0109674
X0141732Y-0086614
X011811Y-0011811
X0267717Y-0090551
X0334646Y-007874
X0354331Y-0070866
T03
X0570866Y-0125984
X0580866
X0602362
X0612362
X054937
X053937
X0307087Y-011811
Y-010811
X0248031
Y-011811
X0188976
Y-010811
X0129921
Y-011811
X0082677Y-0096614
Y-0085708
Y-0074803
Y-0063897
Y-0052992
X0093858Y-0058445
Y-006935
Y-0080256
Y-0091161
X0129921Y-003937
Y-002937
X0188976
Y-003937
X0248031
Y-002937
X0307087
Y-003937
X0381945Y-0068178
Y-0078178
X0476378Y-0073149
X0486378
X0543602Y-0067559
X0554508
X055996Y-007874
X0549055
Y-0031496
X0559055
X052622
X051622
X0581771
X0591771
X0614606
X0624606
X0587224Y-0067559
X0576319
X0565413
X0570866Y-007874
X0581771
T04
X027559Y-011811
X0334646
X0216535
X015748
X015748Y-003937
X0216535
X027559
X0334646
X0413441Y-0078178
T05
X0265591Y-012811
Y-010811
X0285591
Y-012811
X0324646
Y-010811
X0344646
Y-012811
X0226535
Y-010811
X0206535
Y-012811
X016748
Y-010811
X014748
Y-012811
X014748Y-004937
Y-002937
X016748
Y-004937
X0206535
Y-002937
X0226535
Y-004937
X0265591
Y-002937
X0285591
Y-004937
X0324646
Y-002937
X0344646
Y-004937
X0403441Y-0068178
Y-0088178
X0423441
Y-0068178
T06
X0088267Y-0123996
Y-002561
X051622Y-0073149
X0614606
T07
X0669291Y-0137795
X0019685
Y-0019685
X0669291
M30
