M48
;Layer_Color=9474304
;FILE_FORMAT=2:5
INCH,LZ
;TYPE=PLATED
T1F00S00C0.01968
T2F00S00C0.02799
T3F00S00C0.03937
T4F00S00C0.04331
;TYPE=NON_PLATED
T5F00S00C0.13800
T6F00S00C0.47244
%
T01
X0424601Y-0100528
X0488189Y-0106299
X0513358Y-0102068
X0397638Y-0106299
X0252685Y-0133567
X0119409Y-0133707
X0103729Y-0104308
X009463Y-0105848
X0074803Y-0031496
X009491Y-003291
X0133858Y-0031496
X0155948Y-003263
X019685Y-0031496
X0220766Y-003011
X009841Y-0074909
X0255485Y-0066929
X0263185Y-0082609
X0303784Y-0079669
X0301124Y-0070569
X0304204Y-0060209
X0304484Y-0091009
X0326744Y-0081489
X0330523Y-0064969
X0367762Y-0069729
X0370142Y-0061189
X0371122Y-0078549
X0371962Y-0088909
X0397638Y-0043419
X0421241Y-004579
X0488189Y-0043307
X0514478Y-003837
X0472441Y-0019685
T02
X0374016Y-0110236
X0082677Y-0129921
X0161417Y-0074803
X0240158Y-0082677
X0244094Y-0031496
X0307087Y-0027559
X0318898Y-0058194
X038189Y-0082677
X0389764Y-0015748
X046063Y-0082677
T03
X0442756Y-0114173
X0452756
X0531496
X0541496
X0208661Y-0125984
X0198661
Y-0098183
X0208661
X014391
X013391
X0082677Y-0098425
X0072677
Y-0070866
X0082677
X0133858
X0143858
X0198661
X0208661
X0263465Y-0019685
X0273465
X0283465
X0334331
X0344331
X0354331
X0442756Y-005032
X0452756
X0531496Y-0051181
X0541496
T04
X0413386Y-0122047
X0493937
X0503937
X0403386
X0082677Y-0053307
Y-0043307
X0141732
Y-0053307
X0204724
Y-0043307
X0403386Y-0058194
X0413386
X0497874Y-0059055
X0507874
T05
X0570866Y-0137795
X0019685
Y-0019685
X0570866
T06
X0334646Y-0122047
M30
