G04*
G04 #@! TF.GenerationSoftware,Altium Limited,Altium Designer,22.3.1 (43)*
G04*
G04 Layer_Color=65535*
%FSLAX25Y25*%
%MOIN*%
G70*
G04*
G04 #@! TF.SameCoordinates,1231F7E6-A72B-4AA4-91AD-26716E8A39C1*
G04*
G04*
G04 #@! TF.FilePolarity,Positive*
G04*
G01*
G75*
%ADD10C,0.01000*%
%ADD11C,0.00500*%
%ADD12C,0.01968*%
%ADD13C,0.01339*%
%ADD14C,0.02126*%
D10*
X93685Y-118110D02*
G03*
X93685Y-118110I-7071J0D01*
G01*
X152740D02*
G03*
X152740Y-118110I-7071J0D01*
G01*
X93685Y-39370D02*
G03*
X93685Y-39370I-7071J0D01*
G01*
X196047D02*
G03*
X196047Y-39370I-7071J0D01*
G01*
X239256Y-119684D02*
G03*
X239256Y-119684I-7071J0D01*
G01*
X298311Y-119684D02*
G03*
X298311Y-119684I-7071J0D01*
G01*
X392898Y-118110D02*
G03*
X392898Y-118110I-7071J0D01*
G01*
X451953D02*
G03*
X451953Y-118110I-7071J0D01*
G01*
X530693Y-118110D02*
G03*
X530693Y-118110I-7071J0D01*
G01*
X392898Y-39370D02*
G03*
X392898Y-39370I-7071J0D01*
G01*
X451953Y-39370D02*
G03*
X451953Y-39370I-7071J0D01*
G01*
X530693Y-39370D02*
G03*
X530693Y-39370I-7071J0D01*
G01*
X589748Y-118110D02*
G03*
X589748Y-118110I-7071J0D01*
G01*
Y-39370D02*
G03*
X589748Y-39370I-7071J0D01*
G01*
X298311Y-40944D02*
G03*
X298311Y-40944I-7071J0D01*
G01*
X374846Y-100459D02*
X378100D01*
X379726D02*
X382980D01*
X384607Y-96392D02*
X385420D01*
Y-97205D01*
X384607D01*
Y-96392D01*
Y-98832D02*
X385420D01*
Y-99645D01*
X384607D01*
Y-98832D01*
X388674Y-100459D02*
X391927D01*
X393554D02*
X396808D01*
X433901Y-21719D02*
X437155D01*
X438781D02*
X442035D01*
X443662Y-17652D02*
X444475D01*
Y-18465D01*
X443662D01*
Y-17652D01*
Y-20092D02*
X444475D01*
Y-20905D01*
X443662D01*
Y-20092D01*
X447729Y-21719D02*
X450982D01*
X452609D02*
X455863D01*
X374846D02*
X378100D01*
X379726D02*
X382980D01*
X384607Y-17652D02*
X385420D01*
Y-18465D01*
X384607D01*
Y-17652D01*
Y-20092D02*
X385420D01*
Y-20905D01*
X384607D01*
Y-20092D01*
X388674Y-21719D02*
X391927D01*
X393554D02*
X396808D01*
X273346Y-97559D02*
Y-102439D01*
X275786D01*
X276600Y-101626D01*
Y-98372D01*
X275786Y-97559D01*
X273346D01*
X280666D02*
X279040D01*
X278226Y-98372D01*
Y-101626D01*
X279040Y-102439D01*
X280666D01*
X281480Y-101626D01*
Y-98372D01*
X280666Y-97559D01*
X283107Y-99186D02*
X283920D01*
Y-99999D01*
X283107D01*
Y-99186D01*
Y-101626D02*
X283920D01*
Y-102439D01*
X283107D01*
Y-101626D01*
X287174Y-97559D02*
Y-102439D01*
X290427D01*
X295307Y-97559D02*
X292054D01*
Y-102439D01*
X295307D01*
X292054Y-99999D02*
X293681D01*
X296934Y-97559D02*
Y-102439D01*
X299374D01*
X300188Y-101626D01*
Y-98372D01*
X299374Y-97559D01*
X296934D01*
X301815Y-99186D02*
X302628D01*
Y-99999D01*
X301815D01*
Y-99186D01*
Y-101626D02*
X302628D01*
Y-102439D01*
X301815D01*
Y-101626D01*
X305881Y-99999D02*
X309135D01*
X307508Y-98372D02*
Y-101626D01*
X214291Y-97559D02*
Y-102439D01*
X216731D01*
X217544Y-101626D01*
Y-98372D01*
X216731Y-97559D01*
X214291D01*
X221611D02*
X219985D01*
X219171Y-98372D01*
Y-101626D01*
X219985Y-102439D01*
X221611D01*
X222425Y-101626D01*
Y-98372D01*
X221611Y-97559D01*
X224051Y-99186D02*
X224865D01*
Y-99999D01*
X224051D01*
Y-99186D01*
Y-101626D02*
X224865D01*
Y-102439D01*
X224051D01*
Y-101626D01*
X228118Y-97559D02*
Y-102439D01*
X231372D01*
X236252Y-97559D02*
X232999D01*
Y-102439D01*
X236252D01*
X232999Y-99999D02*
X234626D01*
X237879Y-97559D02*
Y-102439D01*
X240319D01*
X241133Y-101626D01*
Y-98372D01*
X240319Y-97559D01*
X237879D01*
X242759Y-99186D02*
X243573D01*
Y-99999D01*
X242759D01*
Y-99186D01*
Y-101626D02*
X243573D01*
Y-102439D01*
X242759D01*
Y-101626D01*
X246826Y-99999D02*
X250080D01*
X270906Y-18819D02*
Y-23699D01*
X273346D01*
X274159Y-22886D01*
Y-19632D01*
X273346Y-18819D01*
X270906D01*
X278226D02*
X276600D01*
X275786Y-19632D01*
Y-22886D01*
X276600Y-23699D01*
X278226D01*
X279040Y-22886D01*
Y-19632D01*
X278226Y-18819D01*
X280666Y-20446D02*
X281480D01*
Y-21259D01*
X280666D01*
Y-20446D01*
Y-22886D02*
X281480D01*
Y-23699D01*
X280666D01*
Y-22886D01*
X284733Y-18819D02*
Y-23699D01*
X287987D01*
X292867Y-18819D02*
X289614D01*
Y-23699D01*
X292867D01*
X289614Y-21259D02*
X291241D01*
X294494Y-18819D02*
Y-23699D01*
X296934D01*
X297747Y-22886D01*
Y-19632D01*
X296934Y-18819D01*
X294494D01*
X299374Y-20446D02*
X300188D01*
Y-21259D01*
X299374D01*
Y-20446D01*
Y-22886D02*
X300188D01*
Y-23699D01*
X299374D01*
Y-22886D01*
X306695Y-18819D02*
X303441D01*
Y-23699D01*
X306695D01*
X303441Y-21259D02*
X305068D01*
X308321Y-23699D02*
Y-18819D01*
X311575Y-23699D01*
Y-18819D01*
X571697Y-100459D02*
X574950D01*
X576577D02*
X579830D01*
X581457Y-96392D02*
X582270D01*
Y-97205D01*
X581457D01*
Y-96392D01*
Y-98832D02*
X582270D01*
Y-99645D01*
X581457D01*
Y-98832D01*
X585524Y-100459D02*
X588778D01*
X590404D02*
X593658D01*
X512641D02*
X515895D01*
X517522D02*
X520775D01*
X522402Y-96392D02*
X523215D01*
Y-97205D01*
X522402D01*
Y-96392D01*
Y-98832D02*
X523215D01*
Y-99645D01*
X522402D01*
Y-98832D01*
X526469Y-100459D02*
X529722D01*
X531349D02*
X534603D01*
X571697Y-21719D02*
X574950D01*
X576577D02*
X579830D01*
X581457Y-17652D02*
X582270D01*
Y-18465D01*
X581457D01*
Y-17652D01*
Y-20092D02*
X582270D01*
Y-20905D01*
X581457D01*
Y-20092D01*
X585524Y-21719D02*
X588778D01*
X590404D02*
X593658D01*
X512641D02*
X515895D01*
X517522D02*
X520775D01*
X522402Y-17652D02*
X523215D01*
Y-18465D01*
X522402D01*
Y-17652D01*
Y-20092D02*
X523215D01*
Y-20905D01*
X522402D01*
Y-20092D01*
X526469Y-21719D02*
X529722D01*
X531349D02*
X534603D01*
X433901Y-100459D02*
X437155D01*
X438781D02*
X442035D01*
X443662Y-96392D02*
X444475D01*
Y-97205D01*
X443662D01*
Y-96392D01*
Y-98832D02*
X444475D01*
Y-99645D01*
X443662D01*
Y-98832D01*
X447729Y-100459D02*
X450982D01*
X452609D02*
X455863D01*
X178402Y-22125D02*
Y-18872D01*
X180029Y-17245D01*
X181656Y-18872D01*
Y-22125D01*
Y-19685D01*
X178402D01*
X183283Y-17245D02*
X184909D01*
X184096D01*
Y-22125D01*
X183283D01*
X184909D01*
X187350Y-18872D02*
X188163D01*
Y-19685D01*
X187350D01*
Y-18872D01*
Y-21312D02*
X188163D01*
Y-22125D01*
X187350D01*
Y-21312D01*
X191417Y-22125D02*
Y-17245D01*
X193857D01*
X194670Y-18058D01*
Y-19685D01*
X193857Y-20498D01*
X191417D01*
X196297Y-17245D02*
Y-22125D01*
X198737D01*
X199550Y-21312D01*
Y-18058D01*
X198737Y-17245D01*
X196297D01*
X60309Y-22125D02*
Y-18872D01*
X61936Y-17245D01*
X63563Y-18872D01*
Y-22125D01*
Y-19685D01*
X60309D01*
X65189Y-17245D02*
X66816D01*
X66003D01*
Y-22125D01*
X65189D01*
X66816D01*
X69256Y-18872D02*
X70070D01*
Y-19685D01*
X69256D01*
Y-18872D01*
Y-21312D02*
X70070D01*
Y-22125D01*
X69256D01*
Y-21312D01*
X76577D02*
Y-18058D01*
X75763Y-17245D01*
X74137D01*
X73323Y-18058D01*
Y-21312D01*
X74137Y-22125D01*
X75763D01*
X74950Y-20498D02*
X76577Y-22125D01*
X75763D02*
X76577Y-21312D01*
X78203Y-22125D02*
Y-17245D01*
X80644D01*
X81457Y-18058D01*
Y-19685D01*
X80644Y-20498D01*
X78203D01*
X83084Y-17245D02*
Y-22125D01*
X85524D01*
X86337Y-21312D01*
Y-18058D01*
X85524Y-17245D01*
X83084D01*
X87964Y-18872D02*
X88778D01*
Y-19685D01*
X87964D01*
Y-18872D01*
Y-21312D02*
X88778D01*
Y-22125D01*
X87964D01*
Y-21312D01*
X95285Y-18058D02*
X94471Y-17245D01*
X92844D01*
X92031Y-18058D01*
Y-18872D01*
X92844Y-19685D01*
X94471D01*
X95285Y-20498D01*
Y-21312D01*
X94471Y-22125D01*
X92844D01*
X92031Y-21312D01*
X96911Y-17245D02*
Y-21312D01*
X97725Y-22125D01*
X99352D01*
X100165Y-21312D01*
Y-17245D01*
X101792Y-22125D02*
Y-17245D01*
X103419Y-18872D01*
X105045Y-17245D01*
Y-22125D01*
X128182Y-100865D02*
Y-97612D01*
X129808Y-95985D01*
X131435Y-97612D01*
Y-100865D01*
Y-98425D01*
X128182D01*
X133062Y-95985D02*
X134689D01*
X133875D01*
Y-100865D01*
X133062D01*
X134689D01*
X137129Y-97612D02*
X137942D01*
Y-98425D01*
X137129D01*
Y-97612D01*
Y-100052D02*
X137942D01*
Y-100865D01*
X137129D01*
Y-100052D01*
X144449D02*
Y-96798D01*
X143636Y-95985D01*
X142009D01*
X141196Y-96798D01*
Y-100052D01*
X142009Y-100865D01*
X143636D01*
X142823Y-99239D02*
X144449Y-100865D01*
X143636D02*
X144449Y-100052D01*
X146076Y-100865D02*
Y-95985D01*
X148516D01*
X149329Y-96798D01*
Y-98425D01*
X148516Y-99239D01*
X146076D01*
X150956Y-95985D02*
Y-100865D01*
X153396D01*
X154210Y-100052D01*
Y-96798D01*
X153396Y-95985D01*
X150956D01*
X155837Y-97612D02*
X156650D01*
Y-98425D01*
X155837D01*
Y-97612D01*
Y-100052D02*
X156650D01*
Y-100865D01*
X155837D01*
Y-100052D01*
X159904Y-95985D02*
Y-96798D01*
X161530Y-98425D01*
X163157Y-96798D01*
Y-95985D01*
X161530Y-98425D02*
Y-100865D01*
X69126D02*
Y-97612D01*
X70753Y-95985D01*
X72380Y-97612D01*
Y-100865D01*
Y-98425D01*
X69126D01*
X74007Y-95985D02*
X75634D01*
X74820D01*
Y-100865D01*
X74007D01*
X75634D01*
X78074Y-97612D02*
X78887D01*
Y-98425D01*
X78074D01*
Y-97612D01*
Y-100052D02*
X78887D01*
Y-100865D01*
X78074D01*
Y-100052D01*
X85394D02*
Y-96798D01*
X84581Y-95985D01*
X82954D01*
X82141Y-96798D01*
Y-100052D01*
X82954Y-100865D01*
X84581D01*
X83767Y-99239D02*
X85394Y-100865D01*
X84581D02*
X85394Y-100052D01*
X87021Y-100865D02*
Y-95985D01*
X89461D01*
X90274Y-96798D01*
Y-98425D01*
X89461Y-99239D01*
X87021D01*
X91901Y-95985D02*
Y-100865D01*
X94341D01*
X95155Y-100052D01*
Y-96798D01*
X94341Y-95985D01*
X91901D01*
X96781Y-97612D02*
X97595D01*
Y-98425D01*
X96781D01*
Y-97612D01*
Y-100052D02*
X97595D01*
Y-100865D01*
X96781D01*
Y-100052D01*
X100848Y-95985D02*
X104102Y-100865D01*
Y-95985D02*
X100848Y-100865D01*
D11*
X72864Y-130610D02*
Y-105610D01*
Y-131860D02*
Y-130610D01*
Y-105610D02*
Y-104360D01*
X100364D01*
Y-131860D02*
Y-104360D01*
X72864Y-131860D02*
X100364D01*
X131919Y-130610D02*
Y-105610D01*
Y-131860D02*
Y-130610D01*
Y-105610D02*
Y-104360D01*
X159419D01*
Y-131860D02*
Y-104360D01*
X131919Y-131860D02*
X159419D01*
X72864Y-51870D02*
Y-26870D01*
Y-53120D02*
Y-51870D01*
Y-26870D02*
Y-25620D01*
X100364D01*
Y-53120D02*
Y-25620D01*
X72864Y-53120D02*
X100364D01*
X175226Y-51870D02*
Y-26870D01*
Y-53120D02*
Y-51870D01*
Y-26870D02*
Y-25620D01*
X202726D01*
Y-53120D02*
Y-25620D01*
X175226Y-53120D02*
X202726D01*
X219685Y-133434D02*
X244685D01*
X245935D01*
X218435D02*
X219685D01*
X218435D02*
Y-105934D01*
X245935D01*
Y-133434D02*
Y-105934D01*
X278741Y-133434D02*
X303741D01*
X304991D01*
X277490D02*
X278741D01*
X277490D02*
Y-105934D01*
X304991D01*
Y-133434D02*
Y-105934D01*
X399577Y-131860D02*
Y-104360D01*
X372077D02*
X399577D01*
X372077Y-131860D02*
Y-104360D01*
Y-131860D02*
X373327D01*
X398327D02*
X399577D01*
X373327D02*
X398327D01*
X432382D02*
X457382D01*
X458632D01*
X431132D02*
X432382D01*
X431132D02*
Y-104360D01*
X458632D01*
Y-131860D02*
Y-104360D01*
X511122Y-131860D02*
X536122D01*
X537372D01*
X509872D02*
X511122D01*
X509872D02*
Y-104360D01*
X537372D01*
Y-131860D02*
Y-104360D01*
X373327Y-53120D02*
X398327D01*
X399577D01*
X372077D02*
X373327D01*
X372077D02*
Y-25620D01*
X399577D01*
Y-53120D02*
Y-25620D01*
X458632Y-53120D02*
Y-25620D01*
X431132D02*
X458632D01*
X431132Y-53120D02*
Y-25620D01*
Y-53120D02*
X432382D01*
X457382D02*
X458632D01*
X432382D02*
X457382D01*
X511122Y-53120D02*
X536122D01*
X537372D01*
X509872D02*
X511122D01*
X509872D02*
Y-25620D01*
X537372D01*
Y-53120D02*
Y-25620D01*
X570177Y-131860D02*
X595177D01*
X596427D01*
X568927D02*
X570177D01*
X568927D02*
Y-104360D01*
X596427D01*
Y-131860D02*
Y-104360D01*
X570177Y-53120D02*
X595177D01*
X596427D01*
X568927D02*
X570177D01*
X568927D02*
Y-25620D01*
X596427D01*
Y-53120D02*
Y-25620D01*
X278741Y-54694D02*
X303741D01*
X304991D01*
X277490D02*
X278741D01*
X277490D02*
Y-27194D01*
X304991D01*
Y-54694D02*
Y-27194D01*
D12*
X46811Y-138974D02*
X178684D01*
X192815Y-139333D02*
X324688D01*
X192815D02*
Y-88188D01*
X178684Y-138974D02*
Y-87829D01*
X46811Y-138974D02*
Y-28738D01*
X119655Y-87878D02*
Y-28774D01*
X142238Y-82677D02*
Y-30319D01*
X96007Y-5152D02*
X119629Y-28774D01*
X46811Y-28738D02*
X70433Y-5116D01*
X96007D01*
X192815Y-88188D02*
X251870D01*
X119629Y-87829D02*
X178684D01*
X142992Y-82862D02*
X228346D01*
X251844Y-88237D02*
Y-29133D01*
X228852Y-82677D02*
Y-30319D01*
X205230Y-6697D02*
X228852Y-30319D01*
X142238Y-30319D02*
X166055Y-6503D01*
X251870Y-29133D02*
X275492Y-5511D01*
X166055Y-6503D02*
X204724D01*
X348112Y-138086D02*
X478033D01*
X324688Y-139333D02*
Y-29097D01*
X348112Y-138086D02*
Y-27850D01*
X301066Y-5475D02*
X324688Y-29097D01*
X348112Y-27850D02*
X371734Y-4228D01*
X275492Y-5475D02*
X301066D01*
X478033Y-138086D02*
Y-27850D01*
X488189Y-137795D02*
Y-27559D01*
X454411Y-4228D02*
X478033Y-27850D01*
X488189Y-27559D02*
X511811Y-3937D01*
X371734Y-4228D02*
X454411D01*
X488189Y-137795D02*
X618110D01*
X511811Y-3937D02*
X594488D01*
X618110Y-137795D02*
Y-27559D01*
X594488Y-3937D02*
X618110Y-27559D01*
X0Y-157480D02*
X688976Y-157480D01*
X0Y0D02*
X688976Y0D01*
X0Y-157480D02*
Y0D01*
X688976Y-157480D02*
Y0D01*
D13*
X63017Y-85276D02*
X60394Y-82652D01*
Y-80028D01*
X63017Y-77404D01*
X66953Y-78716D02*
X68265Y-77404D01*
X70889D01*
X72201Y-78716D01*
Y-83964D01*
X70889Y-85276D01*
X68265D01*
X66953Y-83964D01*
Y-78716D01*
X74825Y-81340D02*
X80072D01*
X82696Y-85276D02*
X85320D01*
X84008D01*
Y-77404D01*
X82696Y-78716D01*
X89256D02*
X90568Y-77404D01*
X93191D01*
X94503Y-78716D01*
Y-83964D01*
X93191Y-85276D01*
X90568D01*
X89256Y-83964D01*
Y-78716D01*
X97127Y-77404D02*
Y-82652D01*
X99751Y-85276D01*
X102375Y-82652D01*
Y-77404D01*
X104999Y-85276D02*
X107623Y-82652D01*
Y-80028D01*
X104999Y-77404D01*
X177191Y-73465D02*
X174567Y-70841D01*
Y-68217D01*
X177191Y-65593D01*
X181126Y-66905D02*
X182438Y-65593D01*
X185062D01*
X186374Y-66905D01*
Y-72153D01*
X185062Y-73465D01*
X182438D01*
X181126Y-72153D01*
Y-66905D01*
X188998Y-69529D02*
X194246D01*
X196869Y-73465D02*
X199493D01*
X198181D01*
Y-65593D01*
X196869Y-66905D01*
X203429D02*
X204741Y-65593D01*
X207365D01*
X208677Y-66905D01*
Y-72153D01*
X207365Y-73465D01*
X204741D01*
X203429Y-72153D01*
Y-66905D01*
X211300Y-65593D02*
Y-70841D01*
X213924Y-73465D01*
X216548Y-70841D01*
Y-65593D01*
X219172Y-73465D02*
X221796Y-70841D01*
Y-68217D01*
X219172Y-65593D01*
D14*
X74303Y-71365D02*
Y-66118D01*
X72991Y-64806D01*
X70367D01*
X69055Y-66118D01*
Y-71365D01*
X70367Y-72677D01*
X72991D01*
X71679Y-70053D02*
X74303Y-72677D01*
X72991D02*
X74303Y-71365D01*
X76927Y-72677D02*
Y-64806D01*
X80862D01*
X82174Y-66118D01*
Y-68741D01*
X80862Y-70053D01*
X76927D01*
X84798Y-64806D02*
Y-72677D01*
X88734D01*
X90046Y-71365D01*
Y-66118D01*
X88734Y-64806D01*
X84798D01*
X155669Y-72677D02*
Y-64806D01*
X159605D01*
X160917Y-66118D01*
Y-68741D01*
X159605Y-70053D01*
X155669D01*
X163541Y-64806D02*
Y-72677D01*
X167476D01*
X168788Y-71365D01*
Y-66118D01*
X167476Y-64806D01*
X163541D01*
X372205Y-84488D02*
X377452D01*
X380076D02*
X385324D01*
X387948D02*
X393195D01*
X395819D02*
X401067D01*
X403691D02*
X408938D01*
X411562D02*
X416810D01*
X419434D02*
X424681D01*
X427305D02*
X432553D01*
X435177D02*
X440424D01*
X443048D02*
X448296D01*
X274642Y-74413D02*
Y-82284D01*
X279890D01*
X287761Y-74413D02*
X282514D01*
Y-82284D01*
X287761D01*
X282514Y-78349D02*
X285138D01*
X290385Y-74413D02*
Y-82284D01*
X294321D01*
X295633Y-80973D01*
Y-75725D01*
X294321Y-74413D01*
X290385D01*
X513937Y-84488D02*
X519185D01*
X521808D02*
X527056D01*
X529680D02*
X534928D01*
X537551D02*
X542799D01*
X545423D02*
X550671D01*
X553294D02*
X558542D01*
X561166D02*
X566413D01*
X569037D02*
X574285D01*
X576909D02*
X582157D01*
X584780D02*
X590028D01*
M02*
