G04*
G04 #@! TF.GenerationSoftware,Altium Limited,Altium Designer,22.3.1 (43)*
G04*
G04 Layer_Color=32896*
%FSLAX25Y25*%
%MOIN*%
G70*
G04*
G04 #@! TF.SameCoordinates,1231F7E6-A72B-4AA4-91AD-26716E8A39C1*
G04*
G04*
G04 #@! TF.FilePolarity,Positive*
G04*
G01*
G75*
%ADD10C,0.01000*%
%ADD12C,0.01968*%
%ADD28C,0.00984*%
%ADD29C,0.00787*%
%ADD30C,0.00591*%
D10*
X552271Y-130550D02*
X550644D01*
X551458D01*
Y-126484D01*
X550644Y-125670D01*
X549831D01*
X549018Y-126484D01*
X553898Y-125670D02*
X555525D01*
X554711D01*
Y-130550D01*
X553898Y-129737D01*
X561219Y-130550D02*
X557965D01*
Y-128110D01*
X559592Y-128924D01*
X560405D01*
X561219Y-128110D01*
Y-126484D01*
X560405Y-125670D01*
X558778D01*
X557965Y-126484D01*
X497153Y-130550D02*
X495526D01*
X496340D01*
Y-126484D01*
X495526Y-125670D01*
X494713D01*
X493900Y-126484D01*
X498780Y-125670D02*
X500407D01*
X499593D01*
Y-130550D01*
X498780Y-129737D01*
X505287Y-125670D02*
Y-130550D01*
X502847Y-128110D01*
X506100D01*
X552271Y-51810D02*
X550644D01*
X551458D01*
Y-47743D01*
X550644Y-46930D01*
X549831D01*
X549018Y-47743D01*
X553898Y-46930D02*
X555525D01*
X554711D01*
Y-51810D01*
X553898Y-50997D01*
X557965D02*
X558778Y-51810D01*
X560405D01*
X561219Y-50997D01*
Y-50183D01*
X560405Y-49370D01*
X559592D01*
X560405D01*
X561219Y-48557D01*
Y-47743D01*
X560405Y-46930D01*
X558778D01*
X557965Y-47743D01*
X497153Y-51810D02*
X495526D01*
X496340D01*
Y-47743D01*
X495526Y-46930D01*
X494713D01*
X493900Y-47743D01*
X498780Y-46930D02*
X500407D01*
X499593D01*
Y-51810D01*
X498780Y-50997D01*
X506100Y-46930D02*
X502847D01*
X506100Y-50183D01*
Y-50997D01*
X505287Y-51810D01*
X503660D01*
X502847Y-50997D01*
X415289Y-100865D02*
X413663D01*
X414476D01*
Y-96798D01*
X413663Y-95985D01*
X412849D01*
X412036Y-96798D01*
X416916Y-95985D02*
X418543D01*
X417730D01*
Y-100865D01*
X416916Y-100052D01*
X420983Y-95985D02*
X422610D01*
X421797D01*
Y-100865D01*
X420983Y-100052D01*
X355421Y-132361D02*
X353794D01*
X354608D01*
Y-128295D01*
X353794Y-127481D01*
X352981D01*
X352167Y-128295D01*
X357048Y-127481D02*
X358674D01*
X357861D01*
Y-132361D01*
X357048Y-131548D01*
X361115D02*
X361928Y-132361D01*
X363555D01*
X364368Y-131548D01*
Y-128295D01*
X363555Y-127481D01*
X361928D01*
X361115Y-128295D01*
Y-131548D01*
X416509Y-51810D02*
X414883D01*
X415696D01*
Y-47743D01*
X414883Y-46930D01*
X414069D01*
X413256Y-47743D01*
X418136D02*
X418950Y-46930D01*
X420576D01*
X421390Y-47743D01*
Y-50997D01*
X420576Y-51810D01*
X418950D01*
X418136Y-50997D01*
Y-50183D01*
X418950Y-49370D01*
X421390D01*
X357454Y-51810D02*
X355828D01*
X356641D01*
Y-47743D01*
X355828Y-46930D01*
X355014D01*
X354201Y-47743D01*
X359081Y-50997D02*
X359894Y-51810D01*
X361521D01*
X362335Y-50997D01*
Y-50183D01*
X361521Y-49370D01*
X362335Y-48557D01*
Y-47743D01*
X361521Y-46930D01*
X359894D01*
X359081Y-47743D01*
Y-48557D01*
X359894Y-49370D01*
X359081Y-50183D01*
Y-50997D01*
X359894Y-49370D02*
X361521D01*
X266805Y-132124D02*
X265178D01*
X265992D01*
Y-128057D01*
X265178Y-127244D01*
X264365D01*
X263551Y-128057D01*
X268432Y-132124D02*
X271685D01*
Y-131311D01*
X268432Y-128057D01*
Y-127244D01*
X203813Y-132124D02*
X202186D01*
X202999D01*
Y-128057D01*
X202186Y-127244D01*
X201373D01*
X200559Y-128057D01*
X208693Y-132124D02*
X207066Y-131311D01*
X205440Y-129684D01*
Y-128057D01*
X206253Y-127244D01*
X207880D01*
X208693Y-128057D01*
Y-128871D01*
X207880Y-129684D01*
X205440D01*
X262868Y-53384D02*
X261241D01*
X262055D01*
Y-49317D01*
X261241Y-48504D01*
X260428D01*
X259614Y-49317D01*
X267748Y-53384D02*
X264495D01*
Y-50944D01*
X266122Y-51757D01*
X266935D01*
X267748Y-50944D01*
Y-49317D01*
X266935Y-48504D01*
X265308D01*
X264495Y-49317D01*
X160604Y-51810D02*
X158977D01*
X159791D01*
Y-47743D01*
X158977Y-46930D01*
X158164D01*
X157350Y-47743D01*
X164671Y-46930D02*
Y-51810D01*
X162231Y-49370D01*
X165484D01*
X58242Y-51810D02*
X56615D01*
X57428D01*
Y-47743D01*
X56615Y-46930D01*
X55802D01*
X54988Y-47743D01*
X59869Y-50997D02*
X60682Y-51810D01*
X62309D01*
X63122Y-50997D01*
Y-50183D01*
X62309Y-49370D01*
X61495D01*
X62309D01*
X63122Y-48557D01*
Y-47743D01*
X62309Y-46930D01*
X60682D01*
X59869Y-47743D01*
X117297Y-130550D02*
X115670D01*
X116483D01*
Y-126484D01*
X115670Y-125670D01*
X114857D01*
X114043Y-126484D01*
X122177Y-125670D02*
X118924D01*
X122177Y-128924D01*
Y-129737D01*
X121364Y-130550D01*
X119737D01*
X118924Y-129737D01*
D12*
X96129Y-5361D02*
X119751Y-28983D01*
X70555Y-5325D02*
X96129D01*
X46933Y-28947D02*
X70555Y-5325D01*
X46933Y-139183D02*
Y-28947D01*
X119777Y-88087D02*
Y-28983D01*
X119751Y-88038D02*
X178806D01*
X46933Y-139183D02*
X178806D01*
Y-88038D01*
X251458Y-29556D02*
X275080Y-5934D01*
Y-5898D02*
X300654D01*
X324276Y-29520D01*
Y-139757D02*
Y-29520D01*
X251431Y-88661D02*
Y-29556D01*
X192403Y-88611D02*
X251458D01*
X192403Y-139757D02*
X324276D01*
X192403D02*
Y-88611D01*
X349053Y-137339D02*
X478974D01*
X349053Y-27103D02*
X372675Y-3481D01*
X349053Y-137339D02*
Y-27103D01*
X455352Y-3481D02*
X478974Y-27103D01*
Y-137339D02*
Y-27103D01*
X372675Y-3481D02*
X455352D01*
X407367Y-95329D02*
X407534Y-134665D01*
X462485Y-95329D02*
X462652Y-134665D01*
X407568Y-95563D02*
X461988Y-95331D01*
X407601Y-134899D02*
X462652Y-134665D01*
X511451Y-2627D02*
X594129D01*
X617751Y-136486D02*
Y-26249D01*
X594129Y-2627D02*
X617751Y-26249D01*
X487829Y-136486D02*
Y-26249D01*
X511451Y-2627D01*
X487829Y-136486D02*
X617751D01*
X485590Y-96459D02*
X540010Y-96227D01*
X485623Y-135795D02*
X540674Y-135561D01*
X540506Y-96225D02*
X540674Y-135561D01*
X485388Y-96225D02*
X485556Y-135561D01*
X541696Y-135808D02*
X599729Y-135561D01*
X599562Y-96225D02*
X599729Y-135561D01*
X541528Y-96472D02*
X599065Y-96227D01*
X541528Y-96472D02*
X541696Y-135808D01*
X544678Y-57055D02*
X599729Y-56820D01*
X485623Y-57055D02*
X540674Y-56820D01*
X544645Y-17719D02*
X599065Y-17487D01*
X485590Y-17719D02*
X540010Y-17487D01*
X540506Y-17485D02*
X540674Y-56820D01*
X544443Y-17485D02*
X544611Y-56820D01*
X599562Y-17485D02*
X599729Y-56820D01*
X485388Y-17485D02*
X485556Y-56820D01*
X347828Y-57055D02*
X402879Y-56820D01*
X347794Y-17719D02*
X402215Y-17487D01*
X402711Y-17485D02*
X402879Y-56820D01*
X347293Y-17285D02*
X347461Y-56620D01*
X259078Y-99787D02*
X305687D01*
X252013Y-106852D02*
X259078Y-99787D01*
X252013Y-137377D02*
Y-106852D01*
Y-137377D02*
X305847Y-137147D01*
X305687Y-99787D02*
X305847Y-137147D01*
X259950Y-21053D02*
X308117D01*
X252030Y-28974D02*
X259950Y-21053D01*
X252030Y-62571D02*
Y-28974D01*
Y-62571D02*
X308292Y-62331D01*
X308117Y-21053D02*
X308292Y-62331D01*
X194186Y-137369D02*
X249237Y-137135D01*
X194153Y-98033D02*
X248573Y-97801D01*
X249070Y-97799D02*
X249237Y-137135D01*
X193952Y-97799D02*
X194119Y-137135D01*
X150977Y-57055D02*
X206028Y-56820D01*
X150944Y-17719D02*
X205364Y-17487D01*
X205861Y-17485D02*
X206028Y-56820D01*
X150743Y-17485D02*
X150910Y-56820D01*
X48615Y-57055D02*
X103666Y-56820D01*
X48582Y-17719D02*
X103002Y-17487D01*
X103498Y-17485D02*
X103666Y-56820D01*
X48380Y-17485D02*
X48548Y-56820D01*
X47751Y-134047D02*
Y-106422D01*
X59460Y-94713D01*
X102205D01*
X47818Y-134282D02*
X102869Y-134047D01*
X102702Y-94711D02*
X102869Y-134047D01*
X106796Y-94486D02*
X106963Y-133822D01*
X161914Y-94486D02*
X162081Y-133822D01*
X106997Y-94720D02*
X161417Y-94488D01*
X107030Y-134056D02*
X162081Y-133822D01*
X347828Y-135795D02*
X402879Y-135561D01*
X347794Y-96459D02*
X402215Y-96227D01*
X402711Y-96225D02*
X402879Y-135561D01*
X347293Y-96025D02*
X347461Y-135361D01*
X406883Y-57055D02*
X461934Y-56820D01*
X406849Y-17719D02*
X461270Y-17487D01*
X461766Y-17485D02*
X461934Y-56820D01*
X406648Y-17485D02*
X406816Y-56820D01*
X0Y-157480D02*
X688976Y-157480D01*
X0Y0D02*
X688976Y0D01*
X0Y-157480D02*
Y0D01*
X688976Y-157480D02*
Y0D01*
D28*
X71358Y-118110D02*
G03*
X71358Y-118110I-492J0D01*
G01*
X130413D02*
G03*
X130413Y-118110I-492J0D01*
G01*
X71358Y-39370D02*
G03*
X71358Y-39370I-492J0D01*
G01*
X173721D02*
G03*
X173721Y-39370I-492J0D01*
G01*
X216929Y-119684D02*
G03*
X216929Y-119684I-492J0D01*
G01*
X275985Y-119684D02*
G03*
X275985Y-119684I-492J0D01*
G01*
X370571Y-118110D02*
G03*
X370571Y-118110I-492J0D01*
G01*
X370571Y-39370D02*
G03*
X370571Y-39370I-492J0D01*
G01*
X275985Y-40944D02*
G03*
X275985Y-40944I-492J0D01*
G01*
X508366Y-118110D02*
G03*
X508366Y-118110I-492J0D01*
G01*
X429626Y-118110D02*
G03*
X429626Y-118110I-492J0D01*
G01*
X508366Y-39370D02*
G03*
X508366Y-39370I-492J0D01*
G01*
X429626Y-39370D02*
G03*
X429626Y-39370I-492J0D01*
G01*
X563484Y-118110D02*
G03*
X563484Y-118110I-492J0D01*
G01*
X567421Y-39370D02*
G03*
X567421Y-39370I-492J0D01*
G01*
D29*
X49016Y-118189D02*
X54331Y-123504D01*
X69095D02*
Y-102717D01*
X49016D02*
X69095D01*
X49016Y-118189D02*
Y-102717D01*
X54331Y-123504D02*
X69095D01*
X113386D02*
X128150D01*
X108071Y-118189D02*
Y-102717D01*
X128150D01*
Y-123504D02*
Y-102717D01*
X108071Y-118189D02*
X113386Y-123504D01*
X54331Y-44764D02*
X69095D01*
X49016Y-39449D02*
Y-23976D01*
X69095D01*
Y-44764D02*
Y-23976D01*
X49016Y-39449D02*
X54331Y-44764D01*
X156693D02*
X171457D01*
X151378Y-39449D02*
Y-23976D01*
X171457D01*
Y-44764D02*
Y-23976D01*
X151378Y-39449D02*
X156693Y-44764D01*
X199902Y-125078D02*
X214666D01*
X194587Y-119763D02*
Y-104290D01*
X214666D01*
Y-125078D02*
Y-104290D01*
X194587Y-119763D02*
X199902Y-125078D01*
X258957Y-125078D02*
X273721D01*
X253642Y-119763D02*
Y-104290D01*
X273721D01*
Y-125078D02*
Y-104290D01*
X253642Y-119763D02*
X258957Y-125078D01*
X348228Y-118189D02*
X353543Y-123504D01*
X368307D02*
Y-102717D01*
X348228D02*
X368307D01*
X348228Y-118189D02*
Y-102717D01*
X353543Y-123504D02*
X368307D01*
X353543Y-44764D02*
X368307D01*
X348228Y-39449D02*
Y-23976D01*
X368307D01*
Y-44764D02*
Y-23976D01*
X348228Y-39449D02*
X353543Y-44764D01*
X258957Y-46338D02*
X273721D01*
X253642Y-41023D02*
Y-25550D01*
X273721D01*
Y-46338D02*
Y-25550D01*
X253642Y-41023D02*
X258957Y-46338D01*
X491339Y-123504D02*
X506102D01*
X486024Y-118189D02*
Y-102717D01*
X506102D01*
Y-123504D02*
Y-102717D01*
X486024Y-118189D02*
X491339Y-123504D01*
X412598Y-123504D02*
X427362D01*
X407283Y-118189D02*
Y-102717D01*
X427362D01*
Y-123504D02*
Y-102717D01*
X407283Y-118189D02*
X412598Y-123504D01*
X491339Y-44764D02*
X506102D01*
X486024Y-39449D02*
Y-23976D01*
X506102D01*
Y-44764D02*
Y-23976D01*
X486024Y-39449D02*
X491339Y-44764D01*
X407283Y-39449D02*
X412598Y-44764D01*
X427362D02*
Y-23976D01*
X407283D02*
X427362D01*
X407283Y-39449D02*
Y-23976D01*
X412598Y-44764D02*
X427362D01*
X546457Y-123504D02*
X561221D01*
X541142Y-118189D02*
Y-102717D01*
X561221D01*
Y-123504D02*
Y-102717D01*
X541142Y-118189D02*
X546457Y-123504D01*
X550394Y-44764D02*
X565158D01*
X545079Y-39449D02*
Y-23976D01*
X565158D01*
Y-44764D02*
Y-23976D01*
X545079Y-39449D02*
X550394Y-44764D01*
D30*
X59055Y-130550D02*
X57428D01*
X58242D01*
Y-126484D01*
X57428Y-125670D01*
X56615D01*
X55801Y-126484D01*
X60682Y-125670D02*
X62309D01*
X61495D01*
Y-130550D01*
X60682Y-129737D01*
M02*
