G04 Layer_Color=65535*
%FSLAX25Y25*%
%MOIN*%
G70*
G01*
G75*
%ADD31C,0.01000*%
%ADD32C,0.00591*%
%ADD38C,0.00984*%
%ADD39C,0.01575*%
%ADD40C,0.01968*%
%ADD41C,0.00787*%
%ADD42C,0.01181*%
%ADD43R,0.02165X0.10039*%
D31*
X141732Y-598000D02*
Y0D01*
X0D02*
X141732D01*
X0Y-598000D02*
X141732D01*
X0D02*
Y0D01*
D32*
X104500Y-31204D02*
X104959Y-30745D01*
X105877D01*
X106337Y-31204D01*
Y-31663D01*
X105877Y-32122D01*
X105418D01*
X105877D01*
X106337Y-32582D01*
Y-33041D01*
X105877Y-33500D01*
X104959D01*
X104500Y-33041D01*
X107255Y-30745D02*
Y-32582D01*
X108173Y-33500D01*
X109092Y-32582D01*
Y-30745D01*
X123378Y-33000D02*
Y-30245D01*
X122000Y-31622D01*
X123837D01*
X124755Y-30245D02*
Y-32082D01*
X125673Y-33000D01*
X126592Y-32082D01*
Y-30245D01*
X131500Y-60000D02*
Y-57245D01*
X132878D01*
X133337Y-57704D01*
Y-58622D01*
X132878Y-59082D01*
X131500D01*
X132418D02*
X133337Y-60000D01*
X134255Y-59541D02*
X134714Y-60000D01*
X135633D01*
X136092Y-59541D01*
Y-57704D01*
X135633Y-57245D01*
X134714D01*
X134255Y-57704D01*
Y-58163D01*
X134714Y-58622D01*
X136092D01*
X101000Y-59874D02*
Y-57119D01*
X102377D01*
X102837Y-57578D01*
Y-58496D01*
X102377Y-58956D01*
X101000D01*
X101918D02*
X102837Y-59874D01*
X103755D02*
X104673D01*
X104214D01*
Y-57119D01*
X103755Y-57578D01*
X106051Y-59874D02*
X106969D01*
X106510D01*
Y-57119D01*
X106051Y-57578D01*
X111000Y-60500D02*
Y-57745D01*
X112378D01*
X112837Y-58204D01*
Y-59123D01*
X112378Y-59582D01*
X111000D01*
X111918D02*
X112837Y-60500D01*
X113755D02*
X114673D01*
X114214D01*
Y-57745D01*
X113755Y-58204D01*
X117888Y-60500D02*
X116051D01*
X117888Y-58663D01*
Y-58204D01*
X117428Y-57745D01*
X116510D01*
X116051Y-58204D01*
X67000Y-62374D02*
Y-59619D01*
X68378D01*
X68837Y-60078D01*
Y-60997D01*
X68378Y-61456D01*
X67000D01*
X67918D02*
X68837Y-62374D01*
X69755D02*
X70673D01*
X70214D01*
Y-59619D01*
X69755Y-60078D01*
X73428Y-62374D02*
Y-59619D01*
X72051Y-60997D01*
X73887D01*
X78500Y-62000D02*
Y-59245D01*
X79878D01*
X80337Y-59704D01*
Y-60623D01*
X79878Y-61082D01*
X78500D01*
X79418D02*
X80337Y-62000D01*
X81255D02*
X82173D01*
X81714D01*
Y-59245D01*
X81255Y-59704D01*
X83551D02*
X84010Y-59245D01*
X84928D01*
X85387Y-59704D01*
Y-60163D01*
X84928Y-60623D01*
X84469D01*
X84928D01*
X85387Y-61082D01*
Y-61541D01*
X84928Y-62000D01*
X84010D01*
X83551Y-61541D01*
X71525Y-23401D02*
X72574D01*
X73099Y-23926D01*
Y-25500D01*
X71525D01*
X71000Y-24975D01*
X71525Y-24451D01*
X73099D01*
X76248Y-22351D02*
Y-25500D01*
X74673D01*
X74149Y-24975D01*
Y-23926D01*
X74673Y-23401D01*
X76248D01*
X77297Y-26550D02*
X77822D01*
X78347Y-26025D01*
Y-23401D01*
X80446D02*
Y-24975D01*
X80971Y-25500D01*
X82545D01*
Y-23401D01*
X83594Y-25500D02*
X85169D01*
X85693Y-24975D01*
X85169Y-24451D01*
X84119D01*
X83594Y-23926D01*
X84119Y-23401D01*
X85693D01*
X87268Y-22876D02*
Y-23401D01*
X86743D01*
X87792D01*
X87268D01*
Y-24975D01*
X87792Y-25500D01*
X89891Y-23401D02*
X90941D01*
X91466Y-23926D01*
Y-25500D01*
X89891D01*
X89367Y-24975D01*
X89891Y-24451D01*
X91466D01*
X92515Y-22351D02*
Y-25500D01*
X94090D01*
X94614Y-24975D01*
Y-24451D01*
Y-23926D01*
X94090Y-23401D01*
X92515D01*
X95664Y-25500D02*
X96714D01*
X96189D01*
Y-22351D01*
X95664D01*
X99862Y-25500D02*
X98813D01*
X98288Y-24975D01*
Y-23926D01*
X98813Y-23401D01*
X99862D01*
X100387Y-23926D01*
Y-24451D01*
X98288D01*
X104585Y-22351D02*
Y-24451D01*
X105634Y-25500D01*
X106684Y-24451D01*
Y-22351D01*
X108258Y-25500D02*
X109308D01*
X109833Y-24975D01*
Y-23926D01*
X109308Y-23401D01*
X108258D01*
X107734Y-23926D01*
Y-24975D01*
X108258Y-25500D01*
X110882D02*
X111932D01*
X111407D01*
Y-22351D01*
X110882D01*
X114031Y-22876D02*
Y-23401D01*
X113506D01*
X114556D01*
X114031D01*
Y-24975D01*
X114556Y-25500D01*
X116655Y-23401D02*
X117704D01*
X118229Y-23926D01*
Y-25500D01*
X116655D01*
X116130Y-24975D01*
X116655Y-24451D01*
X118229D01*
X120328Y-26550D02*
X120853D01*
X121378Y-26025D01*
Y-23401D01*
X119803D01*
X119278Y-23926D01*
Y-24975D01*
X119803Y-25500D01*
X121378D01*
X124001D02*
X122952D01*
X122427Y-24975D01*
Y-23926D01*
X122952Y-23401D01*
X124001D01*
X124526Y-23926D01*
Y-24451D01*
X122427D01*
X52500Y-28975D02*
X53025Y-29500D01*
X54074D01*
X54599Y-28975D01*
Y-26876D01*
X54074Y-26351D01*
X53025D01*
X52500Y-26876D01*
Y-27401D01*
X53025Y-27926D01*
X54599D01*
X55649Y-26351D02*
Y-28451D01*
X56698Y-29500D01*
X57748Y-28451D01*
Y-26351D01*
X34099Y-29376D02*
X33574Y-28851D01*
X32525D01*
X32000Y-29376D01*
Y-29901D01*
X32525Y-30426D01*
X33574D01*
X34099Y-30950D01*
Y-31475D01*
X33574Y-32000D01*
X32525D01*
X32000Y-31475D01*
X35149Y-29901D02*
Y-31475D01*
X35673Y-32000D01*
X37248D01*
Y-29901D01*
X38297Y-33049D02*
Y-29901D01*
X39871D01*
X40396Y-30426D01*
Y-31475D01*
X39871Y-32000D01*
X38297D01*
X41446Y-33049D02*
Y-29901D01*
X43020D01*
X43545Y-30426D01*
Y-31475D01*
X43020Y-32000D01*
X41446D01*
X44594D02*
X45644D01*
X45119D01*
Y-28851D01*
X44594D01*
X47218Y-29901D02*
Y-31475D01*
X47743Y-32000D01*
X49317D01*
Y-32525D01*
X48792Y-33049D01*
X48268D01*
X49317Y-32000D02*
Y-29901D01*
X90837Y-33500D02*
X89000D01*
X90837Y-31663D01*
Y-31204D01*
X90377Y-30745D01*
X89459D01*
X89000Y-31204D01*
X91755Y-30745D02*
Y-32582D01*
X92673Y-33500D01*
X93592Y-32582D01*
Y-30745D01*
X70000Y-33000D02*
X70918D01*
X70459D01*
Y-30245D01*
X70000Y-30704D01*
X72296Y-33000D02*
Y-32541D01*
X72755D01*
Y-33000D01*
X72296D01*
X76428D02*
X74592D01*
X76428Y-31163D01*
Y-30704D01*
X75969Y-30245D01*
X75051D01*
X74592Y-30704D01*
X79183Y-30245D02*
X77347D01*
Y-31622D01*
X78265Y-31163D01*
X78724D01*
X79183Y-31622D01*
Y-32541D01*
X78724Y-33000D01*
X77806D01*
X77347Y-32541D01*
X80102Y-30245D02*
Y-32082D01*
X81020Y-33000D01*
X81938Y-32082D01*
Y-30245D01*
X64500Y-553245D02*
Y-555541D01*
X64959Y-556000D01*
X65877D01*
X66337Y-555541D01*
Y-553245D01*
X67255Y-556000D02*
X68173D01*
X67714D01*
Y-553245D01*
X67255Y-553704D01*
X69551Y-556459D02*
X71387D01*
X74143Y-553245D02*
X72306D01*
Y-556000D01*
X74143D01*
X72306Y-554623D02*
X73224D01*
X86000Y-557000D02*
Y-554245D01*
X87378D01*
X87837Y-554704D01*
Y-555622D01*
X87378Y-556082D01*
X86000D01*
X86918D02*
X87837Y-557000D01*
X90592D02*
X88755D01*
X90592Y-555163D01*
Y-554704D01*
X90132Y-554245D01*
X89214D01*
X88755Y-554704D01*
X91510Y-557459D02*
X93347D01*
X96102Y-554245D02*
X94265D01*
Y-557000D01*
X96102D01*
X94265Y-555622D02*
X95183D01*
X30500Y-557000D02*
Y-554245D01*
X31877D01*
X32337Y-554704D01*
Y-555622D01*
X31877Y-556082D01*
X30500D01*
X31418D02*
X32337Y-557000D01*
X33255D02*
X34173D01*
X33714D01*
Y-554245D01*
X33255Y-554704D01*
X35551Y-557459D02*
X37387D01*
X40143Y-554245D02*
X38306D01*
Y-557000D01*
X40143D01*
X38306Y-555622D02*
X39224D01*
X132837Y-547245D02*
X131918D01*
X132378D01*
Y-549541D01*
X131918Y-550000D01*
X131459D01*
X131000Y-549541D01*
X133755Y-550459D02*
X135592D01*
X138347Y-547245D02*
X136510D01*
Y-550000D01*
X138347D01*
X136510Y-548623D02*
X137428D01*
X141102Y-550000D02*
X139265D01*
X141102Y-548163D01*
Y-547704D01*
X140643Y-547245D01*
X139724D01*
X139265Y-547704D01*
X4337Y-547458D02*
X3418D01*
X3878D01*
Y-549753D01*
X3418Y-550213D01*
X2959D01*
X2500Y-549753D01*
X5255Y-550672D02*
X7092D01*
X9847Y-547458D02*
X8010D01*
Y-550213D01*
X9847D01*
X8010Y-548835D02*
X8928D01*
X10765Y-550213D02*
X11683D01*
X11224D01*
Y-547458D01*
X10765Y-547917D01*
X35000Y-419500D02*
Y-416745D01*
X36378D01*
X36837Y-417204D01*
Y-418122D01*
X36378Y-418582D01*
X35000D01*
X35918D02*
X36837Y-419500D01*
X37755D02*
X38673D01*
X38214D01*
Y-416745D01*
X37755Y-417204D01*
X40051Y-419959D02*
X41888D01*
X44643Y-417204D02*
X44183Y-416745D01*
X43265D01*
X42806Y-417204D01*
Y-419041D01*
X43265Y-419500D01*
X44183D01*
X44643Y-419041D01*
X37500Y-486500D02*
Y-483745D01*
X38877D01*
X39337Y-484204D01*
Y-485122D01*
X38877Y-485582D01*
X37500D01*
X38418D02*
X39337Y-486500D01*
X40255D02*
X41173D01*
X40714D01*
Y-483745D01*
X40255Y-484204D01*
X42551Y-486959D02*
X44388D01*
X45306Y-483745D02*
Y-486500D01*
X46683D01*
X47143Y-486041D01*
Y-484204D01*
X46683Y-483745D01*
X45306D01*
X87000Y-430000D02*
Y-427245D01*
X88377D01*
X88837Y-427704D01*
Y-428622D01*
X88377Y-429082D01*
X87000D01*
X87918D02*
X88837Y-430000D01*
X91592D02*
X89755D01*
X91592Y-428163D01*
Y-427704D01*
X91132Y-427245D01*
X90214D01*
X89755Y-427704D01*
X92510Y-430459D02*
X94347D01*
X97102Y-427704D02*
X96643Y-427245D01*
X95724D01*
X95265Y-427704D01*
Y-429541D01*
X95724Y-430000D01*
X96643D01*
X97102Y-429541D01*
X88500Y-487000D02*
Y-484245D01*
X89877D01*
X90337Y-484704D01*
Y-485623D01*
X89877Y-486082D01*
X88500D01*
X89418D02*
X90337Y-487000D01*
X93092D02*
X91255D01*
X93092Y-485163D01*
Y-484704D01*
X92633Y-484245D01*
X91714D01*
X91255Y-484704D01*
X94010Y-487459D02*
X95847D01*
X96765Y-484245D02*
Y-487000D01*
X98143D01*
X98602Y-486541D01*
Y-484704D01*
X98143Y-484245D01*
X96765D01*
X68500Y-416245D02*
Y-418541D01*
X68959Y-419000D01*
X69877D01*
X70337Y-418541D01*
Y-416245D01*
X71255Y-419000D02*
X72173D01*
X71714D01*
Y-416245D01*
X71255Y-416704D01*
X73551Y-419459D02*
X75388D01*
X78143Y-416704D02*
X77683Y-416245D01*
X76765D01*
X76306Y-416704D01*
Y-418541D01*
X76765Y-419000D01*
X77683D01*
X78143Y-418541D01*
X132837Y-478245D02*
X131918D01*
X132378D01*
Y-480541D01*
X131918Y-481000D01*
X131459D01*
X131000Y-480541D01*
X133755Y-481459D02*
X135592D01*
X136510Y-478245D02*
Y-481000D01*
X137888D01*
X138347Y-480541D01*
Y-478704D01*
X137888Y-478245D01*
X136510D01*
X141102Y-481000D02*
X139265D01*
X141102Y-479163D01*
Y-478704D01*
X140643Y-478245D01*
X139724D01*
X139265Y-478704D01*
X63337Y-261204D02*
X62878Y-260745D01*
X61959D01*
X61500Y-261204D01*
Y-263041D01*
X61959Y-263500D01*
X62878D01*
X63337Y-263041D01*
X64255Y-263500D02*
X65173D01*
X64714D01*
Y-260745D01*
X64255Y-261204D01*
X66551Y-263959D02*
X68388D01*
X69306Y-263500D02*
Y-261663D01*
X70224Y-260745D01*
X71143Y-261663D01*
Y-263500D01*
Y-262123D01*
X69306D01*
X70204Y-249100D02*
X69745Y-249559D01*
Y-250478D01*
X70204Y-250937D01*
X72041D01*
X72500Y-250478D01*
Y-249559D01*
X72041Y-249100D01*
X72500Y-246345D02*
Y-248182D01*
X70663Y-246345D01*
X70204D01*
X69745Y-246804D01*
Y-247723D01*
X70204Y-248182D01*
X72959Y-245427D02*
Y-243590D01*
X72500Y-242672D02*
X70663D01*
X69745Y-241754D01*
X70663Y-240835D01*
X72500D01*
X71122D01*
Y-242672D01*
X30837Y-68704D02*
X30378Y-68245D01*
X29459D01*
X29000Y-68704D01*
Y-70541D01*
X29459Y-71000D01*
X30378D01*
X30837Y-70541D01*
X31755Y-71000D02*
X32673D01*
X32214D01*
Y-68245D01*
X31755Y-68704D01*
X34051D02*
X34510Y-68245D01*
X35428D01*
X35888Y-68704D01*
Y-70541D01*
X35428Y-71000D01*
X34510D01*
X34051Y-70541D01*
Y-68704D01*
X36806D02*
X37265Y-68245D01*
X38183D01*
X38643Y-68704D01*
Y-70541D01*
X38183Y-71000D01*
X37265D01*
X36806Y-70541D01*
Y-68704D01*
X123704Y-150163D02*
X123245Y-150622D01*
Y-151541D01*
X123704Y-152000D01*
X125541D01*
X126000Y-151541D01*
Y-150622D01*
X125541Y-150163D01*
X126000Y-149245D02*
Y-148327D01*
Y-148786D01*
X123245D01*
X123704Y-149245D01*
Y-146949D02*
X123245Y-146490D01*
Y-145572D01*
X123704Y-145112D01*
X125541D01*
X126000Y-145572D01*
Y-146490D01*
X125541Y-146949D01*
X123704D01*
X126000Y-144194D02*
Y-143276D01*
Y-143735D01*
X123245D01*
X123704Y-144194D01*
X114704Y-85073D02*
X114245Y-85532D01*
Y-86450D01*
X114704Y-86910D01*
X116541D01*
X117000Y-86450D01*
Y-85532D01*
X116541Y-85073D01*
X117000Y-84154D02*
Y-83236D01*
Y-83695D01*
X114245D01*
X114704Y-84154D01*
Y-81859D02*
X114245Y-81399D01*
Y-80481D01*
X114704Y-80022D01*
X116541D01*
X117000Y-80481D01*
Y-81399D01*
X116541Y-81859D01*
X114704D01*
X117000Y-77267D02*
Y-79104D01*
X115163Y-77267D01*
X114704D01*
X114245Y-77726D01*
Y-78644D01*
X114704Y-79104D01*
X82337Y-147704D02*
X81877Y-147245D01*
X80959D01*
X80500Y-147704D01*
Y-149541D01*
X80959Y-150000D01*
X81877D01*
X82337Y-149541D01*
X83255Y-150000D02*
X84173D01*
X83714D01*
Y-147245D01*
X83255Y-147704D01*
X85551D02*
X86010Y-147245D01*
X86928D01*
X87388Y-147704D01*
Y-149541D01*
X86928Y-150000D01*
X86010D01*
X85551Y-149541D01*
Y-147704D01*
X88306D02*
X88765Y-147245D01*
X89683D01*
X90143Y-147704D01*
Y-148163D01*
X89683Y-148623D01*
X89224D01*
X89683D01*
X90143Y-149082D01*
Y-149541D01*
X89683Y-150000D01*
X88765D01*
X88306Y-149541D01*
X3337Y-141204D02*
X2877Y-140745D01*
X1959D01*
X1500Y-141204D01*
Y-143041D01*
X1959Y-143500D01*
X2877D01*
X3337Y-143041D01*
X4255Y-143500D02*
X5173D01*
X4714D01*
Y-140745D01*
X4255Y-141204D01*
X6551D02*
X7010Y-140745D01*
X7928D01*
X8388Y-141204D01*
Y-143041D01*
X7928Y-143500D01*
X7010D01*
X6551Y-143041D01*
Y-141204D01*
X10683Y-143500D02*
Y-140745D01*
X9306Y-142122D01*
X11143D01*
X69204Y-135663D02*
X68745Y-136123D01*
Y-137041D01*
X69204Y-137500D01*
X71041D01*
X71500Y-137041D01*
Y-136123D01*
X71041Y-135663D01*
X71500Y-134745D02*
Y-133827D01*
Y-134286D01*
X68745D01*
X69204Y-134745D01*
Y-132449D02*
X68745Y-131990D01*
Y-131072D01*
X69204Y-130612D01*
X71041D01*
X71500Y-131072D01*
Y-131990D01*
X71041Y-132449D01*
X69204D01*
X68745Y-127857D02*
Y-129694D01*
X70122D01*
X69663Y-128776D01*
Y-128317D01*
X70122Y-127857D01*
X71041D01*
X71500Y-128317D01*
Y-129235D01*
X71041Y-129694D01*
X82500Y-127745D02*
Y-130500D01*
X83877D01*
X84337Y-130041D01*
Y-128204D01*
X83877Y-127745D01*
X82500D01*
X85255Y-130500D02*
X86173D01*
X85714D01*
Y-127745D01*
X85255Y-128204D01*
X103500Y-114745D02*
Y-117500D01*
X104877D01*
X105337Y-117041D01*
Y-115204D01*
X104877Y-114745D01*
X103500D01*
X108092Y-117500D02*
X106255D01*
X108092Y-115663D01*
Y-115204D01*
X107633Y-114745D01*
X106714D01*
X106255Y-115204D01*
X12837Y-25745D02*
X11918D01*
X12377D01*
Y-28041D01*
X11918Y-28500D01*
X11459D01*
X11000Y-28041D01*
X13755Y-28500D02*
X14673D01*
X14214D01*
Y-25745D01*
X13755Y-26204D01*
X16051D02*
X16510Y-25745D01*
X17428D01*
X17887Y-26204D01*
Y-28041D01*
X17428Y-28500D01*
X16510D01*
X16051Y-28041D01*
Y-26204D01*
X18806D02*
X19265Y-25745D01*
X20183D01*
X20643Y-26204D01*
Y-28041D01*
X20183Y-28500D01*
X19265D01*
X18806Y-28041D01*
Y-26204D01*
X5837Y-244245D02*
X4918D01*
X5378D01*
Y-246541D01*
X4918Y-247000D01*
X4459D01*
X4000Y-246541D01*
X6755Y-247459D02*
X8592D01*
X9510Y-247000D02*
Y-245163D01*
X10428Y-244245D01*
X11347Y-245163D01*
Y-247000D01*
Y-245622D01*
X9510D01*
X12265Y-247000D02*
X13183D01*
X12724D01*
Y-244245D01*
X12265Y-244704D01*
X132837Y-244245D02*
X131918D01*
X132378D01*
Y-246541D01*
X131918Y-247000D01*
X131459D01*
X131000Y-246541D01*
X133755Y-247459D02*
X135592D01*
X136510Y-247000D02*
Y-245163D01*
X137428Y-244245D01*
X138347Y-245163D01*
Y-247000D01*
Y-245622D01*
X136510D01*
X141102Y-247000D02*
X139265D01*
X141102Y-245163D01*
Y-244704D01*
X140643Y-244245D01*
X139724D01*
X139265Y-244704D01*
X14000Y-198500D02*
Y-195745D01*
X15378D01*
X15837Y-196204D01*
Y-197123D01*
X15378Y-197582D01*
X14000D01*
X14918D02*
X15837Y-198500D01*
X16755D02*
X17673D01*
X17214D01*
Y-195745D01*
X16755Y-196204D01*
X19051Y-198959D02*
X20888D01*
X21806Y-198500D02*
Y-196663D01*
X22724Y-195745D01*
X23643Y-196663D01*
Y-198500D01*
Y-197123D01*
X21806D01*
X124500Y-244500D02*
X121745D01*
Y-243123D01*
X122204Y-242663D01*
X123123D01*
X123582Y-243123D01*
Y-244500D01*
Y-243582D02*
X124500Y-242663D01*
Y-239908D02*
Y-241745D01*
X122663Y-239908D01*
X122204D01*
X121745Y-240368D01*
Y-241286D01*
X122204Y-241745D01*
X124959Y-238990D02*
Y-237153D01*
X124500Y-236235D02*
X122663D01*
X121745Y-235317D01*
X122663Y-234398D01*
X124500D01*
X123123D01*
Y-236235D01*
X16500Y-234000D02*
Y-231245D01*
X17877D01*
X18337Y-231704D01*
Y-232623D01*
X17877Y-233082D01*
X16500D01*
X17418D02*
X18337Y-234000D01*
X19255Y-231704D02*
X19714Y-231245D01*
X20632D01*
X21092Y-231704D01*
Y-232163D01*
X20632Y-232623D01*
X20173D01*
X20632D01*
X21092Y-233082D01*
Y-233541D01*
X20632Y-234000D01*
X19714D01*
X19255Y-233541D01*
X22010Y-234459D02*
X23847D01*
X24765Y-234000D02*
Y-232163D01*
X25683Y-231245D01*
X26602Y-232163D01*
Y-234000D01*
Y-232623D01*
X24765D01*
X42000Y-230500D02*
Y-227745D01*
X43378D01*
X43837Y-228204D01*
Y-229122D01*
X43378Y-229582D01*
X42000D01*
X42918D02*
X43837Y-230500D01*
X46132D02*
Y-227745D01*
X44755Y-229122D01*
X46592D01*
X47510Y-230959D02*
X49347D01*
X50265Y-230500D02*
Y-228663D01*
X51183Y-227745D01*
X52102Y-228663D01*
Y-230500D01*
Y-229122D01*
X50265D01*
X107000Y-247000D02*
X104245D01*
Y-245622D01*
X104704Y-245163D01*
X105622D01*
X106082Y-245622D01*
Y-247000D01*
Y-246082D02*
X107000Y-245163D01*
X104245Y-242408D02*
Y-244245D01*
X105622D01*
X105163Y-243327D01*
Y-242867D01*
X105622Y-242408D01*
X106541D01*
X107000Y-242867D01*
Y-243786D01*
X106541Y-244245D01*
X107459Y-241490D02*
Y-239653D01*
X107000Y-238735D02*
X105163D01*
X104245Y-237817D01*
X105163Y-236898D01*
X107000D01*
X105622D01*
Y-238735D01*
X84000Y-262000D02*
Y-259245D01*
X85378D01*
X85837Y-259704D01*
Y-260623D01*
X85378Y-261082D01*
X84000D01*
X84918D02*
X85837Y-262000D01*
X88592Y-259245D02*
X87673Y-259704D01*
X86755Y-260623D01*
Y-261541D01*
X87214Y-262000D01*
X88133D01*
X88592Y-261541D01*
Y-261082D01*
X88133Y-260623D01*
X86755D01*
X89510Y-262459D02*
X91347D01*
X92265Y-262000D02*
Y-260163D01*
X93183Y-259245D01*
X94102Y-260163D01*
Y-262000D01*
Y-260623D01*
X92265D01*
X45000Y-256500D02*
X42245D01*
Y-255122D01*
X42704Y-254663D01*
X43622D01*
X44082Y-255122D01*
Y-256500D01*
Y-255582D02*
X45000Y-254663D01*
X42245Y-253745D02*
Y-251908D01*
X42704D01*
X44541Y-253745D01*
X45000D01*
X45459Y-250990D02*
Y-249153D01*
X45000Y-248235D02*
X43163D01*
X42245Y-247317D01*
X43163Y-246398D01*
X45000D01*
X43622D01*
Y-248235D01*
X140000Y-118500D02*
X137245D01*
Y-117122D01*
X137704Y-116663D01*
X138622D01*
X139082Y-117122D01*
Y-118500D01*
Y-117582D02*
X140000Y-116663D01*
X137704Y-115745D02*
X137245Y-115286D01*
Y-114367D01*
X137704Y-113908D01*
X138163D01*
X138622Y-114367D01*
X139082Y-113908D01*
X139541D01*
X140000Y-114367D01*
Y-115286D01*
X139541Y-115745D01*
X139082D01*
X138622Y-115286D01*
X138163Y-115745D01*
X137704D01*
X138622Y-115286D02*
Y-114367D01*
X130000Y-78000D02*
Y-75245D01*
X131377D01*
X131837Y-75704D01*
Y-76622D01*
X131377Y-77082D01*
X130000D01*
X130918D02*
X131837Y-78000D01*
X132755D02*
X133673D01*
X133214D01*
Y-75245D01*
X132755Y-75704D01*
X135051D02*
X135510Y-75245D01*
X136428D01*
X136888Y-75704D01*
Y-77541D01*
X136428Y-78000D01*
X135510D01*
X135051Y-77541D01*
Y-75704D01*
X50500Y-194745D02*
Y-197041D01*
X50959Y-197500D01*
X51877D01*
X52337Y-197041D01*
Y-194745D01*
X53255Y-197500D02*
X54173D01*
X53714D01*
Y-194745D01*
X53255Y-195204D01*
X55551Y-197959D02*
X57388D01*
X58306Y-197500D02*
Y-195663D01*
X59224Y-194745D01*
X60143Y-195663D01*
Y-197500D01*
Y-196123D01*
X58306D01*
X76500Y-227745D02*
Y-230041D01*
X76959Y-230500D01*
X77877D01*
X78337Y-230041D01*
Y-227745D01*
X81092Y-230500D02*
X79255D01*
X81092Y-228663D01*
Y-228204D01*
X80633Y-227745D01*
X79714D01*
X79255Y-228204D01*
X82010Y-230959D02*
X83847D01*
X84765Y-230500D02*
Y-228663D01*
X85683Y-227745D01*
X86602Y-228663D01*
Y-230500D01*
Y-229122D01*
X84765D01*
X86050Y-69495D02*
Y-71791D01*
X86509Y-72250D01*
X87428D01*
X87887Y-71791D01*
Y-69495D01*
X88805Y-72250D02*
X89723D01*
X89264D01*
Y-69495D01*
X88805Y-69954D01*
X91101D02*
X91560Y-69495D01*
X92478D01*
X92937Y-69954D01*
Y-71791D01*
X92478Y-72250D01*
X91560D01*
X91101Y-71791D01*
Y-69954D01*
X93856D02*
X94315Y-69495D01*
X95233D01*
X95693Y-69954D01*
Y-71791D01*
X95233Y-72250D01*
X94315D01*
X93856Y-71791D01*
Y-69954D01*
X12378Y-98351D02*
Y-100647D01*
X12837Y-101106D01*
X13756D01*
X14215Y-100647D01*
Y-98351D01*
X15133Y-101106D02*
X16051D01*
X15592D01*
Y-98351D01*
X15133Y-98810D01*
X17429D02*
X17888Y-98351D01*
X18806D01*
X19265Y-98810D01*
Y-100647D01*
X18806Y-101106D01*
X17888D01*
X17429Y-100647D01*
Y-98810D01*
X20184Y-101106D02*
X21102D01*
X20643D01*
Y-98351D01*
X20184Y-98810D01*
X40500Y-106245D02*
Y-108541D01*
X40959Y-109000D01*
X41877D01*
X42337Y-108541D01*
Y-106245D01*
X43255Y-109000D02*
X44173D01*
X43714D01*
Y-106245D01*
X43255Y-106704D01*
X45551D02*
X46010Y-106245D01*
X46928D01*
X47387Y-106704D01*
Y-108541D01*
X46928Y-109000D01*
X46010D01*
X45551Y-108541D01*
Y-106704D01*
X50143Y-109000D02*
X48306D01*
X50143Y-107163D01*
Y-106704D01*
X49683Y-106245D01*
X48765D01*
X48306Y-106704D01*
X56337Y-373204D02*
X55878Y-372745D01*
X54959D01*
X54500Y-373204D01*
Y-375041D01*
X54959Y-375500D01*
X55878D01*
X56337Y-375041D01*
X57255Y-375500D02*
X58173D01*
X57714D01*
Y-372745D01*
X57255Y-373204D01*
X59551Y-375959D02*
X61387D01*
X62306Y-372745D02*
Y-375500D01*
X63683D01*
X64143Y-375041D01*
Y-374582D01*
X63683Y-374123D01*
X62306D01*
X63683D01*
X64143Y-373663D01*
Y-373204D01*
X63683Y-372745D01*
X62306D01*
X75704Y-357163D02*
X75245Y-357623D01*
Y-358541D01*
X75704Y-359000D01*
X77541D01*
X78000Y-358541D01*
Y-357623D01*
X77541Y-357163D01*
X78000Y-354408D02*
Y-356245D01*
X76163Y-354408D01*
X75704D01*
X75245Y-354868D01*
Y-355786D01*
X75704Y-356245D01*
X78459Y-353490D02*
Y-351653D01*
X75245Y-350735D02*
X78000D01*
Y-349357D01*
X77541Y-348898D01*
X77082D01*
X76622Y-349357D01*
Y-350735D01*
Y-349357D01*
X76163Y-348898D01*
X75704D01*
X75245Y-349357D01*
Y-350735D01*
X4837Y-355245D02*
X3918D01*
X4377D01*
Y-357541D01*
X3918Y-358000D01*
X3459D01*
X3000Y-357541D01*
X5755Y-358459D02*
X7592D01*
X8510Y-355245D02*
Y-358000D01*
X9888D01*
X10347Y-357541D01*
Y-357082D01*
X9888Y-356623D01*
X8510D01*
X9888D01*
X10347Y-356163D01*
Y-355704D01*
X9888Y-355245D01*
X8510D01*
X11265Y-358000D02*
X12183D01*
X11724D01*
Y-355245D01*
X11265Y-355704D01*
X133337Y-354745D02*
X132418D01*
X132878D01*
Y-357041D01*
X132418Y-357500D01*
X131959D01*
X131500Y-357041D01*
X134255Y-357959D02*
X136092D01*
X137010Y-354745D02*
Y-357500D01*
X138388D01*
X138847Y-357041D01*
Y-356582D01*
X138388Y-356122D01*
X137010D01*
X138388D01*
X138847Y-355663D01*
Y-355204D01*
X138388Y-354745D01*
X137010D01*
X141602Y-357500D02*
X139765D01*
X141602Y-355663D01*
Y-355204D01*
X141143Y-354745D01*
X140224D01*
X139765Y-355204D01*
X10500Y-320500D02*
X7745D01*
Y-319123D01*
X8204Y-318663D01*
X9122D01*
X9582Y-319123D01*
Y-320500D01*
Y-319582D02*
X10500Y-318663D01*
Y-317745D02*
Y-316827D01*
Y-317286D01*
X7745D01*
X8204Y-317745D01*
X10959Y-315449D02*
Y-313612D01*
X7745Y-312694D02*
X10500D01*
Y-311317D01*
X10041Y-310857D01*
X9582D01*
X9122Y-311317D01*
Y-312694D01*
Y-311317D01*
X8663Y-310857D01*
X8204D01*
X7745Y-311317D01*
Y-312694D01*
X132500Y-371500D02*
X129745D01*
Y-370123D01*
X130204Y-369663D01*
X131123D01*
X131582Y-370123D01*
Y-371500D01*
Y-370582D02*
X132500Y-369663D01*
Y-366908D02*
Y-368745D01*
X130663Y-366908D01*
X130204D01*
X129745Y-367368D01*
Y-368286D01*
X130204Y-368745D01*
X132959Y-365990D02*
Y-364153D01*
X129745Y-363235D02*
X132500D01*
Y-361857D01*
X132041Y-361398D01*
X131582D01*
X131123Y-361857D01*
Y-363235D01*
Y-361857D01*
X130663Y-361398D01*
X130204D01*
X129745Y-361857D01*
Y-363235D01*
X17000Y-338500D02*
Y-335745D01*
X18377D01*
X18837Y-336204D01*
Y-337123D01*
X18377Y-337582D01*
X17000D01*
X17918D02*
X18837Y-338500D01*
X19755Y-336204D02*
X20214Y-335745D01*
X21133D01*
X21592Y-336204D01*
Y-336663D01*
X21133Y-337123D01*
X20673D01*
X21133D01*
X21592Y-337582D01*
Y-338041D01*
X21133Y-338500D01*
X20214D01*
X19755Y-338041D01*
X22510Y-338959D02*
X24347D01*
X25265Y-335745D02*
Y-338500D01*
X26643D01*
X27102Y-338041D01*
Y-337582D01*
X26643Y-337123D01*
X25265D01*
X26643D01*
X27102Y-336663D01*
Y-336204D01*
X26643Y-335745D01*
X25265D01*
X42500Y-338563D02*
Y-335808D01*
X43878D01*
X44337Y-336267D01*
Y-337186D01*
X43878Y-337645D01*
X42500D01*
X43418D02*
X44337Y-338563D01*
X46633D02*
Y-335808D01*
X45255Y-337186D01*
X47092D01*
X48010Y-339022D02*
X49847D01*
X50765Y-335808D02*
Y-338563D01*
X52143D01*
X52602Y-338104D01*
Y-337645D01*
X52143Y-337186D01*
X50765D01*
X52143D01*
X52602Y-336726D01*
Y-336267D01*
X52143Y-335808D01*
X50765D01*
X114500Y-347500D02*
X111745D01*
Y-346123D01*
X112204Y-345663D01*
X113122D01*
X113582Y-346123D01*
Y-347500D01*
Y-346582D02*
X114500Y-345663D01*
X111745Y-342908D02*
Y-344745D01*
X113122D01*
X112663Y-343827D01*
Y-343368D01*
X113122Y-342908D01*
X114041D01*
X114500Y-343368D01*
Y-344286D01*
X114041Y-344745D01*
X114959Y-341990D02*
Y-340153D01*
X111745Y-339235D02*
X114500D01*
Y-337857D01*
X114041Y-337398D01*
X113582D01*
X113122Y-337857D01*
Y-339235D01*
Y-337857D01*
X112663Y-337398D01*
X112204D01*
X111745Y-337857D01*
Y-339235D01*
X110000Y-375000D02*
X107245D01*
Y-373622D01*
X107704Y-373163D01*
X108623D01*
X109082Y-373622D01*
Y-375000D01*
Y-374082D02*
X110000Y-373163D01*
X107245Y-370408D02*
X107704Y-371327D01*
X108623Y-372245D01*
X109541D01*
X110000Y-371786D01*
Y-370867D01*
X109541Y-370408D01*
X109082D01*
X108623Y-370867D01*
Y-372245D01*
X110459Y-369490D02*
Y-367653D01*
X107245Y-366735D02*
X110000D01*
Y-365357D01*
X109541Y-364898D01*
X109082D01*
X108623Y-365357D01*
Y-366735D01*
Y-365357D01*
X108163Y-364898D01*
X107704D01*
X107245Y-365357D01*
Y-366735D01*
X41500Y-355000D02*
Y-352245D01*
X42878D01*
X43337Y-352704D01*
Y-353623D01*
X42878Y-354082D01*
X41500D01*
X42418D02*
X43337Y-355000D01*
X44255Y-352245D02*
X46092D01*
Y-352704D01*
X44255Y-354541D01*
Y-355000D01*
X47010Y-355459D02*
X48847D01*
X49765Y-352245D02*
Y-355000D01*
X51143D01*
X51602Y-354541D01*
Y-354082D01*
X51143Y-353623D01*
X49765D01*
X51143D01*
X51602Y-353163D01*
Y-352704D01*
X51143Y-352245D01*
X49765D01*
X53500Y-304745D02*
Y-307041D01*
X53959Y-307500D01*
X54878D01*
X55337Y-307041D01*
Y-304745D01*
X56255Y-307500D02*
X57173D01*
X56714D01*
Y-304745D01*
X56255Y-305204D01*
X58551Y-307959D02*
X60387D01*
X61306Y-304745D02*
Y-307500D01*
X62683D01*
X63143Y-307041D01*
Y-306582D01*
X62683Y-306122D01*
X61306D01*
X62683D01*
X63143Y-305663D01*
Y-305204D01*
X62683Y-304745D01*
X61306D01*
X82000Y-339245D02*
Y-341541D01*
X82459Y-342000D01*
X83377D01*
X83837Y-341541D01*
Y-339245D01*
X86592Y-342000D02*
X84755D01*
X86592Y-340163D01*
Y-339704D01*
X86133Y-339245D01*
X85214D01*
X84755Y-339704D01*
X87510Y-342459D02*
X89347D01*
X90265Y-339245D02*
Y-342000D01*
X91643D01*
X92102Y-341541D01*
Y-341082D01*
X91643Y-340622D01*
X90265D01*
X91643D01*
X92102Y-340163D01*
Y-339704D01*
X91643Y-339245D01*
X90265D01*
X3337Y-415245D02*
X2418D01*
X2877D01*
Y-417541D01*
X2418Y-418000D01*
X1959D01*
X1500Y-417541D01*
X4255Y-418459D02*
X6092D01*
X8847Y-415704D02*
X8388Y-415245D01*
X7469D01*
X7010Y-415704D01*
Y-417541D01*
X7469Y-418000D01*
X8388D01*
X8847Y-417541D01*
X9765Y-418000D02*
X10683D01*
X10224D01*
Y-415245D01*
X9765Y-415704D01*
X132337Y-415745D02*
X131418D01*
X131878D01*
Y-418041D01*
X131418Y-418500D01*
X130959D01*
X130500Y-418041D01*
X133255Y-418959D02*
X135092D01*
X137847Y-416204D02*
X137388Y-415745D01*
X136469D01*
X136010Y-416204D01*
Y-418041D01*
X136469Y-418500D01*
X137388D01*
X137847Y-418041D01*
X140602Y-418500D02*
X138765D01*
X140602Y-416663D01*
Y-416204D01*
X140143Y-415745D01*
X139224D01*
X138765Y-416204D01*
X4337Y-478745D02*
X3418D01*
X3878D01*
Y-481041D01*
X3418Y-481500D01*
X2959D01*
X2500Y-481041D01*
X5255Y-481959D02*
X7092D01*
X8010Y-478745D02*
Y-481500D01*
X9388D01*
X9847Y-481041D01*
Y-479204D01*
X9388Y-478745D01*
X8010D01*
X10765Y-481500D02*
X11683D01*
X11224D01*
Y-478745D01*
X10765Y-479204D01*
X71500Y-483245D02*
Y-485541D01*
X71959Y-486000D01*
X72878D01*
X73337Y-485541D01*
Y-483245D01*
X74255Y-486000D02*
X75173D01*
X74714D01*
Y-483245D01*
X74255Y-483704D01*
X76551Y-486459D02*
X78387D01*
X79306Y-483245D02*
Y-486000D01*
X80683D01*
X81143Y-485541D01*
Y-483704D01*
X80683Y-483245D01*
X79306D01*
X20000Y-32926D02*
X22099D01*
X21049Y-31876D02*
Y-33975D01*
X32000Y-26500D02*
Y-23351D01*
X33574D01*
X34099Y-23876D01*
Y-24926D01*
X33574Y-25451D01*
X32000D01*
X35673Y-26500D02*
X36723D01*
X37248Y-25975D01*
Y-24926D01*
X36723Y-24401D01*
X35673D01*
X35149Y-24926D01*
Y-25975D01*
X35673Y-26500D01*
X38297Y-24401D02*
Y-25975D01*
X38822Y-26500D01*
X39347Y-25975D01*
X39871Y-26500D01*
X40396Y-25975D01*
Y-24401D01*
X43020Y-26500D02*
X41971D01*
X41446Y-25975D01*
Y-24926D01*
X41971Y-24401D01*
X43020D01*
X43545Y-24926D01*
Y-25451D01*
X41446D01*
X44594Y-24401D02*
Y-26500D01*
Y-25451D01*
X45119Y-24926D01*
X45644Y-24401D01*
X46169D01*
X133926Y-197500D02*
X135500Y-199074D01*
X133926Y-200649D01*
X132351Y-199074D02*
X130252D01*
X129203D02*
X127104D01*
X126054D02*
X123955D01*
X122906D02*
X120807D01*
X10500Y-164500D02*
Y-162401D01*
X11549Y-161351D01*
X12599Y-162401D01*
Y-164500D01*
Y-162926D01*
X10500D01*
X16797Y-161351D02*
Y-163451D01*
X17847Y-164500D01*
X18896Y-163451D01*
Y-161351D01*
X20470Y-164500D02*
X21520D01*
X22045Y-163975D01*
Y-162926D01*
X21520Y-162401D01*
X20470D01*
X19946Y-162926D01*
Y-163975D01*
X20470Y-164500D01*
X23094D02*
X24144D01*
X23619D01*
Y-161351D01*
X23094D01*
X26243Y-161876D02*
Y-162401D01*
X25718D01*
X26768D01*
X26243D01*
Y-163975D01*
X26768Y-164500D01*
X28867Y-162401D02*
X29916D01*
X30441Y-162926D01*
Y-164500D01*
X28867D01*
X28342Y-163975D01*
X28867Y-163451D01*
X30441D01*
X32540Y-165550D02*
X33065D01*
X33590Y-165025D01*
Y-162401D01*
X32015D01*
X31491Y-162926D01*
Y-163975D01*
X32015Y-164500D01*
X33590D01*
X36213D02*
X35164D01*
X34639Y-163975D01*
Y-162926D01*
X35164Y-162401D01*
X36213D01*
X36738Y-162926D01*
Y-163451D01*
X34639D01*
X87500Y-161351D02*
Y-164500D01*
X89074D01*
X89599Y-163975D01*
Y-163451D01*
X89074Y-162926D01*
X87500D01*
X89074D01*
X89599Y-162401D01*
Y-161876D01*
X89074Y-161351D01*
X87500D01*
X93797D02*
Y-163451D01*
X94847Y-164500D01*
X95896Y-163451D01*
Y-161351D01*
X97470Y-164500D02*
X98520D01*
X99045Y-163975D01*
Y-162926D01*
X98520Y-162401D01*
X97470D01*
X96946Y-162926D01*
Y-163975D01*
X97470Y-164500D01*
X100094D02*
X101144D01*
X100619D01*
Y-161351D01*
X100094D01*
X103243Y-161876D02*
Y-162401D01*
X102718D01*
X103768D01*
X103243D01*
Y-163975D01*
X103768Y-164500D01*
X105867Y-162401D02*
X106916D01*
X107441Y-162926D01*
Y-164500D01*
X105867D01*
X105342Y-163975D01*
X105867Y-163451D01*
X107441D01*
X109540Y-165550D02*
X110065D01*
X110590Y-165025D01*
Y-162401D01*
X109015D01*
X108491Y-162926D01*
Y-163975D01*
X109015Y-164500D01*
X110590D01*
X113214D02*
X112164D01*
X111639Y-163975D01*
Y-162926D01*
X112164Y-162401D01*
X113214D01*
X113738Y-162926D01*
Y-163451D01*
X111639D01*
X53599Y-163351D02*
Y-166500D01*
X52025D01*
X51500Y-165975D01*
Y-164926D01*
X52025Y-164401D01*
X53599D01*
X54649Y-166500D02*
X55698D01*
X55173D01*
Y-164401D01*
X54649D01*
X57272D02*
Y-166500D01*
Y-165451D01*
X57797Y-164926D01*
X58322Y-164401D01*
X58847D01*
X61995Y-166500D02*
X60946D01*
X60421Y-165975D01*
Y-164926D01*
X60946Y-164401D01*
X61995D01*
X62520Y-164926D01*
Y-165451D01*
X60421D01*
X65669Y-164401D02*
X64094D01*
X63570Y-164926D01*
Y-165975D01*
X64094Y-166500D01*
X65669D01*
X67243Y-163876D02*
Y-164401D01*
X66718D01*
X67768D01*
X67243D01*
Y-165975D01*
X67768Y-166500D01*
X69342D02*
X70391D01*
X69867D01*
Y-164401D01*
X69342D01*
X72491Y-166500D02*
X73540D01*
X74065Y-165975D01*
Y-164926D01*
X73540Y-164401D01*
X72491D01*
X71966Y-164926D01*
Y-165975D01*
X72491Y-166500D01*
X75114D02*
Y-164401D01*
X76689D01*
X77214Y-164926D01*
Y-166500D01*
X89025Y-192401D02*
X90074D01*
X90599Y-192926D01*
Y-194500D01*
X89025D01*
X88500Y-193975D01*
X89025Y-193450D01*
X90599D01*
X91649Y-194500D02*
Y-192401D01*
X93223D01*
X93748Y-192926D01*
Y-194500D01*
X95322Y-192401D02*
X96372D01*
X96896Y-192926D01*
Y-194500D01*
X95322D01*
X94797Y-193975D01*
X95322Y-193450D01*
X96896D01*
X97946Y-194500D02*
X98995D01*
X98470D01*
Y-191351D01*
X97946D01*
X101094Y-194500D02*
X102144D01*
X102669Y-193975D01*
Y-192926D01*
X102144Y-192401D01*
X101094D01*
X100570Y-192926D01*
Y-193975D01*
X101094Y-194500D01*
X104768Y-195549D02*
X105292D01*
X105817Y-195025D01*
Y-192401D01*
X104243D01*
X103718Y-192926D01*
Y-193975D01*
X104243Y-194500D01*
X105817D01*
X106867Y-192401D02*
Y-193975D01*
X107392Y-194500D01*
X108966D01*
Y-192401D01*
X111590Y-194500D02*
X110540D01*
X110015Y-193975D01*
Y-192926D01*
X110540Y-192401D01*
X111590D01*
X112114Y-192926D01*
Y-193450D01*
X110015D01*
X118412Y-191351D02*
Y-194500D01*
X116837D01*
X116313Y-193975D01*
Y-192926D01*
X116837Y-192401D01*
X118412D01*
X121035Y-194500D02*
X119986D01*
X119461Y-193975D01*
Y-192926D01*
X119986Y-192401D01*
X121035D01*
X121560Y-192926D01*
Y-193450D01*
X119461D01*
X123135Y-191876D02*
Y-192401D01*
X122610D01*
X123659D01*
X123135D01*
Y-193975D01*
X123659Y-194500D01*
X125758D02*
X126808D01*
X127333Y-193975D01*
Y-192926D01*
X126808Y-192401D01*
X125758D01*
X125234Y-192926D01*
Y-193975D01*
X125758Y-194500D01*
X128382Y-192401D02*
Y-193975D01*
X128907Y-194500D01*
X130481D01*
Y-192401D01*
X131531D02*
Y-194500D01*
Y-193450D01*
X132055Y-192926D01*
X132580Y-192401D01*
X133105D01*
X134679Y-191876D02*
X135204Y-191351D01*
X136254D01*
X136778Y-191876D01*
Y-192401D01*
X135729Y-193450D01*
Y-193975D02*
Y-194500D01*
X94901Y-216000D02*
X96475D01*
X97000Y-215475D01*
Y-213901D01*
X97525D01*
X98049Y-214426D01*
Y-214950D01*
X97000Y-213901D02*
X94901D01*
X97000Y-211277D02*
Y-212327D01*
X96475Y-212851D01*
X95426D01*
X94901Y-212327D01*
Y-211277D01*
X95426Y-210752D01*
X95951D01*
Y-212851D01*
X97000Y-209703D02*
Y-208128D01*
X96475Y-207604D01*
X95951Y-208128D01*
Y-209178D01*
X95426Y-209703D01*
X94901Y-209178D01*
Y-207604D01*
X107500Y-205500D02*
Y-203401D01*
X109074D01*
X109599Y-203926D01*
Y-205500D01*
X111173D02*
X112223D01*
X112748Y-204975D01*
Y-203926D01*
X112223Y-203401D01*
X111173D01*
X110649Y-203926D01*
Y-204975D01*
X111173Y-205500D01*
X124401Y-216000D02*
X125975D01*
X126500Y-215475D01*
Y-213901D01*
X127025D01*
X127550Y-214426D01*
Y-214950D01*
X126500Y-213901D02*
X124401D01*
X126500Y-211277D02*
Y-212327D01*
X125975Y-212851D01*
X124926D01*
X124401Y-212327D01*
Y-211277D01*
X124926Y-210752D01*
X125451D01*
Y-212851D01*
X126500Y-209703D02*
Y-208128D01*
X125975Y-207604D01*
X125451Y-208128D01*
Y-209178D01*
X124926Y-209703D01*
X124401Y-209178D01*
Y-207604D01*
X5500Y-169876D02*
X6025Y-169351D01*
X7074D01*
X7599Y-169876D01*
Y-170401D01*
X7074Y-170926D01*
X6549D01*
X7074D01*
X7599Y-171450D01*
Y-171975D01*
X7074Y-172500D01*
X6025D01*
X5500Y-171975D01*
X8649Y-172500D02*
Y-171975D01*
X9173D01*
Y-172500D01*
X8649D01*
X11272Y-169876D02*
X11797Y-169351D01*
X12847D01*
X13372Y-169876D01*
Y-170401D01*
X12847Y-170926D01*
X12322D01*
X12847D01*
X13372Y-171450D01*
Y-171975D01*
X12847Y-172500D01*
X11797D01*
X11272Y-171975D01*
X14421Y-169351D02*
Y-171450D01*
X15471Y-172500D01*
X16520Y-171450D01*
Y-169351D01*
X123500Y-169876D02*
X124025Y-169351D01*
X125074D01*
X125599Y-169876D01*
Y-170401D01*
X125074Y-170926D01*
X124549D01*
X125074D01*
X125599Y-171450D01*
Y-171975D01*
X125074Y-172500D01*
X124025D01*
X123500Y-171975D01*
X126649Y-172500D02*
Y-171975D01*
X127173D01*
Y-172500D01*
X126649D01*
X129272Y-169876D02*
X129797Y-169351D01*
X130847D01*
X131371Y-169876D01*
Y-170401D01*
X130847Y-170926D01*
X130322D01*
X130847D01*
X131371Y-171450D01*
Y-171975D01*
X130847Y-172500D01*
X129797D01*
X129272Y-171975D01*
X132421Y-169351D02*
Y-171450D01*
X133470Y-172500D01*
X134520Y-171450D01*
Y-169351D01*
X124025Y-176401D02*
X125074D01*
X125599Y-176926D01*
Y-178500D01*
X124025D01*
X123500Y-177975D01*
X124025Y-177451D01*
X125599D01*
X128748Y-175351D02*
Y-178500D01*
X127173D01*
X126649Y-177975D01*
Y-176926D01*
X127173Y-176401D01*
X128748D01*
X129797Y-179550D02*
X130322D01*
X130847Y-179025D01*
Y-176401D01*
X132946Y-178500D02*
Y-177975D01*
X133470D01*
Y-178500D01*
X132946D01*
X6080Y-176401D02*
X7129D01*
X7654Y-176926D01*
Y-178500D01*
X6080D01*
X5555Y-177975D01*
X6080Y-177451D01*
X7654D01*
X10803Y-175351D02*
Y-178500D01*
X9228D01*
X8704Y-177975D01*
Y-176926D01*
X9228Y-176401D01*
X10803D01*
X11852Y-179550D02*
X12377D01*
X12902Y-179025D01*
Y-176401D01*
X15001Y-178500D02*
Y-177975D01*
X15526D01*
Y-178500D01*
X15001D01*
X8599Y-182351D02*
X6500D01*
Y-183926D01*
X7549Y-183401D01*
X8074D01*
X8599Y-183926D01*
Y-184975D01*
X8074Y-185500D01*
X7025D01*
X6500Y-184975D01*
X9649Y-182351D02*
Y-184450D01*
X10698Y-185500D01*
X11748Y-184450D01*
Y-182351D01*
X125599Y-181351D02*
X123500D01*
Y-182926D01*
X124549Y-182401D01*
X125074D01*
X125599Y-182926D01*
Y-183975D01*
X125074Y-184500D01*
X124025D01*
X123500Y-183975D01*
X126649Y-181351D02*
Y-183450D01*
X127698Y-184500D01*
X128748Y-183450D01*
Y-181351D01*
X77674Y-171500D02*
X79248Y-173074D01*
X77674Y-174649D01*
X76099Y-173074D02*
X74000D01*
X72951D02*
X70852D01*
X69802D02*
X67703D01*
X66654D02*
X64555D01*
X66074Y-183500D02*
X64500Y-181926D01*
X66074Y-180351D01*
X67649Y-181926D02*
X69748D01*
X70797D02*
X72896D01*
X73946D02*
X76045D01*
X77094D02*
X79193D01*
X66074Y-293500D02*
X64500Y-291926D01*
X66074Y-290351D01*
X67649Y-291926D02*
X69748D01*
X70797D02*
X72896D01*
X73946D02*
X76045D01*
X77094D02*
X79193D01*
X77674Y-281500D02*
X79248Y-283074D01*
X77674Y-284649D01*
X76099Y-283074D02*
X74000D01*
X72951D02*
X70852D01*
X69802D02*
X67703D01*
X66654D02*
X64555D01*
X125599Y-290351D02*
X123500D01*
Y-291926D01*
X124549Y-291401D01*
X125074D01*
X125599Y-291926D01*
Y-292975D01*
X125074Y-293500D01*
X124025D01*
X123500Y-292975D01*
X126649Y-290351D02*
Y-292450D01*
X127698Y-293500D01*
X128748Y-292450D01*
Y-290351D01*
X8599Y-291351D02*
X6500D01*
Y-292926D01*
X7549Y-292401D01*
X8074D01*
X8599Y-292926D01*
Y-293975D01*
X8074Y-294500D01*
X7025D01*
X6500Y-293975D01*
X9649Y-291351D02*
Y-293450D01*
X10698Y-294500D01*
X11748Y-293450D01*
Y-291351D01*
X6080Y-285401D02*
X7129D01*
X7654Y-285926D01*
Y-287500D01*
X6080D01*
X5555Y-286975D01*
X6080Y-286451D01*
X7654D01*
X10803Y-284351D02*
Y-287500D01*
X9228D01*
X8704Y-286975D01*
Y-285926D01*
X9228Y-285401D01*
X10803D01*
X11852Y-288549D02*
X12377D01*
X12902Y-288025D01*
Y-285401D01*
X15001Y-287500D02*
Y-286975D01*
X15526D01*
Y-287500D01*
X15001D01*
X124025Y-285401D02*
X125074D01*
X125599Y-285926D01*
Y-287500D01*
X124025D01*
X123500Y-286975D01*
X124025Y-286451D01*
X125599D01*
X128748Y-284351D02*
Y-287500D01*
X127173D01*
X126649Y-286975D01*
Y-285926D01*
X127173Y-285401D01*
X128748D01*
X129797Y-288549D02*
X130322D01*
X130847Y-288025D01*
Y-285401D01*
X132946Y-287500D02*
Y-286975D01*
X133470D01*
Y-287500D01*
X132946D01*
X123500Y-278876D02*
X124025Y-278351D01*
X125074D01*
X125599Y-278876D01*
Y-279401D01*
X125074Y-279926D01*
X124549D01*
X125074D01*
X125599Y-280451D01*
Y-280975D01*
X125074Y-281500D01*
X124025D01*
X123500Y-280975D01*
X126649Y-281500D02*
Y-280975D01*
X127173D01*
Y-281500D01*
X126649D01*
X129272Y-278876D02*
X129797Y-278351D01*
X130847D01*
X131371Y-278876D01*
Y-279401D01*
X130847Y-279926D01*
X130322D01*
X130847D01*
X131371Y-280451D01*
Y-280975D01*
X130847Y-281500D01*
X129797D01*
X129272Y-280975D01*
X132421Y-278351D02*
Y-280451D01*
X133470Y-281500D01*
X134520Y-280451D01*
Y-278351D01*
X5500Y-276876D02*
X6025Y-276351D01*
X7074D01*
X7599Y-276876D01*
Y-277401D01*
X7074Y-277926D01*
X6549D01*
X7074D01*
X7599Y-278450D01*
Y-278975D01*
X7074Y-279500D01*
X6025D01*
X5500Y-278975D01*
X8649Y-279500D02*
Y-278975D01*
X9173D01*
Y-279500D01*
X8649D01*
X11272Y-276876D02*
X11797Y-276351D01*
X12847D01*
X13372Y-276876D01*
Y-277401D01*
X12847Y-277926D01*
X12322D01*
X12847D01*
X13372Y-278450D01*
Y-278975D01*
X12847Y-279500D01*
X11797D01*
X11272Y-278975D01*
X14421Y-276351D02*
Y-278450D01*
X15471Y-279500D01*
X16520Y-278450D01*
Y-276351D01*
X124401Y-324500D02*
X125975D01*
X126500Y-323975D01*
Y-322401D01*
X127025D01*
X127550Y-322926D01*
Y-323450D01*
X126500Y-322401D02*
X124401D01*
X126500Y-319777D02*
Y-320827D01*
X125975Y-321351D01*
X124926D01*
X124401Y-320827D01*
Y-319777D01*
X124926Y-319252D01*
X125451D01*
Y-321351D01*
X126500Y-318203D02*
Y-316629D01*
X125975Y-316104D01*
X125451Y-316629D01*
Y-317678D01*
X124926Y-318203D01*
X124401Y-317678D01*
Y-316104D01*
X110500Y-315500D02*
Y-313401D01*
X112074D01*
X112599Y-313926D01*
Y-315500D01*
X114173D02*
X115223D01*
X115748Y-314975D01*
Y-313926D01*
X115223Y-313401D01*
X114173D01*
X113649Y-313926D01*
Y-314975D01*
X114173Y-315500D01*
X99401Y-324500D02*
X100975D01*
X101500Y-323975D01*
Y-322401D01*
X102025D01*
X102550Y-322926D01*
Y-323450D01*
X101500Y-322401D02*
X99401D01*
X101500Y-319777D02*
Y-320827D01*
X100975Y-321351D01*
X99926D01*
X99401Y-320827D01*
Y-319777D01*
X99926Y-319252D01*
X100451D01*
Y-321351D01*
X101500Y-318203D02*
Y-316629D01*
X100975Y-316104D01*
X100451Y-316629D01*
Y-317678D01*
X99926Y-318203D01*
X99401Y-317678D01*
Y-316104D01*
X89025Y-301401D02*
X90074D01*
X90599Y-301926D01*
Y-303500D01*
X89025D01*
X88500Y-302975D01*
X89025Y-302450D01*
X90599D01*
X91649Y-303500D02*
Y-301401D01*
X93223D01*
X93748Y-301926D01*
Y-303500D01*
X95322Y-301401D02*
X96372D01*
X96896Y-301926D01*
Y-303500D01*
X95322D01*
X94797Y-302975D01*
X95322Y-302450D01*
X96896D01*
X97946Y-303500D02*
X98995D01*
X98470D01*
Y-300351D01*
X97946D01*
X101094Y-303500D02*
X102144D01*
X102669Y-302975D01*
Y-301926D01*
X102144Y-301401D01*
X101094D01*
X100570Y-301926D01*
Y-302975D01*
X101094Y-303500D01*
X104768Y-304550D02*
X105292D01*
X105817Y-304025D01*
Y-301401D01*
X104243D01*
X103718Y-301926D01*
Y-302975D01*
X104243Y-303500D01*
X105817D01*
X106867Y-301401D02*
Y-302975D01*
X107392Y-303500D01*
X108966D01*
Y-301401D01*
X111590Y-303500D02*
X110540D01*
X110015Y-302975D01*
Y-301926D01*
X110540Y-301401D01*
X111590D01*
X112114Y-301926D01*
Y-302450D01*
X110015D01*
X118412Y-300351D02*
Y-303500D01*
X116837D01*
X116313Y-302975D01*
Y-301926D01*
X116837Y-301401D01*
X118412D01*
X121035Y-303500D02*
X119986D01*
X119461Y-302975D01*
Y-301926D01*
X119986Y-301401D01*
X121035D01*
X121560Y-301926D01*
Y-302450D01*
X119461D01*
X123135Y-300876D02*
Y-301401D01*
X122610D01*
X123659D01*
X123135D01*
Y-302975D01*
X123659Y-303500D01*
X125758D02*
X126808D01*
X127333Y-302975D01*
Y-301926D01*
X126808Y-301401D01*
X125758D01*
X125234Y-301926D01*
Y-302975D01*
X125758Y-303500D01*
X128382Y-301401D02*
Y-302975D01*
X128907Y-303500D01*
X130481D01*
Y-301401D01*
X131531D02*
Y-303500D01*
Y-302450D01*
X132055Y-301926D01*
X132580Y-301401D01*
X133105D01*
X134679Y-300876D02*
X135204Y-300351D01*
X136254D01*
X136778Y-300876D01*
Y-301401D01*
X135729Y-302450D01*
Y-302975D02*
Y-303500D01*
X53599Y-272351D02*
Y-275500D01*
X52025D01*
X51500Y-274975D01*
Y-273926D01*
X52025Y-273401D01*
X53599D01*
X54649Y-275500D02*
X55698D01*
X55173D01*
Y-273401D01*
X54649D01*
X57272D02*
Y-275500D01*
Y-274450D01*
X57797Y-273926D01*
X58322Y-273401D01*
X58847D01*
X61995Y-275500D02*
X60946D01*
X60421Y-274975D01*
Y-273926D01*
X60946Y-273401D01*
X61995D01*
X62520Y-273926D01*
Y-274450D01*
X60421D01*
X65669Y-273401D02*
X64094D01*
X63570Y-273926D01*
Y-274975D01*
X64094Y-275500D01*
X65669D01*
X67243Y-272876D02*
Y-273401D01*
X66718D01*
X67768D01*
X67243D01*
Y-274975D01*
X67768Y-275500D01*
X69342D02*
X70391D01*
X69867D01*
Y-273401D01*
X69342D01*
X72491Y-275500D02*
X73540D01*
X74065Y-274975D01*
Y-273926D01*
X73540Y-273401D01*
X72491D01*
X71966Y-273926D01*
Y-274975D01*
X72491Y-275500D01*
X75114D02*
Y-273401D01*
X76689D01*
X77214Y-273926D01*
Y-275500D01*
X87500Y-270351D02*
Y-273500D01*
X89074D01*
X89599Y-272975D01*
Y-272450D01*
X89074Y-271926D01*
X87500D01*
X89074D01*
X89599Y-271401D01*
Y-270876D01*
X89074Y-270351D01*
X87500D01*
X93797D02*
Y-272450D01*
X94847Y-273500D01*
X95896Y-272450D01*
Y-270351D01*
X97470Y-273500D02*
X98520D01*
X99045Y-272975D01*
Y-271926D01*
X98520Y-271401D01*
X97470D01*
X96946Y-271926D01*
Y-272975D01*
X97470Y-273500D01*
X100094D02*
X101144D01*
X100619D01*
Y-270351D01*
X100094D01*
X103243Y-270876D02*
Y-271401D01*
X102718D01*
X103768D01*
X103243D01*
Y-272975D01*
X103768Y-273500D01*
X105867Y-271401D02*
X106916D01*
X107441Y-271926D01*
Y-273500D01*
X105867D01*
X105342Y-272975D01*
X105867Y-272450D01*
X107441D01*
X109540Y-274550D02*
X110065D01*
X110590Y-274025D01*
Y-271401D01*
X109015D01*
X108491Y-271926D01*
Y-272975D01*
X109015Y-273500D01*
X110590D01*
X113214D02*
X112164D01*
X111639Y-272975D01*
Y-271926D01*
X112164Y-271401D01*
X113214D01*
X113738Y-271926D01*
Y-272450D01*
X111639D01*
X10500Y-273500D02*
Y-271401D01*
X11549Y-270351D01*
X12599Y-271401D01*
Y-273500D01*
Y-271926D01*
X10500D01*
X16797Y-270351D02*
Y-272450D01*
X17847Y-273500D01*
X18896Y-272450D01*
Y-270351D01*
X20470Y-273500D02*
X21520D01*
X22045Y-272975D01*
Y-271926D01*
X21520Y-271401D01*
X20470D01*
X19946Y-271926D01*
Y-272975D01*
X20470Y-273500D01*
X23094D02*
X24144D01*
X23619D01*
Y-270351D01*
X23094D01*
X26243Y-270876D02*
Y-271401D01*
X25718D01*
X26768D01*
X26243D01*
Y-272975D01*
X26768Y-273500D01*
X28867Y-271401D02*
X29916D01*
X30441Y-271926D01*
Y-273500D01*
X28867D01*
X28342Y-272975D01*
X28867Y-272450D01*
X30441D01*
X32540Y-274550D02*
X33065D01*
X33590Y-274025D01*
Y-271401D01*
X32015D01*
X31491Y-271926D01*
Y-272975D01*
X32015Y-273500D01*
X33590D01*
X36213D02*
X35164D01*
X34639Y-272975D01*
Y-271926D01*
X35164Y-271401D01*
X36213D01*
X36738Y-271926D01*
Y-272450D01*
X34639D01*
X65574Y-404000D02*
X64000Y-402426D01*
X65574Y-400851D01*
X67149Y-402426D02*
X69248D01*
X70297D02*
X72396D01*
X73446D02*
X75545D01*
X76594D02*
X78693D01*
X77426Y-392000D02*
X79000Y-393574D01*
X77426Y-395149D01*
X75851Y-393574D02*
X73752D01*
X72703D02*
X70604D01*
X69554D02*
X67455D01*
X66406D02*
X64307D01*
X125119Y-401851D02*
X123020D01*
Y-403426D01*
X124069Y-402901D01*
X124594D01*
X125119Y-403426D01*
Y-404475D01*
X124594Y-405000D01*
X123545D01*
X123020Y-404475D01*
X126168Y-401851D02*
Y-403951D01*
X127218Y-405000D01*
X128267Y-403951D01*
Y-401851D01*
X8099Y-402851D02*
X6000D01*
Y-404426D01*
X7050Y-403901D01*
X7574D01*
X8099Y-404426D01*
Y-405475D01*
X7574Y-406000D01*
X6525D01*
X6000Y-405475D01*
X9149Y-402851D02*
Y-404951D01*
X10198Y-406000D01*
X11248Y-404951D01*
Y-402851D01*
X5600Y-396901D02*
X6649D01*
X7174Y-397426D01*
Y-399000D01*
X5600D01*
X5075Y-398475D01*
X5600Y-397951D01*
X7174D01*
X10323Y-395851D02*
Y-399000D01*
X8748D01*
X8223Y-398475D01*
Y-397426D01*
X8748Y-396901D01*
X10323D01*
X11372Y-400049D02*
X11897D01*
X12421Y-399525D01*
Y-396901D01*
X14521Y-399000D02*
Y-398475D01*
X15045D01*
Y-399000D01*
X14521D01*
X123545Y-396901D02*
X124594D01*
X125119Y-397426D01*
Y-399000D01*
X123545D01*
X123020Y-398475D01*
X123545Y-397951D01*
X125119D01*
X128267Y-395851D02*
Y-399000D01*
X126693D01*
X126168Y-398475D01*
Y-397426D01*
X126693Y-396901D01*
X128267D01*
X129317Y-400049D02*
X129842D01*
X130366Y-399525D01*
Y-396901D01*
X132466Y-399000D02*
Y-398475D01*
X132990D01*
Y-399000D01*
X132466D01*
X123020Y-390376D02*
X123545Y-389851D01*
X124594D01*
X125119Y-390376D01*
Y-390901D01*
X124594Y-391426D01*
X124069D01*
X124594D01*
X125119Y-391950D01*
Y-392475D01*
X124594Y-393000D01*
X123545D01*
X123020Y-392475D01*
X126168Y-393000D02*
Y-392475D01*
X126693D01*
Y-393000D01*
X126168D01*
X128792Y-390376D02*
X129317Y-389851D01*
X130366D01*
X130891Y-390376D01*
Y-390901D01*
X130366Y-391426D01*
X129842D01*
X130366D01*
X130891Y-391950D01*
Y-392475D01*
X130366Y-393000D01*
X129317D01*
X128792Y-392475D01*
X131941Y-389851D02*
Y-391950D01*
X132990Y-393000D01*
X134040Y-391950D01*
Y-389851D01*
X5020Y-390376D02*
X5544Y-389851D01*
X6594D01*
X7119Y-390376D01*
Y-390901D01*
X6594Y-391426D01*
X6069D01*
X6594D01*
X7119Y-391950D01*
Y-392475D01*
X6594Y-393000D01*
X5544D01*
X5020Y-392475D01*
X8168Y-393000D02*
Y-392475D01*
X8693D01*
Y-393000D01*
X8168D01*
X10792Y-390376D02*
X11317Y-389851D01*
X12366D01*
X12891Y-390376D01*
Y-390901D01*
X12366Y-391426D01*
X11842D01*
X12366D01*
X12891Y-391950D01*
Y-392475D01*
X12366Y-393000D01*
X11317D01*
X10792Y-392475D01*
X13941Y-389851D02*
Y-391950D01*
X14990Y-393000D01*
X16040Y-391950D01*
Y-389851D01*
X53119Y-383851D02*
Y-387000D01*
X51544D01*
X51020Y-386475D01*
Y-385426D01*
X51544Y-384901D01*
X53119D01*
X54168Y-387000D02*
X55218D01*
X54693D01*
Y-384901D01*
X54168D01*
X56792D02*
Y-387000D01*
Y-385950D01*
X57317Y-385426D01*
X57842Y-384901D01*
X58366D01*
X61515Y-387000D02*
X60466D01*
X59941Y-386475D01*
Y-385426D01*
X60466Y-384901D01*
X61515D01*
X62040Y-385426D01*
Y-385950D01*
X59941D01*
X65188Y-384901D02*
X63614D01*
X63089Y-385426D01*
Y-386475D01*
X63614Y-387000D01*
X65188D01*
X66763Y-384376D02*
Y-384901D01*
X66238D01*
X67287D01*
X66763D01*
Y-386475D01*
X67287Y-387000D01*
X68862D02*
X69911D01*
X69387D01*
Y-384901D01*
X68862D01*
X72010Y-387000D02*
X73060D01*
X73585Y-386475D01*
Y-385426D01*
X73060Y-384901D01*
X72010D01*
X71486Y-385426D01*
Y-386475D01*
X72010Y-387000D01*
X74634D02*
Y-384901D01*
X76208D01*
X76733Y-385426D01*
Y-387000D01*
X87020Y-381851D02*
Y-385000D01*
X88594D01*
X89119Y-384475D01*
Y-383950D01*
X88594Y-383426D01*
X87020D01*
X88594D01*
X89119Y-382901D01*
Y-382376D01*
X88594Y-381851D01*
X87020D01*
X93317D02*
Y-383950D01*
X94366Y-385000D01*
X95416Y-383950D01*
Y-381851D01*
X96990Y-385000D02*
X98040D01*
X98564Y-384475D01*
Y-383426D01*
X98040Y-382901D01*
X96990D01*
X96465Y-383426D01*
Y-384475D01*
X96990Y-385000D01*
X99614D02*
X100664D01*
X100139D01*
Y-381851D01*
X99614D01*
X102763Y-382376D02*
Y-382901D01*
X102238D01*
X103287D01*
X102763D01*
Y-384475D01*
X103287Y-385000D01*
X105386Y-382901D02*
X106436D01*
X106961Y-383426D01*
Y-385000D01*
X105386D01*
X104862Y-384475D01*
X105386Y-383950D01*
X106961D01*
X109060Y-386050D02*
X109585D01*
X110109Y-385525D01*
Y-382901D01*
X108535D01*
X108010Y-383426D01*
Y-384475D01*
X108535Y-385000D01*
X110109D01*
X112733D02*
X111684D01*
X111159Y-384475D01*
Y-383426D01*
X111684Y-382901D01*
X112733D01*
X113258Y-383426D01*
Y-383950D01*
X111159D01*
X10020Y-385000D02*
Y-382901D01*
X11069Y-381851D01*
X12119Y-382901D01*
Y-385000D01*
Y-383426D01*
X10020D01*
X16317Y-381851D02*
Y-383950D01*
X17366Y-385000D01*
X18416Y-383950D01*
Y-381851D01*
X19990Y-385000D02*
X21040D01*
X21565Y-384475D01*
Y-383426D01*
X21040Y-382901D01*
X19990D01*
X19466Y-383426D01*
Y-384475D01*
X19990Y-385000D01*
X22614D02*
X23664D01*
X23139D01*
Y-381851D01*
X22614D01*
X25763Y-382376D02*
Y-382901D01*
X25238D01*
X26287D01*
X25763D01*
Y-384475D01*
X26287Y-385000D01*
X28387Y-382901D02*
X29436D01*
X29961Y-383426D01*
Y-385000D01*
X28387D01*
X27862Y-384475D01*
X28387Y-383950D01*
X29961D01*
X32060Y-386050D02*
X32585D01*
X33109Y-385525D01*
Y-382901D01*
X31535D01*
X31010Y-383426D01*
Y-384475D01*
X31535Y-385000D01*
X33109D01*
X35733D02*
X34684D01*
X34159Y-384475D01*
Y-383426D01*
X34684Y-382901D01*
X35733D01*
X36258Y-383426D01*
Y-383950D01*
X34159D01*
X13020Y-450000D02*
Y-447901D01*
X14069Y-446851D01*
X15119Y-447901D01*
Y-450000D01*
Y-448426D01*
X13020D01*
X19317Y-446851D02*
Y-448950D01*
X20366Y-450000D01*
X21416Y-448950D01*
Y-446851D01*
X22990Y-450000D02*
X24040D01*
X24565Y-449475D01*
Y-448426D01*
X24040Y-447901D01*
X22990D01*
X22466Y-448426D01*
Y-449475D01*
X22990Y-450000D01*
X25614D02*
X26664D01*
X26139D01*
Y-446851D01*
X25614D01*
X28763Y-447376D02*
Y-447901D01*
X28238D01*
X29287D01*
X28763D01*
Y-449475D01*
X29287Y-450000D01*
X31387Y-447901D02*
X32436D01*
X32961Y-448426D01*
Y-450000D01*
X31387D01*
X30862Y-449475D01*
X31387Y-448950D01*
X32961D01*
X35060Y-451050D02*
X35585D01*
X36109Y-450525D01*
Y-447901D01*
X34535D01*
X34010Y-448426D01*
Y-449475D01*
X34535Y-450000D01*
X36109D01*
X38733D02*
X37684D01*
X37159Y-449475D01*
Y-448426D01*
X37684Y-447901D01*
X38733D01*
X39258Y-448426D01*
Y-448950D01*
X37159D01*
X90020Y-446851D02*
Y-450000D01*
X91594D01*
X92119Y-449475D01*
Y-448950D01*
X91594Y-448426D01*
X90020D01*
X91594D01*
X92119Y-447901D01*
Y-447376D01*
X91594Y-446851D01*
X90020D01*
X96317D02*
Y-448950D01*
X97366Y-450000D01*
X98416Y-448950D01*
Y-446851D01*
X99990Y-450000D02*
X101040D01*
X101565Y-449475D01*
Y-448426D01*
X101040Y-447901D01*
X99990D01*
X99465Y-448426D01*
Y-449475D01*
X99990Y-450000D01*
X102614D02*
X103664D01*
X103139D01*
Y-446851D01*
X102614D01*
X105763Y-447376D02*
Y-447901D01*
X105238D01*
X106287D01*
X105763D01*
Y-449475D01*
X106287Y-450000D01*
X108387Y-447901D02*
X109436D01*
X109961Y-448426D01*
Y-450000D01*
X108387D01*
X107862Y-449475D01*
X108387Y-448950D01*
X109961D01*
X112060Y-451050D02*
X112585D01*
X113109Y-450525D01*
Y-447901D01*
X111535D01*
X111010Y-448426D01*
Y-449475D01*
X111535Y-450000D01*
X113109D01*
X115733D02*
X114684D01*
X114159Y-449475D01*
Y-448426D01*
X114684Y-447901D01*
X115733D01*
X116258Y-448426D01*
Y-448950D01*
X114159D01*
X56119Y-448851D02*
Y-452000D01*
X54544D01*
X54020Y-451475D01*
Y-450426D01*
X54544Y-449901D01*
X56119D01*
X57168Y-452000D02*
X58218D01*
X57693D01*
Y-449901D01*
X57168D01*
X59792D02*
Y-452000D01*
Y-450950D01*
X60317Y-450426D01*
X60842Y-449901D01*
X61366D01*
X64515Y-452000D02*
X63465D01*
X62941Y-451475D01*
Y-450426D01*
X63465Y-449901D01*
X64515D01*
X65040Y-450426D01*
Y-450950D01*
X62941D01*
X68188Y-449901D02*
X66614D01*
X66089Y-450426D01*
Y-451475D01*
X66614Y-452000D01*
X68188D01*
X69763Y-449376D02*
Y-449901D01*
X69238D01*
X70287D01*
X69763D01*
Y-451475D01*
X70287Y-452000D01*
X71862D02*
X72911D01*
X72386D01*
Y-449901D01*
X71862D01*
X75010Y-452000D02*
X76060D01*
X76585Y-451475D01*
Y-450426D01*
X76060Y-449901D01*
X75010D01*
X74485Y-450426D01*
Y-451475D01*
X75010Y-452000D01*
X77634D02*
Y-449901D01*
X79208D01*
X79733Y-450426D01*
Y-452000D01*
X8020Y-455376D02*
X8545Y-454851D01*
X9594D01*
X10119Y-455376D01*
Y-455901D01*
X9594Y-456426D01*
X9069D01*
X9594D01*
X10119Y-456951D01*
Y-457475D01*
X9594Y-458000D01*
X8545D01*
X8020Y-457475D01*
X11168Y-458000D02*
Y-457475D01*
X11693D01*
Y-458000D01*
X11168D01*
X13792Y-455376D02*
X14317Y-454851D01*
X15366D01*
X15891Y-455376D01*
Y-455901D01*
X15366Y-456426D01*
X14842D01*
X15366D01*
X15891Y-456951D01*
Y-457475D01*
X15366Y-458000D01*
X14317D01*
X13792Y-457475D01*
X16941Y-454851D02*
Y-456951D01*
X17990Y-458000D01*
X19040Y-456951D01*
Y-454851D01*
X126020Y-455376D02*
X126544Y-454851D01*
X127594D01*
X128119Y-455376D01*
Y-455901D01*
X127594Y-456426D01*
X127069D01*
X127594D01*
X128119Y-456951D01*
Y-457475D01*
X127594Y-458000D01*
X126544D01*
X126020Y-457475D01*
X129168Y-458000D02*
Y-457475D01*
X129693D01*
Y-458000D01*
X129168D01*
X131792Y-455376D02*
X132317Y-454851D01*
X133366D01*
X133891Y-455376D01*
Y-455901D01*
X133366Y-456426D01*
X132842D01*
X133366D01*
X133891Y-456951D01*
Y-457475D01*
X133366Y-458000D01*
X132317D01*
X131792Y-457475D01*
X134941Y-454851D02*
Y-456951D01*
X135990Y-458000D01*
X137040Y-456951D01*
Y-454851D01*
X126544Y-461901D02*
X127594D01*
X128119Y-462426D01*
Y-464000D01*
X126544D01*
X126020Y-463475D01*
X126544Y-462951D01*
X128119D01*
X131267Y-460851D02*
Y-464000D01*
X129693D01*
X129168Y-463475D01*
Y-462426D01*
X129693Y-461901D01*
X131267D01*
X132317Y-465050D02*
X132842D01*
X133366Y-464525D01*
Y-461901D01*
X135466Y-464000D02*
Y-463475D01*
X135990D01*
Y-464000D01*
X135466D01*
X8600Y-461901D02*
X9649D01*
X10174Y-462426D01*
Y-464000D01*
X8600D01*
X8075Y-463475D01*
X8600Y-462951D01*
X10174D01*
X13322Y-460851D02*
Y-464000D01*
X11748D01*
X11223Y-463475D01*
Y-462426D01*
X11748Y-461901D01*
X13322D01*
X14372Y-465050D02*
X14897D01*
X15421Y-464525D01*
Y-461901D01*
X17521Y-464000D02*
Y-463475D01*
X18045D01*
Y-464000D01*
X17521D01*
X11099Y-467851D02*
X9000D01*
Y-469426D01*
X10050Y-468901D01*
X10574D01*
X11099Y-469426D01*
Y-470475D01*
X10574Y-471000D01*
X9525D01*
X9000Y-470475D01*
X12149Y-467851D02*
Y-469950D01*
X13198Y-471000D01*
X14248Y-469950D01*
Y-467851D01*
X128119Y-466851D02*
X126020D01*
Y-468426D01*
X127069Y-467901D01*
X127594D01*
X128119Y-468426D01*
Y-469475D01*
X127594Y-470000D01*
X126544D01*
X126020Y-469475D01*
X129168Y-466851D02*
Y-468951D01*
X130218Y-470000D01*
X131267Y-468951D01*
Y-466851D01*
X80426Y-459000D02*
X82000Y-460574D01*
X80426Y-462149D01*
X78851Y-460574D02*
X76752D01*
X75703D02*
X73604D01*
X72554D02*
X70455D01*
X69406D02*
X67307D01*
X68574Y-470000D02*
X67000Y-468426D01*
X68574Y-466851D01*
X70149Y-468426D02*
X72248D01*
X73297D02*
X75396D01*
X76446D02*
X78545D01*
X79594D02*
X81693D01*
X65574Y-536500D02*
X64000Y-534926D01*
X65574Y-533351D01*
X67149Y-534926D02*
X69248D01*
X70297D02*
X72396D01*
X73446D02*
X75545D01*
X76594D02*
X78693D01*
X77426Y-524000D02*
X79000Y-525574D01*
X77426Y-527149D01*
X75851Y-525574D02*
X73752D01*
X72703D02*
X70604D01*
X69554D02*
X67455D01*
X66406D02*
X64307D01*
X125119Y-533851D02*
X123020D01*
Y-535426D01*
X124069Y-534901D01*
X124594D01*
X125119Y-535426D01*
Y-536475D01*
X124594Y-537000D01*
X123545D01*
X123020Y-536475D01*
X126168Y-533851D02*
Y-535951D01*
X127218Y-537000D01*
X128267Y-535951D01*
Y-533851D01*
X8099D02*
X6000D01*
Y-535426D01*
X7050Y-534901D01*
X7574D01*
X8099Y-535426D01*
Y-536475D01*
X7574Y-537000D01*
X6525D01*
X6000Y-536475D01*
X9149Y-533851D02*
Y-535951D01*
X10198Y-537000D01*
X11248Y-535951D01*
Y-533851D01*
X5600Y-528901D02*
X6649D01*
X7174Y-529426D01*
Y-531000D01*
X5600D01*
X5075Y-530475D01*
X5600Y-529951D01*
X7174D01*
X10323Y-527851D02*
Y-531000D01*
X8748D01*
X8223Y-530475D01*
Y-529426D01*
X8748Y-528901D01*
X10323D01*
X11372Y-532050D02*
X11897D01*
X12421Y-531525D01*
Y-528901D01*
X14521Y-531000D02*
Y-530475D01*
X15045D01*
Y-531000D01*
X14521D01*
X123545Y-528901D02*
X124594D01*
X125119Y-529426D01*
Y-531000D01*
X123545D01*
X123020Y-530475D01*
X123545Y-529951D01*
X125119D01*
X128267Y-527851D02*
Y-531000D01*
X126693D01*
X126168Y-530475D01*
Y-529426D01*
X126693Y-528901D01*
X128267D01*
X129317Y-532050D02*
X129842D01*
X130366Y-531525D01*
Y-528901D01*
X132466Y-531000D02*
Y-530475D01*
X132990D01*
Y-531000D01*
X132466D01*
X123020Y-522376D02*
X123545Y-521851D01*
X124594D01*
X125119Y-522376D01*
Y-522901D01*
X124594Y-523426D01*
X124069D01*
X124594D01*
X125119Y-523950D01*
Y-524475D01*
X124594Y-525000D01*
X123545D01*
X123020Y-524475D01*
X126168Y-525000D02*
Y-524475D01*
X126693D01*
Y-525000D01*
X126168D01*
X128792Y-522376D02*
X129317Y-521851D01*
X130366D01*
X130891Y-522376D01*
Y-522901D01*
X130366Y-523426D01*
X129842D01*
X130366D01*
X130891Y-523950D01*
Y-524475D01*
X130366Y-525000D01*
X129317D01*
X128792Y-524475D01*
X131941Y-521851D02*
Y-523950D01*
X132990Y-525000D01*
X134040Y-523950D01*
Y-521851D01*
X5020Y-522376D02*
X5544Y-521851D01*
X6594D01*
X7119Y-522376D01*
Y-522901D01*
X6594Y-523426D01*
X6069D01*
X6594D01*
X7119Y-523950D01*
Y-524475D01*
X6594Y-525000D01*
X5544D01*
X5020Y-524475D01*
X8168Y-525000D02*
Y-524475D01*
X8693D01*
Y-525000D01*
X8168D01*
X10792Y-522376D02*
X11317Y-521851D01*
X12366D01*
X12891Y-522376D01*
Y-522901D01*
X12366Y-523426D01*
X11842D01*
X12366D01*
X12891Y-523950D01*
Y-524475D01*
X12366Y-525000D01*
X11317D01*
X10792Y-524475D01*
X13941Y-521851D02*
Y-523950D01*
X14990Y-525000D01*
X16040Y-523950D01*
Y-521851D01*
X53119Y-515851D02*
Y-519000D01*
X51544D01*
X51020Y-518475D01*
Y-517426D01*
X51544Y-516901D01*
X53119D01*
X54168Y-519000D02*
X55218D01*
X54693D01*
Y-516901D01*
X54168D01*
X56792D02*
Y-519000D01*
Y-517950D01*
X57317Y-517426D01*
X57842Y-516901D01*
X58366D01*
X61515Y-519000D02*
X60466D01*
X59941Y-518475D01*
Y-517426D01*
X60466Y-516901D01*
X61515D01*
X62040Y-517426D01*
Y-517950D01*
X59941D01*
X65188Y-516901D02*
X63614D01*
X63089Y-517426D01*
Y-518475D01*
X63614Y-519000D01*
X65188D01*
X66763Y-516376D02*
Y-516901D01*
X66238D01*
X67287D01*
X66763D01*
Y-518475D01*
X67287Y-519000D01*
X68862D02*
X69911D01*
X69387D01*
Y-516901D01*
X68862D01*
X72010Y-519000D02*
X73060D01*
X73585Y-518475D01*
Y-517426D01*
X73060Y-516901D01*
X72010D01*
X71486Y-517426D01*
Y-518475D01*
X72010Y-519000D01*
X74634D02*
Y-516901D01*
X76208D01*
X76733Y-517426D01*
Y-519000D01*
X87020Y-513851D02*
Y-517000D01*
X88594D01*
X89119Y-516475D01*
Y-515950D01*
X88594Y-515426D01*
X87020D01*
X88594D01*
X89119Y-514901D01*
Y-514376D01*
X88594Y-513851D01*
X87020D01*
X93317D02*
Y-515950D01*
X94366Y-517000D01*
X95416Y-515950D01*
Y-513851D01*
X96990Y-517000D02*
X98040D01*
X98564Y-516475D01*
Y-515426D01*
X98040Y-514901D01*
X96990D01*
X96465Y-515426D01*
Y-516475D01*
X96990Y-517000D01*
X99614D02*
X100664D01*
X100139D01*
Y-513851D01*
X99614D01*
X102763Y-514376D02*
Y-514901D01*
X102238D01*
X103287D01*
X102763D01*
Y-516475D01*
X103287Y-517000D01*
X105386Y-514901D02*
X106436D01*
X106961Y-515426D01*
Y-517000D01*
X105386D01*
X104862Y-516475D01*
X105386Y-515950D01*
X106961D01*
X109060Y-518049D02*
X109585D01*
X110109Y-517525D01*
Y-514901D01*
X108535D01*
X108010Y-515426D01*
Y-516475D01*
X108535Y-517000D01*
X110109D01*
X112733D02*
X111684D01*
X111159Y-516475D01*
Y-515426D01*
X111684Y-514901D01*
X112733D01*
X113258Y-515426D01*
Y-515950D01*
X111159D01*
X10020Y-517000D02*
Y-514901D01*
X11069Y-513851D01*
X12119Y-514901D01*
Y-517000D01*
Y-515426D01*
X10020D01*
X16317Y-513851D02*
Y-515950D01*
X17366Y-517000D01*
X18416Y-515950D01*
Y-513851D01*
X19990Y-517000D02*
X21040D01*
X21565Y-516475D01*
Y-515426D01*
X21040Y-514901D01*
X19990D01*
X19466Y-515426D01*
Y-516475D01*
X19990Y-517000D01*
X22614D02*
X23664D01*
X23139D01*
Y-513851D01*
X22614D01*
X25763Y-514376D02*
Y-514901D01*
X25238D01*
X26287D01*
X25763D01*
Y-516475D01*
X26287Y-517000D01*
X28387Y-514901D02*
X29436D01*
X29961Y-515426D01*
Y-517000D01*
X28387D01*
X27862Y-516475D01*
X28387Y-515950D01*
X29961D01*
X32060Y-518049D02*
X32585D01*
X33109Y-517525D01*
Y-514901D01*
X31535D01*
X31010Y-515426D01*
Y-516475D01*
X31535Y-517000D01*
X33109D01*
X35733D02*
X34684D01*
X34159Y-516475D01*
Y-515426D01*
X34684Y-514901D01*
X35733D01*
X36258Y-515426D01*
Y-515950D01*
X34159D01*
X64000Y-203245D02*
Y-205541D01*
X64459Y-206000D01*
X65377D01*
X65837Y-205541D01*
Y-203245D01*
X66755Y-206000D02*
X67673D01*
X67214D01*
Y-203245D01*
X66755Y-203704D01*
X69051Y-206459D02*
X70888D01*
X71806Y-206000D02*
Y-204163D01*
X72724Y-203245D01*
X73643Y-204163D01*
Y-206000D01*
Y-204623D01*
X71806D01*
X20755Y-114000D02*
X18459D01*
X18000Y-114459D01*
Y-115377D01*
X18459Y-115837D01*
X20755D01*
X18000Y-116755D02*
Y-117673D01*
Y-117214D01*
X20755D01*
X20296Y-116755D01*
Y-119051D02*
X20755Y-119510D01*
Y-120428D01*
X20296Y-120888D01*
X18459D01*
X18000Y-120428D01*
Y-119510D01*
X18459Y-119051D01*
X20296D01*
X18000Y-121806D02*
Y-122724D01*
Y-122265D01*
X20755D01*
X20296Y-121806D01*
X51755Y-122000D02*
X49459D01*
X49000Y-122459D01*
Y-123378D01*
X49459Y-123837D01*
X51755D01*
X49000Y-124755D02*
Y-125673D01*
Y-125214D01*
X51755D01*
X51296Y-124755D01*
Y-127051D02*
X51755Y-127510D01*
Y-128428D01*
X51296Y-128888D01*
X49459D01*
X49000Y-128428D01*
Y-127510D01*
X49459Y-127051D01*
X51296D01*
X49000Y-131643D02*
Y-129806D01*
X50837Y-131643D01*
X51296D01*
X51755Y-131183D01*
Y-130265D01*
X51296Y-129806D01*
X61000Y-315245D02*
Y-317541D01*
X61459Y-318000D01*
X62378D01*
X62837Y-317541D01*
Y-315245D01*
X63755Y-318000D02*
X64673D01*
X64214D01*
Y-315245D01*
X63755Y-315704D01*
X66051Y-318459D02*
X67888D01*
X68806Y-315245D02*
Y-318000D01*
X70183D01*
X70643Y-317541D01*
Y-317082D01*
X70183Y-316622D01*
X68806D01*
X70183D01*
X70643Y-316163D01*
Y-315704D01*
X70183Y-315245D01*
X68806D01*
D38*
X56685Y-557815D02*
G03*
X56685Y-557815I-492J0D01*
G01*
X61685Y-419815D02*
G03*
X61685Y-419815I-492J0D01*
G01*
X58012Y-89685D02*
G03*
X58012Y-89685I-492J0D01*
G01*
X61185Y-198315D02*
G03*
X61185Y-198315I-492J0D01*
G01*
X79740Y-232217D02*
G03*
X79740Y-232217I-492J0D01*
G01*
X86949Y-101146D02*
G03*
X86949Y-101146I-492J0D01*
G01*
X32484Y-108197D02*
G03*
X32484Y-108197I-492J0D01*
G01*
X64181Y-116000D02*
G03*
X64181Y-116000I-492J0D01*
G01*
X58185Y-310315D02*
G03*
X58185Y-310315I-492J0D01*
G01*
X88240Y-343653D02*
G03*
X88240Y-343653I-492J0D01*
G01*
X63685Y-487815D02*
G03*
X63685Y-487815I-492J0D01*
G01*
D39*
X88500Y-236370D02*
G03*
X88500Y-236370I-787J0D01*
G01*
X97000Y-347807D02*
G03*
X97000Y-347807I-787J0D01*
G01*
D40*
X62567Y-56500D02*
X139500D01*
X62566Y-20600D02*
X62567Y-56500D01*
X139066Y-57000D02*
Y-30500D01*
X2066Y-51500D02*
Y-30934D01*
Y-51500D02*
X62500D01*
X13000Y-20000D02*
X128500D01*
X139250Y-30750D01*
X2566Y-30434D02*
X13000Y-20000D01*
X42066Y-188500D02*
Y-157500D01*
X84066Y-219500D02*
Y-157500D01*
X2066Y-188500D02*
X140066D01*
X84066Y-219500D02*
X140066D01*
X84066Y-329000D02*
X140066D01*
X2066Y-297500D02*
X140066D01*
X84066Y-329000D02*
Y-266500D01*
X42066Y-297500D02*
Y-266500D01*
X41586Y-409000D02*
Y-379000D01*
X83586Y-409000D02*
Y-379000D01*
X86586Y-474000D02*
Y-443000D01*
X44586Y-474000D02*
Y-443000D01*
X1500Y-474000D02*
Y-451000D01*
Y-474000D02*
X140700D01*
X1586Y-541000D02*
X140500D01*
X41586D02*
Y-510000D01*
X83586Y-541000D02*
Y-510000D01*
X1586Y-409000D02*
X140500D01*
Y-541000D02*
Y-517500D01*
X133000Y-510000D02*
X140500Y-517500D01*
X8500Y-510000D02*
X133000D01*
X1586Y-516914D02*
X8500Y-510000D01*
X1586Y-541000D02*
Y-516914D01*
X1500Y-451000D02*
X9500Y-443000D01*
X132500D01*
X140700Y-451200D01*
Y-474000D02*
Y-451200D01*
X140500Y-409000D02*
Y-387500D01*
X132500Y-379500D02*
X140500Y-387500D01*
X1586Y-409000D02*
Y-386914D01*
X9000Y-379500D01*
X132500D01*
X2066Y-297500D02*
Y-276934D01*
X12500Y-266500D01*
X140066Y-329000D02*
Y-277066D01*
X129500Y-266500D02*
X140066Y-277066D01*
X12500Y-266500D02*
X129500D01*
X2066Y-188500D02*
Y-167934D01*
X12500Y-157500D01*
X140066Y-219500D02*
Y-169566D01*
X128000Y-157500D02*
X140066Y-169566D01*
X12500Y-157500D02*
X128000D01*
D41*
X102500Y-54370D02*
X112500D01*
Y-34370D01*
X102500D02*
X112500D01*
X102500Y-54370D02*
Y-34370D01*
X119500Y-54370D02*
X129500D01*
Y-34370D01*
X119500D02*
X129500D01*
X119500Y-54370D02*
Y-34370D01*
X131539Y-68394D02*
Y-67606D01*
X136461Y-68394D02*
Y-67606D01*
X101539Y-68331D02*
Y-67543D01*
X106461Y-68331D02*
Y-67543D01*
X111539Y-68394D02*
Y-67606D01*
X116461Y-68394D02*
Y-67606D01*
X68539Y-71331D02*
Y-70543D01*
X73461Y-71331D02*
Y-70543D01*
X83606Y-63039D02*
X84394D01*
X83606Y-67961D02*
X84394D01*
X86500Y-54500D02*
X96500D01*
Y-34500D01*
X86500D02*
X96500D01*
X86500Y-54500D02*
Y-34500D01*
X70500Y-54500D02*
X80500D01*
Y-34500D01*
X70500D02*
X80500D01*
X70500Y-54500D02*
Y-34500D01*
X60031Y-558898D02*
X63968D01*
X60031Y-571102D02*
X63968D01*
X60031D02*
Y-558898D01*
X63968Y-571102D02*
Y-558898D01*
X89039Y-565894D02*
Y-565106D01*
X93961Y-565894D02*
Y-565106D01*
X35039Y-566894D02*
Y-566106D01*
X39961Y-566894D02*
Y-566106D01*
X130500Y-572000D02*
Y-552000D01*
X140500D01*
Y-572000D02*
Y-552000D01*
X130500Y-572000D02*
X140500D01*
X1500Y-573000D02*
Y-553000D01*
X11500D01*
Y-573000D02*
Y-553000D01*
X1500Y-573000D02*
X11500D01*
X36539Y-429894D02*
Y-429106D01*
X41461Y-429894D02*
Y-429106D01*
X39039Y-495894D02*
Y-495106D01*
X43961Y-495894D02*
Y-495106D01*
X111539Y-429894D02*
Y-429106D01*
X116461Y-429894D02*
Y-429106D01*
X88039Y-496894D02*
Y-496106D01*
X92961Y-496894D02*
Y-496106D01*
X65031Y-420898D02*
X68968D01*
X65031Y-433102D02*
X68968D01*
X65031D02*
Y-420898D01*
X68968Y-433102D02*
Y-420898D01*
X129500Y-503000D02*
Y-483000D01*
X139500D01*
Y-503000D02*
Y-483000D01*
X129500Y-503000D02*
X139500D01*
X51335Y-262846D02*
X55665D01*
X51335Y-256153D02*
X55665D01*
X64650Y-247665D02*
Y-243335D01*
X58350Y-247665D02*
Y-243335D01*
X25039Y-91555D02*
X54961D01*
X25039Y-73445D02*
X54961D01*
Y-91555D02*
Y-89095D01*
X25039Y-91555D02*
Y-89095D01*
X54961Y-75906D02*
Y-73445D01*
X25039Y-75906D02*
Y-73445D01*
X136043Y-147681D02*
Y-134295D01*
X128957Y-147681D02*
Y-134295D01*
X135846Y-147681D02*
X136043D01*
X135846Y-139413D02*
Y-134295D01*
X128957Y-147681D02*
X129154D01*
Y-139413D02*
Y-134295D01*
X118957Y-99114D02*
Y-85728D01*
X126043Y-99114D02*
Y-85728D01*
X118957D02*
X119153D01*
Y-99114D02*
Y-93996D01*
X125847Y-85728D02*
X126043D01*
X125847Y-99114D02*
Y-93996D01*
X4819Y-153043D02*
X18205D01*
X4819Y-145957D02*
X18205D01*
X4819Y-153043D02*
Y-152847D01*
X13087D02*
X18205D01*
X4819Y-146153D02*
Y-145957D01*
X13087Y-146153D02*
X18205D01*
X55295Y-147957D02*
X68681D01*
X55295Y-155043D02*
X68681D01*
Y-148153D02*
Y-147957D01*
X55295Y-148153D02*
X60413D01*
X68681Y-155043D02*
Y-154847D01*
X55295D02*
X60413D01*
X79555Y-122520D02*
Y-112480D01*
Y-122520D02*
X90067D01*
X79555Y-112480D02*
X90067D01*
X104555Y-129520D02*
Y-119480D01*
Y-129520D02*
X115067D01*
X104555Y-119480D02*
X115067D01*
X6500Y-49500D02*
Y-29500D01*
X16500D01*
Y-49500D02*
Y-29500D01*
X6500Y-49500D02*
X16500D01*
X3500Y-242500D02*
Y-222500D01*
X13500D01*
Y-242500D02*
Y-222500D01*
X3500Y-242500D02*
X13500D01*
X130500Y-242000D02*
Y-222000D01*
X140500D01*
Y-242000D02*
Y-222000D01*
X130500Y-242000D02*
X140500D01*
X13039Y-208894D02*
Y-208106D01*
X17961Y-208894D02*
Y-208106D01*
X124961Y-254894D02*
Y-254106D01*
X120039Y-254894D02*
Y-254106D01*
X22043Y-235539D02*
X22831D01*
X22043Y-240461D02*
X22831D01*
X50106Y-235539D02*
X50894D01*
X50106Y-240461D02*
X50894D01*
X109039Y-236894D02*
Y-236106D01*
X113961Y-236894D02*
Y-236106D01*
X109039Y-254894D02*
Y-254106D01*
X113961Y-254894D02*
Y-254106D01*
X34039Y-247394D02*
Y-246606D01*
X38961Y-247394D02*
Y-246606D01*
X131024Y-111894D02*
Y-111106D01*
X126102Y-111894D02*
Y-111106D01*
X136461Y-85831D02*
Y-85043D01*
X131539Y-85831D02*
Y-85043D01*
X68468Y-211602D02*
Y-199398D01*
X64531Y-211602D02*
Y-199398D01*
Y-211602D02*
X68468D01*
X64531Y-199398D02*
X68468D01*
X84563Y-252906D02*
Y-233221D01*
X92437Y-252906D02*
Y-233221D01*
X84563D02*
X92437D01*
X84563Y-252906D02*
X92437D01*
X107343Y-94650D02*
Y-88350D01*
X87657Y-94650D02*
Y-88350D01*
X107343D01*
X87657Y-94650D02*
X107343D01*
X5811Y-112823D02*
X32189D01*
X5811Y-128177D02*
X32189D01*
Y-112823D01*
X5811Y-128177D02*
Y-112823D01*
X37311Y-121216D02*
X63689D01*
X37311Y-135784D02*
X63689D01*
Y-121216D01*
X37311Y-135784D02*
Y-121216D01*
X61335Y-367846D02*
X65665D01*
X61335Y-361154D02*
X65665D01*
X70650Y-350665D02*
Y-346335D01*
X64350Y-350665D02*
Y-346335D01*
X1500Y-353000D02*
Y-333000D01*
X11500D01*
Y-353000D02*
Y-333000D01*
X1500Y-353000D02*
X11500D01*
X131000D02*
Y-333000D01*
X141000D01*
Y-353000D02*
Y-333000D01*
X131000Y-353000D02*
X141000D01*
X13039Y-316894D02*
Y-316106D01*
X17961Y-316894D02*
Y-316106D01*
X127961Y-365394D02*
Y-364606D01*
X123039Y-365394D02*
Y-364606D01*
X23043Y-340039D02*
X23831D01*
X23043Y-344961D02*
X23831D01*
X52106Y-340039D02*
X52894D01*
X52106Y-344961D02*
X52894D01*
X116539Y-342894D02*
Y-342106D01*
X121461Y-342894D02*
Y-342106D01*
X113039Y-363894D02*
Y-363106D01*
X117961Y-363894D02*
Y-363106D01*
X35039Y-349831D02*
Y-349043D01*
X39961Y-349831D02*
Y-349043D01*
X65469Y-323602D02*
Y-311398D01*
X61532Y-323602D02*
Y-311398D01*
Y-323602D02*
X65469D01*
X61532Y-311398D02*
X65469D01*
X93063Y-364342D02*
Y-344657D01*
X100937Y-364342D02*
Y-344657D01*
X93063D02*
X100937D01*
X93063Y-364342D02*
X100937D01*
X1500Y-441063D02*
Y-421063D01*
X11500D01*
Y-441063D02*
Y-421063D01*
X1500Y-441063D02*
X11500D01*
X130000D02*
Y-421063D01*
X140000D01*
Y-441063D02*
Y-421063D01*
X130000Y-441063D02*
X140000D01*
X1500Y-503516D02*
Y-483516D01*
X11500D01*
Y-503516D02*
Y-483516D01*
X1500Y-503516D02*
X11500D01*
X67032Y-488898D02*
X70969D01*
X67032Y-501102D02*
X70969D01*
X67032D02*
Y-488898D01*
X70969Y-501102D02*
Y-488898D01*
D42*
X62000Y-87064D02*
X67248D01*
X64624Y-84440D02*
Y-89688D01*
D43*
X80638Y-117520D02*
D03*
X105638Y-124520D02*
D03*
M02*
