G04 Layer_Color=128*
%FSLAX25Y25*%
%MOIN*%
G70*
G01*
G75*
%ADD19R,0.05118X0.06102*%
%ADD31C,0.01000*%
%ADD32C,0.00591*%
D19*
X123437Y-345500D02*
D03*
X115563D02*
D03*
X116500Y-234500D02*
D03*
X108626D02*
D03*
D31*
X141732Y-598000D02*
Y0D01*
X0D02*
X141732D01*
X0Y-598000D02*
X141732D01*
X0D02*
Y0D01*
D32*
X64000Y-203245D02*
Y-205541D01*
X64459Y-206000D01*
X65377D01*
X65837Y-205541D01*
Y-203245D01*
X66755Y-206000D02*
X67673D01*
X67214D01*
Y-203245D01*
X66755Y-203704D01*
X69051Y-206459D02*
X70888D01*
X71806Y-206000D02*
Y-204163D01*
X72724Y-203245D01*
X73643Y-204163D01*
Y-206000D01*
Y-204623D01*
X71806D01*
X20755Y-114000D02*
X18459D01*
X18000Y-114459D01*
Y-115377D01*
X18459Y-115837D01*
X20755D01*
X18000Y-116755D02*
Y-117673D01*
Y-117214D01*
X20755D01*
X20296Y-116755D01*
Y-119051D02*
X20755Y-119510D01*
Y-120428D01*
X20296Y-120888D01*
X18459D01*
X18000Y-120428D01*
Y-119510D01*
X18459Y-119051D01*
X20296D01*
X18000Y-121806D02*
Y-122724D01*
Y-122265D01*
X20755D01*
X20296Y-121806D01*
X51755Y-122000D02*
X49459D01*
X49000Y-122459D01*
Y-123378D01*
X49459Y-123837D01*
X51755D01*
X49000Y-124755D02*
Y-125673D01*
Y-125214D01*
X51755D01*
X51296Y-124755D01*
Y-127051D02*
X51755Y-127510D01*
Y-128428D01*
X51296Y-128888D01*
X49459D01*
X49000Y-128428D01*
Y-127510D01*
X49459Y-127051D01*
X51296D01*
X49000Y-131643D02*
Y-129806D01*
X50837Y-131643D01*
X51296D01*
X51755Y-131183D01*
Y-130265D01*
X51296Y-129806D01*
X61000Y-315245D02*
Y-317541D01*
X61459Y-318000D01*
X62378D01*
X62837Y-317541D01*
Y-315245D01*
X63755Y-318000D02*
X64673D01*
X64214D01*
Y-315245D01*
X63755Y-315704D01*
X66051Y-318459D02*
X67888D01*
X68806Y-315245D02*
Y-318000D01*
X70183D01*
X70643Y-317541D01*
Y-317082D01*
X70183Y-316622D01*
X68806D01*
X70183D01*
X70643Y-316163D01*
Y-315704D01*
X70183Y-315245D01*
X68806D01*
M02*
