G04 Layer_Color=8421504*
%FSLAX25Y25*%
%MOIN*%
G70*
G01*
G75*
%ADD10R,0.05709X0.04724*%
%ADD11R,0.04724X0.05709*%
G04:AMPARAMS|DCode=12|XSize=25.59mil|YSize=47.24mil|CornerRadius=1.92mil|HoleSize=0mil|Usage=FLASHONLY|Rotation=90.000|XOffset=0mil|YOffset=0mil|HoleType=Round|Shape=RoundedRectangle|*
%AMROUNDEDRECTD12*
21,1,0.02559,0.04341,0,0,90.0*
21,1,0.02175,0.04724,0,0,90.0*
1,1,0.00384,0.02170,0.01088*
1,1,0.00384,0.02170,-0.01088*
1,1,0.00384,-0.02170,-0.01088*
1,1,0.00384,-0.02170,0.01088*
%
%ADD12ROUNDEDRECTD12*%
%ADD13C,0.03937*%
%ADD14R,0.03937X0.03937*%
%ADD15R,0.05315X0.07480*%
%ADD16R,0.07087X0.04528*%
%ADD17R,0.11614X0.10039*%
%ADD18R,0.04724X0.07874*%
%ADD19R,0.05118X0.06102*%
%ADD20R,0.07874X0.04724*%
%ADD21R,0.05034X0.10827*%
%ADD22R,0.03937X0.03937*%
%ADD23O,0.07480X0.02362*%
%ADD24O,0.02756X0.09842*%
G04:AMPARAMS|DCode=25|XSize=35.43mil|YSize=68.9mil|CornerRadius=1.95mil|HoleSize=0mil|Usage=FLASHONLY|Rotation=0.000|XOffset=0mil|YOffset=0mil|HoleType=Round|Shape=RoundedRectangle|*
%AMROUNDEDRECTD25*
21,1,0.03543,0.06500,0,0,0.0*
21,1,0.03154,0.06890,0,0,0.0*
1,1,0.00390,0.01577,-0.03250*
1,1,0.00390,-0.01577,-0.03250*
1,1,0.00390,-0.01577,0.03250*
1,1,0.00390,0.01577,0.03250*
%
%ADD25ROUNDEDRECTD25*%
G04:AMPARAMS|DCode=26|XSize=125.98mil|YSize=68.9mil|CornerRadius=2.07mil|HoleSize=0mil|Usage=FLASHONLY|Rotation=0.000|XOffset=0mil|YOffset=0mil|HoleType=Round|Shape=RoundedRectangle|*
%AMROUNDEDRECTD26*
21,1,0.12598,0.06476,0,0,0.0*
21,1,0.12185,0.06890,0,0,0.0*
1,1,0.00413,0.06093,-0.03238*
1,1,0.00413,-0.06093,-0.03238*
1,1,0.00413,-0.06093,0.03238*
1,1,0.00413,0.06093,0.03238*
%
%ADD26ROUNDEDRECTD26*%
G04:AMPARAMS|DCode=27|XSize=39.37mil|YSize=80.71mil|CornerRadius=1.97mil|HoleSize=0mil|Usage=FLASHONLY|Rotation=0.000|XOffset=0mil|YOffset=0mil|HoleType=Round|Shape=RoundedRectangle|*
%AMROUNDEDRECTD27*
21,1,0.03937,0.07677,0,0,0.0*
21,1,0.03543,0.08071,0,0,0.0*
1,1,0.00394,0.01772,-0.03839*
1,1,0.00394,-0.01772,-0.03839*
1,1,0.00394,-0.01772,0.03839*
1,1,0.00394,0.01772,0.03839*
%
%ADD27ROUNDEDRECTD27*%
G04:AMPARAMS|DCode=28|XSize=127.95mil|YSize=80.71mil|CornerRadius=2.02mil|HoleSize=0mil|Usage=FLASHONLY|Rotation=0.000|XOffset=0mil|YOffset=0mil|HoleType=Round|Shape=RoundedRectangle|*
%AMROUNDEDRECTD28*
21,1,0.12795,0.07667,0,0,0.0*
21,1,0.12392,0.08071,0,0,0.0*
1,1,0.00404,0.06196,-0.03834*
1,1,0.00404,-0.06196,-0.03834*
1,1,0.00404,-0.06196,0.03834*
1,1,0.00404,0.06196,0.03834*
%
%ADD28ROUNDEDRECTD28*%
%ADD31C,0.01000*%
%ADD32C,0.00591*%
D10*
X134000Y-71937D02*
D03*
Y-64063D02*
D03*
X104000Y-71874D02*
D03*
Y-64000D02*
D03*
X114000Y-71937D02*
D03*
Y-64063D02*
D03*
X71000Y-74874D02*
D03*
Y-67000D02*
D03*
X91500Y-569437D02*
D03*
Y-561563D02*
D03*
X37500Y-570437D02*
D03*
Y-562563D02*
D03*
X39000Y-433437D02*
D03*
Y-425563D02*
D03*
X41500Y-499437D02*
D03*
Y-491563D02*
D03*
X114000Y-433437D02*
D03*
Y-425563D02*
D03*
X90500Y-500437D02*
D03*
Y-492563D02*
D03*
X15500Y-212437D02*
D03*
Y-204563D02*
D03*
X122500Y-250563D02*
D03*
Y-258437D02*
D03*
X111500Y-240437D02*
D03*
Y-232563D02*
D03*
Y-258437D02*
D03*
Y-250563D02*
D03*
X36500Y-250937D02*
D03*
Y-243063D02*
D03*
X128563Y-107563D02*
D03*
Y-115437D02*
D03*
X134000Y-81500D02*
D03*
Y-89374D02*
D03*
X15500Y-320437D02*
D03*
Y-312563D02*
D03*
X125500Y-361063D02*
D03*
Y-368937D02*
D03*
X119000Y-346437D02*
D03*
Y-338563D02*
D03*
X115500Y-367437D02*
D03*
Y-359563D02*
D03*
X37500Y-353374D02*
D03*
Y-345500D02*
D03*
D11*
X80063Y-65500D02*
D03*
X87937D02*
D03*
X18500Y-238000D02*
D03*
X26374D02*
D03*
X46563D02*
D03*
X54437D02*
D03*
X19500Y-342500D02*
D03*
X27374D02*
D03*
X48563D02*
D03*
X56437D02*
D03*
D12*
X56193Y-561260D02*
D03*
Y-565000D02*
D03*
Y-568740D02*
D03*
X67807D02*
D03*
Y-565000D02*
D03*
Y-561260D02*
D03*
X61193Y-423260D02*
D03*
Y-427000D02*
D03*
Y-430740D02*
D03*
X72807D02*
D03*
Y-427000D02*
D03*
Y-423260D02*
D03*
X72307Y-201760D02*
D03*
Y-205500D02*
D03*
Y-209240D02*
D03*
X60693D02*
D03*
Y-205500D02*
D03*
Y-201760D02*
D03*
X69307Y-313760D02*
D03*
Y-317500D02*
D03*
Y-321240D02*
D03*
X57693D02*
D03*
Y-317500D02*
D03*
Y-313760D02*
D03*
X63193Y-491260D02*
D03*
Y-495000D02*
D03*
Y-498740D02*
D03*
X74807D02*
D03*
Y-495000D02*
D03*
Y-491260D02*
D03*
D13*
X50000Y-526000D02*
D03*
X59500D02*
D03*
X50000Y-535000D02*
D03*
X59500D02*
D03*
X100252Y-523000D02*
D03*
X90752D02*
D03*
X90500Y-530000D02*
D03*
X100000D02*
D03*
X100500Y-536000D02*
D03*
X91000D02*
D03*
X25500Y-522000D02*
D03*
X35000D02*
D03*
Y-530000D02*
D03*
X25500D02*
D03*
Y-537000D02*
D03*
X35000D02*
D03*
X26500Y-405000D02*
D03*
X36000D02*
D03*
X27500Y-470000D02*
D03*
X37000D02*
D03*
X36000Y-398000D02*
D03*
X26500D02*
D03*
X37000Y-463000D02*
D03*
X27500D02*
D03*
X26500Y-391000D02*
D03*
X36000D02*
D03*
X27500Y-456000D02*
D03*
X37000D02*
D03*
X100252Y-405000D02*
D03*
X90752D02*
D03*
X104000Y-470000D02*
D03*
X94500D02*
D03*
X90752Y-398000D02*
D03*
X100252D02*
D03*
X94500Y-463000D02*
D03*
X104000D02*
D03*
X100252Y-391000D02*
D03*
X90752D02*
D03*
X104000Y-456000D02*
D03*
X94500D02*
D03*
X48693Y-403000D02*
D03*
X58193D02*
D03*
X53000Y-468000D02*
D03*
X62500D02*
D03*
X48500Y-394000D02*
D03*
X58000D02*
D03*
X52500Y-460000D02*
D03*
X62000D02*
D03*
X59000Y-182500D02*
D03*
X49500D02*
D03*
X59000Y-173500D02*
D03*
X49500D02*
D03*
X36500Y-183500D02*
D03*
X27000D02*
D03*
Y-176500D02*
D03*
X36500D02*
D03*
Y-169500D02*
D03*
X27000D02*
D03*
X92000Y-182500D02*
D03*
X101500D02*
D03*
Y-176500D02*
D03*
X92000D02*
D03*
Y-170500D02*
D03*
X101500D02*
D03*
X90500Y-216000D02*
D03*
Y-206500D02*
D03*
X132500Y-215500D02*
D03*
Y-206000D02*
D03*
X115000Y-199760D02*
D03*
X105500D02*
D03*
X59500Y-292500D02*
D03*
X50000D02*
D03*
X59437Y-283500D02*
D03*
X49937D02*
D03*
X35500Y-292500D02*
D03*
X26000D02*
D03*
Y-285500D02*
D03*
X35500D02*
D03*
Y-278500D02*
D03*
X26000D02*
D03*
X97000Y-292500D02*
D03*
X106500D02*
D03*
Y-285500D02*
D03*
X97000D02*
D03*
Y-278500D02*
D03*
X106500D02*
D03*
X95000Y-325000D02*
D03*
Y-315500D02*
D03*
X131500Y-325000D02*
D03*
Y-315500D02*
D03*
X117000Y-309500D02*
D03*
X107500D02*
D03*
D14*
X52000Y-526000D02*
D03*
X57500D02*
D03*
X52000Y-535000D02*
D03*
X57500D02*
D03*
X98252Y-523000D02*
D03*
X92752D02*
D03*
X92500Y-530000D02*
D03*
X98000D02*
D03*
X98500Y-536000D02*
D03*
X93000D02*
D03*
X27500Y-522000D02*
D03*
X33000D02*
D03*
Y-530000D02*
D03*
X27500D02*
D03*
Y-537000D02*
D03*
X33000D02*
D03*
X28500Y-405000D02*
D03*
X34000D02*
D03*
X29500Y-470000D02*
D03*
X35000D02*
D03*
X34000Y-398000D02*
D03*
X28500D02*
D03*
X35000Y-463000D02*
D03*
X29500D02*
D03*
X28500Y-391000D02*
D03*
X34000D02*
D03*
X29500Y-456000D02*
D03*
X35000D02*
D03*
X98252Y-405000D02*
D03*
X92752D02*
D03*
X102000Y-470000D02*
D03*
X96500D02*
D03*
X92752Y-398000D02*
D03*
X98252D02*
D03*
X96500Y-463000D02*
D03*
X102000D02*
D03*
X98252Y-391000D02*
D03*
X92752D02*
D03*
X102000Y-456000D02*
D03*
X96500D02*
D03*
X50693Y-403000D02*
D03*
X56193D02*
D03*
X55000Y-468000D02*
D03*
X60500D02*
D03*
X50500Y-394000D02*
D03*
X56000D02*
D03*
X54500Y-460000D02*
D03*
X60000D02*
D03*
X57000Y-182500D02*
D03*
X51500D02*
D03*
X57000Y-173500D02*
D03*
X51500D02*
D03*
X34500Y-183500D02*
D03*
X29000D02*
D03*
Y-176500D02*
D03*
X34500D02*
D03*
Y-169500D02*
D03*
X29000D02*
D03*
X94000Y-182500D02*
D03*
X99500D02*
D03*
Y-176500D02*
D03*
X94000D02*
D03*
Y-170500D02*
D03*
X99500D02*
D03*
X113000Y-199760D02*
D03*
X107500D02*
D03*
X57500Y-292500D02*
D03*
X52000D02*
D03*
X57437Y-283500D02*
D03*
X51937D02*
D03*
X33500Y-292500D02*
D03*
X28000D02*
D03*
Y-285500D02*
D03*
X33500D02*
D03*
Y-278500D02*
D03*
X28000D02*
D03*
X99000Y-292500D02*
D03*
X104500D02*
D03*
Y-285500D02*
D03*
X99000D02*
D03*
Y-278500D02*
D03*
X104500D02*
D03*
X115000Y-309500D02*
D03*
X109500D02*
D03*
D15*
X59799Y-259500D02*
D03*
X47201D02*
D03*
X69799Y-364500D02*
D03*
X57201D02*
D03*
D16*
X61500Y-239595D02*
D03*
Y-251406D02*
D03*
X67500Y-342595D02*
D03*
Y-354405D02*
D03*
D17*
X52303Y-82500D02*
D03*
X27697D02*
D03*
D18*
X132500Y-135476D02*
D03*
Y-146500D02*
D03*
X122500Y-97933D02*
D03*
Y-86910D02*
D03*
D19*
X88563Y-138500D02*
D03*
X96437D02*
D03*
D20*
X17024Y-149500D02*
D03*
X6000D02*
D03*
X56476Y-151500D02*
D03*
X67500D02*
D03*
D21*
X93610Y-117500D02*
D03*
X75500D02*
D03*
X118610Y-124500D02*
D03*
X100500D02*
D03*
D22*
X90500Y-214000D02*
D03*
Y-208500D02*
D03*
X132500Y-213500D02*
D03*
Y-208000D02*
D03*
X95000Y-323000D02*
D03*
Y-317500D02*
D03*
X131500Y-323000D02*
D03*
Y-317500D02*
D03*
D23*
X79248Y-235563D02*
D03*
Y-240563D02*
D03*
Y-245563D02*
D03*
Y-250563D02*
D03*
X97752Y-235563D02*
D03*
Y-240563D02*
D03*
Y-245563D02*
D03*
Y-250563D02*
D03*
X87748Y-347000D02*
D03*
Y-352000D02*
D03*
Y-357000D02*
D03*
Y-362000D02*
D03*
X106252Y-347000D02*
D03*
Y-352000D02*
D03*
Y-357000D02*
D03*
Y-362000D02*
D03*
D24*
X105000Y-81854D02*
D03*
X100000D02*
D03*
X95000D02*
D03*
X90000D02*
D03*
X105000Y-101146D02*
D03*
X100000D02*
D03*
X95000D02*
D03*
X90000D02*
D03*
D25*
X28055Y-108197D02*
D03*
X19000D02*
D03*
X9945D02*
D03*
D26*
X19000Y-132803D02*
D03*
D27*
X59555Y-116000D02*
D03*
X50500D02*
D03*
X41445D02*
D03*
D28*
X50500Y-141000D02*
D03*
D31*
X141732Y-598000D02*
Y0D01*
X0D02*
X141732D01*
X0Y-598000D02*
X141732D01*
X0D02*
Y0D01*
D32*
X64000Y-203245D02*
Y-205541D01*
X64459Y-206000D01*
X65377D01*
X65837Y-205541D01*
Y-203245D01*
X66755Y-206000D02*
X67673D01*
X67214D01*
Y-203245D01*
X66755Y-203704D01*
X69051Y-206459D02*
X70888D01*
X71806Y-206000D02*
Y-204163D01*
X72724Y-203245D01*
X73643Y-204163D01*
Y-206000D01*
Y-204623D01*
X71806D01*
X20755Y-114000D02*
X18459D01*
X18000Y-114459D01*
Y-115377D01*
X18459Y-115837D01*
X20755D01*
X18000Y-116755D02*
Y-117673D01*
Y-117214D01*
X20755D01*
X20296Y-116755D01*
Y-119051D02*
X20755Y-119510D01*
Y-120428D01*
X20296Y-120888D01*
X18459D01*
X18000Y-120428D01*
Y-119510D01*
X18459Y-119051D01*
X20296D01*
X18000Y-121806D02*
Y-122724D01*
Y-122265D01*
X20755D01*
X20296Y-121806D01*
X51755Y-122000D02*
X49459D01*
X49000Y-122459D01*
Y-123378D01*
X49459Y-123837D01*
X51755D01*
X49000Y-124755D02*
Y-125673D01*
Y-125214D01*
X51755D01*
X51296Y-124755D01*
Y-127051D02*
X51755Y-127510D01*
Y-128428D01*
X51296Y-128888D01*
X49459D01*
X49000Y-128428D01*
Y-127510D01*
X49459Y-127051D01*
X51296D01*
X49000Y-131643D02*
Y-129806D01*
X50837Y-131643D01*
X51296D01*
X51755Y-131183D01*
Y-130265D01*
X51296Y-129806D01*
X61000Y-315245D02*
Y-317541D01*
X61459Y-318000D01*
X62378D01*
X62837Y-317541D01*
Y-315245D01*
X63755Y-318000D02*
X64673D01*
X64214D01*
Y-315245D01*
X63755Y-315704D01*
X66051Y-318459D02*
X67888D01*
X68806Y-315245D02*
Y-318000D01*
X70183D01*
X70643Y-317541D01*
Y-317082D01*
X70183Y-316622D01*
X68806D01*
X70183D01*
X70643Y-316163D01*
Y-315704D01*
X70183Y-315245D01*
X68806D01*
M02*
