G04 Layer_Physical_Order=1*
G04 Layer_Color=255*
%FSLAX25Y25*%
%MOIN*%
G70*
G01*
G75*
%ADD10R,0.05709X0.04724*%
%ADD11R,0.04724X0.05709*%
G04:AMPARAMS|DCode=12|XSize=25.59mil|YSize=47.24mil|CornerRadius=1.92mil|HoleSize=0mil|Usage=FLASHONLY|Rotation=90.000|XOffset=0mil|YOffset=0mil|HoleType=Round|Shape=RoundedRectangle|*
%AMROUNDEDRECTD12*
21,1,0.02559,0.04341,0,0,90.0*
21,1,0.02175,0.04724,0,0,90.0*
1,1,0.00384,0.02170,0.01088*
1,1,0.00384,0.02170,-0.01088*
1,1,0.00384,-0.02170,-0.01088*
1,1,0.00384,-0.02170,0.01088*
%
%ADD12ROUNDEDRECTD12*%
%ADD13C,0.03937*%
%ADD14R,0.03937X0.03937*%
%ADD15R,0.05315X0.07480*%
%ADD16R,0.07087X0.04528*%
%ADD17R,0.11614X0.10039*%
%ADD18R,0.04724X0.07874*%
%ADD19R,0.05118X0.06102*%
%ADD20R,0.07874X0.04724*%
%ADD21R,0.05034X0.10827*%
%ADD22R,0.03937X0.03937*%
%ADD23O,0.07480X0.02362*%
%ADD24O,0.02756X0.09842*%
G04:AMPARAMS|DCode=25|XSize=35.43mil|YSize=68.9mil|CornerRadius=1.95mil|HoleSize=0mil|Usage=FLASHONLY|Rotation=0.000|XOffset=0mil|YOffset=0mil|HoleType=Round|Shape=RoundedRectangle|*
%AMROUNDEDRECTD25*
21,1,0.03543,0.06500,0,0,0.0*
21,1,0.03154,0.06890,0,0,0.0*
1,1,0.00390,0.01577,-0.03250*
1,1,0.00390,-0.01577,-0.03250*
1,1,0.00390,-0.01577,0.03250*
1,1,0.00390,0.01577,0.03250*
%
%ADD25ROUNDEDRECTD25*%
G04:AMPARAMS|DCode=26|XSize=125.98mil|YSize=68.9mil|CornerRadius=2.07mil|HoleSize=0mil|Usage=FLASHONLY|Rotation=0.000|XOffset=0mil|YOffset=0mil|HoleType=Round|Shape=RoundedRectangle|*
%AMROUNDEDRECTD26*
21,1,0.12598,0.06476,0,0,0.0*
21,1,0.12185,0.06890,0,0,0.0*
1,1,0.00413,0.06093,-0.03238*
1,1,0.00413,-0.06093,-0.03238*
1,1,0.00413,-0.06093,0.03238*
1,1,0.00413,0.06093,0.03238*
%
%ADD26ROUNDEDRECTD26*%
G04:AMPARAMS|DCode=27|XSize=39.37mil|YSize=80.71mil|CornerRadius=1.97mil|HoleSize=0mil|Usage=FLASHONLY|Rotation=0.000|XOffset=0mil|YOffset=0mil|HoleType=Round|Shape=RoundedRectangle|*
%AMROUNDEDRECTD27*
21,1,0.03937,0.07677,0,0,0.0*
21,1,0.03543,0.08071,0,0,0.0*
1,1,0.00394,0.01772,-0.03839*
1,1,0.00394,-0.01772,-0.03839*
1,1,0.00394,-0.01772,0.03839*
1,1,0.00394,0.01772,0.03839*
%
%ADD27ROUNDEDRECTD27*%
G04:AMPARAMS|DCode=28|XSize=127.95mil|YSize=80.71mil|CornerRadius=2.02mil|HoleSize=0mil|Usage=FLASHONLY|Rotation=0.000|XOffset=0mil|YOffset=0mil|HoleType=Round|Shape=RoundedRectangle|*
%AMROUNDEDRECTD28*
21,1,0.12795,0.07667,0,0,0.0*
21,1,0.12392,0.08071,0,0,0.0*
1,1,0.00404,0.06196,-0.03834*
1,1,0.00404,-0.06196,-0.03834*
1,1,0.00404,-0.06196,0.03834*
1,1,0.00404,0.06196,0.03834*
%
%ADD28ROUNDEDRECTD28*%
%ADD29C,0.01400*%
%ADD30C,0.03000*%
%ADD31C,0.01000*%
%ADD32C,0.00591*%
%ADD33C,0.06299*%
%ADD34R,0.06299X0.06299*%
%ADD35C,0.13000*%
%ADD36C,0.02756*%
%ADD37C,0.05000*%
G36*
X141732Y-598000D02*
X0D01*
Y0D01*
X141732D01*
Y-598000D01*
D02*
G37*
%LPC*%
G36*
X125000Y-365575D02*
X121646D01*
Y-369209D01*
X121205Y-369445D01*
X120928Y-369260D01*
X120500Y-369175D01*
Y-371500D01*
Y-373825D01*
X120928Y-373740D01*
X121714Y-373214D01*
X122240Y-372428D01*
X122266Y-372299D01*
X124246D01*
X124482Y-372740D01*
X124260Y-373072D01*
X124175Y-373500D01*
X128825D01*
X128740Y-373072D01*
X128518Y-372740D01*
X128754Y-372299D01*
X129354D01*
Y-369437D01*
X125500D01*
Y-368937D01*
X125000D01*
Y-365575D01*
D02*
G37*
G36*
X115000Y-367937D02*
X111646D01*
Y-370799D01*
X115000D01*
Y-367937D01*
D02*
G37*
G36*
X15500Y-367000D02*
X13675D01*
X13760Y-367428D01*
X14286Y-368214D01*
X15072Y-368740D01*
X15500Y-368825D01*
Y-367000D01*
D02*
G37*
G36*
X129354Y-365575D02*
X126000D01*
Y-368437D01*
X129354D01*
Y-365575D01*
D02*
G37*
G36*
X18325Y-367000D02*
X16500D01*
Y-368825D01*
X16928Y-368740D01*
X17714Y-368214D01*
X18240Y-367428D01*
X18325Y-367000D01*
D02*
G37*
G36*
X24500Y-367220D02*
X23586Y-367340D01*
X22735Y-367693D01*
X22004Y-368254D01*
X21443Y-368985D01*
X21090Y-369836D01*
X20970Y-370750D01*
X21090Y-371664D01*
X21443Y-372515D01*
X22004Y-373246D01*
X22735Y-373807D01*
X23586Y-374160D01*
X24414Y-374269D01*
X24948Y-374802D01*
X25774Y-375355D01*
X26750Y-375549D01*
X40944D01*
X55451Y-390056D01*
Y-391032D01*
X53031D01*
Y-391231D01*
X48682D01*
X48500Y-391208D01*
X48318Y-391231D01*
X47732D01*
Y-391322D01*
X47104Y-391582D01*
X46525Y-392025D01*
X46082Y-392604D01*
X45803Y-393277D01*
X45708Y-394000D01*
X45803Y-394723D01*
X46082Y-395396D01*
X46525Y-395974D01*
X47104Y-396418D01*
X47732Y-396678D01*
Y-396768D01*
X48318D01*
X48500Y-396792D01*
X48971Y-397000D01*
X49087Y-397585D01*
X49419Y-398081D01*
X50907Y-399570D01*
X50715Y-400032D01*
X49193D01*
Y-403000D01*
Y-405969D01*
X50193D01*
Y-403000D01*
X51193D01*
Y-405969D01*
X53661D01*
Y-405768D01*
X55606D01*
X65471Y-415633D01*
Y-425063D01*
X65587Y-425648D01*
X65919Y-426144D01*
X67856Y-428082D01*
X68352Y-428413D01*
X68937Y-428529D01*
X69639D01*
X69839Y-428817D01*
X69907Y-428960D01*
X69702Y-429265D01*
X69626Y-429653D01*
Y-431828D01*
X69702Y-432215D01*
X69922Y-432543D01*
X70250Y-432762D01*
X70637Y-432839D01*
X74977D01*
X75364Y-432762D01*
X75692Y-432543D01*
X75875Y-432269D01*
X82260D01*
X82845Y-432153D01*
X83341Y-431822D01*
X88070Y-427092D01*
X110346D01*
Y-428725D01*
X117654D01*
Y-427092D01*
X131152D01*
X131152Y-427094D01*
X131550Y-428055D01*
X132183Y-428880D01*
X133008Y-429513D01*
X133969Y-429911D01*
X135000Y-430047D01*
X136031Y-429911D01*
X136992Y-429513D01*
X137817Y-428880D01*
X138450Y-428055D01*
X138848Y-427094D01*
X138984Y-426063D01*
X138848Y-425032D01*
X138450Y-424071D01*
X137817Y-423246D01*
X136992Y-422613D01*
X136031Y-422215D01*
X135000Y-422079D01*
X133969Y-422215D01*
X133008Y-422613D01*
X132183Y-423246D01*
X131579Y-424034D01*
X117654D01*
Y-422401D01*
X110346D01*
Y-424034D01*
X87437D01*
X86852Y-424150D01*
X86356Y-424481D01*
X81626Y-429211D01*
X75975D01*
X75776Y-428923D01*
X75708Y-428780D01*
X75912Y-428475D01*
X75989Y-428088D01*
Y-425912D01*
X75912Y-425525D01*
X75692Y-425197D01*
Y-425063D01*
X75912Y-424734D01*
X75989Y-424347D01*
Y-423926D01*
X92146Y-407768D01*
X95284D01*
Y-407969D01*
X100057D01*
X100252Y-407994D01*
X100447Y-407969D01*
X101221D01*
Y-407812D01*
X101749Y-407593D01*
X101806Y-407549D01*
X102573D01*
X103235Y-408057D01*
X104086Y-408410D01*
X105000Y-408530D01*
X105914Y-408410D01*
X106765Y-408057D01*
X107496Y-407496D01*
X108057Y-406765D01*
X108410Y-405914D01*
X108530Y-405000D01*
X108410Y-404086D01*
X108057Y-403235D01*
X107496Y-402504D01*
X106765Y-401943D01*
X106350Y-401771D01*
Y-401229D01*
X106765Y-401057D01*
X107496Y-400496D01*
X108057Y-399765D01*
X108410Y-398914D01*
X108530Y-398000D01*
X108410Y-397086D01*
X108057Y-396235D01*
X107496Y-395504D01*
X106765Y-394943D01*
X105914Y-394590D01*
X105816Y-394577D01*
X105749Y-394064D01*
X105765Y-394057D01*
X106496Y-393496D01*
X107057Y-392765D01*
X107410Y-391914D01*
X107530Y-391000D01*
X107410Y-390086D01*
X107057Y-389235D01*
X106496Y-388504D01*
X105765Y-387943D01*
X104914Y-387590D01*
X104000Y-387470D01*
X103086Y-387590D01*
X102235Y-387943D01*
X101672Y-388375D01*
X101221Y-388188D01*
Y-388032D01*
X100447D01*
X100252Y-388006D01*
X100057Y-388032D01*
X95284D01*
Y-388231D01*
X90933D01*
X90752Y-388208D01*
X90570Y-388231D01*
X89983D01*
Y-388322D01*
X89356Y-388582D01*
X88777Y-389025D01*
X88334Y-389604D01*
X88055Y-390277D01*
X87960Y-391000D01*
X88055Y-391723D01*
X88334Y-392396D01*
X88777Y-392974D01*
X89223Y-393316D01*
Y-395684D01*
X88777Y-396025D01*
X88334Y-396604D01*
X88055Y-397277D01*
X87960Y-398000D01*
X88055Y-398723D01*
X88334Y-399396D01*
X88777Y-399974D01*
X89223Y-400316D01*
Y-402684D01*
X88777Y-403025D01*
X88334Y-403604D01*
X88055Y-404277D01*
X87960Y-405000D01*
X88055Y-405723D01*
X88334Y-406396D01*
X88707Y-406882D01*
X74428Y-421161D01*
X70637D01*
X70250Y-421238D01*
X69922Y-421457D01*
X69702Y-421785D01*
X69626Y-422172D01*
Y-424347D01*
X69696Y-424705D01*
X69697Y-424744D01*
X69643Y-424836D01*
X69017Y-424917D01*
X68529Y-424430D01*
Y-415000D01*
X68413Y-414415D01*
X68081Y-413919D01*
X59941Y-405778D01*
X59985Y-405115D01*
X60167Y-404975D01*
X60611Y-404396D01*
X60890Y-403723D01*
X60985Y-403000D01*
X60890Y-402277D01*
X60611Y-401604D01*
X60167Y-401025D01*
X59589Y-400582D01*
X58961Y-400322D01*
Y-400232D01*
X58374D01*
X58193Y-400208D01*
X58012Y-400232D01*
X57587D01*
X55274Y-397919D01*
X54778Y-397587D01*
X54193Y-397471D01*
X53672D01*
X53670Y-397468D01*
X53938Y-396969D01*
X57805D01*
X58000Y-396994D01*
X58195Y-396969D01*
X58969D01*
Y-396812D01*
X59497Y-396593D01*
X60117Y-396117D01*
X60593Y-395497D01*
X60892Y-394775D01*
X60994Y-394000D01*
X60892Y-393225D01*
X60593Y-392503D01*
X60549Y-392446D01*
Y-389000D01*
X60355Y-388024D01*
X59802Y-387198D01*
X43802Y-371198D01*
X42976Y-370645D01*
X42000Y-370451D01*
X27991D01*
X27910Y-369836D01*
X27557Y-368985D01*
X26996Y-368254D01*
X26265Y-367693D01*
X25414Y-367340D01*
X24500Y-367220D01*
D02*
G37*
G36*
X48193Y-400032D02*
X47724D01*
Y-400188D01*
X47196Y-400407D01*
X46576Y-400883D01*
X46418Y-401088D01*
X45928Y-400760D01*
X45500Y-400675D01*
Y-403000D01*
Y-405325D01*
X45928Y-405240D01*
X46418Y-404912D01*
X46576Y-405117D01*
X47196Y-405593D01*
X47724Y-405812D01*
Y-405969D01*
X48193D01*
Y-403000D01*
Y-400032D01*
D02*
G37*
G36*
X126000Y-374500D02*
X124175D01*
X124260Y-374928D01*
X124786Y-375714D01*
X125572Y-376240D01*
X126000Y-376325D01*
Y-374500D01*
D02*
G37*
G36*
X119354Y-367937D02*
X116000D01*
Y-370799D01*
X116699D01*
X117619Y-371719D01*
X117760Y-372428D01*
X118286Y-373214D01*
X119072Y-373740D01*
X119500Y-373825D01*
Y-371500D01*
Y-368814D01*
X119354Y-368694D01*
Y-367937D01*
D02*
G37*
G36*
X128825Y-374500D02*
X127000D01*
Y-376325D01*
X127428Y-376240D01*
X128214Y-375714D01*
X128740Y-374928D01*
X128825Y-374500D01*
D02*
G37*
G36*
X108811Y-359980D02*
X103693D01*
X102920Y-360134D01*
X102265Y-360572D01*
X101827Y-361227D01*
X101673Y-362000D01*
X101827Y-362773D01*
X102265Y-363428D01*
X102920Y-363866D01*
X103693Y-364020D01*
X108811D01*
X109584Y-363866D01*
X110239Y-363428D01*
X110677Y-362773D01*
X110831Y-362000D01*
X110677Y-361227D01*
X110239Y-360572D01*
X109584Y-360134D01*
X108811Y-359980D01*
D02*
G37*
G36*
X92431Y-362500D02*
X88248D01*
Y-364224D01*
X90307D01*
X91158Y-364055D01*
X91880Y-363573D01*
X92362Y-362851D01*
X92431Y-362500D01*
D02*
G37*
G36*
X82000Y-360175D02*
X81572Y-360260D01*
X80786Y-360786D01*
X80260Y-361572D01*
X80175Y-362000D01*
X82000D01*
Y-360175D01*
D02*
G37*
G36*
X87248Y-359776D02*
X85189D01*
X84338Y-359945D01*
X83648Y-360407D01*
X83428Y-360260D01*
X83000Y-360175D01*
Y-362500D01*
Y-364825D01*
X83428Y-364740D01*
X84214Y-364214D01*
X84326Y-364047D01*
X84338Y-364055D01*
X85189Y-364224D01*
X87248D01*
Y-362000D01*
Y-359776D01*
D02*
G37*
G36*
X90307D02*
X88248D01*
Y-361500D01*
X92431D01*
X92362Y-361149D01*
X91880Y-360427D01*
X91158Y-359945D01*
X90307Y-359776D01*
D02*
G37*
G36*
X119354Y-364075D02*
X116000D01*
Y-366937D01*
X119354D01*
Y-364075D01*
D02*
G37*
G36*
X115000D02*
X111646D01*
Y-366937D01*
X115000D01*
Y-364075D01*
D02*
G37*
G36*
X15500Y-364175D02*
X15072Y-364260D01*
X14286Y-364786D01*
X13760Y-365572D01*
X13675Y-366000D01*
X15500D01*
Y-364175D01*
D02*
G37*
G36*
X82000Y-363000D02*
X80175D01*
X80260Y-363428D01*
X80786Y-364214D01*
X81572Y-364740D01*
X82000Y-364825D01*
Y-363000D01*
D02*
G37*
G36*
X16500Y-364175D02*
Y-366000D01*
X18325D01*
X18240Y-365572D01*
X17714Y-364786D01*
X16928Y-364260D01*
X16500Y-364175D01*
D02*
G37*
G36*
X134500Y-431913D02*
X130850D01*
Y-435563D01*
X134500D01*
Y-431913D01*
D02*
G37*
G36*
X6000D02*
X2350D01*
Y-435563D01*
X6000D01*
Y-431913D01*
D02*
G37*
G36*
X10650D02*
X7000D01*
Y-435563D01*
X10650D01*
Y-431913D01*
D02*
G37*
G36*
X38500Y-430075D02*
X35146D01*
Y-432937D01*
X38500D01*
Y-430075D01*
D02*
G37*
G36*
X139150Y-431913D02*
X135500D01*
Y-435563D01*
X139150D01*
Y-431913D01*
D02*
G37*
G36*
X51500Y-435675D02*
Y-437500D01*
X53325D01*
X53240Y-437072D01*
X52714Y-436286D01*
X51928Y-435760D01*
X51500Y-435675D01*
D02*
G37*
G36*
X50500D02*
X50072Y-435760D01*
X49286Y-436286D01*
X48760Y-437072D01*
X48675Y-437500D01*
X50500D01*
Y-435675D01*
D02*
G37*
G36*
X80500D02*
X80072Y-435760D01*
X79286Y-436286D01*
X78760Y-437072D01*
X78675Y-437500D01*
X80500D01*
Y-435675D01*
D02*
G37*
G36*
X117854Y-433937D02*
X114000D01*
X110146D01*
Y-436799D01*
X111387D01*
X111715Y-437299D01*
X111675Y-437500D01*
X116325D01*
X116285Y-437299D01*
X116613Y-436799D01*
X117854D01*
Y-433937D01*
D02*
G37*
G36*
X81500Y-435675D02*
Y-437500D01*
X83325D01*
X83240Y-437072D01*
X82714Y-436286D01*
X81928Y-435760D01*
X81500Y-435675D01*
D02*
G37*
G36*
X111000Y-412175D02*
X110572Y-412260D01*
X109786Y-412786D01*
X109260Y-413572D01*
X109175Y-414000D01*
X111000D01*
Y-412175D01*
D02*
G37*
G36*
X113825Y-415000D02*
X112000D01*
Y-416825D01*
X112428Y-416740D01*
X113214Y-416214D01*
X113740Y-415428D01*
X113825Y-415000D01*
D02*
G37*
G36*
X112000Y-412175D02*
Y-414000D01*
X113825D01*
X113740Y-413572D01*
X113214Y-412786D01*
X112428Y-412260D01*
X112000Y-412175D01*
D02*
G37*
G36*
X44500Y-400675D02*
X44072Y-400760D01*
X43286Y-401286D01*
X42760Y-402072D01*
X42675Y-402500D01*
X44500D01*
Y-400675D01*
D02*
G37*
G36*
Y-403500D02*
X42675D01*
X42760Y-403928D01*
X43286Y-404714D01*
X44072Y-405240D01*
X44500Y-405325D01*
Y-403500D01*
D02*
G37*
G36*
X117854Y-430075D02*
X114500D01*
Y-432937D01*
X117854D01*
Y-430075D01*
D02*
G37*
G36*
X113500D02*
X110146D01*
Y-432937D01*
X113500D01*
Y-430075D01*
D02*
G37*
G36*
X42854D02*
X39500D01*
Y-432937D01*
X42854D01*
Y-430075D01*
D02*
G37*
G36*
X111000Y-415000D02*
X109175D01*
X109260Y-415428D01*
X109786Y-416214D01*
X110572Y-416740D01*
X111000Y-416825D01*
Y-415000D01*
D02*
G37*
G36*
X21000Y-387470D02*
X20086Y-387590D01*
X19235Y-387943D01*
X18504Y-388504D01*
X17943Y-389235D01*
X17590Y-390086D01*
X17470Y-391000D01*
X17590Y-391914D01*
X17943Y-392765D01*
X18504Y-393496D01*
X19235Y-394057D01*
X19650Y-394229D01*
Y-394771D01*
X19235Y-394943D01*
X18504Y-395504D01*
X17943Y-396235D01*
X17590Y-397086D01*
X17470Y-398000D01*
X17590Y-398914D01*
X17943Y-399765D01*
X18504Y-400496D01*
X19235Y-401057D01*
X19650Y-401229D01*
Y-401771D01*
X19235Y-401943D01*
X18504Y-402504D01*
X17943Y-403235D01*
X17590Y-404086D01*
X17470Y-405000D01*
X17590Y-405914D01*
X17943Y-406765D01*
X18504Y-407496D01*
X19235Y-408057D01*
X20086Y-408410D01*
X21000Y-408530D01*
X21914Y-408410D01*
X22765Y-408057D01*
X23427Y-407549D01*
X24946D01*
X25003Y-407593D01*
X25532Y-407812D01*
Y-407969D01*
X26305D01*
X26500Y-407994D01*
X26695Y-407969D01*
X31468D01*
Y-407768D01*
X35818D01*
X36000Y-407792D01*
X36182Y-407768D01*
X36606D01*
X53178Y-424341D01*
X53675Y-424673D01*
X53773Y-424692D01*
X53879Y-425223D01*
X53786Y-425286D01*
X53260Y-426072D01*
X53175Y-426500D01*
X55500D01*
Y-427500D01*
X53175D01*
X53260Y-427928D01*
X53786Y-428714D01*
X53812Y-428732D01*
X53667Y-429211D01*
X50811D01*
X46081Y-424481D01*
X45585Y-424150D01*
X45000Y-424034D01*
X42654D01*
Y-422401D01*
X35346D01*
Y-424534D01*
X10142D01*
X9950Y-424071D01*
X9317Y-423246D01*
X8492Y-422613D01*
X7531Y-422215D01*
X6500Y-422079D01*
X5469Y-422215D01*
X4508Y-422613D01*
X3683Y-423246D01*
X3050Y-424071D01*
X2652Y-425032D01*
X2516Y-426063D01*
X2652Y-427094D01*
X3050Y-428055D01*
X3683Y-428880D01*
X4508Y-429513D01*
X5469Y-429911D01*
X6500Y-430047D01*
X7531Y-429911D01*
X8492Y-429513D01*
X9317Y-428880D01*
X9950Y-428055D01*
X10142Y-427592D01*
X35346D01*
Y-428725D01*
X42654D01*
Y-427092D01*
X44366D01*
X49096Y-431822D01*
X49592Y-432153D01*
X50177Y-432269D01*
X58125D01*
X58307Y-432543D01*
X58636Y-432762D01*
X59023Y-432839D01*
X63363D01*
X63750Y-432762D01*
X64078Y-432543D01*
X64298Y-432215D01*
X64375Y-431828D01*
Y-429653D01*
X64298Y-429265D01*
X64127Y-429011D01*
X64223Y-428947D01*
X64486Y-428553D01*
X64578Y-428088D01*
Y-427500D01*
X61193D01*
Y-426500D01*
X64578D01*
Y-425912D01*
X64486Y-425447D01*
X64223Y-425053D01*
X64127Y-424989D01*
X64298Y-424734D01*
X64375Y-424347D01*
Y-422172D01*
X64298Y-421785D01*
X64078Y-421457D01*
X63750Y-421238D01*
X63363Y-421161D01*
X59023D01*
X58636Y-421238D01*
X58307Y-421457D01*
X58125Y-421731D01*
X54893D01*
X38719Y-405556D01*
X38792Y-405000D01*
X38697Y-404277D01*
X38418Y-403604D01*
X37975Y-403025D01*
X37529Y-402684D01*
Y-400316D01*
X37975Y-399974D01*
X38418Y-399396D01*
X38697Y-398723D01*
X38792Y-398000D01*
X38697Y-397277D01*
X38418Y-396604D01*
X37975Y-396025D01*
X37529Y-395684D01*
Y-393316D01*
X37975Y-392974D01*
X38418Y-392396D01*
X38697Y-391723D01*
X38792Y-391000D01*
X38697Y-390277D01*
X38418Y-389604D01*
X37975Y-389025D01*
X37396Y-388582D01*
X36768Y-388322D01*
Y-388231D01*
X36182D01*
X36000Y-388208D01*
X35818Y-388231D01*
X31468D01*
Y-388032D01*
X26695D01*
X26500Y-388006D01*
X26305Y-388032D01*
X25532D01*
Y-388188D01*
X25003Y-388407D01*
X24946Y-388451D01*
X23427D01*
X22765Y-387943D01*
X21914Y-387590D01*
X21000Y-387470D01*
D02*
G37*
G36*
X38000Y-358000D02*
X36175D01*
X36260Y-358428D01*
X36786Y-359214D01*
X37572Y-359740D01*
X38000Y-359825D01*
Y-358000D01*
D02*
G37*
G36*
X44825Y-326500D02*
X43000D01*
Y-328325D01*
X43428Y-328240D01*
X44214Y-327714D01*
X44740Y-326928D01*
X44825Y-326500D01*
D02*
G37*
G36*
X42000D02*
X40175D01*
X40260Y-326928D01*
X40786Y-327714D01*
X41572Y-328240D01*
X42000Y-328325D01*
Y-326500D01*
D02*
G37*
G36*
Y-323675D02*
X41572Y-323760D01*
X40786Y-324286D01*
X40260Y-325072D01*
X40175Y-325500D01*
X42000D01*
Y-323675D01*
D02*
G37*
G36*
X21500Y-274970D02*
X20586Y-275090D01*
X19735Y-275443D01*
X19004Y-276004D01*
X18443Y-276735D01*
X18090Y-277586D01*
X17970Y-278500D01*
X18090Y-279414D01*
X18443Y-280265D01*
X19004Y-280996D01*
X19735Y-281557D01*
X20586Y-281910D01*
X20684Y-281923D01*
X20751Y-282436D01*
X20735Y-282443D01*
X20004Y-283004D01*
X19443Y-283735D01*
X19090Y-284586D01*
X18970Y-285500D01*
X19090Y-286414D01*
X19443Y-287265D01*
X20004Y-287996D01*
X20735Y-288557D01*
X20751Y-288564D01*
X20684Y-289077D01*
X20586Y-289090D01*
X19735Y-289443D01*
X19004Y-290004D01*
X18443Y-290735D01*
X18090Y-291586D01*
X17970Y-292500D01*
X18090Y-293414D01*
X18443Y-294265D01*
X19004Y-294996D01*
X19735Y-295557D01*
X20586Y-295910D01*
X21500Y-296030D01*
X22414Y-295910D01*
X23265Y-295557D01*
X23927Y-295049D01*
X24446D01*
X24503Y-295093D01*
X25032Y-295312D01*
Y-295468D01*
X25805D01*
X26000Y-295494D01*
X26195Y-295468D01*
X30968D01*
Y-295269D01*
X33971D01*
Y-303500D01*
X34087Y-304085D01*
X34419Y-304581D01*
X41003Y-311166D01*
X41000Y-311171D01*
Y-313500D01*
X43329D01*
X43334Y-313497D01*
X44678Y-314841D01*
X45175Y-315173D01*
X45760Y-315289D01*
X53167D01*
X53312Y-315768D01*
X53286Y-315786D01*
X52760Y-316572D01*
X52675Y-317000D01*
X55000D01*
Y-318000D01*
X52675D01*
X52760Y-318428D01*
X53286Y-319214D01*
X53312Y-319232D01*
X53167Y-319711D01*
X19154D01*
Y-317275D01*
X11846D01*
Y-321929D01*
X5419Y-328356D01*
X5087Y-328852D01*
X4971Y-329437D01*
Y-334359D01*
X4508Y-334550D01*
X3683Y-335183D01*
X3050Y-336008D01*
X2652Y-336969D01*
X2516Y-338000D01*
X2652Y-339031D01*
X3050Y-339992D01*
X3683Y-340817D01*
X4508Y-341450D01*
X5469Y-341848D01*
X6500Y-341984D01*
X7531Y-341848D01*
X8492Y-341450D01*
X9317Y-340817D01*
X9950Y-339992D01*
X10348Y-339031D01*
X10484Y-338000D01*
X10348Y-336969D01*
X9950Y-336008D01*
X9317Y-335183D01*
X8492Y-334550D01*
X8029Y-334359D01*
Y-330070D01*
X14501Y-323599D01*
X19154D01*
Y-322769D01*
X54625D01*
X54808Y-323043D01*
X55136Y-323262D01*
X55523Y-323339D01*
X59863D01*
X60250Y-323262D01*
X60578Y-323043D01*
X60798Y-322715D01*
X60874Y-322328D01*
Y-320153D01*
X60798Y-319765D01*
X60627Y-319511D01*
X60723Y-319447D01*
X60986Y-319053D01*
X61079Y-318588D01*
Y-318000D01*
X57693D01*
Y-317000D01*
X61079D01*
Y-316412D01*
X60986Y-315947D01*
X60723Y-315553D01*
X60627Y-315489D01*
X60798Y-315234D01*
X60874Y-314847D01*
Y-312672D01*
X60798Y-312285D01*
X60578Y-311957D01*
X60250Y-311738D01*
X59863Y-311661D01*
X55523D01*
X55136Y-311738D01*
X54808Y-311957D01*
X54625Y-312230D01*
X46393D01*
X37029Y-302867D01*
Y-294816D01*
X37475Y-294475D01*
X37918Y-293896D01*
X38197Y-293223D01*
X38292Y-292500D01*
X38197Y-291777D01*
X37918Y-291104D01*
X37475Y-290526D01*
X37029Y-290184D01*
Y-287816D01*
X37475Y-287474D01*
X37918Y-286896D01*
X38197Y-286223D01*
X38292Y-285500D01*
X38197Y-284777D01*
X37918Y-284104D01*
X37475Y-283525D01*
X37029Y-283184D01*
Y-280816D01*
X37475Y-280474D01*
X37918Y-279896D01*
X38197Y-279223D01*
X38292Y-278500D01*
X38197Y-277777D01*
X37918Y-277104D01*
X37475Y-276525D01*
X36896Y-276082D01*
X36268Y-275822D01*
Y-275731D01*
X35682D01*
X35500Y-275708D01*
X35318Y-275731D01*
X30968D01*
Y-275532D01*
X26195D01*
X26000Y-275506D01*
X25805Y-275532D01*
X25032D01*
Y-275688D01*
X24503Y-275907D01*
X24446Y-275951D01*
X23927D01*
X23265Y-275443D01*
X22414Y-275090D01*
X21500Y-274970D01*
D02*
G37*
G36*
X43000Y-323675D02*
Y-325500D01*
X44825D01*
X44740Y-325072D01*
X44214Y-324286D01*
X43428Y-323760D01*
X43000Y-323675D01*
D02*
G37*
G36*
X15000Y-332000D02*
X13175D01*
X13260Y-332428D01*
X13786Y-333214D01*
X14572Y-333740D01*
X15000Y-333825D01*
Y-332000D01*
D02*
G37*
G36*
X119500Y-334971D02*
X102500D01*
X101915Y-335087D01*
X101419Y-335419D01*
X96419Y-340419D01*
X96087Y-340915D01*
X95971Y-341500D01*
Y-347867D01*
X93366Y-350471D01*
X91584D01*
X91080Y-350134D01*
X90307Y-349980D01*
X85189D01*
X84416Y-350134D01*
X83761Y-350572D01*
X83323Y-351227D01*
X83169Y-352000D01*
X83323Y-352773D01*
X83761Y-353428D01*
X84416Y-353866D01*
X85189Y-354020D01*
X90307D01*
X91080Y-353866D01*
X91584Y-353529D01*
X94000D01*
X94585Y-353413D01*
X95081Y-353081D01*
X98581Y-349581D01*
X98913Y-349085D01*
X99029Y-348500D01*
Y-342133D01*
X103133Y-338029D01*
X115346D01*
Y-341725D01*
X122654D01*
Y-335401D01*
X120555D01*
X120085Y-335087D01*
X119500Y-334971D01*
D02*
G37*
G36*
X17825Y-332000D02*
X16000D01*
Y-333825D01*
X16428Y-333740D01*
X17214Y-333214D01*
X17740Y-332428D01*
X17825Y-332000D01*
D02*
G37*
G36*
X16000Y-329175D02*
Y-331000D01*
X17825D01*
X17740Y-330572D01*
X17214Y-329786D01*
X16428Y-329260D01*
X16000Y-329175D01*
D02*
G37*
G36*
X15000D02*
X14572Y-329260D01*
X13786Y-329786D01*
X13260Y-330572D01*
X13175Y-331000D01*
X15000D01*
Y-329175D01*
D02*
G37*
G36*
X133000Y-309500D02*
X131175D01*
X131260Y-309928D01*
X131786Y-310714D01*
X132572Y-311240D01*
X133000Y-311325D01*
Y-309500D01*
D02*
G37*
G36*
X18014Y-309000D02*
X12986D01*
X12821Y-309201D01*
X11646D01*
Y-312063D01*
X19354D01*
Y-309201D01*
X18179D01*
X18014Y-309000D01*
D02*
G37*
G36*
X135825Y-309500D02*
X134000D01*
Y-311325D01*
X134428Y-311240D01*
X135214Y-310714D01*
X135740Y-309928D01*
X135825Y-309500D01*
D02*
G37*
G36*
X134000Y-306675D02*
Y-308500D01*
X135825D01*
X135740Y-308072D01*
X135214Y-307286D01*
X134428Y-306760D01*
X134000Y-306675D01*
D02*
G37*
G36*
X133000D02*
X132572Y-306760D01*
X131786Y-307286D01*
X131260Y-308072D01*
X131175Y-308500D01*
X133000D01*
Y-306675D01*
D02*
G37*
G36*
X42825Y-314500D02*
X41000D01*
Y-316325D01*
X41428Y-316240D01*
X42214Y-315714D01*
X42740Y-314928D01*
X42825Y-314500D01*
D02*
G37*
G36*
X40000D02*
X38175D01*
X38260Y-314928D01*
X38786Y-315714D01*
X39572Y-316240D01*
X40000Y-316325D01*
Y-314500D01*
D02*
G37*
G36*
X15000Y-313063D02*
X11646D01*
Y-315925D01*
X15000D01*
Y-313063D01*
D02*
G37*
G36*
X40000Y-311675D02*
X39572Y-311760D01*
X38786Y-312286D01*
X38260Y-313072D01*
X38175Y-313500D01*
X40000D01*
Y-311675D01*
D02*
G37*
G36*
X19354Y-313063D02*
X16000D01*
Y-315925D01*
X19354D01*
Y-313063D01*
D02*
G37*
G36*
X16500Y-351675D02*
X16072Y-351760D01*
X15286Y-352286D01*
X14760Y-353072D01*
X14675Y-353500D01*
X16500D01*
Y-351675D01*
D02*
G37*
G36*
X67500Y-350908D02*
X66915Y-351024D01*
X66739Y-351142D01*
X62957D01*
Y-353906D01*
X67500D01*
X72043D01*
Y-351142D01*
X68261D01*
X68085Y-351024D01*
X67500Y-350908D01*
D02*
G37*
G36*
X17500Y-351675D02*
Y-353500D01*
X19325D01*
X19240Y-353072D01*
X18714Y-352286D01*
X17928Y-351760D01*
X17500Y-351675D01*
D02*
G37*
G36*
X41354Y-350012D02*
X38000D01*
Y-352874D01*
X41354D01*
Y-350012D01*
D02*
G37*
G36*
X37000D02*
X33646D01*
Y-352874D01*
X37000D01*
Y-350012D01*
D02*
G37*
G36*
X59599Y-338846D02*
X53275D01*
Y-346154D01*
X59599D01*
Y-346092D01*
X74929D01*
X74971Y-346133D01*
Y-353000D01*
X75087Y-353585D01*
X75419Y-354081D01*
X79419Y-358081D01*
X79915Y-358413D01*
X80500Y-358529D01*
X83912D01*
X84416Y-358866D01*
X85189Y-359020D01*
X90307D01*
X91080Y-358866D01*
X91735Y-358428D01*
X92173Y-357773D01*
X92327Y-357000D01*
X92173Y-356227D01*
X91735Y-355572D01*
X91080Y-355134D01*
X90307Y-354980D01*
X85189D01*
X84416Y-355134D01*
X83912Y-355471D01*
X81134D01*
X78029Y-352366D01*
Y-345500D01*
X77913Y-344915D01*
X77581Y-344419D01*
X76644Y-343482D01*
X76148Y-343150D01*
X75563Y-343034D01*
X71843D01*
Y-339531D01*
X63157D01*
Y-343034D01*
X59599D01*
Y-338846D01*
D02*
G37*
G36*
X40825Y-358000D02*
X39000D01*
Y-359825D01*
X39428Y-359740D01*
X40214Y-359214D01*
X40740Y-358428D01*
X40825Y-358000D01*
D02*
G37*
G36*
X41354Y-353874D02*
X33646D01*
Y-356736D01*
X35833D01*
X36050Y-357000D01*
X40950D01*
X41167Y-356736D01*
X41354D01*
Y-353874D01*
D02*
G37*
G36*
X19325Y-354500D02*
X17500D01*
Y-356325D01*
X17928Y-356240D01*
X18714Y-355714D01*
X19240Y-354928D01*
X19325Y-354500D01*
D02*
G37*
G36*
X16500D02*
X14675D01*
X14760Y-354928D01*
X15286Y-355714D01*
X16072Y-356240D01*
X16500Y-356325D01*
Y-354500D01*
D02*
G37*
G36*
X135500Y-343850D02*
X131850D01*
Y-347500D01*
X135500D01*
Y-343850D01*
D02*
G37*
G36*
X6000D02*
X2350D01*
Y-347500D01*
X6000D01*
Y-343850D01*
D02*
G37*
G36*
X10650D02*
X7000D01*
Y-347500D01*
X10650D01*
Y-343850D01*
D02*
G37*
G36*
X51725Y-338846D02*
X45401D01*
Y-340971D01*
X40500D01*
X39915Y-341087D01*
X39419Y-341419D01*
X38499Y-342338D01*
X36501D01*
X35581Y-341419D01*
X35085Y-341087D01*
X34500Y-340971D01*
X30536D01*
Y-338846D01*
X24212D01*
Y-346154D01*
X30536D01*
Y-344029D01*
X33846D01*
Y-348662D01*
X41154D01*
Y-344029D01*
X45401D01*
Y-346154D01*
X46971D01*
Y-353437D01*
X47087Y-354022D01*
X47419Y-354518D01*
X53743Y-360843D01*
Y-369040D01*
X60658D01*
Y-365561D01*
X60976Y-365085D01*
X61092Y-364500D01*
X60976Y-363915D01*
X60658Y-363439D01*
Y-359960D01*
X57186D01*
X50029Y-352803D01*
Y-346154D01*
X51725D01*
Y-338846D01*
D02*
G37*
G36*
X140150Y-343850D02*
X136500D01*
Y-347500D01*
X140150D01*
Y-343850D01*
D02*
G37*
G36*
X10650Y-348500D02*
X7000D01*
Y-352150D01*
X10650D01*
Y-348500D01*
D02*
G37*
G36*
X6000D02*
X2350D01*
Y-352150D01*
X6000D01*
Y-348500D01*
D02*
G37*
G36*
X135500D02*
X131850D01*
Y-352150D01*
X135500D01*
Y-348500D01*
D02*
G37*
G36*
X90307Y-344980D02*
X85189D01*
X84416Y-345134D01*
X83761Y-345572D01*
X83323Y-346227D01*
X83169Y-347000D01*
X83323Y-347773D01*
X83761Y-348428D01*
X84416Y-348866D01*
X85189Y-349020D01*
X90307D01*
X91080Y-348866D01*
X91735Y-348428D01*
X92173Y-347773D01*
X92327Y-347000D01*
X92173Y-346227D01*
X91735Y-345572D01*
X91080Y-345134D01*
X90307Y-344980D01*
D02*
G37*
G36*
X140150Y-348500D02*
X136500D01*
Y-352150D01*
X140150D01*
Y-348500D01*
D02*
G37*
G36*
X42854Y-433937D02*
X39000D01*
X35146D01*
Y-436799D01*
X37971D01*
Y-437662D01*
X37786Y-437786D01*
X37260Y-438572D01*
X37175Y-439000D01*
X41825D01*
X41740Y-438572D01*
X41214Y-437786D01*
X41029Y-437662D01*
Y-436799D01*
X42854D01*
Y-433937D01*
D02*
G37*
G36*
X43500Y-553675D02*
Y-555500D01*
X45325D01*
X45240Y-555072D01*
X44714Y-554286D01*
X43928Y-553760D01*
X43500Y-553675D01*
D02*
G37*
G36*
X42500D02*
X42072Y-553760D01*
X41286Y-554286D01*
X40760Y-555072D01*
X40675Y-555500D01*
X42500D01*
Y-553675D01*
D02*
G37*
G36*
X112500Y-550675D02*
X112072Y-550760D01*
X111286Y-551286D01*
X110760Y-552072D01*
X110675Y-552500D01*
X112500D01*
Y-550675D01*
D02*
G37*
G36*
X51500Y-532031D02*
X50500D01*
Y-535000D01*
Y-537968D01*
X51500D01*
Y-535000D01*
Y-532031D01*
D02*
G37*
G36*
X113500Y-550675D02*
Y-552500D01*
X115325D01*
X115240Y-552072D01*
X114714Y-551286D01*
X113928Y-550760D01*
X113500Y-550675D01*
D02*
G37*
G36*
X139650Y-562850D02*
X136000D01*
Y-566500D01*
X139650D01*
Y-562850D01*
D02*
G37*
G36*
X135000D02*
X131350D01*
Y-566500D01*
X135000D01*
Y-562850D01*
D02*
G37*
G36*
X51000Y-562675D02*
X50572Y-562760D01*
X49786Y-563286D01*
X49260Y-564072D01*
X49175Y-564500D01*
X51000D01*
Y-562675D01*
D02*
G37*
G36*
X45325Y-556500D02*
X43500D01*
Y-558325D01*
X43928Y-558240D01*
X44714Y-557714D01*
X45240Y-556928D01*
X45325Y-556500D01*
D02*
G37*
G36*
X42500D02*
X40675D01*
X40760Y-556928D01*
X41286Y-557714D01*
X42072Y-558240D01*
X42500Y-558325D01*
Y-556500D01*
D02*
G37*
G36*
X132725Y-516100D02*
X130900D01*
Y-517925D01*
X131328Y-517840D01*
X132114Y-517314D01*
X132640Y-516528D01*
X132725Y-516100D01*
D02*
G37*
G36*
X129900D02*
X128075D01*
X128160Y-516528D01*
X128686Y-517314D01*
X129472Y-517840D01*
X129900Y-517925D01*
Y-516100D01*
D02*
G37*
G36*
Y-513275D02*
X129472Y-513360D01*
X128686Y-513886D01*
X128160Y-514672D01*
X128075Y-515100D01*
X129900D01*
Y-513275D01*
D02*
G37*
G36*
X90000Y-506500D02*
X88175D01*
X88260Y-506928D01*
X88786Y-507714D01*
X89572Y-508240D01*
X90000Y-508325D01*
Y-506500D01*
D02*
G37*
G36*
X130900Y-513275D02*
Y-515100D01*
X132725D01*
X132640Y-514672D01*
X132114Y-513886D01*
X131328Y-513360D01*
X130900Y-513275D01*
D02*
G37*
G36*
X45500Y-532675D02*
X45072Y-532760D01*
X44286Y-533286D01*
X43760Y-534072D01*
X43675Y-534500D01*
X45500D01*
Y-532675D01*
D02*
G37*
G36*
Y-535500D02*
X43675D01*
X43760Y-535928D01*
X44286Y-536714D01*
X45072Y-537240D01*
X45500Y-537325D01*
Y-535500D01*
D02*
G37*
G36*
X49500Y-532031D02*
X49031D01*
Y-532188D01*
X48503Y-532407D01*
X47883Y-532883D01*
X47622Y-533223D01*
X46928Y-532760D01*
X46500Y-532675D01*
Y-535000D01*
Y-537325D01*
X46928Y-537240D01*
X47622Y-536776D01*
X47883Y-537117D01*
X48503Y-537593D01*
X49031Y-537812D01*
Y-537968D01*
X49500D01*
Y-535000D01*
Y-532031D01*
D02*
G37*
G36*
X21000Y-503970D02*
X20086Y-504090D01*
X19235Y-504443D01*
X18504Y-505004D01*
X17943Y-505735D01*
X17590Y-506586D01*
X17470Y-507500D01*
X17590Y-508414D01*
X17943Y-509265D01*
X18504Y-509996D01*
X19235Y-510557D01*
X20086Y-510910D01*
X21000Y-511030D01*
X21914Y-510910D01*
X22765Y-510557D01*
X23427Y-510049D01*
X29444D01*
X38698Y-519302D01*
X39524Y-519855D01*
X40500Y-520049D01*
X56944D01*
X57014Y-520119D01*
Y-522881D01*
X56864Y-523032D01*
X54532D01*
Y-523232D01*
X50182D01*
X50000Y-523208D01*
X49819Y-523232D01*
X49231D01*
Y-523322D01*
X48604Y-523582D01*
X48026Y-524025D01*
X47582Y-524604D01*
X47303Y-525277D01*
X47208Y-526000D01*
X47303Y-526723D01*
X47582Y-527396D01*
X48026Y-527975D01*
X48604Y-528418D01*
X49231Y-528678D01*
Y-528768D01*
X49819D01*
X50000Y-528792D01*
X50182Y-528768D01*
X50606D01*
X52919Y-531081D01*
X53415Y-531413D01*
X54000Y-531529D01*
X55971D01*
Y-532232D01*
X54969D01*
Y-532031D01*
X52500D01*
Y-535000D01*
Y-537968D01*
X54969D01*
Y-537769D01*
X57971D01*
Y-542500D01*
X58087Y-543085D01*
X58419Y-543581D01*
X60471Y-545634D01*
Y-564000D01*
X60587Y-564585D01*
X60919Y-565081D01*
X61919Y-566081D01*
X62415Y-566413D01*
X63000Y-566529D01*
X64639D01*
X64838Y-566817D01*
X64907Y-566960D01*
X64702Y-567266D01*
X64626Y-567653D01*
Y-569828D01*
X64702Y-570215D01*
X64922Y-570543D01*
X65250Y-570762D01*
X65637Y-570839D01*
X69977D01*
X70364Y-570762D01*
X70692Y-570543D01*
X70875Y-570269D01*
X78323D01*
X78908Y-570153D01*
X79404Y-569822D01*
X86133Y-563092D01*
X87846D01*
Y-564725D01*
X95154D01*
Y-560072D01*
X96697Y-558529D01*
X131859D01*
X132050Y-558992D01*
X132683Y-559817D01*
X133508Y-560450D01*
X134469Y-560848D01*
X135500Y-560984D01*
X136531Y-560848D01*
X137492Y-560450D01*
X138317Y-559817D01*
X138950Y-558992D01*
X139348Y-558031D01*
X139484Y-557000D01*
X139348Y-555969D01*
X138950Y-555008D01*
X138317Y-554183D01*
X137492Y-553550D01*
X136531Y-553152D01*
X135500Y-553016D01*
X134469Y-553152D01*
X133508Y-553550D01*
X132683Y-554183D01*
X132050Y-555008D01*
X131859Y-555471D01*
X114483D01*
X114331Y-554971D01*
X114714Y-554714D01*
X115240Y-553928D01*
X115325Y-553500D01*
X110675D01*
X110760Y-553928D01*
X111286Y-554714D01*
X111669Y-554971D01*
X111517Y-555471D01*
X96063D01*
X95478Y-555587D01*
X94982Y-555919D01*
X92499Y-558401D01*
X87846D01*
Y-560034D01*
X85500D01*
X84915Y-560150D01*
X84419Y-560482D01*
X77689Y-567211D01*
X70975D01*
X70776Y-566923D01*
X70708Y-566780D01*
X70912Y-566475D01*
X70989Y-566088D01*
Y-563912D01*
X70912Y-563525D01*
X70708Y-563220D01*
X70776Y-563077D01*
X70975Y-562789D01*
X77240D01*
X77825Y-562673D01*
X78322Y-562341D01*
X91833Y-548830D01*
X92165Y-548333D01*
X92281Y-547748D01*
Y-538768D01*
X95531D01*
Y-538969D01*
X98595D01*
X99000Y-539049D01*
X104072D01*
X104735Y-539557D01*
X105586Y-539910D01*
X106500Y-540030D01*
X107414Y-539910D01*
X108265Y-539557D01*
X108996Y-538996D01*
X109557Y-538265D01*
X109910Y-537414D01*
X110030Y-536500D01*
X109910Y-535586D01*
X109557Y-534735D01*
X108996Y-534004D01*
X108419Y-533561D01*
X108381Y-533351D01*
X108396Y-533085D01*
X108438Y-532973D01*
X109059Y-532496D01*
X109620Y-531765D01*
X109973Y-530914D01*
X110093Y-530000D01*
X109973Y-529086D01*
X109620Y-528235D01*
X109059Y-527504D01*
X108328Y-526943D01*
X107631Y-526654D01*
X107595Y-526138D01*
X107598Y-526127D01*
X107765Y-526057D01*
X108496Y-525496D01*
X109057Y-524765D01*
X109410Y-523914D01*
X109530Y-523000D01*
X109410Y-522086D01*
X109057Y-521235D01*
X108496Y-520504D01*
X107765Y-519943D01*
X106914Y-519590D01*
X106000Y-519470D01*
X105086Y-519590D01*
X104235Y-519943D01*
X103572Y-520451D01*
X101806D01*
X101749Y-520407D01*
X101221Y-520188D01*
Y-520031D01*
X100447D01*
X100252Y-520006D01*
X100057Y-520031D01*
X95284D01*
Y-520231D01*
X90933D01*
X90752Y-520208D01*
X90570Y-520231D01*
X89983D01*
Y-520322D01*
X89356Y-520582D01*
X88777Y-521026D01*
X88334Y-521604D01*
X88055Y-522277D01*
X87960Y-523000D01*
X88055Y-523723D01*
X88334Y-524396D01*
X88777Y-524974D01*
X89223Y-525316D01*
Y-527532D01*
X89104Y-527582D01*
X88525Y-528025D01*
X88082Y-528604D01*
X87803Y-529277D01*
X87708Y-530000D01*
X87803Y-530723D01*
X88082Y-531396D01*
X88525Y-531975D01*
X89104Y-532418D01*
X89223Y-532468D01*
Y-533874D01*
X89025Y-534025D01*
X88582Y-534604D01*
X88303Y-535277D01*
X88208Y-536000D01*
X88303Y-536723D01*
X88582Y-537396D01*
X89025Y-537975D01*
X89223Y-538126D01*
Y-547115D01*
X76607Y-559730D01*
X70875D01*
X70692Y-559457D01*
X70364Y-559238D01*
X69977Y-559161D01*
X65637D01*
X65250Y-559238D01*
X64922Y-559457D01*
X64702Y-559785D01*
X64626Y-560172D01*
Y-562347D01*
X64702Y-562735D01*
X64907Y-563040D01*
X64838Y-563182D01*
X64639Y-563471D01*
X63634D01*
X63529Y-563367D01*
Y-545000D01*
X63413Y-544415D01*
X63081Y-543919D01*
X61029Y-541866D01*
Y-537316D01*
X61475Y-536974D01*
X61918Y-536396D01*
X62197Y-535723D01*
X62292Y-535000D01*
X62197Y-534277D01*
X61918Y-533604D01*
X61475Y-533026D01*
X60896Y-532582D01*
X60268Y-532322D01*
Y-532232D01*
X59681D01*
X59500Y-532208D01*
X59029Y-531865D01*
Y-530870D01*
X58913Y-530285D01*
X58581Y-529789D01*
X58223Y-529430D01*
X58415Y-528968D01*
X59305D01*
X59500Y-528994D01*
X59695Y-528968D01*
X60469D01*
Y-528812D01*
X60997Y-528593D01*
X61617Y-528117D01*
X62093Y-527497D01*
X62392Y-526775D01*
X62494Y-526000D01*
X62392Y-525225D01*
X62093Y-524503D01*
X62019Y-524406D01*
X62112Y-523937D01*
Y-519063D01*
X61918Y-518087D01*
X61365Y-517261D01*
X59802Y-515698D01*
X58975Y-515145D01*
X58000Y-514951D01*
X41556D01*
X32302Y-505698D01*
X31475Y-505145D01*
X30500Y-504951D01*
X23427D01*
X22765Y-504443D01*
X21914Y-504090D01*
X21000Y-503970D01*
D02*
G37*
G36*
X20000Y-518470D02*
X19086Y-518590D01*
X18235Y-518943D01*
X17504Y-519504D01*
X16943Y-520235D01*
X16590Y-521086D01*
X16470Y-522000D01*
X16590Y-522914D01*
X16943Y-523765D01*
X17504Y-524496D01*
X18235Y-525057D01*
X19086Y-525410D01*
X20000Y-525530D01*
X20914Y-525410D01*
X21765Y-525057D01*
X22427Y-524549D01*
X23946D01*
X24003Y-524593D01*
X24532Y-524812D01*
Y-524968D01*
X25305D01*
X25500Y-524994D01*
X25695Y-524968D01*
X30468D01*
Y-524768D01*
X33471D01*
Y-527232D01*
X30468D01*
Y-527032D01*
X25695D01*
X25500Y-527006D01*
X25305Y-527032D01*
X24532D01*
Y-527188D01*
X24003Y-527407D01*
X23946Y-527451D01*
X22427D01*
X21765Y-526943D01*
X20914Y-526590D01*
X20000Y-526470D01*
X19086Y-526590D01*
X18235Y-526943D01*
X17504Y-527504D01*
X16943Y-528235D01*
X16590Y-529086D01*
X16470Y-530000D01*
X16590Y-530914D01*
X16943Y-531765D01*
X17504Y-532496D01*
X18235Y-533057D01*
X18651Y-533229D01*
Y-533771D01*
X18235Y-533943D01*
X17504Y-534504D01*
X16943Y-535235D01*
X16590Y-536086D01*
X16470Y-537000D01*
X16590Y-537914D01*
X16943Y-538765D01*
X17504Y-539496D01*
X18235Y-540057D01*
X19086Y-540410D01*
X20000Y-540530D01*
X20914Y-540410D01*
X21765Y-540057D01*
X22427Y-539549D01*
X23946D01*
X24003Y-539593D01*
X24532Y-539812D01*
Y-539968D01*
X25305D01*
X25500Y-539994D01*
X25695Y-539968D01*
X30468D01*
Y-539769D01*
X34819D01*
X35000Y-539792D01*
X35181Y-539769D01*
X35606D01*
X53193Y-557356D01*
Y-559628D01*
X53088Y-559785D01*
X53011Y-560172D01*
Y-562347D01*
X53057Y-562579D01*
X52648Y-562907D01*
X52428Y-562760D01*
X52000Y-562675D01*
Y-565000D01*
X51500D01*
Y-565500D01*
X49175D01*
X49260Y-565928D01*
X49786Y-566714D01*
X49812Y-566732D01*
X49667Y-567211D01*
X47437D01*
X41707Y-561482D01*
X41211Y-561150D01*
X41154Y-561139D01*
Y-559401D01*
X33846D01*
Y-561034D01*
X23133D01*
X19018Y-556919D01*
X18522Y-556587D01*
X17937Y-556471D01*
X10142D01*
X9950Y-556008D01*
X9317Y-555183D01*
X8492Y-554550D01*
X7531Y-554152D01*
X6500Y-554016D01*
X5469Y-554152D01*
X4508Y-554550D01*
X3683Y-555183D01*
X3050Y-556008D01*
X2652Y-556969D01*
X2516Y-558000D01*
X2652Y-559031D01*
X3050Y-559992D01*
X3683Y-560817D01*
X4508Y-561450D01*
X5469Y-561848D01*
X6500Y-561984D01*
X7531Y-561848D01*
X8492Y-561450D01*
X9317Y-560817D01*
X9950Y-559992D01*
X10142Y-559529D01*
X17303D01*
X21419Y-563644D01*
X21915Y-563976D01*
X22500Y-564092D01*
X33846D01*
Y-565725D01*
X41154D01*
Y-565725D01*
X41487Y-565587D01*
X45722Y-569822D01*
X46218Y-570153D01*
X46803Y-570269D01*
X53125D01*
X53307Y-570543D01*
X53636Y-570762D01*
X54023Y-570839D01*
X58363D01*
X58750Y-570762D01*
X59078Y-570543D01*
X59298Y-570215D01*
X59374Y-569828D01*
Y-567653D01*
X59298Y-567266D01*
X59127Y-567011D01*
X59223Y-566947D01*
X59486Y-566553D01*
X59579Y-566088D01*
Y-565500D01*
X56193D01*
Y-564500D01*
X59579D01*
Y-563912D01*
X59486Y-563447D01*
X59223Y-563053D01*
X59127Y-562989D01*
X59298Y-562735D01*
X59374Y-562347D01*
Y-560172D01*
X59298Y-559785D01*
X59078Y-559457D01*
X58750Y-559238D01*
X58363Y-559161D01*
X56252D01*
Y-556723D01*
X56136Y-556137D01*
X55804Y-555641D01*
X37719Y-537556D01*
X37792Y-537000D01*
X37697Y-536277D01*
X37418Y-535604D01*
X36974Y-535026D01*
X36529Y-534684D01*
Y-532316D01*
X36974Y-531975D01*
X37418Y-531396D01*
X37697Y-530723D01*
X37792Y-530000D01*
X37697Y-529277D01*
X37418Y-528604D01*
X36974Y-528025D01*
X36529Y-527684D01*
Y-524316D01*
X36974Y-523975D01*
X37418Y-523396D01*
X37697Y-522723D01*
X37792Y-522000D01*
X37697Y-521277D01*
X37418Y-520604D01*
X36974Y-520025D01*
X36396Y-519582D01*
X35768Y-519322D01*
Y-519232D01*
X35181D01*
X35000Y-519208D01*
X34819Y-519232D01*
X30468D01*
Y-519031D01*
X25695D01*
X25500Y-519006D01*
X25305Y-519031D01*
X24532D01*
Y-519188D01*
X24003Y-519407D01*
X23946Y-519451D01*
X22427D01*
X21765Y-518943D01*
X20914Y-518590D01*
X20000Y-518470D01*
D02*
G37*
G36*
X41354Y-570937D02*
X37500D01*
X33646D01*
Y-573799D01*
X33887D01*
X34215Y-574299D01*
X34175Y-574500D01*
X38825D01*
X38824Y-574495D01*
X39162Y-574031D01*
X39416Y-574009D01*
X39533Y-574064D01*
X39705Y-574928D01*
X40231Y-575714D01*
X41017Y-576240D01*
X41445Y-576325D01*
Y-574000D01*
Y-571373D01*
X41354Y-571299D01*
Y-570937D01*
D02*
G37*
G36*
X93077Y-575000D02*
X91252D01*
Y-576825D01*
X91680Y-576740D01*
X92466Y-576214D01*
X92992Y-575428D01*
X93077Y-575000D01*
D02*
G37*
G36*
X44270Y-574500D02*
X42445D01*
Y-576325D01*
X42873Y-576240D01*
X43659Y-575714D01*
X44185Y-574928D01*
X44270Y-574500D01*
D02*
G37*
G36*
X42445Y-571675D02*
Y-573500D01*
X44270D01*
X44185Y-573072D01*
X43659Y-572286D01*
X42873Y-571760D01*
X42445Y-571675D01*
D02*
G37*
G36*
X95354Y-569937D02*
X91500D01*
X87646D01*
Y-572799D01*
X88498D01*
X88734Y-573240D01*
X88512Y-573572D01*
X88427Y-574000D01*
X93077D01*
X92992Y-573572D01*
X92770Y-573240D01*
X93006Y-572799D01*
X95354D01*
Y-569937D01*
D02*
G37*
G36*
X129921Y-578877D02*
X128412Y-579026D01*
X126960Y-579466D01*
X125623Y-580181D01*
X124450Y-581143D01*
X123488Y-582316D01*
X122773Y-583653D01*
X122333Y-585105D01*
X122184Y-586614D01*
X122333Y-588124D01*
X122773Y-589575D01*
X123488Y-590913D01*
X124450Y-592085D01*
X125623Y-593048D01*
X126960Y-593762D01*
X128412Y-594203D01*
X129921Y-594351D01*
X131431Y-594203D01*
X132882Y-593762D01*
X134220Y-593048D01*
X135392Y-592085D01*
X136355Y-590913D01*
X137070Y-589575D01*
X137510Y-588124D01*
X137659Y-586614D01*
X137510Y-585105D01*
X137070Y-583653D01*
X136355Y-582316D01*
X135392Y-581143D01*
X134220Y-580181D01*
X132882Y-579466D01*
X131431Y-579026D01*
X129921Y-578877D01*
D02*
G37*
G36*
X11811D02*
X10302Y-579026D01*
X8850Y-579466D01*
X7512Y-580181D01*
X6340Y-581143D01*
X5378Y-582316D01*
X4663Y-583653D01*
X4222Y-585105D01*
X4074Y-586614D01*
X4222Y-588124D01*
X4663Y-589575D01*
X5378Y-590913D01*
X6340Y-592085D01*
X7512Y-593048D01*
X8850Y-593762D01*
X10302Y-594203D01*
X11811Y-594351D01*
X13320Y-594203D01*
X14772Y-593762D01*
X16110Y-593048D01*
X17282Y-592085D01*
X18244Y-590913D01*
X18959Y-589575D01*
X19400Y-588124D01*
X19548Y-586614D01*
X19400Y-585105D01*
X18959Y-583653D01*
X18244Y-582316D01*
X17282Y-581143D01*
X16110Y-580181D01*
X14772Y-579466D01*
X13320Y-579026D01*
X11811Y-578877D01*
D02*
G37*
G36*
X36000Y-575500D02*
X34175D01*
X34260Y-575928D01*
X34786Y-576714D01*
X35572Y-577240D01*
X36000Y-577325D01*
Y-575500D01*
D02*
G37*
G36*
X90252Y-575000D02*
X88427D01*
X88512Y-575428D01*
X89038Y-576214D01*
X89824Y-576740D01*
X90252Y-576825D01*
Y-575000D01*
D02*
G37*
G36*
X38825Y-575500D02*
X37000D01*
Y-577325D01*
X37428Y-577240D01*
X38214Y-576714D01*
X38740Y-575928D01*
X38825Y-575500D01*
D02*
G37*
G36*
X91000Y-566075D02*
X87646D01*
Y-568937D01*
X91000D01*
Y-566075D01*
D02*
G37*
G36*
X41354Y-567075D02*
X38000D01*
Y-569937D01*
X41354D01*
Y-567075D01*
D02*
G37*
G36*
X95354Y-566075D02*
X92000D01*
Y-568937D01*
X95354D01*
Y-566075D01*
D02*
G37*
G36*
X10650Y-563850D02*
X7000D01*
Y-567500D01*
X10650D01*
Y-563850D01*
D02*
G37*
G36*
X6000D02*
X2350D01*
Y-567500D01*
X6000D01*
Y-563850D01*
D02*
G37*
G36*
X10650Y-568500D02*
X7000D01*
Y-572150D01*
X10650D01*
Y-568500D01*
D02*
G37*
G36*
X6000D02*
X2350D01*
Y-572150D01*
X6000D01*
Y-568500D01*
D02*
G37*
G36*
X135000Y-567500D02*
X131350D01*
Y-571150D01*
X135000D01*
Y-567500D01*
D02*
G37*
G36*
X37000Y-567075D02*
X33646D01*
Y-569937D01*
X37000D01*
Y-567075D01*
D02*
G37*
G36*
X139650Y-567500D02*
X136000D01*
Y-571150D01*
X139650D01*
Y-567500D01*
D02*
G37*
G36*
X92825Y-506500D02*
X91000D01*
Y-508325D01*
X91428Y-508240D01*
X92214Y-507714D01*
X92740Y-506928D01*
X92825Y-506500D01*
D02*
G37*
G36*
X136325Y-462000D02*
X134500D01*
Y-463825D01*
X134928Y-463740D01*
X135714Y-463214D01*
X136240Y-462428D01*
X136325Y-462000D01*
D02*
G37*
G36*
X133500D02*
X131675D01*
X131760Y-462428D01*
X132286Y-463214D01*
X133072Y-463740D01*
X133500Y-463825D01*
Y-462000D01*
D02*
G37*
G36*
Y-459175D02*
X133072Y-459260D01*
X132286Y-459786D01*
X131760Y-460572D01*
X131675Y-461000D01*
X133500D01*
Y-459175D01*
D02*
G37*
G36*
X41825Y-440000D02*
X37175D01*
X37260Y-440428D01*
X37610Y-440951D01*
X37342Y-441451D01*
X23427D01*
X22765Y-440943D01*
X21914Y-440590D01*
X21000Y-440470D01*
X20086Y-440590D01*
X19235Y-440943D01*
X18504Y-441504D01*
X17943Y-442235D01*
X17590Y-443086D01*
X17470Y-444000D01*
X17590Y-444914D01*
X17943Y-445765D01*
X18504Y-446496D01*
X19235Y-447057D01*
X20086Y-447410D01*
X21000Y-447530D01*
X21914Y-447410D01*
X22765Y-447057D01*
X23427Y-446549D01*
X51637D01*
X57451Y-452363D01*
Y-457031D01*
X57032D01*
Y-457232D01*
X52681D01*
X52500Y-457208D01*
X52319Y-457232D01*
X51731D01*
Y-457322D01*
X51104Y-457582D01*
X50525Y-458026D01*
X50082Y-458604D01*
X49803Y-459277D01*
X49708Y-460000D01*
X49803Y-460723D01*
X50082Y-461396D01*
X50525Y-461974D01*
X51104Y-462418D01*
X51731Y-462678D01*
Y-462769D01*
X52319D01*
X52500Y-462792D01*
X52681Y-462769D01*
X54106D01*
X55907Y-464570D01*
X55715Y-465031D01*
X55500D01*
Y-468000D01*
Y-470968D01*
X57968D01*
Y-470768D01*
X61471D01*
Y-479980D01*
X61587Y-480566D01*
X61919Y-481062D01*
X67471Y-486614D01*
Y-493980D01*
X67587Y-494566D01*
X67919Y-495062D01*
X68938Y-496081D01*
X69434Y-496413D01*
X70020Y-496529D01*
X71639D01*
X71838Y-496817D01*
X71907Y-496960D01*
X71702Y-497265D01*
X71626Y-497652D01*
Y-499828D01*
X71702Y-500215D01*
X71922Y-500543D01*
X72250Y-500762D01*
X72637Y-500839D01*
X76977D01*
X77364Y-500762D01*
X77693Y-500543D01*
X77875Y-500270D01*
X78760D01*
X79345Y-500153D01*
X79841Y-499822D01*
X85571Y-494092D01*
X86846D01*
Y-495725D01*
X94154D01*
Y-494092D01*
X109937D01*
X110522Y-493976D01*
X111019Y-493644D01*
X115134Y-489529D01*
X130859D01*
X131050Y-489992D01*
X131683Y-490817D01*
X132508Y-491450D01*
X133469Y-491848D01*
X134500Y-491984D01*
X135531Y-491848D01*
X136492Y-491450D01*
X137317Y-490817D01*
X137950Y-489992D01*
X138348Y-489031D01*
X138484Y-488000D01*
X138348Y-486969D01*
X137950Y-486008D01*
X137317Y-485183D01*
X136492Y-484550D01*
X135531Y-484152D01*
X134500Y-484016D01*
X133469Y-484152D01*
X132508Y-484550D01*
X131683Y-485183D01*
X131050Y-486008D01*
X130859Y-486471D01*
X114500D01*
X113915Y-486587D01*
X113419Y-486919D01*
X109303Y-491034D01*
X94154D01*
Y-489401D01*
X86846D01*
Y-491034D01*
X84937D01*
X84352Y-491150D01*
X83856Y-491481D01*
X78582Y-496755D01*
X77977Y-496653D01*
X77899Y-496493D01*
X77912Y-496475D01*
X77989Y-496088D01*
Y-493912D01*
X77912Y-493525D01*
X77708Y-493220D01*
X77776Y-493077D01*
X77975Y-492789D01*
X79488D01*
X80073Y-492673D01*
X80570Y-492341D01*
X95581Y-477329D01*
X95913Y-476833D01*
X96029Y-476248D01*
Y-472768D01*
X99032D01*
Y-472968D01*
X103805D01*
X104000Y-472994D01*
X104195Y-472968D01*
X104969D01*
Y-472812D01*
X105497Y-472593D01*
X105554Y-472549D01*
X107572D01*
X108235Y-473057D01*
X109086Y-473410D01*
X110000Y-473530D01*
X110914Y-473410D01*
X111765Y-473057D01*
X112496Y-472496D01*
X113057Y-471765D01*
X113410Y-470914D01*
X113530Y-470000D01*
X113410Y-469086D01*
X113057Y-468235D01*
X112496Y-467504D01*
X111765Y-466943D01*
X111349Y-466771D01*
Y-466229D01*
X111765Y-466057D01*
X112496Y-465496D01*
X113057Y-464765D01*
X113410Y-463914D01*
X113530Y-463000D01*
X113410Y-462086D01*
X113057Y-461235D01*
X112496Y-460504D01*
X111765Y-459943D01*
X111349Y-459771D01*
Y-459229D01*
X111765Y-459057D01*
X112496Y-458496D01*
X113057Y-457765D01*
X113410Y-456914D01*
X113530Y-456000D01*
X113410Y-455086D01*
X113057Y-454235D01*
X112496Y-453504D01*
X111765Y-452943D01*
X110914Y-452590D01*
X110000Y-452470D01*
X109086Y-452590D01*
X108235Y-452943D01*
X107572Y-453451D01*
X105554D01*
X105497Y-453407D01*
X104969Y-453188D01*
Y-453031D01*
X104195D01*
X104000Y-453006D01*
X103805Y-453031D01*
X99032D01*
Y-453231D01*
X94682D01*
X94500Y-453208D01*
X94318Y-453231D01*
X93731D01*
Y-453322D01*
X93104Y-453582D01*
X92526Y-454026D01*
X92082Y-454604D01*
X91803Y-455277D01*
X91708Y-456000D01*
X91803Y-456723D01*
X92082Y-457396D01*
X92526Y-457974D01*
X92971Y-458316D01*
Y-460684D01*
X92526Y-461025D01*
X92082Y-461604D01*
X91803Y-462277D01*
X91708Y-463000D01*
X91803Y-463723D01*
X92082Y-464396D01*
X92526Y-464974D01*
X92971Y-465316D01*
Y-467684D01*
X92526Y-468025D01*
X92082Y-468604D01*
X91803Y-469277D01*
X91708Y-470000D01*
X91803Y-470723D01*
X92082Y-471396D01*
X92526Y-471975D01*
X92971Y-472316D01*
Y-475615D01*
X78855Y-489731D01*
X77875D01*
X77693Y-489457D01*
X77364Y-489238D01*
X76977Y-489161D01*
X72637D01*
X72250Y-489238D01*
X71922Y-489457D01*
X71702Y-489785D01*
X71626Y-490172D01*
Y-492347D01*
X71702Y-492734D01*
X71907Y-493040D01*
X71838Y-493183D01*
X71639Y-493471D01*
X70653D01*
X70529Y-493347D01*
Y-485980D01*
X70413Y-485395D01*
X70081Y-484899D01*
X64529Y-479347D01*
Y-469903D01*
X64918Y-469396D01*
X65197Y-468723D01*
X65292Y-468000D01*
X65197Y-467277D01*
X64918Y-466604D01*
X64474Y-466025D01*
X63896Y-465582D01*
X63269Y-465322D01*
Y-465232D01*
X62682D01*
X62500Y-465208D01*
X62318Y-465232D01*
X60894D01*
X59093Y-463430D01*
X59285Y-462968D01*
X61805D01*
X62000Y-462994D01*
X62195Y-462968D01*
X62968D01*
Y-462812D01*
X63497Y-462593D01*
X64117Y-462117D01*
X64593Y-461497D01*
X64892Y-460775D01*
X64994Y-460000D01*
X64892Y-459225D01*
X64593Y-458503D01*
X64117Y-457883D01*
X63497Y-457407D01*
X62968Y-457188D01*
Y-457031D01*
X62549D01*
Y-451307D01*
X62355Y-450332D01*
X61802Y-449505D01*
X54495Y-442198D01*
X53668Y-441645D01*
X52693Y-441451D01*
X41658D01*
X41390Y-440951D01*
X41740Y-440428D01*
X41825Y-440000D01*
D02*
G37*
G36*
X134500Y-459175D02*
Y-461000D01*
X136325D01*
X136240Y-460572D01*
X135714Y-459786D01*
X134928Y-459260D01*
X134500Y-459175D01*
D02*
G37*
G36*
X54500Y-465031D02*
X53500D01*
Y-468000D01*
Y-470968D01*
X54500D01*
Y-468000D01*
Y-465031D01*
D02*
G37*
G36*
X22000Y-452470D02*
X21086Y-452590D01*
X20235Y-452943D01*
X19504Y-453504D01*
X18943Y-454235D01*
X18590Y-455086D01*
X18470Y-456000D01*
X18590Y-456914D01*
X18943Y-457765D01*
X19504Y-458496D01*
X20235Y-459057D01*
X20651Y-459229D01*
Y-459771D01*
X20235Y-459943D01*
X19504Y-460504D01*
X18943Y-461235D01*
X18590Y-462086D01*
X18470Y-463000D01*
X18590Y-463914D01*
X18943Y-464765D01*
X19504Y-465496D01*
X20235Y-466057D01*
X20651Y-466229D01*
Y-466771D01*
X20235Y-466943D01*
X19504Y-467504D01*
X18943Y-468235D01*
X18590Y-469086D01*
X18470Y-470000D01*
X18590Y-470914D01*
X18943Y-471765D01*
X19504Y-472496D01*
X20235Y-473057D01*
X21086Y-473410D01*
X22000Y-473530D01*
X22914Y-473410D01*
X23765Y-473057D01*
X24428Y-472549D01*
X25946D01*
X26003Y-472593D01*
X26531Y-472812D01*
Y-472968D01*
X27305D01*
X27500Y-472994D01*
X27695Y-472968D01*
X32469D01*
Y-472768D01*
X36819D01*
X37000Y-472792D01*
X37181Y-472768D01*
X37769D01*
Y-472768D01*
X38221Y-472884D01*
X57585Y-492248D01*
X57578Y-492529D01*
X57561Y-492634D01*
X57489Y-492816D01*
X56786Y-493286D01*
X56260Y-494072D01*
X56175Y-494500D01*
X58500D01*
Y-495500D01*
X56175D01*
X56260Y-495928D01*
X56786Y-496714D01*
X56812Y-496732D01*
X56667Y-497211D01*
X52374D01*
X45644Y-490482D01*
X45154Y-490154D01*
Y-488401D01*
X40501D01*
X39535Y-487435D01*
X39039Y-487103D01*
X38453Y-486987D01*
X10142D01*
X9950Y-486524D01*
X9317Y-485699D01*
X8492Y-485066D01*
X7531Y-484668D01*
X6500Y-484533D01*
X5469Y-484668D01*
X4508Y-485066D01*
X3683Y-485699D01*
X3050Y-486524D01*
X2652Y-487485D01*
X2516Y-488516D01*
X2652Y-489547D01*
X3050Y-490508D01*
X3683Y-491333D01*
X4508Y-491966D01*
X5469Y-492364D01*
X6500Y-492500D01*
X7531Y-492364D01*
X8492Y-491966D01*
X9317Y-491333D01*
X9950Y-490508D01*
X10142Y-490046D01*
X37820D01*
X37846Y-490071D01*
Y-494725D01*
X45154D01*
Y-494725D01*
X45443Y-494606D01*
X50659Y-499822D01*
X51155Y-500153D01*
X51740Y-500270D01*
X60125D01*
X60308Y-500543D01*
X60636Y-500762D01*
X61023Y-500839D01*
X65363D01*
X65750Y-500762D01*
X66078Y-500543D01*
X66298Y-500215D01*
X66374Y-499828D01*
Y-497652D01*
X66298Y-497265D01*
X66127Y-497011D01*
X66223Y-496947D01*
X66486Y-496553D01*
X66579Y-496088D01*
Y-495500D01*
X63193D01*
Y-494500D01*
X66579D01*
Y-493912D01*
X66486Y-493447D01*
X66223Y-493053D01*
X66127Y-492989D01*
X66298Y-492734D01*
X66374Y-492347D01*
Y-490172D01*
X66298Y-489785D01*
X66078Y-489457D01*
X65750Y-489238D01*
X65363Y-489161D01*
X61023D01*
X60636Y-489238D01*
X60308Y-489457D01*
X60125Y-489731D01*
X59393D01*
X39777Y-470114D01*
X39792Y-470000D01*
X39697Y-469277D01*
X39418Y-468604D01*
X38974Y-468025D01*
X38529Y-467684D01*
Y-465316D01*
X38974Y-464974D01*
X39418Y-464396D01*
X39697Y-463723D01*
X39792Y-463000D01*
X39697Y-462277D01*
X39418Y-461604D01*
X38974Y-461025D01*
X38529Y-460684D01*
Y-458316D01*
X38974Y-457974D01*
X39418Y-457396D01*
X39697Y-456723D01*
X39792Y-456000D01*
X39697Y-455277D01*
X39418Y-454604D01*
X38974Y-454026D01*
X38396Y-453582D01*
X37769Y-453322D01*
Y-453231D01*
X37181D01*
X37000Y-453208D01*
X36819Y-453231D01*
X32469D01*
Y-453031D01*
X27695D01*
X27500Y-453006D01*
X27305Y-453031D01*
X26531D01*
Y-453188D01*
X26003Y-453407D01*
X25946Y-453451D01*
X24428D01*
X23765Y-452943D01*
X22914Y-452590D01*
X22000Y-452470D01*
D02*
G37*
G36*
X48000Y-468500D02*
X46175D01*
X46260Y-468928D01*
X46786Y-469714D01*
X47572Y-470240D01*
X48000Y-470325D01*
Y-468500D01*
D02*
G37*
G36*
X52500Y-465031D02*
X52031D01*
Y-465188D01*
X51503Y-465407D01*
X50883Y-465883D01*
X50703Y-466117D01*
X50214Y-466286D01*
X49428Y-465760D01*
X49000Y-465675D01*
Y-468000D01*
Y-470325D01*
X49428Y-470240D01*
X50214Y-469714D01*
X50703Y-469883D01*
X50883Y-470117D01*
X51503Y-470593D01*
X52031Y-470812D01*
Y-470968D01*
X52500D01*
Y-468000D01*
Y-465031D01*
D02*
G37*
G36*
X48000Y-465675D02*
X47572Y-465760D01*
X46786Y-466286D01*
X46260Y-467072D01*
X46175Y-467500D01*
X48000D01*
Y-465675D01*
D02*
G37*
G36*
X6000Y-436563D02*
X2350D01*
Y-440213D01*
X6000D01*
Y-436563D01*
D02*
G37*
G36*
X116325Y-438500D02*
X114500D01*
Y-440325D01*
X114928Y-440240D01*
X115714Y-439714D01*
X116240Y-438928D01*
X116325Y-438500D01*
D02*
G37*
G36*
X10650Y-436563D02*
X7000D01*
Y-440213D01*
X10650D01*
Y-436563D01*
D02*
G37*
G36*
X139150D02*
X135500D01*
Y-440213D01*
X139150D01*
Y-436563D01*
D02*
G37*
G36*
X134500D02*
X130850D01*
Y-440213D01*
X134500D01*
Y-436563D01*
D02*
G37*
G36*
X53325Y-438500D02*
X51500D01*
Y-440325D01*
X51928Y-440240D01*
X52714Y-439714D01*
X53240Y-438928D01*
X53325Y-438500D01*
D02*
G37*
G36*
X50500D02*
X48675D01*
X48760Y-438928D01*
X49286Y-439714D01*
X50072Y-440240D01*
X50500Y-440325D01*
Y-438500D01*
D02*
G37*
G36*
X80500D02*
X78675D01*
X78760Y-438928D01*
X79286Y-439714D01*
X80072Y-440240D01*
X80500Y-440325D01*
Y-438500D01*
D02*
G37*
G36*
X113500D02*
X111675D01*
X111760Y-438928D01*
X112286Y-439714D01*
X113072Y-440240D01*
X113500Y-440325D01*
Y-438500D01*
D02*
G37*
G36*
X83325D02*
X81500D01*
Y-440325D01*
X81928Y-440240D01*
X82714Y-439714D01*
X83240Y-438928D01*
X83325Y-438500D01*
D02*
G37*
G36*
X119500Y-501675D02*
Y-503500D01*
X121325D01*
X121240Y-503072D01*
X120714Y-502286D01*
X119928Y-501760D01*
X119500Y-501675D01*
D02*
G37*
G36*
X118500D02*
X118072Y-501760D01*
X117286Y-502286D01*
X116760Y-503072D01*
X116675Y-503500D01*
X118500D01*
Y-501675D01*
D02*
G37*
G36*
X45354Y-499937D02*
X41500D01*
X37646D01*
Y-502799D01*
X38821D01*
X38986Y-503000D01*
X44014D01*
X44179Y-502799D01*
X45354D01*
Y-499937D01*
D02*
G37*
G36*
X10650Y-499016D02*
X7000D01*
Y-502666D01*
X10650D01*
Y-499016D01*
D02*
G37*
G36*
X6000D02*
X2350D01*
Y-502666D01*
X6000D01*
Y-499016D01*
D02*
G37*
G36*
X121325Y-504500D02*
X119500D01*
Y-506325D01*
X119928Y-506240D01*
X120714Y-505714D01*
X121240Y-504928D01*
X121325Y-504500D01*
D02*
G37*
G36*
X118500D02*
X116675D01*
X116760Y-504928D01*
X117286Y-505714D01*
X118072Y-506240D01*
X118500Y-506325D01*
Y-504500D01*
D02*
G37*
G36*
X41000Y-504000D02*
X39175D01*
X39260Y-504428D01*
X39786Y-505214D01*
X40572Y-505740D01*
X41000Y-505825D01*
Y-504000D01*
D02*
G37*
G36*
X94354Y-500937D02*
X90500D01*
X86646D01*
Y-503799D01*
X88613D01*
X88761Y-504215D01*
X88776Y-504299D01*
X88260Y-505072D01*
X88175Y-505500D01*
X92825D01*
X92740Y-505072D01*
X92224Y-504299D01*
X92239Y-504215D01*
X92387Y-503799D01*
X94354D01*
Y-500937D01*
D02*
G37*
G36*
X43825Y-504000D02*
X42000D01*
Y-505825D01*
X42428Y-505740D01*
X43214Y-505214D01*
X43740Y-504428D01*
X43825Y-504000D01*
D02*
G37*
G36*
X6000Y-494367D02*
X2350D01*
Y-498016D01*
X6000D01*
Y-494367D01*
D02*
G37*
G36*
X45354Y-496075D02*
X42000D01*
Y-498937D01*
X45354D01*
Y-496075D01*
D02*
G37*
G36*
X10650Y-494367D02*
X7000D01*
Y-498016D01*
X10650D01*
Y-494367D01*
D02*
G37*
G36*
X138650Y-493850D02*
X135000D01*
Y-497500D01*
X138650D01*
Y-493850D01*
D02*
G37*
G36*
X134000D02*
X130350D01*
Y-497500D01*
X134000D01*
Y-493850D01*
D02*
G37*
G36*
X138650Y-498500D02*
X135000D01*
Y-502150D01*
X138650D01*
Y-498500D01*
D02*
G37*
G36*
X134000D02*
X130350D01*
Y-502150D01*
X134000D01*
Y-498500D01*
D02*
G37*
G36*
X90000Y-497075D02*
X86646D01*
Y-499937D01*
X90000D01*
Y-497075D01*
D02*
G37*
G36*
X41000Y-496075D02*
X37646D01*
Y-498937D01*
X41000D01*
Y-496075D01*
D02*
G37*
G36*
X94354Y-497075D02*
X91000D01*
Y-499937D01*
X94354D01*
Y-497075D01*
D02*
G37*
G36*
X15000Y-306175D02*
X14572Y-306260D01*
X13786Y-306786D01*
X13260Y-307572D01*
X13175Y-308000D01*
X15000D01*
Y-306175D01*
D02*
G37*
G36*
X59000Y-93175D02*
X58572Y-93260D01*
X57786Y-93786D01*
X57260Y-94572D01*
X57175Y-95000D01*
X59000D01*
Y-93175D01*
D02*
G37*
G36*
X74825Y-94000D02*
X73000D01*
Y-95825D01*
X73428Y-95740D01*
X74214Y-95214D01*
X74740Y-94428D01*
X74825Y-94000D01*
D02*
G37*
G36*
X72000Y-91175D02*
X71572Y-91260D01*
X70786Y-91786D01*
X70260Y-92572D01*
X70175Y-93000D01*
X72000D01*
Y-91175D01*
D02*
G37*
G36*
X60000Y-93175D02*
Y-95000D01*
X61825D01*
X61740Y-94572D01*
X61214Y-93786D01*
X60428Y-93260D01*
X60000Y-93175D01*
D02*
G37*
G36*
X72000Y-94000D02*
X70175D01*
X70260Y-94428D01*
X70786Y-95214D01*
X71572Y-95740D01*
X72000Y-95825D01*
Y-94000D01*
D02*
G37*
G36*
X8000Y-97175D02*
X7572Y-97260D01*
X6786Y-97786D01*
X6260Y-98572D01*
X6175Y-99000D01*
X8000D01*
Y-97175D01*
D02*
G37*
G36*
X30380Y-103000D02*
X25730D01*
X25815Y-103428D01*
X26037Y-103760D01*
X26012Y-103821D01*
X25617Y-104085D01*
X25353Y-104481D01*
X25260Y-104947D01*
Y-107697D01*
X30850D01*
Y-104947D01*
X30757Y-104481D01*
X30493Y-104085D01*
X30098Y-103821D01*
X30073Y-103760D01*
X30295Y-103428D01*
X30380Y-103000D01*
D02*
G37*
G36*
X61825Y-96000D02*
X60000D01*
Y-97825D01*
X60428Y-97740D01*
X61214Y-97214D01*
X61740Y-96428D01*
X61825Y-96000D01*
D02*
G37*
G36*
X59000D02*
X57175D01*
X57260Y-96428D01*
X57786Y-97214D01*
X58572Y-97740D01*
X59000Y-97825D01*
Y-96000D01*
D02*
G37*
G36*
X73000Y-91175D02*
Y-93000D01*
X74825D01*
X74740Y-92572D01*
X74214Y-91786D01*
X73428Y-91260D01*
X73000Y-91175D01*
D02*
G37*
G36*
X95000Y-76090D02*
X94150Y-76259D01*
X93430Y-76741D01*
X92948Y-77461D01*
X92779Y-78311D01*
Y-85398D01*
X92948Y-86247D01*
X93430Y-86968D01*
X94150Y-87449D01*
X95000Y-87618D01*
X95850Y-87449D01*
X96570Y-86968D01*
X97052Y-86247D01*
X97221Y-85398D01*
Y-78311D01*
X97052Y-77461D01*
X96570Y-76741D01*
X95850Y-76259D01*
X95000Y-76090D01*
D02*
G37*
G36*
X90000D02*
X89150Y-76259D01*
X88430Y-76741D01*
X87948Y-77461D01*
X87779Y-78311D01*
Y-85398D01*
X87948Y-86247D01*
X88430Y-86968D01*
X89150Y-87449D01*
X90000Y-87618D01*
X90850Y-87449D01*
X91570Y-86968D01*
X92052Y-86247D01*
X92221Y-85398D01*
Y-78311D01*
X92052Y-77461D01*
X91570Y-76741D01*
X90850Y-76259D01*
X90000Y-76090D01*
D02*
G37*
G36*
X107854Y-72374D02*
X104000D01*
X100146D01*
Y-75236D01*
X102234D01*
X102260Y-75365D01*
X102786Y-76151D01*
X103430Y-76582D01*
Y-76741D01*
X102948Y-77461D01*
X102779Y-78311D01*
Y-85398D01*
X102948Y-86247D01*
X103430Y-86968D01*
X104150Y-87449D01*
X105000Y-87618D01*
X105850Y-87449D01*
X106570Y-86968D01*
X107052Y-86247D01*
X107221Y-85398D01*
Y-78311D01*
X107052Y-77461D01*
X106570Y-76741D01*
X106367Y-76605D01*
X106330Y-75979D01*
X106740Y-75365D01*
X106766Y-75236D01*
X107854D01*
Y-72374D01*
D02*
G37*
G36*
X100000Y-76090D02*
X99150Y-76259D01*
X98430Y-76741D01*
X97948Y-77461D01*
X97779Y-78311D01*
Y-85398D01*
X97948Y-86247D01*
X98430Y-86968D01*
X99150Y-87449D01*
X100000Y-87618D01*
X100850Y-87449D01*
X101570Y-86968D01*
X102052Y-86247D01*
X102221Y-85398D01*
Y-78311D01*
X102052Y-77461D01*
X101570Y-76741D01*
X100850Y-76259D01*
X100000Y-76090D01*
D02*
G37*
G36*
X18000Y-86500D02*
X16175D01*
X16260Y-86928D01*
X16786Y-87714D01*
X17572Y-88240D01*
X18000Y-88325D01*
Y-86500D01*
D02*
G37*
G36*
X133500Y-86012D02*
X130146D01*
Y-88874D01*
X133500D01*
Y-86012D01*
D02*
G37*
G36*
X125862Y-87409D02*
X123000D01*
Y-91847D01*
X125862D01*
Y-87409D01*
D02*
G37*
G36*
X34504Y-83000D02*
X28197D01*
Y-88520D01*
X34504D01*
Y-83000D01*
D02*
G37*
G36*
X137854Y-86012D02*
X134500D01*
Y-88874D01*
X137854D01*
Y-86012D01*
D02*
G37*
G36*
X30850Y-108697D02*
X28555D01*
Y-112665D01*
X29632D01*
X30098Y-112572D01*
X30493Y-112308D01*
X30757Y-111913D01*
X30850Y-111447D01*
Y-108697D01*
D02*
G37*
G36*
X88063Y-139000D02*
X85004D01*
Y-142551D01*
X88063D01*
Y-139000D01*
D02*
G37*
G36*
X135862Y-141563D02*
X133000D01*
Y-146000D01*
X135862D01*
Y-141563D01*
D02*
G37*
G36*
X85000Y-132175D02*
Y-134500D01*
Y-137242D01*
X85004Y-137246D01*
Y-138000D01*
X88063D01*
Y-134449D01*
X86914D01*
X86740Y-133572D01*
X86214Y-132786D01*
X85428Y-132260D01*
X85000Y-132175D01*
D02*
G37*
G36*
X92122Y-139000D02*
X89063D01*
Y-142551D01*
X92122D01*
Y-139000D01*
D02*
G37*
G36*
X132000Y-141563D02*
X129138D01*
Y-146000D01*
X132000D01*
Y-141563D01*
D02*
G37*
G36*
X74000Y-149175D02*
Y-151000D01*
X75825D01*
X75740Y-150572D01*
X75214Y-149786D01*
X74428Y-149260D01*
X74000Y-149175D01*
D02*
G37*
G36*
X67000Y-148138D02*
X62563D01*
Y-151000D01*
X67000D01*
Y-148138D01*
D02*
G37*
G36*
X10937Y-146138D02*
X6500D01*
Y-149000D01*
X10937D01*
Y-146138D01*
D02*
G37*
G36*
X5500D02*
X1063D01*
Y-149000D01*
X5500D01*
Y-146138D01*
D02*
G37*
G36*
X92122Y-134449D02*
X89063D01*
Y-138000D01*
X92122D01*
Y-134449D01*
D02*
G37*
G36*
X62547Y-116500D02*
X60055D01*
Y-121059D01*
X61327D01*
X61794Y-120966D01*
X62190Y-120702D01*
X62454Y-120306D01*
X62547Y-119839D01*
Y-116500D01*
D02*
G37*
G36*
X59055D02*
X56563D01*
Y-119839D01*
X56656Y-120306D01*
X56921Y-120702D01*
X57316Y-120966D01*
X57784Y-121059D01*
X59055D01*
Y-116500D01*
D02*
G37*
G36*
X27555Y-108697D02*
X25260D01*
Y-111447D01*
X25353Y-111913D01*
X25617Y-112308D01*
X26012Y-112572D01*
X26478Y-112665D01*
X27555D01*
Y-108697D01*
D02*
G37*
G36*
X62325Y-111000D02*
X57487D01*
X57316Y-111034D01*
X56921Y-111299D01*
X56656Y-111694D01*
X56563Y-112161D01*
Y-115500D01*
X62547D01*
Y-112161D01*
X62454Y-111694D01*
X62248Y-111386D01*
X62325Y-111000D01*
D02*
G37*
G36*
X136437Y-122971D02*
X135852Y-123087D01*
X135356Y-123419D01*
X135024Y-123915D01*
X134908Y-124500D01*
X135024Y-125085D01*
X135356Y-125581D01*
X135930Y-126156D01*
X135555Y-126716D01*
X135470Y-127144D01*
X140120D01*
X140035Y-126716D01*
X139510Y-125929D01*
X139313Y-125798D01*
X139208Y-125273D01*
X138877Y-124777D01*
X137519Y-123419D01*
X137022Y-123087D01*
X136437Y-122971D01*
D02*
G37*
G36*
X84000Y-132175D02*
X83572Y-132260D01*
X82786Y-132786D01*
X82260Y-133572D01*
X82175Y-134000D01*
X84000D01*
Y-132175D01*
D02*
G37*
G36*
Y-135000D02*
X82175D01*
X82260Y-135428D01*
X82786Y-136214D01*
X83572Y-136740D01*
X84000Y-136825D01*
Y-135000D01*
D02*
G37*
G36*
X140120Y-128144D02*
X138295D01*
Y-129969D01*
X138723Y-129884D01*
X139510Y-129358D01*
X140035Y-128571D01*
X140120Y-128144D01*
D02*
G37*
G36*
X137295D02*
X135470D01*
X135555Y-128571D01*
X136081Y-129358D01*
X136867Y-129884D01*
X137295Y-129969D01*
Y-128144D01*
D02*
G37*
G36*
X122000Y-81972D02*
X119138D01*
Y-86409D01*
X122000D01*
Y-81972D01*
D02*
G37*
G36*
X11000Y-45000D02*
X7350D01*
Y-48650D01*
X11000D01*
Y-45000D01*
D02*
G37*
G36*
X79650Y-45350D02*
X76000D01*
Y-49000D01*
X79650D01*
Y-45350D01*
D02*
G37*
G36*
X11000Y-40350D02*
X7350D01*
Y-44000D01*
X11000D01*
Y-40350D01*
D02*
G37*
G36*
X15650Y-45000D02*
X12000D01*
Y-48650D01*
X15650D01*
Y-45000D01*
D02*
G37*
G36*
X75000Y-45350D02*
X71350D01*
Y-49000D01*
X75000D01*
Y-45350D01*
D02*
G37*
G36*
X83225Y-61846D02*
X76901D01*
Y-65471D01*
X74654D01*
Y-63838D01*
X67346D01*
Y-70162D01*
X74654D01*
Y-68529D01*
X76901D01*
Y-69154D01*
X83225D01*
Y-61846D01*
D02*
G37*
G36*
X128450Y-45421D02*
X120550D01*
Y-53320D01*
X122971D01*
Y-58500D01*
X123087Y-59085D01*
X123419Y-59581D01*
X128981Y-65144D01*
X129478Y-65476D01*
X130063Y-65592D01*
X130346D01*
Y-67225D01*
X137654D01*
Y-60901D01*
X130346D01*
Y-61529D01*
X129884Y-61721D01*
X126029Y-57867D01*
Y-53320D01*
X128450D01*
Y-45421D01*
D02*
G37*
G36*
X79650Y-50000D02*
X76000D01*
Y-53650D01*
X79650D01*
Y-50000D01*
D02*
G37*
G36*
X75000D02*
X71350D01*
Y-53650D01*
X75000D01*
Y-50000D01*
D02*
G37*
G36*
X15650Y-40350D02*
X12000D01*
Y-44000D01*
X15650D01*
Y-40350D01*
D02*
G37*
G36*
X12311Y-3922D02*
Y-11311D01*
X19700D01*
X19597Y-10262D01*
X19145Y-8773D01*
X18411Y-7401D01*
X17424Y-6198D01*
X16221Y-5211D01*
X14849Y-4477D01*
X13360Y-4025D01*
X12311Y-3922D01*
D02*
G37*
G36*
X11311D02*
X10262Y-4025D01*
X8773Y-4477D01*
X7401Y-5211D01*
X6198Y-6198D01*
X5211Y-7401D01*
X4477Y-8773D01*
X4025Y-10262D01*
X3922Y-11311D01*
X11311D01*
Y-3922D01*
D02*
G37*
G36*
X130421D02*
Y-11311D01*
X137810D01*
X137707Y-10262D01*
X137255Y-8773D01*
X136522Y-7401D01*
X135534Y-6198D01*
X134332Y-5211D01*
X132959Y-4477D01*
X131470Y-4025D01*
X130421Y-3922D01*
D02*
G37*
G36*
X129421D02*
X128373Y-4025D01*
X126883Y-4477D01*
X125511Y-5211D01*
X124308Y-6198D01*
X123321Y-7401D01*
X122587Y-8773D01*
X122136Y-10262D01*
X122032Y-11311D01*
X129421D01*
Y-3922D01*
D02*
G37*
G36*
X137810Y-12311D02*
X130421D01*
Y-19700D01*
X131470Y-19597D01*
X132959Y-19145D01*
X134332Y-18411D01*
X135534Y-17424D01*
X136522Y-16221D01*
X137255Y-14849D01*
X137707Y-13360D01*
X137810Y-12311D01*
D02*
G37*
G36*
X11311D02*
X3922D01*
X4025Y-13360D01*
X4477Y-14849D01*
X5211Y-16221D01*
X6198Y-17424D01*
X7401Y-18411D01*
X8773Y-19145D01*
X10262Y-19597D01*
X11311Y-19700D01*
Y-12311D01*
D02*
G37*
G36*
X11500Y-30315D02*
X10417Y-30457D01*
X9407Y-30875D01*
X8540Y-31541D01*
X7875Y-32407D01*
X7457Y-33417D01*
X7315Y-34500D01*
X7457Y-35583D01*
X7875Y-36593D01*
X8540Y-37459D01*
X9407Y-38125D01*
X10417Y-38543D01*
X11500Y-38685D01*
X12583Y-38543D01*
X13593Y-38125D01*
X14459Y-37459D01*
X14775Y-37049D01*
X24444D01*
X49754Y-62359D01*
Y-76480D01*
X45496D01*
Y-88520D01*
X51451D01*
Y-98944D01*
X45698Y-104698D01*
X43743Y-106652D01*
X43232Y-106628D01*
X32302Y-95698D01*
X31475Y-95145D01*
X30500Y-94951D01*
X15500D01*
X14525Y-95145D01*
X13698Y-95698D01*
X11134Y-98261D01*
X10490Y-98198D01*
X10214Y-97786D01*
X9428Y-97260D01*
X9000Y-97175D01*
Y-99500D01*
X8500D01*
Y-100000D01*
X6175D01*
X6260Y-100428D01*
X6786Y-101214D01*
X7475Y-101675D01*
X7733Y-102188D01*
X7590Y-102402D01*
X7396Y-103378D01*
Y-104251D01*
X7243Y-104481D01*
X7150Y-104947D01*
Y-111447D01*
X7243Y-111913D01*
X7507Y-112308D01*
X7902Y-112572D01*
X8368Y-112665D01*
X11522D01*
X11988Y-112572D01*
X12383Y-112308D01*
X12647Y-111913D01*
X12740Y-111447D01*
Y-104947D01*
X12647Y-104481D01*
X12632Y-104457D01*
X14180Y-102909D01*
X14733Y-102082D01*
X14785Y-101820D01*
X16556Y-100049D01*
X26543D01*
X26695Y-100549D01*
X26341Y-100786D01*
X25815Y-101572D01*
X25730Y-102000D01*
X30380D01*
X30304Y-101616D01*
X30326Y-101587D01*
X30870Y-101475D01*
X38896Y-109501D01*
Y-111241D01*
X38810Y-111299D01*
X38546Y-111694D01*
X38453Y-112161D01*
Y-119839D01*
X38546Y-120306D01*
X38810Y-120702D01*
X39206Y-120966D01*
X39673Y-121059D01*
X43216D01*
X43683Y-120966D01*
X44079Y-120702D01*
X44344Y-120306D01*
X44437Y-119839D01*
Y-113168D01*
X48556Y-109049D01*
X57579D01*
X57815Y-109490D01*
X57760Y-109572D01*
X57675Y-110000D01*
X62325D01*
X62240Y-109572D01*
X62185Y-109490D01*
X62421Y-109049D01*
X71951D01*
Y-116500D01*
X71983Y-116661D01*
Y-123913D01*
X79017D01*
Y-111087D01*
X77049D01*
Y-109049D01*
X84646D01*
X85621Y-108855D01*
X86448Y-108302D01*
X88323Y-106428D01*
X89072Y-106929D01*
X90000Y-107114D01*
X90928Y-106929D01*
X91714Y-106403D01*
X92240Y-105617D01*
X92245Y-105591D01*
X92755D01*
X92760Y-105617D01*
X93286Y-106403D01*
X94072Y-106929D01*
X94951Y-107104D01*
Y-111087D01*
X90093D01*
Y-123913D01*
X94951D01*
Y-134449D01*
X92878D01*
Y-142551D01*
X93888D01*
Y-143437D01*
X94082Y-144413D01*
X94635Y-145239D01*
X100981Y-151586D01*
X101090Y-152414D01*
X101443Y-153265D01*
X102004Y-153996D01*
X102735Y-154557D01*
X103586Y-154910D01*
X104500Y-155030D01*
X105414Y-154910D01*
X106265Y-154557D01*
X106996Y-153996D01*
X107557Y-153265D01*
X107910Y-152414D01*
X108030Y-151500D01*
X107910Y-150586D01*
X107557Y-149735D01*
X106996Y-149004D01*
X106265Y-148443D01*
X105414Y-148090D01*
X104586Y-147981D01*
X99618Y-143013D01*
X99809Y-142551D01*
X99996D01*
Y-137703D01*
X100049Y-137437D01*
Y-130913D01*
X104017D01*
Y-118087D01*
X100049D01*
Y-107104D01*
X100928Y-106929D01*
X101714Y-106403D01*
X102240Y-105617D01*
X102347Y-105078D01*
X102857Y-105078D01*
X102948Y-105539D01*
X103430Y-106259D01*
X104150Y-106741D01*
X105000Y-106910D01*
X105850Y-106741D01*
X106570Y-106259D01*
X107052Y-105539D01*
X107221Y-104689D01*
Y-102675D01*
X108512D01*
X117081Y-111244D01*
Y-118287D01*
X115293D01*
Y-130713D01*
X121927D01*
Y-126029D01*
X127034D01*
Y-131539D01*
X127150Y-132125D01*
X127481Y-132621D01*
X129338Y-134477D01*
Y-140213D01*
X135662D01*
Y-130739D01*
X130092D01*
Y-124500D01*
Y-118599D01*
X132217D01*
Y-116966D01*
X134063D01*
X134648Y-116850D01*
X135144Y-116518D01*
X136081Y-115581D01*
X136413Y-115085D01*
X136529Y-114500D01*
Y-99000D01*
X136413Y-98415D01*
X136081Y-97919D01*
X132488Y-94325D01*
X132806Y-93937D01*
X133072Y-94114D01*
X133500Y-94199D01*
Y-91874D01*
X134500D01*
Y-94199D01*
X134928Y-94114D01*
X135714Y-93588D01*
X136240Y-92802D01*
X136253Y-92736D01*
X137854D01*
Y-89874D01*
X134000D01*
Y-89374D01*
D01*
Y-89874D01*
X130146D01*
Y-90858D01*
X129646Y-91123D01*
X129529Y-91044D01*
Y-67500D01*
X129413Y-66915D01*
X129081Y-66419D01*
X120029Y-57367D01*
Y-43134D01*
X121108Y-42055D01*
X121607Y-42088D01*
X121683Y-42187D01*
X122508Y-42820D01*
X123469Y-43218D01*
X124500Y-43354D01*
X125531Y-43218D01*
X126492Y-42820D01*
X127317Y-42187D01*
X127950Y-41362D01*
X128348Y-40401D01*
X128484Y-39370D01*
X128348Y-38339D01*
X127950Y-37378D01*
X127317Y-36553D01*
X126492Y-35920D01*
X125531Y-35522D01*
X124500Y-35386D01*
X123469Y-35522D01*
X122508Y-35920D01*
X121683Y-36553D01*
X121050Y-37378D01*
X120859Y-37841D01*
X111142D01*
X110950Y-37378D01*
X110317Y-36553D01*
X109492Y-35920D01*
X108531Y-35522D01*
X107500Y-35386D01*
X106469Y-35522D01*
X105508Y-35920D01*
X104683Y-36553D01*
X104050Y-37378D01*
X103805Y-37971D01*
X95142D01*
X94950Y-37508D01*
X94317Y-36683D01*
X93492Y-36050D01*
X92531Y-35652D01*
X91500Y-35516D01*
X90469Y-35652D01*
X89508Y-36050D01*
X88683Y-36683D01*
X88050Y-37508D01*
X87858Y-37971D01*
X79141D01*
X78950Y-37508D01*
X78317Y-36683D01*
X77492Y-36050D01*
X76531Y-35652D01*
X75500Y-35516D01*
X74469Y-35652D01*
X73508Y-36050D01*
X72683Y-36683D01*
X72050Y-37508D01*
X71652Y-38469D01*
X71516Y-39500D01*
X71652Y-40531D01*
X72050Y-41492D01*
X72683Y-42317D01*
X73508Y-42950D01*
X74469Y-43348D01*
X75500Y-43484D01*
X76531Y-43348D01*
X77492Y-42950D01*
X78317Y-42317D01*
X78950Y-41492D01*
X79141Y-41029D01*
X87858D01*
X88050Y-41492D01*
X88683Y-42317D01*
X89508Y-42950D01*
X90469Y-43348D01*
X91500Y-43484D01*
X92531Y-43348D01*
X93492Y-42950D01*
X94317Y-42317D01*
X94950Y-41492D01*
X95142Y-41029D01*
X103912D01*
X104050Y-41362D01*
X104683Y-42187D01*
X105508Y-42820D01*
X106469Y-43218D01*
X107500Y-43354D01*
X108531Y-43218D01*
X109492Y-42820D01*
X110317Y-42187D01*
X110950Y-41362D01*
X111142Y-40900D01*
X117284D01*
X117476Y-41361D01*
X117419Y-41419D01*
X117087Y-41915D01*
X116971Y-42500D01*
Y-58000D01*
X117087Y-58585D01*
X117419Y-59081D01*
X126471Y-68133D01*
Y-92000D01*
X126587Y-92585D01*
X126919Y-93081D01*
X128288Y-94451D01*
X128081Y-94951D01*
X125862D01*
Y-92996D01*
X120601D01*
X119913Y-92308D01*
X120105Y-91847D01*
X122000D01*
Y-87409D01*
X119138D01*
Y-90880D01*
X118676Y-91071D01*
X117302Y-89698D01*
X116475Y-89145D01*
X115500Y-88951D01*
X99500D01*
X98524Y-89145D01*
X97698Y-89698D01*
X95698Y-91698D01*
X95145Y-92524D01*
X94951Y-93500D01*
Y-95188D01*
X94072Y-95362D01*
X93286Y-95888D01*
X92760Y-96675D01*
X92755Y-96700D01*
X92245D01*
X92240Y-96675D01*
X91714Y-95888D01*
X90928Y-95362D01*
X90000Y-95178D01*
X89072Y-95362D01*
X88286Y-95888D01*
X87760Y-96675D01*
X87576Y-97602D01*
Y-99965D01*
X83590Y-103951D01*
X54307D01*
X54116Y-103489D01*
X55802Y-101802D01*
X56355Y-100976D01*
X56549Y-100000D01*
Y-88520D01*
X59110D01*
Y-76480D01*
X54852D01*
Y-64275D01*
X55106Y-64106D01*
X55658Y-63279D01*
X55852Y-62303D01*
X55658Y-61328D01*
X55106Y-60501D01*
X54106Y-59501D01*
X27302Y-32698D01*
X26476Y-32145D01*
X25500Y-31951D01*
X14775D01*
X14459Y-31541D01*
X13593Y-30875D01*
X12583Y-30457D01*
X11500Y-30315D01*
D02*
G37*
G36*
X129421Y-12311D02*
X122032D01*
X122136Y-13360D01*
X122587Y-14849D01*
X123321Y-16221D01*
X124308Y-17424D01*
X125511Y-18411D01*
X126883Y-19145D01*
X128373Y-19597D01*
X129421Y-19700D01*
Y-12311D01*
D02*
G37*
G36*
X19700D02*
X12311D01*
Y-19700D01*
X13360Y-19597D01*
X14849Y-19145D01*
X16221Y-18411D01*
X17424Y-17424D01*
X18411Y-16221D01*
X19145Y-14849D01*
X19597Y-13360D01*
X19700Y-12311D01*
D02*
G37*
G36*
X111450Y-45421D02*
X103550D01*
Y-53320D01*
X105971D01*
Y-60838D01*
X100346D01*
Y-67162D01*
X107654D01*
Y-65529D01*
X110246D01*
X110346Y-65549D01*
Y-67225D01*
X117654D01*
Y-60901D01*
X110346D01*
Y-61029D01*
X109884Y-61221D01*
X109029Y-60366D01*
Y-53320D01*
X111450D01*
Y-45421D01*
D02*
G37*
G36*
X74854Y-75374D02*
X71000D01*
X67146D01*
Y-78236D01*
X68722D01*
X68760Y-78428D01*
X69286Y-79214D01*
X70072Y-79740D01*
X70500Y-79825D01*
Y-77500D01*
X71500D01*
Y-79825D01*
X71928Y-79740D01*
X72714Y-79214D01*
X73240Y-78428D01*
X73278Y-78236D01*
X74854D01*
Y-75374D01*
D02*
G37*
G36*
X34504Y-76480D02*
X28197D01*
Y-82000D01*
X34504D01*
Y-76480D01*
D02*
G37*
G36*
X125825Y-78000D02*
X124000D01*
Y-79825D01*
X124428Y-79740D01*
X125214Y-79214D01*
X125740Y-78428D01*
X125825Y-78000D01*
D02*
G37*
G36*
X123000D02*
X121175D01*
X121260Y-78428D01*
X121786Y-79214D01*
X122572Y-79740D01*
X123000Y-79825D01*
Y-78000D01*
D02*
G37*
G36*
X27197Y-76480D02*
X20890D01*
Y-82000D01*
X27197D01*
Y-76480D01*
D02*
G37*
G36*
X18000Y-83675D02*
X17572Y-83760D01*
X16786Y-84286D01*
X16260Y-85072D01*
X16175Y-85500D01*
X18000D01*
Y-83675D01*
D02*
G37*
G36*
X125862Y-81972D02*
X123000D01*
Y-86409D01*
X125862D01*
Y-81972D01*
D02*
G37*
G36*
X27197Y-83000D02*
X20890D01*
Y-84396D01*
X20390Y-84548D01*
X20214Y-84286D01*
X19428Y-83760D01*
X19000Y-83675D01*
Y-86000D01*
Y-88325D01*
X19428Y-88240D01*
X20214Y-87714D01*
X20390Y-87452D01*
X20890Y-87604D01*
Y-88520D01*
X27197D01*
Y-83000D01*
D02*
G37*
G36*
X137654Y-68775D02*
X130346D01*
Y-75099D01*
X132471D01*
Y-78338D01*
X130346D01*
Y-84662D01*
X137654D01*
Y-78338D01*
X135529D01*
Y-75099D01*
X137654D01*
Y-68775D01*
D02*
G37*
G36*
X123000Y-75175D02*
X122572Y-75260D01*
X121786Y-75786D01*
X121260Y-76572D01*
X121175Y-77000D01*
X123000D01*
Y-75175D01*
D02*
G37*
G36*
X103500Y-68512D02*
X100146D01*
Y-71374D01*
X103500D01*
Y-68512D01*
D02*
G37*
G36*
X117854Y-68575D02*
X114500D01*
Y-71437D01*
X117854D01*
Y-68575D01*
D02*
G37*
G36*
X95450Y-45550D02*
X87550D01*
Y-53450D01*
X89971D01*
Y-61304D01*
X89429Y-61846D01*
X84775D01*
Y-69154D01*
X91099D01*
Y-64501D01*
X92581Y-63018D01*
X92913Y-62522D01*
X93029Y-61937D01*
Y-53450D01*
X95450D01*
Y-45550D01*
D02*
G37*
G36*
X107854Y-68512D02*
X104500D01*
Y-71374D01*
X107854D01*
Y-68512D01*
D02*
G37*
G36*
X113500Y-68575D02*
X110146D01*
Y-71437D01*
X113500D01*
Y-68575D01*
D02*
G37*
G36*
X117854Y-72437D02*
X114000D01*
X110146D01*
Y-75299D01*
X110747D01*
X110760Y-75365D01*
X111286Y-76151D01*
X112072Y-76677D01*
X112500Y-76762D01*
Y-74437D01*
X113500D01*
Y-76762D01*
X113928Y-76677D01*
X114714Y-76151D01*
X115240Y-75365D01*
X115253Y-75299D01*
X117854D01*
Y-72437D01*
D02*
G37*
G36*
X124000Y-75175D02*
Y-77000D01*
X125825D01*
X125740Y-76572D01*
X125214Y-75786D01*
X124428Y-75260D01*
X124000Y-75175D01*
D02*
G37*
G36*
X74854Y-71512D02*
X71500D01*
Y-74374D01*
X74854D01*
Y-71512D01*
D02*
G37*
G36*
X70500D02*
X67146D01*
Y-74374D01*
X70500D01*
Y-71512D01*
D02*
G37*
G36*
X135862Y-147000D02*
X132500D01*
X129138D01*
Y-151437D01*
X129795D01*
X130187Y-151937D01*
X130175Y-152000D01*
X134825D01*
X134813Y-151937D01*
X135205Y-151437D01*
X135862D01*
Y-147000D01*
D02*
G37*
G36*
X41945Y-249175D02*
Y-251000D01*
X43770D01*
X43685Y-250572D01*
X43159Y-249786D01*
X42373Y-249260D01*
X41945Y-249175D01*
D02*
G37*
G36*
X128500Y-249675D02*
Y-251500D01*
X130325D01*
X130240Y-251072D01*
X129714Y-250286D01*
X128928Y-249760D01*
X128500Y-249675D01*
D02*
G37*
G36*
X36000Y-247575D02*
X32646D01*
Y-250437D01*
X36000D01*
Y-247575D01*
D02*
G37*
G36*
X81807Y-248339D02*
X79748D01*
Y-250063D01*
X83931D01*
X83862Y-249712D01*
X83380Y-248991D01*
X82658Y-248508D01*
X81807Y-248339D01*
D02*
G37*
G36*
X78748D02*
X76689D01*
X75838Y-248508D01*
X75116Y-248991D01*
X74634Y-249712D01*
X74552Y-250124D01*
X74307Y-250076D01*
X73379Y-250260D01*
X72593Y-250786D01*
X72067Y-251572D01*
X71982Y-252000D01*
X74307D01*
Y-252500D01*
X74807D01*
Y-254825D01*
X75235Y-254740D01*
X76021Y-254214D01*
X76145Y-254029D01*
X77311D01*
X77896Y-253913D01*
X78392Y-253581D01*
X78748Y-253226D01*
Y-250563D01*
Y-248339D01*
D02*
G37*
G36*
X40354Y-247575D02*
X37000D01*
Y-250937D01*
Y-254299D01*
X40354D01*
Y-254187D01*
X40854Y-253807D01*
X40945Y-253825D01*
Y-251500D01*
Y-249175D01*
X40854Y-249193D01*
X40354Y-248813D01*
Y-247575D01*
D02*
G37*
G36*
X36000Y-251437D02*
X32646D01*
Y-254299D01*
X36000D01*
Y-251437D01*
D02*
G37*
G36*
X43770Y-252000D02*
X41945D01*
Y-253825D01*
X42373Y-253740D01*
X43159Y-253214D01*
X43685Y-252428D01*
X43770Y-252000D01*
D02*
G37*
G36*
X100311Y-248543D02*
X95193D01*
X94420Y-248697D01*
X93765Y-249135D01*
X93327Y-249790D01*
X93173Y-250563D01*
X93327Y-251336D01*
X93765Y-251991D01*
X94420Y-252429D01*
X95193Y-252583D01*
X100311D01*
X101084Y-252429D01*
X101739Y-251991D01*
X102177Y-251336D01*
X102331Y-250563D01*
X102177Y-249790D01*
X101739Y-249135D01*
X101084Y-248697D01*
X100311Y-248543D01*
D02*
G37*
G36*
X83931Y-251063D02*
X79748D01*
Y-252787D01*
X81807D01*
X82658Y-252618D01*
X83380Y-252135D01*
X83862Y-251414D01*
X83931Y-251063D01*
D02*
G37*
G36*
X56000Y-248175D02*
X55572Y-248260D01*
X54786Y-248786D01*
X54260Y-249572D01*
X54175Y-250000D01*
X56000D01*
Y-248175D01*
D02*
G37*
G36*
X81807Y-233543D02*
X76689D01*
X75916Y-233697D01*
X75261Y-234135D01*
X74823Y-234790D01*
X74669Y-235563D01*
X74823Y-236336D01*
X75261Y-236991D01*
X75916Y-237429D01*
X76689Y-237583D01*
X81807D01*
X82580Y-237429D01*
X83235Y-236991D01*
X83673Y-236336D01*
X83827Y-235563D01*
X83673Y-234790D01*
X83235Y-234135D01*
X82580Y-233697D01*
X81807Y-233543D01*
D02*
G37*
G36*
X139650Y-237500D02*
X136000D01*
Y-241150D01*
X139650D01*
Y-237500D01*
D02*
G37*
G36*
X8000Y-233350D02*
X4350D01*
Y-237000D01*
X8000D01*
Y-233350D01*
D02*
G37*
G36*
X135000Y-232850D02*
X131350D01*
Y-236500D01*
X135000D01*
Y-232850D01*
D02*
G37*
G36*
X12650Y-233350D02*
X9000D01*
Y-237000D01*
X12650D01*
Y-233350D01*
D02*
G37*
G36*
X8000Y-238000D02*
X4350D01*
Y-241650D01*
X8000D01*
Y-238000D01*
D02*
G37*
G36*
X57599Y-234346D02*
X51275D01*
Y-241654D01*
X57157D01*
Y-242658D01*
X61932D01*
X63419Y-244144D01*
X63915Y-244476D01*
X64500Y-244592D01*
X68429D01*
X70482Y-246644D01*
X70978Y-246976D01*
X71563Y-247092D01*
X75412D01*
X75916Y-247429D01*
X76689Y-247583D01*
X81807D01*
X82580Y-247429D01*
X83235Y-246991D01*
X83673Y-246336D01*
X83827Y-245563D01*
X83673Y-244790D01*
X83235Y-244135D01*
X82580Y-243697D01*
X81807Y-243543D01*
X76689D01*
X75916Y-243697D01*
X75412Y-244034D01*
X72197D01*
X70144Y-241982D01*
X69648Y-241650D01*
X69063Y-241534D01*
X65843D01*
Y-236531D01*
X59739D01*
X59437Y-236471D01*
X57599D01*
Y-234346D01*
D02*
G37*
G36*
X12650Y-238000D02*
X9000D01*
Y-241650D01*
X12650D01*
Y-238000D01*
D02*
G37*
G36*
X135000Y-237500D02*
X131350D01*
Y-241150D01*
X135000D01*
Y-237500D01*
D02*
G37*
G36*
X49725Y-234346D02*
X43401D01*
Y-236471D01*
X41563D01*
X40978Y-236587D01*
X40481Y-236919D01*
X37499Y-239901D01*
X32846D01*
Y-241534D01*
X32070D01*
X29536Y-238999D01*
Y-234346D01*
X23212D01*
Y-241654D01*
X27865D01*
X30356Y-244144D01*
X30852Y-244476D01*
X31437Y-244592D01*
X32846D01*
Y-246225D01*
X40154D01*
Y-241571D01*
X42197Y-239529D01*
X43401D01*
Y-241654D01*
X45034D01*
Y-254960D01*
X43743D01*
Y-263951D01*
X19928D01*
X19265Y-263443D01*
X18414Y-263090D01*
X17500Y-262970D01*
X16586Y-263090D01*
X15735Y-263443D01*
X15004Y-264004D01*
X14443Y-264735D01*
X14090Y-265586D01*
X13970Y-266500D01*
X14090Y-267414D01*
X14443Y-268265D01*
X15004Y-268996D01*
X15735Y-269557D01*
X16586Y-269910D01*
X17500Y-270030D01*
X18414Y-269910D01*
X19265Y-269557D01*
X19928Y-269049D01*
X49444D01*
X54888Y-274493D01*
Y-280532D01*
X54469D01*
Y-280732D01*
X50118D01*
X49937Y-280708D01*
X49755Y-280732D01*
X49169D01*
Y-280822D01*
X48541Y-281082D01*
X47962Y-281525D01*
X47519Y-282104D01*
X47240Y-282777D01*
X47145Y-283500D01*
X47240Y-284223D01*
X47519Y-284896D01*
X47962Y-285474D01*
X48541Y-285918D01*
X49169Y-286178D01*
Y-286268D01*
X49755D01*
X49937Y-286292D01*
X50118Y-286268D01*
X50689D01*
X50856Y-286518D01*
X53407Y-289070D01*
X53215Y-289531D01*
X52500D01*
Y-292500D01*
Y-295468D01*
X54969D01*
Y-295269D01*
X58163D01*
Y-301693D01*
X58280Y-302278D01*
X58612Y-302774D01*
X61971Y-306134D01*
Y-315500D01*
X62087Y-316085D01*
X62419Y-316581D01*
X64419Y-318581D01*
X64915Y-318913D01*
X65500Y-319029D01*
X66139D01*
X66338Y-319317D01*
X66407Y-319460D01*
X66202Y-319765D01*
X66126Y-320153D01*
Y-322328D01*
X66202Y-322715D01*
X66422Y-323043D01*
X66750Y-323262D01*
X67137Y-323339D01*
X71477D01*
X71864Y-323262D01*
X72193Y-323043D01*
X72375Y-322769D01*
X84760D01*
X85345Y-322653D01*
X85841Y-322322D01*
X91133Y-317029D01*
X92232D01*
Y-320269D01*
Y-323471D01*
X78000D01*
X77415Y-323587D01*
X76919Y-323919D01*
X70867Y-329971D01*
X25126D01*
X24541Y-330087D01*
X24045Y-330419D01*
X18419Y-336045D01*
X18087Y-336541D01*
X17971Y-337126D01*
Y-338846D01*
X16338D01*
Y-346154D01*
X22662D01*
Y-338846D01*
X21029D01*
Y-337759D01*
X25760Y-333029D01*
X71500D01*
X72085Y-332913D01*
X72581Y-332581D01*
X78633Y-326529D01*
X92684D01*
X93025Y-326975D01*
X93604Y-327418D01*
X94277Y-327697D01*
X95000Y-327792D01*
X95723Y-327697D01*
X96396Y-327418D01*
X96974Y-326975D01*
X97418Y-326396D01*
X97678Y-325768D01*
X97768D01*
Y-325182D01*
X97792Y-325000D01*
X97768Y-324818D01*
Y-320269D01*
Y-315682D01*
X97792Y-315500D01*
X97768Y-315318D01*
Y-314894D01*
X101634Y-311029D01*
X105184D01*
X105526Y-311474D01*
X106104Y-311918D01*
X106731Y-312178D01*
Y-312268D01*
X107318D01*
X107500Y-312292D01*
X107682Y-312268D01*
X116818D01*
X117000Y-312292D01*
X117182Y-312268D01*
X117769D01*
Y-312178D01*
X118396Y-311918D01*
X118974Y-311474D01*
X119316Y-311029D01*
X124866D01*
X128732Y-314894D01*
Y-315318D01*
X128708Y-315500D01*
X128732Y-315682D01*
Y-320269D01*
Y-324818D01*
X128708Y-325000D01*
X128732Y-325182D01*
Y-325768D01*
X128822D01*
X129082Y-326396D01*
X129238Y-326599D01*
X125419Y-330419D01*
X125087Y-330915D01*
X124971Y-331500D01*
Y-340866D01*
X122562Y-343275D01*
X115346D01*
Y-348823D01*
X114897Y-349044D01*
X114765Y-348943D01*
X113914Y-348590D01*
X113000Y-348470D01*
X112086Y-348590D01*
X111235Y-348943D01*
X110573Y-349451D01*
X109207D01*
X109157Y-348951D01*
X109584Y-348866D01*
X110239Y-348428D01*
X110677Y-347773D01*
X110831Y-347000D01*
X110677Y-346227D01*
X110239Y-345572D01*
X109584Y-345134D01*
X108811Y-344980D01*
X103693D01*
X102920Y-345134D01*
X102265Y-345572D01*
X101827Y-346227D01*
X101673Y-347000D01*
X101827Y-347773D01*
X102265Y-348428D01*
X102920Y-348866D01*
X103693Y-349020D01*
X105856D01*
X105906Y-349520D01*
X105277Y-349645D01*
X105080Y-349776D01*
X103693D01*
X102842Y-349945D01*
X102120Y-350428D01*
X101638Y-351149D01*
X101469Y-352000D01*
X101638Y-352851D01*
X102120Y-353573D01*
X102842Y-354055D01*
X103693Y-354224D01*
X105080D01*
X105277Y-354355D01*
X105906Y-354480D01*
X105856Y-354980D01*
X103693D01*
X102920Y-355134D01*
X102416Y-355471D01*
X100252D01*
X99667Y-355587D01*
X99171Y-355919D01*
X95356Y-359734D01*
X95024Y-360230D01*
X94908Y-360815D01*
Y-364429D01*
X92366Y-366971D01*
X73257D01*
Y-359960D01*
X68999D01*
X68847Y-359460D01*
X69214Y-359214D01*
X69740Y-358428D01*
X69891Y-357669D01*
X72043D01*
Y-354906D01*
X67500D01*
X62957D01*
Y-357669D01*
X65109D01*
X65260Y-358428D01*
X65786Y-359214D01*
X66225Y-359508D01*
X66342Y-359960D01*
X66342Y-360142D01*
Y-363439D01*
X66024Y-363915D01*
X65908Y-364500D01*
X66024Y-365085D01*
X66342Y-365561D01*
Y-369040D01*
X69814D01*
X70356Y-369581D01*
X70852Y-369913D01*
X71437Y-370029D01*
X93000D01*
X93585Y-369913D01*
X94081Y-369581D01*
X97518Y-366144D01*
X97850Y-365648D01*
X97966Y-365063D01*
Y-361449D01*
X100885Y-358529D01*
X102416D01*
X102920Y-358866D01*
X103693Y-359020D01*
X108811D01*
X109584Y-358866D01*
X110088Y-358529D01*
X111846D01*
Y-362725D01*
X119154D01*
Y-356883D01*
X121081Y-354956D01*
X121413Y-354459D01*
X121529Y-353874D01*
Y-349599D01*
X122654D01*
Y-347509D01*
X123509Y-346654D01*
X123971Y-346846D01*
Y-357901D01*
X121846D01*
Y-364225D01*
X129154D01*
Y-357901D01*
X127029D01*
Y-346245D01*
X132600Y-340674D01*
X133099Y-340707D01*
X133183Y-340817D01*
X134008Y-341450D01*
X134969Y-341848D01*
X136000Y-341984D01*
X137031Y-341848D01*
X137992Y-341450D01*
X138817Y-340817D01*
X139450Y-339992D01*
X139848Y-339031D01*
X139984Y-338000D01*
X139848Y-336969D01*
X139450Y-336008D01*
X138817Y-335183D01*
X137992Y-334550D01*
X137529Y-334359D01*
Y-320000D01*
X137413Y-319415D01*
X137081Y-318919D01*
X134268Y-316106D01*
Y-315682D01*
X134292Y-315500D01*
X134268Y-315318D01*
Y-314732D01*
X134178D01*
X133918Y-314104D01*
X133475Y-313526D01*
X132896Y-313082D01*
X132223Y-312803D01*
X131500Y-312708D01*
X130944Y-312781D01*
X126581Y-308419D01*
X126085Y-308087D01*
X125500Y-307971D01*
X119316D01*
X118974Y-307525D01*
X118396Y-307082D01*
X117769Y-306822D01*
Y-306732D01*
X117182D01*
X117000Y-306708D01*
X116818Y-306732D01*
X107682D01*
X107500Y-306708D01*
X107318Y-306732D01*
X106731D01*
Y-306822D01*
X106104Y-307082D01*
X105526Y-307525D01*
X105184Y-307971D01*
X101000D01*
X100415Y-308087D01*
X99919Y-308419D01*
X95556Y-312781D01*
X95000Y-312708D01*
X94277Y-312803D01*
X93604Y-313082D01*
X93025Y-313526D01*
X92684Y-313971D01*
X90500D01*
X89915Y-314087D01*
X89419Y-314419D01*
X84126Y-319711D01*
X72475D01*
X72276Y-319423D01*
X72208Y-319280D01*
X72412Y-318975D01*
X72489Y-318588D01*
Y-316412D01*
X72412Y-316025D01*
X72208Y-315720D01*
X72276Y-315577D01*
X72475Y-315289D01*
X75740D01*
X76325Y-315173D01*
X76822Y-314841D01*
X96394Y-295269D01*
X96819D01*
X97000Y-295292D01*
X97181Y-295269D01*
X101532D01*
Y-295468D01*
X106305D01*
X106500Y-295494D01*
X106695Y-295468D01*
X107468D01*
Y-295312D01*
X107997Y-295093D01*
X108054Y-295049D01*
X110073D01*
X110735Y-295557D01*
X111586Y-295910D01*
X112500Y-296030D01*
X113414Y-295910D01*
X114265Y-295557D01*
X114996Y-294996D01*
X115557Y-294265D01*
X115910Y-293414D01*
X116030Y-292500D01*
X115910Y-291586D01*
X115557Y-290735D01*
X114996Y-290004D01*
X114265Y-289443D01*
X114249Y-289436D01*
X114316Y-288923D01*
X114414Y-288910D01*
X115265Y-288557D01*
X115996Y-287996D01*
X116557Y-287265D01*
X116910Y-286414D01*
X117030Y-285500D01*
X116910Y-284586D01*
X116557Y-283735D01*
X115996Y-283004D01*
X115265Y-282443D01*
X115249Y-282436D01*
X115316Y-281923D01*
X115414Y-281910D01*
X116265Y-281557D01*
X116996Y-280996D01*
X117557Y-280265D01*
X117910Y-279414D01*
X118030Y-278500D01*
X117910Y-277586D01*
X117557Y-276735D01*
X116996Y-276004D01*
X116265Y-275443D01*
X115414Y-275090D01*
X114500Y-274970D01*
X113586Y-275090D01*
X112735Y-275443D01*
X112073Y-275951D01*
X108054D01*
X107997Y-275907D01*
X107468Y-275688D01*
Y-275532D01*
X106695D01*
X106500Y-275506D01*
X106305Y-275532D01*
X101532D01*
Y-275731D01*
X97181D01*
X97000Y-275708D01*
X96819Y-275731D01*
X96232D01*
Y-275822D01*
X95604Y-276082D01*
X95025Y-276525D01*
X94582Y-277104D01*
X94303Y-277777D01*
X94208Y-278500D01*
X94303Y-279223D01*
X94582Y-279896D01*
X95025Y-280474D01*
X95471Y-280816D01*
Y-283184D01*
X95025Y-283525D01*
X94582Y-284104D01*
X94303Y-284777D01*
X94208Y-285500D01*
X94303Y-286223D01*
X94582Y-286896D01*
X95025Y-287474D01*
X95471Y-287816D01*
Y-290184D01*
X95025Y-290526D01*
X94582Y-291104D01*
X94303Y-291777D01*
X94208Y-292500D01*
X94281Y-293056D01*
X75107Y-312230D01*
X72375D01*
X72193Y-311957D01*
X71864Y-311738D01*
X71477Y-311661D01*
X67137D01*
X66750Y-311738D01*
X66422Y-311957D01*
X66202Y-312285D01*
X66126Y-312672D01*
Y-314847D01*
X66193Y-315188D01*
X66176Y-315272D01*
X66162Y-315292D01*
X65513Y-315350D01*
X65029Y-314866D01*
Y-305500D01*
X64913Y-304915D01*
X64581Y-304419D01*
X61222Y-301059D01*
Y-294668D01*
X61475Y-294475D01*
X61918Y-293896D01*
X62197Y-293223D01*
X62292Y-292500D01*
X62197Y-291777D01*
X61918Y-291104D01*
X61475Y-290526D01*
X60896Y-290082D01*
X60268Y-289822D01*
Y-289732D01*
X59681D01*
X59500Y-289708D01*
X59319Y-289732D01*
X58394D01*
X55593Y-286930D01*
X55785Y-286469D01*
X59242D01*
X59437Y-286494D01*
X59632Y-286469D01*
X60405D01*
Y-286312D01*
X60934Y-286093D01*
X61554Y-285617D01*
X62030Y-284997D01*
X62329Y-284275D01*
X62431Y-283500D01*
X62329Y-282725D01*
X62030Y-282003D01*
X61554Y-281383D01*
X60934Y-280907D01*
X60405Y-280688D01*
Y-280532D01*
X59986D01*
Y-273437D01*
X59792Y-272462D01*
X59239Y-271635D01*
X52302Y-264698D01*
X51476Y-264145D01*
X50658Y-263983D01*
Y-260561D01*
X50976Y-260085D01*
X51092Y-259500D01*
X50976Y-258915D01*
X50658Y-258439D01*
Y-254960D01*
X48092D01*
Y-241654D01*
X49725D01*
Y-234346D01*
D02*
G37*
G36*
X92825Y-287000D02*
X91000D01*
Y-288825D01*
X91428Y-288740D01*
X92214Y-288214D01*
X92740Y-287428D01*
X92825Y-287000D01*
D02*
G37*
G36*
X90000D02*
X88175D01*
X88260Y-287428D01*
X88786Y-288214D01*
X89572Y-288740D01*
X90000Y-288825D01*
Y-287000D01*
D02*
G37*
G36*
Y-284175D02*
X89572Y-284260D01*
X88786Y-284786D01*
X88260Y-285572D01*
X88175Y-286000D01*
X90000D01*
Y-284175D01*
D02*
G37*
G36*
X130000Y-275000D02*
X128175D01*
X128260Y-275428D01*
X128786Y-276214D01*
X129572Y-276740D01*
X130000Y-276825D01*
Y-275000D01*
D02*
G37*
G36*
X91000Y-284175D02*
Y-286000D01*
X92825D01*
X92740Y-285572D01*
X92214Y-284786D01*
X91428Y-284260D01*
X91000Y-284175D01*
D02*
G37*
G36*
X51500Y-289531D02*
X50500D01*
Y-292500D01*
Y-295468D01*
X51500D01*
Y-292500D01*
Y-289531D01*
D02*
G37*
G36*
X16000Y-306175D02*
Y-308000D01*
X17825D01*
X17740Y-307572D01*
X17214Y-306786D01*
X16428Y-306260D01*
X16000Y-306175D01*
D02*
G37*
G36*
X45000Y-293000D02*
X43175D01*
X43260Y-293428D01*
X43786Y-294214D01*
X44572Y-294740D01*
X45000Y-294825D01*
Y-293000D01*
D02*
G37*
G36*
X49500Y-289531D02*
X49031D01*
Y-289688D01*
X48503Y-289907D01*
X47883Y-290383D01*
X47703Y-290617D01*
X47214Y-290786D01*
X46428Y-290260D01*
X46000Y-290175D01*
Y-292500D01*
Y-294825D01*
X46428Y-294740D01*
X47214Y-294214D01*
X47703Y-294383D01*
X47883Y-294617D01*
X48503Y-295093D01*
X49031Y-295312D01*
Y-295468D01*
X49500D01*
Y-292500D01*
Y-289531D01*
D02*
G37*
G36*
X45000Y-290175D02*
X44572Y-290260D01*
X43786Y-290786D01*
X43260Y-291572D01*
X43175Y-292000D01*
X45000D01*
Y-290175D01*
D02*
G37*
G36*
X132825Y-275000D02*
X131000D01*
Y-276825D01*
X131428Y-276740D01*
X132214Y-276214D01*
X132740Y-275428D01*
X132825Y-275000D01*
D02*
G37*
G36*
X122000Y-255075D02*
X118646D01*
Y-257937D01*
X122000D01*
Y-255075D01*
D02*
G37*
G36*
X111000D02*
X107646D01*
Y-257937D01*
X111000D01*
Y-255075D01*
D02*
G37*
G36*
X126354D02*
X123000D01*
Y-257937D01*
X126354D01*
Y-255075D01*
D02*
G37*
G36*
X130325Y-252500D02*
X128500D01*
Y-254325D01*
X128928Y-254240D01*
X129714Y-253714D01*
X130240Y-252928D01*
X130325Y-252500D01*
D02*
G37*
G36*
X73807Y-253000D02*
X71982D01*
X72067Y-253428D01*
X72593Y-254214D01*
X73379Y-254740D01*
X73807Y-254825D01*
Y-253000D01*
D02*
G37*
G36*
X131000Y-272175D02*
Y-274000D01*
X132825D01*
X132740Y-273572D01*
X132214Y-272786D01*
X131428Y-272260D01*
X131000Y-272175D01*
D02*
G37*
G36*
X130000D02*
X129572Y-272260D01*
X128786Y-272786D01*
X128260Y-273572D01*
X128175Y-274000D01*
X130000D01*
Y-272175D01*
D02*
G37*
G36*
X115354Y-255075D02*
X112000D01*
Y-258437D01*
Y-261799D01*
X114135D01*
X114260Y-262428D01*
X114786Y-263214D01*
X115572Y-263740D01*
X116000Y-263825D01*
Y-261500D01*
Y-258837D01*
X115354Y-258191D01*
Y-255075D01*
D02*
G37*
G36*
X126354Y-258937D02*
X122500D01*
X118646D01*
Y-259599D01*
X118146Y-259740D01*
X117428Y-259260D01*
X117000Y-259175D01*
Y-261500D01*
Y-263825D01*
X117428Y-263740D01*
X118214Y-263214D01*
X118740Y-262428D01*
X118865Y-261799D01*
X119911D01*
X120076Y-262000D01*
X120260Y-262928D01*
X120786Y-263714D01*
X121572Y-264240D01*
X122000Y-264325D01*
Y-262000D01*
X123000D01*
Y-264325D01*
X123428Y-264240D01*
X124214Y-263714D01*
X124740Y-262928D01*
X124925Y-262000D01*
X125089Y-261799D01*
X126354D01*
Y-258937D01*
D02*
G37*
G36*
X111000Y-258937D02*
X107646D01*
Y-261799D01*
X111000D01*
Y-258937D01*
D02*
G37*
G36*
X124000Y-167500D02*
X122175D01*
X122260Y-167928D01*
X122786Y-168714D01*
X123572Y-169240D01*
X124000Y-169325D01*
Y-167500D01*
D02*
G37*
G36*
X49000Y-179532D02*
X48531D01*
Y-179688D01*
X48003Y-179907D01*
X47383Y-180383D01*
X47237Y-180573D01*
X46777Y-180786D01*
X45991Y-180260D01*
X45563Y-180175D01*
Y-182500D01*
Y-184825D01*
X45991Y-184740D01*
X46777Y-184214D01*
X47237Y-184427D01*
X47383Y-184617D01*
X48003Y-185093D01*
X48531Y-185312D01*
Y-185468D01*
X49000D01*
Y-182500D01*
Y-179532D01*
D02*
G37*
G36*
X126825Y-167500D02*
X125000D01*
Y-169325D01*
X125428Y-169240D01*
X126214Y-168714D01*
X126740Y-167928D01*
X126825Y-167500D01*
D02*
G37*
G36*
X125000Y-164675D02*
Y-166500D01*
X126825D01*
X126740Y-166072D01*
X126214Y-165286D01*
X125428Y-164760D01*
X125000Y-164675D01*
D02*
G37*
G36*
X124000D02*
X123572Y-164760D01*
X122786Y-165286D01*
X122260Y-166072D01*
X122175Y-166500D01*
X124000D01*
Y-164675D01*
D02*
G37*
G36*
X10000Y-192675D02*
Y-194500D01*
X11825D01*
X11740Y-194072D01*
X11214Y-193286D01*
X10428Y-192760D01*
X10000Y-192675D01*
D02*
G37*
G36*
X9000D02*
X8572Y-192760D01*
X7786Y-193286D01*
X7260Y-194072D01*
X7175Y-194500D01*
X9000D01*
Y-192675D01*
D02*
G37*
G36*
X51000Y-179532D02*
X50000D01*
Y-182500D01*
Y-185468D01*
X51000D01*
Y-182500D01*
Y-179532D01*
D02*
G37*
G36*
X44563Y-180175D02*
X44135Y-180260D01*
X43349Y-180786D01*
X42823Y-181572D01*
X42738Y-182000D01*
X44563D01*
Y-180175D01*
D02*
G37*
G36*
Y-183000D02*
X42738D01*
X42823Y-183428D01*
X43349Y-184214D01*
X44135Y-184740D01*
X44563Y-184825D01*
Y-183000D01*
D02*
G37*
G36*
X72437Y-148138D02*
X68000D01*
Y-151500D01*
Y-154862D01*
X72437D01*
Y-154205D01*
X72937Y-153813D01*
X73000Y-153825D01*
Y-151500D01*
Y-149175D01*
X72937Y-149187D01*
X72437Y-148795D01*
Y-148138D01*
D02*
G37*
G36*
X134825Y-153000D02*
X133000D01*
Y-154825D01*
X133428Y-154740D01*
X134214Y-154214D01*
X134740Y-153428D01*
X134825Y-153000D01*
D02*
G37*
G36*
X75825Y-152000D02*
X74000D01*
Y-153825D01*
X74428Y-153740D01*
X75214Y-153214D01*
X75740Y-152428D01*
X75825Y-152000D01*
D02*
G37*
G36*
X5500Y-150000D02*
X1063D01*
Y-152862D01*
X1063D01*
X1139Y-153005D01*
X760Y-153572D01*
X675Y-154000D01*
X5325D01*
X5240Y-153572D01*
X5060Y-153303D01*
X5296Y-152862D01*
X5500D01*
Y-150000D01*
D02*
G37*
G36*
X10937D02*
X6500D01*
Y-152862D01*
X10937D01*
Y-150000D01*
D02*
G37*
G36*
X5325Y-155000D02*
X3500D01*
Y-156825D01*
X3928Y-156740D01*
X4714Y-156214D01*
X5240Y-155428D01*
X5325Y-155000D01*
D02*
G37*
G36*
X2500D02*
X675D01*
X760Y-155428D01*
X1286Y-156214D01*
X2072Y-156740D01*
X2500Y-156825D01*
Y-155000D01*
D02*
G37*
G36*
X20577Y-103729D02*
X17423D01*
X16957Y-103821D01*
X16562Y-104085D01*
X16298Y-104481D01*
X16205Y-104947D01*
Y-111447D01*
X16298Y-111913D01*
X16451Y-112143D01*
Y-128335D01*
X12908D01*
X12437Y-128428D01*
X12037Y-128695D01*
X11771Y-129094D01*
X11677Y-129565D01*
Y-136041D01*
X11771Y-136512D01*
X12037Y-136911D01*
X12437Y-137178D01*
X12908Y-137272D01*
X14475D01*
Y-146138D01*
X12087D01*
Y-152862D01*
X13951D01*
Y-164500D01*
X14145Y-165475D01*
X14698Y-166302D01*
X17981Y-169586D01*
X18090Y-170414D01*
X18443Y-171265D01*
X19004Y-171996D01*
X19735Y-172557D01*
X19999Y-172667D01*
Y-173208D01*
X19432Y-173443D01*
X18701Y-174004D01*
X18140Y-174735D01*
X17787Y-175586D01*
X17667Y-176500D01*
X17787Y-177414D01*
X18140Y-178265D01*
X18701Y-178996D01*
X19432Y-179557D01*
X19999Y-179792D01*
Y-180333D01*
X19735Y-180443D01*
X19004Y-181004D01*
X18443Y-181735D01*
X18090Y-182586D01*
X17970Y-183500D01*
X18090Y-184414D01*
X18443Y-185265D01*
X19004Y-185996D01*
X19735Y-186557D01*
X20586Y-186910D01*
X21500Y-187030D01*
X22414Y-186910D01*
X23265Y-186557D01*
X23927Y-186049D01*
X25446D01*
X25503Y-186093D01*
X26032Y-186312D01*
Y-186469D01*
X26805D01*
X27000Y-186494D01*
X27195Y-186469D01*
X31969D01*
Y-186268D01*
X35471D01*
Y-191000D01*
X35587Y-191585D01*
X35919Y-192081D01*
X46678Y-202841D01*
X47175Y-203173D01*
X47760Y-203289D01*
X55604D01*
X55749Y-203768D01*
X55723Y-203786D01*
X55197Y-204572D01*
X55112Y-205000D01*
X57437D01*
Y-206000D01*
X55112D01*
X55197Y-206428D01*
X55723Y-207214D01*
X56509Y-207740D01*
X57062Y-207850D01*
X57467Y-208123D01*
X57511Y-208410D01*
Y-210328D01*
X57527Y-210408D01*
X57164Y-210904D01*
X57156Y-210908D01*
X47077D01*
X46925Y-210408D01*
X47214Y-210214D01*
X47740Y-209428D01*
X47825Y-209000D01*
X43175D01*
X43260Y-209428D01*
X43786Y-210214D01*
X44075Y-210408D01*
X43923Y-210908D01*
X19154D01*
Y-209275D01*
X11846D01*
Y-213929D01*
X7419Y-218356D01*
X7087Y-218852D01*
X6971Y-219437D01*
Y-223858D01*
X6508Y-224050D01*
X5683Y-224683D01*
X5050Y-225508D01*
X4652Y-226469D01*
X4516Y-227500D01*
X4652Y-228531D01*
X5050Y-229492D01*
X5683Y-230317D01*
X6508Y-230950D01*
X7469Y-231348D01*
X8500Y-231484D01*
X9531Y-231348D01*
X10492Y-230950D01*
X11317Y-230317D01*
X11950Y-229492D01*
X12348Y-228531D01*
X12484Y-227500D01*
X12348Y-226469D01*
X11950Y-225508D01*
X11317Y-224683D01*
X10492Y-224050D01*
X10029Y-223858D01*
Y-220071D01*
X14501Y-215599D01*
X19154D01*
Y-213966D01*
X54112D01*
X54263Y-214466D01*
X53786Y-214786D01*
X53260Y-215572D01*
X53175Y-216000D01*
X57825D01*
X57740Y-215572D01*
X57214Y-214786D01*
X56737Y-214466D01*
X56888Y-213966D01*
X58284D01*
X58869Y-213850D01*
X59365Y-213518D01*
X61544Y-211339D01*
X62863D01*
X63250Y-211262D01*
X63578Y-211043D01*
X63798Y-210715D01*
X63875Y-210328D01*
Y-208153D01*
X63798Y-207766D01*
X63627Y-207511D01*
X63722Y-207447D01*
X63986Y-207053D01*
X64078Y-206588D01*
Y-206000D01*
X60693D01*
Y-205000D01*
X64078D01*
Y-204412D01*
X63986Y-203947D01*
X63722Y-203553D01*
X63627Y-203489D01*
X63798Y-203235D01*
X63875Y-202847D01*
Y-200672D01*
X63798Y-200285D01*
X63578Y-199957D01*
X63250Y-199738D01*
X62863Y-199661D01*
X58523D01*
X58136Y-199738D01*
X57807Y-199957D01*
X57625Y-200230D01*
X48393D01*
X38529Y-190366D01*
Y-185403D01*
X38918Y-184896D01*
X39197Y-184223D01*
X39292Y-183500D01*
X39197Y-182777D01*
X38918Y-182104D01*
X38475Y-181526D01*
X38029Y-181184D01*
Y-178816D01*
X38475Y-178474D01*
X38918Y-177896D01*
X39197Y-177223D01*
X39292Y-176500D01*
X39197Y-175777D01*
X38918Y-175104D01*
X38475Y-174525D01*
X38029Y-174184D01*
Y-171816D01*
X38475Y-171475D01*
X38918Y-170896D01*
X39197Y-170223D01*
X39292Y-169500D01*
X39197Y-168777D01*
X38918Y-168104D01*
X38475Y-167525D01*
X37896Y-167082D01*
X37268Y-166822D01*
Y-166732D01*
X36682D01*
X36500Y-166708D01*
X36318Y-166732D01*
X31969D01*
Y-166532D01*
X27195D01*
X27000Y-166506D01*
X26805Y-166532D01*
X26032D01*
Y-166688D01*
X25503Y-166907D01*
X25446Y-166951D01*
X23927D01*
X23265Y-166443D01*
X22414Y-166090D01*
X21586Y-165981D01*
X19049Y-163444D01*
Y-155783D01*
X19511Y-155592D01*
X22198Y-158279D01*
X23024Y-158831D01*
X24000Y-159025D01*
X25049D01*
X25711Y-159534D01*
X26563Y-159886D01*
X27476Y-160007D01*
X28390Y-159886D01*
X29241Y-159534D01*
X29973Y-158973D01*
X30534Y-158241D01*
X30886Y-157390D01*
X31007Y-156476D01*
X30886Y-155563D01*
X30534Y-154711D01*
X29973Y-153980D01*
X29241Y-153419D01*
X28390Y-153067D01*
X27476Y-152946D01*
X26563Y-153067D01*
X25711Y-153419D01*
X25053Y-153924D01*
X21961Y-150832D01*
Y-148593D01*
X22461Y-148347D01*
X22735Y-148557D01*
X23586Y-148910D01*
X24500Y-149030D01*
X25414Y-148910D01*
X25539Y-148858D01*
X26500Y-149049D01*
X27476Y-148855D01*
X28302Y-148302D01*
X33056Y-143549D01*
X43079D01*
Y-144834D01*
X43172Y-145303D01*
X43438Y-145700D01*
X43835Y-145966D01*
X44304Y-146059D01*
X47183D01*
X47374Y-146521D01*
X42698Y-151198D01*
X42145Y-152024D01*
X41951Y-153000D01*
Y-162500D01*
X42145Y-163476D01*
X42698Y-164302D01*
X43525Y-164855D01*
X44500Y-165049D01*
X51637D01*
X55951Y-169363D01*
Y-170531D01*
X54031D01*
Y-170731D01*
X49681D01*
X49500Y-170708D01*
X49319Y-170731D01*
X48731D01*
Y-170822D01*
X48104Y-171082D01*
X47526Y-171526D01*
X47082Y-172104D01*
X46803Y-172777D01*
X46708Y-173500D01*
X46803Y-174223D01*
X47082Y-174896D01*
X47526Y-175475D01*
X48104Y-175918D01*
X48731Y-176178D01*
Y-176268D01*
X49319D01*
X49500Y-176292D01*
X49681Y-176268D01*
X51264D01*
X53246Y-178250D01*
X53349Y-178319D01*
X54062Y-179032D01*
X53854Y-179532D01*
X52000D01*
Y-182500D01*
Y-185468D01*
X54469D01*
Y-185268D01*
X58819D01*
X59000Y-185292D01*
X59181Y-185268D01*
X59768D01*
Y-185178D01*
X60297Y-184959D01*
X65221Y-189883D01*
Y-203750D01*
X65337Y-204335D01*
X65669Y-204831D01*
X67419Y-206581D01*
X67915Y-206913D01*
X68500Y-207029D01*
X69139D01*
X69339Y-207317D01*
X69407Y-207460D01*
X69202Y-207766D01*
X69125Y-208153D01*
Y-210328D01*
X69202Y-210715D01*
X69422Y-211043D01*
X69750Y-211262D01*
X70137Y-211339D01*
X74477D01*
X74864Y-211262D01*
X75192Y-211043D01*
X75375Y-210770D01*
X84760D01*
X85345Y-210653D01*
X85841Y-210322D01*
X87270Y-208893D01*
X87731Y-209085D01*
Y-211268D01*
Y-215819D01*
X87708Y-216000D01*
X87731Y-216181D01*
Y-216606D01*
X86419Y-217919D01*
X86087Y-218415D01*
X85971Y-219000D01*
Y-219971D01*
X22000D01*
X21415Y-220087D01*
X20919Y-220419D01*
X17419Y-223919D01*
X17087Y-224415D01*
X16971Y-225000D01*
Y-234346D01*
X15338D01*
Y-241654D01*
X21662D01*
Y-234346D01*
X20029D01*
Y-225634D01*
X22634Y-223029D01*
X87500D01*
X88085Y-222913D01*
X88581Y-222581D01*
X88913Y-222085D01*
X89029Y-221500D01*
Y-219634D01*
X89944Y-218719D01*
X90500Y-218792D01*
X91223Y-218697D01*
X91896Y-218418D01*
X92475Y-217974D01*
X92918Y-217396D01*
X93178Y-216769D01*
X93269D01*
Y-216181D01*
X93292Y-216000D01*
X93269Y-215819D01*
Y-211268D01*
Y-206681D01*
X93292Y-206500D01*
X93269Y-206318D01*
Y-205894D01*
X97874Y-201289D01*
X103184D01*
X103525Y-201734D01*
X104104Y-202178D01*
X104732Y-202438D01*
Y-202528D01*
X105318D01*
X105500Y-202552D01*
X105682Y-202528D01*
X114819D01*
X115000Y-202552D01*
X115182Y-202528D01*
X115769D01*
Y-202438D01*
X116396Y-202178D01*
X116974Y-201734D01*
X117316Y-201289D01*
X125626D01*
X129732Y-205394D01*
Y-205819D01*
X129708Y-206000D01*
X129732Y-206182D01*
Y-210769D01*
Y-215318D01*
X129708Y-215500D01*
X129732Y-215682D01*
Y-216106D01*
X123450Y-222387D01*
X123118Y-222883D01*
X123002Y-223468D01*
Y-231835D01*
X115929Y-238908D01*
X115154D01*
Y-237275D01*
X107846D01*
Y-237275D01*
X107346Y-237388D01*
X106765Y-236943D01*
X105914Y-236590D01*
X105000Y-236470D01*
X104086Y-236590D01*
X103235Y-236943D01*
X102504Y-237504D01*
X102112Y-238014D01*
X100707D01*
X100657Y-237514D01*
X101084Y-237429D01*
X101739Y-236991D01*
X102177Y-236336D01*
X102331Y-235563D01*
X102177Y-234790D01*
X101739Y-234135D01*
X101084Y-233697D01*
X100311Y-233543D01*
X95193D01*
X94420Y-233697D01*
X93765Y-234135D01*
X93327Y-234790D01*
X93173Y-235563D01*
X93327Y-236336D01*
X93765Y-236991D01*
X94420Y-237429D01*
X95193Y-237583D01*
X97356D01*
X97406Y-238083D01*
X96776Y-238208D01*
X96580Y-238339D01*
X95193D01*
X94342Y-238508D01*
X93620Y-238990D01*
X93138Y-239712D01*
X92969Y-240563D01*
X93138Y-241414D01*
X93620Y-242136D01*
X94342Y-242618D01*
X95193Y-242787D01*
X96580D01*
X96776Y-242918D01*
X97406Y-243043D01*
X97356Y-243543D01*
X95193D01*
X94420Y-243697D01*
X93916Y-244034D01*
X90500D01*
X89915Y-244150D01*
X89419Y-244482D01*
X87419Y-246482D01*
X87087Y-246978D01*
X86971Y-247563D01*
Y-254867D01*
X83867Y-257971D01*
X63257D01*
Y-256124D01*
X63500Y-255925D01*
X64428Y-255740D01*
X65214Y-255214D01*
X65579Y-254669D01*
X66043D01*
Y-251905D01*
X61500D01*
Y-250905D01*
X66043D01*
Y-248142D01*
X62261D01*
X62085Y-248024D01*
X61500Y-247908D01*
X60915Y-248024D01*
X60739Y-248142D01*
X57000D01*
Y-250500D01*
X56500D01*
Y-251000D01*
X54175D01*
X54260Y-251428D01*
X54786Y-252214D01*
X55572Y-252740D01*
X56500Y-252924D01*
X56570Y-252911D01*
X56957Y-253228D01*
Y-254669D01*
X56577Y-254960D01*
X56342D01*
Y-258439D01*
X56024Y-258915D01*
X55908Y-259500D01*
X56024Y-260085D01*
X56342Y-260561D01*
Y-264040D01*
X63257D01*
Y-261029D01*
X84500D01*
X85085Y-260913D01*
X85581Y-260581D01*
X89581Y-256581D01*
X89913Y-256085D01*
X90029Y-255500D01*
Y-248197D01*
X91133Y-247092D01*
X93916D01*
X94420Y-247429D01*
X95193Y-247583D01*
X100311D01*
X101084Y-247429D01*
X101588Y-247092D01*
X105867D01*
X107846Y-249072D01*
Y-253725D01*
X115154D01*
Y-247401D01*
X110501D01*
X108600Y-245500D01*
X110501Y-243599D01*
X115154D01*
Y-241966D01*
X116563D01*
X117148Y-241850D01*
X117644Y-241518D01*
X120471Y-238692D01*
X120971Y-238899D01*
Y-247401D01*
X118846D01*
Y-253725D01*
X126154D01*
X126154Y-253725D01*
X126578Y-253910D01*
X127072Y-254240D01*
X127500Y-254325D01*
Y-252000D01*
Y-249675D01*
X127072Y-249760D01*
X126654Y-250039D01*
X126154Y-249772D01*
Y-247401D01*
X124029D01*
Y-239134D01*
X133058Y-230105D01*
X133508Y-230450D01*
X134469Y-230848D01*
X135500Y-230984D01*
X136531Y-230848D01*
X137492Y-230450D01*
X138317Y-229817D01*
X138950Y-228992D01*
X139348Y-228031D01*
X139484Y-227000D01*
X139348Y-225969D01*
X138950Y-225008D01*
X138317Y-224183D01*
X137678Y-223692D01*
X137570Y-223093D01*
X138081Y-222581D01*
X138413Y-222085D01*
X138529Y-221500D01*
Y-208500D01*
X138413Y-207915D01*
X138081Y-207419D01*
X137581Y-206919D01*
X137085Y-206587D01*
X136500Y-206471D01*
X135635D01*
X135292Y-206000D01*
X135268Y-205819D01*
Y-205231D01*
X135178D01*
X134918Y-204604D01*
X134475Y-204026D01*
X133896Y-203582D01*
X133223Y-203303D01*
X132500Y-203208D01*
X131944Y-203281D01*
X127341Y-198678D01*
X126845Y-198347D01*
X126260Y-198230D01*
X117316D01*
X116974Y-197785D01*
X116396Y-197342D01*
X115769Y-197082D01*
Y-196991D01*
X115182D01*
X115000Y-196967D01*
X114819Y-196991D01*
X105682D01*
X105500Y-196967D01*
X105318Y-196991D01*
X104732D01*
Y-197082D01*
X104104Y-197342D01*
X103525Y-197785D01*
X103184Y-198230D01*
X97240D01*
X96655Y-198347D01*
X96159Y-198678D01*
X91056Y-203781D01*
X90500Y-203708D01*
X89777Y-203803D01*
X89104Y-204082D01*
X88525Y-204525D01*
X88169Y-204990D01*
X87480D01*
X86895Y-205107D01*
X86399Y-205438D01*
X84126Y-207711D01*
X75475D01*
X75276Y-207423D01*
X75208Y-207280D01*
X75412Y-206975D01*
X75489Y-206588D01*
Y-204412D01*
X75412Y-204025D01*
X75192Y-203697D01*
Y-203563D01*
X75412Y-203235D01*
X75489Y-202847D01*
Y-201174D01*
X91394Y-185268D01*
X91818D01*
X92000Y-185292D01*
X92181Y-185268D01*
X96531D01*
Y-185468D01*
X101305D01*
X101500Y-185494D01*
X101695Y-185468D01*
X102469D01*
Y-185312D01*
X102997Y-185093D01*
X103054Y-185049D01*
X105072D01*
X105735Y-185557D01*
X106586Y-185910D01*
X107500Y-186030D01*
X108414Y-185910D01*
X109265Y-185557D01*
X109996Y-184996D01*
X110557Y-184265D01*
X110910Y-183414D01*
X111030Y-182500D01*
X110910Y-181586D01*
X110557Y-180735D01*
X109996Y-180004D01*
X109666Y-179750D01*
Y-179250D01*
X109996Y-178996D01*
X110557Y-178265D01*
X110910Y-177414D01*
X111030Y-176500D01*
X110910Y-175586D01*
X110557Y-174735D01*
X109996Y-174004D01*
X109666Y-173750D01*
Y-173250D01*
X109996Y-172996D01*
X110557Y-172265D01*
X110910Y-171414D01*
X111030Y-170500D01*
X110910Y-169586D01*
X110557Y-168735D01*
X109996Y-168004D01*
X109265Y-167443D01*
X108414Y-167090D01*
X107500Y-166970D01*
X106586Y-167090D01*
X105735Y-167443D01*
X105072Y-167951D01*
X103054D01*
X102997Y-167907D01*
X102469Y-167688D01*
Y-167532D01*
X101695D01*
X101500Y-167506D01*
X101305Y-167532D01*
X96531D01*
Y-167731D01*
X92181D01*
X92000Y-167708D01*
X91818Y-167731D01*
X91232D01*
Y-167822D01*
X90604Y-168082D01*
X90026Y-168526D01*
X89582Y-169104D01*
X89303Y-169777D01*
X89208Y-170500D01*
X89303Y-171223D01*
X89582Y-171896D01*
X90026Y-172475D01*
X90471Y-172816D01*
Y-174184D01*
X90026Y-174525D01*
X89582Y-175104D01*
X89303Y-175777D01*
X89208Y-176500D01*
X89303Y-177223D01*
X89582Y-177896D01*
X90026Y-178474D01*
X90471Y-178816D01*
Y-180184D01*
X90026Y-180526D01*
X89582Y-181104D01*
X89303Y-181777D01*
X89208Y-182500D01*
X89281Y-183056D01*
X72676Y-199661D01*
X70137D01*
X69750Y-199738D01*
X69422Y-199957D01*
X69202Y-200285D01*
X69125Y-200672D01*
Y-202847D01*
X69193Y-203187D01*
X69176Y-203272D01*
X69162Y-203292D01*
X68513Y-203350D01*
X68279Y-203116D01*
Y-189250D01*
X68163Y-188665D01*
X67831Y-188169D01*
X61736Y-182073D01*
X61697Y-181777D01*
X61418Y-181104D01*
X60975Y-180526D01*
X60396Y-180082D01*
X59768Y-179822D01*
Y-179732D01*
X59181D01*
X59000Y-179708D01*
X58819Y-179732D01*
X58514D01*
X58413Y-179222D01*
X58081Y-178726D01*
X56286Y-176930D01*
X56478Y-176469D01*
X58805D01*
X59000Y-176494D01*
X59195Y-176469D01*
X59969D01*
Y-176312D01*
X60497Y-176093D01*
X61117Y-175617D01*
X61593Y-174997D01*
X61892Y-174275D01*
X61994Y-173500D01*
X61892Y-172725D01*
X61593Y-172003D01*
X61117Y-171383D01*
X61049Y-171330D01*
Y-168307D01*
X60855Y-167332D01*
X60302Y-166505D01*
X54495Y-160698D01*
X53668Y-160145D01*
X52693Y-159951D01*
X47049D01*
Y-154056D01*
X50056Y-151049D01*
X51444D01*
X51539Y-151144D01*
Y-154862D01*
X55561D01*
X56500Y-155049D01*
X57439Y-154862D01*
X61413D01*
Y-148138D01*
X55743D01*
X54302Y-146698D01*
X54095Y-146559D01*
X54247Y-146059D01*
X56696D01*
X57165Y-145966D01*
X57562Y-145700D01*
X57828Y-145303D01*
X57921Y-144834D01*
Y-143549D01*
X68000D01*
X68976Y-143355D01*
X69802Y-142802D01*
X71322Y-141283D01*
X71875Y-140456D01*
X72069Y-139480D01*
Y-136927D01*
X72577Y-136265D01*
X72930Y-135414D01*
X73050Y-134500D01*
X72930Y-133586D01*
X72577Y-132735D01*
X72016Y-132004D01*
X71285Y-131443D01*
X70433Y-131090D01*
X69520Y-130970D01*
X68606Y-131090D01*
X67755Y-131443D01*
X67023Y-132004D01*
X66462Y-132735D01*
X66110Y-133586D01*
X65990Y-134500D01*
X66110Y-135414D01*
X66462Y-136265D01*
X66971Y-136927D01*
Y-138425D01*
X66944Y-138451D01*
X57921D01*
Y-137166D01*
X57828Y-136697D01*
X57562Y-136300D01*
X57165Y-136034D01*
X56696Y-135941D01*
X53049D01*
Y-120759D01*
X53135Y-120702D01*
X53399Y-120306D01*
X53492Y-119839D01*
Y-112161D01*
X53399Y-111694D01*
X53135Y-111299D01*
X52739Y-111034D01*
X52272Y-110941D01*
X48728D01*
X48261Y-111034D01*
X47866Y-111299D01*
X47601Y-111694D01*
X47508Y-112161D01*
Y-119839D01*
X47601Y-120306D01*
X47866Y-120702D01*
X47951Y-120759D01*
Y-135941D01*
X44304D01*
X43835Y-136034D01*
X43438Y-136300D01*
X43172Y-136697D01*
X43079Y-137166D01*
Y-138451D01*
X32000D01*
X31025Y-138645D01*
X30198Y-139198D01*
X26654Y-142741D01*
X26265Y-142443D01*
X25414Y-142090D01*
X24500Y-141970D01*
X23586Y-142090D01*
X22735Y-142443D01*
X22004Y-143004D01*
X21443Y-143735D01*
X21090Y-144586D01*
X20970Y-145500D01*
X21004Y-145762D01*
X20675Y-146138D01*
X19573D01*
Y-137272D01*
X25093D01*
X25563Y-137178D01*
X25962Y-136911D01*
X26229Y-136512D01*
X26323Y-136041D01*
Y-129565D01*
X26229Y-129094D01*
X25962Y-128695D01*
X25563Y-128428D01*
X25093Y-128335D01*
X21549D01*
Y-112143D01*
X21702Y-111913D01*
X21795Y-111447D01*
Y-104947D01*
X21702Y-104481D01*
X21438Y-104085D01*
X21043Y-103821D01*
X20577Y-103729D01*
D02*
G37*
G36*
X132000Y-153000D02*
X130175D01*
X130260Y-153428D01*
X130786Y-154214D01*
X131572Y-154740D01*
X132000Y-154825D01*
Y-153000D01*
D02*
G37*
G36*
X67000Y-152000D02*
X62563D01*
Y-154862D01*
X67000D01*
Y-152000D01*
D02*
G37*
G36*
X11825Y-195500D02*
X10000D01*
Y-197325D01*
X10428Y-197240D01*
X11214Y-196714D01*
X11740Y-195928D01*
X11825Y-195500D01*
D02*
G37*
G36*
X117500Y-209175D02*
X117072Y-209260D01*
X116286Y-209786D01*
X115760Y-210572D01*
X115675Y-211000D01*
X117500D01*
Y-209175D01*
D02*
G37*
G36*
X120325Y-212000D02*
X118500D01*
Y-213825D01*
X118928Y-213740D01*
X119714Y-213214D01*
X120240Y-212428D01*
X120325Y-212000D01*
D02*
G37*
G36*
X118500Y-209175D02*
Y-211000D01*
X120325D01*
X120240Y-210572D01*
X119714Y-209786D01*
X118928Y-209260D01*
X118500Y-209175D01*
D02*
G37*
G36*
X46000Y-206175D02*
Y-208000D01*
X47825D01*
X47740Y-207572D01*
X47214Y-206786D01*
X46428Y-206260D01*
X46000Y-206175D01*
D02*
G37*
G36*
X45000D02*
X44572Y-206260D01*
X43786Y-206786D01*
X43260Y-207572D01*
X43175Y-208000D01*
X45000D01*
Y-206175D01*
D02*
G37*
G36*
X107437Y-226971D02*
X91000D01*
X90415Y-227087D01*
X89919Y-227419D01*
X87919Y-229419D01*
X87587Y-229915D01*
X87471Y-230500D01*
Y-236430D01*
X84866Y-239034D01*
X83084D01*
X82580Y-238697D01*
X81807Y-238543D01*
X76689D01*
X75916Y-238697D01*
X75261Y-239135D01*
X74823Y-239790D01*
X74669Y-240563D01*
X74823Y-241336D01*
X75261Y-241991D01*
X75916Y-242429D01*
X76689Y-242583D01*
X81807D01*
X82580Y-242429D01*
X83084Y-242092D01*
X85500D01*
X86085Y-241976D01*
X86581Y-241644D01*
X90081Y-238144D01*
X90413Y-237648D01*
X90529Y-237063D01*
Y-231134D01*
X91633Y-230029D01*
X106804D01*
X107846Y-231071D01*
Y-235725D01*
X115154D01*
Y-229401D01*
X110501D01*
X108519Y-227419D01*
X108022Y-227087D01*
X107437Y-226971D01*
D02*
G37*
G36*
X139650Y-232850D02*
X136000D01*
Y-236500D01*
X139650D01*
Y-232850D01*
D02*
G37*
G36*
X55000Y-217000D02*
X53175D01*
X53260Y-217428D01*
X53786Y-218214D01*
X54572Y-218740D01*
X55000Y-218825D01*
Y-217000D01*
D02*
G37*
G36*
X117500Y-212000D02*
X115675D01*
X115760Y-212428D01*
X116286Y-213214D01*
X117072Y-213740D01*
X117500Y-213825D01*
Y-212000D01*
D02*
G37*
G36*
X57825Y-217000D02*
X56000D01*
Y-218825D01*
X56428Y-218740D01*
X57214Y-218214D01*
X57740Y-217428D01*
X57825Y-217000D01*
D02*
G37*
G36*
X15000Y-205063D02*
X11646D01*
Y-207925D01*
X15000D01*
Y-205063D01*
D02*
G37*
G36*
X15500Y-197175D02*
Y-199000D01*
X17325D01*
X17240Y-198572D01*
X16714Y-197786D01*
X15928Y-197260D01*
X15500Y-197175D01*
D02*
G37*
G36*
X9000Y-195500D02*
X7175D01*
X7260Y-195928D01*
X7786Y-196714D01*
X8572Y-197240D01*
X9000Y-197325D01*
Y-195500D01*
D02*
G37*
G36*
X14500Y-197175D02*
X14072Y-197260D01*
X13286Y-197786D01*
X12760Y-198572D01*
X12675Y-199000D01*
X14500D01*
Y-197175D01*
D02*
G37*
G36*
X19354Y-205063D02*
X16000D01*
Y-207925D01*
X19354D01*
Y-205063D01*
D02*
G37*
G36*
X17325Y-200000D02*
X12675D01*
X12760Y-200428D01*
X12982Y-200760D01*
X12746Y-201201D01*
X11646D01*
Y-204063D01*
X19354D01*
Y-201201D01*
X17176D01*
X17058Y-200701D01*
X17240Y-200428D01*
X17325Y-200000D01*
D02*
G37*
%LPD*%
G36*
X119138Y-98743D02*
Y-102870D01*
X125862D01*
X125951Y-103333D01*
Y-104201D01*
X124709D01*
Y-110925D01*
X132417D01*
Y-104201D01*
X131049D01*
Y-97919D01*
X131549Y-97712D01*
X133471Y-99634D01*
Y-113866D01*
X133430Y-113908D01*
X132217D01*
Y-112275D01*
X124909D01*
Y-118599D01*
X127034D01*
Y-122971D01*
X121927D01*
Y-118287D01*
X120140D01*
Y-110610D01*
X120023Y-110025D01*
X119692Y-109529D01*
X110227Y-100064D01*
X109731Y-99733D01*
X109146Y-99616D01*
X107221D01*
Y-97602D01*
X107052Y-96753D01*
X106570Y-96032D01*
X105850Y-95551D01*
X105000Y-95382D01*
X104150Y-95551D01*
X103430Y-96032D01*
X102948Y-96753D01*
X102857Y-97213D01*
X102347Y-97213D01*
X102240Y-96675D01*
X101714Y-95888D01*
X100928Y-95362D01*
X100049Y-95188D01*
Y-94556D01*
X100556Y-94049D01*
X114444D01*
X119138Y-98743D01*
D02*
G37*
%LPC*%
G36*
X117325Y-100500D02*
X115500D01*
Y-102325D01*
X115928Y-102240D01*
X116714Y-101714D01*
X117240Y-100928D01*
X117325Y-100500D01*
D02*
G37*
G36*
X114500D02*
X112675D01*
X112760Y-100928D01*
X113286Y-101714D01*
X114072Y-102240D01*
X114500Y-102325D01*
Y-100500D01*
D02*
G37*
G36*
X115500Y-97675D02*
Y-99500D01*
X117325D01*
X117240Y-99072D01*
X116714Y-98286D01*
X115928Y-97760D01*
X115500Y-97675D01*
D02*
G37*
G36*
X114500D02*
X114072Y-97760D01*
X113286Y-98286D01*
X112760Y-99072D01*
X112675Y-99500D01*
X114500D01*
Y-97675D01*
D02*
G37*
%LPD*%
D10*
X134000Y-71937D02*
D03*
Y-64063D02*
D03*
X104000Y-71874D02*
D03*
Y-64000D02*
D03*
X114000Y-71937D02*
D03*
Y-64063D02*
D03*
X71000Y-74874D02*
D03*
Y-67000D02*
D03*
X91500Y-569437D02*
D03*
Y-561563D02*
D03*
X37500Y-570437D02*
D03*
Y-562563D02*
D03*
X39000Y-433437D02*
D03*
Y-425563D02*
D03*
X41500Y-499437D02*
D03*
Y-491563D02*
D03*
X114000Y-433437D02*
D03*
Y-425563D02*
D03*
X90500Y-500437D02*
D03*
Y-492563D02*
D03*
X15500Y-212437D02*
D03*
Y-204563D02*
D03*
X122500Y-250563D02*
D03*
Y-258437D02*
D03*
X111500Y-240437D02*
D03*
Y-232563D02*
D03*
Y-258437D02*
D03*
Y-250563D02*
D03*
X36500Y-250937D02*
D03*
Y-243063D02*
D03*
X128563Y-107563D02*
D03*
Y-115437D02*
D03*
X134000Y-81500D02*
D03*
Y-89374D02*
D03*
X15500Y-320437D02*
D03*
Y-312563D02*
D03*
X125500Y-361063D02*
D03*
Y-368937D02*
D03*
X119000Y-346437D02*
D03*
Y-338563D02*
D03*
X115500Y-367437D02*
D03*
Y-359563D02*
D03*
X37500Y-353374D02*
D03*
Y-345500D02*
D03*
D11*
X80063Y-65500D02*
D03*
X87937D02*
D03*
X18500Y-238000D02*
D03*
X26374D02*
D03*
X46563D02*
D03*
X54437D02*
D03*
X19500Y-342500D02*
D03*
X27374D02*
D03*
X48563D02*
D03*
X56437D02*
D03*
D12*
X56193Y-561260D02*
D03*
Y-565000D02*
D03*
Y-568740D02*
D03*
X67807D02*
D03*
Y-565000D02*
D03*
Y-561260D02*
D03*
X61193Y-423260D02*
D03*
Y-427000D02*
D03*
Y-430740D02*
D03*
X72807D02*
D03*
Y-427000D02*
D03*
Y-423260D02*
D03*
X72307Y-201760D02*
D03*
Y-205500D02*
D03*
Y-209240D02*
D03*
X60693D02*
D03*
Y-205500D02*
D03*
Y-201760D02*
D03*
X69307Y-313760D02*
D03*
Y-317500D02*
D03*
Y-321240D02*
D03*
X57693D02*
D03*
Y-317500D02*
D03*
Y-313760D02*
D03*
X63193Y-491260D02*
D03*
Y-495000D02*
D03*
Y-498740D02*
D03*
X74807D02*
D03*
Y-495000D02*
D03*
Y-491260D02*
D03*
D13*
X50000Y-526000D02*
D03*
X59500D02*
D03*
X50000Y-535000D02*
D03*
X59500D02*
D03*
X100252Y-523000D02*
D03*
X90752D02*
D03*
X90500Y-530000D02*
D03*
X100000D02*
D03*
X100500Y-536000D02*
D03*
X91000D02*
D03*
X25500Y-522000D02*
D03*
X35000D02*
D03*
Y-530000D02*
D03*
X25500D02*
D03*
Y-537000D02*
D03*
X35000D02*
D03*
X26500Y-405000D02*
D03*
X36000D02*
D03*
X27500Y-470000D02*
D03*
X37000D02*
D03*
X36000Y-398000D02*
D03*
X26500D02*
D03*
X37000Y-463000D02*
D03*
X27500D02*
D03*
X26500Y-391000D02*
D03*
X36000D02*
D03*
X27500Y-456000D02*
D03*
X37000D02*
D03*
X100252Y-405000D02*
D03*
X90752D02*
D03*
X104000Y-470000D02*
D03*
X94500D02*
D03*
X90752Y-398000D02*
D03*
X100252D02*
D03*
X94500Y-463000D02*
D03*
X104000D02*
D03*
X100252Y-391000D02*
D03*
X90752D02*
D03*
X104000Y-456000D02*
D03*
X94500D02*
D03*
X48693Y-403000D02*
D03*
X58193D02*
D03*
X53000Y-468000D02*
D03*
X62500D02*
D03*
X48500Y-394000D02*
D03*
X58000D02*
D03*
X52500Y-460000D02*
D03*
X62000D02*
D03*
X59000Y-182500D02*
D03*
X49500D02*
D03*
X59000Y-173500D02*
D03*
X49500D02*
D03*
X36500Y-183500D02*
D03*
X27000D02*
D03*
Y-176500D02*
D03*
X36500D02*
D03*
Y-169500D02*
D03*
X27000D02*
D03*
X92000Y-182500D02*
D03*
X101500D02*
D03*
Y-176500D02*
D03*
X92000D02*
D03*
Y-170500D02*
D03*
X101500D02*
D03*
X90500Y-216000D02*
D03*
Y-206500D02*
D03*
X132500Y-215500D02*
D03*
Y-206000D02*
D03*
X115000Y-199760D02*
D03*
X105500D02*
D03*
X59500Y-292500D02*
D03*
X50000D02*
D03*
X59437Y-283500D02*
D03*
X49937D02*
D03*
X35500Y-292500D02*
D03*
X26000D02*
D03*
Y-285500D02*
D03*
X35500D02*
D03*
Y-278500D02*
D03*
X26000D02*
D03*
X97000Y-292500D02*
D03*
X106500D02*
D03*
Y-285500D02*
D03*
X97000D02*
D03*
Y-278500D02*
D03*
X106500D02*
D03*
X95000Y-325000D02*
D03*
Y-315500D02*
D03*
X131500Y-325000D02*
D03*
Y-315500D02*
D03*
X117000Y-309500D02*
D03*
X107500D02*
D03*
D14*
X52000Y-526000D02*
D03*
X57500D02*
D03*
X52000Y-535000D02*
D03*
X57500D02*
D03*
X98252Y-523000D02*
D03*
X92752D02*
D03*
X92500Y-530000D02*
D03*
X98000D02*
D03*
X98500Y-536000D02*
D03*
X93000D02*
D03*
X27500Y-522000D02*
D03*
X33000D02*
D03*
Y-530000D02*
D03*
X27500D02*
D03*
Y-537000D02*
D03*
X33000D02*
D03*
X28500Y-405000D02*
D03*
X34000D02*
D03*
X29500Y-470000D02*
D03*
X35000D02*
D03*
X34000Y-398000D02*
D03*
X28500D02*
D03*
X35000Y-463000D02*
D03*
X29500D02*
D03*
X28500Y-391000D02*
D03*
X34000D02*
D03*
X29500Y-456000D02*
D03*
X35000D02*
D03*
X98252Y-405000D02*
D03*
X92752D02*
D03*
X102000Y-470000D02*
D03*
X96500D02*
D03*
X92752Y-398000D02*
D03*
X98252D02*
D03*
X96500Y-463000D02*
D03*
X102000D02*
D03*
X98252Y-391000D02*
D03*
X92752D02*
D03*
X102000Y-456000D02*
D03*
X96500D02*
D03*
X50693Y-403000D02*
D03*
X56193D02*
D03*
X55000Y-468000D02*
D03*
X60500D02*
D03*
X50500Y-394000D02*
D03*
X56000D02*
D03*
X54500Y-460000D02*
D03*
X60000D02*
D03*
X57000Y-182500D02*
D03*
X51500D02*
D03*
X57000Y-173500D02*
D03*
X51500D02*
D03*
X34500Y-183500D02*
D03*
X29000D02*
D03*
Y-176500D02*
D03*
X34500D02*
D03*
Y-169500D02*
D03*
X29000D02*
D03*
X94000Y-182500D02*
D03*
X99500D02*
D03*
Y-176500D02*
D03*
X94000D02*
D03*
Y-170500D02*
D03*
X99500D02*
D03*
X113000Y-199760D02*
D03*
X107500D02*
D03*
X57500Y-292500D02*
D03*
X52000D02*
D03*
X57437Y-283500D02*
D03*
X51937D02*
D03*
X33500Y-292500D02*
D03*
X28000D02*
D03*
Y-285500D02*
D03*
X33500D02*
D03*
Y-278500D02*
D03*
X28000D02*
D03*
X99000Y-292500D02*
D03*
X104500D02*
D03*
Y-285500D02*
D03*
X99000D02*
D03*
Y-278500D02*
D03*
X104500D02*
D03*
X115000Y-309500D02*
D03*
X109500D02*
D03*
D15*
X59799Y-259500D02*
D03*
X47201D02*
D03*
X69799Y-364500D02*
D03*
X57201D02*
D03*
D16*
X61500Y-239595D02*
D03*
Y-251406D02*
D03*
X67500Y-342595D02*
D03*
Y-354405D02*
D03*
D17*
X52303Y-82500D02*
D03*
X27697D02*
D03*
D18*
X132500Y-135476D02*
D03*
Y-146500D02*
D03*
X122500Y-97933D02*
D03*
Y-86910D02*
D03*
D19*
X88563Y-138500D02*
D03*
X96437D02*
D03*
D20*
X17024Y-149500D02*
D03*
X6000D02*
D03*
X56476Y-151500D02*
D03*
X67500D02*
D03*
D21*
X93610Y-117500D02*
D03*
X75500D02*
D03*
X118610Y-124500D02*
D03*
X100500D02*
D03*
D22*
X90500Y-214000D02*
D03*
Y-208500D02*
D03*
X132500Y-213500D02*
D03*
Y-208000D02*
D03*
X95000Y-323000D02*
D03*
Y-317500D02*
D03*
X131500Y-323000D02*
D03*
Y-317500D02*
D03*
D23*
X79248Y-235563D02*
D03*
Y-240563D02*
D03*
Y-245563D02*
D03*
Y-250563D02*
D03*
X97752Y-235563D02*
D03*
Y-240563D02*
D03*
Y-245563D02*
D03*
Y-250563D02*
D03*
X87748Y-347000D02*
D03*
Y-352000D02*
D03*
Y-357000D02*
D03*
Y-362000D02*
D03*
X106252Y-347000D02*
D03*
Y-352000D02*
D03*
Y-357000D02*
D03*
Y-362000D02*
D03*
D24*
X105000Y-81854D02*
D03*
X100000D02*
D03*
X95000D02*
D03*
X90000D02*
D03*
X105000Y-101146D02*
D03*
X100000D02*
D03*
X95000D02*
D03*
X90000D02*
D03*
D25*
X28055Y-108197D02*
D03*
X19000D02*
D03*
X9945D02*
D03*
D26*
X19000Y-132803D02*
D03*
D27*
X59555Y-116000D02*
D03*
X50500D02*
D03*
X41445D02*
D03*
D28*
X50500Y-141000D02*
D03*
D29*
X118500Y-58000D02*
X128000Y-67500D01*
X107500Y-39370D02*
X121630D01*
X128563Y-115437D02*
X134063D01*
X135000Y-114500D01*
Y-99000D01*
X128000Y-92000D02*
X135000Y-99000D01*
X128000Y-92000D02*
Y-67500D01*
X118500Y-58000D02*
Y-42500D01*
X121630Y-39370D01*
X124500D01*
X107370Y-39500D02*
X107500Y-39370D01*
X91500Y-39500D02*
X107370D01*
X75500D02*
X91500D01*
X134000Y-81500D02*
Y-71937D01*
X124500Y-58500D02*
Y-49370D01*
Y-58500D02*
X130063Y-64063D01*
X134000D01*
X104000Y-64000D02*
X110500D01*
X110563Y-64063D01*
X107500Y-61000D02*
X110500Y-64000D01*
X107500Y-61000D02*
Y-49370D01*
X110563Y-64063D02*
X114000D01*
X91500Y-61937D02*
Y-49500D01*
X87937Y-65500D02*
X91500Y-61937D01*
X78563Y-67000D02*
X80063Y-65500D01*
X71000Y-67000D02*
X78563D01*
X105000Y-101146D02*
X109146D01*
X132500Y-208000D02*
X136500D01*
X37000Y-469500D02*
Y-463000D01*
Y-456000D01*
Y-469500D02*
X58760Y-491260D01*
X59693Y-301693D02*
Y-292500D01*
X51937Y-285437D02*
Y-283500D01*
X57500Y-292500D02*
Y-291000D01*
X58500Y-344563D02*
X75563D01*
X36000Y-405000D02*
Y-398000D01*
Y-391000D01*
X58284Y-212437D02*
X61480Y-209240D01*
X102500Y-336500D02*
X119500D01*
X35000Y-530000D02*
Y-522000D01*
Y-537000D02*
Y-530000D01*
X106252Y-357000D02*
X116874D01*
X67437Y-364500D02*
X71437Y-368500D01*
X59437Y-238000D02*
X64500Y-243063D01*
X131500Y-315500D02*
X136000Y-320000D01*
X48500Y-353437D02*
X59563Y-364500D01*
X90752Y-547748D02*
Y-523000D01*
X46563Y-256500D02*
X49563Y-259500D01*
X59500Y-535000D02*
Y-534870D01*
Y-542500D02*
Y-535000D01*
X50000Y-526000D02*
X54000Y-530000D01*
X57500Y-535000D02*
Y-530870D01*
X54500Y-461000D02*
Y-460000D01*
Y-461000D02*
X61500Y-468000D01*
X90500Y-315500D02*
X95000D01*
X57000Y-182500D02*
Y-179807D01*
X51500Y-174341D02*
Y-173500D01*
X56000Y-404000D02*
X67000Y-415000D01*
X50500Y-397000D02*
Y-394000D01*
X54193Y-399000D02*
X58193Y-403000D01*
X78000Y-325000D02*
X95000D01*
X36500Y-176500D02*
Y-169500D01*
X35107Y-183022D02*
X35159Y-182869D01*
X36500Y-183500D02*
Y-176500D01*
X37000Y-191000D02*
Y-183500D01*
X35054Y-183176D02*
X35107Y-183022D01*
X35000Y-183500D02*
X35041Y-183257D01*
X97000Y-285500D02*
Y-278500D01*
Y-292500D02*
Y-285500D01*
X94500Y-463000D02*
Y-456000D01*
Y-470000D02*
Y-463000D01*
Y-476248D02*
Y-470000D01*
X92000Y-176500D02*
Y-170500D01*
Y-182500D02*
Y-176500D01*
X90752Y-398000D02*
Y-391000D01*
Y-403000D02*
X92752Y-405000D01*
X90752Y-403000D02*
Y-398000D01*
X74492Y-423260D02*
X92752Y-405000D01*
X35500Y-292500D02*
Y-285500D01*
Y-303500D02*
Y-292500D01*
Y-285500D02*
Y-278500D01*
X38453Y-488516D02*
X41500Y-491563D01*
X6500Y-488516D02*
X38453D01*
X114500Y-488000D02*
X134500D01*
X109937Y-492563D02*
X114500Y-488000D01*
X90500Y-492563D02*
X109937D01*
X91500Y-561563D02*
X96063Y-557000D01*
X135500D01*
X22500Y-562563D02*
X37500D01*
X17937Y-558000D02*
X22500Y-562563D01*
X6500Y-558000D02*
X17937D01*
X126500Y-374000D02*
Y-369937D01*
X125500Y-368937D02*
X126500Y-369937D01*
X72020Y-423260D02*
X72807D01*
X61193D02*
X61980D01*
X74807Y-491260D02*
X79488D01*
X58760D02*
X63193D01*
X70020Y-495000D02*
X74020D01*
X69000Y-493980D02*
X70020Y-495000D01*
X69000Y-493980D02*
Y-485980D01*
X63000Y-479980D02*
X69000Y-485980D01*
X79488Y-491260D02*
X94500Y-476248D01*
X72307Y-201760D02*
X72740D01*
X60000Y-182500D02*
X66750Y-189250D01*
Y-203750D02*
Y-189250D01*
Y-203750D02*
X68500Y-205500D01*
X72307Y-209240D02*
X84760D01*
X87480Y-206520D01*
X97752Y-245563D02*
X106374D01*
X106500D01*
X111500Y-250563D01*
Y-240437D02*
X116563D01*
X79248Y-240563D02*
X85500D01*
X71563Y-245563D02*
X79248D01*
X54437Y-238000D02*
X59437D01*
X41563D02*
X46563D01*
X36500Y-243063D02*
X41563Y-238000D01*
X31437Y-243063D02*
X36500D01*
X26374Y-238000D02*
X31437Y-243063D01*
X88500Y-255500D02*
Y-247563D01*
X90500Y-245563D01*
X97752D01*
X91000Y-228500D02*
X107437D01*
X111500Y-232563D01*
X89000Y-230500D02*
X91000Y-228500D01*
X85500Y-240563D02*
X89000Y-237063D01*
Y-230500D01*
X18500Y-225000D02*
X22000Y-221500D01*
X87500D01*
X109146Y-101146D02*
X118610Y-110610D01*
Y-124500D02*
Y-110610D01*
X128563Y-124500D02*
Y-115437D01*
X118610Y-124500D02*
X128563D01*
Y-131539D02*
Y-124500D01*
Y-131539D02*
X132500Y-135476D01*
X72740Y-201760D02*
X92000Y-182500D01*
X75740Y-313760D02*
X97000Y-292500D01*
X69307Y-313760D02*
X75740D01*
X45760D02*
X57693D01*
X35500Y-303500D02*
X45760Y-313760D01*
X63500Y-315500D02*
Y-305500D01*
Y-315500D02*
X65500Y-317500D01*
X69307Y-321240D02*
X84760D01*
X90500Y-315500D01*
X101000Y-309500D02*
X107500D01*
X95000Y-315500D02*
X101000Y-309500D01*
X117000D02*
X125500D01*
X131500Y-315500D01*
X80500Y-357000D02*
X87748D01*
X76500Y-353000D02*
X80500Y-357000D01*
X76500Y-353000D02*
Y-345500D01*
X75563Y-344563D02*
X76500Y-345500D01*
X56437Y-342500D02*
X58500Y-344563D01*
X40500Y-342500D02*
X48563D01*
X37500Y-345500D02*
X40500Y-342500D01*
X48500Y-342563D02*
X48563Y-342500D01*
X100252Y-357000D02*
X106252D01*
X96437Y-360815D02*
X100252Y-357000D01*
X96437Y-365063D02*
Y-360815D01*
X93000Y-368500D02*
X96437Y-365063D01*
X71437Y-368500D02*
X93000D01*
X87748Y-352000D02*
X94000D01*
X97500Y-348500D01*
Y-341500D01*
X102500Y-336500D01*
X71500Y-331500D02*
X78000Y-325000D01*
X25126Y-331500D02*
X71500D01*
X19500Y-337126D02*
X25126Y-331500D01*
X19500Y-342500D02*
Y-337126D01*
X27374Y-342500D02*
X34500D01*
X37500Y-345500D01*
X47760Y-201760D02*
X60693D01*
X69063Y-243063D02*
X71563Y-245563D01*
X64500Y-243063D02*
X69063D01*
X46563Y-256500D02*
Y-238000D01*
X84500Y-259500D02*
X88500Y-255500D01*
X18500Y-239000D02*
Y-238000D01*
Y-225000D01*
X37000Y-191000D02*
X47760Y-201760D01*
X65500Y-317500D02*
X69307D01*
X68500Y-205500D02*
X72307D01*
X106374Y-245563D02*
X111500Y-240437D01*
X48500Y-353437D02*
Y-342563D01*
X36000Y-405000D02*
X54260Y-423260D01*
X67000Y-425063D02*
Y-415000D01*
Y-425063D02*
X68937Y-427000D01*
X72020D01*
X87480Y-206520D02*
X90480D01*
X90500Y-206500D01*
X97240Y-199760D01*
X105500D01*
X54723Y-560680D02*
Y-556723D01*
X35000Y-537000D02*
X54723Y-556723D01*
X33000Y-522000D02*
X35000D01*
X54723Y-560680D02*
X55302Y-561260D01*
X56193D01*
X59500Y-542500D02*
X62000Y-545000D01*
Y-564000D02*
Y-545000D01*
X67807Y-561260D02*
X77240D01*
X90752Y-547748D01*
X35973Y-177662D02*
X36000Y-177500D01*
X35159Y-182869D02*
Y-182869D01*
X35973Y-177662D02*
X36243Y-178041D01*
X35041Y-183257D02*
X35054Y-183176D01*
X34500Y-169500D02*
X36500D01*
X35107Y-183022D02*
X35107Y-183022D01*
Y-183022D01*
X35107Y-183022D02*
X35107Y-183022D01*
X35107Y-183022D02*
X35107Y-183022D01*
X35107Y-183022D02*
X35107Y-183022D01*
X87500Y-219000D02*
X90500Y-216000D01*
X87500Y-221500D02*
Y-219000D01*
X58500Y-495000D02*
X63193D01*
X63000Y-479980D02*
Y-469000D01*
X61500Y-468000D02*
X62500D01*
X50500Y-397000D02*
X52500Y-399000D01*
X54193D01*
X59693Y-301693D02*
X63500Y-305500D01*
X51937Y-285437D02*
X57500Y-291000D01*
X54361Y-177169D02*
X57000Y-179807D01*
X54327Y-177169D02*
X54361D01*
X51500Y-174341D02*
X54327Y-177169D01*
X54000Y-530000D02*
X56630D01*
X57500Y-530870D01*
X62000Y-564000D02*
X63000Y-565000D01*
X67807D01*
X120000Y-353874D02*
Y-347000D01*
X116874Y-357000D02*
X120000Y-353874D01*
Y-347000D02*
X121000D01*
X131500Y-326500D02*
Y-325000D01*
X126500Y-331500D02*
X131500Y-326500D01*
X126500Y-341500D02*
Y-331500D01*
X121000Y-347000D02*
X126500Y-341500D01*
X124531Y-232469D02*
Y-223468D01*
X132500Y-215500D01*
X116563Y-240437D02*
X124531Y-232469D01*
X125500Y-361063D02*
Y-345611D01*
X133111Y-338000D01*
X136000D01*
Y-320000D01*
X36500Y-575000D02*
Y-571437D01*
X37500Y-570437D01*
Y-562563D02*
X40626D01*
X46803Y-568740D01*
X56193D01*
X51500Y-565000D02*
X56193D01*
X67807Y-568740D02*
X78323D01*
X85500Y-561563D01*
X91500D01*
X90752Y-574500D02*
Y-570185D01*
X91500Y-569437D01*
X41500Y-491563D02*
X44563D01*
X51740Y-498740D01*
X63193D01*
X74807D02*
X78760D01*
X84937Y-492563D01*
X90500D01*
X48500Y-468000D02*
X53000D01*
X55000D01*
X90500Y-506000D02*
Y-500437D01*
X41500Y-503500D02*
Y-499437D01*
X39500Y-439500D02*
Y-433937D01*
X39000Y-433437D02*
X39500Y-433937D01*
X114000Y-438000D02*
Y-433437D01*
X45000Y-403000D02*
X48693D01*
X50693D01*
X55500Y-427000D02*
X61193D01*
X39000Y-425563D02*
X45000D01*
X50177Y-430740D01*
X61193D01*
X82260D02*
X87437Y-425563D01*
X114000D01*
X134500D01*
X135000Y-426063D01*
X6500D02*
X38500D01*
X39000Y-425563D01*
X38500Y-357500D02*
Y-354374D01*
X37500Y-353374D02*
X38500Y-354374D01*
X82500Y-362500D02*
X87248D01*
X87748Y-362000D01*
X67500Y-357500D02*
Y-352437D01*
X119563Y-371500D02*
X120000D01*
X115500Y-367437D02*
X119563Y-371500D01*
X55000Y-317500D02*
X58480D01*
X15500Y-312563D02*
Y-308500D01*
X6500Y-338000D02*
Y-329437D01*
X15500Y-320437D01*
X16303Y-321240D01*
X45500Y-292500D02*
X50000D01*
X52000D01*
X37063Y-251500D02*
X41445D01*
X36500Y-250937D02*
X37063Y-251500D01*
X63500Y-253500D02*
Y-251437D01*
X61500Y-249437D02*
X63500Y-251437D01*
X74307Y-252500D02*
X77311D01*
X79248Y-250563D01*
X111500Y-258437D02*
X113437D01*
X116500Y-261500D01*
X122500Y-262000D02*
Y-258437D01*
X8500Y-227500D02*
Y-219437D01*
X15500Y-212437D01*
X58284D01*
X122500Y-250563D02*
Y-238500D01*
X134000Y-227000D01*
X135500D01*
Y-223000D01*
X137000Y-221500D01*
Y-208500D01*
X136500Y-208000D02*
X137000Y-208500D01*
X57437Y-205500D02*
X61480D01*
X45063Y-182500D02*
X49500D01*
X15500Y-204563D02*
Y-200000D01*
X15000Y-199500D02*
X15500Y-200000D01*
X67500Y-151500D02*
X73500D01*
X88500Y-138500D02*
X88563D01*
X84500Y-134500D02*
X88500Y-138500D01*
X59555Y-116000D02*
Y-110945D01*
X60000Y-110500D01*
X132500Y-152500D02*
Y-146500D01*
X115000Y-199760D02*
X126260D01*
X132500Y-206000D01*
Y-208000D02*
Y-206000D01*
X136437Y-124500D02*
X137795Y-125858D01*
Y-127644D02*
Y-125858D01*
X72807Y-423260D02*
X74492D01*
X54260D02*
X61193D01*
X72807Y-430740D02*
X82260D01*
X63193Y-491260D02*
X63980D01*
X74020D02*
X74807D01*
X57437Y-259500D02*
X59799D01*
X84500D01*
X16303Y-321240D02*
X57693D01*
X58480D01*
D30*
X9945Y-103378D02*
X10106D01*
X52303Y-83500D02*
X54000D01*
X97500Y-137437D02*
Y-93500D01*
X121500Y-97500D02*
X128500D01*
X52303Y-82500D02*
Y-61303D01*
X53303Y-62303D01*
X25500Y-34500D02*
X52303Y-61303D01*
X11500Y-34500D02*
X25500D01*
X98252Y-523000D02*
X100252D01*
X100436Y-536352D02*
X101250Y-536500D01*
X98500Y-536000D02*
X100436Y-536352D01*
X101250Y-536500D02*
X106500D01*
X99000D02*
X101250D01*
X98500Y-536000D02*
X99000Y-536500D01*
X57500Y-526000D02*
X59563Y-523937D01*
Y-519063D01*
X58000Y-517500D02*
X59563Y-519063D01*
X40500Y-517500D02*
X58000D01*
X30500Y-507500D02*
X40500Y-517500D01*
X21000Y-507500D02*
X30500D01*
X26750Y-373000D02*
X42000D01*
X24500Y-370750D02*
X26750Y-373000D01*
X41445Y-112555D02*
X47500Y-106500D01*
X41445Y-116000D02*
Y-112555D01*
Y-108445D01*
X47500Y-106500D02*
X74500D01*
Y-116500D02*
Y-106500D01*
X21000Y-391000D02*
X26500D01*
X102000Y-456000D02*
X104000D01*
X21000Y-398000D02*
X26500D01*
X102000Y-463000D02*
X104000D01*
X27500Y-470000D02*
X29500D01*
X22000D02*
X27500D01*
X21000Y-405000D02*
X26500D01*
X104000Y-470000D02*
X110000D01*
X104000Y-463000D02*
X110000D01*
X104000Y-456000D02*
X110000D01*
X99500Y-176500D02*
X101500D01*
X19000Y-132803D02*
Y-108197D01*
X84646Y-106500D02*
X90000Y-101146D01*
X74500Y-116500D02*
X75500Y-117500D01*
X74500Y-106500D02*
X84646D01*
X96437Y-138500D02*
X97500Y-137437D01*
X115500Y-91500D02*
X121500Y-97500D01*
X99500Y-91500D02*
X115500D01*
X97500Y-93500D02*
X99500Y-91500D01*
X128500Y-107500D02*
Y-97500D01*
Y-107500D02*
X128563Y-107563D01*
X44500Y-162500D02*
Y-153000D01*
X104437Y-240563D02*
X105000Y-240000D01*
X97752Y-240563D02*
X104437D01*
X49000Y-148500D02*
X52500D01*
X56500Y-152500D01*
X44500Y-153000D02*
X49000Y-148500D01*
X50500Y-147000D01*
X21500Y-278500D02*
X26000D01*
X28000D01*
X104500D02*
X106500D01*
X26000Y-285500D02*
X28000D01*
X22500D02*
X26000D01*
X21500Y-292500D02*
X26000D01*
X104500Y-285500D02*
X106500D01*
Y-278500D02*
X114500D01*
X106252Y-352000D02*
X113000D01*
X106500Y-292500D02*
X112500D01*
X106500Y-285500D02*
X113500D01*
X26500Y-391000D02*
X28500D01*
X26500Y-398000D02*
X28500D01*
X26500Y-405000D02*
X28500D01*
X100252Y-391000D02*
X104000D01*
X100252Y-398000D02*
X105000D01*
X100252Y-405000D02*
X105000D01*
X20000Y-522000D02*
X25500D01*
X20000Y-530000D02*
X25500D01*
X27500D01*
X20000Y-537000D02*
X25500D01*
X22000Y-463000D02*
X27500D01*
X22000Y-456000D02*
X27500D01*
X100252Y-523000D02*
X106000D01*
X98000Y-530000D02*
X100000D01*
X106563D01*
X26500Y-146500D02*
X32000Y-141000D01*
X25500Y-145500D02*
X26500Y-146500D01*
X24500Y-145500D02*
X25500D01*
X50500Y-147000D02*
Y-141000D01*
Y-116000D01*
X16500Y-164500D02*
X21500Y-169500D01*
X27000D01*
X21197Y-176500D02*
X27000D01*
X21500Y-183500D02*
X27000D01*
X101500Y-176500D02*
X107500D01*
X99500Y-170500D02*
X101500D01*
X107500D01*
X96437Y-143437D02*
Y-138500D01*
Y-143437D02*
X104500Y-151500D01*
X99500Y-182500D02*
X101500D01*
X107500D01*
X50500Y-141000D02*
X68000D01*
X69520Y-139480D01*
Y-134500D01*
X52693Y-444000D02*
X60000Y-451307D01*
X21000Y-444000D02*
X52693D01*
X60000Y-460000D02*
Y-451307D01*
X42000Y-373000D02*
X58000Y-389000D01*
Y-394000D02*
Y-389000D01*
X50500Y-266500D02*
X57437Y-273437D01*
X17500Y-266500D02*
X50500D01*
X57437Y-283500D02*
Y-273437D01*
X44500Y-162500D02*
X52693D01*
X58500Y-168307D01*
Y-173500D02*
Y-168307D01*
X16500Y-150024D02*
X17024Y-149500D01*
X16500Y-164500D02*
Y-150024D01*
X32000Y-141000D02*
X50500D01*
X17024Y-149500D02*
X24000Y-156476D01*
X27476D01*
X17024Y-149500D02*
Y-134780D01*
X19000Y-132803D01*
X9945Y-108197D02*
Y-103378D01*
X10106D02*
X12378Y-101106D01*
Y-100622D01*
X15500Y-97500D01*
X30500D01*
X41445Y-108445D01*
X47500Y-106500D02*
X54000Y-100000D01*
Y-83500D01*
D31*
X141732Y-598000D02*
Y0D01*
X0D02*
X141732D01*
X0Y-598000D02*
X141732D01*
X0D02*
Y0D01*
D32*
X64000Y-203245D02*
Y-205541D01*
X64459Y-206000D01*
X65377D01*
X65837Y-205541D01*
Y-203245D01*
X66755Y-206000D02*
X67673D01*
X67214D01*
Y-203245D01*
X66755Y-203704D01*
X69051Y-206459D02*
X70888D01*
X71806Y-206000D02*
Y-204163D01*
X72724Y-203245D01*
X73643Y-204163D01*
Y-206000D01*
Y-204623D01*
X71806D01*
X20755Y-114000D02*
X18459D01*
X18000Y-114459D01*
Y-115377D01*
X18459Y-115837D01*
X20755D01*
X18000Y-116755D02*
Y-117673D01*
Y-117214D01*
X20755D01*
X20296Y-116755D01*
Y-119051D02*
X20755Y-119510D01*
Y-120428D01*
X20296Y-120888D01*
X18459D01*
X18000Y-120428D01*
Y-119510D01*
X18459Y-119051D01*
X20296D01*
X18000Y-121806D02*
Y-122724D01*
Y-122265D01*
X20755D01*
X20296Y-121806D01*
X51755Y-122000D02*
X49459D01*
X49000Y-122459D01*
Y-123378D01*
X49459Y-123837D01*
X51755D01*
X49000Y-124755D02*
Y-125673D01*
Y-125214D01*
X51755D01*
X51296Y-124755D01*
Y-127051D02*
X51755Y-127510D01*
Y-128428D01*
X51296Y-128888D01*
X49459D01*
X49000Y-128428D01*
Y-127510D01*
X49459Y-127051D01*
X51296D01*
X49000Y-131643D02*
Y-129806D01*
X50837Y-131643D01*
X51296D01*
X51755Y-131183D01*
Y-130265D01*
X51296Y-129806D01*
X61000Y-315245D02*
Y-317541D01*
X61459Y-318000D01*
X62378D01*
X62837Y-317541D01*
Y-315245D01*
X63755Y-318000D02*
X64673D01*
X64214D01*
Y-315245D01*
X63755Y-315704D01*
X66051Y-318459D02*
X67888D01*
X68806Y-315245D02*
Y-318000D01*
X70183D01*
X70643Y-317541D01*
Y-317082D01*
X70183Y-316622D01*
X68806D01*
X70183D01*
X70643Y-316163D01*
Y-315704D01*
X70183Y-315245D01*
X68806D01*
D33*
X107500Y-39370D02*
D03*
X124500D02*
D03*
X91500Y-39500D02*
D03*
X75500D02*
D03*
X135500Y-557000D02*
D03*
X6500Y-558000D02*
D03*
X134500Y-488000D02*
D03*
X11500Y-34500D02*
D03*
X8500Y-227500D02*
D03*
X135500Y-227000D02*
D03*
X6500Y-338000D02*
D03*
X136000D02*
D03*
X6500Y-426063D02*
D03*
X135000D02*
D03*
X6500Y-488516D02*
D03*
D34*
X107500Y-49370D02*
D03*
X124500D02*
D03*
X91500Y-49500D02*
D03*
X75500D02*
D03*
X135500Y-567000D02*
D03*
X6500Y-568000D02*
D03*
X134500Y-498000D02*
D03*
X11500Y-44500D02*
D03*
X8500Y-237500D02*
D03*
X135500Y-237000D02*
D03*
X6500Y-348000D02*
D03*
X136000D02*
D03*
X6500Y-436063D02*
D03*
X135000D02*
D03*
X6500Y-498516D02*
D03*
D35*
X129921Y-586614D02*
D03*
X11811D02*
D03*
X129921Y-11811D02*
D03*
X11811D02*
D03*
D36*
X134000Y-91874D02*
D03*
X71000Y-77500D02*
D03*
X104500Y-74437D02*
D03*
X113000D02*
D03*
X126500Y-374000D02*
D03*
X38500Y-357500D02*
D03*
X67500D02*
D03*
X82500Y-362500D02*
D03*
X15500Y-331500D02*
D03*
X17000Y-354000D02*
D03*
X55000Y-317500D02*
D03*
X45500Y-292500D02*
D03*
X63500Y-253500D02*
D03*
X56500Y-250500D02*
D03*
X41445Y-251500D02*
D03*
X74307Y-252500D02*
D03*
X133500Y-309000D02*
D03*
X120000Y-371500D02*
D03*
X128000Y-252000D02*
D03*
X57437Y-205500D02*
D03*
X45063Y-182500D02*
D03*
X3000Y-154500D02*
D03*
X84500Y-134500D02*
D03*
X132500Y-152500D02*
D03*
X123500Y-77500D02*
D03*
X60000Y-110500D02*
D03*
X59500Y-95500D02*
D03*
X28055Y-102500D02*
D03*
X55500Y-427000D02*
D03*
X45000Y-403000D02*
D03*
X39500Y-439500D02*
D03*
X114000Y-438000D02*
D03*
X58500Y-495000D02*
D03*
X119000Y-504000D02*
D03*
X90752Y-574500D02*
D03*
X41945Y-574000D02*
D03*
X46000Y-535000D02*
D03*
X15000Y-199500D02*
D03*
X116500Y-261500D02*
D03*
X73500Y-151500D02*
D03*
X9500Y-195000D02*
D03*
X122500Y-262000D02*
D03*
X118000Y-211500D02*
D03*
X45500Y-208500D02*
D03*
X18500Y-86000D02*
D03*
X124500Y-167000D02*
D03*
X115000Y-100000D02*
D03*
X72500Y-93500D02*
D03*
X8500Y-99500D02*
D03*
X90500Y-286500D02*
D03*
X15500Y-308500D02*
D03*
X42500Y-326000D02*
D03*
X16000Y-366500D02*
D03*
X40500Y-314000D02*
D03*
X51000Y-438000D02*
D03*
X90500Y-506000D02*
D03*
X134000Y-461500D02*
D03*
X130400Y-515600D02*
D03*
X36500Y-575000D02*
D03*
X113000Y-553000D02*
D03*
X43000Y-556000D02*
D03*
X48500Y-468000D02*
D03*
X81000Y-438000D02*
D03*
X111500Y-414500D02*
D03*
X55500Y-216500D02*
D03*
X130500Y-274500D02*
D03*
X51500Y-565000D02*
D03*
X41500Y-503500D02*
D03*
X137795Y-127644D02*
D03*
D37*
X21000Y-507500D02*
D03*
X24500Y-370750D02*
D03*
X22000Y-470000D02*
D03*
X21000Y-391000D02*
D03*
Y-405000D02*
D03*
Y-398000D02*
D03*
X110000Y-470000D02*
D03*
Y-463000D02*
D03*
Y-456000D02*
D03*
X27476Y-156476D02*
D03*
X105000Y-240000D02*
D03*
X21500Y-278500D02*
D03*
X22500Y-285500D02*
D03*
X21500Y-292500D02*
D03*
X114500Y-278500D02*
D03*
X113000Y-352000D02*
D03*
X112500Y-292500D02*
D03*
X113500Y-285500D02*
D03*
X104000Y-391000D02*
D03*
X105000Y-398000D02*
D03*
Y-405000D02*
D03*
X20000Y-522000D02*
D03*
Y-530000D02*
D03*
Y-537000D02*
D03*
X22000Y-463000D02*
D03*
Y-456000D02*
D03*
X106000Y-523000D02*
D03*
X106563Y-530000D02*
D03*
X106500Y-536500D02*
D03*
X104500Y-151500D02*
D03*
X24500Y-145500D02*
D03*
X21500Y-183500D02*
D03*
Y-169500D02*
D03*
X21197Y-176500D02*
D03*
X107500Y-170500D02*
D03*
Y-176500D02*
D03*
Y-182500D02*
D03*
X69520Y-134500D02*
D03*
X21000Y-444000D02*
D03*
X17500Y-266500D02*
D03*
M02*
