G04 Layer_Physical_Order=2*
G04 Layer_Color=16711680*
%FSLAX25Y25*%
%MOIN*%
G70*
G01*
G75*
%ADD19R,0.05118X0.06102*%
%ADD30C,0.03000*%
%ADD31C,0.01000*%
%ADD32C,0.00591*%
%ADD33C,0.06299*%
%ADD34R,0.06299X0.06299*%
%ADD35C,0.13000*%
%ADD36C,0.02756*%
%ADD37C,0.05000*%
G36*
X141732Y-598000D02*
X0D01*
Y0D01*
X141732D01*
Y-598000D01*
D02*
G37*
%LPC*%
G36*
X126000Y-374500D02*
X124175D01*
X124260Y-374928D01*
X124786Y-375714D01*
X125572Y-376240D01*
X126000Y-376325D01*
Y-374500D01*
D02*
G37*
G36*
X45500Y-400675D02*
Y-402500D01*
X47325D01*
X47240Y-402072D01*
X46714Y-401286D01*
X45928Y-400760D01*
X45500Y-400675D01*
D02*
G37*
G36*
X128825Y-374500D02*
X127000D01*
Y-376325D01*
X127428Y-376240D01*
X128214Y-375714D01*
X128740Y-374928D01*
X128825Y-374500D01*
D02*
G37*
G36*
X126000Y-371675D02*
X125572Y-371760D01*
X124786Y-372286D01*
X124260Y-373072D01*
X124175Y-373500D01*
X126000D01*
Y-371675D01*
D02*
G37*
G36*
X122325Y-372000D02*
X120500D01*
Y-373825D01*
X120928Y-373740D01*
X121714Y-373214D01*
X122240Y-372428D01*
X122325Y-372000D01*
D02*
G37*
G36*
X112000Y-412175D02*
Y-414000D01*
X113825D01*
X113740Y-413572D01*
X113214Y-412786D01*
X112428Y-412260D01*
X112000Y-412175D01*
D02*
G37*
G36*
X111000D02*
X110572Y-412260D01*
X109786Y-412786D01*
X109260Y-413572D01*
X109175Y-414000D01*
X111000D01*
Y-412175D01*
D02*
G37*
G36*
X44500Y-403500D02*
X42675D01*
X42760Y-403928D01*
X43286Y-404714D01*
X44072Y-405240D01*
X44500Y-405325D01*
Y-403500D01*
D02*
G37*
G36*
Y-400675D02*
X44072Y-400760D01*
X43286Y-401286D01*
X42760Y-402072D01*
X42675Y-402500D01*
X44500D01*
Y-400675D01*
D02*
G37*
G36*
X47325Y-403500D02*
X45500D01*
Y-405325D01*
X45928Y-405240D01*
X46714Y-404714D01*
X47240Y-403928D01*
X47325Y-403500D01*
D02*
G37*
G36*
X127000Y-371675D02*
Y-373500D01*
X128825D01*
X128740Y-373072D01*
X128214Y-372286D01*
X127428Y-371760D01*
X127000Y-371675D01*
D02*
G37*
G36*
X84825Y-363000D02*
X83000D01*
Y-364825D01*
X83428Y-364740D01*
X84214Y-364214D01*
X84740Y-363428D01*
X84825Y-363000D01*
D02*
G37*
G36*
X82000D02*
X80175D01*
X80260Y-363428D01*
X80786Y-364214D01*
X81572Y-364740D01*
X82000Y-364825D01*
Y-363000D01*
D02*
G37*
G36*
Y-360175D02*
X81572Y-360260D01*
X80786Y-360786D01*
X80260Y-361572D01*
X80175Y-362000D01*
X82000D01*
Y-360175D01*
D02*
G37*
G36*
X40825Y-358000D02*
X39000D01*
Y-359825D01*
X39428Y-359740D01*
X40214Y-359214D01*
X40740Y-358428D01*
X40825Y-358000D01*
D02*
G37*
G36*
X83000Y-360175D02*
Y-362000D01*
X84825D01*
X84740Y-361572D01*
X84214Y-360786D01*
X83428Y-360260D01*
X83000Y-360175D01*
D02*
G37*
G36*
X15500Y-367000D02*
X13675D01*
X13760Y-367428D01*
X14286Y-368214D01*
X15072Y-368740D01*
X15500Y-368825D01*
Y-367000D01*
D02*
G37*
G36*
X120500Y-369175D02*
Y-371000D01*
X122325D01*
X122240Y-370572D01*
X121714Y-369786D01*
X120928Y-369260D01*
X120500Y-369175D01*
D02*
G37*
G36*
X18325Y-367000D02*
X16500D01*
Y-368825D01*
X16928Y-368740D01*
X17714Y-368214D01*
X18240Y-367428D01*
X18325Y-367000D01*
D02*
G37*
G36*
X16500Y-364175D02*
Y-366000D01*
X18325D01*
X18240Y-365572D01*
X17714Y-364786D01*
X16928Y-364260D01*
X16500Y-364175D01*
D02*
G37*
G36*
X15500D02*
X15072Y-364260D01*
X14286Y-364786D01*
X13760Y-365572D01*
X13675Y-366000D01*
X15500D01*
Y-364175D01*
D02*
G37*
G36*
X113825Y-415000D02*
X112000D01*
Y-416825D01*
X112428Y-416740D01*
X113214Y-416214D01*
X113740Y-415428D01*
X113825Y-415000D01*
D02*
G37*
G36*
X80500Y-435675D02*
X80072Y-435760D01*
X79286Y-436286D01*
X78760Y-437072D01*
X78675Y-437500D01*
X80500D01*
Y-435675D01*
D02*
G37*
G36*
X51500D02*
Y-437500D01*
X53325D01*
X53240Y-437072D01*
X52714Y-436286D01*
X51928Y-435760D01*
X51500Y-435675D01*
D02*
G37*
G36*
X81500D02*
Y-437500D01*
X83325D01*
X83240Y-437072D01*
X82714Y-436286D01*
X81928Y-435760D01*
X81500Y-435675D01*
D02*
G37*
G36*
X114500D02*
Y-437500D01*
X116325D01*
X116240Y-437072D01*
X115714Y-436286D01*
X114928Y-435760D01*
X114500Y-435675D01*
D02*
G37*
G36*
X113500D02*
X113072Y-435760D01*
X112286Y-436286D01*
X111760Y-437072D01*
X111675Y-437500D01*
X113500D01*
Y-435675D01*
D02*
G37*
G36*
X139150Y-436563D02*
X135500D01*
Y-440213D01*
X139150D01*
Y-436563D01*
D02*
G37*
G36*
X134500D02*
X130850D01*
Y-440213D01*
X134500D01*
Y-436563D01*
D02*
G37*
G36*
X39000Y-437175D02*
X38572Y-437260D01*
X37786Y-437786D01*
X37260Y-438572D01*
X37175Y-439000D01*
X39000D01*
Y-437175D01*
D02*
G37*
G36*
X50500Y-435675D02*
X50072Y-435760D01*
X49286Y-436286D01*
X48760Y-437072D01*
X48675Y-437500D01*
X50500D01*
Y-435675D01*
D02*
G37*
G36*
X40000Y-437175D02*
Y-439000D01*
X41825D01*
X41740Y-438572D01*
X41214Y-437786D01*
X40428Y-437260D01*
X40000Y-437175D01*
D02*
G37*
G36*
X6000Y-431913D02*
X2350D01*
Y-435563D01*
X6000D01*
Y-431913D01*
D02*
G37*
G36*
X57825Y-427500D02*
X56000D01*
Y-429325D01*
X56428Y-429240D01*
X57214Y-428714D01*
X57740Y-427928D01*
X57825Y-427500D01*
D02*
G37*
G36*
X55000D02*
X53175D01*
X53260Y-427928D01*
X53786Y-428714D01*
X54572Y-429240D01*
X55000Y-429325D01*
Y-427500D01*
D02*
G37*
G36*
Y-424675D02*
X54572Y-424760D01*
X53786Y-425286D01*
X53260Y-426072D01*
X53175Y-426500D01*
X55000D01*
Y-424675D01*
D02*
G37*
G36*
X111000Y-415000D02*
X109175D01*
X109260Y-415428D01*
X109786Y-416214D01*
X110572Y-416740D01*
X111000Y-416825D01*
Y-415000D01*
D02*
G37*
G36*
X56000Y-424675D02*
Y-426500D01*
X57825D01*
X57740Y-426072D01*
X57214Y-425286D01*
X56428Y-424760D01*
X56000Y-424675D01*
D02*
G37*
G36*
X10650Y-431913D02*
X7000D01*
Y-435563D01*
X10650D01*
Y-431913D01*
D02*
G37*
G36*
X134500D02*
X130850D01*
Y-435563D01*
X134500D01*
Y-431913D01*
D02*
G37*
G36*
X139150D02*
X135500D01*
Y-435563D01*
X139150D01*
Y-431913D01*
D02*
G37*
G36*
X135000Y-422079D02*
X133969Y-422215D01*
X133008Y-422613D01*
X132183Y-423246D01*
X131550Y-424071D01*
X131152Y-425032D01*
X131016Y-426063D01*
X131152Y-427094D01*
X131550Y-428055D01*
X132183Y-428880D01*
X133008Y-429513D01*
X133969Y-429911D01*
X135000Y-430047D01*
X136031Y-429911D01*
X136992Y-429513D01*
X137817Y-428880D01*
X138450Y-428055D01*
X138848Y-427094D01*
X138984Y-426063D01*
X138848Y-425032D01*
X138450Y-424071D01*
X137817Y-423246D01*
X136992Y-422613D01*
X136031Y-422215D01*
X135000Y-422079D01*
D02*
G37*
G36*
X6500D02*
X5469Y-422215D01*
X4508Y-422613D01*
X3683Y-423246D01*
X3050Y-424071D01*
X2652Y-425032D01*
X2516Y-426063D01*
X2652Y-427094D01*
X3050Y-428055D01*
X3683Y-428880D01*
X4508Y-429513D01*
X5469Y-429911D01*
X6500Y-430047D01*
X7531Y-429911D01*
X8492Y-429513D01*
X9317Y-428880D01*
X9950Y-428055D01*
X10348Y-427094D01*
X10484Y-426063D01*
X10348Y-425032D01*
X9950Y-424071D01*
X9317Y-423246D01*
X8492Y-422613D01*
X7531Y-422215D01*
X6500Y-422079D01*
D02*
G37*
G36*
X67000Y-358000D02*
X65175D01*
X65260Y-358428D01*
X65786Y-359214D01*
X66572Y-359740D01*
X67000Y-359825D01*
Y-358000D01*
D02*
G37*
G36*
X42000Y-323675D02*
X41572Y-323760D01*
X40786Y-324286D01*
X40260Y-325072D01*
X40175Y-325500D01*
X42000D01*
Y-323675D01*
D02*
G37*
G36*
X44825Y-326500D02*
X43000D01*
Y-328325D01*
X43428Y-328240D01*
X44214Y-327714D01*
X44740Y-326928D01*
X44825Y-326500D01*
D02*
G37*
G36*
X43000Y-323675D02*
Y-325500D01*
X44825D01*
X44740Y-325072D01*
X44214Y-324286D01*
X43428Y-323760D01*
X43000Y-323675D01*
D02*
G37*
G36*
X57325Y-318000D02*
X55500D01*
Y-319825D01*
X55928Y-319740D01*
X56714Y-319214D01*
X57240Y-318428D01*
X57325Y-318000D01*
D02*
G37*
G36*
X54500D02*
X52675D01*
X52760Y-318428D01*
X53286Y-319214D01*
X54072Y-319740D01*
X54500Y-319825D01*
Y-318000D01*
D02*
G37*
G36*
X17825Y-332000D02*
X16000D01*
Y-333825D01*
X16428Y-333740D01*
X17214Y-333214D01*
X17740Y-332428D01*
X17825Y-332000D01*
D02*
G37*
G36*
X15000D02*
X13175D01*
X13260Y-332428D01*
X13786Y-333214D01*
X14572Y-333740D01*
X15000Y-333825D01*
Y-332000D01*
D02*
G37*
G36*
Y-329175D02*
X14572Y-329260D01*
X13786Y-329786D01*
X13260Y-330572D01*
X13175Y-331000D01*
X15000D01*
Y-329175D01*
D02*
G37*
G36*
X42000Y-326500D02*
X40175D01*
X40260Y-326928D01*
X40786Y-327714D01*
X41572Y-328240D01*
X42000Y-328325D01*
Y-326500D01*
D02*
G37*
G36*
X16000Y-329175D02*
Y-331000D01*
X17825D01*
X17740Y-330572D01*
X17214Y-329786D01*
X16428Y-329260D01*
X16000Y-329175D01*
D02*
G37*
G36*
X54500Y-315175D02*
X54072Y-315260D01*
X53286Y-315786D01*
X52760Y-316572D01*
X52675Y-317000D01*
X54500D01*
Y-315175D01*
D02*
G37*
G36*
X135825Y-309500D02*
X134000D01*
Y-311325D01*
X134428Y-311240D01*
X135214Y-310714D01*
X135740Y-309928D01*
X135825Y-309500D01*
D02*
G37*
G36*
X133000D02*
X131175D01*
X131260Y-309928D01*
X131786Y-310714D01*
X132572Y-311240D01*
X133000Y-311325D01*
Y-309500D01*
D02*
G37*
G36*
X15000Y-309000D02*
X13175D01*
X13260Y-309428D01*
X13786Y-310214D01*
X14572Y-310740D01*
X15000Y-310825D01*
Y-309000D01*
D02*
G37*
G36*
X133000Y-306675D02*
X132572Y-306760D01*
X131786Y-307286D01*
X131260Y-308072D01*
X131175Y-308500D01*
X133000D01*
Y-306675D01*
D02*
G37*
G36*
X17825Y-309000D02*
X16000D01*
Y-310825D01*
X16428Y-310740D01*
X17214Y-310214D01*
X17740Y-309428D01*
X17825Y-309000D01*
D02*
G37*
G36*
X40000Y-314500D02*
X38175D01*
X38260Y-314928D01*
X38786Y-315714D01*
X39572Y-316240D01*
X40000Y-316325D01*
Y-314500D01*
D02*
G37*
G36*
X55500Y-315175D02*
Y-317000D01*
X57325D01*
X57240Y-316572D01*
X56714Y-315786D01*
X55928Y-315260D01*
X55500Y-315175D01*
D02*
G37*
G36*
X42825Y-314500D02*
X41000D01*
Y-316325D01*
X41428Y-316240D01*
X42214Y-315714D01*
X42740Y-314928D01*
X42825Y-314500D01*
D02*
G37*
G36*
X41000Y-311675D02*
Y-313500D01*
X42825D01*
X42740Y-313072D01*
X42214Y-312286D01*
X41428Y-311760D01*
X41000Y-311675D01*
D02*
G37*
G36*
X40000D02*
X39572Y-311760D01*
X38786Y-312286D01*
X38260Y-313072D01*
X38175Y-313500D01*
X40000D01*
Y-311675D01*
D02*
G37*
G36*
X136000Y-334016D02*
X134969Y-334152D01*
X134008Y-334550D01*
X133183Y-335183D01*
X132550Y-336008D01*
X132152Y-336969D01*
X132016Y-338000D01*
X132152Y-339031D01*
X132550Y-339992D01*
X133183Y-340817D01*
X134008Y-341450D01*
X134969Y-341848D01*
X136000Y-341984D01*
X137031Y-341848D01*
X137992Y-341450D01*
X138817Y-340817D01*
X139450Y-339992D01*
X139848Y-339031D01*
X139984Y-338000D01*
X139848Y-336969D01*
X139450Y-336008D01*
X138817Y-335183D01*
X137992Y-334550D01*
X137031Y-334152D01*
X136000Y-334016D01*
D02*
G37*
G36*
X16500Y-351675D02*
X16072Y-351760D01*
X15286Y-352286D01*
X14760Y-353072D01*
X14675Y-353500D01*
X16500D01*
Y-351675D01*
D02*
G37*
G36*
X19325Y-354500D02*
X17500D01*
Y-356325D01*
X17928Y-356240D01*
X18714Y-355714D01*
X19240Y-354928D01*
X19325Y-354500D01*
D02*
G37*
G36*
X17500Y-351675D02*
Y-353500D01*
X19325D01*
X19240Y-353072D01*
X18714Y-352286D01*
X17928Y-351760D01*
X17500Y-351675D01*
D02*
G37*
G36*
X10650Y-348500D02*
X7000D01*
Y-352150D01*
X10650D01*
Y-348500D01*
D02*
G37*
G36*
X6000D02*
X2350D01*
Y-352150D01*
X6000D01*
Y-348500D01*
D02*
G37*
G36*
X39000Y-355175D02*
Y-357000D01*
X40825D01*
X40740Y-356572D01*
X40214Y-355786D01*
X39428Y-355260D01*
X39000Y-355175D01*
D02*
G37*
G36*
X69825Y-358000D02*
X68000D01*
Y-359825D01*
X68428Y-359740D01*
X69214Y-359214D01*
X69740Y-358428D01*
X69825Y-358000D01*
D02*
G37*
G36*
X67000Y-355175D02*
X66572Y-355260D01*
X65786Y-355786D01*
X65260Y-356572D01*
X65175Y-357000D01*
X67000D01*
Y-355175D01*
D02*
G37*
G36*
X16500Y-354500D02*
X14675D01*
X14760Y-354928D01*
X15286Y-355714D01*
X16072Y-356240D01*
X16500Y-356325D01*
Y-354500D01*
D02*
G37*
G36*
X68000Y-355175D02*
Y-357000D01*
X69825D01*
X69740Y-356572D01*
X69214Y-355786D01*
X68428Y-355260D01*
X68000Y-355175D01*
D02*
G37*
G36*
X135500Y-348500D02*
X131850D01*
Y-352150D01*
X135500D01*
Y-348500D01*
D02*
G37*
G36*
X140150Y-343850D02*
X136500D01*
Y-347500D01*
X140150D01*
Y-343850D01*
D02*
G37*
G36*
X10650D02*
X7000D01*
Y-347500D01*
X10650D01*
Y-343850D01*
D02*
G37*
G36*
X122937Y-341449D02*
X119878D01*
Y-345000D01*
X122937D01*
Y-341449D01*
D02*
G37*
G36*
X6500Y-334016D02*
X5469Y-334152D01*
X4508Y-334550D01*
X3683Y-335183D01*
X3050Y-336008D01*
X2652Y-336969D01*
X2516Y-338000D01*
X2652Y-339031D01*
X3050Y-339992D01*
X3683Y-340817D01*
X4508Y-341450D01*
X5469Y-341848D01*
X6500Y-341984D01*
X7531Y-341848D01*
X8492Y-341450D01*
X9317Y-340817D01*
X9950Y-339992D01*
X10348Y-339031D01*
X10484Y-338000D01*
X10348Y-336969D01*
X9950Y-336008D01*
X9317Y-335183D01*
X8492Y-334550D01*
X7531Y-334152D01*
X6500Y-334016D01*
D02*
G37*
G36*
X126996Y-341449D02*
X123937D01*
Y-345000D01*
X126996D01*
Y-341449D01*
D02*
G37*
G36*
X122937Y-346000D02*
X119878D01*
Y-349551D01*
X122937D01*
Y-346000D01*
D02*
G37*
G36*
X140150Y-348500D02*
X136500D01*
Y-352150D01*
X140150D01*
Y-348500D01*
D02*
G37*
G36*
X126996Y-346000D02*
X123937D01*
Y-349551D01*
X126996D01*
Y-346000D01*
D02*
G37*
G36*
X135500Y-343850D02*
X131850D01*
Y-347500D01*
X135500D01*
Y-343850D01*
D02*
G37*
G36*
X6000D02*
X2350D01*
Y-347500D01*
X6000D01*
Y-343850D01*
D02*
G37*
G36*
X42500Y-556500D02*
X40675D01*
X40760Y-556928D01*
X41286Y-557714D01*
X42072Y-558240D01*
X42500Y-558325D01*
Y-556500D01*
D02*
G37*
G36*
X135500Y-553016D02*
X134469Y-553152D01*
X133508Y-553550D01*
X132683Y-554183D01*
X132050Y-555008D01*
X131652Y-555969D01*
X131516Y-557000D01*
X131652Y-558031D01*
X132050Y-558992D01*
X132683Y-559817D01*
X133508Y-560450D01*
X134469Y-560848D01*
X135500Y-560984D01*
X136531Y-560848D01*
X137492Y-560450D01*
X138317Y-559817D01*
X138950Y-558992D01*
X139348Y-558031D01*
X139484Y-557000D01*
X139348Y-555969D01*
X138950Y-555008D01*
X138317Y-554183D01*
X137492Y-553550D01*
X136531Y-553152D01*
X135500Y-553016D01*
D02*
G37*
G36*
X45325Y-556500D02*
X43500D01*
Y-558325D01*
X43928Y-558240D01*
X44714Y-557714D01*
X45240Y-556928D01*
X45325Y-556500D01*
D02*
G37*
G36*
X43500Y-553675D02*
Y-555500D01*
X45325D01*
X45240Y-555072D01*
X44714Y-554286D01*
X43928Y-553760D01*
X43500Y-553675D01*
D02*
G37*
G36*
X42500D02*
X42072Y-553760D01*
X41286Y-554286D01*
X40760Y-555072D01*
X40675Y-555500D01*
X42500D01*
Y-553675D01*
D02*
G37*
G36*
X139650Y-562850D02*
X136000D01*
Y-566500D01*
X139650D01*
Y-562850D01*
D02*
G37*
G36*
X135000D02*
X131350D01*
Y-566500D01*
X135000D01*
Y-562850D01*
D02*
G37*
G36*
X51000Y-562675D02*
X50572Y-562760D01*
X49786Y-563286D01*
X49260Y-564072D01*
X49175Y-564500D01*
X51000D01*
Y-562675D01*
D02*
G37*
G36*
X6500Y-554016D02*
X5469Y-554152D01*
X4508Y-554550D01*
X3683Y-555183D01*
X3050Y-556008D01*
X2652Y-556969D01*
X2516Y-558000D01*
X2652Y-559031D01*
X3050Y-559992D01*
X3683Y-560817D01*
X4508Y-561450D01*
X5469Y-561848D01*
X6500Y-561984D01*
X7531Y-561848D01*
X8492Y-561450D01*
X9317Y-560817D01*
X9950Y-559992D01*
X10348Y-559031D01*
X10484Y-558000D01*
X10348Y-556969D01*
X9950Y-556008D01*
X9317Y-555183D01*
X8492Y-554550D01*
X7531Y-554152D01*
X6500Y-554016D01*
D02*
G37*
G36*
X52000Y-562675D02*
Y-564500D01*
X53825D01*
X53740Y-564072D01*
X53214Y-563286D01*
X52428Y-562760D01*
X52000Y-562675D01*
D02*
G37*
G36*
X112500Y-553500D02*
X110675D01*
X110760Y-553928D01*
X111286Y-554714D01*
X112072Y-555240D01*
X112500Y-555325D01*
Y-553500D01*
D02*
G37*
G36*
X46500Y-532675D02*
Y-534500D01*
X48325D01*
X48240Y-534072D01*
X47714Y-533286D01*
X46928Y-532760D01*
X46500Y-532675D01*
D02*
G37*
G36*
X45500D02*
X45072Y-532760D01*
X44286Y-533286D01*
X43760Y-534072D01*
X43675Y-534500D01*
X45500D01*
Y-532675D01*
D02*
G37*
G36*
X129900Y-516100D02*
X128075D01*
X128160Y-516528D01*
X128686Y-517314D01*
X129472Y-517840D01*
X129900Y-517925D01*
Y-516100D01*
D02*
G37*
G36*
Y-513275D02*
X129472Y-513360D01*
X128686Y-513886D01*
X128160Y-514672D01*
X128075Y-515100D01*
X129900D01*
Y-513275D01*
D02*
G37*
G36*
X132725Y-516100D02*
X130900D01*
Y-517925D01*
X131328Y-517840D01*
X132114Y-517314D01*
X132640Y-516528D01*
X132725Y-516100D01*
D02*
G37*
G36*
X112500Y-550675D02*
X112072Y-550760D01*
X111286Y-551286D01*
X110760Y-552072D01*
X110675Y-552500D01*
X112500D01*
Y-550675D01*
D02*
G37*
G36*
X115325Y-553500D02*
X113500D01*
Y-555325D01*
X113928Y-555240D01*
X114714Y-554714D01*
X115240Y-553928D01*
X115325Y-553500D01*
D02*
G37*
G36*
X113500Y-550675D02*
Y-552500D01*
X115325D01*
X115240Y-552072D01*
X114714Y-551286D01*
X113928Y-550760D01*
X113500Y-550675D01*
D02*
G37*
G36*
X48325Y-535500D02*
X46500D01*
Y-537325D01*
X46928Y-537240D01*
X47714Y-536714D01*
X48240Y-535928D01*
X48325Y-535500D01*
D02*
G37*
G36*
X45500D02*
X43675D01*
X43760Y-535928D01*
X44286Y-536714D01*
X45072Y-537240D01*
X45500Y-537325D01*
Y-535500D01*
D02*
G37*
G36*
X53825Y-565500D02*
X52000D01*
Y-567325D01*
X52428Y-567240D01*
X53214Y-566714D01*
X53740Y-565928D01*
X53825Y-565500D01*
D02*
G37*
G36*
X41445Y-574500D02*
X39620D01*
X39705Y-574928D01*
X40231Y-575714D01*
X41017Y-576240D01*
X41445Y-576325D01*
Y-574500D01*
D02*
G37*
G36*
X93077Y-575000D02*
X91252D01*
Y-576825D01*
X91680Y-576740D01*
X92466Y-576214D01*
X92992Y-575428D01*
X93077Y-575000D01*
D02*
G37*
G36*
X44270Y-574500D02*
X42445D01*
Y-576325D01*
X42873Y-576240D01*
X43659Y-575714D01*
X44185Y-574928D01*
X44270Y-574500D01*
D02*
G37*
G36*
X37000Y-572675D02*
Y-574500D01*
X38825D01*
X38740Y-574072D01*
X38214Y-573286D01*
X37428Y-572760D01*
X37000Y-572675D01*
D02*
G37*
G36*
X36000D02*
X35572Y-572760D01*
X34786Y-573286D01*
X34260Y-574072D01*
X34175Y-574500D01*
X36000D01*
Y-572675D01*
D02*
G37*
G36*
X129921Y-578877D02*
X128412Y-579026D01*
X126960Y-579466D01*
X125623Y-580181D01*
X124450Y-581143D01*
X123488Y-582316D01*
X122773Y-583653D01*
X122333Y-585105D01*
X122184Y-586614D01*
X122333Y-588124D01*
X122773Y-589575D01*
X123488Y-590913D01*
X124450Y-592085D01*
X125623Y-593048D01*
X126960Y-593762D01*
X128412Y-594203D01*
X129921Y-594351D01*
X131431Y-594203D01*
X132882Y-593762D01*
X134220Y-593048D01*
X135392Y-592085D01*
X136355Y-590913D01*
X137070Y-589575D01*
X137510Y-588124D01*
X137659Y-586614D01*
X137510Y-585105D01*
X137070Y-583653D01*
X136355Y-582316D01*
X135392Y-581143D01*
X134220Y-580181D01*
X132882Y-579466D01*
X131431Y-579026D01*
X129921Y-578877D01*
D02*
G37*
G36*
X11811D02*
X10302Y-579026D01*
X8850Y-579466D01*
X7512Y-580181D01*
X6340Y-581143D01*
X5378Y-582316D01*
X4663Y-583653D01*
X4222Y-585105D01*
X4074Y-586614D01*
X4222Y-588124D01*
X4663Y-589575D01*
X5378Y-590913D01*
X6340Y-592085D01*
X7512Y-593048D01*
X8850Y-593762D01*
X10302Y-594203D01*
X11811Y-594351D01*
X13320Y-594203D01*
X14772Y-593762D01*
X16110Y-593048D01*
X17282Y-592085D01*
X18244Y-590913D01*
X18959Y-589575D01*
X19400Y-588124D01*
X19548Y-586614D01*
X19400Y-585105D01*
X18959Y-583653D01*
X18244Y-582316D01*
X17282Y-581143D01*
X16110Y-580181D01*
X14772Y-579466D01*
X13320Y-579026D01*
X11811Y-578877D01*
D02*
G37*
G36*
X36000Y-575500D02*
X34175D01*
X34260Y-575928D01*
X34786Y-576714D01*
X35572Y-577240D01*
X36000Y-577325D01*
Y-575500D01*
D02*
G37*
G36*
X90252Y-575000D02*
X88427D01*
X88512Y-575428D01*
X89038Y-576214D01*
X89824Y-576740D01*
X90252Y-576825D01*
Y-575000D01*
D02*
G37*
G36*
X38825Y-575500D02*
X37000D01*
Y-577325D01*
X37428Y-577240D01*
X38214Y-576714D01*
X38740Y-575928D01*
X38825Y-575500D01*
D02*
G37*
G36*
X90252Y-572175D02*
X89824Y-572260D01*
X89038Y-572786D01*
X88512Y-573572D01*
X88427Y-574000D01*
X90252D01*
Y-572175D01*
D02*
G37*
G36*
X139650Y-567500D02*
X136000D01*
Y-571150D01*
X139650D01*
Y-567500D01*
D02*
G37*
G36*
X135000D02*
X131350D01*
Y-571150D01*
X135000D01*
Y-567500D01*
D02*
G37*
G36*
X6000Y-563850D02*
X2350D01*
Y-567500D01*
X6000D01*
Y-563850D01*
D02*
G37*
G36*
X51000Y-565500D02*
X49175D01*
X49260Y-565928D01*
X49786Y-566714D01*
X50572Y-567240D01*
X51000Y-567325D01*
Y-565500D01*
D02*
G37*
G36*
X10650Y-563850D02*
X7000D01*
Y-567500D01*
X10650D01*
Y-563850D01*
D02*
G37*
G36*
X41445Y-571675D02*
X41017Y-571760D01*
X40231Y-572286D01*
X39705Y-573072D01*
X39620Y-573500D01*
X41445D01*
Y-571675D01*
D02*
G37*
G36*
X91252Y-572175D02*
Y-574000D01*
X93077D01*
X92992Y-573572D01*
X92466Y-572786D01*
X91680Y-572260D01*
X91252Y-572175D01*
D02*
G37*
G36*
X42445Y-571675D02*
Y-573500D01*
X44270D01*
X44185Y-573072D01*
X43659Y-572286D01*
X42873Y-571760D01*
X42445Y-571675D01*
D02*
G37*
G36*
X10650Y-568500D02*
X7000D01*
Y-572150D01*
X10650D01*
Y-568500D01*
D02*
G37*
G36*
X6000D02*
X2350D01*
Y-572150D01*
X6000D01*
Y-568500D01*
D02*
G37*
G36*
X130900Y-513275D02*
Y-515100D01*
X132725D01*
X132640Y-514672D01*
X132114Y-513886D01*
X131328Y-513360D01*
X130900Y-513275D01*
D02*
G37*
G36*
X48000Y-465675D02*
X47572Y-465760D01*
X46786Y-466286D01*
X46260Y-467072D01*
X46175Y-467500D01*
X48000D01*
Y-465675D01*
D02*
G37*
G36*
X50825Y-468500D02*
X49000D01*
Y-470325D01*
X49428Y-470240D01*
X50214Y-469714D01*
X50740Y-468928D01*
X50825Y-468500D01*
D02*
G37*
G36*
X49000Y-465675D02*
Y-467500D01*
X50825D01*
X50740Y-467072D01*
X50214Y-466286D01*
X49428Y-465760D01*
X49000Y-465675D01*
D02*
G37*
G36*
X136325Y-462000D02*
X134500D01*
Y-463825D01*
X134928Y-463740D01*
X135714Y-463214D01*
X136240Y-462428D01*
X136325Y-462000D01*
D02*
G37*
G36*
X133500D02*
X131675D01*
X131760Y-462428D01*
X132286Y-463214D01*
X133072Y-463740D01*
X133500Y-463825D01*
Y-462000D01*
D02*
G37*
G36*
X59000Y-492675D02*
Y-494500D01*
X60825D01*
X60740Y-494072D01*
X60214Y-493286D01*
X59428Y-492760D01*
X59000Y-492675D01*
D02*
G37*
G36*
X58000D02*
X57572Y-492760D01*
X56786Y-493286D01*
X56260Y-494072D01*
X56175Y-494500D01*
X58000D01*
Y-492675D01*
D02*
G37*
G36*
X6500Y-484533D02*
X5469Y-484668D01*
X4508Y-485066D01*
X3683Y-485699D01*
X3050Y-486524D01*
X2652Y-487485D01*
X2516Y-488516D01*
X2652Y-489547D01*
X3050Y-490508D01*
X3683Y-491333D01*
X4508Y-491966D01*
X5469Y-492364D01*
X6500Y-492500D01*
X7531Y-492364D01*
X8492Y-491966D01*
X9317Y-491333D01*
X9950Y-490508D01*
X10348Y-489547D01*
X10484Y-488516D01*
X10348Y-487485D01*
X9950Y-486524D01*
X9317Y-485699D01*
X8492Y-485066D01*
X7531Y-484668D01*
X6500Y-484533D01*
D02*
G37*
G36*
X48000Y-468500D02*
X46175D01*
X46260Y-468928D01*
X46786Y-469714D01*
X47572Y-470240D01*
X48000Y-470325D01*
Y-468500D01*
D02*
G37*
G36*
X134500Y-484016D02*
X133469Y-484152D01*
X132508Y-484550D01*
X131683Y-485183D01*
X131050Y-486008D01*
X130652Y-486969D01*
X130516Y-488000D01*
X130652Y-489031D01*
X131050Y-489992D01*
X131683Y-490817D01*
X132508Y-491450D01*
X133469Y-491848D01*
X134500Y-491984D01*
X135531Y-491848D01*
X136492Y-491450D01*
X137317Y-490817D01*
X137950Y-489992D01*
X138348Y-489031D01*
X138484Y-488000D01*
X138348Y-486969D01*
X137950Y-486008D01*
X137317Y-485183D01*
X136492Y-484550D01*
X135531Y-484152D01*
X134500Y-484016D01*
D02*
G37*
G36*
X133500Y-459175D02*
X133072Y-459260D01*
X132286Y-459786D01*
X131760Y-460572D01*
X131675Y-461000D01*
X133500D01*
Y-459175D01*
D02*
G37*
G36*
X83325Y-438500D02*
X81500D01*
Y-440325D01*
X81928Y-440240D01*
X82714Y-439714D01*
X83240Y-438928D01*
X83325Y-438500D01*
D02*
G37*
G36*
X80500D02*
X78675D01*
X78760Y-438928D01*
X79286Y-439714D01*
X80072Y-440240D01*
X80500Y-440325D01*
Y-438500D01*
D02*
G37*
G36*
X116325D02*
X114500D01*
Y-440325D01*
X114928Y-440240D01*
X115714Y-439714D01*
X116240Y-438928D01*
X116325Y-438500D01*
D02*
G37*
G36*
X10650Y-436563D02*
X7000D01*
Y-440213D01*
X10650D01*
Y-436563D01*
D02*
G37*
G36*
X6000D02*
X2350D01*
Y-440213D01*
X6000D01*
Y-436563D01*
D02*
G37*
G36*
X39000Y-440000D02*
X37175D01*
X37260Y-440428D01*
X37786Y-441214D01*
X38572Y-441740D01*
X39000Y-441825D01*
Y-440000D01*
D02*
G37*
G36*
X134500Y-459175D02*
Y-461000D01*
X136325D01*
X136240Y-460572D01*
X135714Y-459786D01*
X134928Y-459260D01*
X134500Y-459175D01*
D02*
G37*
G36*
X41825Y-440000D02*
X40000D01*
Y-441825D01*
X40428Y-441740D01*
X41214Y-441214D01*
X41740Y-440428D01*
X41825Y-440000D01*
D02*
G37*
G36*
X53325Y-438500D02*
X51500D01*
Y-440325D01*
X51928Y-440240D01*
X52714Y-439714D01*
X53240Y-438928D01*
X53325Y-438500D01*
D02*
G37*
G36*
X50500D02*
X48675D01*
X48760Y-438928D01*
X49286Y-439714D01*
X50072Y-440240D01*
X50500Y-440325D01*
Y-438500D01*
D02*
G37*
G36*
X60825Y-495500D02*
X59000D01*
Y-497325D01*
X59428Y-497240D01*
X60214Y-496714D01*
X60740Y-495928D01*
X60825Y-495500D01*
D02*
G37*
G36*
X90000Y-503675D02*
X89572Y-503760D01*
X88786Y-504286D01*
X88260Y-505072D01*
X88175Y-505500D01*
X90000D01*
Y-503675D01*
D02*
G37*
G36*
X43825Y-504000D02*
X42000D01*
Y-505825D01*
X42428Y-505740D01*
X43214Y-505214D01*
X43740Y-504428D01*
X43825Y-504000D01*
D02*
G37*
G36*
X91000Y-503675D02*
Y-505500D01*
X92825D01*
X92740Y-505072D01*
X92214Y-504286D01*
X91428Y-503760D01*
X91000Y-503675D01*
D02*
G37*
G36*
X119500Y-501675D02*
Y-503500D01*
X121325D01*
X121240Y-503072D01*
X120714Y-502286D01*
X119928Y-501760D01*
X119500Y-501675D01*
D02*
G37*
G36*
X118500D02*
X118072Y-501760D01*
X117286Y-502286D01*
X116760Y-503072D01*
X116675Y-503500D01*
X118500D01*
Y-501675D01*
D02*
G37*
G36*
X92825Y-506500D02*
X91000D01*
Y-508325D01*
X91428Y-508240D01*
X92214Y-507714D01*
X92740Y-506928D01*
X92825Y-506500D01*
D02*
G37*
G36*
X90000D02*
X88175D01*
X88260Y-506928D01*
X88786Y-507714D01*
X89572Y-508240D01*
X90000Y-508325D01*
Y-506500D01*
D02*
G37*
G36*
X118500Y-504500D02*
X116675D01*
X116760Y-504928D01*
X117286Y-505714D01*
X118072Y-506240D01*
X118500Y-506325D01*
Y-504500D01*
D02*
G37*
G36*
X41000Y-504000D02*
X39175D01*
X39260Y-504428D01*
X39786Y-505214D01*
X40572Y-505740D01*
X41000Y-505825D01*
Y-504000D01*
D02*
G37*
G36*
X121325Y-504500D02*
X119500D01*
Y-506325D01*
X119928Y-506240D01*
X120714Y-505714D01*
X121240Y-504928D01*
X121325Y-504500D01*
D02*
G37*
G36*
X41000Y-501175D02*
X40572Y-501260D01*
X39786Y-501786D01*
X39260Y-502572D01*
X39175Y-503000D01*
X41000D01*
Y-501175D01*
D02*
G37*
G36*
X10650Y-494367D02*
X7000D01*
Y-498016D01*
X10650D01*
Y-494367D01*
D02*
G37*
G36*
X6000D02*
X2350D01*
Y-498016D01*
X6000D01*
Y-494367D01*
D02*
G37*
G36*
X134000Y-493850D02*
X130350D01*
Y-497500D01*
X134000D01*
Y-493850D01*
D02*
G37*
G36*
X58000Y-495500D02*
X56175D01*
X56260Y-495928D01*
X56786Y-496714D01*
X57572Y-497240D01*
X58000Y-497325D01*
Y-495500D01*
D02*
G37*
G36*
X138650Y-493850D02*
X135000D01*
Y-497500D01*
X138650D01*
Y-493850D01*
D02*
G37*
G36*
X6000Y-499016D02*
X2350D01*
Y-502666D01*
X6000D01*
Y-499016D01*
D02*
G37*
G36*
X42000Y-501175D02*
Y-503000D01*
X43825D01*
X43740Y-502572D01*
X43214Y-501786D01*
X42428Y-501260D01*
X42000Y-501175D01*
D02*
G37*
G36*
X10650Y-499016D02*
X7000D01*
Y-502666D01*
X10650D01*
Y-499016D01*
D02*
G37*
G36*
X138650Y-498500D02*
X135000D01*
Y-502150D01*
X138650D01*
Y-498500D01*
D02*
G37*
G36*
X134000D02*
X130350D01*
Y-502150D01*
X134000D01*
Y-498500D01*
D02*
G37*
G36*
Y-306675D02*
Y-308500D01*
X135825D01*
X135740Y-308072D01*
X135214Y-307286D01*
X134428Y-306760D01*
X134000Y-306675D01*
D02*
G37*
G36*
X115500Y-97675D02*
Y-99500D01*
X117325D01*
X117240Y-99072D01*
X116714Y-98286D01*
X115928Y-97760D01*
X115500Y-97675D01*
D02*
G37*
G36*
X114500D02*
X114072Y-97760D01*
X113286Y-98286D01*
X112760Y-99072D01*
X112675Y-99500D01*
X114500D01*
Y-97675D01*
D02*
G37*
G36*
X8000Y-97175D02*
X7572Y-97260D01*
X6786Y-97786D01*
X6260Y-98572D01*
X6175Y-99000D01*
X8000D01*
Y-97175D01*
D02*
G37*
G36*
X59000Y-96000D02*
X57175D01*
X57260Y-96428D01*
X57786Y-97214D01*
X58572Y-97740D01*
X59000Y-97825D01*
Y-96000D01*
D02*
G37*
G36*
X9000Y-97175D02*
Y-99000D01*
X10825D01*
X10740Y-98572D01*
X10214Y-97786D01*
X9428Y-97260D01*
X9000Y-97175D01*
D02*
G37*
G36*
X27555Y-100175D02*
X27127Y-100260D01*
X26341Y-100786D01*
X25815Y-101572D01*
X25730Y-102000D01*
X27555D01*
Y-100175D01*
D02*
G37*
G36*
X117325Y-100500D02*
X115500D01*
Y-102325D01*
X115928Y-102240D01*
X116714Y-101714D01*
X117240Y-100928D01*
X117325Y-100500D01*
D02*
G37*
G36*
X28555Y-100175D02*
Y-102000D01*
X30380D01*
X30295Y-101572D01*
X29770Y-100786D01*
X28983Y-100260D01*
X28555Y-100175D01*
D02*
G37*
G36*
X10825Y-100000D02*
X9000D01*
Y-101825D01*
X9428Y-101740D01*
X10214Y-101214D01*
X10740Y-100428D01*
X10825Y-100000D01*
D02*
G37*
G36*
X8000D02*
X6175D01*
X6260Y-100428D01*
X6786Y-101214D01*
X7572Y-101740D01*
X8000Y-101825D01*
Y-100000D01*
D02*
G37*
G36*
X61825Y-96000D02*
X60000D01*
Y-97825D01*
X60428Y-97740D01*
X61214Y-97214D01*
X61740Y-96428D01*
X61825Y-96000D01*
D02*
G37*
G36*
X72000Y-91175D02*
X71572Y-91260D01*
X70786Y-91786D01*
X70260Y-92572D01*
X70175Y-93000D01*
X72000D01*
Y-91175D01*
D02*
G37*
G36*
X136325Y-92374D02*
X134500D01*
Y-94199D01*
X134928Y-94114D01*
X135714Y-93588D01*
X136240Y-92802D01*
X136325Y-92374D01*
D02*
G37*
G36*
X73000Y-91175D02*
Y-93000D01*
X74825D01*
X74740Y-92572D01*
X74214Y-91786D01*
X73428Y-91260D01*
X73000Y-91175D01*
D02*
G37*
G36*
X134500Y-89549D02*
Y-91374D01*
X136325D01*
X136240Y-90946D01*
X135714Y-90160D01*
X134928Y-89634D01*
X134500Y-89549D01*
D02*
G37*
G36*
X133500D02*
X133072Y-89634D01*
X132286Y-90160D01*
X131760Y-90946D01*
X131675Y-91374D01*
X133500D01*
Y-89549D01*
D02*
G37*
G36*
X74825Y-94000D02*
X73000D01*
Y-95825D01*
X73428Y-95740D01*
X74214Y-95214D01*
X74740Y-94428D01*
X74825Y-94000D01*
D02*
G37*
G36*
X72000D02*
X70175D01*
X70260Y-94428D01*
X70786Y-95214D01*
X71572Y-95740D01*
X72000Y-95825D01*
Y-94000D01*
D02*
G37*
G36*
X59000Y-93175D02*
X58572Y-93260D01*
X57786Y-93786D01*
X57260Y-94572D01*
X57175Y-95000D01*
X59000D01*
Y-93175D01*
D02*
G37*
G36*
X133500Y-92374D02*
X131675D01*
X131760Y-92802D01*
X132286Y-93588D01*
X133072Y-94114D01*
X133500Y-94199D01*
Y-92374D01*
D02*
G37*
G36*
X60000Y-93175D02*
Y-95000D01*
X61825D01*
X61740Y-94572D01*
X61214Y-93786D01*
X60428Y-93260D01*
X60000Y-93175D01*
D02*
G37*
G36*
X114500Y-100500D02*
X112675D01*
X112760Y-100928D01*
X113286Y-101714D01*
X114072Y-102240D01*
X114500Y-102325D01*
Y-100500D01*
D02*
G37*
G36*
X132000Y-150175D02*
X131572Y-150260D01*
X130786Y-150786D01*
X130260Y-151572D01*
X130175Y-152000D01*
X132000D01*
Y-150175D01*
D02*
G37*
G36*
X75825Y-152000D02*
X74000D01*
Y-153825D01*
X74428Y-153740D01*
X75214Y-153214D01*
X75740Y-152428D01*
X75825Y-152000D01*
D02*
G37*
G36*
X133000Y-150175D02*
Y-152000D01*
X134825D01*
X134740Y-151572D01*
X134214Y-150786D01*
X133428Y-150260D01*
X133000Y-150175D01*
D02*
G37*
G36*
X84000Y-132175D02*
X83572Y-132260D01*
X82786Y-132786D01*
X82260Y-133572D01*
X82175Y-134000D01*
X84000D01*
Y-132175D01*
D02*
G37*
G36*
X69520Y-130970D02*
X68606Y-131090D01*
X67755Y-131443D01*
X67023Y-132004D01*
X66462Y-132735D01*
X66110Y-133586D01*
X65990Y-134500D01*
X66110Y-135414D01*
X66462Y-136265D01*
X66660Y-136522D01*
X66413Y-137022D01*
X37500D01*
X36525Y-137216D01*
X35698Y-137769D01*
X28422Y-145044D01*
X27949Y-144883D01*
X27910Y-144586D01*
X27557Y-143735D01*
X26996Y-143004D01*
X26265Y-142443D01*
X25414Y-142090D01*
X24500Y-141970D01*
X23586Y-142090D01*
X22735Y-142443D01*
X22004Y-143004D01*
X21443Y-143735D01*
X21090Y-144586D01*
X21045Y-144927D01*
X20867D01*
X19891Y-145121D01*
X19064Y-145674D01*
X8698Y-156041D01*
X8145Y-156868D01*
X7951Y-157843D01*
Y-177500D01*
X8145Y-178475D01*
X8698Y-179302D01*
X14698Y-185302D01*
X15525Y-185855D01*
X16500Y-186049D01*
X19072D01*
X19735Y-186557D01*
X20586Y-186910D01*
X21414Y-187019D01*
X23951Y-189556D01*
Y-256141D01*
X17065Y-263027D01*
X16586Y-263090D01*
X15735Y-263443D01*
X15004Y-264004D01*
X14443Y-264735D01*
X14090Y-265586D01*
X13981Y-266414D01*
X8698Y-271698D01*
X8145Y-272524D01*
X7951Y-273500D01*
Y-289500D01*
X8145Y-290476D01*
X8698Y-291302D01*
X11698Y-294302D01*
X12525Y-294855D01*
X13500Y-295049D01*
X18951D01*
Y-298500D01*
X19145Y-299476D01*
X19698Y-300302D01*
X21951Y-302556D01*
Y-368322D01*
X21443Y-368985D01*
X21090Y-369836D01*
X21019Y-370376D01*
X9198Y-382198D01*
X8645Y-383025D01*
X8451Y-384000D01*
Y-400000D01*
X8645Y-400976D01*
X9198Y-401802D01*
X14198Y-406802D01*
X15024Y-407355D01*
X16000Y-407549D01*
X18451D01*
Y-441573D01*
X17943Y-442235D01*
X17590Y-443086D01*
X17470Y-444000D01*
X17493Y-444174D01*
X10198Y-451470D01*
X9645Y-452297D01*
X9451Y-453272D01*
Y-462657D01*
X9645Y-463632D01*
X10198Y-464459D01*
X17541Y-471802D01*
X18368Y-472355D01*
X19343Y-472549D01*
X19451D01*
Y-504353D01*
X19235Y-504443D01*
X18504Y-505004D01*
X17943Y-505735D01*
X17590Y-506586D01*
X17481Y-507414D01*
X8198Y-516698D01*
X7645Y-517524D01*
X7451Y-518500D01*
Y-530000D01*
X7645Y-530975D01*
X8198Y-531802D01*
X15198Y-538802D01*
X16025Y-539355D01*
X17000Y-539549D01*
X17572D01*
X18235Y-540057D01*
X19086Y-540410D01*
X20000Y-540530D01*
X20914Y-540410D01*
X21765Y-540057D01*
X22496Y-539496D01*
X23057Y-538765D01*
X23410Y-537914D01*
X23530Y-537000D01*
X23410Y-536086D01*
X23057Y-535235D01*
X22496Y-534504D01*
X21765Y-533943D01*
X21350Y-533771D01*
Y-533229D01*
X21765Y-533057D01*
X22496Y-532496D01*
X23057Y-531765D01*
X23410Y-530914D01*
X23530Y-530000D01*
X23410Y-529086D01*
X23057Y-528235D01*
X22496Y-527504D01*
X21765Y-526943D01*
X20914Y-526590D01*
X20000Y-526470D01*
X19086Y-526590D01*
X18456Y-526851D01*
X16549Y-524944D01*
Y-524073D01*
X17049Y-523904D01*
X17504Y-524496D01*
X18235Y-525057D01*
X19086Y-525410D01*
X20000Y-525530D01*
X20914Y-525410D01*
X21765Y-525057D01*
X22496Y-524496D01*
X23057Y-523765D01*
X23404Y-522929D01*
X34802Y-511530D01*
X35355Y-510703D01*
X35549Y-509728D01*
Y-462000D01*
X35355Y-461025D01*
X34802Y-460198D01*
X28802Y-454198D01*
X28390Y-453922D01*
X28326Y-453278D01*
X32802Y-448802D01*
X33355Y-447975D01*
X33549Y-447000D01*
Y-400000D01*
X33355Y-399025D01*
X32802Y-398198D01*
X25802Y-391198D01*
X25390Y-390922D01*
X25326Y-390278D01*
X33570Y-382035D01*
X34475Y-381855D01*
X35302Y-381302D01*
X35855Y-380475D01*
X36049Y-379500D01*
Y-378500D01*
Y-359012D01*
X36549Y-358860D01*
X36786Y-359214D01*
X37572Y-359740D01*
X38000Y-359825D01*
Y-357500D01*
Y-355175D01*
X37572Y-355260D01*
X36786Y-355786D01*
X36549Y-356140D01*
X36049Y-355988D01*
Y-282500D01*
X35855Y-281524D01*
X35302Y-280698D01*
X31302Y-276698D01*
X30476Y-276145D01*
X29500Y-275951D01*
X28307D01*
X28116Y-275489D01*
X38302Y-265302D01*
X38855Y-264475D01*
X39049Y-263500D01*
Y-253095D01*
X39549Y-252943D01*
X39731Y-253214D01*
X40517Y-253740D01*
X40945Y-253825D01*
Y-251500D01*
Y-249175D01*
X40517Y-249260D01*
X39731Y-249786D01*
X39549Y-250057D01*
X39049Y-249905D01*
Y-175500D01*
X38855Y-174524D01*
X38302Y-173698D01*
X32302Y-167698D01*
X31475Y-167145D01*
X30500Y-166951D01*
X23927D01*
X23265Y-166443D01*
X22414Y-166090D01*
X21500Y-165970D01*
X20586Y-166090D01*
X19735Y-166443D01*
X19497Y-166625D01*
X19049Y-166404D01*
Y-158556D01*
X23579Y-154025D01*
X24181D01*
X24340Y-153994D01*
X24622Y-154447D01*
X24419Y-154711D01*
X24067Y-155563D01*
X23946Y-156476D01*
X24067Y-157390D01*
X24419Y-158241D01*
X24980Y-158973D01*
X25711Y-159534D01*
X26563Y-159886D01*
X27476Y-160007D01*
X28390Y-159886D01*
X29241Y-159534D01*
X29973Y-158973D01*
X30534Y-158241D01*
X30886Y-157390D01*
X30995Y-156562D01*
X37509Y-150049D01*
X71079D01*
X71315Y-150490D01*
X71260Y-150572D01*
X71175Y-151000D01*
X75825D01*
X75740Y-150572D01*
X75685Y-150490D01*
X75921Y-150049D01*
X89444D01*
X104951Y-165556D01*
Y-167951D01*
X95500D01*
X94525Y-168145D01*
X93698Y-168698D01*
X86698Y-175698D01*
X86145Y-176524D01*
X85951Y-177500D01*
Y-257500D01*
X86145Y-258475D01*
X86698Y-259302D01*
X106395Y-279000D01*
X98698Y-286698D01*
X98145Y-287525D01*
X97951Y-288500D01*
Y-359500D01*
X98145Y-360475D01*
X98698Y-361302D01*
X105014Y-367619D01*
Y-386381D01*
X103914Y-387481D01*
X103086Y-387590D01*
X102235Y-387943D01*
X101573Y-388451D01*
X99000D01*
X98024Y-388645D01*
X97198Y-389198D01*
X94198Y-392198D01*
X93645Y-393024D01*
X93451Y-394000D01*
Y-442000D01*
X93645Y-442976D01*
X94198Y-443802D01*
X103384Y-452989D01*
X103193Y-453451D01*
X102000D01*
X101024Y-453645D01*
X100198Y-454198D01*
X95198Y-459198D01*
X94645Y-460024D01*
X94451Y-461000D01*
Y-514000D01*
X94645Y-514976D01*
X95198Y-515802D01*
X102481Y-523086D01*
X102590Y-523914D01*
X102943Y-524765D01*
X103504Y-525496D01*
X104235Y-526057D01*
X104932Y-526346D01*
X104968Y-526862D01*
X104965Y-526873D01*
X104798Y-526943D01*
X104067Y-527504D01*
X103506Y-528235D01*
X103153Y-529086D01*
X103033Y-530000D01*
X103153Y-530914D01*
X103506Y-531765D01*
X104067Y-532496D01*
X104644Y-532939D01*
X104682Y-533149D01*
X104667Y-533415D01*
X104625Y-533527D01*
X104004Y-534004D01*
X103443Y-534735D01*
X103090Y-535586D01*
X102970Y-536500D01*
X103090Y-537414D01*
X103443Y-538265D01*
X104004Y-538996D01*
X104735Y-539557D01*
X105586Y-539910D01*
X106500Y-540030D01*
X107414Y-539910D01*
X108265Y-539557D01*
X108996Y-538996D01*
X109557Y-538265D01*
X109865Y-537523D01*
X118802Y-528585D01*
X119355Y-527758D01*
X119549Y-526783D01*
Y-518000D01*
X119355Y-517025D01*
X118802Y-516198D01*
X118450Y-515845D01*
X118355Y-515368D01*
X117802Y-514541D01*
X114459Y-511198D01*
X113632Y-510645D01*
X113155Y-510550D01*
X112549Y-509944D01*
Y-472428D01*
X113057Y-471765D01*
X113410Y-470914D01*
X113519Y-470086D01*
X113659Y-469945D01*
X113874Y-469802D01*
X119166Y-464509D01*
X119719Y-463683D01*
X119913Y-462707D01*
Y-462420D01*
X120802Y-461530D01*
X121355Y-460703D01*
X121549Y-459728D01*
Y-450343D01*
X121355Y-449368D01*
X120802Y-448541D01*
X112996Y-440735D01*
X113243Y-440274D01*
X113500Y-440325D01*
Y-438500D01*
X111675D01*
X111726Y-438757D01*
X111265Y-439004D01*
X107549Y-435287D01*
Y-407549D01*
X109063D01*
X110038Y-407355D01*
X110865Y-406802D01*
X118084Y-399584D01*
X118636Y-398757D01*
X118831Y-397781D01*
X118636Y-396806D01*
X118549Y-396675D01*
Y-373921D01*
X118990Y-373685D01*
X119072Y-373740D01*
X119500Y-373825D01*
Y-371500D01*
Y-369175D01*
X119072Y-369260D01*
X118990Y-369315D01*
X118549Y-369079D01*
Y-355000D01*
X118355Y-354025D01*
X117802Y-353198D01*
X116605Y-352000D01*
X117365Y-351239D01*
X117918Y-350413D01*
X118089Y-349551D01*
X119122D01*
Y-341449D01*
X118112D01*
Y-300563D01*
X117918Y-299587D01*
X117365Y-298761D01*
X115049Y-296444D01*
Y-295049D01*
X118500D01*
X119475Y-294855D01*
X120302Y-294302D01*
X126302Y-288302D01*
X126855Y-287475D01*
X127049Y-286500D01*
Y-277500D01*
X126855Y-276524D01*
X126302Y-275698D01*
X126049Y-275444D01*
Y-274772D01*
X125855Y-273797D01*
X125302Y-272970D01*
X120030Y-267698D01*
X119203Y-267145D01*
X118228Y-266951D01*
X117556D01*
X107549Y-256944D01*
Y-242427D01*
X108057Y-241765D01*
X108410Y-240914D01*
X108519Y-240086D01*
X109302Y-239302D01*
X109804Y-238551D01*
X112185D01*
Y-230449D01*
X105067D01*
Y-235755D01*
X104567Y-235962D01*
X99049Y-230444D01*
Y-189556D01*
X103556Y-185049D01*
X105072D01*
X105735Y-185557D01*
X106586Y-185910D01*
X107500Y-186030D01*
X108414Y-185910D01*
X109265Y-185557D01*
X109927Y-185049D01*
X110563D01*
X111538Y-184855D01*
X112365Y-184302D01*
X112918Y-183475D01*
X113112Y-182500D01*
Y-181564D01*
X120302Y-174373D01*
X120855Y-173547D01*
X121049Y-172571D01*
Y-159843D01*
X120855Y-158868D01*
X120302Y-158041D01*
X114877Y-152616D01*
Y-150328D01*
X114683Y-149353D01*
X114131Y-148526D01*
X103302Y-137698D01*
X102476Y-137145D01*
X101500Y-136951D01*
X86012D01*
X85860Y-136451D01*
X86214Y-136214D01*
X86740Y-135428D01*
X86825Y-135000D01*
X82175D01*
X82260Y-135428D01*
X82786Y-136214D01*
X83140Y-136451D01*
X82988Y-136951D01*
X75576D01*
X73039Y-134414D01*
X72930Y-133586D01*
X72577Y-132735D01*
X72016Y-132004D01*
X71285Y-131443D01*
X70433Y-131090D01*
X69520Y-130970D01*
D02*
G37*
G36*
X134825Y-153000D02*
X133000D01*
Y-154825D01*
X133428Y-154740D01*
X134214Y-154214D01*
X134740Y-153428D01*
X134825Y-153000D01*
D02*
G37*
G36*
X132000D02*
X130175D01*
X130260Y-153428D01*
X130786Y-154214D01*
X131572Y-154740D01*
X132000Y-154825D01*
Y-153000D01*
D02*
G37*
G36*
X2500Y-152175D02*
X2072Y-152260D01*
X1286Y-152786D01*
X760Y-153572D01*
X675Y-154000D01*
X2500D01*
Y-152175D01*
D02*
G37*
G36*
X73000Y-152000D02*
X71175D01*
X71260Y-152428D01*
X71786Y-153214D01*
X72572Y-153740D01*
X73000Y-153825D01*
Y-152000D01*
D02*
G37*
G36*
X3500Y-152175D02*
Y-154000D01*
X5325D01*
X5240Y-153572D01*
X4714Y-152786D01*
X3928Y-152260D01*
X3500Y-152175D01*
D02*
G37*
G36*
X85000Y-132175D02*
Y-134000D01*
X86825D01*
X86740Y-133572D01*
X86214Y-132786D01*
X85428Y-132260D01*
X85000Y-132175D01*
D02*
G37*
G36*
X59500Y-108175D02*
X59072Y-108260D01*
X58286Y-108786D01*
X57760Y-109572D01*
X57675Y-110000D01*
X59500D01*
Y-108175D01*
D02*
G37*
G36*
X62325Y-111000D02*
X60500D01*
Y-112825D01*
X60928Y-112740D01*
X61714Y-112214D01*
X62240Y-111428D01*
X62325Y-111000D01*
D02*
G37*
G36*
X60500Y-108175D02*
Y-110000D01*
X62325D01*
X62240Y-109572D01*
X61714Y-108786D01*
X60928Y-108260D01*
X60500Y-108175D01*
D02*
G37*
G36*
X30380Y-103000D02*
X28555D01*
Y-104825D01*
X28983Y-104740D01*
X29770Y-104214D01*
X30295Y-103428D01*
X30380Y-103000D01*
D02*
G37*
G36*
X27555D02*
X25730D01*
X25815Y-103428D01*
X26341Y-104214D01*
X27127Y-104740D01*
X27555Y-104825D01*
Y-103000D01*
D02*
G37*
G36*
X140120Y-128144D02*
X138295D01*
Y-129969D01*
X138723Y-129884D01*
X139510Y-129358D01*
X140035Y-128571D01*
X140120Y-128144D01*
D02*
G37*
G36*
X137295D02*
X135470D01*
X135555Y-128571D01*
X136081Y-129358D01*
X136867Y-129884D01*
X137295Y-129969D01*
Y-128144D01*
D02*
G37*
G36*
Y-125319D02*
X136867Y-125404D01*
X136081Y-125929D01*
X135555Y-126716D01*
X135470Y-127144D01*
X137295D01*
Y-125319D01*
D02*
G37*
G36*
X59500Y-111000D02*
X57675D01*
X57760Y-111428D01*
X58286Y-112214D01*
X59072Y-112740D01*
X59500Y-112825D01*
Y-111000D01*
D02*
G37*
G36*
X138295Y-125319D02*
Y-127144D01*
X140120D01*
X140035Y-126716D01*
X139510Y-125929D01*
X138723Y-125404D01*
X138295Y-125319D01*
D02*
G37*
G36*
X18000Y-86500D02*
X16175D01*
X16260Y-86928D01*
X16786Y-87714D01*
X17572Y-88240D01*
X18000Y-88325D01*
Y-86500D01*
D02*
G37*
G36*
X11000Y-40350D02*
X7350D01*
Y-44000D01*
X11000D01*
Y-40350D01*
D02*
G37*
G36*
X15650Y-45000D02*
X12000D01*
Y-48650D01*
X15650D01*
Y-45000D01*
D02*
G37*
G36*
Y-40350D02*
X12000D01*
Y-44000D01*
X15650D01*
Y-40350D01*
D02*
G37*
G36*
X91500Y-35516D02*
X90469Y-35652D01*
X89508Y-36050D01*
X88683Y-36683D01*
X88050Y-37508D01*
X87652Y-38469D01*
X87516Y-39500D01*
X87652Y-40531D01*
X88050Y-41492D01*
X88683Y-42317D01*
X89508Y-42950D01*
X90469Y-43348D01*
X91500Y-43484D01*
X92531Y-43348D01*
X93492Y-42950D01*
X94317Y-42317D01*
X94950Y-41492D01*
X95348Y-40531D01*
X95484Y-39500D01*
X95348Y-38469D01*
X94950Y-37508D01*
X94317Y-36683D01*
X93492Y-36050D01*
X92531Y-35652D01*
X91500Y-35516D01*
D02*
G37*
G36*
X75500D02*
X74469Y-35652D01*
X73508Y-36050D01*
X72683Y-36683D01*
X72050Y-37508D01*
X71652Y-38469D01*
X71516Y-39500D01*
X71652Y-40531D01*
X72050Y-41492D01*
X72683Y-42317D01*
X73508Y-42950D01*
X74469Y-43348D01*
X75500Y-43484D01*
X76531Y-43348D01*
X77492Y-42950D01*
X78317Y-42317D01*
X78950Y-41492D01*
X79348Y-40531D01*
X79484Y-39500D01*
X79348Y-38469D01*
X78950Y-37508D01*
X78317Y-36683D01*
X77492Y-36050D01*
X76531Y-35652D01*
X75500Y-35516D01*
D02*
G37*
G36*
X128450Y-45421D02*
X120550D01*
Y-53320D01*
X128450D01*
Y-45421D01*
D02*
G37*
G36*
X111450D02*
X103550D01*
Y-53320D01*
X111450D01*
Y-45421D01*
D02*
G37*
G36*
X75000Y-45350D02*
X71350D01*
Y-49000D01*
X75000D01*
Y-45350D01*
D02*
G37*
G36*
X11000Y-45000D02*
X7350D01*
Y-48650D01*
X11000D01*
Y-45000D01*
D02*
G37*
G36*
X79650Y-45350D02*
X76000D01*
Y-49000D01*
X79650D01*
Y-45350D01*
D02*
G37*
G36*
X107500Y-35386D02*
X106469Y-35522D01*
X105508Y-35920D01*
X104683Y-36553D01*
X104050Y-37378D01*
X103652Y-38339D01*
X103516Y-39370D01*
X103652Y-40401D01*
X104050Y-41362D01*
X104683Y-42187D01*
X105508Y-42820D01*
X106469Y-43218D01*
X107500Y-43354D01*
X108531Y-43218D01*
X109492Y-42820D01*
X110317Y-42187D01*
X110950Y-41362D01*
X111348Y-40401D01*
X111484Y-39370D01*
X111348Y-38339D01*
X110950Y-37378D01*
X110317Y-36553D01*
X109492Y-35920D01*
X108531Y-35522D01*
X107500Y-35386D01*
D02*
G37*
G36*
X11311Y-3922D02*
X10262Y-4025D01*
X8773Y-4477D01*
X7401Y-5211D01*
X6198Y-6198D01*
X5211Y-7401D01*
X4477Y-8773D01*
X4025Y-10262D01*
X3922Y-11311D01*
X11311D01*
Y-3922D01*
D02*
G37*
G36*
X137810Y-12311D02*
X130421D01*
Y-19700D01*
X131470Y-19597D01*
X132959Y-19145D01*
X134332Y-18411D01*
X135534Y-17424D01*
X136522Y-16221D01*
X137255Y-14849D01*
X137707Y-13360D01*
X137810Y-12311D01*
D02*
G37*
G36*
X12311Y-3922D02*
Y-11311D01*
X19700D01*
X19597Y-10262D01*
X19145Y-8773D01*
X18411Y-7401D01*
X17424Y-6198D01*
X16221Y-5211D01*
X14849Y-4477D01*
X13360Y-4025D01*
X12311Y-3922D01*
D02*
G37*
G36*
X130421D02*
Y-11311D01*
X137810D01*
X137707Y-10262D01*
X137255Y-8773D01*
X136522Y-7401D01*
X135534Y-6198D01*
X134332Y-5211D01*
X132959Y-4477D01*
X131470Y-4025D01*
X130421Y-3922D01*
D02*
G37*
G36*
X129421D02*
X128373Y-4025D01*
X126883Y-4477D01*
X125511Y-5211D01*
X124308Y-6198D01*
X123321Y-7401D01*
X122587Y-8773D01*
X122136Y-10262D01*
X122032Y-11311D01*
X129421D01*
Y-3922D01*
D02*
G37*
G36*
X11500Y-30315D02*
X10417Y-30457D01*
X9407Y-30875D01*
X8540Y-31541D01*
X7875Y-32407D01*
X7457Y-33417D01*
X7315Y-34500D01*
X7457Y-35583D01*
X7875Y-36593D01*
X8540Y-37459D01*
X9407Y-38125D01*
X10417Y-38543D01*
X11500Y-38685D01*
X12583Y-38543D01*
X13593Y-38125D01*
X14459Y-37459D01*
X15125Y-36593D01*
X15543Y-35583D01*
X15685Y-34500D01*
X15543Y-33417D01*
X15125Y-32407D01*
X14459Y-31541D01*
X13593Y-30875D01*
X12583Y-30457D01*
X11500Y-30315D01*
D02*
G37*
G36*
X124500Y-35386D02*
X123469Y-35522D01*
X122508Y-35920D01*
X121683Y-36553D01*
X121050Y-37378D01*
X120652Y-38339D01*
X120516Y-39370D01*
X120652Y-40401D01*
X121050Y-41362D01*
X121683Y-42187D01*
X122508Y-42820D01*
X123469Y-43218D01*
X124500Y-43354D01*
X125531Y-43218D01*
X126492Y-42820D01*
X127317Y-42187D01*
X127950Y-41362D01*
X128348Y-40401D01*
X128484Y-39370D01*
X128348Y-38339D01*
X127950Y-37378D01*
X127317Y-36553D01*
X126492Y-35920D01*
X125531Y-35522D01*
X124500Y-35386D01*
D02*
G37*
G36*
X11311Y-12311D02*
X3922D01*
X4025Y-13360D01*
X4477Y-14849D01*
X5211Y-16221D01*
X6198Y-17424D01*
X7401Y-18411D01*
X8773Y-19145D01*
X10262Y-19597D01*
X11311Y-19700D01*
Y-12311D01*
D02*
G37*
G36*
X129421D02*
X122032D01*
X122136Y-13360D01*
X122587Y-14849D01*
X123321Y-16221D01*
X124308Y-17424D01*
X125511Y-18411D01*
X126883Y-19145D01*
X128373Y-19597D01*
X129421Y-19700D01*
Y-12311D01*
D02*
G37*
G36*
X19700D02*
X12311D01*
Y-19700D01*
X13360Y-19597D01*
X14849Y-19145D01*
X16221Y-18411D01*
X17424Y-17424D01*
X18411Y-16221D01*
X19145Y-14849D01*
X19597Y-13360D01*
X19700Y-12311D01*
D02*
G37*
G36*
X95450Y-45550D02*
X87550D01*
Y-53450D01*
X95450D01*
Y-45550D01*
D02*
G37*
G36*
X125825Y-78000D02*
X124000D01*
Y-79825D01*
X124428Y-79740D01*
X125214Y-79214D01*
X125740Y-78428D01*
X125825Y-78000D01*
D02*
G37*
G36*
X123000D02*
X121175D01*
X121260Y-78428D01*
X121786Y-79214D01*
X122572Y-79740D01*
X123000Y-79825D01*
Y-78000D01*
D02*
G37*
G36*
X70500Y-75175D02*
X70072Y-75260D01*
X69286Y-75786D01*
X68760Y-76572D01*
X68675Y-77000D01*
X70500D01*
Y-75175D01*
D02*
G37*
G36*
X123000D02*
X122572Y-75260D01*
X121786Y-75786D01*
X121260Y-76572D01*
X121175Y-77000D01*
X123000D01*
Y-75175D01*
D02*
G37*
G36*
X71500D02*
Y-77000D01*
X73325D01*
X73240Y-76572D01*
X72714Y-75786D01*
X71928Y-75260D01*
X71500Y-75175D01*
D02*
G37*
G36*
X18000Y-83675D02*
X17572Y-83760D01*
X16786Y-84286D01*
X16260Y-85072D01*
X16175Y-85500D01*
X18000D01*
Y-83675D01*
D02*
G37*
G36*
X20825Y-86500D02*
X19000D01*
Y-88325D01*
X19428Y-88240D01*
X20214Y-87714D01*
X20740Y-86928D01*
X20825Y-86500D01*
D02*
G37*
G36*
X19000Y-83675D02*
Y-85500D01*
X20825D01*
X20740Y-85072D01*
X20214Y-84286D01*
X19428Y-83760D01*
X19000Y-83675D01*
D02*
G37*
G36*
X73325Y-78000D02*
X71500D01*
Y-79825D01*
X71928Y-79740D01*
X72714Y-79214D01*
X73240Y-78428D01*
X73325Y-78000D01*
D02*
G37*
G36*
X70500D02*
X68675D01*
X68760Y-78428D01*
X69286Y-79214D01*
X70072Y-79740D01*
X70500Y-79825D01*
Y-78000D01*
D02*
G37*
G36*
X124000Y-75175D02*
Y-77000D01*
X125825D01*
X125740Y-76572D01*
X125214Y-75786D01*
X124428Y-75260D01*
X124000Y-75175D01*
D02*
G37*
G36*
X112500Y-72112D02*
X112072Y-72197D01*
X111286Y-72723D01*
X110760Y-73509D01*
X110675Y-73937D01*
X112500D01*
Y-72112D01*
D02*
G37*
G36*
X105000D02*
Y-73937D01*
X106825D01*
X106740Y-73509D01*
X106214Y-72723D01*
X105428Y-72197D01*
X105000Y-72112D01*
D02*
G37*
G36*
X113500D02*
Y-73937D01*
X115325D01*
X115240Y-73509D01*
X114714Y-72723D01*
X113928Y-72197D01*
X113500Y-72112D01*
D02*
G37*
G36*
X79650Y-50000D02*
X76000D01*
Y-53650D01*
X79650D01*
Y-50000D01*
D02*
G37*
G36*
X75000D02*
X71350D01*
Y-53650D01*
X75000D01*
Y-50000D01*
D02*
G37*
G36*
X106825Y-74937D02*
X105000D01*
Y-76762D01*
X105428Y-76677D01*
X106214Y-76151D01*
X106740Y-75365D01*
X106825Y-74937D01*
D02*
G37*
G36*
X104000D02*
X102175D01*
X102260Y-75365D01*
X102786Y-76151D01*
X103572Y-76677D01*
X104000Y-76762D01*
Y-74937D01*
D02*
G37*
G36*
X112500D02*
X110675D01*
X110760Y-75365D01*
X111286Y-76151D01*
X112072Y-76677D01*
X112500Y-76762D01*
Y-74937D01*
D02*
G37*
G36*
X104000Y-72112D02*
X103572Y-72197D01*
X102786Y-72723D01*
X102260Y-73509D01*
X102175Y-73937D01*
X104000D01*
Y-72112D01*
D02*
G37*
G36*
X115325Y-74937D02*
X113500D01*
Y-76762D01*
X113928Y-76677D01*
X114714Y-76151D01*
X115240Y-75365D01*
X115325Y-74937D01*
D02*
G37*
G36*
X5325Y-155000D02*
X3500D01*
Y-156825D01*
X3928Y-156740D01*
X4714Y-156214D01*
X5240Y-155428D01*
X5325Y-155000D01*
D02*
G37*
G36*
X43770Y-252000D02*
X41945D01*
Y-253825D01*
X42373Y-253740D01*
X43159Y-253214D01*
X43685Y-252428D01*
X43770Y-252000D01*
D02*
G37*
G36*
X130325Y-252500D02*
X128500D01*
Y-254325D01*
X128928Y-254240D01*
X129714Y-253714D01*
X130240Y-252928D01*
X130325Y-252500D01*
D02*
G37*
G36*
X63000Y-251175D02*
X62572Y-251260D01*
X61786Y-251786D01*
X61260Y-252572D01*
X61175Y-253000D01*
X63000D01*
Y-251175D01*
D02*
G37*
G36*
X56000Y-251000D02*
X54175D01*
X54260Y-251428D01*
X54786Y-252214D01*
X55572Y-252740D01*
X56000Y-252825D01*
Y-251000D01*
D02*
G37*
G36*
X64000Y-251175D02*
Y-253000D01*
X65825D01*
X65740Y-252572D01*
X65214Y-251786D01*
X64428Y-251260D01*
X64000Y-251175D01*
D02*
G37*
G36*
X65825Y-254000D02*
X64000D01*
Y-255825D01*
X64428Y-255740D01*
X65214Y-255214D01*
X65740Y-254428D01*
X65825Y-254000D01*
D02*
G37*
G36*
X63000D02*
X61175D01*
X61260Y-254428D01*
X61786Y-255214D01*
X62572Y-255740D01*
X63000Y-255825D01*
Y-254000D01*
D02*
G37*
G36*
X73807Y-253000D02*
X71982D01*
X72067Y-253428D01*
X72593Y-254214D01*
X73379Y-254740D01*
X73807Y-254825D01*
Y-253000D01*
D02*
G37*
G36*
X127500Y-252500D02*
X125675D01*
X125760Y-252928D01*
X126286Y-253714D01*
X127072Y-254240D01*
X127500Y-254325D01*
Y-252500D01*
D02*
G37*
G36*
X76632Y-253000D02*
X74807D01*
Y-254825D01*
X75235Y-254740D01*
X76021Y-254214D01*
X76547Y-253428D01*
X76632Y-253000D01*
D02*
G37*
G36*
X58825Y-251000D02*
X57000D01*
Y-252825D01*
X57428Y-252740D01*
X58214Y-252214D01*
X58740Y-251428D01*
X58825Y-251000D01*
D02*
G37*
G36*
X57000Y-248175D02*
Y-250000D01*
X58825D01*
X58740Y-249572D01*
X58214Y-248786D01*
X57428Y-248260D01*
X57000Y-248175D01*
D02*
G37*
G36*
X56000D02*
X55572Y-248260D01*
X54786Y-248786D01*
X54260Y-249572D01*
X54175Y-250000D01*
X56000D01*
Y-248175D01*
D02*
G37*
G36*
X8000Y-238000D02*
X4350D01*
Y-241650D01*
X8000D01*
Y-238000D01*
D02*
G37*
G36*
X135000Y-237500D02*
X131350D01*
Y-241150D01*
X135000D01*
Y-237500D01*
D02*
G37*
G36*
X12650Y-238000D02*
X9000D01*
Y-241650D01*
X12650D01*
Y-238000D01*
D02*
G37*
G36*
X74807Y-250175D02*
Y-252000D01*
X76632D01*
X76547Y-251572D01*
X76021Y-250786D01*
X75235Y-250260D01*
X74807Y-250175D01*
D02*
G37*
G36*
X73807D02*
X73379Y-250260D01*
X72593Y-250786D01*
X72067Y-251572D01*
X71982Y-252000D01*
X73807D01*
Y-250175D01*
D02*
G37*
G36*
X127500Y-249675D02*
X127072Y-249760D01*
X126286Y-250286D01*
X125760Y-251072D01*
X125675Y-251500D01*
X127500D01*
Y-249675D01*
D02*
G37*
G36*
X41945Y-249175D02*
Y-251000D01*
X43770D01*
X43685Y-250572D01*
X43159Y-249786D01*
X42373Y-249260D01*
X41945Y-249175D01*
D02*
G37*
G36*
X128500Y-249675D02*
Y-251500D01*
X130325D01*
X130240Y-251072D01*
X129714Y-250286D01*
X128928Y-249760D01*
X128500Y-249675D01*
D02*
G37*
G36*
X117000Y-259175D02*
Y-261000D01*
X118825D01*
X118740Y-260572D01*
X118214Y-259786D01*
X117428Y-259260D01*
X117000Y-259175D01*
D02*
G37*
G36*
X90000Y-287000D02*
X88175D01*
X88260Y-287428D01*
X88786Y-288214D01*
X89572Y-288740D01*
X90000Y-288825D01*
Y-287000D01*
D02*
G37*
G36*
X46000Y-290175D02*
Y-292000D01*
X47825D01*
X47740Y-291572D01*
X47214Y-290786D01*
X46428Y-290260D01*
X46000Y-290175D01*
D02*
G37*
G36*
X92825Y-287000D02*
X91000D01*
Y-288825D01*
X91428Y-288740D01*
X92214Y-288214D01*
X92740Y-287428D01*
X92825Y-287000D01*
D02*
G37*
G36*
X91000Y-284175D02*
Y-286000D01*
X92825D01*
X92740Y-285572D01*
X92214Y-284786D01*
X91428Y-284260D01*
X91000Y-284175D01*
D02*
G37*
G36*
X90000D02*
X89572Y-284260D01*
X88786Y-284786D01*
X88260Y-285572D01*
X88175Y-286000D01*
X90000D01*
Y-284175D01*
D02*
G37*
G36*
X16000Y-306175D02*
Y-308000D01*
X17825D01*
X17740Y-307572D01*
X17214Y-306786D01*
X16428Y-306260D01*
X16000Y-306175D01*
D02*
G37*
G36*
X15000D02*
X14572Y-306260D01*
X13786Y-306786D01*
X13260Y-307572D01*
X13175Y-308000D01*
X15000D01*
Y-306175D01*
D02*
G37*
G36*
X45000Y-293000D02*
X43175D01*
X43260Y-293428D01*
X43786Y-294214D01*
X44572Y-294740D01*
X45000Y-294825D01*
Y-293000D01*
D02*
G37*
G36*
Y-290175D02*
X44572Y-290260D01*
X43786Y-290786D01*
X43260Y-291572D01*
X43175Y-292000D01*
X45000D01*
Y-290175D01*
D02*
G37*
G36*
X47825Y-293000D02*
X46000D01*
Y-294825D01*
X46428Y-294740D01*
X47214Y-294214D01*
X47740Y-293428D01*
X47825Y-293000D01*
D02*
G37*
G36*
X130000Y-275000D02*
X128175D01*
X128260Y-275428D01*
X128786Y-276214D01*
X129572Y-276740D01*
X130000Y-276825D01*
Y-275000D01*
D02*
G37*
G36*
X118825Y-262000D02*
X117000D01*
Y-263825D01*
X117428Y-263740D01*
X118214Y-263214D01*
X118740Y-262428D01*
X118825Y-262000D01*
D02*
G37*
G36*
X116000D02*
X114175D01*
X114260Y-262428D01*
X114786Y-263214D01*
X115572Y-263740D01*
X116000Y-263825D01*
Y-262000D01*
D02*
G37*
G36*
X122000Y-259675D02*
X121572Y-259760D01*
X120786Y-260286D01*
X120260Y-261072D01*
X120175Y-261500D01*
X122000D01*
Y-259675D01*
D02*
G37*
G36*
X116000Y-259175D02*
X115572Y-259260D01*
X114786Y-259786D01*
X114260Y-260572D01*
X114175Y-261000D01*
X116000D01*
Y-259175D01*
D02*
G37*
G36*
X123000Y-259675D02*
Y-261500D01*
X124825D01*
X124740Y-261072D01*
X124214Y-260286D01*
X123428Y-259760D01*
X123000Y-259675D01*
D02*
G37*
G36*
X130000Y-272175D02*
X129572Y-272260D01*
X128786Y-272786D01*
X128260Y-273572D01*
X128175Y-274000D01*
X130000D01*
Y-272175D01*
D02*
G37*
G36*
X132825Y-275000D02*
X131000D01*
Y-276825D01*
X131428Y-276740D01*
X132214Y-276214D01*
X132740Y-275428D01*
X132825Y-275000D01*
D02*
G37*
G36*
X131000Y-272175D02*
Y-274000D01*
X132825D01*
X132740Y-273572D01*
X132214Y-272786D01*
X131428Y-272260D01*
X131000Y-272175D01*
D02*
G37*
G36*
X124825Y-262500D02*
X123000D01*
Y-264325D01*
X123428Y-264240D01*
X124214Y-263714D01*
X124740Y-262928D01*
X124825Y-262500D01*
D02*
G37*
G36*
X122000D02*
X120175D01*
X120260Y-262928D01*
X120786Y-263714D01*
X121572Y-264240D01*
X122000Y-264325D01*
Y-262500D01*
D02*
G37*
G36*
X139650Y-237500D02*
X136000D01*
Y-241150D01*
X139650D01*
Y-237500D01*
D02*
G37*
G36*
X14500Y-197175D02*
X14072Y-197260D01*
X13286Y-197786D01*
X12760Y-198572D01*
X12675Y-199000D01*
X14500D01*
Y-197175D01*
D02*
G37*
G36*
X17325Y-200000D02*
X15500D01*
Y-201825D01*
X15928Y-201740D01*
X16714Y-201214D01*
X17240Y-200428D01*
X17325Y-200000D01*
D02*
G37*
G36*
X15500Y-197175D02*
Y-199000D01*
X17325D01*
X17240Y-198572D01*
X16714Y-197786D01*
X15928Y-197260D01*
X15500Y-197175D01*
D02*
G37*
G36*
X11825Y-195500D02*
X10000D01*
Y-197325D01*
X10428Y-197240D01*
X11214Y-196714D01*
X11740Y-195928D01*
X11825Y-195500D01*
D02*
G37*
G36*
X9000D02*
X7175D01*
X7260Y-195928D01*
X7786Y-196714D01*
X8572Y-197240D01*
X9000Y-197325D01*
Y-195500D01*
D02*
G37*
G36*
X59762Y-206000D02*
X57937D01*
Y-207825D01*
X58365Y-207740D01*
X59151Y-207214D01*
X59677Y-206428D01*
X59762Y-206000D01*
D02*
G37*
G36*
X56937D02*
X55112D01*
X55197Y-206428D01*
X55723Y-207214D01*
X56509Y-207740D01*
X56937Y-207825D01*
Y-206000D01*
D02*
G37*
G36*
Y-203175D02*
X56509Y-203260D01*
X55723Y-203786D01*
X55197Y-204572D01*
X55112Y-205000D01*
X56937D01*
Y-203175D01*
D02*
G37*
G36*
X14500Y-200000D02*
X12675D01*
X12760Y-200428D01*
X13286Y-201214D01*
X14072Y-201740D01*
X14500Y-201825D01*
Y-200000D01*
D02*
G37*
G36*
X57937Y-203175D02*
Y-205000D01*
X59762D01*
X59677Y-204572D01*
X59151Y-203786D01*
X58365Y-203260D01*
X57937Y-203175D01*
D02*
G37*
G36*
X9000Y-192675D02*
X8572Y-192760D01*
X7786Y-193286D01*
X7260Y-194072D01*
X7175Y-194500D01*
X9000D01*
Y-192675D01*
D02*
G37*
G36*
X126825Y-167500D02*
X125000D01*
Y-169325D01*
X125428Y-169240D01*
X126214Y-168714D01*
X126740Y-167928D01*
X126825Y-167500D01*
D02*
G37*
G36*
X124000D02*
X122175D01*
X122260Y-167928D01*
X122786Y-168714D01*
X123572Y-169240D01*
X124000Y-169325D01*
Y-167500D01*
D02*
G37*
G36*
Y-164675D02*
X123572Y-164760D01*
X122786Y-165286D01*
X122260Y-166072D01*
X122175Y-166500D01*
X124000D01*
Y-164675D01*
D02*
G37*
G36*
X2500Y-155000D02*
X675D01*
X760Y-155428D01*
X1286Y-156214D01*
X2072Y-156740D01*
X2500Y-156825D01*
Y-155000D01*
D02*
G37*
G36*
X125000Y-164675D02*
Y-166500D01*
X126825D01*
X126740Y-166072D01*
X126214Y-165286D01*
X125428Y-164760D01*
X125000Y-164675D01*
D02*
G37*
G36*
X44563Y-183000D02*
X42738D01*
X42823Y-183428D01*
X43349Y-184214D01*
X44135Y-184740D01*
X44563Y-184825D01*
Y-183000D01*
D02*
G37*
G36*
X10000Y-192675D02*
Y-194500D01*
X11825D01*
X11740Y-194072D01*
X11214Y-193286D01*
X10428Y-192760D01*
X10000Y-192675D01*
D02*
G37*
G36*
X47388Y-183000D02*
X45563D01*
Y-184825D01*
X45991Y-184740D01*
X46777Y-184214D01*
X47303Y-183428D01*
X47388Y-183000D01*
D02*
G37*
G36*
X45563Y-180175D02*
Y-182000D01*
X47388D01*
X47303Y-181572D01*
X46777Y-180786D01*
X45991Y-180260D01*
X45563Y-180175D01*
D02*
G37*
G36*
X44563D02*
X44135Y-180260D01*
X43349Y-180786D01*
X42823Y-181572D01*
X42738Y-182000D01*
X44563D01*
Y-180175D01*
D02*
G37*
G36*
X46000Y-206175D02*
Y-208000D01*
X47825D01*
X47740Y-207572D01*
X47214Y-206786D01*
X46428Y-206260D01*
X46000Y-206175D01*
D02*
G37*
G36*
X116000Y-230449D02*
X112941D01*
Y-234000D01*
X116000D01*
Y-230449D01*
D02*
G37*
G36*
X139650Y-232850D02*
X136000D01*
Y-236500D01*
X139650D01*
Y-232850D01*
D02*
G37*
G36*
X120059Y-230449D02*
X117000D01*
Y-234000D01*
X120059D01*
Y-230449D01*
D02*
G37*
G36*
X135500Y-223016D02*
X134469Y-223152D01*
X133508Y-223550D01*
X132683Y-224183D01*
X132050Y-225008D01*
X131652Y-225969D01*
X131516Y-227000D01*
X131652Y-228031D01*
X132050Y-228992D01*
X132683Y-229817D01*
X133508Y-230450D01*
X134469Y-230848D01*
X135500Y-230984D01*
X136531Y-230848D01*
X137492Y-230450D01*
X138317Y-229817D01*
X138950Y-228992D01*
X139348Y-228031D01*
X139484Y-227000D01*
X139348Y-225969D01*
X138950Y-225008D01*
X138317Y-224183D01*
X137492Y-223550D01*
X136531Y-223152D01*
X135500Y-223016D01*
D02*
G37*
G36*
X8500Y-223516D02*
X7469Y-223652D01*
X6508Y-224050D01*
X5683Y-224683D01*
X5050Y-225508D01*
X4652Y-226469D01*
X4516Y-227500D01*
X4652Y-228531D01*
X5050Y-229492D01*
X5683Y-230317D01*
X6508Y-230950D01*
X7469Y-231348D01*
X8500Y-231484D01*
X9531Y-231348D01*
X10492Y-230950D01*
X11317Y-230317D01*
X11950Y-229492D01*
X12348Y-228531D01*
X12484Y-227500D01*
X12348Y-226469D01*
X11950Y-225508D01*
X11317Y-224683D01*
X10492Y-224050D01*
X9531Y-223652D01*
X8500Y-223516D01*
D02*
G37*
G36*
X120059Y-235000D02*
X117000D01*
Y-238551D01*
X120059D01*
Y-235000D01*
D02*
G37*
G36*
X116000D02*
X112941D01*
Y-238551D01*
X116000D01*
Y-235000D01*
D02*
G37*
G36*
X8000Y-233350D02*
X4350D01*
Y-237000D01*
X8000D01*
Y-233350D01*
D02*
G37*
G36*
X135000Y-232850D02*
X131350D01*
Y-236500D01*
X135000D01*
Y-232850D01*
D02*
G37*
G36*
X12650Y-233350D02*
X9000D01*
Y-237000D01*
X12650D01*
Y-233350D01*
D02*
G37*
G36*
X55000Y-217000D02*
X53175D01*
X53260Y-217428D01*
X53786Y-218214D01*
X54572Y-218740D01*
X55000Y-218825D01*
Y-217000D01*
D02*
G37*
G36*
X118500Y-209175D02*
Y-211000D01*
X120325D01*
X120240Y-210572D01*
X119714Y-209786D01*
X118928Y-209260D01*
X118500Y-209175D01*
D02*
G37*
G36*
X117500D02*
X117072Y-209260D01*
X116286Y-209786D01*
X115760Y-210572D01*
X115675Y-211000D01*
X117500D01*
Y-209175D01*
D02*
G37*
G36*
X45000Y-209000D02*
X43175D01*
X43260Y-209428D01*
X43786Y-210214D01*
X44572Y-210740D01*
X45000Y-210825D01*
Y-209000D01*
D02*
G37*
G36*
Y-206175D02*
X44572Y-206260D01*
X43786Y-206786D01*
X43260Y-207572D01*
X43175Y-208000D01*
X45000D01*
Y-206175D01*
D02*
G37*
G36*
X47825Y-209000D02*
X46000D01*
Y-210825D01*
X46428Y-210740D01*
X47214Y-210214D01*
X47740Y-209428D01*
X47825Y-209000D01*
D02*
G37*
G36*
X55000Y-214175D02*
X54572Y-214260D01*
X53786Y-214786D01*
X53260Y-215572D01*
X53175Y-216000D01*
X55000D01*
Y-214175D01*
D02*
G37*
G36*
X57825Y-217000D02*
X56000D01*
Y-218825D01*
X56428Y-218740D01*
X57214Y-218214D01*
X57740Y-217428D01*
X57825Y-217000D01*
D02*
G37*
G36*
X56000Y-214175D02*
Y-216000D01*
X57825D01*
X57740Y-215572D01*
X57214Y-214786D01*
X56428Y-214260D01*
X56000Y-214175D01*
D02*
G37*
G36*
X120325Y-212000D02*
X118500D01*
Y-213825D01*
X118928Y-213740D01*
X119714Y-213214D01*
X120240Y-212428D01*
X120325Y-212000D01*
D02*
G37*
G36*
X117500D02*
X115675D01*
X115760Y-212428D01*
X116286Y-213214D01*
X117072Y-213740D01*
X117500Y-213825D01*
Y-212000D01*
D02*
G37*
%LPD*%
D19*
X123437Y-345500D02*
D03*
X115563D02*
D03*
X116500Y-234500D02*
D03*
X108626D02*
D03*
D30*
X115563Y-349437D02*
Y-345500D01*
X113000Y-352000D02*
X115563Y-349437D01*
X105000Y-436343D02*
Y-405000D01*
X109063D01*
X21000Y-507500D02*
X22000Y-506500D01*
Y-470000D01*
X10000Y-530000D02*
X17000Y-537000D01*
X20000D01*
X10000Y-530000D02*
Y-518500D01*
X21000Y-507500D01*
X107283Y-536500D02*
X117000Y-526783D01*
X106500Y-536500D02*
X107283D01*
X117000Y-526783D02*
Y-518000D01*
X116000Y-517000D02*
X117000Y-518000D01*
X116000Y-517000D02*
Y-516343D01*
X112657Y-513000D02*
X116000Y-516343D01*
X112000Y-513000D02*
X112657D01*
X110000Y-511000D02*
X112000Y-513000D01*
X111000Y-517000D02*
X112000Y-518000D01*
Y-526126D02*
Y-518000D01*
X108126Y-530000D02*
X112000Y-526126D01*
X27000Y-510071D02*
Y-463000D01*
X20071Y-517000D02*
X27000Y-510071D01*
X20728Y-522000D02*
X33000Y-509728D01*
X17929Y-517000D02*
X20071D01*
X20000Y-522000D02*
X20728D01*
X33000Y-509728D02*
Y-462000D01*
X106563Y-530000D02*
X108126D01*
X97000Y-514000D02*
X106000Y-523000D01*
X24500Y-370750D02*
Y-301500D01*
X109063Y-405000D02*
X116281Y-397781D01*
X116000Y-397500D02*
X116281Y-397781D01*
X116000Y-397500D02*
Y-355000D01*
X113000Y-352000D02*
X116000Y-355000D01*
X108000Y-398000D02*
X111563Y-394437D01*
X104000Y-391000D02*
X107563Y-387437D01*
X26500Y-376500D02*
X26571D01*
X15000Y-388000D02*
X26500Y-376500D01*
X33500Y-378500D02*
Y-282500D01*
Y-379500D02*
Y-378500D01*
X107563Y-387437D02*
Y-366563D01*
X29500Y-373500D02*
Y-289500D01*
Y-373571D02*
Y-373500D01*
X26500Y-376500D02*
X29500Y-373500D01*
X19343Y-470000D02*
X22000D01*
X12000Y-462657D02*
Y-453272D01*
X21000Y-398000D02*
X23000D01*
X27000Y-402000D01*
X21000Y-391000D02*
X23000Y-393000D01*
X16000Y-405000D02*
X21000D01*
X11000Y-400000D02*
X16000Y-405000D01*
X24000Y-393000D02*
X31000Y-400000D01*
Y-447000D02*
Y-400000D01*
X23000Y-393000D02*
X24000D01*
X17000Y-398000D02*
X21000D01*
X11000Y-400000D02*
Y-384000D01*
X110000Y-470000D02*
X112000Y-468000D01*
X112071D01*
X117364Y-462707D01*
Y-461364D01*
X119000Y-459728D01*
Y-450343D01*
X105000Y-436343D02*
X119000Y-450343D01*
X104929Y-398000D02*
X105000D01*
X100000Y-402929D02*
X104929Y-398000D01*
X100000Y-437000D02*
Y-402929D01*
X96000Y-442000D02*
X110000Y-456000D01*
X96000Y-394000D02*
X99000Y-391000D01*
X96000Y-442000D02*
Y-394000D01*
X100000Y-437000D02*
X115000Y-452000D01*
Y-458071D02*
Y-452000D01*
X110071Y-463000D02*
X115000Y-458071D01*
X110000Y-463000D02*
X110071D01*
X99000Y-391000D02*
X104000D01*
X105000Y-240000D02*
X107500Y-237500D01*
X15500Y-282500D02*
X18500Y-285500D01*
X22500D01*
X10500Y-273500D02*
X16500Y-267500D01*
X10500Y-289500D02*
Y-273500D01*
Y-289500D02*
X13500Y-292500D01*
X21500D01*
Y-278500D02*
X29500D01*
X33500Y-282500D01*
X22500Y-285500D02*
X25500D01*
X21500Y-298500D02*
Y-292500D01*
Y-298500D02*
X24500Y-301500D01*
X112500Y-297500D02*
Y-292500D01*
Y-297500D02*
X115563Y-300563D01*
Y-345500D02*
Y-300563D01*
X105500Y-356500D02*
X111563Y-362563D01*
X105500Y-356500D02*
Y-289500D01*
X109500Y-285500D01*
X113500D01*
X100500Y-359500D02*
Y-288500D01*
Y-359500D02*
X107563Y-366563D01*
X111563Y-394437D02*
Y-362563D01*
X25500Y-285500D02*
X29500Y-289500D01*
X15000Y-396000D02*
Y-388000D01*
Y-396000D02*
X17000Y-398000D01*
X105000D02*
X108000D01*
X14000Y-521000D02*
X15000Y-520000D01*
X14000Y-526000D02*
Y-521000D01*
Y-526000D02*
X18000Y-530000D01*
X20000D01*
X12000Y-462657D02*
X19343Y-470000D01*
X12000Y-453272D02*
X21000Y-444272D01*
X16000Y-454929D02*
X19929Y-451000D01*
X22000Y-456000D02*
X31000Y-447000D01*
X16000Y-461000D02*
Y-454929D01*
Y-461000D02*
X18000Y-463000D01*
X22000D01*
Y-456000D02*
X27000D01*
X22000Y-463000D02*
X27000D01*
X102000Y-456000D02*
X110000D01*
X97000Y-461000D02*
X102000Y-456000D01*
X104000Y-463000D02*
X110000D01*
X102000Y-465000D02*
X104000Y-463000D01*
X110000Y-511000D02*
Y-470000D01*
X97000Y-514000D02*
Y-461000D01*
X102000Y-511000D02*
Y-465000D01*
X15000Y-520000D02*
Y-519929D01*
X17929Y-517000D01*
X108000D02*
X111000D01*
X102000Y-511000D02*
X108000Y-517000D01*
X22524Y-147476D02*
X24500Y-145500D01*
X20867Y-147476D02*
X22524D01*
X10500Y-157843D02*
X20867Y-147476D01*
X10500Y-177500D02*
Y-157843D01*
Y-177500D02*
X16500Y-183500D01*
X21500D01*
X16500Y-171803D02*
Y-157500D01*
Y-171803D02*
X21197Y-176500D01*
X21500Y-169500D02*
X30500D01*
X36500Y-175500D01*
Y-263500D02*
Y-175500D01*
X21500Y-278500D02*
X36500Y-263500D01*
X26500Y-176500D02*
X31500Y-181500D01*
X21197Y-176500D02*
X26500D01*
X21500Y-183500D02*
X26500Y-188500D01*
X15500Y-282500D02*
Y-275500D01*
X26500Y-257197D02*
Y-188500D01*
X31500Y-260500D02*
Y-181500D01*
X107500Y-176500D02*
X108500Y-175500D01*
X88500Y-177500D02*
X95500Y-170500D01*
X96000Y-176500D02*
X107500D01*
X92500Y-180000D02*
X96000Y-176500D01*
X92500Y-251500D02*
Y-180000D01*
X113500Y-285500D02*
X115500D01*
X120500Y-280500D01*
X112500Y-292500D02*
X118500D01*
X124500Y-286500D01*
X102500Y-182500D02*
X107500D01*
X96500Y-188500D02*
X102500Y-182500D01*
X96500Y-231500D02*
Y-188500D01*
Y-231500D02*
X105000Y-240000D01*
X107500Y-182500D02*
X110563D01*
X108500Y-175500D02*
X109571D01*
X114500Y-170571D01*
X110563Y-180508D02*
X118500Y-172571D01*
Y-159843D01*
X112328Y-153672D02*
X118500Y-159843D01*
X112328Y-153672D02*
Y-150328D01*
X110563Y-182500D02*
Y-180508D01*
X111500Y-278500D02*
X114500D01*
X88500Y-257500D02*
Y-177500D01*
Y-257500D02*
X110000Y-279000D01*
X100500Y-288500D02*
X110000Y-279000D01*
X120500Y-280500D02*
Y-279500D01*
X92500Y-251500D02*
X114500Y-273500D01*
X116571D01*
X119500Y-276429D01*
Y-278500D02*
Y-276429D01*
Y-278500D02*
X120500Y-279500D01*
X105000Y-258000D02*
Y-240000D01*
Y-258000D02*
X116500Y-269500D01*
X118228D01*
X123500Y-274772D01*
Y-276500D02*
Y-274772D01*
Y-276500D02*
X124500Y-277500D01*
Y-286500D02*
Y-277500D01*
X114500Y-170571D02*
Y-161500D01*
X104500Y-151500D02*
X114500Y-161500D01*
X16500Y-157500D02*
X22524Y-151476D01*
X24181D01*
X25157Y-150500D01*
X26571D01*
X101500Y-139500D02*
X112328Y-150328D01*
X69520Y-134500D02*
X74520Y-139500D01*
X101500D01*
X72863Y-143500D02*
X96500D01*
X104500Y-151500D01*
X26571Y-150500D02*
X37500Y-139571D01*
X68934D01*
X72863Y-143500D01*
X90500Y-147500D02*
X107500Y-164500D01*
Y-170500D02*
Y-164500D01*
X36453Y-147500D02*
X90500D01*
X27476Y-156476D02*
X36453Y-147500D01*
X95500Y-170500D02*
X107500D01*
X21071Y-451000D02*
X27000Y-445071D01*
X19929Y-451000D02*
X21071D01*
X27000Y-445071D02*
Y-402000D01*
X21000Y-444272D02*
Y-444000D01*
Y-405000D01*
X11000Y-384000D02*
X24250Y-370750D01*
X15500Y-275500D02*
X19500Y-271500D01*
X20500D01*
X31500Y-260500D01*
X17348Y-266348D02*
X26500Y-257197D01*
X27000Y-456000D02*
X33000Y-462000D01*
X21000Y-391000D02*
X33500Y-378500D01*
D31*
X141732Y-598000D02*
Y0D01*
X0D02*
X141732D01*
X0Y-598000D02*
X141732D01*
X0D02*
Y0D01*
D32*
X64000Y-203245D02*
Y-205541D01*
X64459Y-206000D01*
X65377D01*
X65837Y-205541D01*
Y-203245D01*
X66755Y-206000D02*
X67673D01*
X67214D01*
Y-203245D01*
X66755Y-203704D01*
X69051Y-206459D02*
X70888D01*
X71806Y-206000D02*
Y-204163D01*
X72724Y-203245D01*
X73643Y-204163D01*
Y-206000D01*
Y-204623D01*
X71806D01*
X20755Y-114000D02*
X18459D01*
X18000Y-114459D01*
Y-115377D01*
X18459Y-115837D01*
X20755D01*
X18000Y-116755D02*
Y-117673D01*
Y-117214D01*
X20755D01*
X20296Y-116755D01*
Y-119051D02*
X20755Y-119510D01*
Y-120428D01*
X20296Y-120888D01*
X18459D01*
X18000Y-120428D01*
Y-119510D01*
X18459Y-119051D01*
X20296D01*
X18000Y-121806D02*
Y-122724D01*
Y-122265D01*
X20755D01*
X20296Y-121806D01*
X51755Y-122000D02*
X49459D01*
X49000Y-122459D01*
Y-123378D01*
X49459Y-123837D01*
X51755D01*
X49000Y-124755D02*
Y-125673D01*
Y-125214D01*
X51755D01*
X51296Y-124755D01*
Y-127051D02*
X51755Y-127510D01*
Y-128428D01*
X51296Y-128888D01*
X49459D01*
X49000Y-128428D01*
Y-127510D01*
X49459Y-127051D01*
X51296D01*
X49000Y-131643D02*
Y-129806D01*
X50837Y-131643D01*
X51296D01*
X51755Y-131183D01*
Y-130265D01*
X51296Y-129806D01*
X61000Y-315245D02*
Y-317541D01*
X61459Y-318000D01*
X62378D01*
X62837Y-317541D01*
Y-315245D01*
X63755Y-318000D02*
X64673D01*
X64214D01*
Y-315245D01*
X63755Y-315704D01*
X66051Y-318459D02*
X67888D01*
X68806Y-315245D02*
Y-318000D01*
X70183D01*
X70643Y-317541D01*
Y-317082D01*
X70183Y-316622D01*
X68806D01*
X70183D01*
X70643Y-316163D01*
Y-315704D01*
X70183Y-315245D01*
X68806D01*
D33*
X107500Y-39370D02*
D03*
X124500D02*
D03*
X91500Y-39500D02*
D03*
X75500D02*
D03*
X135500Y-557000D02*
D03*
X6500Y-558000D02*
D03*
X134500Y-488000D02*
D03*
X11500Y-34500D02*
D03*
X8500Y-227500D02*
D03*
X135500Y-227000D02*
D03*
X6500Y-338000D02*
D03*
X136000D02*
D03*
X6500Y-426063D02*
D03*
X135000D02*
D03*
X6500Y-488516D02*
D03*
D34*
X107500Y-49370D02*
D03*
X124500D02*
D03*
X91500Y-49500D02*
D03*
X75500D02*
D03*
X135500Y-567000D02*
D03*
X6500Y-568000D02*
D03*
X134500Y-498000D02*
D03*
X11500Y-44500D02*
D03*
X8500Y-237500D02*
D03*
X135500Y-237000D02*
D03*
X6500Y-348000D02*
D03*
X136000D02*
D03*
X6500Y-436063D02*
D03*
X135000D02*
D03*
X6500Y-498516D02*
D03*
D35*
X129921Y-586614D02*
D03*
X11811D02*
D03*
X129921Y-11811D02*
D03*
X11811D02*
D03*
D36*
X134000Y-91874D02*
D03*
X71000Y-77500D02*
D03*
X104500Y-74437D02*
D03*
X113000D02*
D03*
X126500Y-374000D02*
D03*
X38500Y-357500D02*
D03*
X67500D02*
D03*
X82500Y-362500D02*
D03*
X15500Y-331500D02*
D03*
X17000Y-354000D02*
D03*
X55000Y-317500D02*
D03*
X45500Y-292500D02*
D03*
X63500Y-253500D02*
D03*
X56500Y-250500D02*
D03*
X41445Y-251500D02*
D03*
X74307Y-252500D02*
D03*
X133500Y-309000D02*
D03*
X120000Y-371500D02*
D03*
X128000Y-252000D02*
D03*
X57437Y-205500D02*
D03*
X45063Y-182500D02*
D03*
X3000Y-154500D02*
D03*
X84500Y-134500D02*
D03*
X132500Y-152500D02*
D03*
X123500Y-77500D02*
D03*
X60000Y-110500D02*
D03*
X59500Y-95500D02*
D03*
X28055Y-102500D02*
D03*
X55500Y-427000D02*
D03*
X45000Y-403000D02*
D03*
X39500Y-439500D02*
D03*
X114000Y-438000D02*
D03*
X58500Y-495000D02*
D03*
X119000Y-504000D02*
D03*
X90752Y-574500D02*
D03*
X41945Y-574000D02*
D03*
X46000Y-535000D02*
D03*
X15000Y-199500D02*
D03*
X116500Y-261500D02*
D03*
X73500Y-151500D02*
D03*
X9500Y-195000D02*
D03*
X122500Y-262000D02*
D03*
X118000Y-211500D02*
D03*
X45500Y-208500D02*
D03*
X18500Y-86000D02*
D03*
X124500Y-167000D02*
D03*
X115000Y-100000D02*
D03*
X72500Y-93500D02*
D03*
X8500Y-99500D02*
D03*
X90500Y-286500D02*
D03*
X15500Y-308500D02*
D03*
X42500Y-326000D02*
D03*
X16000Y-366500D02*
D03*
X40500Y-314000D02*
D03*
X51000Y-438000D02*
D03*
X90500Y-506000D02*
D03*
X134000Y-461500D02*
D03*
X130400Y-515600D02*
D03*
X36500Y-575000D02*
D03*
X113000Y-553000D02*
D03*
X43000Y-556000D02*
D03*
X48500Y-468000D02*
D03*
X81000Y-438000D02*
D03*
X111500Y-414500D02*
D03*
X55500Y-216500D02*
D03*
X130500Y-274500D02*
D03*
X51500Y-565000D02*
D03*
X41500Y-503500D02*
D03*
X137795Y-127644D02*
D03*
D37*
X21000Y-507500D02*
D03*
X24500Y-370750D02*
D03*
X22000Y-470000D02*
D03*
X21000Y-391000D02*
D03*
Y-405000D02*
D03*
Y-398000D02*
D03*
X110000Y-470000D02*
D03*
Y-463000D02*
D03*
Y-456000D02*
D03*
X27476Y-156476D02*
D03*
X105000Y-240000D02*
D03*
X21500Y-278500D02*
D03*
X22500Y-285500D02*
D03*
X21500Y-292500D02*
D03*
X114500Y-278500D02*
D03*
X113000Y-352000D02*
D03*
X112500Y-292500D02*
D03*
X113500Y-285500D02*
D03*
X104000Y-391000D02*
D03*
X105000Y-398000D02*
D03*
Y-405000D02*
D03*
X20000Y-522000D02*
D03*
Y-530000D02*
D03*
Y-537000D02*
D03*
X22000Y-463000D02*
D03*
Y-456000D02*
D03*
X106000Y-523000D02*
D03*
X106563Y-530000D02*
D03*
X106500Y-536500D02*
D03*
X104500Y-151500D02*
D03*
X24500Y-145500D02*
D03*
X21500Y-183500D02*
D03*
Y-169500D02*
D03*
X21197Y-176500D02*
D03*
X107500Y-170500D02*
D03*
Y-176500D02*
D03*
Y-182500D02*
D03*
X69520Y-134500D02*
D03*
X21000Y-444000D02*
D03*
X17500Y-266500D02*
D03*
M02*
