G04 Layer_Color=16711935*
%FSLAX25Y25*%
%MOIN*%
G70*
G01*
G75*
%ADD31C,0.01000*%
%ADD32C,0.00591*%
%ADD53R,0.05918X0.06902*%
%ADD63C,0.07099*%
%ADD64R,0.07099X0.07099*%
%ADD65C,0.13800*%
%ADD66C,0.03556*%
%ADD67C,0.05800*%
D31*
X141732Y-598000D02*
Y0D01*
X0D02*
X141732D01*
X0Y-598000D02*
X141732D01*
X0D02*
Y0D01*
D32*
X64000Y-203245D02*
Y-205541D01*
X64459Y-206000D01*
X65377D01*
X65837Y-205541D01*
Y-203245D01*
X66755Y-206000D02*
X67673D01*
X67214D01*
Y-203245D01*
X66755Y-203704D01*
X69051Y-206459D02*
X70888D01*
X71806Y-206000D02*
Y-204163D01*
X72724Y-203245D01*
X73643Y-204163D01*
Y-206000D01*
Y-204623D01*
X71806D01*
X20755Y-114000D02*
X18459D01*
X18000Y-114459D01*
Y-115377D01*
X18459Y-115837D01*
X20755D01*
X18000Y-116755D02*
Y-117673D01*
Y-117214D01*
X20755D01*
X20296Y-116755D01*
Y-119051D02*
X20755Y-119510D01*
Y-120428D01*
X20296Y-120888D01*
X18459D01*
X18000Y-120428D01*
Y-119510D01*
X18459Y-119051D01*
X20296D01*
X18000Y-121806D02*
Y-122724D01*
Y-122265D01*
X20755D01*
X20296Y-121806D01*
X51755Y-122000D02*
X49459D01*
X49000Y-122459D01*
Y-123378D01*
X49459Y-123837D01*
X51755D01*
X49000Y-124755D02*
Y-125673D01*
Y-125214D01*
X51755D01*
X51296Y-124755D01*
Y-127051D02*
X51755Y-127510D01*
Y-128428D01*
X51296Y-128888D01*
X49459D01*
X49000Y-128428D01*
Y-127510D01*
X49459Y-127051D01*
X51296D01*
X49000Y-131643D02*
Y-129806D01*
X50837Y-131643D01*
X51296D01*
X51755Y-131183D01*
Y-130265D01*
X51296Y-129806D01*
X61000Y-315245D02*
Y-317541D01*
X61459Y-318000D01*
X62378D01*
X62837Y-317541D01*
Y-315245D01*
X63755Y-318000D02*
X64673D01*
X64214D01*
Y-315245D01*
X63755Y-315704D01*
X66051Y-318459D02*
X67888D01*
X68806Y-315245D02*
Y-318000D01*
X70183D01*
X70643Y-317541D01*
Y-317082D01*
X70183Y-316622D01*
X68806D01*
X70183D01*
X70643Y-316163D01*
Y-315704D01*
X70183Y-315245D01*
X68806D01*
D53*
X123437Y-345500D02*
D03*
X115563D02*
D03*
X116500Y-234500D02*
D03*
X108626D02*
D03*
D63*
X107500Y-39370D02*
D03*
X124500D02*
D03*
X91500Y-39500D02*
D03*
X75500D02*
D03*
X135500Y-557000D02*
D03*
X6500Y-558000D02*
D03*
X134500Y-488000D02*
D03*
X11500Y-34500D02*
D03*
X8500Y-227500D02*
D03*
X135500Y-227000D02*
D03*
X6500Y-338000D02*
D03*
X136000D02*
D03*
X6500Y-426063D02*
D03*
X135000D02*
D03*
X6500Y-488516D02*
D03*
D64*
X107500Y-49370D02*
D03*
X124500D02*
D03*
X91500Y-49500D02*
D03*
X75500D02*
D03*
X135500Y-567000D02*
D03*
X6500Y-568000D02*
D03*
X134500Y-498000D02*
D03*
X11500Y-44500D02*
D03*
X8500Y-237500D02*
D03*
X135500Y-237000D02*
D03*
X6500Y-348000D02*
D03*
X136000D02*
D03*
X6500Y-436063D02*
D03*
X135000D02*
D03*
X6500Y-498516D02*
D03*
D65*
X129921Y-586614D02*
D03*
X11811D02*
D03*
X129921Y-11811D02*
D03*
X11811D02*
D03*
D66*
X134000Y-91874D02*
D03*
X71000Y-77500D02*
D03*
X104500Y-74437D02*
D03*
X113000D02*
D03*
X126500Y-374000D02*
D03*
X38500Y-357500D02*
D03*
X67500D02*
D03*
X82500Y-362500D02*
D03*
X15500Y-331500D02*
D03*
X17000Y-354000D02*
D03*
X55000Y-317500D02*
D03*
X45500Y-292500D02*
D03*
X63500Y-253500D02*
D03*
X56500Y-250500D02*
D03*
X41445Y-251500D02*
D03*
X74307Y-252500D02*
D03*
X133500Y-309000D02*
D03*
X120000Y-371500D02*
D03*
X128000Y-252000D02*
D03*
X57437Y-205500D02*
D03*
X45063Y-182500D02*
D03*
X3000Y-154500D02*
D03*
X84500Y-134500D02*
D03*
X132500Y-152500D02*
D03*
X123500Y-77500D02*
D03*
X60000Y-110500D02*
D03*
X59500Y-95500D02*
D03*
X28055Y-102500D02*
D03*
X55500Y-427000D02*
D03*
X45000Y-403000D02*
D03*
X39500Y-439500D02*
D03*
X114000Y-438000D02*
D03*
X58500Y-495000D02*
D03*
X119000Y-504000D02*
D03*
X90752Y-574500D02*
D03*
X41945Y-574000D02*
D03*
X46000Y-535000D02*
D03*
X15000Y-199500D02*
D03*
X116500Y-261500D02*
D03*
X73500Y-151500D02*
D03*
X9500Y-195000D02*
D03*
X122500Y-262000D02*
D03*
X118000Y-211500D02*
D03*
X45500Y-208500D02*
D03*
X18500Y-86000D02*
D03*
X124500Y-167000D02*
D03*
X115000Y-100000D02*
D03*
X72500Y-93500D02*
D03*
X8500Y-99500D02*
D03*
X90500Y-286500D02*
D03*
X15500Y-308500D02*
D03*
X42500Y-326000D02*
D03*
X16000Y-366500D02*
D03*
X40500Y-314000D02*
D03*
X51000Y-438000D02*
D03*
X90500Y-506000D02*
D03*
X134000Y-461500D02*
D03*
X130400Y-515600D02*
D03*
X36500Y-575000D02*
D03*
X113000Y-553000D02*
D03*
X43000Y-556000D02*
D03*
X48500Y-468000D02*
D03*
X81000Y-438000D02*
D03*
X111500Y-414500D02*
D03*
X55500Y-216500D02*
D03*
X130500Y-274500D02*
D03*
X51500Y-565000D02*
D03*
X41500Y-503500D02*
D03*
X137795Y-127644D02*
D03*
D67*
X21000Y-507500D02*
D03*
X24500Y-370750D02*
D03*
X22000Y-470000D02*
D03*
X21000Y-391000D02*
D03*
Y-405000D02*
D03*
Y-398000D02*
D03*
X110000Y-470000D02*
D03*
Y-463000D02*
D03*
Y-456000D02*
D03*
X27476Y-156476D02*
D03*
X105000Y-240000D02*
D03*
X21500Y-278500D02*
D03*
X22500Y-285500D02*
D03*
X21500Y-292500D02*
D03*
X114500Y-278500D02*
D03*
X113000Y-352000D02*
D03*
X112500Y-292500D02*
D03*
X113500Y-285500D02*
D03*
X104000Y-391000D02*
D03*
X105000Y-398000D02*
D03*
Y-405000D02*
D03*
X20000Y-522000D02*
D03*
Y-530000D02*
D03*
Y-537000D02*
D03*
X22000Y-463000D02*
D03*
Y-456000D02*
D03*
X106000Y-523000D02*
D03*
X106563Y-530000D02*
D03*
X106500Y-536500D02*
D03*
X104500Y-151500D02*
D03*
X24500Y-145500D02*
D03*
X21500Y-183500D02*
D03*
Y-169500D02*
D03*
X21197Y-176500D02*
D03*
X107500Y-170500D02*
D03*
Y-176500D02*
D03*
Y-182500D02*
D03*
X69520Y-134500D02*
D03*
X21000Y-444000D02*
D03*
X17500Y-266500D02*
D03*
M02*
