G04*
G04 #@! TF.GenerationSoftware,Altium Limited,Altium Designer,21.7.1 (17)*
G04*
G04 Layer_Color=16711935*
%FSLAX25Y25*%
%MOIN*%
G70*
G04*
G04 #@! TF.SameCoordinates,7C3BC35F-E18A-483C-85EC-813A21A3F68C*
G04*
G04*
G04 #@! TF.FilePolarity,Negative*
G04*
G01*
G75*
%ADD11C,0.01968*%
%ADD14C,0.06706*%
%ADD15R,0.06706X0.06706*%
%ADD16C,0.02572*%
%ADD17C,0.03556*%
%ADD18C,0.05800*%
%ADD28O,0.01902X0.08674*%
D11*
X-39500Y63000D02*
X218500Y63000D01*
X-39500Y63000D02*
X-39500Y-188500D01*
X218500D01*
X218500Y63000D02*
X218500Y-188500D01*
D14*
X72000Y-14500D02*
D03*
Y-43000D02*
D03*
X86654Y-77500D02*
D03*
X115000D02*
D03*
X136047Y-27000D02*
D03*
X109500Y43500D02*
D03*
X-27224Y44000D02*
D03*
Y-27205D02*
D03*
X-2165Y44000D02*
D03*
Y-27205D02*
D03*
X136047Y43500D02*
D03*
X23000Y44000D02*
D03*
Y-27205D02*
D03*
X164000Y43500D02*
D03*
X48000Y44000D02*
D03*
X-27224Y-57500D02*
D03*
X191000Y43500D02*
D03*
X73500Y44000D02*
D03*
X-2165Y-57500D02*
D03*
X109500Y-27000D02*
D03*
X23000Y-57500D02*
D03*
X48000D02*
D03*
X164000Y-27000D02*
D03*
X191000D02*
D03*
X141929Y-77362D02*
D03*
X-27224Y-98500D02*
D03*
X169291Y-77500D02*
D03*
X-2161Y-98500D02*
D03*
X196000Y-77500D02*
D03*
X23000Y-98500D02*
D03*
X48000D02*
D03*
X129500Y-171000D02*
D03*
X-27224Y-168500D02*
D03*
X-2161D02*
D03*
X23000D02*
D03*
X48000D02*
D03*
D15*
X82000Y-14500D02*
D03*
Y-43000D02*
D03*
X96653Y-77500D02*
D03*
X125000D02*
D03*
X146047Y-27000D02*
D03*
X119500Y43500D02*
D03*
X-17224Y44000D02*
D03*
Y-27205D02*
D03*
X7835Y44000D02*
D03*
Y-27205D02*
D03*
X146047Y43500D02*
D03*
X33000Y44000D02*
D03*
Y-27205D02*
D03*
X174000Y43500D02*
D03*
X58000Y44000D02*
D03*
X-17224Y-57500D02*
D03*
X201000Y43500D02*
D03*
X83500Y44000D02*
D03*
X7835Y-57500D02*
D03*
X119500Y-27000D02*
D03*
X33000Y-57500D02*
D03*
X58000D02*
D03*
X174000Y-27000D02*
D03*
X201000D02*
D03*
X151929Y-77362D02*
D03*
X-17224Y-98500D02*
D03*
X179291Y-77500D02*
D03*
X7839Y-98500D02*
D03*
X206000Y-77500D02*
D03*
X33000Y-98500D02*
D03*
X58000D02*
D03*
X139500Y-171000D02*
D03*
X-17224Y-168500D02*
D03*
X7839D02*
D03*
X33000D02*
D03*
X58000D02*
D03*
D16*
X26900Y-117800D02*
D03*
X127200Y-6600D02*
D03*
X140200Y6600D02*
D03*
X48000Y-8243D02*
D03*
X-5100Y19600D02*
D03*
X55931Y17516D02*
D03*
X29492Y24501D02*
D03*
X34000Y-131900D02*
D03*
X17681Y-9000D02*
D03*
X65000Y-7500D02*
D03*
X113000Y-8000D02*
D03*
X100332Y-8243D02*
D03*
X100500Y24501D02*
D03*
X30000Y-150000D02*
D03*
X-7000Y-137992D02*
D03*
X42000Y10567D02*
D03*
X49500Y9000D02*
D03*
X137433Y-10500D02*
D03*
X139500Y-7500D02*
D03*
X131791D02*
D03*
X156500Y3500D02*
D03*
X155000Y9000D02*
D03*
X147638Y-7500D02*
D03*
X143500D02*
D03*
X134000Y-10000D02*
D03*
X1933Y24000D02*
D03*
X6500Y25500D02*
D03*
X10005Y24501D02*
D03*
X13744Y-8000D02*
D03*
X55931Y11812D02*
D03*
D17*
X19685Y-110584D02*
D03*
X27900Y-108200D02*
D03*
X23587Y27922D02*
D03*
X43500Y-112078D02*
D03*
X37486Y-112584D02*
D03*
X59500Y-154000D02*
D03*
X13965Y-152000D02*
D03*
Y-156465D02*
D03*
X123500Y29000D02*
D03*
X143500Y28500D02*
D03*
X163500Y33422D02*
D03*
X139500Y26000D02*
D03*
X128000D02*
D03*
X171000Y32422D02*
D03*
X-16000Y-14500D02*
D03*
X-11000Y-14000D02*
D03*
X33000Y34968D02*
D03*
X39052Y31878D02*
D03*
X13288Y-15712D02*
D03*
X15878Y-19122D02*
D03*
D18*
X87217Y-110584D02*
D03*
X204000Y2000D02*
D03*
X187000Y-65500D02*
D03*
X197000Y-52500D02*
D03*
X157500Y-107000D02*
D03*
X215500Y-145500D02*
D03*
X179291Y-164000D02*
D03*
X80000Y-162000D02*
D03*
X196000Y-109000D02*
D03*
X111500D02*
D03*
X-31000Y-116000D02*
D03*
X2500Y-76500D02*
D03*
X69500Y-77500D02*
D03*
X158500Y-50500D02*
D03*
X93000Y-27500D02*
D03*
X97000Y38500D02*
D03*
X65000Y29000D02*
D03*
X53000Y-20500D02*
D03*
X186000Y11000D02*
D03*
X112000Y-48500D02*
D03*
D28*
X100394Y-124409D02*
D03*
X102362D02*
D03*
X104331D02*
D03*
X106299D02*
D03*
X108268D02*
D03*
X110236D02*
D03*
X112205D02*
D03*
X114173D02*
D03*
X116142D02*
D03*
X118110D02*
D03*
X120079D02*
D03*
X122047D02*
D03*
X124016D02*
D03*
X125984D02*
D03*
X127953D02*
D03*
X129921D02*
D03*
X131890D02*
D03*
X133858D02*
D03*
X135827D02*
D03*
X137795D02*
D03*
X139764D02*
D03*
X141732D02*
D03*
X143701D02*
D03*
X145669D02*
D03*
X147638D02*
D03*
X100394Y-141732D02*
D03*
X102362D02*
D03*
X104331D02*
D03*
X106299D02*
D03*
X108268D02*
D03*
X110236D02*
D03*
X112205D02*
D03*
X114173D02*
D03*
X116142D02*
D03*
X118110D02*
D03*
X120079D02*
D03*
X122047D02*
D03*
X124016D02*
D03*
X125984D02*
D03*
X127953D02*
D03*
X129921D02*
D03*
X131890D02*
D03*
X133858D02*
D03*
X135827D02*
D03*
X137795D02*
D03*
X139764D02*
D03*
X141732D02*
D03*
X143701D02*
D03*
X145669D02*
D03*
X147638D02*
D03*
X15748Y-124409D02*
D03*
X17717D02*
D03*
X19685D02*
D03*
X21654D02*
D03*
X23622D02*
D03*
X25591D02*
D03*
X27559D02*
D03*
X29528D02*
D03*
X31496D02*
D03*
X33465D02*
D03*
X35433D02*
D03*
X37402D02*
D03*
X39370D02*
D03*
X41339D02*
D03*
X43307D02*
D03*
X45276D02*
D03*
X47244D02*
D03*
X49213D02*
D03*
X51181D02*
D03*
X53150D02*
D03*
X55118D02*
D03*
X57087D02*
D03*
X59055D02*
D03*
X61024D02*
D03*
X62992D02*
D03*
X15748Y-141732D02*
D03*
X17717D02*
D03*
X19685D02*
D03*
X21654D02*
D03*
X23622D02*
D03*
X25591D02*
D03*
X27559D02*
D03*
X29528D02*
D03*
X31496D02*
D03*
X33465D02*
D03*
X35433D02*
D03*
X37402D02*
D03*
X39370D02*
D03*
X41339D02*
D03*
X43307D02*
D03*
X45276D02*
D03*
X47244D02*
D03*
X49213D02*
D03*
X51181D02*
D03*
X53150D02*
D03*
X55118D02*
D03*
X57087D02*
D03*
X59055D02*
D03*
X61024D02*
D03*
X62992D02*
D03*
X100394Y17323D02*
D03*
X102362D02*
D03*
X104331D02*
D03*
X106299D02*
D03*
X108268D02*
D03*
X110236D02*
D03*
X112205D02*
D03*
X114173D02*
D03*
X116142D02*
D03*
X118110D02*
D03*
X120079D02*
D03*
X122047D02*
D03*
X124016D02*
D03*
X125984D02*
D03*
X127953D02*
D03*
X129921D02*
D03*
X131890D02*
D03*
X133858D02*
D03*
X135827D02*
D03*
X137795D02*
D03*
X139764D02*
D03*
X141732D02*
D03*
X143701D02*
D03*
X145669D02*
D03*
X147638D02*
D03*
X100394Y0D02*
D03*
X102362D02*
D03*
X104331D02*
D03*
X106299D02*
D03*
X108268D02*
D03*
X110236D02*
D03*
X112205D02*
D03*
X114173D02*
D03*
X116142D02*
D03*
X118110D02*
D03*
X120079D02*
D03*
X122047D02*
D03*
X124016D02*
D03*
X125984D02*
D03*
X127953D02*
D03*
X129921D02*
D03*
X131890D02*
D03*
X133858D02*
D03*
X135827D02*
D03*
X137795D02*
D03*
X139764D02*
D03*
X141732D02*
D03*
X143701D02*
D03*
X145669D02*
D03*
X147638D02*
D03*
X-35Y17516D02*
D03*
X1933D02*
D03*
X3902D02*
D03*
X5870D02*
D03*
X7839D02*
D03*
X9807D02*
D03*
X11776D02*
D03*
X13744D02*
D03*
X15713D02*
D03*
X17681D02*
D03*
X19650D02*
D03*
X21618D02*
D03*
X23587D02*
D03*
X25555D02*
D03*
X27524D02*
D03*
X29492D02*
D03*
X31461D02*
D03*
X33429D02*
D03*
X35398D02*
D03*
X37366D02*
D03*
X39335D02*
D03*
X41303D02*
D03*
X43272D02*
D03*
X45240D02*
D03*
X47209D02*
D03*
X-35Y193D02*
D03*
X1933D02*
D03*
X3902D02*
D03*
X5870D02*
D03*
X7839D02*
D03*
X9807D02*
D03*
X11776D02*
D03*
X13744D02*
D03*
X15713D02*
D03*
X17681D02*
D03*
X19650D02*
D03*
X21618D02*
D03*
X23587D02*
D03*
X25555D02*
D03*
X27524D02*
D03*
X29492D02*
D03*
X31461D02*
D03*
X33429D02*
D03*
X35398D02*
D03*
X37366D02*
D03*
X39335D02*
D03*
X41303D02*
D03*
X43272D02*
D03*
X45240D02*
D03*
X47209D02*
D03*
M02*
