G04*
G04 #@! TF.GenerationSoftware,Altium Limited,Altium Designer,21.7.1 (17)*
G04*
G04 Layer_Color=128*
%FSLAX25Y25*%
%MOIN*%
G70*
G04*
G04 #@! TF.SameCoordinates,7C3BC35F-E18A-483C-85EC-813A21A3F68C*
G04*
G04*
G04 #@! TF.FilePolarity,Positive*
G04*
G01*
G75*
%ADD11C,0.01968*%
%ADD27O,0.01102X0.07874*%
D11*
X-39500Y63000D02*
X218500Y63000D01*
X-39500Y63000D02*
X-39500Y-188500D01*
X218500D01*
X218500Y63000D02*
X218500Y-188500D01*
D27*
X100394Y-124409D02*
D03*
X102362D02*
D03*
X104331D02*
D03*
X106299D02*
D03*
X108268D02*
D03*
X110236D02*
D03*
X112205D02*
D03*
X114173D02*
D03*
X116142D02*
D03*
X118110D02*
D03*
X120079D02*
D03*
X122047D02*
D03*
X124016D02*
D03*
X125984D02*
D03*
X127953D02*
D03*
X129921D02*
D03*
X131890D02*
D03*
X133858D02*
D03*
X135827D02*
D03*
X137795D02*
D03*
X139764D02*
D03*
X141732D02*
D03*
X143701D02*
D03*
X145669D02*
D03*
X147638D02*
D03*
X100394Y-141732D02*
D03*
X102362D02*
D03*
X104331D02*
D03*
X106299D02*
D03*
X108268D02*
D03*
X110236D02*
D03*
X112205D02*
D03*
X114173D02*
D03*
X116142D02*
D03*
X118110D02*
D03*
X120079D02*
D03*
X122047D02*
D03*
X124016D02*
D03*
X125984D02*
D03*
X127953D02*
D03*
X129921D02*
D03*
X131890D02*
D03*
X133858D02*
D03*
X135827D02*
D03*
X137795D02*
D03*
X139764D02*
D03*
X141732D02*
D03*
X143701D02*
D03*
X145669D02*
D03*
X147638D02*
D03*
X15748Y-124409D02*
D03*
X17717D02*
D03*
X19685D02*
D03*
X21654D02*
D03*
X23622D02*
D03*
X25591D02*
D03*
X27559D02*
D03*
X29528D02*
D03*
X31496D02*
D03*
X33465D02*
D03*
X35433D02*
D03*
X37402D02*
D03*
X39370D02*
D03*
X41339D02*
D03*
X43307D02*
D03*
X45276D02*
D03*
X47244D02*
D03*
X49213D02*
D03*
X51181D02*
D03*
X53150D02*
D03*
X55118D02*
D03*
X57087D02*
D03*
X59055D02*
D03*
X61024D02*
D03*
X62992D02*
D03*
X15748Y-141732D02*
D03*
X17717D02*
D03*
X19685D02*
D03*
X21654D02*
D03*
X23622D02*
D03*
X25591D02*
D03*
X27559D02*
D03*
X29528D02*
D03*
X31496D02*
D03*
X33465D02*
D03*
X35433D02*
D03*
X37402D02*
D03*
X39370D02*
D03*
X41339D02*
D03*
X43307D02*
D03*
X45276D02*
D03*
X47244D02*
D03*
X49213D02*
D03*
X51181D02*
D03*
X53150D02*
D03*
X55118D02*
D03*
X57087D02*
D03*
X59055D02*
D03*
X61024D02*
D03*
X62992D02*
D03*
X100394Y17323D02*
D03*
X102362D02*
D03*
X104331D02*
D03*
X106299D02*
D03*
X108268D02*
D03*
X110236D02*
D03*
X112205D02*
D03*
X114173D02*
D03*
X116142D02*
D03*
X118110D02*
D03*
X120079D02*
D03*
X122047D02*
D03*
X124016D02*
D03*
X125984D02*
D03*
X127953D02*
D03*
X129921D02*
D03*
X131890D02*
D03*
X133858D02*
D03*
X135827D02*
D03*
X137795D02*
D03*
X139764D02*
D03*
X141732D02*
D03*
X143701D02*
D03*
X145669D02*
D03*
X147638D02*
D03*
X100394Y0D02*
D03*
X102362D02*
D03*
X104331D02*
D03*
X106299D02*
D03*
X108268D02*
D03*
X110236D02*
D03*
X112205D02*
D03*
X114173D02*
D03*
X116142D02*
D03*
X118110D02*
D03*
X120079D02*
D03*
X122047D02*
D03*
X124016D02*
D03*
X125984D02*
D03*
X127953D02*
D03*
X129921D02*
D03*
X131890D02*
D03*
X133858D02*
D03*
X135827D02*
D03*
X137795D02*
D03*
X139764D02*
D03*
X141732D02*
D03*
X143701D02*
D03*
X145669D02*
D03*
X147638D02*
D03*
X-35Y17516D02*
D03*
X1933D02*
D03*
X3902D02*
D03*
X5870D02*
D03*
X7839D02*
D03*
X9807D02*
D03*
X11776D02*
D03*
X13744D02*
D03*
X15713D02*
D03*
X17681D02*
D03*
X19650D02*
D03*
X21618D02*
D03*
X23587D02*
D03*
X25555D02*
D03*
X27524D02*
D03*
X29492D02*
D03*
X31461D02*
D03*
X33429D02*
D03*
X35398D02*
D03*
X37366D02*
D03*
X39335D02*
D03*
X41303D02*
D03*
X43272D02*
D03*
X45240D02*
D03*
X47209D02*
D03*
X-35Y193D02*
D03*
X1933D02*
D03*
X3902D02*
D03*
X5870D02*
D03*
X7839D02*
D03*
X9807D02*
D03*
X11776D02*
D03*
X13744D02*
D03*
X15713D02*
D03*
X17681D02*
D03*
X19650D02*
D03*
X21618D02*
D03*
X23587D02*
D03*
X25555D02*
D03*
X27524D02*
D03*
X29492D02*
D03*
X31461D02*
D03*
X33429D02*
D03*
X35398D02*
D03*
X37366D02*
D03*
X39335D02*
D03*
X41303D02*
D03*
X43272D02*
D03*
X45240D02*
D03*
X47209D02*
D03*
M02*
