M48
;Layer_Color=9474304
;FILE_FORMAT=2:5
INCH,LZ
;TYPE=PLATED
T1F00S00C0.00787
T2F00S00C0.01181
T3F00S00C0.01968
T4F00S00C0.02800
T5F00S00C0.04331
;TYPE=NON_PLATED
T6F00S00C0.13800
%
T01
X0079441Y-0529677
Y-0524559
Y-0519441
Y-0514323
X0084559
Y-0519441
Y-0524559
Y-0529677
X0085559Y-0418677
Y-0413559
Y-0408441
Y-0403323
X0080441
Y-0408441
Y-0413559
Y-0418677
X0077878Y-0306236
Y-0301118
Y-0296
Y-0290882
X007276
Y-0296
Y-0301118
Y-0306236
X0079441Y-0194677
Y-0189559
X0084559
Y-0194677
Y-0184441
Y-0179323
X0079441
Y-0184441
T02
X0097Y-0199
X00845Y-017
X0059Y-0144
X0055Y-0133
T03
X0031Y-0535405
X0042063Y-0533
X0048Y-0521
X0066Y-0531
X0062382Y-0536
X0102
X0101Y-0528
X0121063Y-0519063
X011861Y-0503
X0131Y-0488
X0105Y-0479
X0091252Y-0482
X0091Y-0496
X0088563Y-0504
X0073Y-0503
X0077Y-0488
X006Y-0483
Y-0472433
X005365Y-0471
X0073Y-0468
X0053Y-0493
X0032Y-0487063
Y-0483
X0023
X0019Y-0509
X0133Y-0533
X0136437Y-0433
X0125Y-0419
X0099Y-0418
X0091252Y-0425
X0067Y-0419937
X0059Y-0425
X0044Y-0421
X003Y-0423
X0051Y-0407
X0053Y-0377
X0061Y-0368
X0062382Y-0357
X0055063Y-0359
X0048
X0032Y-037026
X0031Y-0374
X0079Y-0375
X0075Y-039
X0086Y-0393
X0092Y-0385
X0096Y-0371
X007574Y-0355
X0061937Y-0309906
X0052Y-0313
X0041445Y-031
X0032Y-0311
X0041445Y-0295
X0092Y-0307
X0099Y-0311
X012Y-0304559
X0134Y-031
X0129921Y-0376
X0122Y-0382
X0123Y-0286
X0119Y-0266
X01Y-0258
X0093319Y-0273
X0082Y-0279
X0075Y-0265
X0062Y-0259
X0057Y-0258
X0062Y-0249173
X0054063Y-0245
X0073Y-0244
X0051Y-0268
X0031Y-026
X003189Y-025526
X0018Y-0262
X0031Y-02
X0045Y-0198
X0057437Y-0196
X0066Y-0198
X0048Y-0183
X0052Y-0152
X0032Y-0153
X003Y-0148
X0048Y-0135
X0073Y-013
X0077Y-014926
X0082Y-0159
X0091Y-0161
X0091252Y-0143
X0103Y-0141
X0132Y-014
X0128Y-0147
X0128563Y-0156
X0114Y-0161
X0116Y-0192968
X0131Y-0199
X0076Y-017
X0016Y-0149
X0007Y-0123
X0003Y-0092
X00085Y-0037
X0028055Y-004
X00185Y-00235
X00595Y-0033
X00725Y-0031
X006Y-0048
X00845Y-0072
X00735Y-0089
X0038Y-009
X01325
X0137795Y-0065144
X01295Y-0018
X0118Y-00145
Y-00235
T04
X0019Y-0478
X0122Y-048326
X0107Y-0392
X0118Y-0367
X002Y-0368
X0028Y-035
X0021Y-0257
X003Y-0238
X0021Y-0143
X0116Y-014
X0119Y-0255
X0101Y-0283
X0119Y-0092
X00245Y-0083
X003Y-0127
T05
X0023937Y-0455
X0033937
Y-0444
X0023937
X0053
X0063
Y-0455
X0053
X0089Y-0454
X0099
Y-0465
X0089
X0117
X0127
Y-0454
X0117
X0132Y-0504
Y-0514
X0008Y-0508
Y-0498
Y-0483
Y-0473
Y-0523
Y-0533
X0009Y-0421
Y-0411
Y-0396
Y-0386
Y-0371
Y-0361
Y-0309
Y-0299
X0023937Y-0332
X0033937
Y-0343
X0023937
X0055
X0065
X0065063Y-0332
X0055063
X00905Y-0342
X01005
Y-0353
X00905
X0116
X0126
Y-0342
X0116
X01325Y-0393
Y-0403
X0133Y-0285874
Y-0275874
X0127Y-0241
X0117
Y-0229
X0127
X01
X009
Y-0241
X01
X0065Y-0231
X0055
Y-022
X0065
X0034Y-0219
X0024
Y-023
X0034
X01325Y-018
Y-017
X0009Y-0172
Y-0162
Y-0147
Y-0137
Y-0186937
Y-0196937
Y-0249
Y-0259
Y-0274
Y-0284
X0025Y-0119
X0035
Y-0107
X0025
X00565Y-0108
X00665
Y-0119
X00565
X009Y-0117
X01
Y-0129
X009
X0115
X0125
Y-0117
X0115
X00765Y-00075
X00665
T06
X0011811Y-0011811
X0129921
M30
