M48
;Layer_Color=9474304
;FILE_FORMAT=2:5
INCH,LZ
;TYPE=PLATED
T1F00S00C0.01181
T2F00S00C0.01968
T3F00S00C0.02800
T4F00S00C0.03937
T5F00S00C0.04331
;TYPE=NON_PLATED
T6F00S00C0.13800
%
T01
X0062575Y-0133
T02
X0029575Y-0563
X0037575
Y-0553406
X0048638Y-0551
X0049445Y-0563
X00635Y-0564
X0062638Y-0558
X0068957Y-0554
X00745Y-05565
X00765Y-0563
X00925
X01125Y-0564
X01105Y-0558
X01265Y-0563
X0108Y-05355
X0090748Y-0521
X00925Y-05145
X0083575Y-0506
X0079575Y-0521
X00765Y-05295
X0054575Y-0539
X0038949Y-05325
X0030512Y-0532
X0029575Y-0501
X0038575
Y-0505063
X0059575Y-0511
X0066575Y-0501
Y-0490433
X0060224Y-0489
X0079575Y-0486
X00785Y-04665
X0097Y-0443
X0123575
X0143012Y-0451
X0137575Y-0506
X01305Y-05145
X01265Y-0495
X0055075Y-0443
X0008Y-0473
X0011Y-0354
X00065Y-0336
X0011Y-0300126
X004Y-02995
X004826Y-0301
Y-0316
X0038815Y-0317
X0060075Y-0321
X0069752Y-0324
X0068752Y-0315906
X0082555Y-0322
X0099075Y-0319
X0109815Y-0313
X0115067Y-0322
X0133075Y-0313
X0140815Y-0316
X0130226Y-0292411
X0063815Y-0297059
X0062138Y-0372
X0055075
X0069Y-03695
X0068075Y-0381
X0060075Y-039
X0038Y-03875
X0039075Y-038326
X00331Y-0384675
X0041012Y-0416
X0058075Y-042
X0051075Y-0434
X00465Y-04415
X0037075Y-0436
X0066075Y-0438
X0075595
X00745Y-0411
X0081748Y-0403
X0094Y-0404
X0095575Y-03965
X00885Y-0396437
X0086075Y-0388
X0093Y-03815
X0082815Y-0368
X0129Y-0378
X01395Y-039074
X01385Y-0438
X0115575Y-04355
X0089386Y-0286
X0091386Y-02785
X0082815Y-0281
X0081815Y-0271
X0068815Y-0265
X0063815Y-0264
X0068815Y-0255173
X0060878Y-0251
X0078815
X00815Y-02315
Y-0216
X0085Y-0204
X0069752
X0065012Y-0196
X0075075
X0052575Y-0198
X0056752Y-0202969
X0038575Y-02
X0046Y-0182
X0055575Y-0183
X0061575Y-0151
X0055575Y-0135
X0069957Y-013
X0080575
X0084575Y-014926
X0093Y-01445
X0094488Y-0158874
X00885
X0086Y-01645
X0083575Y-017
X0095512Y-0165819
X0109327Y-0195563
X0106815Y-0202969
X01415Y-0206
X0133815Y-0222
X01245Y-02595
X01375Y-0271
X0057815Y-0274
X0046Y-0277
X0037815Y-0266
X0038705Y-026126
X0038575Y-0153
X0037575Y-0148
X0144Y-0153
X0023575Y-0149
X00055Y-02175
X00075Y-0237
X00085Y-02695
X0024075Y-02695
X0014575Y-0123
X0008795Y-01145
X00075Y-0091
X0008795Y-007874
X0003937Y-0062992
X0031496Y-0064
X0036012Y-0074803
X00305Y-00835
X0057713Y-0086
X0071Y-00885
X0073Y-00815
X00685Y-00605
X0071Y-00455
X0099575Y-0047
X0104575Y-0057
X0099508Y-00625
X0113Y-00755
X0122764Y-0074803
X0137795Y-0067
X0129921Y-0053189
X01365Y-00375
X0115575Y-0043307
X0125575Y-00145
X0058158Y-0022689
Y-0006
X00385
X0027756Y-0023
X00825Y-0113
T03
X0025575Y-0496
X0131357Y-0524582
X0123575Y-05325
X01215Y-0416
X0132Y-0404
X0119815Y-0297059
X0035075Y-0363
X0025Y-03795
X0027815Y-0263
X0036815Y-0244
X0028575Y-0143
X0065012Y-01445
X0120075Y-0182
X0133815Y-017
X0129815Y-0281
X0037575Y-0127
X0046Y-0091
T04
X0132Y-0551063
Y-0541063
X0014575Y-0551
Y-0561
Y-0531
Y-0521
X00145Y-0502
Y-0492
X0016075Y-04395
Y-04295
Y-0412
Y-0402
X0015075Y-03845
Y-03745
X0015575Y-0321
Y-0311
Y-02925
X0136496Y-0292059
Y-0302059
X0135Y-0418
Y-0428
X0135575Y-0195
Y-0185
X0014575Y-0192969
Y-0202969
Y-0175819
Y-0165819
Y-0149
Y-0139
X0015575Y-0255173
Y-0265173
Y-02825
X0079075Y-0035059
X0089075
T05
X0030512Y-0473
X0040512
Y-0462
X0030512
X0054575
X0064575
Y-0473
X0054575
X0095575Y-0472
X0105575
Y-0483
X0095575
X0123575
X0133575
Y-0472
X0123575
X0123075Y-0366
X0133075
Y-0355
X0123075
X0107575
X0097575
Y-0366
X0107575
X0065575Y-0356
X0055575
X0055638Y-0345
X0065638
X0041012
X0031012
Y-0356
X0041012
X0040815Y-0236
X0030815
Y-0225
X0040815
X0056055Y-02255
X0066055
Y-02365
X0056055
X0096815Y-0235
X0106815
Y-0247
X0096815
X0123815
X0133815
Y-0235
X0123815
X0122575Y-0129
X0132575
Y-0117
X0122575
X0107575
X0097575
Y-0129
X0107575
X0066075Y-0118
X0056075
Y-0107
X0066075
X0042575
X0032575
Y-0119
X0042575
T06
X0137795Y-057874
X0011811
X0013575Y-0011811
X0137795
M30
