G04*
G04 #@! TF.GenerationSoftware,Altium Limited,Altium Designer,21.7.1 (17)*
G04*
G04 Layer_Color=8388736*
%FSLAX25Y25*%
%MOIN*%
G70*
G04*
G04 #@! TF.SameCoordinates,5A6BF6B2-75EA-49F6-9102-A494C9BE1907*
G04*
G04*
G04 #@! TF.FilePolarity,Negative*
G04*
G01*
G75*
%ADD11C,0.01968*%
%ADD15R,0.06706X0.06706*%
%ADD16C,0.06706*%
%ADD17C,0.13398*%
%ADD18R,0.06706X0.06706*%
%ADD19C,0.13800*%
%ADD20C,0.07887*%
%ADD21C,0.09461*%
%ADD22C,0.06312*%
D11*
X0Y-157480D02*
X688976Y-157480D01*
X0Y0D02*
X688976Y0D01*
X0Y-157480D02*
Y0D01*
X688976D02*
X688976Y-157480D01*
D15*
X539370Y-125984D02*
D03*
X602362D02*
D03*
X570866D02*
D03*
X614606Y-31496D02*
D03*
X581771D02*
D03*
X549055D02*
D03*
X516220D02*
D03*
X476378Y-73149D02*
D03*
X543602Y-67559D02*
D03*
D16*
X549370Y-125984D02*
D03*
X612362D02*
D03*
X580866D02*
D03*
X624606Y-31496D02*
D03*
X591771D02*
D03*
X559055D02*
D03*
X526220D02*
D03*
X486378Y-73149D02*
D03*
X554508Y-67559D02*
D03*
X565413D02*
D03*
X576319D02*
D03*
X587224D02*
D03*
X549055Y-78740D02*
D03*
X559960D02*
D03*
X570866D02*
D03*
X581771D02*
D03*
X82677Y-85708D02*
D03*
Y-74803D02*
D03*
Y-63897D02*
D03*
Y-52992D02*
D03*
X93858Y-91161D02*
D03*
Y-80256D02*
D03*
Y-69350D02*
D03*
Y-58445D02*
D03*
X307087Y-108110D02*
D03*
X248031D02*
D03*
X248031Y-29370D02*
D03*
X307087D02*
D03*
X129921Y-108110D02*
D03*
X188976D02*
D03*
X381945Y-68178D02*
D03*
X129921Y-29370D02*
D03*
X188976D02*
D03*
X125984Y-72835D02*
D03*
X108520Y-80256D02*
D03*
D17*
X516220Y-73149D02*
D03*
X614606D02*
D03*
X88267Y-123996D02*
D03*
Y-25610D02*
D03*
D18*
X82677Y-96614D02*
D03*
X307087Y-118110D02*
D03*
X248031D02*
D03*
X248031Y-39370D02*
D03*
X307087D02*
D03*
X129921Y-118110D02*
D03*
X188976D02*
D03*
X381945Y-78178D02*
D03*
X129921Y-39370D02*
D03*
X188976D02*
D03*
D19*
X669291Y-137795D02*
D03*
Y-19685D02*
D03*
X19685Y-137795D02*
D03*
Y-19685D02*
D03*
D20*
X216535Y-39370D02*
D03*
X413441Y-78178D02*
D03*
X275590Y-39370D02*
D03*
X334646D02*
D03*
X157480Y-118110D02*
D03*
X216535D02*
D03*
X275590D02*
D03*
X334646D02*
D03*
X157480Y-39370D02*
D03*
D21*
X206535Y-29370D02*
D03*
X226535D02*
D03*
Y-49370D02*
D03*
X206535D02*
D03*
X403441Y-68178D02*
D03*
X423441D02*
D03*
Y-88178D02*
D03*
X403441D02*
D03*
X265591Y-29370D02*
D03*
X285591D02*
D03*
Y-49370D02*
D03*
X265591D02*
D03*
X324646Y-29370D02*
D03*
X344646D02*
D03*
Y-49370D02*
D03*
X324646D02*
D03*
X147480Y-108110D02*
D03*
X167480D02*
D03*
Y-128110D02*
D03*
X147480D02*
D03*
X206535Y-108110D02*
D03*
X226535D02*
D03*
Y-128110D02*
D03*
X206535D02*
D03*
X265591Y-108110D02*
D03*
X285591D02*
D03*
Y-128110D02*
D03*
X265591D02*
D03*
X324646Y-108110D02*
D03*
X344646D02*
D03*
Y-128110D02*
D03*
X324646D02*
D03*
X147480Y-29370D02*
D03*
X167480D02*
D03*
Y-49370D02*
D03*
X147480D02*
D03*
D22*
X437063Y-109674D02*
D03*
X118110Y-11811D02*
D03*
X141732Y-86614D02*
D03*
X267717Y-90551D02*
D03*
X354331Y-70866D02*
D03*
X413441Y-117548D02*
D03*
X334646Y-78740D02*
D03*
M02*
