G04*
G04 #@! TF.GenerationSoftware,Altium Limited,Altium Designer,21.7.1 (17)*
G04*
G04 Layer_Color=65535*
%FSLAX25Y25*%
%MOIN*%
G70*
G04*
G04 #@! TF.SameCoordinates,5A6BF6B2-75EA-49F6-9102-A494C9BE1907*
G04*
G04*
G04 #@! TF.FilePolarity,Positive*
G04*
G01*
G75*
%ADD10C,0.01000*%
%ADD11C,0.01968*%
%ADD12C,0.00500*%
%ADD13C,0.02126*%
%ADD14C,0.01339*%
D10*
X590635Y-88572D02*
G03*
X594849Y-83632I-1245J5329D01*
G01*
X597560Y-64341D02*
G03*
X591653Y-57599I-6325J418D01*
G01*
X535977Y-83632D02*
G03*
X540191Y-88572I5458J390D01*
G01*
X539173Y-57599D02*
G03*
X533266Y-64341I418J-6325D01*
G01*
X103690Y-49581D02*
G03*
X98750Y-45367I-5329J-1245D01*
G01*
X79459Y-42656D02*
G03*
X72717Y-48563I-418J-6325D01*
G01*
X98750Y-104240D02*
G03*
X103690Y-100026I-390J5458D01*
G01*
X72717Y-101044D02*
G03*
X79459Y-106951I6325J418D01*
G01*
X223606Y-39370D02*
G03*
X223606Y-39370I-7071J0D01*
G01*
X420512Y-78178D02*
G03*
X420512Y-78178I-7071J0D01*
G01*
X282662Y-39370D02*
G03*
X282662Y-39370I-7071J0D01*
G01*
X341717D02*
G03*
X341717Y-39370I-7071J0D01*
G01*
X164551Y-118110D02*
G03*
X164551Y-118110I-7071J0D01*
G01*
X223606D02*
G03*
X223606Y-118110I-7071J0D01*
G01*
X282662D02*
G03*
X282662Y-118110I-7071J0D01*
G01*
X341717D02*
G03*
X341717Y-118110I-7071J0D01*
G01*
X164551Y-39370D02*
G03*
X164551Y-39370I-7071J0D01*
G01*
X594849Y-83632D02*
X597560Y-64341D01*
X533266D02*
X535977Y-83632D01*
X539173Y-57584D02*
X591594D01*
X540413Y-88635D02*
X590413Y-88650D01*
X79459Y-42656D02*
X98750Y-45367D01*
X79459Y-106951D02*
X98750Y-104240D01*
X72702Y-101044D02*
Y-48622D01*
X103753Y-99803D02*
X103768Y-49803D01*
X537165Y-70394D02*
X538831D01*
X537998D01*
Y-65395D01*
X537165Y-66228D01*
X587362Y-80289D02*
X588195Y-81122D01*
X589861D01*
X590694Y-80289D01*
Y-76957D01*
X589861Y-76124D01*
X588195D01*
X587362Y-76957D01*
Y-77790D01*
X588195Y-78623D01*
X590694D01*
X85512Y-103051D02*
Y-101385D01*
Y-102218D01*
X80513D01*
X81346Y-103051D01*
X95407Y-52854D02*
X96240Y-52021D01*
Y-50355D01*
X95407Y-49522D01*
X92075D01*
X91242Y-50355D01*
Y-52021D01*
X92075Y-52854D01*
X92908D01*
X93741Y-52021D01*
Y-49522D01*
X196607Y-95985D02*
Y-100865D01*
X199048D01*
X199861Y-100052D01*
Y-96798D01*
X199048Y-95985D01*
X196607D01*
X203928D02*
X202301D01*
X201488Y-96798D01*
Y-100052D01*
X202301Y-100865D01*
X203928D01*
X204741Y-100052D01*
Y-96798D01*
X203928Y-95985D01*
X206368Y-97612D02*
X207182D01*
Y-98425D01*
X206368D01*
Y-97612D01*
Y-100052D02*
X207182D01*
Y-100865D01*
X206368D01*
Y-100052D01*
X210435Y-95985D02*
Y-100865D01*
X213689D01*
X215315D02*
X216942D01*
X216129D01*
Y-95985D01*
X215315Y-96798D01*
X219382Y-97612D02*
X220196D01*
Y-98425D01*
X219382D01*
Y-97612D01*
Y-100052D02*
X220196D01*
Y-100865D01*
X219382D01*
Y-100052D01*
X223449Y-100865D02*
Y-95985D01*
X225889D01*
X226703Y-96798D01*
Y-98425D01*
X225889Y-99239D01*
X223449D01*
X230770Y-95985D02*
X229143D01*
X228329Y-96798D01*
Y-100052D01*
X229143Y-100865D01*
X230770D01*
X231583Y-100052D01*
Y-96798D01*
X230770Y-95985D01*
X233210D02*
Y-100865D01*
X234837Y-99239D01*
X236463Y-100865D01*
Y-95985D01*
X137146D02*
Y-100865D01*
X139586D01*
X140399Y-100052D01*
Y-96798D01*
X139586Y-95985D01*
X137146D01*
X144466D02*
X142839D01*
X142026Y-96798D01*
Y-100052D01*
X142839Y-100865D01*
X144466D01*
X145280Y-100052D01*
Y-96798D01*
X144466Y-95985D01*
X146906Y-97612D02*
X147720D01*
Y-98425D01*
X146906D01*
Y-97612D01*
Y-100052D02*
X147720D01*
Y-100865D01*
X146906D01*
Y-100052D01*
X150973Y-95985D02*
Y-100865D01*
X154227D01*
X155853Y-96798D02*
X156667Y-95985D01*
X158294D01*
X159107Y-96798D01*
Y-100052D01*
X158294Y-100865D01*
X156667D01*
X155853Y-100052D01*
Y-96798D01*
X160734Y-97612D02*
X161547D01*
Y-98425D01*
X160734D01*
Y-97612D01*
Y-100052D02*
X161547D01*
Y-100865D01*
X160734D01*
Y-100052D01*
X164801Y-100865D02*
Y-95985D01*
X167241D01*
X168054Y-96798D01*
Y-98425D01*
X167241Y-99239D01*
X164801D01*
X172121Y-95985D02*
X170494D01*
X169681Y-96798D01*
Y-100052D01*
X170494Y-100865D01*
X172121D01*
X172935Y-100052D01*
Y-96798D01*
X172121Y-95985D01*
X174561D02*
Y-100865D01*
X176188Y-99239D01*
X177815Y-100865D01*
Y-95985D01*
X316751Y-17245D02*
Y-22125D01*
X319191D01*
X320005Y-21312D01*
Y-18058D01*
X319191Y-17245D01*
X316751D01*
X324072D02*
X322445D01*
X321632Y-18058D01*
Y-21312D01*
X322445Y-22125D01*
X324072D01*
X324885Y-21312D01*
Y-18058D01*
X324072Y-17245D01*
X326512Y-18872D02*
X327325D01*
Y-19685D01*
X326512D01*
Y-18872D01*
Y-21312D02*
X327325D01*
Y-22125D01*
X326512D01*
Y-21312D01*
X330579Y-17245D02*
Y-22125D01*
X333832D01*
X335459Y-18058D02*
X336272Y-17245D01*
X337899D01*
X338713Y-18058D01*
Y-18872D01*
X337899Y-19685D01*
X337086D01*
X337899D01*
X338713Y-20498D01*
Y-21312D01*
X337899Y-22125D01*
X336272D01*
X335459Y-21312D01*
X340339Y-18872D02*
X341153D01*
Y-19685D01*
X340339D01*
Y-18872D01*
Y-21312D02*
X341153D01*
Y-22125D01*
X340339D01*
Y-21312D01*
X347660Y-17245D02*
X344406D01*
Y-22125D01*
X347660D01*
X344406Y-19685D02*
X346033D01*
X349287Y-22125D02*
Y-17245D01*
X352540Y-22125D01*
Y-17245D01*
X257696D02*
Y-22125D01*
X260136D01*
X260950Y-21312D01*
Y-18058D01*
X260136Y-17245D01*
X257696D01*
X265017D02*
X263390D01*
X262576Y-18058D01*
Y-21312D01*
X263390Y-22125D01*
X265017D01*
X265830Y-21312D01*
Y-18058D01*
X265017Y-17245D01*
X267457Y-18872D02*
X268270D01*
Y-19685D01*
X267457D01*
Y-18872D01*
Y-21312D02*
X268270D01*
Y-22125D01*
X267457D01*
Y-21312D01*
X271524Y-17245D02*
Y-22125D01*
X274777D01*
X279658D02*
X276404D01*
X279658Y-18872D01*
Y-18058D01*
X278844Y-17245D01*
X277217D01*
X276404Y-18058D01*
X281284Y-18872D02*
X282098D01*
Y-19685D01*
X281284D01*
Y-18872D01*
Y-21312D02*
X282098D01*
Y-22125D01*
X281284D01*
Y-21312D01*
X288605Y-17245D02*
X285351D01*
Y-22125D01*
X288605D01*
X285351Y-19685D02*
X286978D01*
X290231Y-22125D02*
Y-17245D01*
X293485Y-22125D01*
Y-17245D01*
X199048D02*
Y-22125D01*
X201488D01*
X202301Y-21312D01*
Y-18058D01*
X201488Y-17245D01*
X199048D01*
X206368D02*
X204741D01*
X203928Y-18058D01*
Y-21312D01*
X204741Y-22125D01*
X206368D01*
X207182Y-21312D01*
Y-18058D01*
X206368Y-17245D01*
X208808Y-18872D02*
X209622D01*
Y-19685D01*
X208808D01*
Y-18872D01*
Y-21312D02*
X209622D01*
Y-22125D01*
X208808D01*
Y-21312D01*
X212875Y-17245D02*
Y-22125D01*
X216129D01*
X217756D02*
X219382D01*
X218569D01*
Y-17245D01*
X217756Y-18058D01*
X221822Y-18872D02*
X222636D01*
Y-19685D01*
X221822D01*
Y-18872D01*
Y-21312D02*
X222636D01*
Y-22125D01*
X221822D01*
Y-21312D01*
X229143Y-17245D02*
X225889D01*
Y-22125D01*
X229143D01*
X225889Y-19685D02*
X227516D01*
X230770Y-22125D02*
Y-17245D01*
X234023Y-22125D01*
Y-17245D01*
X139586D02*
Y-22125D01*
X142026D01*
X142839Y-21312D01*
Y-18058D01*
X142026Y-17245D01*
X139586D01*
X146906D02*
X145280D01*
X144466Y-18058D01*
Y-21312D01*
X145280Y-22125D01*
X146906D01*
X147720Y-21312D01*
Y-18058D01*
X146906Y-17245D01*
X149346Y-18872D02*
X150160D01*
Y-19685D01*
X149346D01*
Y-18872D01*
Y-21312D02*
X150160D01*
Y-22125D01*
X149346D01*
Y-21312D01*
X153413Y-17245D02*
Y-22125D01*
X156667D01*
X158294Y-18058D02*
X159107Y-17245D01*
X160734D01*
X161547Y-18058D01*
Y-21312D01*
X160734Y-22125D01*
X159107D01*
X158294Y-21312D01*
Y-18058D01*
X163174Y-18872D02*
X163987D01*
Y-19685D01*
X163174D01*
Y-18872D01*
Y-21312D02*
X163987D01*
Y-22125D01*
X163174D01*
Y-21312D01*
X170494Y-17245D02*
X167241D01*
Y-22125D01*
X170494D01*
X167241Y-19685D02*
X168868D01*
X172121Y-22125D02*
Y-17245D01*
X175375Y-22125D01*
Y-17245D01*
X393513Y-56052D02*
Y-60933D01*
X395953D01*
X396767Y-60119D01*
Y-56866D01*
X395953Y-56052D01*
X393513D01*
X398394D02*
X400020D01*
X399207D01*
Y-60933D01*
X398394D01*
X400020D01*
X402460Y-57679D02*
X403274D01*
Y-58492D01*
X402460D01*
Y-57679D01*
Y-60119D02*
X403274D01*
Y-60933D01*
X402460D01*
Y-60119D01*
X409781Y-56866D02*
X408967Y-56052D01*
X407341D01*
X406527Y-56866D01*
Y-60119D01*
X407341Y-60933D01*
X408967D01*
X409781Y-60119D01*
X411408Y-60933D02*
Y-57679D01*
X413034Y-56052D01*
X414661Y-57679D01*
Y-60933D01*
Y-58492D01*
X411408D01*
X416288Y-60933D02*
Y-56052D01*
X417915Y-57679D01*
X419542Y-56052D01*
Y-60933D01*
X421168Y-57679D02*
X421982D01*
Y-58492D01*
X421168D01*
Y-57679D01*
Y-60119D02*
X421982D01*
Y-60933D01*
X421168D01*
Y-60119D01*
X428489Y-56052D02*
X425235D01*
Y-60933D01*
X428489D01*
X425235Y-58492D02*
X426862D01*
X430116Y-56052D02*
X433369Y-60933D01*
Y-56052D02*
X430116Y-60933D01*
X314311Y-95985D02*
Y-100865D01*
X316751D01*
X317565Y-100052D01*
Y-96798D01*
X316751Y-95985D01*
X314311D01*
X321632D02*
X320005D01*
X319191Y-96798D01*
Y-100052D01*
X320005Y-100865D01*
X321632D01*
X322445Y-100052D01*
Y-96798D01*
X321632Y-95985D01*
X324072Y-97612D02*
X324885D01*
Y-98425D01*
X324072D01*
Y-97612D01*
Y-100052D02*
X324885D01*
Y-100865D01*
X324072D01*
Y-100052D01*
X328139Y-95985D02*
Y-100865D01*
X331392D01*
X333019Y-96798D02*
X333832Y-95985D01*
X335459D01*
X336272Y-96798D01*
Y-97612D01*
X335459Y-98425D01*
X334646D01*
X335459D01*
X336272Y-99239D01*
Y-100052D01*
X335459Y-100865D01*
X333832D01*
X333019Y-100052D01*
X337899Y-97612D02*
X338713D01*
Y-98425D01*
X337899D01*
Y-97612D01*
Y-100052D02*
X338713D01*
Y-100865D01*
X337899D01*
Y-100052D01*
X341966Y-100865D02*
Y-95985D01*
X344406D01*
X345220Y-96798D01*
Y-98425D01*
X344406Y-99239D01*
X341966D01*
X349287Y-95985D02*
X347660D01*
X346847Y-96798D01*
Y-100052D01*
X347660Y-100865D01*
X349287D01*
X350100Y-100052D01*
Y-96798D01*
X349287Y-95985D01*
X351727D02*
Y-100865D01*
X353354Y-99239D01*
X354980Y-100865D01*
Y-95985D01*
X255256D02*
Y-100865D01*
X257696D01*
X258509Y-100052D01*
Y-96798D01*
X257696Y-95985D01*
X255256D01*
X262576D02*
X260950D01*
X260136Y-96798D01*
Y-100052D01*
X260950Y-100865D01*
X262576D01*
X263390Y-100052D01*
Y-96798D01*
X262576Y-95985D01*
X265017Y-97612D02*
X265830D01*
Y-98425D01*
X265017D01*
Y-97612D01*
Y-100052D02*
X265830D01*
Y-100865D01*
X265017D01*
Y-100052D01*
X269083Y-95985D02*
Y-100865D01*
X272337D01*
X277217D02*
X273964D01*
X277217Y-97612D01*
Y-96798D01*
X276404Y-95985D01*
X274777D01*
X273964Y-96798D01*
X278844Y-97612D02*
X279658D01*
Y-98425D01*
X278844D01*
Y-97612D01*
Y-100052D02*
X279658D01*
Y-100865D01*
X278844D01*
Y-100052D01*
X282911Y-100865D02*
Y-95985D01*
X285351D01*
X286165Y-96798D01*
Y-98425D01*
X285351Y-99239D01*
X282911D01*
X290231Y-95985D02*
X288605D01*
X287791Y-96798D01*
Y-100052D01*
X288605Y-100865D01*
X290231D01*
X291045Y-100052D01*
Y-96798D01*
X290231Y-95985D01*
X292672D02*
Y-100865D01*
X294298Y-99239D01*
X295925Y-100865D01*
Y-95985D01*
D11*
X485491Y-4225D02*
X620847D01*
X461830Y-137784D02*
X643574D01*
X461830Y-28047D02*
X485453Y-4425D01*
X461830Y-137784D02*
Y-28047D01*
X376395Y-137233D02*
Y-27418D01*
X400017Y-3796D01*
X621905Y-4777D02*
X644130Y-27002D01*
Y-137238D02*
Y-27002D01*
X45648Y-137795D02*
X366631D01*
X45648D02*
Y-26896D01*
X366468Y-137526D02*
Y-27887D01*
X68707Y-3487D02*
X342484D01*
X45417Y-26776D02*
X68707Y-3487D01*
X342623Y-4043D02*
X366468Y-27887D01*
X447261Y-137233D02*
Y-27418D01*
X423639Y-3796D02*
X447261Y-27418D01*
X400017Y-3796D02*
X423639D01*
X376395Y-137233D02*
X447261D01*
X0Y-157480D02*
X688976Y-157480D01*
X0Y0D02*
X688976Y0D01*
X0Y-157480D02*
Y0D01*
X688976D02*
X688976Y-157480D01*
D12*
X626063Y-97756D02*
Y-48543D01*
X504764Y-97756D02*
X626063D01*
X504764D02*
Y-48543D01*
X626063D01*
X63661Y-14153D02*
X112874D01*
Y-135453D02*
Y-14153D01*
X63661Y-135453D02*
X112874D01*
X63661D02*
Y-14153D01*
X204035Y-53120D02*
X229035D01*
X230285D01*
X202785D02*
X204035D01*
X202785D02*
Y-25620D01*
X230285D01*
Y-53120D02*
Y-25620D01*
X400941Y-91928D02*
X425941D01*
X427191D01*
X399691D02*
X400941D01*
X399691D02*
Y-64428D01*
X427191D01*
Y-91928D02*
Y-64428D01*
X263090Y-53120D02*
X288090D01*
X289340D01*
X261841D02*
X263090D01*
X261841D02*
Y-25620D01*
X289340D01*
Y-53120D02*
Y-25620D01*
X322146Y-53120D02*
X347146D01*
X348396D01*
X320896D02*
X322146D01*
X320896D02*
Y-25620D01*
X348396D01*
Y-53120D02*
Y-25620D01*
X144980Y-131860D02*
X169980D01*
X171230D01*
X143730D02*
X144980D01*
X143730D02*
Y-104360D01*
X171230D01*
Y-131860D02*
Y-104360D01*
X204035Y-131860D02*
X229035D01*
X230285D01*
X202785D02*
X204035D01*
X202785D02*
Y-104360D01*
X230285D01*
Y-131860D02*
Y-104360D01*
X263090Y-131860D02*
X288090D01*
X289340D01*
X261841D02*
X263090D01*
X261841D02*
Y-104360D01*
X289340D01*
Y-131860D02*
Y-104360D01*
X322146Y-131860D02*
X347146D01*
X348396D01*
X320896D02*
X322146D01*
X320896D02*
Y-104360D01*
X348396D01*
Y-131860D02*
Y-104360D01*
X144980Y-53120D02*
X169980D01*
X171230D01*
X143730D02*
X144980D01*
X143730D02*
Y-25620D01*
X171230D01*
Y-53120D02*
Y-25620D01*
D13*
X550976Y-38559D02*
X549664Y-37247D01*
X547040D01*
X545728Y-38559D01*
Y-39871D01*
X547040Y-41182D01*
X549664D01*
X550976Y-42494D01*
Y-43806D01*
X549664Y-45118D01*
X547040D01*
X545728Y-43806D01*
X557535Y-45118D02*
X554912D01*
X553600Y-43806D01*
Y-41182D01*
X554912Y-39871D01*
X557535D01*
X558847Y-41182D01*
Y-42494D01*
X553600D01*
X561471Y-39871D02*
Y-45118D01*
Y-42494D01*
X562783Y-41182D01*
X564095Y-39871D01*
X565407D01*
X569343D02*
X571966Y-45118D01*
X574590Y-39871D01*
X578526Y-45118D02*
X581150D01*
X582462Y-43806D01*
Y-41182D01*
X581150Y-39871D01*
X578526D01*
X577214Y-41182D01*
Y-43806D01*
X578526Y-45118D01*
X397193Y-34059D02*
X395881Y-32747D01*
X393257D01*
X391945Y-34059D01*
Y-39307D01*
X393257Y-40619D01*
X395881D01*
X397193Y-39307D01*
X401128Y-35371D02*
X403752D01*
X405064Y-36683D01*
Y-40619D01*
X401128D01*
X399817Y-39307D01*
X401128Y-37995D01*
X405064D01*
X407688Y-40619D02*
Y-35371D01*
X409000D01*
X410312Y-36683D01*
Y-40619D01*
Y-36683D01*
X411624Y-35371D01*
X412936Y-36683D01*
Y-40619D01*
X419495D02*
X416871D01*
X415559Y-39307D01*
Y-36683D01*
X416871Y-35371D01*
X419495D01*
X420807Y-36683D01*
Y-37995D01*
X415559D01*
X423431Y-35371D02*
Y-40619D01*
Y-37995D01*
X424743Y-36683D01*
X426055Y-35371D01*
X427367D01*
X432614D02*
X435238D01*
X436550Y-36683D01*
Y-40619D01*
X432614D01*
X431302Y-39307D01*
X432614Y-37995D01*
X436550D01*
X179291Y-71040D02*
Y-78912D01*
X184539D01*
X188475Y-73664D02*
X191099D01*
X192411Y-74976D01*
Y-78912D01*
X188475D01*
X187163Y-77600D01*
X188475Y-76288D01*
X192411D01*
X195034Y-78912D02*
X198970D01*
X200282Y-77600D01*
X198970Y-76288D01*
X196346D01*
X195034Y-74976D01*
X196346Y-73664D01*
X200282D01*
X206841Y-78912D02*
X204218D01*
X202906Y-77600D01*
Y-74976D01*
X204218Y-73664D01*
X206841D01*
X208153Y-74976D01*
Y-76288D01*
X202906D01*
X210777Y-73664D02*
Y-78912D01*
Y-76288D01*
X212089Y-74976D01*
X213401Y-73664D01*
X214713D01*
X231768Y-71040D02*
X226520D01*
Y-78912D01*
X231768D01*
X226520Y-74976D02*
X229144D01*
X234392Y-78912D02*
Y-73664D01*
X238327D01*
X239639Y-74976D01*
Y-78912D01*
X244887Y-81535D02*
X246199D01*
X247511Y-80224D01*
Y-73664D01*
X243575D01*
X242263Y-74976D01*
Y-77600D01*
X243575Y-78912D01*
X247511D01*
X250135D02*
X252759D01*
X251447D01*
Y-73664D01*
X250135D01*
X256694Y-78912D02*
Y-73664D01*
X260630D01*
X261942Y-74976D01*
Y-78912D01*
X268501D02*
X265878D01*
X264566Y-77600D01*
Y-74976D01*
X265878Y-73664D01*
X268501D01*
X269813Y-74976D01*
Y-76288D01*
X264566D01*
D14*
X389844Y-108335D02*
X387221Y-105711D01*
Y-103087D01*
X389844Y-100464D01*
X393780Y-101776D02*
X395092Y-100464D01*
X397716D01*
X399028Y-101776D01*
Y-107023D01*
X397716Y-108335D01*
X395092D01*
X393780Y-107023D01*
Y-101776D01*
X401652Y-104399D02*
X406899D01*
X414771Y-100464D02*
X409523D01*
Y-104399D01*
X412147Y-103087D01*
X413459D01*
X414771Y-104399D01*
Y-107023D01*
X413459Y-108335D01*
X410835D01*
X409523Y-107023D01*
X417395Y-100464D02*
Y-105711D01*
X420018Y-108335D01*
X422642Y-105711D01*
Y-100464D01*
X425266Y-108335D02*
X427890Y-105711D01*
Y-103087D01*
X425266Y-100464D01*
M02*
