G04*
G04 #@! TF.GenerationSoftware,Altium Limited,Altium Designer,21.7.1 (17)*
G04*
G04 Layer_Physical_Order=2*
G04 Layer_Color=16711680*
%FSLAX25Y25*%
%MOIN*%
G70*
G04*
G04 #@! TF.SameCoordinates,5A6BF6B2-75EA-49F6-9102-A494C9BE1907*
G04*
G04*
G04 #@! TF.FilePolarity,Positive*
G04*
G01*
G75*
%ADD11C,0.01968*%
%ADD23C,0.03000*%
%ADD24R,0.05906X0.05906*%
%ADD25C,0.05906*%
%ADD26C,0.12598*%
%ADD27R,0.05906X0.05906*%
%ADD28C,0.13000*%
%ADD29C,0.07087*%
%ADD30C,0.08661*%
%ADD31C,0.05512*%
G36*
X688976Y0D02*
X688976Y-157480D01*
X0Y-157480D01*
Y0D01*
X688976Y0D01*
D02*
G37*
%LPC*%
G36*
X118610Y-8089D02*
Y-11311D01*
X121833D01*
X121769Y-10830D01*
X121391Y-9917D01*
X120789Y-9132D01*
X120004Y-8530D01*
X119091Y-8152D01*
X118610Y-8089D01*
D02*
G37*
G36*
X117610D02*
X117130Y-8152D01*
X116216Y-8530D01*
X115431Y-9132D01*
X114830Y-9917D01*
X114451Y-10830D01*
X114388Y-11311D01*
X117610D01*
Y-8089D01*
D02*
G37*
G36*
X121833Y-12311D02*
X118610D01*
Y-15533D01*
X119091Y-15470D01*
X120004Y-15092D01*
X120789Y-14490D01*
X121391Y-13705D01*
X121769Y-12791D01*
X121833Y-12311D01*
D02*
G37*
G36*
X117610D02*
X114388D01*
X114451Y-12791D01*
X114830Y-13705D01*
X115431Y-14490D01*
X116216Y-15092D01*
X117130Y-15470D01*
X117610Y-15533D01*
Y-12311D01*
D02*
G37*
G36*
X669791Y-11796D02*
Y-19185D01*
X677180D01*
X677077Y-18136D01*
X676625Y-16647D01*
X675892Y-15275D01*
X674904Y-14072D01*
X673702Y-13085D01*
X672329Y-12351D01*
X670840Y-11899D01*
X669791Y-11796D01*
D02*
G37*
G36*
X668791D02*
X667743Y-11899D01*
X666254Y-12351D01*
X664881Y-13085D01*
X663678Y-14072D01*
X662691Y-15275D01*
X661957Y-16647D01*
X661506Y-18136D01*
X661402Y-19185D01*
X668791D01*
Y-11796D01*
D02*
G37*
G36*
X19685Y-11948D02*
X18176Y-12096D01*
X16724Y-12537D01*
X15386Y-13252D01*
X14214Y-14214D01*
X13252Y-15386D01*
X12537Y-16724D01*
X12096Y-18176D01*
X11948Y-19685D01*
X12096Y-21194D01*
X12537Y-22646D01*
X13252Y-23984D01*
X14214Y-25156D01*
X15386Y-26118D01*
X16724Y-26833D01*
X18176Y-27274D01*
X19685Y-27422D01*
X21194Y-27274D01*
X22646Y-26833D01*
X23984Y-26118D01*
X25156Y-25156D01*
X26118Y-23984D01*
X26833Y-22646D01*
X27274Y-21194D01*
X27422Y-19685D01*
X27274Y-18176D01*
X26833Y-16724D01*
X26118Y-15386D01*
X25156Y-14214D01*
X23984Y-13252D01*
X22646Y-12537D01*
X21194Y-12096D01*
X19685Y-11948D01*
D02*
G37*
G36*
X677180Y-20185D02*
X669791D01*
Y-27574D01*
X670840Y-27471D01*
X672329Y-27019D01*
X673702Y-26285D01*
X674904Y-25298D01*
X675892Y-24095D01*
X676625Y-22723D01*
X677077Y-21234D01*
X677180Y-20185D01*
D02*
G37*
G36*
X668791D02*
X661402D01*
X661506Y-21234D01*
X661957Y-22723D01*
X662691Y-24095D01*
X663678Y-25298D01*
X664881Y-26285D01*
X666254Y-27019D01*
X667743Y-27471D01*
X668791Y-27574D01*
Y-20185D01*
D02*
G37*
G36*
X307587Y-25449D02*
Y-28870D01*
X311008D01*
X310938Y-28338D01*
X310539Y-27377D01*
X309906Y-26551D01*
X309080Y-25917D01*
X308119Y-25519D01*
X307587Y-25449D01*
D02*
G37*
G36*
X306587D02*
X306055Y-25519D01*
X305093Y-25917D01*
X304268Y-26551D01*
X303634Y-27377D01*
X303236Y-28338D01*
X303166Y-28870D01*
X306587D01*
Y-25449D01*
D02*
G37*
G36*
X248532Y-25449D02*
Y-28870D01*
X251953D01*
X251883Y-28338D01*
X251484Y-27377D01*
X250851Y-26551D01*
X250025Y-25917D01*
X249063Y-25519D01*
X248532Y-25449D01*
D02*
G37*
G36*
X189476D02*
Y-28870D01*
X192897D01*
X192827Y-28338D01*
X192429Y-27377D01*
X191796Y-26551D01*
X190970Y-25917D01*
X190008Y-25519D01*
X189476Y-25449D01*
D02*
G37*
G36*
X188476Y-25449D02*
X187944Y-25519D01*
X186983Y-25917D01*
X186157Y-26551D01*
X185524Y-27377D01*
X185125Y-28338D01*
X185055Y-28870D01*
X188476D01*
Y-25449D01*
D02*
G37*
G36*
X247532D02*
X247000Y-25519D01*
X246038Y-25917D01*
X245212Y-26551D01*
X244579Y-27377D01*
X244180Y-28338D01*
X244110Y-28870D01*
X247532D01*
Y-25449D01*
D02*
G37*
G36*
X345146Y-24059D02*
Y-28870D01*
X349956D01*
X349839Y-27979D01*
X349302Y-26682D01*
X348448Y-25568D01*
X347334Y-24714D01*
X346037Y-24177D01*
X345146Y-24059D01*
D02*
G37*
G36*
X325146D02*
Y-28870D01*
X329957D01*
X329839Y-27979D01*
X329302Y-26682D01*
X328448Y-25568D01*
X327334Y-24714D01*
X326037Y-24177D01*
X325146Y-24059D01*
D02*
G37*
G36*
X286090D02*
Y-28870D01*
X290901D01*
X290784Y-27979D01*
X290247Y-26682D01*
X289392Y-25568D01*
X288279Y-24714D01*
X286982Y-24177D01*
X286090Y-24059D01*
D02*
G37*
G36*
X266090D02*
Y-28870D01*
X270901D01*
X270784Y-27979D01*
X270247Y-26682D01*
X269392Y-25568D01*
X268279Y-24714D01*
X266982Y-24177D01*
X266090Y-24059D01*
D02*
G37*
G36*
X227035D02*
Y-28870D01*
X231846D01*
X231729Y-27979D01*
X231192Y-26682D01*
X230337Y-25568D01*
X229224Y-24714D01*
X227927Y-24177D01*
X227035Y-24059D01*
D02*
G37*
G36*
X207035D02*
Y-28870D01*
X211846D01*
X211729Y-27979D01*
X211192Y-26682D01*
X210337Y-25568D01*
X209224Y-24714D01*
X207927Y-24177D01*
X207035Y-24059D01*
D02*
G37*
G36*
X130421Y-25449D02*
Y-28870D01*
X133842D01*
X133772Y-28338D01*
X133374Y-27377D01*
X132740Y-26551D01*
X131915Y-25917D01*
X130953Y-25519D01*
X130421Y-25449D01*
D02*
G37*
G36*
X129421Y-25449D02*
X128889Y-25519D01*
X127928Y-25917D01*
X127102Y-26551D01*
X126469Y-27377D01*
X126070Y-28338D01*
X126000Y-28870D01*
X129421D01*
Y-25449D01*
D02*
G37*
G36*
X285090Y-24059D02*
X284199Y-24177D01*
X282902Y-24714D01*
X281789Y-25568D01*
X280934Y-26682D01*
X280397Y-27979D01*
X280280Y-28870D01*
X285090D01*
Y-24059D01*
D02*
G37*
G36*
X206035D02*
X205144Y-24177D01*
X203847Y-24714D01*
X202733Y-25568D01*
X201879Y-26682D01*
X201342Y-27979D01*
X201224Y-28870D01*
X206035D01*
Y-24059D01*
D02*
G37*
G36*
X265090D02*
X264199Y-24177D01*
X262902Y-24714D01*
X261789Y-25568D01*
X260934Y-26682D01*
X260397Y-27979D01*
X260280Y-28870D01*
X265090D01*
Y-24059D01*
D02*
G37*
G36*
X226035D02*
X225144Y-24177D01*
X223847Y-24714D01*
X222733Y-25568D01*
X221879Y-26682D01*
X221342Y-27979D01*
X221224Y-28870D01*
X226035D01*
Y-24059D01*
D02*
G37*
G36*
X344146D02*
X343254Y-24177D01*
X341957Y-24714D01*
X340844Y-25568D01*
X339989Y-26682D01*
X339452Y-27979D01*
X339335Y-28870D01*
X344146D01*
Y-24059D01*
D02*
G37*
G36*
X324146D02*
X323254Y-24177D01*
X321957Y-24714D01*
X320844Y-25568D01*
X319989Y-26682D01*
X319452Y-27979D01*
X319335Y-28870D01*
X324146D01*
Y-24059D01*
D02*
G37*
G36*
X167980Y-24059D02*
Y-28870D01*
X172791D01*
X172674Y-27979D01*
X172137Y-26682D01*
X171282Y-25568D01*
X170169Y-24714D01*
X168872Y-24177D01*
X167980Y-24059D01*
D02*
G37*
G36*
X147980D02*
Y-28870D01*
X152791D01*
X152674Y-27979D01*
X152137Y-26682D01*
X151282Y-25568D01*
X150169Y-24714D01*
X148872Y-24177D01*
X147980Y-24059D01*
D02*
G37*
G36*
X146980Y-24059D02*
X146089Y-24177D01*
X144792Y-24714D01*
X143678Y-25568D01*
X142824Y-26682D01*
X142287Y-27979D01*
X142169Y-28870D01*
X146980D01*
Y-24059D01*
D02*
G37*
G36*
X166980D02*
X166089Y-24177D01*
X164792Y-24714D01*
X163678Y-25568D01*
X162824Y-26682D01*
X162287Y-27979D01*
X162169Y-28870D01*
X166980D01*
Y-24059D01*
D02*
G37*
G36*
X625106Y-27575D02*
Y-30996D01*
X628527D01*
X628457Y-30464D01*
X628059Y-29503D01*
X627425Y-28677D01*
X626600Y-28043D01*
X625638Y-27645D01*
X625106Y-27575D01*
D02*
G37*
G36*
X559555D02*
Y-30996D01*
X562976D01*
X562906Y-30464D01*
X562508Y-29503D01*
X561874Y-28677D01*
X561049Y-28043D01*
X560087Y-27645D01*
X559555Y-27575D01*
D02*
G37*
G36*
X592271D02*
Y-30996D01*
X595692D01*
X595622Y-30464D01*
X595224Y-29503D01*
X594590Y-28677D01*
X593765Y-28043D01*
X592803Y-27645D01*
X592271Y-27575D01*
D02*
G37*
G36*
X526720D02*
Y-30996D01*
X530141D01*
X530071Y-30464D01*
X529673Y-29503D01*
X529039Y-28677D01*
X528214Y-28043D01*
X527252Y-27645D01*
X526720Y-27575D01*
D02*
G37*
G36*
X558555D02*
X558023Y-27645D01*
X557062Y-28043D01*
X556236Y-28677D01*
X555602Y-29503D01*
X555204Y-30464D01*
X555134Y-30996D01*
X558555D01*
Y-27575D01*
D02*
G37*
G36*
X624106D02*
X623574Y-27645D01*
X622613Y-28043D01*
X621787Y-28677D01*
X621153Y-29503D01*
X620755Y-30464D01*
X620685Y-30996D01*
X624106D01*
Y-27575D01*
D02*
G37*
G36*
X591271D02*
X590739Y-27645D01*
X589778Y-28043D01*
X588952Y-28677D01*
X588318Y-29503D01*
X587920Y-30464D01*
X587850Y-30996D01*
X591271D01*
Y-27575D01*
D02*
G37*
G36*
X525720D02*
X525188Y-27645D01*
X524227Y-28043D01*
X523401Y-28677D01*
X522767Y-29503D01*
X522369Y-30464D01*
X522299Y-30996D01*
X525720D01*
Y-27575D01*
D02*
G37*
G36*
X88267Y-18477D02*
X86875Y-18614D01*
X85537Y-19020D01*
X84304Y-19679D01*
X83223Y-20566D01*
X82336Y-21647D01*
X81677Y-22880D01*
X81271Y-24218D01*
X81134Y-25610D01*
X81271Y-27002D01*
X81677Y-28340D01*
X82336Y-29573D01*
X83223Y-30654D01*
X84304Y-31541D01*
X85537Y-32201D01*
X86875Y-32607D01*
X88267Y-32744D01*
X89659Y-32607D01*
X90997Y-32201D01*
X92230Y-31541D01*
X93311Y-30654D01*
X94199Y-29573D01*
X94858Y-28340D01*
X95264Y-27002D01*
X95401Y-25610D01*
X95264Y-24218D01*
X94858Y-22880D01*
X94199Y-21647D01*
X93311Y-20566D01*
X92230Y-19679D01*
X90997Y-19020D01*
X89659Y-18614D01*
X88267Y-18477D01*
D02*
G37*
G36*
X129421Y-29870D02*
X126000D01*
X126070Y-30402D01*
X126469Y-31363D01*
X127102Y-32189D01*
X127928Y-32823D01*
X128889Y-33221D01*
X129421Y-33291D01*
Y-29870D01*
D02*
G37*
G36*
X188476Y-29870D02*
X185055D01*
X185125Y-30402D01*
X185524Y-31363D01*
X186157Y-32189D01*
X186983Y-32823D01*
X187944Y-33221D01*
X188476Y-33291D01*
Y-29870D01*
D02*
G37*
G36*
X247532D02*
X244110D01*
X244180Y-30402D01*
X244579Y-31363D01*
X245212Y-32189D01*
X246038Y-32823D01*
X247000Y-33221D01*
X247532Y-33291D01*
Y-29870D01*
D02*
G37*
G36*
X306587Y-29870D02*
X303166D01*
X303236Y-30402D01*
X303634Y-31363D01*
X304268Y-32189D01*
X305093Y-32823D01*
X306055Y-33221D01*
X306587Y-33291D01*
Y-29870D01*
D02*
G37*
G36*
X311008D02*
X307587D01*
Y-33291D01*
X308119Y-33221D01*
X309080Y-32823D01*
X309906Y-32189D01*
X310539Y-31363D01*
X310938Y-30402D01*
X311008Y-29870D01*
D02*
G37*
G36*
X251953Y-29870D02*
X248532D01*
Y-33291D01*
X249063Y-33221D01*
X250025Y-32823D01*
X250851Y-32189D01*
X251484Y-31363D01*
X251883Y-30402D01*
X251953Y-29870D01*
D02*
G37*
G36*
X192897D02*
X189476D01*
Y-33291D01*
X190008Y-33221D01*
X190970Y-32823D01*
X191796Y-32189D01*
X192429Y-31363D01*
X192827Y-30402D01*
X192897Y-29870D01*
D02*
G37*
G36*
X133842Y-29870D02*
X130421D01*
Y-33291D01*
X130953Y-33221D01*
X131915Y-32823D01*
X132740Y-32189D01*
X133374Y-31363D01*
X133772Y-30402D01*
X133842Y-29870D01*
D02*
G37*
G36*
X146980Y-29870D02*
X142169D01*
X142287Y-30762D01*
X142824Y-32058D01*
X143678Y-33172D01*
X144792Y-34026D01*
X146089Y-34564D01*
X146980Y-34681D01*
Y-29870D01*
D02*
G37*
G36*
X166980D02*
X162169D01*
X162287Y-30762D01*
X162824Y-32058D01*
X163678Y-33172D01*
X164792Y-34026D01*
X166089Y-34564D01*
X166980Y-34681D01*
Y-29870D01*
D02*
G37*
G36*
X206035Y-29870D02*
X201224D01*
X201342Y-30762D01*
X201879Y-32058D01*
X202733Y-33172D01*
X203847Y-34026D01*
X205144Y-34564D01*
X206035Y-34681D01*
Y-29870D01*
D02*
G37*
G36*
X285090D02*
X280280D01*
X280397Y-30762D01*
X280934Y-32058D01*
X281789Y-33172D01*
X282902Y-34026D01*
X284199Y-34564D01*
X285090Y-34681D01*
Y-29870D01*
D02*
G37*
G36*
X344146D02*
X339335D01*
X339452Y-30762D01*
X339989Y-32058D01*
X340844Y-33172D01*
X341957Y-34026D01*
X343254Y-34564D01*
X344146Y-34681D01*
Y-29870D01*
D02*
G37*
G36*
X324146D02*
X319335D01*
X319452Y-30762D01*
X319989Y-32058D01*
X320844Y-33172D01*
X321957Y-34026D01*
X323254Y-34564D01*
X324146Y-34681D01*
Y-29870D01*
D02*
G37*
G36*
X265090D02*
X260280D01*
X260397Y-30762D01*
X260934Y-32058D01*
X261789Y-33172D01*
X262902Y-34026D01*
X264199Y-34564D01*
X265090Y-34681D01*
Y-29870D01*
D02*
G37*
G36*
X226035D02*
X221224D01*
X221342Y-30762D01*
X221879Y-32058D01*
X222733Y-33172D01*
X223847Y-34026D01*
X225144Y-34564D01*
X226035Y-34681D01*
Y-29870D01*
D02*
G37*
G36*
X270901D02*
X266090D01*
Y-34681D01*
X266982Y-34564D01*
X268279Y-34026D01*
X269392Y-33172D01*
X270247Y-32058D01*
X270784Y-30762D01*
X270901Y-29870D01*
D02*
G37*
G36*
X231846D02*
X227035D01*
Y-34681D01*
X227927Y-34564D01*
X229224Y-34026D01*
X230337Y-33172D01*
X231192Y-32058D01*
X231729Y-30762D01*
X231846Y-29870D01*
D02*
G37*
G36*
X349957D02*
X345146D01*
Y-34681D01*
X346037Y-34564D01*
X347334Y-34026D01*
X348448Y-33172D01*
X349302Y-32058D01*
X349839Y-30762D01*
X349957Y-29870D01*
D02*
G37*
G36*
X329957D02*
X325146D01*
Y-34681D01*
X326037Y-34564D01*
X327334Y-34026D01*
X328448Y-33172D01*
X329302Y-32058D01*
X329839Y-30762D01*
X329957Y-29870D01*
D02*
G37*
G36*
X290901D02*
X286090D01*
Y-34681D01*
X286982Y-34564D01*
X288279Y-34026D01*
X289392Y-33172D01*
X290247Y-32058D01*
X290784Y-30762D01*
X290901Y-29870D01*
D02*
G37*
G36*
X211846D02*
X207035D01*
Y-34681D01*
X207927Y-34564D01*
X209224Y-34026D01*
X210337Y-33172D01*
X211192Y-32058D01*
X211729Y-30762D01*
X211846Y-29870D01*
D02*
G37*
G36*
X172791Y-29870D02*
X167980D01*
Y-34681D01*
X168872Y-34564D01*
X170169Y-34026D01*
X171282Y-33172D01*
X172137Y-32058D01*
X172674Y-30762D01*
X172791Y-29870D01*
D02*
G37*
G36*
X152791D02*
X147980D01*
Y-34681D01*
X148872Y-34564D01*
X150169Y-34026D01*
X151282Y-33172D01*
X152137Y-32058D01*
X152674Y-30762D01*
X152791Y-29870D01*
D02*
G37*
G36*
X628527Y-31996D02*
X625106D01*
Y-35417D01*
X625638Y-35347D01*
X626600Y-34949D01*
X627425Y-34315D01*
X628059Y-33490D01*
X628457Y-32528D01*
X628527Y-31996D01*
D02*
G37*
G36*
X595692D02*
X592271D01*
Y-35417D01*
X592803Y-35347D01*
X593765Y-34949D01*
X594590Y-34315D01*
X595224Y-33490D01*
X595622Y-32528D01*
X595692Y-31996D01*
D02*
G37*
G36*
X562976D02*
X559555D01*
Y-35417D01*
X560087Y-35347D01*
X561049Y-34949D01*
X561874Y-34315D01*
X562508Y-33490D01*
X562906Y-32528D01*
X562976Y-31996D01*
D02*
G37*
G36*
X530141D02*
X526720D01*
Y-35417D01*
X527252Y-35347D01*
X528214Y-34949D01*
X529039Y-34315D01*
X529673Y-33490D01*
X530071Y-32528D01*
X530141Y-31996D01*
D02*
G37*
G36*
X591271D02*
X587850D01*
X587920Y-32528D01*
X588318Y-33490D01*
X588952Y-34315D01*
X589778Y-34949D01*
X590739Y-35347D01*
X591271Y-35417D01*
Y-31996D01*
D02*
G37*
G36*
X558555D02*
X555134D01*
X555204Y-32528D01*
X555602Y-33490D01*
X556236Y-34315D01*
X557062Y-34949D01*
X558023Y-35347D01*
X558555Y-35417D01*
Y-31996D01*
D02*
G37*
G36*
X525720D02*
X522299D01*
X522369Y-32528D01*
X522767Y-33490D01*
X523401Y-34315D01*
X524227Y-34949D01*
X525188Y-35347D01*
X525720Y-35417D01*
Y-31996D01*
D02*
G37*
G36*
X624106D02*
X620685D01*
X620755Y-32528D01*
X621153Y-33490D01*
X621787Y-34315D01*
X622613Y-34949D01*
X623574Y-35347D01*
X624106Y-35417D01*
Y-31996D01*
D02*
G37*
G36*
X125984Y-17340D02*
X125087Y-17518D01*
X124326Y-18027D01*
X91706Y-50647D01*
X85608D01*
X85354Y-50316D01*
X84570Y-49714D01*
X83657Y-49336D01*
X82677Y-49207D01*
X81697Y-49336D01*
X80785Y-49714D01*
X80001Y-50316D01*
X79399Y-51100D01*
X79021Y-52012D01*
X78892Y-52992D01*
X79021Y-53972D01*
X79399Y-54885D01*
X80001Y-55669D01*
X80785Y-56270D01*
X81697Y-56648D01*
X82677Y-56777D01*
X83657Y-56648D01*
X84570Y-56270D01*
X85354Y-55669D01*
X85608Y-55337D01*
X91005D01*
X91129Y-55837D01*
X90580Y-56553D01*
X90202Y-57465D01*
X90073Y-58445D01*
X90202Y-59425D01*
X90580Y-60338D01*
X91128Y-61052D01*
X91003Y-61552D01*
X90551D01*
X89654Y-61731D01*
X88893Y-62239D01*
X86926Y-64206D01*
X86452Y-63972D01*
X86462Y-63897D01*
X86333Y-62918D01*
X85955Y-62005D01*
X85354Y-61221D01*
X84570Y-60619D01*
X83657Y-60241D01*
X82677Y-60112D01*
X81697Y-60241D01*
X80785Y-60619D01*
X80001Y-61221D01*
X79399Y-62005D01*
X79021Y-62918D01*
X78892Y-63897D01*
X78947Y-64311D01*
X66255Y-77003D01*
X65747Y-77763D01*
X65568Y-78661D01*
Y-101378D01*
X65747Y-102275D01*
X66255Y-103036D01*
X66690Y-103471D01*
Y-107873D01*
X66868Y-108771D01*
X67376Y-109531D01*
X74524Y-116679D01*
X75284Y-117187D01*
X76182Y-117366D01*
X84552D01*
X84677Y-117866D01*
X84304Y-118065D01*
X83223Y-118952D01*
X82336Y-120033D01*
X81677Y-121266D01*
X81271Y-122605D01*
X81134Y-123996D01*
X81271Y-125388D01*
X81677Y-126726D01*
X82336Y-127959D01*
X83223Y-129040D01*
X84304Y-129928D01*
X85537Y-130587D01*
X86875Y-130993D01*
X88267Y-131130D01*
X89659Y-130993D01*
X90997Y-130587D01*
X92230Y-129928D01*
X93311Y-129040D01*
X94199Y-127959D01*
X94858Y-126726D01*
X95264Y-125388D01*
X95401Y-123996D01*
X95264Y-122605D01*
X94858Y-121266D01*
X94199Y-120033D01*
X93311Y-118952D01*
X92230Y-118065D01*
X91857Y-117866D01*
X91983Y-117366D01*
X96864D01*
X118952Y-139453D01*
X118952Y-139453D01*
X119713Y-139962D01*
X120610Y-140140D01*
X120610Y-140140D01*
X177165D01*
X178063Y-139962D01*
X178824Y-139453D01*
X185713Y-132564D01*
X186222Y-131803D01*
X186400Y-130905D01*
X186400Y-130905D01*
Y-124003D01*
X188540Y-121863D01*
X192729D01*
Y-120455D01*
X212860D01*
X213438Y-121208D01*
X214345Y-121904D01*
X215402Y-122342D01*
X216535Y-122491D01*
X217669Y-122342D01*
X218726Y-121904D01*
X219633Y-121208D01*
X220329Y-120301D01*
X220767Y-119244D01*
X220916Y-118110D01*
X220767Y-116976D01*
X220329Y-115920D01*
X219633Y-115013D01*
X218726Y-114316D01*
X217669Y-113879D01*
X216535Y-113730D01*
X215402Y-113879D01*
X214345Y-114316D01*
X213438Y-115013D01*
X212860Y-115765D01*
X192729D01*
Y-114357D01*
X185224D01*
Y-118547D01*
X182397Y-121373D01*
X181889Y-122134D01*
X181710Y-123031D01*
Y-129934D01*
X176194Y-135450D01*
X121582D01*
X107049Y-120917D01*
X107240Y-120455D01*
X126169D01*
Y-121863D01*
X133674D01*
Y-120455D01*
X153805D01*
X154383Y-121208D01*
X155290Y-121904D01*
X156346Y-122342D01*
X157480Y-122491D01*
X158614Y-122342D01*
X159671Y-121904D01*
X160578Y-121208D01*
X161274Y-120301D01*
X161712Y-119244D01*
X161861Y-118110D01*
X161712Y-116976D01*
X161274Y-115920D01*
X160578Y-115013D01*
X159671Y-114316D01*
X158614Y-113879D01*
X157480Y-113730D01*
X156346Y-113879D01*
X155290Y-114316D01*
X154383Y-115013D01*
X153805Y-115765D01*
X133674D01*
Y-114357D01*
X126169D01*
Y-115765D01*
X107271D01*
X101068Y-109562D01*
X100307Y-109054D01*
X99409Y-108875D01*
X78727D01*
X75180Y-105328D01*
Y-92507D01*
X79077Y-88609D01*
X80293D01*
X80785Y-88986D01*
X81697Y-89364D01*
X82677Y-89493D01*
X83657Y-89364D01*
X84570Y-88986D01*
X85354Y-88385D01*
X85955Y-87601D01*
X86333Y-86688D01*
X86462Y-85708D01*
X86333Y-84728D01*
X85955Y-83816D01*
X85354Y-83032D01*
X84570Y-82430D01*
X83657Y-82052D01*
X82677Y-81923D01*
X81697Y-82052D01*
X80785Y-82430D01*
X80001Y-83032D01*
X79399Y-83816D01*
X79356Y-83919D01*
X78106D01*
X77209Y-84097D01*
X76448Y-84606D01*
X71176Y-89877D01*
X70758Y-90503D01*
X70258Y-90351D01*
Y-79632D01*
X82263Y-67628D01*
X82677Y-67682D01*
X83657Y-67553D01*
X84570Y-67175D01*
X85354Y-66574D01*
X85422Y-66484D01*
X85922Y-66654D01*
Y-68242D01*
X83091Y-71073D01*
X82677Y-71018D01*
X81697Y-71147D01*
X80785Y-71525D01*
X80001Y-72127D01*
X79399Y-72911D01*
X79021Y-73823D01*
X78892Y-74803D01*
X79021Y-75783D01*
X79399Y-76696D01*
X80001Y-77480D01*
X80785Y-78081D01*
X81697Y-78459D01*
X82677Y-78588D01*
X83657Y-78459D01*
X84570Y-78081D01*
X85354Y-77480D01*
X85955Y-76696D01*
X86333Y-75783D01*
X86462Y-74803D01*
X86408Y-74389D01*
X89925Y-70871D01*
X89940Y-70850D01*
X90438Y-70898D01*
X90580Y-71243D01*
X91182Y-72027D01*
X91966Y-72628D01*
X92879Y-73006D01*
X93858Y-73135D01*
X94838Y-73006D01*
X95751Y-72628D01*
X96535Y-72027D01*
X96789Y-71695D01*
X104453D01*
X104645Y-72157D01*
X100704Y-76098D01*
X100196Y-76859D01*
X100017Y-77756D01*
Y-85643D01*
X97400Y-88260D01*
X96242D01*
X95751Y-87883D01*
X94838Y-87505D01*
X93858Y-87376D01*
X92879Y-87505D01*
X91966Y-87883D01*
X91182Y-88485D01*
X90580Y-89269D01*
X90202Y-90181D01*
X90073Y-91161D01*
X90202Y-92141D01*
X90580Y-93054D01*
X91182Y-93838D01*
X91966Y-94439D01*
X92879Y-94817D01*
X93858Y-94946D01*
X94838Y-94817D01*
X95751Y-94439D01*
X96535Y-93838D01*
X97136Y-93054D01*
X97179Y-92950D01*
X98371D01*
X99269Y-92772D01*
X100029Y-92263D01*
X104020Y-88272D01*
X104529Y-87512D01*
X104707Y-86614D01*
Y-82164D01*
X105207Y-82064D01*
X105242Y-82149D01*
X105844Y-82933D01*
X106628Y-83534D01*
X107541Y-83912D01*
X108520Y-84041D01*
X109500Y-83912D01*
X110413Y-83534D01*
X111197Y-82933D01*
X111798Y-82149D01*
X112177Y-81236D01*
X112305Y-80256D01*
X112177Y-79277D01*
X112134Y-79173D01*
X112613Y-78694D01*
X113121Y-77933D01*
X113300Y-77035D01*
Y-75509D01*
X119534Y-69274D01*
X123638D01*
X123808Y-69774D01*
X123308Y-70158D01*
X122706Y-70942D01*
X122328Y-71855D01*
X122199Y-72835D01*
X122328Y-73814D01*
X122706Y-74727D01*
X123308Y-75511D01*
X124092Y-76113D01*
X125005Y-76491D01*
X125984Y-76620D01*
X126964Y-76491D01*
X127877Y-76113D01*
X128661Y-75511D01*
X128915Y-75180D01*
X171653D01*
X172550Y-75001D01*
X173311Y-74493D01*
X173609Y-74195D01*
X216548D01*
X233875Y-91523D01*
Y-106299D01*
X234054Y-107197D01*
X234562Y-107957D01*
X244279Y-117674D01*
Y-121863D01*
X251784D01*
Y-120455D01*
X271915D01*
X272493Y-121208D01*
X273400Y-121904D01*
X274457Y-122342D01*
X275590Y-122491D01*
X276724Y-122342D01*
X277781Y-121904D01*
X278688Y-121208D01*
X279384Y-120301D01*
X279822Y-119244D01*
X279971Y-118110D01*
X279822Y-116976D01*
X279384Y-115920D01*
X278688Y-115013D01*
X277781Y-114316D01*
X276724Y-113879D01*
X275590Y-113730D01*
X274457Y-113879D01*
X273400Y-114316D01*
X272493Y-115013D01*
X271915Y-115765D01*
X251784D01*
Y-114357D01*
X247595D01*
X238565Y-105328D01*
Y-90551D01*
X238387Y-89654D01*
X237879Y-88893D01*
X219178Y-70192D01*
X218552Y-69774D01*
X218704Y-69274D01*
X274619D01*
X295883Y-90538D01*
Y-112205D01*
X296062Y-113102D01*
X296570Y-113863D01*
X301491Y-118784D01*
X302252Y-119292D01*
X303150Y-119471D01*
X303334D01*
Y-121863D01*
X310839D01*
Y-120455D01*
X330971D01*
X331548Y-121208D01*
X332455Y-121904D01*
X333512Y-122342D01*
X334646Y-122491D01*
X335780Y-122342D01*
X336836Y-121904D01*
X337743Y-121208D01*
X338439Y-120301D01*
X338877Y-119244D01*
X339026Y-118110D01*
X338877Y-116976D01*
X338439Y-115920D01*
X337743Y-115013D01*
X336836Y-114316D01*
X335780Y-113879D01*
X334646Y-113730D01*
X333512Y-113879D01*
X332455Y-114316D01*
X331548Y-115013D01*
X330971Y-115765D01*
X310839D01*
Y-114357D01*
X303697D01*
X300573Y-111233D01*
Y-89567D01*
X300395Y-88670D01*
X299887Y-87909D01*
X277249Y-65271D01*
X276623Y-64853D01*
X276775Y-64353D01*
X296260D01*
X297157Y-64174D01*
X297918Y-63666D01*
X308745Y-52839D01*
X309253Y-52078D01*
X309432Y-51181D01*
X309432Y-51181D01*
Y-43123D01*
X310839D01*
Y-41715D01*
X330971D01*
X331548Y-42468D01*
X332455Y-43164D01*
X333512Y-43602D01*
X334646Y-43751D01*
X335780Y-43602D01*
X336836Y-43164D01*
X337743Y-42468D01*
X338439Y-41561D01*
X338877Y-40504D01*
X339026Y-39370D01*
X338877Y-38236D01*
X338439Y-37180D01*
X337743Y-36272D01*
X336836Y-35576D01*
X335780Y-35139D01*
X334646Y-34989D01*
X333512Y-35139D01*
X332455Y-35576D01*
X331548Y-36272D01*
X330971Y-37025D01*
X310839D01*
Y-35617D01*
X303334D01*
Y-43123D01*
X304742D01*
Y-50210D01*
X295288Y-59663D01*
X239582D01*
X239391Y-59201D01*
X249690Y-48902D01*
X249690Y-48902D01*
X250198Y-48142D01*
X250377Y-47244D01*
Y-43123D01*
X251784D01*
Y-41715D01*
X271915D01*
X272493Y-42468D01*
X273400Y-43164D01*
X274457Y-43602D01*
X275590Y-43751D01*
X276724Y-43602D01*
X277781Y-43164D01*
X278688Y-42468D01*
X279384Y-41561D01*
X279822Y-40504D01*
X279971Y-39370D01*
X279822Y-38236D01*
X279384Y-37180D01*
X278688Y-36272D01*
X277781Y-35576D01*
X276724Y-35139D01*
X275590Y-34989D01*
X274457Y-35139D01*
X273400Y-35576D01*
X272493Y-36272D01*
X271915Y-37025D01*
X251784D01*
Y-35617D01*
X244279D01*
Y-43123D01*
X245686D01*
Y-46273D01*
X235249Y-56710D01*
X116551D01*
X116360Y-56248D01*
X129485Y-43123D01*
X133674D01*
Y-41715D01*
X153805D01*
X154383Y-42468D01*
X155290Y-43164D01*
X156346Y-43602D01*
X157480Y-43751D01*
X158614Y-43602D01*
X159671Y-43164D01*
X160578Y-42468D01*
X161274Y-41561D01*
X161712Y-40504D01*
X161861Y-39370D01*
X161712Y-38236D01*
X161274Y-37180D01*
X160578Y-36272D01*
X159671Y-35576D01*
X158614Y-35139D01*
X157480Y-34989D01*
X156346Y-35139D01*
X155290Y-35576D01*
X154383Y-36272D01*
X153805Y-37025D01*
X133674D01*
Y-35617D01*
X126169D01*
Y-39806D01*
X104423Y-61552D01*
X96713D01*
X96588Y-61052D01*
X97136Y-60338D01*
X97514Y-59425D01*
X97643Y-58445D01*
X97514Y-57465D01*
X97136Y-56553D01*
X96535Y-55769D01*
X95751Y-55167D01*
X94885Y-54808D01*
X94801Y-54630D01*
X94717Y-54269D01*
X126956Y-22030D01*
X176194D01*
X178757Y-24593D01*
Y-37613D01*
X178936Y-38510D01*
X179444Y-39271D01*
X181202Y-41028D01*
X181962Y-41537D01*
X182860Y-41715D01*
X185224D01*
Y-43123D01*
X192729D01*
Y-41715D01*
X212860D01*
X213438Y-42468D01*
X214345Y-43164D01*
X215402Y-43602D01*
X216535Y-43751D01*
X217669Y-43602D01*
X218726Y-43164D01*
X219633Y-42468D01*
X220329Y-41561D01*
X220767Y-40504D01*
X220916Y-39370D01*
X220767Y-38236D01*
X220329Y-37180D01*
X219633Y-36272D01*
X218726Y-35576D01*
X217669Y-35139D01*
X216535Y-34989D01*
X215402Y-35139D01*
X214345Y-35576D01*
X213438Y-36272D01*
X212860Y-37025D01*
X192729D01*
Y-35617D01*
X185224D01*
Y-37025D01*
X183831D01*
X183447Y-36641D01*
Y-23622D01*
X183269Y-22725D01*
X182761Y-21964D01*
X178824Y-18027D01*
X178063Y-17518D01*
X177165Y-17340D01*
X125984D01*
X125984Y-17340D01*
D02*
G37*
G36*
X345146Y-44059D02*
Y-48870D01*
X349956D01*
X349839Y-47978D01*
X349302Y-46682D01*
X348448Y-45568D01*
X347334Y-44714D01*
X346037Y-44177D01*
X345146Y-44059D01*
D02*
G37*
G36*
X325146D02*
Y-48870D01*
X329957D01*
X329839Y-47978D01*
X329302Y-46682D01*
X328448Y-45568D01*
X327334Y-44714D01*
X326037Y-44177D01*
X325146Y-44059D01*
D02*
G37*
G36*
X286090D02*
Y-48870D01*
X290901D01*
X290784Y-47978D01*
X290247Y-46682D01*
X289392Y-45568D01*
X288279Y-44714D01*
X286982Y-44177D01*
X286090Y-44059D01*
D02*
G37*
G36*
X266090D02*
Y-48870D01*
X270901D01*
X270784Y-47978D01*
X270247Y-46682D01*
X269392Y-45568D01*
X268279Y-44714D01*
X266982Y-44177D01*
X266090Y-44059D01*
D02*
G37*
G36*
X227035D02*
Y-48870D01*
X231846D01*
X231729Y-47978D01*
X231192Y-46682D01*
X230337Y-45568D01*
X229224Y-44714D01*
X227927Y-44177D01*
X227035Y-44059D01*
D02*
G37*
G36*
X207035D02*
Y-48870D01*
X211846D01*
X211729Y-47978D01*
X211192Y-46682D01*
X210337Y-45568D01*
X209224Y-44714D01*
X207927Y-44177D01*
X207035Y-44059D01*
D02*
G37*
G36*
X226035D02*
X225144Y-44177D01*
X223847Y-44714D01*
X222733Y-45568D01*
X221879Y-46682D01*
X221342Y-47978D01*
X221224Y-48870D01*
X226035D01*
Y-44059D01*
D02*
G37*
G36*
X206035D02*
X205144Y-44177D01*
X203847Y-44714D01*
X202733Y-45568D01*
X201879Y-46682D01*
X201342Y-47978D01*
X201224Y-48870D01*
X206035D01*
Y-44059D01*
D02*
G37*
G36*
X265090D02*
X264199Y-44177D01*
X262902Y-44714D01*
X261789Y-45568D01*
X260934Y-46682D01*
X260397Y-47978D01*
X260280Y-48870D01*
X265090D01*
Y-44059D01*
D02*
G37*
G36*
X344146D02*
X343254Y-44177D01*
X341957Y-44714D01*
X340844Y-45568D01*
X339989Y-46682D01*
X339452Y-47978D01*
X339335Y-48870D01*
X344146D01*
Y-44059D01*
D02*
G37*
G36*
X324146D02*
X323254Y-44177D01*
X321957Y-44714D01*
X320844Y-45568D01*
X319989Y-46682D01*
X319452Y-47978D01*
X319335Y-48870D01*
X324146D01*
Y-44059D01*
D02*
G37*
G36*
X285090D02*
X284199Y-44177D01*
X282902Y-44714D01*
X281789Y-45568D01*
X280934Y-46682D01*
X280397Y-47978D01*
X280280Y-48870D01*
X285090D01*
Y-44059D01*
D02*
G37*
G36*
X167980D02*
Y-48870D01*
X172791D01*
X172674Y-47978D01*
X172137Y-46682D01*
X171282Y-45568D01*
X170169Y-44714D01*
X168872Y-44177D01*
X167980Y-44059D01*
D02*
G37*
G36*
X147980D02*
Y-48870D01*
X152791D01*
X152674Y-47978D01*
X152137Y-46682D01*
X151282Y-45568D01*
X150169Y-44714D01*
X148872Y-44177D01*
X147980Y-44059D01*
D02*
G37*
G36*
X146980D02*
X146089Y-44177D01*
X144792Y-44714D01*
X143678Y-45568D01*
X142824Y-46682D01*
X142287Y-47978D01*
X142169Y-48870D01*
X146980D01*
Y-44059D01*
D02*
G37*
G36*
X166980D02*
X166089Y-44177D01*
X164792Y-44714D01*
X163678Y-45568D01*
X162824Y-46682D01*
X162287Y-47978D01*
X162169Y-48870D01*
X166980D01*
Y-44059D01*
D02*
G37*
G36*
X290901Y-49870D02*
X286090D01*
Y-54681D01*
X286982Y-54564D01*
X288279Y-54026D01*
X289392Y-53172D01*
X290247Y-52058D01*
X290784Y-50762D01*
X290901Y-49870D01*
D02*
G37*
G36*
X270901D02*
X266090D01*
Y-54681D01*
X266982Y-54564D01*
X268279Y-54026D01*
X269392Y-53172D01*
X270247Y-52058D01*
X270784Y-50762D01*
X270901Y-49870D01*
D02*
G37*
G36*
X349956D02*
X345146D01*
Y-54681D01*
X346037Y-54564D01*
X347334Y-54026D01*
X348448Y-53172D01*
X349302Y-52058D01*
X349839Y-50762D01*
X349956Y-49870D01*
D02*
G37*
G36*
X329957D02*
X325146D01*
Y-54681D01*
X326037Y-54564D01*
X327334Y-54026D01*
X328448Y-53172D01*
X329302Y-52058D01*
X329839Y-50762D01*
X329957Y-49870D01*
D02*
G37*
G36*
X231846D02*
X227035D01*
Y-54681D01*
X227927Y-54564D01*
X229224Y-54026D01*
X230337Y-53172D01*
X231192Y-52058D01*
X231729Y-50762D01*
X231846Y-49870D01*
D02*
G37*
G36*
X211846D02*
X207035D01*
Y-54681D01*
X207927Y-54564D01*
X209224Y-54026D01*
X210337Y-53172D01*
X211192Y-52058D01*
X211729Y-50762D01*
X211846Y-49870D01*
D02*
G37*
G36*
X172791Y-49870D02*
X167980D01*
Y-54681D01*
X168872Y-54564D01*
X170169Y-54026D01*
X171282Y-53172D01*
X172137Y-52058D01*
X172674Y-50762D01*
X172791Y-49870D01*
D02*
G37*
G36*
X152791D02*
X147980D01*
Y-54681D01*
X148872Y-54564D01*
X150169Y-54026D01*
X151282Y-53172D01*
X152137Y-52058D01*
X152674Y-50762D01*
X152791Y-49870D01*
D02*
G37*
G36*
X146980D02*
X142169D01*
X142287Y-50762D01*
X142824Y-52058D01*
X143678Y-53172D01*
X144792Y-54026D01*
X146089Y-54564D01*
X146980Y-54681D01*
Y-49870D01*
D02*
G37*
G36*
X166980D02*
X162169D01*
X162287Y-50762D01*
X162824Y-52058D01*
X163678Y-53172D01*
X164792Y-54026D01*
X166089Y-54564D01*
X166980Y-54681D01*
Y-49870D01*
D02*
G37*
G36*
X344146Y-49870D02*
X339335D01*
X339452Y-50762D01*
X339989Y-52058D01*
X340844Y-53172D01*
X341957Y-54026D01*
X343254Y-54564D01*
X344146Y-54681D01*
Y-49870D01*
D02*
G37*
G36*
X324146D02*
X319335D01*
X319452Y-50762D01*
X319989Y-52058D01*
X320844Y-53172D01*
X321957Y-54026D01*
X323254Y-54564D01*
X324146Y-54681D01*
Y-49870D01*
D02*
G37*
G36*
X226035D02*
X221224D01*
X221342Y-50762D01*
X221879Y-52058D01*
X222733Y-53172D01*
X223847Y-54026D01*
X225144Y-54564D01*
X226035Y-54681D01*
Y-49870D01*
D02*
G37*
G36*
X206035D02*
X201224D01*
X201342Y-50762D01*
X201879Y-52058D01*
X202733Y-53172D01*
X203847Y-54026D01*
X205144Y-54564D01*
X206035Y-54681D01*
Y-49870D01*
D02*
G37*
G36*
X285090D02*
X280280D01*
X280397Y-50762D01*
X280934Y-52058D01*
X281789Y-53172D01*
X282902Y-54026D01*
X284199Y-54564D01*
X285090Y-54681D01*
Y-49870D01*
D02*
G37*
G36*
X265090D02*
X260280D01*
X260397Y-50762D01*
X260934Y-52058D01*
X261789Y-53172D01*
X262902Y-54026D01*
X264199Y-54564D01*
X265090Y-54681D01*
Y-49870D01*
D02*
G37*
G36*
X547555Y-63606D02*
X544102D01*
Y-67059D01*
X547555D01*
Y-63606D01*
D02*
G37*
G36*
X543102D02*
X539649D01*
Y-67059D01*
X543102D01*
Y-63606D01*
D02*
G37*
G36*
X382445Y-64257D02*
Y-67678D01*
X385866D01*
X385796Y-67146D01*
X385398Y-66184D01*
X384764Y-65358D01*
X383939Y-64725D01*
X382977Y-64327D01*
X382445Y-64257D01*
D02*
G37*
G36*
X381445D02*
X380913Y-64327D01*
X379952Y-64725D01*
X379126Y-65358D01*
X378492Y-66184D01*
X378094Y-67146D01*
X378024Y-67678D01*
X381445D01*
Y-64257D01*
D02*
G37*
G36*
X423941Y-62867D02*
Y-67678D01*
X428752D01*
X428635Y-66786D01*
X428097Y-65489D01*
X427243Y-64376D01*
X426129Y-63521D01*
X424833Y-62984D01*
X423941Y-62867D01*
D02*
G37*
G36*
X403941D02*
Y-67678D01*
X408752D01*
X408635Y-66786D01*
X408098Y-65489D01*
X407243Y-64376D01*
X406130Y-63521D01*
X404833Y-62984D01*
X403941Y-62867D01*
D02*
G37*
G36*
X422941D02*
X422050Y-62984D01*
X420753Y-63521D01*
X419639Y-64376D01*
X418785Y-65489D01*
X418248Y-66786D01*
X418130Y-67678D01*
X422941D01*
Y-62867D01*
D02*
G37*
G36*
X402941D02*
X402050Y-62984D01*
X400753Y-63521D01*
X399639Y-64376D01*
X398785Y-65489D01*
X398248Y-66786D01*
X398130Y-67678D01*
X402941D01*
Y-62867D01*
D02*
G37*
G36*
X354831Y-67144D02*
Y-70366D01*
X358053D01*
X357990Y-69886D01*
X357611Y-68972D01*
X357010Y-68187D01*
X356225Y-67585D01*
X355311Y-67207D01*
X354831Y-67144D01*
D02*
G37*
G36*
X353831D02*
X353350Y-67207D01*
X352437Y-67585D01*
X351652Y-68187D01*
X351050Y-68972D01*
X350672Y-69886D01*
X350608Y-70366D01*
X353831D01*
Y-67144D01*
D02*
G37*
G36*
X618359Y-27743D02*
X610853D01*
Y-35249D01*
X612261D01*
Y-37966D01*
X587019Y-63208D01*
X586584Y-63858D01*
X586244Y-63903D01*
X585332Y-64281D01*
X584548Y-64883D01*
X583946Y-65667D01*
X583568Y-66580D01*
X583439Y-67559D01*
X583568Y-68539D01*
X583946Y-69452D01*
X584548Y-70236D01*
X585332Y-70837D01*
X586244Y-71215D01*
X587224Y-71344D01*
X588204Y-71215D01*
X589117Y-70837D01*
X589901Y-70236D01*
X590502Y-69452D01*
X590880Y-68539D01*
X591009Y-67559D01*
X590880Y-66580D01*
X590774Y-66322D01*
X590843Y-66218D01*
X590893Y-65966D01*
X616264Y-40595D01*
X616773Y-39835D01*
X616951Y-38937D01*
Y-35249D01*
X618359D01*
Y-27743D01*
D02*
G37*
G36*
X585524D02*
X578018D01*
Y-35249D01*
X579426D01*
Y-44758D01*
X574661Y-49523D01*
X574153Y-50284D01*
X573974Y-51181D01*
Y-64628D01*
X573643Y-64883D01*
X573041Y-65667D01*
X572663Y-66580D01*
X572534Y-67559D01*
X572663Y-68539D01*
X573041Y-69452D01*
X573643Y-70236D01*
X574427Y-70837D01*
X575340Y-71215D01*
X576319Y-71344D01*
X577299Y-71215D01*
X578212Y-70837D01*
X578996Y-70236D01*
X579597Y-69452D01*
X579975Y-68539D01*
X580104Y-67559D01*
X579975Y-66580D01*
X579597Y-65667D01*
X578996Y-64883D01*
X578664Y-64628D01*
Y-52153D01*
X583429Y-47387D01*
X583938Y-46626D01*
X584116Y-45729D01*
Y-35249D01*
X585524D01*
Y-27743D01*
D02*
G37*
G36*
X552808D02*
X545302D01*
Y-35249D01*
X548554D01*
X548836Y-35671D01*
Y-39370D01*
X549015Y-40268D01*
X549523Y-41028D01*
X563068Y-54574D01*
Y-64628D01*
X562737Y-64883D01*
X562135Y-65667D01*
X561757Y-66580D01*
X561628Y-67559D01*
X561757Y-68539D01*
X562135Y-69452D01*
X562737Y-70236D01*
X563521Y-70837D01*
X564433Y-71215D01*
X565413Y-71344D01*
X566393Y-71215D01*
X567306Y-70837D01*
X568090Y-70236D01*
X568691Y-69452D01*
X569069Y-68539D01*
X569198Y-67559D01*
X569069Y-66580D01*
X568691Y-65667D01*
X568090Y-64883D01*
X567758Y-64628D01*
Y-53602D01*
X567580Y-52705D01*
X567071Y-51944D01*
X553526Y-38399D01*
Y-34706D01*
X553348Y-33809D01*
X552853Y-33068D01*
Y-32949D01*
X552808Y-32722D01*
Y-27743D01*
D02*
G37*
G36*
X519973D02*
X512467D01*
Y-35249D01*
X516656D01*
X538184Y-56776D01*
X538945Y-57285D01*
X539842Y-57463D01*
X544515D01*
X548051Y-60999D01*
X548051Y-60999D01*
X551607Y-64555D01*
Y-65175D01*
X551230Y-65667D01*
X550852Y-66580D01*
X550723Y-67559D01*
X550852Y-68539D01*
X551230Y-69452D01*
X551832Y-70236D01*
X552616Y-70837D01*
X553528Y-71215D01*
X554508Y-71344D01*
X555488Y-71215D01*
X556401Y-70837D01*
X557185Y-70236D01*
X557786Y-69452D01*
X558164Y-68539D01*
X558293Y-67559D01*
X558164Y-66580D01*
X557786Y-65667D01*
X557185Y-64883D01*
X556401Y-64281D01*
X556297Y-64238D01*
Y-63584D01*
X556119Y-62686D01*
X555610Y-61925D01*
X551368Y-57683D01*
X551368Y-57683D01*
X547145Y-53460D01*
X546384Y-52952D01*
X545487Y-52773D01*
X540814D01*
X519973Y-31932D01*
Y-27743D01*
D02*
G37*
G36*
X547555Y-68059D02*
X544102D01*
Y-71512D01*
X547555D01*
Y-68059D01*
D02*
G37*
G36*
X543102D02*
X539649D01*
Y-71512D01*
X543102D01*
Y-68059D01*
D02*
G37*
G36*
X385866Y-68678D02*
X382445D01*
Y-72099D01*
X382977Y-72029D01*
X383939Y-71630D01*
X384764Y-70997D01*
X385398Y-70171D01*
X385796Y-69209D01*
X385866Y-68678D01*
D02*
G37*
G36*
X381445D02*
X378024D01*
X378094Y-69209D01*
X378492Y-70171D01*
X379126Y-70997D01*
X379952Y-71630D01*
X380913Y-72029D01*
X381445Y-72099D01*
Y-68678D01*
D02*
G37*
G36*
X486878Y-69228D02*
Y-72649D01*
X490299D01*
X490229Y-72117D01*
X489831Y-71156D01*
X489197Y-70330D01*
X488371Y-69696D01*
X487410Y-69298D01*
X486878Y-69228D01*
D02*
G37*
G36*
X485878Y-69228D02*
X485346Y-69298D01*
X484384Y-69696D01*
X483559Y-70330D01*
X482925Y-71156D01*
X482527Y-72117D01*
X482457Y-72649D01*
X485878D01*
Y-69228D01*
D02*
G37*
G36*
X486378Y-73149D02*
D01*
D01*
D01*
D02*
G37*
G36*
X422941Y-68678D02*
X418130D01*
X418248Y-69569D01*
X418785Y-70866D01*
X419639Y-71979D01*
X420753Y-72834D01*
X422050Y-73371D01*
X422941Y-73488D01*
Y-68678D01*
D02*
G37*
G36*
X402941D02*
X398130D01*
X398248Y-69569D01*
X398785Y-70866D01*
X399639Y-71979D01*
X400753Y-72834D01*
X402050Y-73371D01*
X402941Y-73488D01*
Y-68678D01*
D02*
G37*
G36*
X428752D02*
X423941D01*
Y-73488D01*
X424833Y-73371D01*
X426129Y-72834D01*
X427243Y-71979D01*
X428097Y-70866D01*
X428635Y-69569D01*
X428752Y-68678D01*
D02*
G37*
G36*
X408752D02*
X403941D01*
Y-73488D01*
X404833Y-73371D01*
X406130Y-72834D01*
X407243Y-71979D01*
X408098Y-70866D01*
X408635Y-69569D01*
X408752Y-68678D01*
D02*
G37*
G36*
X358053Y-71366D02*
X354831D01*
Y-74589D01*
X355311Y-74525D01*
X356225Y-74147D01*
X357010Y-73545D01*
X357611Y-72760D01*
X357990Y-71847D01*
X358053Y-71366D01*
D02*
G37*
G36*
X353831D02*
X350608D01*
X350672Y-71847D01*
X351050Y-72760D01*
X351652Y-73545D01*
X352437Y-74147D01*
X353350Y-74525D01*
X353831Y-74589D01*
Y-71366D01*
D02*
G37*
G36*
X413441Y-73797D02*
X412307Y-73946D01*
X411251Y-74384D01*
X410344Y-75080D01*
X409766Y-75832D01*
X385698D01*
Y-74425D01*
X378192D01*
Y-81930D01*
X385698D01*
Y-80523D01*
X409766D01*
X410344Y-81275D01*
X411251Y-81971D01*
X412307Y-82409D01*
X413441Y-82558D01*
X414575Y-82409D01*
X415631Y-81971D01*
X416539Y-81275D01*
X417235Y-80368D01*
X417673Y-79311D01*
X417822Y-78178D01*
X417673Y-77044D01*
X417235Y-75987D01*
X416539Y-75080D01*
X415631Y-74384D01*
X414575Y-73946D01*
X413441Y-73797D01*
D02*
G37*
G36*
X485878Y-73649D02*
X482457D01*
X482527Y-74181D01*
X482925Y-75143D01*
X483559Y-75968D01*
X484384Y-76602D01*
X485346Y-77000D01*
X485878Y-77070D01*
Y-73649D01*
D02*
G37*
G36*
X490299D02*
X486878D01*
Y-77070D01*
X487410Y-77000D01*
X488371Y-76602D01*
X489197Y-75968D01*
X489831Y-75143D01*
X490229Y-74181D01*
X490299Y-73649D01*
D02*
G37*
G36*
X614606Y-66016D02*
X613214Y-66153D01*
X611876Y-66559D01*
X610643Y-67218D01*
X609562Y-68105D01*
X608675Y-69186D01*
X608016Y-70419D01*
X607610Y-71758D01*
X607473Y-73149D01*
X607610Y-74541D01*
X608016Y-75879D01*
X608675Y-77112D01*
X609562Y-78193D01*
X610643Y-79080D01*
X611876Y-79740D01*
X613214Y-80146D01*
X614606Y-80283D01*
X615998Y-80146D01*
X617336Y-79740D01*
X618569Y-79080D01*
X619650Y-78193D01*
X620538Y-77112D01*
X621197Y-75879D01*
X621603Y-74541D01*
X621740Y-73149D01*
X621603Y-71758D01*
X621197Y-70419D01*
X620538Y-69186D01*
X619650Y-68105D01*
X618569Y-67218D01*
X617336Y-66559D01*
X615998Y-66153D01*
X614606Y-66016D01*
D02*
G37*
G36*
X516220D02*
X514828Y-66153D01*
X513490Y-66559D01*
X512257Y-67218D01*
X511176Y-68105D01*
X510289Y-69186D01*
X509630Y-70419D01*
X509224Y-71758D01*
X509087Y-73149D01*
X509224Y-74541D01*
X509630Y-75879D01*
X510289Y-77112D01*
X511176Y-78193D01*
X512257Y-79080D01*
X513490Y-79740D01*
X514828Y-80146D01*
X516220Y-80283D01*
X517612Y-80146D01*
X518950Y-79740D01*
X520183Y-79080D01*
X521264Y-78193D01*
X522152Y-77112D01*
X522811Y-75879D01*
X523217Y-74541D01*
X523354Y-73149D01*
X523217Y-71758D01*
X522811Y-70419D01*
X522152Y-69186D01*
X521264Y-68105D01*
X520183Y-67218D01*
X518950Y-66559D01*
X517612Y-66153D01*
X516220Y-66016D01*
D02*
G37*
G36*
X334646Y-75154D02*
X333717Y-75276D01*
X332852Y-75634D01*
X332110Y-76204D01*
X331540Y-76947D01*
X331181Y-77812D01*
X331059Y-78740D01*
X331181Y-79668D01*
X331540Y-80533D01*
X332110Y-81276D01*
X332852Y-81846D01*
X333717Y-82205D01*
X334646Y-82327D01*
X335574Y-82205D01*
X336439Y-81846D01*
X337182Y-81276D01*
X337752Y-80533D01*
X338110Y-79668D01*
X338232Y-78740D01*
X338110Y-77812D01*
X337752Y-76947D01*
X337182Y-76204D01*
X336439Y-75634D01*
X335574Y-75276D01*
X334646Y-75154D01*
D02*
G37*
G36*
X480131Y-69396D02*
X472625D01*
Y-76902D01*
X475435D01*
Y-78016D01*
X475614Y-78914D01*
X476122Y-79675D01*
X488657Y-92209D01*
X489418Y-92718D01*
X490315Y-92896D01*
X537244D01*
X538141Y-92718D01*
X538902Y-92209D01*
X548641Y-82471D01*
X549055Y-82525D01*
X550035Y-82396D01*
X550948Y-82018D01*
X551732Y-81417D01*
X552333Y-80633D01*
X552711Y-79720D01*
X552840Y-78740D01*
X552711Y-77760D01*
X552333Y-76848D01*
X551732Y-76064D01*
X550948Y-75462D01*
X550035Y-75084D01*
X549055Y-74955D01*
X548075Y-75084D01*
X547163Y-75462D01*
X546379Y-76064D01*
X545777Y-76848D01*
X545399Y-77760D01*
X545270Y-78740D01*
X545325Y-79154D01*
X536273Y-88206D01*
X491286D01*
X480379Y-77299D01*
X480131Y-76902D01*
Y-69396D01*
D02*
G37*
G36*
X93858Y-76471D02*
X92879Y-76600D01*
X91966Y-76978D01*
X91182Y-77580D01*
X90580Y-78364D01*
X90202Y-79277D01*
X90073Y-80256D01*
X90202Y-81236D01*
X90580Y-82149D01*
X91182Y-82933D01*
X91966Y-83534D01*
X92879Y-83912D01*
X93858Y-84041D01*
X94838Y-83912D01*
X95751Y-83534D01*
X96535Y-82933D01*
X97136Y-82149D01*
X97514Y-81236D01*
X97643Y-80256D01*
X97514Y-79277D01*
X97136Y-78364D01*
X96535Y-77580D01*
X95751Y-76978D01*
X94838Y-76600D01*
X93858Y-76471D01*
D02*
G37*
G36*
X142232Y-82892D02*
Y-86114D01*
X145455D01*
X145391Y-85634D01*
X145013Y-84720D01*
X144411Y-83935D01*
X143626Y-83333D01*
X142713Y-82955D01*
X142232Y-82892D01*
D02*
G37*
G36*
X141232D02*
X140752Y-82955D01*
X139838Y-83333D01*
X139053Y-83935D01*
X138452Y-84720D01*
X138073Y-85634D01*
X138010Y-86114D01*
X141232D01*
Y-82892D01*
D02*
G37*
G36*
X423941Y-82867D02*
Y-87678D01*
X428752D01*
X428635Y-86786D01*
X428097Y-85489D01*
X427243Y-84376D01*
X426129Y-83521D01*
X424833Y-82984D01*
X423941Y-82867D01*
D02*
G37*
G36*
X403941D02*
Y-87678D01*
X408752D01*
X408635Y-86786D01*
X408098Y-85489D01*
X407243Y-84376D01*
X406130Y-83521D01*
X404833Y-82984D01*
X403941Y-82867D01*
D02*
G37*
G36*
X422941D02*
X422050Y-82984D01*
X420753Y-83521D01*
X419639Y-84376D01*
X418785Y-85489D01*
X418248Y-86786D01*
X418130Y-87678D01*
X422941D01*
Y-82867D01*
D02*
G37*
G36*
X402941D02*
X402050Y-82984D01*
X400753Y-83521D01*
X399639Y-84376D01*
X398785Y-85489D01*
X398248Y-86786D01*
X398130Y-87678D01*
X402941D01*
Y-82867D01*
D02*
G37*
G36*
X268216Y-86829D02*
Y-90051D01*
X271439D01*
X271376Y-89571D01*
X270997Y-88657D01*
X270395Y-87872D01*
X269611Y-87270D01*
X268697Y-86892D01*
X268216Y-86829D01*
D02*
G37*
G36*
X267216D02*
X266736Y-86892D01*
X265822Y-87270D01*
X265038Y-87872D01*
X264436Y-88657D01*
X264057Y-89571D01*
X263994Y-90051D01*
X267216D01*
Y-86829D01*
D02*
G37*
G36*
X145455Y-87114D02*
X142232D01*
Y-90337D01*
X142713Y-90273D01*
X143626Y-89895D01*
X144411Y-89293D01*
X145013Y-88508D01*
X145391Y-87595D01*
X145455Y-87114D01*
D02*
G37*
G36*
X141232D02*
X138010D01*
X138073Y-87595D01*
X138452Y-88508D01*
X139053Y-89293D01*
X139838Y-89895D01*
X140752Y-90273D01*
X141232Y-90337D01*
Y-87114D01*
D02*
G37*
G36*
X422941Y-88678D02*
X418130D01*
X418248Y-89569D01*
X418785Y-90866D01*
X419639Y-91979D01*
X420753Y-92834D01*
X422050Y-93371D01*
X422941Y-93489D01*
Y-88678D01*
D02*
G37*
G36*
X402941D02*
X398130D01*
X398248Y-89569D01*
X398785Y-90866D01*
X399639Y-91979D01*
X400753Y-92834D01*
X402050Y-93371D01*
X402941Y-93489D01*
Y-88678D01*
D02*
G37*
G36*
X428752D02*
X423941D01*
Y-93489D01*
X424833Y-93371D01*
X426129Y-92834D01*
X427243Y-91979D01*
X428097Y-90866D01*
X428635Y-89569D01*
X428752Y-88678D01*
D02*
G37*
G36*
X408752D02*
X403941D01*
Y-93489D01*
X404833Y-93371D01*
X406130Y-92834D01*
X407243Y-91979D01*
X408098Y-90866D01*
X408635Y-89569D01*
X408752Y-88678D01*
D02*
G37*
G36*
X271439Y-91051D02*
X268216D01*
Y-94274D01*
X268697Y-94210D01*
X269611Y-93832D01*
X270395Y-93230D01*
X270997Y-92445D01*
X271376Y-91532D01*
X271439Y-91051D01*
D02*
G37*
G36*
X267216D02*
X263994D01*
X264057Y-91532D01*
X264436Y-92445D01*
X265038Y-93230D01*
X265822Y-93832D01*
X266736Y-94210D01*
X267216Y-94274D01*
Y-91051D01*
D02*
G37*
G36*
X86630Y-92661D02*
X83177D01*
Y-96114D01*
X86630D01*
Y-92661D01*
D02*
G37*
G36*
X82177D02*
X78724D01*
Y-96114D01*
X82177D01*
Y-92661D01*
D02*
G37*
G36*
X86630Y-97114D02*
X83177D01*
Y-100567D01*
X86630D01*
Y-97114D01*
D02*
G37*
G36*
X82177D02*
X78724D01*
Y-100567D01*
X82177D01*
Y-97114D01*
D02*
G37*
G36*
X307587Y-104189D02*
Y-107610D01*
X311008D01*
X310938Y-107078D01*
X310539Y-106117D01*
X309906Y-105291D01*
X309080Y-104657D01*
X308119Y-104259D01*
X307587Y-104189D01*
D02*
G37*
G36*
X306587Y-104189D02*
X306055Y-104259D01*
X305093Y-104657D01*
X304268Y-105291D01*
X303634Y-106117D01*
X303236Y-107078D01*
X303166Y-107610D01*
X306587D01*
Y-104189D01*
D02*
G37*
G36*
X248532Y-104189D02*
Y-107610D01*
X251953D01*
X251883Y-107078D01*
X251484Y-106117D01*
X250851Y-105291D01*
X250025Y-104657D01*
X249063Y-104259D01*
X248532Y-104189D01*
D02*
G37*
G36*
X227035Y-102799D02*
Y-107610D01*
X231846D01*
X231729Y-106719D01*
X231192Y-105422D01*
X230337Y-104308D01*
X229224Y-103454D01*
X227927Y-102917D01*
X227035Y-102799D01*
D02*
G37*
G36*
X207035D02*
Y-107610D01*
X211846D01*
X211729Y-106719D01*
X211192Y-105422D01*
X210337Y-104308D01*
X209224Y-103454D01*
X207927Y-102917D01*
X207035Y-102799D01*
D02*
G37*
G36*
X189476Y-104189D02*
Y-107610D01*
X192897D01*
X192827Y-107078D01*
X192429Y-106117D01*
X191796Y-105291D01*
X190970Y-104657D01*
X190008Y-104259D01*
X189476Y-104189D01*
D02*
G37*
G36*
X167980Y-102799D02*
Y-107610D01*
X172791D01*
X172674Y-106719D01*
X172137Y-105422D01*
X171282Y-104308D01*
X170169Y-103454D01*
X168872Y-102917D01*
X167980Y-102799D01*
D02*
G37*
G36*
X147980D02*
Y-107610D01*
X152791D01*
X152674Y-106719D01*
X152137Y-105422D01*
X151282Y-104308D01*
X150169Y-103454D01*
X148872Y-102917D01*
X147980Y-102799D01*
D02*
G37*
G36*
X130421Y-104189D02*
Y-107610D01*
X133842D01*
X133772Y-107078D01*
X133374Y-106117D01*
X132740Y-105291D01*
X131915Y-104657D01*
X130953Y-104259D01*
X130421Y-104189D01*
D02*
G37*
G36*
X247532D02*
X247000Y-104259D01*
X246038Y-104657D01*
X245212Y-105291D01*
X244579Y-106117D01*
X244180Y-107078D01*
X244110Y-107610D01*
X247532D01*
Y-104189D01*
D02*
G37*
G36*
X129421D02*
X128889Y-104259D01*
X127928Y-104657D01*
X127102Y-105291D01*
X126469Y-106117D01*
X126070Y-107078D01*
X126000Y-107610D01*
X129421D01*
Y-104189D01*
D02*
G37*
G36*
X188476D02*
X187944Y-104259D01*
X186983Y-104657D01*
X186157Y-105291D01*
X185524Y-106117D01*
X185125Y-107078D01*
X185055Y-107610D01*
X188476D01*
Y-104189D01*
D02*
G37*
G36*
X226035Y-102799D02*
X225144Y-102917D01*
X223847Y-103454D01*
X222733Y-104308D01*
X221879Y-105422D01*
X221342Y-106719D01*
X221224Y-107610D01*
X226035D01*
Y-102799D01*
D02*
G37*
G36*
X206035D02*
X205144Y-102917D01*
X203847Y-103454D01*
X202733Y-104308D01*
X201879Y-105422D01*
X201342Y-106719D01*
X201224Y-107610D01*
X206035D01*
Y-102799D01*
D02*
G37*
G36*
X146980D02*
X146089Y-102917D01*
X144792Y-103454D01*
X143678Y-104308D01*
X142824Y-105422D01*
X142287Y-106719D01*
X142169Y-107610D01*
X146980D01*
Y-102799D01*
D02*
G37*
G36*
X166980D02*
X166089Y-102917D01*
X164792Y-103454D01*
X163678Y-104308D01*
X162824Y-105422D01*
X162287Y-106719D01*
X162169Y-107610D01*
X166980D01*
Y-102799D01*
D02*
G37*
G36*
X345146D02*
Y-107610D01*
X349957D01*
X349839Y-106719D01*
X349302Y-105422D01*
X348448Y-104308D01*
X347334Y-103454D01*
X346037Y-102917D01*
X345146Y-102799D01*
D02*
G37*
G36*
X325146D02*
Y-107610D01*
X329957D01*
X329839Y-106719D01*
X329302Y-105422D01*
X328448Y-104308D01*
X327334Y-103454D01*
X326037Y-102917D01*
X325146Y-102799D01*
D02*
G37*
G36*
X286090D02*
Y-107610D01*
X290901D01*
X290784Y-106719D01*
X290247Y-105422D01*
X289392Y-104308D01*
X288279Y-103454D01*
X286982Y-102917D01*
X286090Y-102799D01*
D02*
G37*
G36*
X266090D02*
Y-107610D01*
X270901D01*
X270784Y-106719D01*
X270247Y-105422D01*
X269392Y-104308D01*
X268279Y-103454D01*
X266982Y-102917D01*
X266090Y-102799D01*
D02*
G37*
G36*
X344146D02*
X343254Y-102917D01*
X341957Y-103454D01*
X340844Y-104308D01*
X339989Y-105422D01*
X339452Y-106719D01*
X339335Y-107610D01*
X344146D01*
Y-102799D01*
D02*
G37*
G36*
X324146D02*
X323254Y-102917D01*
X321957Y-103454D01*
X320844Y-104308D01*
X319989Y-105422D01*
X319452Y-106719D01*
X319335Y-107610D01*
X324146D01*
Y-102799D01*
D02*
G37*
G36*
X285090D02*
X284199Y-102917D01*
X282902Y-103454D01*
X281789Y-104308D01*
X280934Y-105422D01*
X280397Y-106719D01*
X280280Y-107610D01*
X285090D01*
Y-102799D01*
D02*
G37*
G36*
X265090D02*
X264199Y-102917D01*
X262902Y-103454D01*
X261789Y-104308D01*
X260934Y-105422D01*
X260397Y-106719D01*
X260280Y-107610D01*
X265090D01*
Y-102799D01*
D02*
G37*
G36*
X437563Y-105951D02*
Y-109174D01*
X440786D01*
X440722Y-108693D01*
X440344Y-107780D01*
X439742Y-106995D01*
X438957Y-106393D01*
X438044Y-106014D01*
X437563Y-105951D01*
D02*
G37*
G36*
X436563D02*
X436083Y-106014D01*
X435169Y-106393D01*
X434384Y-106995D01*
X433782Y-107780D01*
X433404Y-108693D01*
X433341Y-109174D01*
X436563D01*
Y-105951D01*
D02*
G37*
G36*
X311008Y-108610D02*
X307587D01*
Y-112031D01*
X308119Y-111961D01*
X309080Y-111563D01*
X309906Y-110929D01*
X310539Y-110104D01*
X310938Y-109142D01*
X311008Y-108610D01*
D02*
G37*
G36*
X251953Y-108610D02*
X248532D01*
Y-112031D01*
X249063Y-111961D01*
X250025Y-111563D01*
X250851Y-110929D01*
X251484Y-110104D01*
X251883Y-109142D01*
X251953Y-108610D01*
D02*
G37*
G36*
X192897D02*
X189476D01*
Y-112031D01*
X190008Y-111961D01*
X190970Y-111563D01*
X191796Y-110929D01*
X192429Y-110104D01*
X192827Y-109142D01*
X192897Y-108610D01*
D02*
G37*
G36*
X133842D02*
X130421D01*
Y-112031D01*
X130953Y-111961D01*
X131915Y-111563D01*
X132740Y-110929D01*
X133374Y-110104D01*
X133772Y-109142D01*
X133842Y-108610D01*
D02*
G37*
G36*
X247532D02*
X244110D01*
X244180Y-109142D01*
X244579Y-110104D01*
X245212Y-110929D01*
X246038Y-111563D01*
X247000Y-111961D01*
X247532Y-112031D01*
Y-108610D01*
D02*
G37*
G36*
X188476D02*
X185055D01*
X185125Y-109142D01*
X185524Y-110104D01*
X186157Y-110929D01*
X186983Y-111563D01*
X187944Y-111961D01*
X188476Y-112031D01*
Y-108610D01*
D02*
G37*
G36*
X129421D02*
X126000D01*
X126070Y-109142D01*
X126469Y-110104D01*
X127102Y-110929D01*
X127928Y-111563D01*
X128889Y-111961D01*
X129421Y-112031D01*
Y-108610D01*
D02*
G37*
G36*
X306587Y-108610D02*
X303166D01*
X303236Y-109142D01*
X303634Y-110104D01*
X304268Y-110929D01*
X305093Y-111563D01*
X306055Y-111961D01*
X306587Y-112031D01*
Y-108610D01*
D02*
G37*
G36*
X440786Y-110174D02*
X437563D01*
Y-113396D01*
X438044Y-113333D01*
X438957Y-112954D01*
X439742Y-112352D01*
X440344Y-111568D01*
X440722Y-110654D01*
X440786Y-110174D01*
D02*
G37*
G36*
X436563D02*
X433341D01*
X433404Y-110654D01*
X433782Y-111568D01*
X434384Y-112352D01*
X435169Y-112954D01*
X436083Y-113333D01*
X436563Y-113396D01*
Y-110174D01*
D02*
G37*
G36*
X172791Y-108610D02*
X167980D01*
Y-113421D01*
X168872Y-113304D01*
X170169Y-112767D01*
X171282Y-111912D01*
X172137Y-110799D01*
X172674Y-109502D01*
X172791Y-108610D01*
D02*
G37*
G36*
X231846D02*
X227035D01*
Y-113421D01*
X227927Y-113304D01*
X229224Y-112767D01*
X230337Y-111912D01*
X231192Y-110799D01*
X231729Y-109502D01*
X231846Y-108610D01*
D02*
G37*
G36*
X211846D02*
X207035D01*
Y-113421D01*
X207927Y-113304D01*
X209224Y-112767D01*
X210337Y-111912D01*
X211192Y-110799D01*
X211729Y-109502D01*
X211846Y-108610D01*
D02*
G37*
G36*
X152791D02*
X147980D01*
Y-113421D01*
X148872Y-113304D01*
X150169Y-112767D01*
X151282Y-111912D01*
X152137Y-110799D01*
X152674Y-109502D01*
X152791Y-108610D01*
D02*
G37*
G36*
X349957Y-108610D02*
X345146D01*
Y-113421D01*
X346037Y-113304D01*
X347334Y-112767D01*
X348448Y-111912D01*
X349302Y-110799D01*
X349839Y-109502D01*
X349957Y-108610D01*
D02*
G37*
G36*
X329957D02*
X325146D01*
Y-113421D01*
X326037Y-113304D01*
X327334Y-112767D01*
X328448Y-111912D01*
X329302Y-110799D01*
X329839Y-109502D01*
X329957Y-108610D01*
D02*
G37*
G36*
X290901D02*
X286090D01*
Y-113421D01*
X286982Y-113304D01*
X288279Y-112767D01*
X289392Y-111912D01*
X290247Y-110799D01*
X290784Y-109502D01*
X290901Y-108610D01*
D02*
G37*
G36*
X270901D02*
X266090D01*
Y-113421D01*
X266982Y-113304D01*
X268279Y-112767D01*
X269392Y-111912D01*
X270247Y-110799D01*
X270784Y-109502D01*
X270901Y-108610D01*
D02*
G37*
G36*
X344146D02*
X339335D01*
X339452Y-109502D01*
X339989Y-110799D01*
X340844Y-111912D01*
X341957Y-112767D01*
X343254Y-113304D01*
X344146Y-113421D01*
Y-108610D01*
D02*
G37*
G36*
X324146D02*
X319335D01*
X319452Y-109502D01*
X319989Y-110799D01*
X320844Y-111912D01*
X321957Y-112767D01*
X323254Y-113304D01*
X324146Y-113421D01*
Y-108610D01*
D02*
G37*
G36*
X285090D02*
X280280D01*
X280397Y-109502D01*
X280934Y-110799D01*
X281789Y-111912D01*
X282902Y-112767D01*
X284199Y-113304D01*
X285090Y-113421D01*
Y-108610D01*
D02*
G37*
G36*
X265090D02*
X260280D01*
X260397Y-109502D01*
X260934Y-110799D01*
X261789Y-111912D01*
X262902Y-112767D01*
X264199Y-113304D01*
X265090Y-113421D01*
Y-108610D01*
D02*
G37*
G36*
X226035Y-108610D02*
X221224D01*
X221342Y-109502D01*
X221879Y-110799D01*
X222733Y-111912D01*
X223847Y-112767D01*
X225144Y-113304D01*
X226035Y-113421D01*
Y-108610D01*
D02*
G37*
G36*
X206035D02*
X201224D01*
X201342Y-109502D01*
X201879Y-110799D01*
X202733Y-111912D01*
X203847Y-112767D01*
X205144Y-113304D01*
X206035Y-113421D01*
Y-108610D01*
D02*
G37*
G36*
X146980D02*
X142169D01*
X142287Y-109502D01*
X142824Y-110799D01*
X143678Y-111912D01*
X144792Y-112767D01*
X146089Y-113304D01*
X146980Y-113421D01*
Y-108610D01*
D02*
G37*
G36*
X166980D02*
X162169D01*
X162287Y-109502D01*
X162824Y-110799D01*
X163678Y-111912D01*
X164792Y-112767D01*
X166089Y-113304D01*
X166980Y-113421D01*
Y-108610D01*
D02*
G37*
G36*
X413941Y-113825D02*
Y-117048D01*
X417164D01*
X417100Y-116567D01*
X416722Y-115654D01*
X416120Y-114869D01*
X415335Y-114267D01*
X414422Y-113888D01*
X413941Y-113825D01*
D02*
G37*
G36*
X412941D02*
X412461Y-113888D01*
X411547Y-114267D01*
X410762Y-114869D01*
X410160Y-115654D01*
X409782Y-116567D01*
X409719Y-117048D01*
X412941D01*
Y-113825D01*
D02*
G37*
G36*
X417164Y-118048D02*
X413941D01*
Y-121270D01*
X414422Y-121207D01*
X415335Y-120828D01*
X416120Y-120226D01*
X416722Y-119442D01*
X417100Y-118528D01*
X417164Y-118048D01*
D02*
G37*
G36*
X412941D02*
X409719D01*
X409782Y-118528D01*
X410160Y-119442D01*
X410762Y-120226D01*
X411547Y-120828D01*
X412461Y-121207D01*
X412941Y-121270D01*
Y-118048D01*
D02*
G37*
G36*
X612862Y-122063D02*
Y-125484D01*
X616283D01*
X616213Y-124952D01*
X615815Y-123991D01*
X615181Y-123165D01*
X614356Y-122531D01*
X613394Y-122133D01*
X612862Y-122063D01*
D02*
G37*
G36*
X581366D02*
Y-125484D01*
X584787D01*
X584717Y-124952D01*
X584319Y-123991D01*
X583685Y-123165D01*
X582860Y-122531D01*
X581898Y-122133D01*
X581366Y-122063D01*
D02*
G37*
G36*
X549870Y-122063D02*
Y-125484D01*
X553291D01*
X553221Y-124952D01*
X552823Y-123991D01*
X552189Y-123165D01*
X551364Y-122531D01*
X550402Y-122133D01*
X549870Y-122063D01*
D02*
G37*
G36*
X548870Y-122063D02*
X548338Y-122133D01*
X547377Y-122531D01*
X546551Y-123165D01*
X545917Y-123991D01*
X545519Y-124952D01*
X545449Y-125484D01*
X548870D01*
Y-122063D01*
D02*
G37*
G36*
X580366D02*
X579834Y-122133D01*
X578873Y-122531D01*
X578047Y-123165D01*
X577413Y-123991D01*
X577015Y-124952D01*
X576945Y-125484D01*
X580366D01*
Y-122063D01*
D02*
G37*
G36*
X611862Y-122063D02*
X611330Y-122133D01*
X610369Y-122531D01*
X609543Y-123165D01*
X608910Y-123991D01*
X608511Y-124952D01*
X608441Y-125484D01*
X611862D01*
Y-122063D01*
D02*
G37*
G36*
X227035Y-122799D02*
Y-127610D01*
X231846D01*
X231729Y-126719D01*
X231192Y-125422D01*
X230337Y-124308D01*
X229224Y-123454D01*
X227927Y-122917D01*
X227035Y-122799D01*
D02*
G37*
G36*
X207035D02*
Y-127610D01*
X211846D01*
X211729Y-126719D01*
X211192Y-125422D01*
X210337Y-124308D01*
X209224Y-123454D01*
X207927Y-122917D01*
X207035Y-122799D01*
D02*
G37*
G36*
X167980D02*
Y-127610D01*
X172791D01*
X172674Y-126719D01*
X172137Y-125422D01*
X171282Y-124308D01*
X170169Y-123454D01*
X168872Y-122917D01*
X167980Y-122799D01*
D02*
G37*
G36*
X147980D02*
Y-127610D01*
X152791D01*
X152674Y-126719D01*
X152137Y-125422D01*
X151282Y-124308D01*
X150169Y-123454D01*
X148872Y-122917D01*
X147980Y-122799D01*
D02*
G37*
G36*
X226035D02*
X225144Y-122917D01*
X223847Y-123454D01*
X222733Y-124308D01*
X221879Y-125422D01*
X221342Y-126719D01*
X221224Y-127610D01*
X226035D01*
Y-122799D01*
D02*
G37*
G36*
X206035D02*
X205144Y-122917D01*
X203847Y-123454D01*
X202733Y-124308D01*
X201879Y-125422D01*
X201342Y-126719D01*
X201224Y-127610D01*
X206035D01*
Y-122799D01*
D02*
G37*
G36*
X146980D02*
X146089Y-122917D01*
X144792Y-123454D01*
X143678Y-124308D01*
X142824Y-125422D01*
X142287Y-126719D01*
X142169Y-127610D01*
X146980D01*
Y-122799D01*
D02*
G37*
G36*
X166980D02*
X166089Y-122917D01*
X164792Y-123454D01*
X163678Y-124308D01*
X162824Y-125422D01*
X162287Y-126719D01*
X162169Y-127610D01*
X166980D01*
Y-122799D01*
D02*
G37*
G36*
X345146D02*
Y-127610D01*
X349957D01*
X349839Y-126719D01*
X349302Y-125422D01*
X348448Y-124308D01*
X347334Y-123454D01*
X346037Y-122917D01*
X345146Y-122799D01*
D02*
G37*
G36*
X325146D02*
Y-127610D01*
X329957D01*
X329839Y-126719D01*
X329302Y-125422D01*
X328448Y-124308D01*
X327334Y-123454D01*
X326037Y-122917D01*
X325146Y-122799D01*
D02*
G37*
G36*
X286090D02*
Y-127610D01*
X290901D01*
X290784Y-126719D01*
X290247Y-125422D01*
X289392Y-124308D01*
X288279Y-123454D01*
X286982Y-122917D01*
X286090Y-122799D01*
D02*
G37*
G36*
X266090D02*
Y-127610D01*
X270901D01*
X270784Y-126719D01*
X270247Y-125422D01*
X269392Y-124308D01*
X268279Y-123454D01*
X266982Y-122917D01*
X266090Y-122799D01*
D02*
G37*
G36*
X265090D02*
X264199Y-122917D01*
X262902Y-123454D01*
X261789Y-124308D01*
X260934Y-125422D01*
X260397Y-126719D01*
X260280Y-127610D01*
X265090D01*
Y-122799D01*
D02*
G37*
G36*
X344146D02*
X343254Y-122917D01*
X341957Y-123454D01*
X340844Y-124308D01*
X339989Y-125422D01*
X339452Y-126719D01*
X339335Y-127610D01*
X344146D01*
Y-122799D01*
D02*
G37*
G36*
X324146D02*
X323254Y-122917D01*
X321957Y-123454D01*
X320844Y-124308D01*
X319989Y-125422D01*
X319452Y-126719D01*
X319335Y-127610D01*
X324146D01*
Y-122799D01*
D02*
G37*
G36*
X285090D02*
X284199Y-122917D01*
X282902Y-123454D01*
X281789Y-124308D01*
X280934Y-125422D01*
X280397Y-126719D01*
X280280Y-127610D01*
X285090D01*
Y-122799D01*
D02*
G37*
G36*
X581771Y-74955D02*
X580792Y-75084D01*
X579879Y-75462D01*
X579095Y-76064D01*
X578493Y-76848D01*
X578115Y-77760D01*
X577986Y-78740D01*
X578115Y-79720D01*
X578493Y-80633D01*
X579095Y-81417D01*
X579426Y-81671D01*
Y-85708D01*
X579605Y-86606D01*
X580113Y-87366D01*
X600017Y-107271D01*
Y-122231D01*
X598609D01*
Y-129737D01*
X606115D01*
Y-122231D01*
X604707D01*
Y-106299D01*
X604707Y-106299D01*
X604529Y-105402D01*
X604020Y-104641D01*
X584116Y-84737D01*
Y-81671D01*
X584448Y-81417D01*
X585049Y-80633D01*
X585427Y-79720D01*
X585556Y-78740D01*
X585427Y-77760D01*
X585049Y-76848D01*
X584448Y-76064D01*
X583664Y-75462D01*
X582751Y-75084D01*
X581771Y-74955D01*
D02*
G37*
G36*
X570866D02*
X569886Y-75084D01*
X568974Y-75462D01*
X568190Y-76064D01*
X567588Y-76848D01*
X567210Y-77760D01*
X567081Y-78740D01*
X567210Y-79720D01*
X567588Y-80633D01*
X568190Y-81417D01*
X568521Y-81671D01*
Y-122231D01*
X567113D01*
Y-129737D01*
X574619D01*
Y-122231D01*
X573211D01*
Y-81671D01*
X573543Y-81417D01*
X574144Y-80633D01*
X574522Y-79720D01*
X574651Y-78740D01*
X574522Y-77760D01*
X574144Y-76848D01*
X573543Y-76064D01*
X572759Y-75462D01*
X571846Y-75084D01*
X570866Y-74955D01*
D02*
G37*
G36*
X559960D02*
X558981Y-75084D01*
X558068Y-75462D01*
X557284Y-76064D01*
X556682Y-76848D01*
X556304Y-77760D01*
X556175Y-78740D01*
X556304Y-79720D01*
X556682Y-80633D01*
X557284Y-81417D01*
X557615Y-81671D01*
Y-88675D01*
X537712Y-108578D01*
X537204Y-109339D01*
X537025Y-110236D01*
Y-122231D01*
X535617D01*
Y-129737D01*
X543123D01*
Y-122231D01*
X541715D01*
Y-111208D01*
X561618Y-91304D01*
X562127Y-90544D01*
X562305Y-89646D01*
Y-81671D01*
X562637Y-81417D01*
X563238Y-80633D01*
X563616Y-79720D01*
X563745Y-78740D01*
X563616Y-77760D01*
X563238Y-76848D01*
X562637Y-76064D01*
X561853Y-75462D01*
X560940Y-75084D01*
X559960Y-74955D01*
D02*
G37*
G36*
X616283Y-126484D02*
X612862D01*
Y-129905D01*
X613394Y-129835D01*
X614356Y-129437D01*
X615181Y-128803D01*
X615815Y-127978D01*
X616213Y-127016D01*
X616283Y-126484D01*
D02*
G37*
G36*
X548870D02*
X545449D01*
X545519Y-127016D01*
X545917Y-127978D01*
X546551Y-128803D01*
X547377Y-129437D01*
X548338Y-129835D01*
X548870Y-129905D01*
Y-126484D01*
D02*
G37*
G36*
X584787D02*
X581366D01*
Y-129905D01*
X581898Y-129835D01*
X582860Y-129437D01*
X583685Y-128803D01*
X584319Y-127978D01*
X584717Y-127016D01*
X584787Y-126484D01*
D02*
G37*
G36*
X580366D02*
X576945D01*
X577015Y-127016D01*
X577413Y-127978D01*
X578047Y-128803D01*
X578873Y-129437D01*
X579834Y-129835D01*
X580366Y-129905D01*
Y-126484D01*
D02*
G37*
G36*
X553291D02*
X549870D01*
Y-129905D01*
X550402Y-129835D01*
X551364Y-129437D01*
X552189Y-128803D01*
X552823Y-127978D01*
X553221Y-127016D01*
X553291Y-126484D01*
D02*
G37*
G36*
X611862D02*
X608441D01*
X608511Y-127016D01*
X608910Y-127978D01*
X609543Y-128803D01*
X610369Y-129437D01*
X611330Y-129835D01*
X611862Y-129905D01*
Y-126484D01*
D02*
G37*
G36*
X172791Y-128610D02*
X167980D01*
Y-133421D01*
X168872Y-133304D01*
X170169Y-132767D01*
X171282Y-131912D01*
X172137Y-130799D01*
X172674Y-129502D01*
X172791Y-128610D01*
D02*
G37*
G36*
X231846D02*
X227035D01*
Y-133421D01*
X227927Y-133304D01*
X229224Y-132767D01*
X230337Y-131912D01*
X231192Y-130799D01*
X231729Y-129502D01*
X231846Y-128610D01*
D02*
G37*
G36*
X211846D02*
X207035D01*
Y-133421D01*
X207927Y-133304D01*
X209224Y-132767D01*
X210337Y-131912D01*
X211192Y-130799D01*
X211729Y-129502D01*
X211846Y-128610D01*
D02*
G37*
G36*
X152791D02*
X147980D01*
Y-133421D01*
X148872Y-133304D01*
X150169Y-132767D01*
X151282Y-131912D01*
X152137Y-130799D01*
X152674Y-129502D01*
X152791Y-128610D01*
D02*
G37*
G36*
X270901Y-128610D02*
X266090D01*
Y-133421D01*
X266982Y-133304D01*
X268279Y-132767D01*
X269392Y-131912D01*
X270247Y-130799D01*
X270784Y-129502D01*
X270901Y-128610D01*
D02*
G37*
G36*
X349957D02*
X345146D01*
Y-133421D01*
X346037Y-133304D01*
X347334Y-132767D01*
X348448Y-131912D01*
X349302Y-130799D01*
X349839Y-129502D01*
X349957Y-128610D01*
D02*
G37*
G36*
X329957D02*
X325146D01*
Y-133421D01*
X326037Y-133304D01*
X327334Y-132767D01*
X328448Y-131912D01*
X329302Y-130799D01*
X329839Y-129502D01*
X329957Y-128610D01*
D02*
G37*
G36*
X290901D02*
X286090D01*
Y-133421D01*
X286982Y-133304D01*
X288279Y-132767D01*
X289392Y-131912D01*
X290247Y-130799D01*
X290784Y-129502D01*
X290901Y-128610D01*
D02*
G37*
G36*
X344146D02*
X339335D01*
X339452Y-129502D01*
X339989Y-130799D01*
X340844Y-131912D01*
X341957Y-132767D01*
X343254Y-133304D01*
X344146Y-133421D01*
Y-128610D01*
D02*
G37*
G36*
X324146D02*
X319335D01*
X319452Y-129502D01*
X319989Y-130799D01*
X320844Y-131912D01*
X321957Y-132767D01*
X323254Y-133304D01*
X324146Y-133421D01*
Y-128610D01*
D02*
G37*
G36*
X285090D02*
X280280D01*
X280397Y-129502D01*
X280934Y-130799D01*
X281789Y-131912D01*
X282902Y-132767D01*
X284199Y-133304D01*
X285090Y-133421D01*
Y-128610D01*
D02*
G37*
G36*
X265090D02*
X260280D01*
X260397Y-129502D01*
X260934Y-130799D01*
X261789Y-131912D01*
X262902Y-132767D01*
X264199Y-133304D01*
X265090Y-133421D01*
Y-128610D01*
D02*
G37*
G36*
X226035Y-128610D02*
X221224D01*
X221342Y-129502D01*
X221879Y-130799D01*
X222733Y-131912D01*
X223847Y-132767D01*
X225144Y-133304D01*
X226035Y-133421D01*
Y-128610D01*
D02*
G37*
G36*
X206035D02*
X201224D01*
X201342Y-129502D01*
X201879Y-130799D01*
X202733Y-131912D01*
X203847Y-132767D01*
X205144Y-133304D01*
X206035Y-133421D01*
Y-128610D01*
D02*
G37*
G36*
X146980D02*
X142169D01*
X142287Y-129502D01*
X142824Y-130799D01*
X143678Y-131912D01*
X144792Y-132767D01*
X146089Y-133304D01*
X146980Y-133421D01*
Y-128610D01*
D02*
G37*
G36*
X166980D02*
X162169D01*
X162287Y-129502D01*
X162824Y-130799D01*
X163678Y-131912D01*
X164792Y-132767D01*
X166089Y-133304D01*
X166980Y-133421D01*
Y-128610D01*
D02*
G37*
G36*
X669791Y-129906D02*
Y-137295D01*
X677180D01*
X677077Y-136247D01*
X676625Y-134757D01*
X675892Y-133385D01*
X674904Y-132182D01*
X673702Y-131195D01*
X672329Y-130461D01*
X670840Y-130010D01*
X669791Y-129906D01*
D02*
G37*
G36*
X668791D02*
X667743Y-130010D01*
X666254Y-130461D01*
X664881Y-131195D01*
X663678Y-132182D01*
X662691Y-133385D01*
X661957Y-134757D01*
X661506Y-136247D01*
X661402Y-137295D01*
X668791D01*
Y-129906D01*
D02*
G37*
G36*
X19685Y-130058D02*
X18176Y-130207D01*
X16724Y-130647D01*
X15386Y-131362D01*
X14214Y-132324D01*
X13252Y-133497D01*
X12537Y-134834D01*
X12096Y-136286D01*
X11948Y-137795D01*
X12096Y-139305D01*
X12537Y-140756D01*
X13252Y-142094D01*
X14214Y-143266D01*
X15386Y-144229D01*
X16724Y-144944D01*
X18176Y-145384D01*
X19685Y-145533D01*
X21194Y-145384D01*
X22646Y-144944D01*
X23984Y-144229D01*
X25156Y-143266D01*
X26118Y-142094D01*
X26833Y-140756D01*
X27274Y-139305D01*
X27422Y-137795D01*
X27274Y-136286D01*
X26833Y-134834D01*
X26118Y-133497D01*
X25156Y-132324D01*
X23984Y-131362D01*
X22646Y-130647D01*
X21194Y-130207D01*
X19685Y-130058D01*
D02*
G37*
G36*
X677180Y-138295D02*
X669791D01*
Y-145684D01*
X670840Y-145581D01*
X672329Y-145129D01*
X673702Y-144396D01*
X674904Y-143408D01*
X675892Y-142206D01*
X676625Y-140833D01*
X677077Y-139344D01*
X677180Y-138295D01*
D02*
G37*
G36*
X668791D02*
X661402D01*
X661506Y-139344D01*
X661957Y-140833D01*
X662691Y-142206D01*
X663678Y-143408D01*
X664881Y-144396D01*
X666254Y-145129D01*
X667743Y-145581D01*
X668791Y-145684D01*
Y-138295D01*
D02*
G37*
%LPD*%
D11*
X0Y-157480D02*
X688976Y-157480D01*
X0Y0D02*
X688976Y0D01*
X0Y-157480D02*
Y0D01*
X688976D02*
X688976Y-157480D01*
D23*
X307087Y-39370D02*
X334646D01*
X381945Y-78178D02*
X413441D01*
X490315Y-90551D02*
X537244D01*
X477780Y-78016D02*
X490315Y-90551D01*
X476378Y-73149D02*
X477780Y-74551D01*
Y-78016D02*
Y-74551D01*
X537244Y-90551D02*
X549055Y-78740D01*
X539370Y-110236D02*
X559960Y-89646D01*
Y-78740D01*
X539370Y-125984D02*
Y-110236D01*
X570866Y-125984D02*
Y-78740D01*
X602362Y-125984D02*
Y-106299D01*
X581771Y-85708D02*
X602362Y-106299D01*
X581771Y-85708D02*
Y-78740D01*
X614606Y-38937D02*
Y-31496D01*
X588677Y-64866D02*
X614606Y-38937D01*
X587224Y-66773D02*
X588677Y-65320D01*
X587224Y-67559D02*
Y-66773D01*
X588677Y-65320D02*
Y-64866D01*
X576319Y-67559D02*
Y-51181D01*
X581771Y-45729D01*
Y-31496D01*
X551181Y-39370D02*
X565413Y-53602D01*
Y-67559D02*
Y-53602D01*
X550508Y-34033D02*
Y-32949D01*
X549055Y-31496D02*
X550508Y-32949D01*
Y-34033D02*
X551181Y-34706D01*
Y-39370D02*
Y-34706D01*
X553952Y-67003D02*
Y-63584D01*
X549710Y-59341D02*
Y-59341D01*
X553952Y-67003D02*
X554508Y-67559D01*
X549710Y-59341D02*
X553952Y-63584D01*
X545487Y-55118D02*
X549710Y-59341D01*
X539842Y-55118D02*
X545487D01*
X516220Y-31496D02*
X539842Y-55118D01*
X248031Y-118110D02*
X275590D01*
X188976D02*
X216535D01*
X129921D02*
X157480D01*
X184055Y-130905D02*
Y-123031D01*
X188976Y-118110D01*
X177165Y-137795D02*
X184055Y-130905D01*
X120610Y-137795D02*
X177165D01*
X97835Y-115021D02*
X120610Y-137795D01*
X67913Y-101378D02*
X69035Y-102499D01*
Y-107873D02*
Y-102499D01*
Y-107873D02*
X76182Y-115021D01*
X97835D01*
X67913Y-101378D02*
Y-78661D01*
X82677Y-63897D01*
X106299Y-118110D02*
X129921D01*
X99409Y-111221D02*
X106299Y-118110D01*
X77756Y-111221D02*
X99409D01*
X72835Y-106299D02*
X77756Y-111221D01*
X72835Y-106299D02*
Y-91535D01*
X82121Y-86264D02*
X82677Y-85708D01*
X78106Y-86264D02*
X82121D01*
X72835Y-91535D02*
X78106Y-86264D01*
X82677Y-85708D02*
Y-85708D01*
X307087Y-118110D02*
X334646D01*
X303150Y-117126D02*
X306102D01*
X307087Y-118110D01*
X298228Y-112205D02*
X303150Y-117126D01*
X298228Y-112205D02*
Y-89567D01*
X275590Y-66929D02*
X298228Y-89567D01*
X118563Y-66929D02*
X275590D01*
X125984Y-72835D02*
X171653D01*
X172637Y-71850D02*
X217520D01*
X171653Y-72835D02*
X172637Y-71850D01*
X110955Y-74537D02*
X118563Y-66929D01*
X110955Y-77035D02*
Y-74537D01*
X108520Y-80256D02*
Y-79470D01*
X110955Y-77035D01*
X217520Y-71850D02*
X236221Y-90551D01*
X102362Y-86614D02*
Y-77756D01*
X117263Y-62855D02*
X237794D01*
X102362Y-77756D02*
X117263Y-62855D01*
X237794D02*
X238642Y-62008D01*
X296260D02*
X307087Y-51181D01*
X238642Y-62008D02*
X296260D01*
X115610Y-59055D02*
X236221D01*
X105315Y-69350D02*
X115610Y-59055D01*
X93858Y-69350D02*
X105315D01*
X98371Y-90605D02*
X102362Y-86614D01*
X93858Y-91161D02*
X94414Y-90605D01*
X98371D01*
X307087Y-51181D02*
Y-39370D01*
X248031D02*
X275590D01*
X248031Y-47244D02*
Y-39370D01*
X236221Y-59055D02*
X248031Y-47244D01*
X236221Y-106299D02*
X248031Y-118110D01*
X236221Y-106299D02*
Y-90551D01*
X182860Y-39370D02*
X188976D01*
X181102Y-37613D02*
X182860Y-39370D01*
X181102Y-37613D02*
Y-23622D01*
X177165Y-19685D02*
X181102Y-23622D01*
X125984Y-19685D02*
X177165D01*
X82677Y-52992D02*
X92677D01*
X125984Y-19685D01*
X90551Y-63897D02*
X105394D01*
X129921Y-39370D01*
X88267Y-66181D02*
X90551Y-63897D01*
X88267Y-69213D02*
Y-66181D01*
X82677Y-74803D02*
X88267Y-69213D01*
X188976Y-39370D02*
X216535D01*
X129921D02*
X157480D01*
D24*
X539370Y-125984D02*
D03*
X602362D02*
D03*
X570866D02*
D03*
X614606Y-31496D02*
D03*
X581771D02*
D03*
X549055D02*
D03*
X516220D02*
D03*
X476378Y-73149D02*
D03*
X543602Y-67559D02*
D03*
D25*
X549370Y-125984D02*
D03*
X612362D02*
D03*
X580866D02*
D03*
X624606Y-31496D02*
D03*
X591771D02*
D03*
X559055D02*
D03*
X526220D02*
D03*
X486378Y-73149D02*
D03*
X554508Y-67559D02*
D03*
X565413D02*
D03*
X576319D02*
D03*
X587224D02*
D03*
X549055Y-78740D02*
D03*
X559960D02*
D03*
X570866D02*
D03*
X581771D02*
D03*
X82677Y-85708D02*
D03*
Y-74803D02*
D03*
Y-63897D02*
D03*
Y-52992D02*
D03*
X93858Y-91161D02*
D03*
Y-80256D02*
D03*
Y-69350D02*
D03*
Y-58445D02*
D03*
X307087Y-108110D02*
D03*
X248031D02*
D03*
X248031Y-29370D02*
D03*
X307087D02*
D03*
X129921Y-108110D02*
D03*
X188976D02*
D03*
X381945Y-68178D02*
D03*
X129921Y-29370D02*
D03*
X188976D02*
D03*
X125984Y-72835D02*
D03*
X108520Y-80256D02*
D03*
D26*
X516220Y-73149D02*
D03*
X614606D02*
D03*
X88267Y-123996D02*
D03*
Y-25610D02*
D03*
D27*
X82677Y-96614D02*
D03*
X307087Y-118110D02*
D03*
X248031D02*
D03*
X248031Y-39370D02*
D03*
X307087D02*
D03*
X129921Y-118110D02*
D03*
X188976D02*
D03*
X381945Y-78178D02*
D03*
X129921Y-39370D02*
D03*
X188976D02*
D03*
D28*
X669291Y-137795D02*
D03*
Y-19685D02*
D03*
X19685Y-137795D02*
D03*
Y-19685D02*
D03*
D29*
X216535Y-39370D02*
D03*
X413441Y-78178D02*
D03*
X275590Y-39370D02*
D03*
X334646D02*
D03*
X157480Y-118110D02*
D03*
X216535D02*
D03*
X275590D02*
D03*
X334646D02*
D03*
X157480Y-39370D02*
D03*
D30*
X206535Y-29370D02*
D03*
X226535D02*
D03*
Y-49370D02*
D03*
X206535D02*
D03*
X403441Y-68178D02*
D03*
X423441D02*
D03*
Y-88178D02*
D03*
X403441D02*
D03*
X265591Y-29370D02*
D03*
X285591D02*
D03*
Y-49370D02*
D03*
X265591D02*
D03*
X324646Y-29370D02*
D03*
X344646D02*
D03*
Y-49370D02*
D03*
X324646D02*
D03*
X147480Y-108110D02*
D03*
X167480D02*
D03*
Y-128110D02*
D03*
X147480D02*
D03*
X206535Y-108110D02*
D03*
X226535D02*
D03*
Y-128110D02*
D03*
X206535D02*
D03*
X265591Y-108110D02*
D03*
X285591D02*
D03*
Y-128110D02*
D03*
X265591D02*
D03*
X324646Y-108110D02*
D03*
X344646D02*
D03*
Y-128110D02*
D03*
X324646D02*
D03*
X147480Y-29370D02*
D03*
X167480D02*
D03*
Y-49370D02*
D03*
X147480D02*
D03*
D31*
X437063Y-109674D02*
D03*
X118110Y-11811D02*
D03*
X141732Y-86614D02*
D03*
X267717Y-90551D02*
D03*
X354331Y-70866D02*
D03*
X413441Y-117548D02*
D03*
X334646Y-78740D02*
D03*
M02*
