M48
;Layer_Color=9474304
;FILE_FORMAT=2:5
INCH,LZ
;TYPE=PLATED
T1F00S00C0.01181
T2F00S00C0.01968
T3F00S00C0.02165
T4F00S00C0.02800
T5F00S00C0.03937
%
T01
X-0007Y-0137992
X0034Y-01319
X00269Y-01178
X003Y-015
X0147638Y-00075
X01565Y00035
X0155Y0009
X01402Y00066
X01395Y-00075
X01435
X0137433Y-00105
X0134Y-001
X0131791Y-00075
X01272Y-00066
X0113Y-0008
X0100332Y-0008243
X01005Y0024501
X0055931Y0017516
Y0011812
X00495Y0009
X0042Y0010567
X0048Y-0008243
X0065Y-00075
X0017681Y-0009
X0013744Y-0008
X0010005Y0024501
X00065Y00255
X0001933Y0024
X-00051Y00196
X0029492Y0024501
T02
X0013965Y-0156465
Y-0152
X0019685Y-0110584
X00279Y-01082
X0037486Y-0112584
X00435Y-0112078
X00595Y-0154
X01635Y0033422
X0171Y0032422
X01435Y00285
X01395Y0026
X0128
X01235Y0029
X0039052Y0031878
X0033Y0034968
X0023587Y0027922
X0013288Y-0015712
X0015878Y-0019122
X-0011Y-0014
X-0016Y-00145
T03
X0012008Y-0137992
Y-012815
X0066732
Y-0137992
X0096653
Y-012815
X0151378
Y-0137992
Y000374
Y0013583
X0096653
Y000374
X0050949Y0003933
Y0013776
X-0003776
Y0003933
T04
X-0031Y-0116
X0087217Y-0110584
X01115Y-0109
X008Y-0162
X0179291Y-0164
X02155Y-01455
X0196Y-0109
X01575Y-0107
X01585Y-00505
X0197Y-00525
X0187Y-00655
X0186Y0011
X0204Y0002
X0093Y-00275
X0112Y-00485
X00695Y-00775
X00025Y-00765
X0053Y-00205
X0065Y0029
X0097Y00385
T05
X-0027224Y-01685
X-0017224
Y-00985
X-0027224
X-0002161
X0007839
X0023
X0033
X0048
X0058
Y-01685
X0048
X0033
X0023
X0007839
X-0002161
X01295Y-0171
X01395
X0151929Y-0077362
X0169291Y-00775
X0179291
X0196
X0206
X0201Y-0027
X0191
X0174
X0164
X0146047
Y00435
X0164
X0174
X0191
X0201
X0136047
X01195
X01095
X00835Y0044
X00735
X0058
X0048
X0033
X0023
X0007835
X-0002165
Y-0027205
X0007835
X0023
X0033
Y-00575
X0023
X0007835
X-0002165
X0048
X0058
X0072Y-0043
X0082
Y-00145
X0072
X01095Y-0027
X01195
X0136047
X0141929Y-0077362
X0125Y-00775
X0115
X0096653
X0086654
X-0017224Y-00575
X-0027224
Y-0027205
X-0017224
Y0044
X-0027224
M30
