M48
;Layer_Color=9474304
;FILE_FORMAT=2:5
INCH,LZ
;TYPE=PLATED
T1F00S00C0.01968
T2F00S00C0.02800
T3F00S00C0.04331
;TYPE=NON_PLATED
T4F00S00C0.13800
%
T01
X00365Y-0575
X0041945Y-0574
X00515Y-0565
X0090752Y-05745
X0113Y-0553
X01304Y-05156
X0119Y-0504
X00905Y-0506
X00585Y-0495
X00415Y-05035
X0046Y-0535
X0043Y-0556
X00485Y-0468
X0051Y-0438
X00395Y-04395
X00555Y-0427
X0045Y-0403
X0081Y-0438
X0114
X01115Y-04145
X0134Y-04615
X01265Y-0374
X012Y-03715
X00825Y-03625
X00675Y-03575
X00385
X0017Y-0354
X0016Y-03665
X00155Y-03315
Y-03085
X00405Y-0314
X00425Y-0326
X0055Y-03175
X00455Y-02925
X0041445Y-02515
X00565Y-02505
X00635Y-02535
X0074307Y-02525
X00905Y-02865
X01165Y-02615
X01225Y-0262
X0128Y-0252
X01305Y-02745
X01335Y-0309
X0003Y-01545
X00095Y-0195
X0015Y-01995
X00455Y-02085
X0057437Y-02055
X00555Y-02165
X0045063Y-01825
X00735Y-01515
X00845Y-01345
X006Y-01105
X00595Y-00955
X00725Y-00935
X0115Y-01
X0134Y-0091874
X0137795Y-0127644
X01325Y-01525
X01245Y-0167
X0118Y-02115
X0028055Y-01025
X00085Y-00995
X00185Y-0086
X0071Y-00775
X01045Y-0074437
X0113
X01235Y-00775
T02
X002Y-0537
Y-053
Y-0522
X0021Y-05075
X0022Y-047
Y-0463
Y-0456
X0021Y-0444
Y-0405
X0105
X011Y-0456
Y-0463
Y-047
X0106Y-0523
X0106563Y-053
X01065Y-05365
X0105Y-0398
X0104Y-0391
X0113Y-0352
X01125Y-02925
X01135Y-02855
X01145Y-02785
X00215
X00225Y-02855
X00215Y-02925
X00175Y-02665
X00245Y-037075
X0021Y-0391
Y-0398
X00215Y-01835
X0021197Y-01765
X00215Y-01695
X0027476Y-0156476
X00245Y-01455
X006952Y-01345
X01045Y-01515
X01075Y-01705
Y-01765
Y-01825
X0105Y-024
T03
X01355Y-0567
X00065Y-0568
Y-0558
Y-0498516
Y-0488516
Y-0436063
Y-0426063
X0135
Y-0436063
X01345Y-0488
Y-0498
X01355Y-0557
X0136Y-0348
Y-0338
X00065
Y-0348
X00085Y-02375
Y-02275
X01355Y-0227
Y-0237
X01245Y-004937
Y-003937
X01075
Y-004937
X00915Y-00495
Y-00395
X00755
Y-00495
X00115Y-00445
Y-00345
T04
X0011811Y-0586614
X0129921
Y-0011811
X0011811
M30
