G04*
G04 #@! TF.GenerationSoftware,Altium Limited,Altium Designer,21.7.1 (17)*
G04*
G04 Layer_Physical_Order=2*
G04 Layer_Color=16711680*
%FSLAX25Y25*%
%MOIN*%
G70*
G04*
G04 #@! TF.SameCoordinates,69AEE675-6442-4B96-895B-D7522D75E31D*
G04*
G04*
G04 #@! TF.FilePolarity,Positive*
G04*
G01*
G75*
%ADD11C,0.01968*%
%ADD51C,0.03000*%
%ADD52R,0.06299X0.06299*%
%ADD53C,0.06299*%
%ADD54C,0.13000*%
%ADD55R,0.06299X0.06299*%
%ADD56C,0.06299*%
%ADD57R,0.06299X0.06299*%
%ADD58C,0.05906*%
%ADD59R,0.05906X0.05906*%
%ADD60C,0.03937*%
%ADD61C,0.05512*%
%ADD62C,0.02756*%
%ADD63R,0.03937X0.03543*%
%ADD64R,0.05906X0.03937*%
G36*
X590551Y0D02*
Y-157480D01*
X0Y-157480D01*
Y0D01*
X590551Y0D01*
D02*
G37*
%LPC*%
G36*
X390264Y-12026D02*
Y-15248D01*
X393486D01*
X393423Y-14767D01*
X393044Y-13854D01*
X392442Y-13069D01*
X391658Y-12467D01*
X390744Y-12089D01*
X390264Y-12026D01*
D02*
G37*
G36*
X389264D02*
X388783Y-12089D01*
X387870Y-12467D01*
X387085Y-13069D01*
X386483Y-13854D01*
X386105Y-14767D01*
X386041Y-15248D01*
X389264D01*
Y-12026D01*
D02*
G37*
G36*
X571366Y-11796D02*
Y-19185D01*
X578755D01*
X578652Y-18136D01*
X578200Y-16647D01*
X577466Y-15275D01*
X576479Y-14072D01*
X575276Y-13085D01*
X573904Y-12351D01*
X572415Y-11899D01*
X571366Y-11796D01*
D02*
G37*
G36*
X570366D02*
X569317Y-11899D01*
X567828Y-12351D01*
X566456Y-13085D01*
X565253Y-14072D01*
X564266Y-15275D01*
X563532Y-16647D01*
X563081Y-18136D01*
X562977Y-19185D01*
X570366D01*
Y-11796D01*
D02*
G37*
G36*
X472941Y-16757D02*
Y-19185D01*
X475369D01*
X475333Y-18910D01*
X475034Y-18188D01*
X474558Y-17568D01*
X473938Y-17092D01*
X473216Y-16793D01*
X472941Y-16757D01*
D02*
G37*
G36*
X471941D02*
X471666Y-16793D01*
X470944Y-17092D01*
X470324Y-17568D01*
X469848Y-18188D01*
X469549Y-18910D01*
X469513Y-19185D01*
X471941D01*
Y-16757D01*
D02*
G37*
G36*
X393486Y-16248D02*
X390264D01*
Y-19470D01*
X390744Y-19407D01*
X391658Y-19029D01*
X392442Y-18427D01*
X393044Y-17642D01*
X393423Y-16728D01*
X393486Y-16248D01*
D02*
G37*
G36*
X389264D02*
X386041D01*
X386105Y-16728D01*
X386483Y-17642D01*
X387085Y-18427D01*
X387870Y-19029D01*
X388783Y-19407D01*
X389264Y-19470D01*
Y-16248D01*
D02*
G37*
G36*
X475369Y-20185D02*
X472941D01*
Y-22613D01*
X473216Y-22577D01*
X473938Y-22278D01*
X474558Y-21802D01*
X475034Y-21182D01*
X475333Y-20460D01*
X475369Y-20185D01*
D02*
G37*
G36*
X471941D02*
X469513D01*
X469549Y-20460D01*
X469848Y-21182D01*
X470324Y-21802D01*
X470944Y-22278D01*
X471666Y-22577D01*
X471941Y-22613D01*
Y-20185D01*
D02*
G37*
G36*
X338280Y-15735D02*
X330381D01*
Y-23635D01*
X338280D01*
Y-15735D01*
D02*
G37*
G36*
X267414D02*
X259515D01*
Y-23635D01*
X267414D01*
Y-15735D01*
D02*
G37*
G36*
X344331Y-15701D02*
X343300Y-15837D01*
X342339Y-16235D01*
X341514Y-16868D01*
X340881Y-17693D01*
X340483Y-18654D01*
X340347Y-19685D01*
X340483Y-20716D01*
X340881Y-21677D01*
X341514Y-22502D01*
X342339Y-23135D01*
X343300Y-23533D01*
X344331Y-23669D01*
X345362Y-23533D01*
X346323Y-23135D01*
X347148Y-22502D01*
X347781Y-21677D01*
X348179Y-20716D01*
X348314Y-19685D01*
X348179Y-18654D01*
X347781Y-17693D01*
X347148Y-16868D01*
X346323Y-16235D01*
X345362Y-15837D01*
X344331Y-15701D01*
D02*
G37*
G36*
X273465D02*
X272433Y-15837D01*
X271473Y-16235D01*
X270648Y-16868D01*
X270015Y-17693D01*
X269617Y-18654D01*
X269481Y-19685D01*
X269617Y-20716D01*
X270015Y-21677D01*
X270648Y-22502D01*
X271473Y-23135D01*
X272433Y-23533D01*
X273465Y-23669D01*
X274496Y-23533D01*
X275456Y-23135D01*
X276281Y-22502D01*
X276915Y-21677D01*
X277312Y-20716D01*
X277448Y-19685D01*
X277312Y-18654D01*
X276915Y-17693D01*
X276281Y-16868D01*
X275456Y-16235D01*
X274496Y-15837D01*
X273465Y-15701D01*
D02*
G37*
G36*
X354331Y-15500D02*
X353247Y-15642D01*
X352238Y-16060D01*
X351371Y-16725D01*
X350706Y-17592D01*
X350288Y-18602D01*
X350145Y-19685D01*
X350288Y-20768D01*
X350706Y-21778D01*
X351371Y-22645D01*
X352238Y-23310D01*
X353247Y-23728D01*
X354331Y-23870D01*
X355414Y-23728D01*
X356423Y-23310D01*
X357290Y-22645D01*
X357955Y-21778D01*
X358373Y-20768D01*
X358516Y-19685D01*
X358373Y-18602D01*
X357955Y-17592D01*
X357290Y-16725D01*
X356423Y-16060D01*
X355414Y-15642D01*
X354331Y-15500D01*
D02*
G37*
G36*
X283465D02*
X282381Y-15642D01*
X281372Y-16060D01*
X280505Y-16725D01*
X279840Y-17592D01*
X279422Y-18602D01*
X279279Y-19685D01*
X279422Y-20768D01*
X279840Y-21778D01*
X280505Y-22645D01*
X281372Y-23310D01*
X282381Y-23728D01*
X283465Y-23870D01*
X284548Y-23728D01*
X285557Y-23310D01*
X286424Y-22645D01*
X287089Y-21778D01*
X287507Y-20768D01*
X287650Y-19685D01*
X287507Y-18602D01*
X287089Y-17592D01*
X286424Y-16725D01*
X285557Y-16060D01*
X284548Y-15642D01*
X283465Y-15500D01*
D02*
G37*
G36*
X307587Y-23837D02*
Y-27059D01*
X310809D01*
X310746Y-26579D01*
X310367Y-25665D01*
X309765Y-24880D01*
X308981Y-24278D01*
X308067Y-23900D01*
X307587Y-23837D01*
D02*
G37*
G36*
X306587D02*
X306106Y-23900D01*
X305192Y-24278D01*
X304408Y-24880D01*
X303806Y-25665D01*
X303427Y-26579D01*
X303364Y-27059D01*
X306587D01*
Y-23837D01*
D02*
G37*
G36*
X215567Y-24591D02*
X212114D01*
Y-27059D01*
X215567D01*
Y-24591D01*
D02*
G37*
G36*
X152575D02*
X149122D01*
Y-27059D01*
X152575D01*
Y-24591D01*
D02*
G37*
G36*
X93520D02*
X90067D01*
Y-27059D01*
X93520D01*
Y-24591D01*
D02*
G37*
G36*
X211114D02*
X207661D01*
Y-26723D01*
X207493Y-27153D01*
X207161Y-27153D01*
X202087D01*
X201956Y-27153D01*
X201587Y-26835D01*
Y-24791D01*
X194082D01*
Y-30328D01*
X194505D01*
Y-31496D01*
X194684Y-32394D01*
X195192Y-33154D01*
X195953Y-33663D01*
X196850Y-33841D01*
X197748Y-33663D01*
X198509Y-33154D01*
X199017Y-32394D01*
X199196Y-31496D01*
Y-30328D01*
X201456D01*
X201587Y-30328D01*
X201956Y-30645D01*
Y-32296D01*
X207493D01*
Y-30958D01*
X207661Y-30528D01*
X207993Y-30528D01*
X211114D01*
Y-27559D01*
Y-24591D01*
D02*
G37*
G36*
X148122D02*
X144669D01*
Y-26723D01*
X144501Y-27153D01*
X144169Y-27153D01*
X139095D01*
X138964Y-27153D01*
X138595Y-26835D01*
Y-24791D01*
X131090D01*
Y-30328D01*
X131513D01*
Y-31496D01*
X131692Y-32394D01*
X132200Y-33154D01*
X132961Y-33663D01*
X133858Y-33841D01*
X134756Y-33663D01*
X135517Y-33154D01*
X136025Y-32394D01*
X136203Y-31496D01*
Y-30328D01*
X138464D01*
X138595Y-30328D01*
X138964Y-30645D01*
Y-32296D01*
X144501D01*
Y-30958D01*
X144669Y-30528D01*
X145001Y-30528D01*
X148122D01*
Y-27559D01*
Y-24591D01*
D02*
G37*
G36*
X89067D02*
X85614D01*
Y-26723D01*
X85446Y-27153D01*
X85114Y-27153D01*
X80040D01*
X79909Y-27153D01*
X79540Y-26835D01*
Y-24791D01*
X72035D01*
Y-30328D01*
X72458D01*
Y-31496D01*
X72637Y-32394D01*
X73145Y-33154D01*
X73906Y-33663D01*
X74803Y-33841D01*
X75701Y-33663D01*
X76461Y-33154D01*
X76970Y-32394D01*
X77148Y-31496D01*
Y-30328D01*
X79409D01*
X79540Y-30328D01*
X79909Y-30645D01*
Y-32296D01*
X85446D01*
Y-30958D01*
X85614Y-30528D01*
X85946Y-30528D01*
X89067D01*
Y-27559D01*
Y-24591D01*
D02*
G37*
G36*
X19685Y-11948D02*
X18176Y-12096D01*
X16724Y-12537D01*
X15386Y-13252D01*
X14214Y-14214D01*
X13252Y-15386D01*
X12537Y-16724D01*
X12096Y-18176D01*
X11948Y-19685D01*
X12096Y-21194D01*
X12537Y-22646D01*
X13252Y-23984D01*
X14214Y-25156D01*
X15386Y-26118D01*
X16724Y-26833D01*
X18176Y-27274D01*
X19685Y-27422D01*
X21194Y-27274D01*
X22646Y-26833D01*
X23984Y-26118D01*
X25156Y-25156D01*
X26118Y-23984D01*
X26833Y-22646D01*
X27274Y-21194D01*
X27422Y-19685D01*
X27274Y-18176D01*
X26833Y-16724D01*
X26118Y-15386D01*
X25156Y-14214D01*
X23984Y-13252D01*
X22646Y-12537D01*
X21194Y-12096D01*
X19685Y-11948D01*
D02*
G37*
G36*
X578755Y-20185D02*
X571366D01*
Y-27574D01*
X572415Y-27471D01*
X573904Y-27019D01*
X575276Y-26285D01*
X576479Y-25298D01*
X577466Y-24095D01*
X578200Y-22723D01*
X578652Y-21234D01*
X578755Y-20185D01*
D02*
G37*
G36*
X570366D02*
X562977D01*
X563081Y-21234D01*
X563532Y-22723D01*
X564266Y-24095D01*
X565253Y-25298D01*
X566456Y-26285D01*
X567828Y-27019D01*
X569317Y-27471D01*
X570366Y-27574D01*
Y-20185D01*
D02*
G37*
G36*
X221266Y-27182D02*
Y-29610D01*
X223695D01*
X223658Y-29335D01*
X223359Y-28613D01*
X222884Y-27993D01*
X222263Y-27517D01*
X221541Y-27218D01*
X221266Y-27182D01*
D02*
G37*
G36*
X220266D02*
X219991Y-27218D01*
X219269Y-27517D01*
X218649Y-27993D01*
X218173Y-28613D01*
X217874Y-29335D01*
X217838Y-29610D01*
X220266D01*
Y-27182D01*
D02*
G37*
G36*
X215567Y-28059D02*
X212114D01*
Y-30528D01*
X215567D01*
Y-28059D01*
D02*
G37*
G36*
X152575D02*
X149122D01*
Y-30528D01*
X152575D01*
Y-28059D01*
D02*
G37*
G36*
X244595Y-27774D02*
Y-30996D01*
X247817D01*
X247754Y-30516D01*
X247375Y-29602D01*
X246773Y-28817D01*
X245989Y-28215D01*
X245075Y-27837D01*
X244595Y-27774D01*
D02*
G37*
G36*
X243595D02*
X243114Y-27837D01*
X242200Y-28215D01*
X241416Y-28817D01*
X240814Y-29602D01*
X240435Y-30516D01*
X240372Y-30996D01*
X243595D01*
Y-27774D01*
D02*
G37*
G36*
X310809Y-28059D02*
X307587D01*
Y-31282D01*
X308067Y-31218D01*
X308981Y-30840D01*
X309765Y-30238D01*
X310367Y-29453D01*
X310746Y-28540D01*
X310809Y-28059D01*
D02*
G37*
G36*
X306587D02*
X303364D01*
X303427Y-28540D01*
X303806Y-29453D01*
X304408Y-30238D01*
X305192Y-30840D01*
X306106Y-31218D01*
X306587Y-31282D01*
Y-28059D01*
D02*
G37*
G36*
X156448Y-29702D02*
Y-32130D01*
X158876D01*
X158840Y-31855D01*
X158541Y-31133D01*
X158065Y-30513D01*
X157445Y-30037D01*
X156723Y-29738D01*
X156448Y-29702D01*
D02*
G37*
G36*
X155448D02*
X155173Y-29738D01*
X154451Y-30037D01*
X153831Y-30513D01*
X153355Y-31133D01*
X153056Y-31855D01*
X153020Y-32130D01*
X155448D01*
Y-29702D01*
D02*
G37*
G36*
X95410Y-29982D02*
Y-32410D01*
X97838D01*
X97802Y-32135D01*
X97503Y-31413D01*
X97027Y-30793D01*
X96407Y-30317D01*
X95685Y-30018D01*
X95410Y-29982D01*
D02*
G37*
G36*
X93520Y-28059D02*
X90067D01*
Y-30528D01*
X92366D01*
X92612Y-31028D01*
X92317Y-31413D01*
X92018Y-32135D01*
X91981Y-32410D01*
X94410D01*
Y-29982D01*
X94135Y-30018D01*
X93935Y-30101D01*
X93520Y-29823D01*
Y-28059D01*
D02*
G37*
G36*
X223695Y-30610D02*
X221266D01*
Y-33038D01*
X221541Y-33002D01*
X222263Y-32703D01*
X222884Y-32227D01*
X223359Y-31607D01*
X223658Y-30885D01*
X223695Y-30610D01*
D02*
G37*
G36*
X220266D02*
X217838D01*
X217874Y-30885D01*
X218173Y-31607D01*
X218649Y-32227D01*
X219269Y-32703D01*
X219991Y-33002D01*
X220266Y-33038D01*
Y-30610D01*
D02*
G37*
G36*
X247817Y-31996D02*
X244595D01*
Y-35219D01*
X245075Y-35155D01*
X245989Y-34777D01*
X246773Y-34175D01*
X247375Y-33390D01*
X247754Y-32476D01*
X247817Y-31996D01*
D02*
G37*
G36*
X243595D02*
X240372D01*
X240435Y-32476D01*
X240814Y-33390D01*
X241416Y-34175D01*
X242200Y-34777D01*
X243114Y-35155D01*
X243595Y-35219D01*
Y-31996D01*
D02*
G37*
G36*
X158876Y-33130D02*
X156448D01*
Y-35558D01*
X156723Y-35522D01*
X157445Y-35223D01*
X158065Y-34747D01*
X158541Y-34127D01*
X158840Y-33405D01*
X158876Y-33130D01*
D02*
G37*
G36*
X155448D02*
X153020D01*
X153056Y-33405D01*
X153355Y-34127D01*
X153831Y-34747D01*
X154451Y-35223D01*
X155173Y-35522D01*
X155448Y-35558D01*
Y-33130D01*
D02*
G37*
G36*
X97838Y-33410D02*
X95410D01*
Y-35838D01*
X95685Y-35802D01*
X96407Y-35503D01*
X97027Y-35027D01*
X97503Y-34407D01*
X97802Y-33685D01*
X97838Y-33410D01*
D02*
G37*
G36*
X94410D02*
X91981D01*
X92018Y-33685D01*
X92317Y-34407D01*
X92792Y-35027D01*
X93413Y-35503D01*
X94135Y-35802D01*
X94410Y-35838D01*
Y-33410D01*
D02*
G37*
G36*
X514978Y-35441D02*
Y-37870D01*
X517407D01*
X517371Y-37595D01*
X517071Y-36873D01*
X516596Y-36253D01*
X515976Y-35777D01*
X515253Y-35478D01*
X514978Y-35441D01*
D02*
G37*
G36*
X513978D02*
X513703Y-35478D01*
X512981Y-35777D01*
X512361Y-36253D01*
X511885Y-36873D01*
X511586Y-37595D01*
X511550Y-37870D01*
X513978D01*
Y-35441D01*
D02*
G37*
G36*
X508716Y-36402D02*
X505264D01*
Y-38870D01*
X508716D01*
Y-36402D01*
D02*
G37*
G36*
X419307D02*
X415854D01*
Y-38870D01*
X419307D01*
Y-36402D01*
D02*
G37*
G36*
X504264D02*
X500811D01*
Y-38534D01*
X500642Y-38964D01*
X500311Y-38964D01*
X495237D01*
X495106Y-38964D01*
X494737Y-38646D01*
Y-36602D01*
X487231D01*
Y-39612D01*
X487186Y-39839D01*
Y-40993D01*
X486531Y-41649D01*
X486022Y-42410D01*
X485844Y-43307D01*
X486022Y-44205D01*
X486531Y-44965D01*
X487292Y-45474D01*
X488189Y-45652D01*
X489086Y-45474D01*
X489847Y-44965D01*
X491190Y-43623D01*
X491698Y-42862D01*
X491842Y-42139D01*
X494605D01*
X494737Y-42139D01*
X495106Y-42456D01*
Y-44107D01*
X500642D01*
Y-42769D01*
X500811Y-42339D01*
X501143Y-42339D01*
X504264D01*
Y-39370D01*
Y-36402D01*
D02*
G37*
G36*
X414854D02*
X411402D01*
Y-38534D01*
X411233Y-38964D01*
X410902Y-38964D01*
X405828D01*
X405696Y-38964D01*
X405328Y-38646D01*
Y-36602D01*
X397822D01*
Y-39612D01*
X397777Y-39839D01*
Y-39851D01*
X395980Y-41649D01*
X395471Y-42410D01*
X395293Y-43307D01*
Y-43419D01*
X395471Y-44317D01*
X395980Y-45077D01*
X396740Y-45586D01*
X397638Y-45764D01*
X398535Y-45586D01*
X399296Y-45077D01*
X399522Y-44740D01*
X401780Y-42481D01*
X402009Y-42139D01*
X405196D01*
X405328Y-42139D01*
X405696Y-42456D01*
Y-44107D01*
X411233D01*
Y-42769D01*
X411402Y-42339D01*
X411733Y-42339D01*
X414854D01*
Y-39370D01*
Y-36402D01*
D02*
G37*
G36*
X517407Y-38870D02*
X514978D01*
Y-41298D01*
X515253Y-41262D01*
X515976Y-40963D01*
X516596Y-40487D01*
X517071Y-39867D01*
X517371Y-39145D01*
X517407Y-38870D01*
D02*
G37*
G36*
X513978D02*
X511550D01*
X511586Y-39145D01*
X511885Y-39867D01*
X512361Y-40487D01*
X512981Y-40963D01*
X513703Y-41262D01*
X513978Y-41298D01*
Y-38870D01*
D02*
G37*
G36*
X508716Y-39870D02*
X505264D01*
Y-42339D01*
X508716D01*
Y-39870D01*
D02*
G37*
G36*
X419307D02*
X415854D01*
Y-42339D01*
X419307D01*
Y-39870D01*
D02*
G37*
G36*
X421741Y-42861D02*
Y-45290D01*
X424169D01*
X424133Y-45015D01*
X423834Y-44293D01*
X423358Y-43672D01*
X422738Y-43197D01*
X422016Y-42898D01*
X421741Y-42861D01*
D02*
G37*
G36*
X420741D02*
X420466Y-42898D01*
X419744Y-43197D01*
X419124Y-43672D01*
X418648Y-44293D01*
X418349Y-45015D01*
X418313Y-45290D01*
X420741D01*
Y-42861D01*
D02*
G37*
G36*
X208674Y-39358D02*
X200775D01*
Y-47257D01*
X208674D01*
Y-39358D01*
D02*
G37*
G36*
X145682D02*
X137783D01*
Y-47257D01*
X145682D01*
Y-39358D01*
D02*
G37*
G36*
X86627D02*
X78728D01*
Y-47257D01*
X86627D01*
Y-39358D01*
D02*
G37*
G36*
X424169Y-46290D02*
X421741D01*
Y-48718D01*
X422016Y-48682D01*
X422738Y-48383D01*
X423358Y-47907D01*
X423834Y-47287D01*
X424133Y-46565D01*
X424169Y-46290D01*
D02*
G37*
G36*
X420741D02*
X418313D01*
X418349Y-46565D01*
X418648Y-47287D01*
X419124Y-47907D01*
X419744Y-48383D01*
X420466Y-48682D01*
X420741Y-48718D01*
Y-46290D01*
D02*
G37*
G36*
X443256Y-46399D02*
Y-49820D01*
X446677D01*
X446607Y-49288D01*
X446209Y-48327D01*
X445575Y-47501D01*
X444749Y-46868D01*
X443788Y-46469D01*
X443256Y-46399D01*
D02*
G37*
G36*
X442256D02*
X441724Y-46469D01*
X440763Y-46868D01*
X439937Y-47501D01*
X439303Y-48327D01*
X438905Y-49288D01*
X438835Y-49820D01*
X442256D01*
Y-46399D01*
D02*
G37*
G36*
X531996Y-47260D02*
Y-50681D01*
X535417D01*
X535347Y-50149D01*
X534949Y-49188D01*
X534315Y-48362D01*
X533490Y-47728D01*
X532528Y-47330D01*
X531996Y-47260D01*
D02*
G37*
G36*
X530996D02*
X530464Y-47330D01*
X529503Y-47728D01*
X528677Y-48362D01*
X528043Y-49188D01*
X527645Y-50149D01*
X527575Y-50681D01*
X530996D01*
Y-47260D01*
D02*
G37*
G36*
X456509Y-46568D02*
X449003D01*
Y-54073D01*
X456509D01*
Y-46568D01*
D02*
G37*
G36*
X446677Y-50820D02*
X443256D01*
Y-54241D01*
X443788Y-54171D01*
X444749Y-53773D01*
X445575Y-53140D01*
X446209Y-52314D01*
X446607Y-51352D01*
X446677Y-50820D01*
D02*
G37*
G36*
X442256D02*
X438835D01*
X438905Y-51352D01*
X439303Y-52314D01*
X439937Y-53140D01*
X440763Y-53773D01*
X441724Y-54171D01*
X442256Y-54241D01*
Y-50820D01*
D02*
G37*
G36*
X545249Y-47428D02*
X537743D01*
Y-54934D01*
X545249D01*
Y-47428D01*
D02*
G37*
G36*
X535417Y-51681D02*
X531996D01*
Y-55102D01*
X532528Y-55032D01*
X533490Y-54634D01*
X534315Y-54000D01*
X534949Y-53175D01*
X535347Y-52213D01*
X535417Y-51681D01*
D02*
G37*
G36*
X530996D02*
X527575D01*
X527645Y-52213D01*
X528043Y-53175D01*
X528677Y-54000D01*
X529503Y-54634D01*
X530464Y-55032D01*
X530996Y-55102D01*
Y-51681D01*
D02*
G37*
G36*
X204724Y-49323D02*
X203693Y-49459D01*
X202733Y-49857D01*
X201907Y-50490D01*
X201274Y-51315D01*
X200876Y-52276D01*
X200741Y-53307D01*
X200876Y-54338D01*
X201274Y-55299D01*
X201907Y-56124D01*
X202733Y-56757D01*
X203693Y-57155D01*
X204724Y-57291D01*
X205755Y-57155D01*
X206716Y-56757D01*
X207541Y-56124D01*
X208174Y-55299D01*
X208572Y-54338D01*
X208708Y-53307D01*
X208572Y-52276D01*
X208174Y-51315D01*
X207541Y-50490D01*
X206716Y-49857D01*
X205755Y-49459D01*
X204724Y-49323D01*
D02*
G37*
G36*
X141732D02*
X140701Y-49459D01*
X139740Y-49857D01*
X138915Y-50490D01*
X138282Y-51315D01*
X137884Y-52276D01*
X137749Y-53307D01*
X137884Y-54338D01*
X138282Y-55299D01*
X138915Y-56124D01*
X139740Y-56757D01*
X140701Y-57155D01*
X141732Y-57291D01*
X142763Y-57155D01*
X143724Y-56757D01*
X144549Y-56124D01*
X145182Y-55299D01*
X145580Y-54338D01*
X145716Y-53307D01*
X145580Y-52276D01*
X145182Y-51315D01*
X144549Y-50490D01*
X143724Y-49857D01*
X142763Y-49459D01*
X141732Y-49323D01*
D02*
G37*
G36*
X82677Y-49122D02*
X81594Y-49264D01*
X80585Y-49682D01*
X79718Y-50348D01*
X79053Y-51214D01*
X78634Y-52224D01*
X78492Y-53307D01*
X78634Y-54390D01*
X79053Y-55400D01*
X79718Y-56267D01*
X80585Y-56932D01*
X81594Y-57350D01*
X82677Y-57493D01*
X83760Y-57350D01*
X84770Y-56932D01*
X85637Y-56267D01*
X86302Y-55400D01*
X86720Y-54390D01*
X86863Y-53307D01*
X86720Y-52224D01*
X86302Y-51214D01*
X85637Y-50348D01*
X84770Y-49682D01*
X83760Y-49264D01*
X82677Y-49122D01*
D02*
G37*
G36*
X319398Y-54472D02*
Y-57694D01*
X322620D01*
X322557Y-57214D01*
X322178Y-56300D01*
X321576Y-55516D01*
X320792Y-54914D01*
X319878Y-54535D01*
X319398Y-54472D01*
D02*
G37*
G36*
X318398D02*
X317917Y-54535D01*
X317003Y-54914D01*
X316219Y-55516D01*
X315617Y-56300D01*
X315238Y-57214D01*
X315175Y-57694D01*
X318398D01*
Y-54472D01*
D02*
G37*
G36*
X304704Y-57281D02*
Y-59709D01*
X307133D01*
X307096Y-59434D01*
X306797Y-58712D01*
X306321Y-58092D01*
X305701Y-57616D01*
X304979Y-57317D01*
X304704Y-57281D01*
D02*
G37*
G36*
X303704D02*
X303429Y-57317D01*
X302707Y-57616D01*
X302087Y-58092D01*
X301611Y-58712D01*
X301312Y-59434D01*
X301276Y-59709D01*
X303704D01*
Y-57281D01*
D02*
G37*
G36*
X370642Y-58261D02*
Y-60689D01*
X373071D01*
X373035Y-60414D01*
X372735Y-59692D01*
X372260Y-59072D01*
X371639Y-58596D01*
X370917Y-58297D01*
X370642Y-58261D01*
D02*
G37*
G36*
X369642D02*
X369368Y-58297D01*
X368645Y-58596D01*
X368025Y-59072D01*
X367549Y-59692D01*
X367250Y-60414D01*
X367214Y-60689D01*
X369642D01*
Y-58261D01*
D02*
G37*
G36*
X322620Y-58694D02*
X319398D01*
Y-61917D01*
X319878Y-61854D01*
X320792Y-61475D01*
X321576Y-60873D01*
X322178Y-60088D01*
X322557Y-59175D01*
X322620Y-58694D01*
D02*
G37*
G36*
X318398D02*
X315175D01*
X315238Y-59175D01*
X315617Y-60088D01*
X316219Y-60873D01*
X317003Y-61475D01*
X317917Y-61854D01*
X318398Y-61917D01*
Y-58694D01*
D02*
G37*
G36*
X407335Y-54245D02*
X399436D01*
Y-62144D01*
X407335D01*
Y-54245D01*
D02*
G37*
G36*
X413386Y-54211D02*
X412355Y-54346D01*
X411394Y-54744D01*
X410569Y-55378D01*
X409936Y-56203D01*
X409538Y-57163D01*
X409402Y-58194D01*
X409538Y-59225D01*
X409936Y-60186D01*
X410569Y-61011D01*
X411394Y-61644D01*
X412355Y-62042D01*
X413386Y-62178D01*
X414417Y-62042D01*
X415378Y-61644D01*
X416203Y-61011D01*
X416836Y-60186D01*
X417234Y-59225D01*
X417370Y-58194D01*
X417234Y-57163D01*
X416836Y-56203D01*
X416203Y-55378D01*
X415378Y-54744D01*
X414417Y-54346D01*
X413386Y-54211D01*
D02*
G37*
G36*
X501824Y-55106D02*
X493924D01*
Y-63005D01*
X501824D01*
Y-55106D01*
D02*
G37*
G36*
X507874Y-55071D02*
X506843Y-55207D01*
X505882Y-55605D01*
X505057Y-56238D01*
X504424Y-57063D01*
X504026Y-58024D01*
X503890Y-59055D01*
X504026Y-60086D01*
X504424Y-61047D01*
X505057Y-61872D01*
X505882Y-62505D01*
X506843Y-62903D01*
X507874Y-63039D01*
X508905Y-62903D01*
X509866Y-62505D01*
X510691Y-61872D01*
X511324Y-61047D01*
X511722Y-60086D01*
X511858Y-59055D01*
X511722Y-58024D01*
X511324Y-57063D01*
X510691Y-56238D01*
X509866Y-55605D01*
X508905Y-55207D01*
X507874Y-55071D01*
D02*
G37*
G36*
X307133Y-60709D02*
X304704D01*
Y-63138D01*
X304979Y-63102D01*
X305701Y-62802D01*
X306321Y-62327D01*
X306797Y-61706D01*
X307096Y-60984D01*
X307133Y-60709D01*
D02*
G37*
G36*
X303704D02*
X301276D01*
X301312Y-60984D01*
X301611Y-61706D01*
X302087Y-62327D01*
X302707Y-62802D01*
X303429Y-63102D01*
X303704Y-63138D01*
Y-60709D01*
D02*
G37*
G36*
X373071Y-61689D02*
X370642D01*
Y-64118D01*
X370917Y-64081D01*
X371639Y-63782D01*
X372260Y-63306D01*
X372735Y-62686D01*
X373035Y-61964D01*
X373071Y-61689D01*
D02*
G37*
G36*
X369642D02*
X367214D01*
X367250Y-61964D01*
X367549Y-62686D01*
X368025Y-63306D01*
X368645Y-63782D01*
X369368Y-64081D01*
X369642Y-64118D01*
Y-61689D01*
D02*
G37*
G36*
X331024Y-62041D02*
Y-64469D01*
X333452D01*
X333416Y-64194D01*
X333116Y-63472D01*
X332641Y-62852D01*
X332020Y-62376D01*
X331298Y-62077D01*
X331024Y-62041D01*
D02*
G37*
G36*
X330024D02*
X329749Y-62077D01*
X329026Y-62376D01*
X328406Y-62852D01*
X327930Y-63472D01*
X327631Y-64194D01*
X327595Y-64469D01*
X330024D01*
Y-62041D01*
D02*
G37*
G36*
X255985Y-64001D02*
Y-66429D01*
X258414D01*
X258378Y-66154D01*
X258078Y-65432D01*
X257603Y-64812D01*
X256982Y-64336D01*
X256260Y-64037D01*
X255985Y-64001D01*
D02*
G37*
G36*
X254985D02*
X254711Y-64037D01*
X253988Y-64336D01*
X253368Y-64812D01*
X252892Y-65432D01*
X252593Y-66154D01*
X252557Y-66429D01*
X254985D01*
Y-64001D01*
D02*
G37*
G36*
X333452Y-65469D02*
X331024D01*
Y-67898D01*
X331298Y-67861D01*
X332020Y-67562D01*
X332641Y-67086D01*
X333116Y-66466D01*
X333416Y-65744D01*
X333452Y-65469D01*
D02*
G37*
G36*
X330024D02*
X327595D01*
X327631Y-65744D01*
X327930Y-66466D01*
X328406Y-67086D01*
X329026Y-67562D01*
X329749Y-67861D01*
X330024Y-67898D01*
Y-65469D01*
D02*
G37*
G36*
X368263Y-66801D02*
Y-69229D01*
X370691D01*
X370655Y-68954D01*
X370356Y-68232D01*
X369880Y-67612D01*
X369260Y-67136D01*
X368537Y-66837D01*
X368263Y-66801D01*
D02*
G37*
G36*
X367263D02*
X366988Y-66837D01*
X366265Y-67136D01*
X365645Y-67612D01*
X365170Y-68232D01*
X364870Y-68954D01*
X364834Y-69229D01*
X367263D01*
Y-66801D01*
D02*
G37*
G36*
X258414Y-67429D02*
X255985D01*
Y-69858D01*
X256260Y-69821D01*
X256982Y-69522D01*
X257603Y-69046D01*
X258078Y-68426D01*
X258378Y-67704D01*
X258414Y-67429D01*
D02*
G37*
G36*
X254985D02*
X252557D01*
X252593Y-67704D01*
X252892Y-68426D01*
X253368Y-69046D01*
X253988Y-69522D01*
X254711Y-69821D01*
X254985Y-69858D01*
Y-67429D01*
D02*
G37*
G36*
X301624Y-67641D02*
Y-70069D01*
X304053D01*
X304016Y-69794D01*
X303717Y-69072D01*
X303241Y-68452D01*
X302621Y-67976D01*
X301899Y-67677D01*
X301624Y-67641D01*
D02*
G37*
G36*
X300624D02*
X300349Y-67677D01*
X299627Y-67976D01*
X299007Y-68452D01*
X298531Y-69072D01*
X298232Y-69794D01*
X298196Y-70069D01*
X300624D01*
Y-67641D01*
D02*
G37*
G36*
X199161Y-66945D02*
Y-70366D01*
X202582D01*
X202512Y-69834D01*
X202114Y-68873D01*
X201481Y-68047D01*
X200655Y-67413D01*
X199693Y-67015D01*
X199161Y-66945D01*
D02*
G37*
G36*
X198161D02*
X197629Y-67015D01*
X196668Y-67413D01*
X195842Y-68047D01*
X195209Y-68873D01*
X194810Y-69834D01*
X194740Y-70366D01*
X198161D01*
Y-66945D01*
D02*
G37*
G36*
X134358D02*
Y-70366D01*
X137779D01*
X137709Y-69834D01*
X137311Y-68873D01*
X136677Y-68047D01*
X135852Y-67413D01*
X134890Y-67015D01*
X134358Y-66945D01*
D02*
G37*
G36*
X133358D02*
X132826Y-67015D01*
X131865Y-67413D01*
X131039Y-68047D01*
X130405Y-68873D01*
X130007Y-69834D01*
X129937Y-70366D01*
X133358D01*
Y-66945D01*
D02*
G37*
G36*
X73177D02*
Y-70366D01*
X76598D01*
X76528Y-69834D01*
X76130Y-68873D01*
X75496Y-68047D01*
X74671Y-67413D01*
X73709Y-67015D01*
X73177Y-66945D01*
D02*
G37*
G36*
X72177D02*
X71645Y-67015D01*
X70684Y-67413D01*
X69858Y-68047D01*
X69225Y-68873D01*
X68826Y-69834D01*
X68756Y-70366D01*
X72177D01*
Y-66945D01*
D02*
G37*
G36*
X370691Y-70229D02*
X368263D01*
Y-72657D01*
X368537Y-72621D01*
X369260Y-72322D01*
X369880Y-71846D01*
X370356Y-71226D01*
X370655Y-70504D01*
X370691Y-70229D01*
D02*
G37*
G36*
X367263D02*
X364834D01*
X364870Y-70504D01*
X365170Y-71226D01*
X365645Y-71846D01*
X366265Y-72322D01*
X366988Y-72621D01*
X367263Y-72657D01*
Y-70229D01*
D02*
G37*
G36*
X304053Y-71069D02*
X301624D01*
Y-73497D01*
X301899Y-73461D01*
X302621Y-73162D01*
X303241Y-72686D01*
X303717Y-72066D01*
X304016Y-71344D01*
X304053Y-71069D01*
D02*
G37*
G36*
X300624D02*
X298196D01*
X298232Y-71344D01*
X298531Y-72066D01*
X299007Y-72686D01*
X299627Y-73162D01*
X300349Y-73461D01*
X300624Y-73497D01*
Y-71069D01*
D02*
G37*
G36*
X161917Y-71081D02*
Y-74303D01*
X165140D01*
X165076Y-73823D01*
X164698Y-72909D01*
X164096Y-72124D01*
X163312Y-71522D01*
X162398Y-71144D01*
X161917Y-71081D01*
D02*
G37*
G36*
X160917D02*
X160437Y-71144D01*
X159523Y-71522D01*
X158739Y-72124D01*
X158137Y-72909D01*
X157758Y-73823D01*
X157695Y-74303D01*
X160917D01*
Y-71081D01*
D02*
G37*
G36*
X98910Y-71981D02*
Y-74409D01*
X101338D01*
X101302Y-74134D01*
X101003Y-73412D01*
X100527Y-72792D01*
X99907Y-72316D01*
X99185Y-72017D01*
X98910Y-71981D01*
D02*
G37*
G36*
X97910D02*
X97635Y-72017D01*
X96912Y-72316D01*
X96292Y-72792D01*
X95817Y-73412D01*
X95517Y-74134D01*
X95481Y-74409D01*
X97910D01*
Y-71981D01*
D02*
G37*
G36*
X212414Y-67113D02*
X204909D01*
Y-74619D01*
X212414D01*
Y-67113D01*
D02*
G37*
G36*
X147611D02*
X140105D01*
Y-74619D01*
X147611D01*
Y-67113D01*
D02*
G37*
G36*
X202582Y-71366D02*
X199161D01*
Y-74787D01*
X199693Y-74717D01*
X200655Y-74319D01*
X201481Y-73685D01*
X202114Y-72860D01*
X202512Y-71898D01*
X202582Y-71366D01*
D02*
G37*
G36*
X198161D02*
X194740D01*
X194810Y-71898D01*
X195209Y-72860D01*
X195842Y-73685D01*
X196668Y-74319D01*
X197629Y-74717D01*
X198161Y-74787D01*
Y-71366D01*
D02*
G37*
G36*
X137779D02*
X134358D01*
Y-74787D01*
X134890Y-74717D01*
X135852Y-74319D01*
X136677Y-73685D01*
X137311Y-72860D01*
X137709Y-71898D01*
X137779Y-71366D01*
D02*
G37*
G36*
X133358D02*
X129937D01*
X130007Y-71898D01*
X130405Y-72860D01*
X131039Y-73685D01*
X131865Y-74319D01*
X132826Y-74717D01*
X133358Y-74787D01*
Y-71366D01*
D02*
G37*
G36*
X76598D02*
X73177D01*
Y-74787D01*
X73709Y-74717D01*
X74671Y-74319D01*
X75496Y-73685D01*
X76130Y-72860D01*
X76528Y-71898D01*
X76598Y-71366D01*
D02*
G37*
G36*
X72177D02*
X68756D01*
X68826Y-71898D01*
X69225Y-72860D01*
X69858Y-73685D01*
X70684Y-74319D01*
X71645Y-74717D01*
X72177Y-74787D01*
Y-71366D01*
D02*
G37*
G36*
X86630Y-66913D02*
X78724D01*
Y-74819D01*
X86630D01*
Y-66913D01*
D02*
G37*
G36*
X101338Y-75409D02*
X98910D01*
Y-77837D01*
X99185Y-77801D01*
X99907Y-77502D01*
X100527Y-77026D01*
X101003Y-76406D01*
X101302Y-75684D01*
X101338Y-75409D01*
D02*
G37*
G36*
X97910D02*
X95481D01*
X95517Y-75684D01*
X95817Y-76406D01*
X96292Y-77026D01*
X96912Y-77502D01*
X97635Y-77801D01*
X97910Y-77837D01*
Y-75409D01*
D02*
G37*
G36*
X371622Y-75621D02*
Y-78049D01*
X374051D01*
X374014Y-77774D01*
X373715Y-77052D01*
X373240Y-76432D01*
X372620Y-75956D01*
X371897Y-75657D01*
X371622Y-75621D01*
D02*
G37*
G36*
X370622D02*
X370347Y-75657D01*
X369625Y-75956D01*
X369005Y-76432D01*
X368529Y-77052D01*
X368230Y-77774D01*
X368194Y-78049D01*
X370622D01*
Y-75621D01*
D02*
G37*
G36*
X165140Y-75303D02*
X161917D01*
Y-78526D01*
X162398Y-78462D01*
X163312Y-78084D01*
X164096Y-77482D01*
X164698Y-76697D01*
X165076Y-75784D01*
X165140Y-75303D01*
D02*
G37*
G36*
X160917D02*
X157695D01*
X157758Y-75784D01*
X158137Y-76697D01*
X158739Y-77482D01*
X159523Y-78084D01*
X160437Y-78462D01*
X160917Y-78526D01*
Y-75303D01*
D02*
G37*
G36*
X304284Y-76740D02*
Y-79169D01*
X306713D01*
X306676Y-78894D01*
X306377Y-78172D01*
X305901Y-77552D01*
X305281Y-77076D01*
X304559Y-76777D01*
X304284Y-76740D01*
D02*
G37*
G36*
X303284D02*
X303009Y-76777D01*
X302287Y-77076D01*
X301667Y-77552D01*
X301191Y-78172D01*
X300892Y-78894D01*
X300856Y-79169D01*
X303284D01*
Y-76740D01*
D02*
G37*
G36*
X327244Y-78561D02*
Y-80989D01*
X329672D01*
X329636Y-80714D01*
X329337Y-79992D01*
X328861Y-79372D01*
X328241Y-78896D01*
X327519Y-78597D01*
X327244Y-78561D01*
D02*
G37*
G36*
X326244D02*
X325969Y-78597D01*
X325247Y-78896D01*
X324626Y-79372D01*
X324151Y-79992D01*
X323851Y-80714D01*
X323815Y-80989D01*
X326244D01*
Y-78561D01*
D02*
G37*
G36*
X374051Y-79049D02*
X371622D01*
Y-81477D01*
X371897Y-81441D01*
X372620Y-81142D01*
X373240Y-80666D01*
X373715Y-80046D01*
X374014Y-79324D01*
X374051Y-79049D01*
D02*
G37*
G36*
X370622D02*
X368194D01*
X368230Y-79324D01*
X368529Y-80046D01*
X369005Y-80666D01*
X369625Y-81142D01*
X370347Y-81441D01*
X370622Y-81477D01*
Y-79049D01*
D02*
G37*
G36*
X263685Y-79681D02*
Y-82109D01*
X266113D01*
X266077Y-81834D01*
X265778Y-81112D01*
X265302Y-80492D01*
X264682Y-80016D01*
X263960Y-79717D01*
X263685Y-79681D01*
D02*
G37*
G36*
X262685D02*
X262410Y-79717D01*
X261688Y-80016D01*
X261068Y-80492D01*
X260592Y-81112D01*
X260293Y-81834D01*
X260257Y-82109D01*
X262685D01*
Y-79681D01*
D02*
G37*
G36*
X461130Y-78955D02*
Y-82177D01*
X464352D01*
X464289Y-81697D01*
X463911Y-80783D01*
X463309Y-79998D01*
X462524Y-79396D01*
X461610Y-79018D01*
X461130Y-78955D01*
D02*
G37*
G36*
X460130D02*
X459649Y-79018D01*
X458736Y-79396D01*
X457951Y-79998D01*
X457349Y-80783D01*
X456971Y-81697D01*
X456907Y-82177D01*
X460130D01*
Y-78955D01*
D02*
G37*
G36*
X382390D02*
Y-82177D01*
X385612D01*
X385549Y-81697D01*
X385171Y-80783D01*
X384569Y-79998D01*
X383784Y-79396D01*
X382870Y-79018D01*
X382390Y-78955D01*
D02*
G37*
G36*
X381390D02*
X380909Y-79018D01*
X379996Y-79396D01*
X379211Y-79998D01*
X378609Y-80783D01*
X378231Y-81697D01*
X378167Y-82177D01*
X381390D01*
Y-78955D01*
D02*
G37*
G36*
X240657D02*
Y-82177D01*
X243880D01*
X243817Y-81697D01*
X243438Y-80783D01*
X242836Y-79998D01*
X242052Y-79396D01*
X241138Y-79018D01*
X240657Y-78955D01*
D02*
G37*
G36*
X239657D02*
X239177Y-79018D01*
X238263Y-79396D01*
X237479Y-79998D01*
X236877Y-80783D01*
X236498Y-81697D01*
X236435Y-82177D01*
X239657D01*
Y-78955D01*
D02*
G37*
G36*
X306713Y-80169D02*
X304284D01*
Y-82597D01*
X304559Y-82561D01*
X305281Y-82262D01*
X305901Y-81786D01*
X306377Y-81166D01*
X306676Y-80444D01*
X306713Y-80169D01*
D02*
G37*
G36*
X303284D02*
X300856D01*
X300892Y-80444D01*
X301191Y-81166D01*
X301667Y-81786D01*
X302287Y-82262D01*
X303009Y-82561D01*
X303284Y-82597D01*
Y-80169D01*
D02*
G37*
G36*
X329672Y-81989D02*
X327244D01*
Y-84417D01*
X327519Y-84381D01*
X328241Y-84082D01*
X328861Y-83606D01*
X329337Y-82986D01*
X329636Y-82264D01*
X329672Y-81989D01*
D02*
G37*
G36*
X326244D02*
X323815D01*
X323851Y-82264D01*
X324151Y-82986D01*
X324626Y-83606D01*
X325247Y-84082D01*
X325969Y-84381D01*
X326244Y-84417D01*
Y-81989D01*
D02*
G37*
G36*
X266113Y-83109D02*
X263685D01*
Y-85537D01*
X263960Y-85501D01*
X264682Y-85202D01*
X265302Y-84726D01*
X265778Y-84106D01*
X266077Y-83384D01*
X266113Y-83109D01*
D02*
G37*
G36*
X262685D02*
X260257D01*
X260293Y-83384D01*
X260592Y-84106D01*
X261068Y-84726D01*
X261688Y-85202D01*
X262410Y-85501D01*
X262685Y-85537D01*
Y-83109D01*
D02*
G37*
G36*
X464352Y-83177D02*
X461130D01*
Y-86400D01*
X461610Y-86336D01*
X462524Y-85958D01*
X463309Y-85356D01*
X463911Y-84571D01*
X464289Y-83658D01*
X464352Y-83177D01*
D02*
G37*
G36*
X460130D02*
X456907D01*
X456971Y-83658D01*
X457349Y-84571D01*
X457951Y-85356D01*
X458736Y-85958D01*
X459649Y-86336D01*
X460130Y-86400D01*
Y-83177D01*
D02*
G37*
G36*
X385612D02*
X382390D01*
Y-86400D01*
X382870Y-86336D01*
X383784Y-85958D01*
X384569Y-85356D01*
X385171Y-84571D01*
X385549Y-83658D01*
X385612Y-83177D01*
D02*
G37*
G36*
X381390D02*
X378167D01*
X378231Y-83658D01*
X378609Y-84571D01*
X379211Y-85356D01*
X379996Y-85958D01*
X380909Y-86336D01*
X381390Y-86400D01*
Y-83177D01*
D02*
G37*
G36*
X243880D02*
X240657D01*
Y-86400D01*
X241138Y-86336D01*
X242052Y-85958D01*
X242836Y-85356D01*
X243438Y-84571D01*
X243817Y-83658D01*
X243880Y-83177D01*
D02*
G37*
G36*
X239657D02*
X236435D01*
X236498Y-83658D01*
X236877Y-84571D01*
X237479Y-85356D01*
X238263Y-85958D01*
X239177Y-86336D01*
X239657Y-86400D01*
Y-83177D01*
D02*
G37*
G36*
X372462Y-85980D02*
Y-88409D01*
X374891D01*
X374854Y-88134D01*
X374555Y-87411D01*
X374079Y-86791D01*
X373459Y-86316D01*
X372737Y-86016D01*
X372462Y-85980D01*
D02*
G37*
G36*
X371462D02*
X371187Y-86016D01*
X370465Y-86316D01*
X369845Y-86791D01*
X369369Y-87411D01*
X369070Y-88134D01*
X369034Y-88409D01*
X371462D01*
Y-85980D01*
D02*
G37*
G36*
X304984Y-88080D02*
Y-90509D01*
X307413D01*
X307376Y-90234D01*
X307077Y-89512D01*
X306601Y-88891D01*
X305981Y-88415D01*
X305259Y-88116D01*
X304984Y-88080D01*
D02*
G37*
G36*
X303984D02*
X303709Y-88116D01*
X302987Y-88415D01*
X302367Y-88891D01*
X301891Y-89512D01*
X301592Y-90234D01*
X301556Y-90509D01*
X303984D01*
Y-88080D01*
D02*
G37*
G36*
X374891Y-89409D02*
X372462D01*
Y-91837D01*
X372737Y-91801D01*
X373459Y-91502D01*
X374079Y-91026D01*
X374555Y-90406D01*
X374854Y-89684D01*
X374891Y-89409D01*
D02*
G37*
G36*
X371462D02*
X369034D01*
X369070Y-89684D01*
X369369Y-90406D01*
X369845Y-91026D01*
X370465Y-91502D01*
X371187Y-91801D01*
X371462Y-91837D01*
Y-89409D01*
D02*
G37*
G36*
X307413Y-91509D02*
X304984D01*
Y-93937D01*
X305259Y-93901D01*
X305981Y-93602D01*
X306601Y-93126D01*
X307077Y-92506D01*
X307376Y-91783D01*
X307413Y-91509D01*
D02*
G37*
G36*
X303984D02*
X301556D01*
X301592Y-91783D01*
X301891Y-92506D01*
X302367Y-93126D01*
X302987Y-93602D01*
X303709Y-93901D01*
X303984Y-93937D01*
Y-91509D01*
D02*
G37*
G36*
X199161Y-94262D02*
Y-97683D01*
X202582D01*
X202512Y-97151D01*
X202114Y-96190D01*
X201481Y-95364D01*
X200655Y-94730D01*
X199693Y-94332D01*
X199161Y-94262D01*
D02*
G37*
G36*
X198161D02*
X197629Y-94332D01*
X196668Y-94730D01*
X195842Y-95364D01*
X195209Y-96190D01*
X194810Y-97151D01*
X194740Y-97683D01*
X198161D01*
Y-94262D01*
D02*
G37*
G36*
X134410D02*
Y-97683D01*
X137831D01*
X137761Y-97151D01*
X137363Y-96190D01*
X136730Y-95364D01*
X135904Y-94730D01*
X134942Y-94332D01*
X134410Y-94262D01*
D02*
G37*
G36*
X133410D02*
X132878Y-94332D01*
X131917Y-94730D01*
X131091Y-95364D01*
X130458Y-96190D01*
X130059Y-97151D01*
X129989Y-97683D01*
X133410D01*
Y-94262D01*
D02*
G37*
G36*
X73177Y-94504D02*
Y-97925D01*
X76598D01*
X76528Y-97393D01*
X76130Y-96432D01*
X75496Y-95606D01*
X74671Y-94972D01*
X73709Y-94574D01*
X73177Y-94504D01*
D02*
G37*
G36*
X72177D02*
X71645Y-94574D01*
X70684Y-94972D01*
X69858Y-95606D01*
X69225Y-96432D01*
X68826Y-97393D01*
X68756Y-97925D01*
X72177D01*
Y-94504D01*
D02*
G37*
G36*
X425101Y-97600D02*
Y-100028D01*
X427529D01*
X427493Y-99753D01*
X427194Y-99031D01*
X426718Y-98411D01*
X426098Y-97935D01*
X425376Y-97636D01*
X425101Y-97600D01*
D02*
G37*
G36*
X424101D02*
X423826Y-97636D01*
X423104Y-97935D01*
X422484Y-98411D01*
X422008Y-99031D01*
X421709Y-99753D01*
X421672Y-100028D01*
X424101D01*
Y-97600D01*
D02*
G37*
G36*
X513858Y-99140D02*
Y-101568D01*
X516287D01*
X516251Y-101293D01*
X515951Y-100571D01*
X515476Y-99951D01*
X514855Y-99475D01*
X514133Y-99176D01*
X513858Y-99140D01*
D02*
G37*
G36*
X512858D02*
X512583Y-99176D01*
X511861Y-99475D01*
X511241Y-99951D01*
X510765Y-100571D01*
X510466Y-101293D01*
X510430Y-101568D01*
X512858D01*
Y-99140D01*
D02*
G37*
G36*
X507890Y-99394D02*
X504437D01*
Y-101862D01*
X507890D01*
Y-99394D01*
D02*
G37*
G36*
X419307D02*
X415854D01*
Y-101862D01*
X419307D01*
Y-99394D01*
D02*
G37*
G36*
X212414Y-94430D02*
X204909D01*
Y-101936D01*
X212414D01*
Y-94430D01*
D02*
G37*
G36*
X147663D02*
X140158D01*
Y-101936D01*
X147663D01*
Y-94430D01*
D02*
G37*
G36*
X503437Y-99394D02*
X499984D01*
Y-101526D01*
X499816Y-101956D01*
X499484Y-101956D01*
X494410D01*
X494279Y-101956D01*
X493910Y-101638D01*
Y-99594D01*
X486405D01*
Y-102604D01*
X486360Y-102831D01*
Y-102929D01*
X486022Y-103433D01*
X485844Y-104331D01*
Y-106299D01*
X486022Y-107197D01*
X486531Y-107957D01*
X487292Y-108466D01*
X488189Y-108644D01*
X489086Y-108466D01*
X489847Y-107957D01*
X490355Y-107197D01*
X490534Y-106299D01*
Y-105607D01*
X490998Y-105131D01*
X493779D01*
X493910Y-105131D01*
X494279Y-105448D01*
Y-107099D01*
X499816D01*
Y-105761D01*
X499984Y-105331D01*
X500316Y-105331D01*
X503437D01*
Y-102362D01*
Y-99394D01*
D02*
G37*
G36*
X414854D02*
X411402D01*
Y-101526D01*
X411233Y-101956D01*
X410902Y-101956D01*
X405828D01*
X405696Y-101956D01*
X405328Y-101638D01*
Y-99594D01*
X397822D01*
Y-102604D01*
X397777Y-102831D01*
Y-102844D01*
X395980Y-104641D01*
X395471Y-105402D01*
X395293Y-106299D01*
X395471Y-107197D01*
X395980Y-107957D01*
X396740Y-108466D01*
X397638Y-108644D01*
X398535Y-108466D01*
X399296Y-107957D01*
X401780Y-105473D01*
X401780Y-105473D01*
X402009Y-105131D01*
X405196D01*
X405328Y-105131D01*
X405696Y-105448D01*
Y-107099D01*
X411233D01*
Y-105761D01*
X411402Y-105331D01*
X411733Y-105331D01*
X414854D01*
Y-102362D01*
Y-99394D01*
D02*
G37*
G36*
X202582Y-98683D02*
X199161D01*
Y-102104D01*
X199693Y-102034D01*
X200655Y-101636D01*
X201481Y-101002D01*
X202114Y-100177D01*
X202512Y-99215D01*
X202582Y-98683D01*
D02*
G37*
G36*
X198161D02*
X194740D01*
X194810Y-99215D01*
X195209Y-100177D01*
X195842Y-101002D01*
X196668Y-101636D01*
X197629Y-102034D01*
X198161Y-102104D01*
Y-98683D01*
D02*
G37*
G36*
X137831D02*
X134410D01*
Y-102104D01*
X134942Y-102034D01*
X135904Y-101636D01*
X136730Y-101002D01*
X137363Y-100177D01*
X137761Y-99215D01*
X137831Y-98683D01*
D02*
G37*
G36*
X133410D02*
X129989D01*
X130059Y-99215D01*
X130458Y-100177D01*
X131091Y-101002D01*
X131917Y-101636D01*
X132878Y-102034D01*
X133410Y-102104D01*
Y-98683D01*
D02*
G37*
G36*
X76598Y-98925D02*
X73177D01*
Y-102346D01*
X73709Y-102276D01*
X74671Y-101878D01*
X75496Y-101244D01*
X76130Y-100419D01*
X76528Y-99457D01*
X76598Y-98925D01*
D02*
G37*
G36*
X72177D02*
X68756D01*
X68826Y-99457D01*
X69225Y-100419D01*
X69858Y-101244D01*
X70684Y-101878D01*
X71645Y-102276D01*
X72177Y-102346D01*
Y-98925D01*
D02*
G37*
G36*
X86630Y-94472D02*
X78724D01*
Y-102378D01*
X86630D01*
Y-94472D01*
D02*
G37*
G36*
X427529Y-101028D02*
X425101D01*
Y-103456D01*
X425376Y-103420D01*
X426098Y-103121D01*
X426718Y-102645D01*
X427194Y-102025D01*
X427493Y-101303D01*
X427529Y-101028D01*
D02*
G37*
G36*
X424101D02*
X421672D01*
X421709Y-101303D01*
X422008Y-102025D01*
X422484Y-102645D01*
X423104Y-103121D01*
X423826Y-103420D01*
X424101Y-103456D01*
Y-101028D01*
D02*
G37*
G36*
X104229Y-101380D02*
Y-103808D01*
X106658D01*
X106622Y-103533D01*
X106322Y-102811D01*
X105847Y-102191D01*
X105227Y-101715D01*
X104504Y-101416D01*
X104229Y-101380D01*
D02*
G37*
G36*
X103229D02*
X102954Y-101416D01*
X102232Y-101715D01*
X101612Y-102191D01*
X101136Y-102811D01*
X100837Y-103533D01*
X100801Y-103808D01*
X103229D01*
Y-101380D01*
D02*
G37*
G36*
X516287Y-102568D02*
X513858D01*
Y-104996D01*
X514133Y-104960D01*
X514855Y-104661D01*
X515476Y-104185D01*
X515951Y-103565D01*
X516251Y-102843D01*
X516287Y-102568D01*
D02*
G37*
G36*
X512858D02*
X510430D01*
X510466Y-102843D01*
X510765Y-103565D01*
X511241Y-104185D01*
X511861Y-104661D01*
X512583Y-104960D01*
X512858Y-104996D01*
Y-102568D01*
D02*
G37*
G36*
X507890Y-102862D02*
X504437D01*
Y-105331D01*
X507890D01*
Y-102862D01*
D02*
G37*
G36*
X419307D02*
X415854D01*
Y-105331D01*
X419307D01*
Y-102862D01*
D02*
G37*
G36*
X95130Y-102920D02*
Y-105348D01*
X97558D01*
X97522Y-105073D01*
X97223Y-104351D01*
X96747Y-103731D01*
X96127Y-103255D01*
X95405Y-102956D01*
X95130Y-102920D01*
D02*
G37*
G36*
X94130D02*
X93855Y-102956D01*
X93133Y-103255D01*
X92513Y-103731D01*
X92037Y-104351D01*
X91738Y-105073D01*
X91701Y-105348D01*
X94130D01*
Y-102920D01*
D02*
G37*
G36*
X106658Y-104808D02*
X104229D01*
Y-107237D01*
X104504Y-107200D01*
X105227Y-106901D01*
X105847Y-106425D01*
X106322Y-105805D01*
X106622Y-105083D01*
X106658Y-104808D01*
D02*
G37*
G36*
X103229D02*
X100801D01*
X100837Y-105083D01*
X101136Y-105805D01*
X101612Y-106425D01*
X102232Y-106901D01*
X102954Y-107200D01*
X103229Y-107237D01*
Y-104808D01*
D02*
G37*
G36*
X97558Y-106348D02*
X95130D01*
Y-108776D01*
X95405Y-108740D01*
X96127Y-108441D01*
X96747Y-107965D01*
X97223Y-107345D01*
X97522Y-106623D01*
X97558Y-106348D01*
D02*
G37*
G36*
X94130D02*
X91701D01*
X91738Y-106623D01*
X92037Y-107345D01*
X92513Y-107965D01*
X93133Y-108441D01*
X93855Y-108740D01*
X94130Y-108776D01*
Y-106348D01*
D02*
G37*
G36*
X374516Y-106514D02*
Y-109736D01*
X377738D01*
X377675Y-109256D01*
X377296Y-108342D01*
X376694Y-107557D01*
X375910Y-106955D01*
X374996Y-106577D01*
X374516Y-106514D01*
D02*
G37*
G36*
X373516D02*
X373035Y-106577D01*
X372122Y-106955D01*
X371337Y-107557D01*
X370735Y-108342D01*
X370356Y-109256D01*
X370293Y-109736D01*
X373516D01*
Y-106514D01*
D02*
G37*
G36*
X531996Y-110252D02*
Y-113673D01*
X535417D01*
X535347Y-113141D01*
X534949Y-112180D01*
X534315Y-111354D01*
X533490Y-110721D01*
X532528Y-110322D01*
X531996Y-110252D01*
D02*
G37*
G36*
X530996D02*
X530464Y-110322D01*
X529503Y-110721D01*
X528677Y-111354D01*
X528043Y-112180D01*
X527645Y-113141D01*
X527575Y-113673D01*
X530996D01*
Y-110252D01*
D02*
G37*
G36*
X443256D02*
Y-113673D01*
X446677D01*
X446607Y-113141D01*
X446209Y-112180D01*
X445575Y-111354D01*
X444749Y-110721D01*
X443788Y-110322D01*
X443256Y-110252D01*
D02*
G37*
G36*
X442256D02*
X441724Y-110322D01*
X440763Y-110721D01*
X439937Y-111354D01*
X439303Y-112180D01*
X438905Y-113141D01*
X438835Y-113673D01*
X442256D01*
Y-110252D01*
D02*
G37*
G36*
X377738Y-110736D02*
X374516D01*
Y-113959D01*
X374996Y-113895D01*
X375910Y-113517D01*
X376694Y-112915D01*
X377296Y-112130D01*
X377675Y-111217D01*
X377738Y-110736D01*
D02*
G37*
G36*
X373516D02*
X370293D01*
X370356Y-111217D01*
X370735Y-112130D01*
X371337Y-112915D01*
X372122Y-113517D01*
X373035Y-113895D01*
X373516Y-113959D01*
Y-110736D01*
D02*
G37*
G36*
X545249Y-110421D02*
X537743D01*
Y-117926D01*
X545249D01*
Y-110421D01*
D02*
G37*
G36*
X456509D02*
X449003D01*
Y-117926D01*
X456509D01*
Y-110421D01*
D02*
G37*
G36*
X535417Y-114673D02*
X531996D01*
Y-118094D01*
X532528Y-118024D01*
X533490Y-117626D01*
X534315Y-116992D01*
X534949Y-116167D01*
X535347Y-115205D01*
X535417Y-114673D01*
D02*
G37*
G36*
X530996D02*
X527575D01*
X527645Y-115205D01*
X528043Y-116167D01*
X528677Y-116992D01*
X529503Y-117626D01*
X530464Y-118024D01*
X530996Y-118094D01*
Y-114673D01*
D02*
G37*
G36*
X446677D02*
X443256D01*
Y-118094D01*
X443788Y-118024D01*
X444749Y-117626D01*
X445575Y-116992D01*
X446209Y-116167D01*
X446607Y-115205D01*
X446677Y-114673D01*
D02*
G37*
G36*
X442256D02*
X438835D01*
X438905Y-115205D01*
X439303Y-116167D01*
X439937Y-116992D01*
X440763Y-117626D01*
X441724Y-118024D01*
X442256Y-118094D01*
Y-114673D01*
D02*
G37*
G36*
X199161Y-122063D02*
Y-125484D01*
X202582D01*
X202512Y-124952D01*
X202114Y-123991D01*
X201481Y-123165D01*
X200655Y-122531D01*
X199693Y-122133D01*
X199161Y-122063D01*
D02*
G37*
G36*
X198161D02*
X197629Y-122133D01*
X196668Y-122531D01*
X195842Y-123165D01*
X195209Y-123991D01*
X194810Y-124952D01*
X194740Y-125484D01*
X198161D01*
Y-122063D01*
D02*
G37*
G36*
X497887Y-118098D02*
X489987D01*
Y-125997D01*
X497887D01*
Y-118098D01*
D02*
G37*
G36*
X407335D02*
X399436D01*
Y-125997D01*
X407335D01*
Y-118098D01*
D02*
G37*
G36*
X503937Y-118064D02*
X502906Y-118199D01*
X501945Y-118597D01*
X501120Y-119230D01*
X500487Y-120055D01*
X500089Y-121016D01*
X499953Y-122047D01*
X500089Y-123078D01*
X500487Y-124039D01*
X501120Y-124864D01*
X501945Y-125497D01*
X502906Y-125895D01*
X503937Y-126031D01*
X504968Y-125895D01*
X505929Y-125497D01*
X506754Y-124864D01*
X507387Y-124039D01*
X507785Y-123078D01*
X507921Y-122047D01*
X507785Y-121016D01*
X507387Y-120055D01*
X506754Y-119230D01*
X505929Y-118597D01*
X504968Y-118199D01*
X503937Y-118064D01*
D02*
G37*
G36*
X413386D02*
X412355Y-118199D01*
X411394Y-118597D01*
X410569Y-119230D01*
X409936Y-120055D01*
X409538Y-121016D01*
X409402Y-122047D01*
X409538Y-123078D01*
X409936Y-124039D01*
X410569Y-124864D01*
X411394Y-125497D01*
X412355Y-125895D01*
X413386Y-126031D01*
X414417Y-125895D01*
X415378Y-125497D01*
X416203Y-124864D01*
X416836Y-124039D01*
X417234Y-123078D01*
X417370Y-122047D01*
X417234Y-121016D01*
X416836Y-120055D01*
X416203Y-119230D01*
X415378Y-118597D01*
X414417Y-118199D01*
X413386Y-118064D01*
D02*
G37*
G36*
X83177Y-126199D02*
Y-129421D01*
X86400D01*
X86336Y-128941D01*
X85958Y-128027D01*
X85356Y-127243D01*
X84571Y-126640D01*
X83658Y-126262D01*
X83177Y-126199D01*
D02*
G37*
G36*
X82177D02*
X81697Y-126262D01*
X80783Y-126640D01*
X79998Y-127243D01*
X79396Y-128027D01*
X79018Y-128941D01*
X78955Y-129421D01*
X82177D01*
Y-126199D01*
D02*
G37*
G36*
X212414Y-122231D02*
X204909D01*
Y-129737D01*
X212414D01*
Y-122231D01*
D02*
G37*
G36*
X202582Y-126484D02*
X199161D01*
Y-129905D01*
X199693Y-129835D01*
X200655Y-129437D01*
X201481Y-128803D01*
X202114Y-127978D01*
X202512Y-127016D01*
X202582Y-126484D01*
D02*
G37*
G36*
X198161D02*
X194740D01*
X194810Y-127016D01*
X195209Y-127978D01*
X195842Y-128803D01*
X196668Y-129437D01*
X197629Y-129835D01*
X198161Y-129905D01*
Y-126484D01*
D02*
G37*
G36*
X253186Y-130639D02*
Y-133067D01*
X255614D01*
X255578Y-132792D01*
X255278Y-132070D01*
X254803Y-131450D01*
X254183Y-130974D01*
X253460Y-130675D01*
X253186Y-130639D01*
D02*
G37*
G36*
X252186D02*
X251911Y-130675D01*
X251188Y-130974D01*
X250568Y-131450D01*
X250093Y-132070D01*
X249793Y-132792D01*
X249757Y-133067D01*
X252186D01*
Y-130639D01*
D02*
G37*
G36*
X119909Y-130779D02*
Y-133207D01*
X122337D01*
X122301Y-132932D01*
X122002Y-132210D01*
X121526Y-131590D01*
X120906Y-131114D01*
X120184Y-130815D01*
X119909Y-130779D01*
D02*
G37*
G36*
X118909D02*
X118634Y-130815D01*
X117912Y-131114D01*
X117292Y-131590D01*
X116816Y-132210D01*
X116517Y-132932D01*
X116481Y-133207D01*
X118909D01*
Y-130779D01*
D02*
G37*
G36*
X86400Y-130421D02*
X83177D01*
Y-133644D01*
X83658Y-133581D01*
X84571Y-133202D01*
X85356Y-132600D01*
X85958Y-131815D01*
X86336Y-130902D01*
X86400Y-130421D01*
D02*
G37*
G36*
X82177D02*
X78955D01*
X79018Y-130902D01*
X79396Y-131815D01*
X79998Y-132600D01*
X80783Y-133202D01*
X81697Y-133581D01*
X82177Y-133644D01*
Y-130421D01*
D02*
G37*
G36*
X255614Y-134067D02*
X253186D01*
Y-136496D01*
X253460Y-136460D01*
X254183Y-136160D01*
X254803Y-135685D01*
X255278Y-135064D01*
X255578Y-134342D01*
X255614Y-134067D01*
D02*
G37*
G36*
X252186D02*
X249757D01*
X249793Y-134342D01*
X250093Y-135064D01*
X250568Y-135685D01*
X251188Y-136160D01*
X251911Y-136460D01*
X252186Y-136496D01*
Y-134067D01*
D02*
G37*
G36*
X122337Y-134207D02*
X119909D01*
Y-136636D01*
X120184Y-136600D01*
X120906Y-136300D01*
X121526Y-135825D01*
X122002Y-135205D01*
X122301Y-134482D01*
X122337Y-134207D01*
D02*
G37*
G36*
X118909D02*
X116481D01*
X116517Y-134482D01*
X116816Y-135205D01*
X117292Y-135825D01*
X117912Y-136300D01*
X118634Y-136600D01*
X118909Y-136636D01*
Y-134207D01*
D02*
G37*
G36*
X571366Y-129906D02*
Y-137295D01*
X578755D01*
X578652Y-136247D01*
X578200Y-134757D01*
X577466Y-133385D01*
X576479Y-132182D01*
X575276Y-131195D01*
X573904Y-130461D01*
X572415Y-130010D01*
X571366Y-129906D01*
D02*
G37*
G36*
X570366D02*
X569317Y-130010D01*
X567828Y-130461D01*
X566456Y-131195D01*
X565253Y-132182D01*
X564266Y-133385D01*
X563532Y-134757D01*
X563081Y-136247D01*
X562977Y-137295D01*
X570366D01*
Y-129906D01*
D02*
G37*
G36*
X19685Y-130058D02*
X18176Y-130207D01*
X16724Y-130647D01*
X15386Y-131362D01*
X14214Y-132324D01*
X13252Y-133497D01*
X12537Y-134834D01*
X12096Y-136286D01*
X11948Y-137795D01*
X12096Y-139305D01*
X12537Y-140756D01*
X13252Y-142094D01*
X14214Y-143266D01*
X15386Y-144229D01*
X16724Y-144944D01*
X18176Y-145384D01*
X19685Y-145533D01*
X21194Y-145384D01*
X22646Y-144944D01*
X23984Y-144229D01*
X25156Y-143266D01*
X26118Y-142094D01*
X26833Y-140756D01*
X27274Y-139305D01*
X27422Y-137795D01*
X27274Y-136286D01*
X26833Y-134834D01*
X26118Y-133497D01*
X25156Y-132324D01*
X23984Y-131362D01*
X22646Y-130647D01*
X21194Y-130207D01*
X19685Y-130058D01*
D02*
G37*
G36*
X578755Y-138295D02*
X571366D01*
Y-145684D01*
X572415Y-145581D01*
X573904Y-145129D01*
X575276Y-144396D01*
X576479Y-143408D01*
X577466Y-142206D01*
X578200Y-140833D01*
X578652Y-139344D01*
X578755Y-138295D01*
D02*
G37*
G36*
X570366D02*
X562977D01*
X563081Y-139344D01*
X563532Y-140833D01*
X564266Y-142206D01*
X565253Y-143408D01*
X566456Y-144396D01*
X567828Y-145129D01*
X569317Y-145581D01*
X570366Y-145684D01*
Y-138295D01*
D02*
G37*
G36*
X334646Y-97587D02*
X331907Y-97741D01*
X329203Y-98200D01*
X326567Y-98959D01*
X324033Y-100009D01*
X321632Y-101336D01*
X319395Y-102923D01*
X317350Y-104751D01*
X315522Y-106796D01*
X313934Y-109034D01*
X312608Y-111434D01*
X311558Y-113968D01*
X310798Y-116604D01*
X310339Y-119308D01*
X310185Y-122047D01*
X310339Y-124786D01*
X310798Y-127490D01*
X311558Y-130126D01*
X312608Y-132660D01*
X313934Y-135061D01*
X315522Y-137298D01*
X317350Y-139343D01*
X319395Y-141171D01*
X321632Y-142759D01*
X324033Y-144085D01*
X326567Y-145135D01*
X329203Y-145895D01*
X331907Y-146354D01*
X334646Y-146508D01*
X337384Y-146354D01*
X340089Y-145895D01*
X342724Y-145135D01*
X345259Y-144085D01*
X347659Y-142759D01*
X349897Y-141171D01*
X351942Y-139343D01*
X353770Y-137298D01*
X355357Y-135061D01*
X356684Y-132660D01*
X357734Y-130126D01*
X358493Y-127490D01*
X358952Y-124786D01*
X359106Y-122047D01*
X358952Y-119308D01*
X358493Y-116604D01*
X357734Y-113968D01*
X356684Y-111434D01*
X355357Y-109034D01*
X353770Y-106796D01*
X351942Y-104751D01*
X349897Y-102923D01*
X347659Y-101336D01*
X345259Y-100009D01*
X342724Y-98959D01*
X340089Y-98200D01*
X337384Y-97741D01*
X334646Y-97587D01*
D02*
G37*
%LPD*%
D11*
X0Y0D02*
X590551Y0D01*
X0Y-157480D02*
Y0D01*
X590551Y-157480D02*
Y0D01*
X0Y-157480D02*
X590551Y-157480D01*
D51*
X400122Y-39839D02*
X400591Y-39370D01*
X397638Y-43419D02*
Y-43307D01*
X400591Y-39370D02*
X401575D01*
X400122Y-40823D02*
Y-39839D01*
X397638Y-43307D02*
X400122Y-40823D01*
X489532Y-39839D02*
X490000Y-39370D01*
X488189Y-43307D02*
X489532Y-41965D01*
X490000Y-39370D02*
X490984D01*
X489532Y-41965D02*
Y-39839D01*
X400122Y-102831D02*
X400591Y-102362D01*
X400122Y-103815D02*
Y-102831D01*
X400591Y-102362D02*
X401575D01*
X397638Y-106299D02*
X400122Y-103815D01*
X488705Y-102831D02*
X489173Y-102362D01*
X488189Y-104331D02*
X488705Y-103815D01*
X489173Y-102362D02*
X490158D01*
X488705Y-103815D02*
Y-102831D01*
X488189Y-106299D02*
Y-104331D01*
X74803Y-28028D02*
X75272Y-27559D01*
X74803Y-31496D02*
Y-28028D01*
X75272Y-27559D02*
X75787D01*
X133858Y-28028D02*
X134327Y-27559D01*
X134843D01*
X133858Y-31496D02*
Y-28028D01*
X196850D02*
X197319Y-27559D01*
X197835D01*
X196850Y-31496D02*
Y-28028D01*
D52*
X204724Y-43307D02*
D03*
X141732D02*
D03*
X82677D02*
D03*
D53*
X204724Y-53307D02*
D03*
X507874Y-59055D02*
D03*
X503937Y-122047D02*
D03*
X413386D02*
D03*
X413386Y-58194D02*
D03*
X141732Y-53307D02*
D03*
X82677D02*
D03*
D54*
X334646Y-122047D02*
D03*
X570866Y-137795D02*
D03*
Y-19685D02*
D03*
X19685Y-137795D02*
D03*
Y-19685D02*
D03*
D55*
X497874Y-59055D02*
D03*
X493937Y-122047D02*
D03*
X403386D02*
D03*
X403386Y-58194D02*
D03*
D56*
X283465Y-19685D02*
D03*
X273465D02*
D03*
X354331D02*
D03*
X344331D02*
D03*
D57*
X263465D02*
D03*
X334331D02*
D03*
D58*
X531496Y-51181D02*
D03*
X442756Y-114173D02*
D03*
X531496D02*
D03*
X442756Y-50320D02*
D03*
X198661Y-70866D02*
D03*
X133858D02*
D03*
X72677D02*
D03*
Y-98425D02*
D03*
X198661Y-98183D02*
D03*
X133910D02*
D03*
X198661Y-125984D02*
D03*
D59*
X541496Y-51181D02*
D03*
X452756Y-114173D02*
D03*
X541496D02*
D03*
X452756Y-50320D02*
D03*
X208661Y-70866D02*
D03*
X143858D02*
D03*
X82677D02*
D03*
Y-98425D02*
D03*
X208661Y-98183D02*
D03*
X143910D02*
D03*
X208661Y-125984D02*
D03*
D60*
X513358Y-102068D02*
D03*
X514478Y-38370D02*
D03*
X424601Y-100528D02*
D03*
X421241Y-45790D02*
D03*
X98410Y-74909D02*
D03*
X103729Y-104308D02*
D03*
X94630Y-105848D02*
D03*
X119409Y-133707D02*
D03*
X220766Y-30110D02*
D03*
X155948Y-32630D02*
D03*
X94910Y-32910D02*
D03*
X252685Y-133567D02*
D03*
X263185Y-82609D02*
D03*
X255485Y-66929D02*
D03*
X304204Y-60209D02*
D03*
X301124Y-70569D02*
D03*
X304484Y-91009D02*
D03*
X303784Y-79669D02*
D03*
X326744Y-81489D02*
D03*
X330523Y-64969D02*
D03*
X370142Y-61189D02*
D03*
X367762Y-69729D02*
D03*
X371122Y-78549D02*
D03*
X371962Y-88909D02*
D03*
X472441Y-19685D02*
D03*
D61*
X460630Y-82677D02*
D03*
X374016Y-110236D02*
D03*
X381890Y-82677D02*
D03*
X389764Y-15748D02*
D03*
X244094Y-31496D02*
D03*
X307087Y-27559D02*
D03*
X318898Y-58194D02*
D03*
X240158Y-82677D02*
D03*
X161417Y-74803D02*
D03*
X82677Y-129921D02*
D03*
D62*
X397638Y-43419D02*
D03*
X488189Y-43307D02*
D03*
X397638Y-106299D02*
D03*
X488189D02*
D03*
X74803Y-31496D02*
D03*
X133858D02*
D03*
X196850D02*
D03*
D63*
X497874Y-41535D02*
D03*
X497047Y-104527D02*
D03*
X408465D02*
D03*
Y-41535D02*
D03*
X204724Y-29724D02*
D03*
X141732D02*
D03*
X82677D02*
D03*
D64*
X490984Y-39370D02*
D03*
X504764D02*
D03*
X490158Y-102362D02*
D03*
X503937D02*
D03*
X401575D02*
D03*
X415354D02*
D03*
X401575Y-39370D02*
D03*
X415354D02*
D03*
X211614Y-27559D02*
D03*
X197835D02*
D03*
X148622D02*
D03*
X134843D02*
D03*
X89567D02*
D03*
X75787D02*
D03*
M02*
