G04*
G04 #@! TF.GenerationSoftware,Altium Limited,Altium Designer,21.7.1 (17)*
G04*
G04 Layer_Color=32896*
%FSLAX25Y25*%
%MOIN*%
G70*
G04*
G04 #@! TF.SameCoordinates,69AEE675-6442-4B96-895B-D7522D75E31D*
G04*
G04*
G04 #@! TF.FilePolarity,Positive*
G04*
G01*
G75*
%ADD11C,0.01968*%
%ADD12C,0.00787*%
%ADD13C,0.02126*%
%ADD67C,0.00600*%
%ADD68C,0.00800*%
D11*
X487770Y-78059D02*
X507455D01*
X468085Y-97744D02*
X487770Y-78059D01*
X507404Y-78008D02*
X527140Y-97744D01*
Y-133531D02*
Y-97744D01*
X467875Y-133531D02*
Y-97744D01*
Y-133531D02*
X527140D01*
X487770Y-15067D02*
X507455D01*
X468085Y-34752D02*
X487770Y-15067D01*
X507404Y-15016D02*
X527140Y-34752D01*
Y-70539D02*
Y-34752D01*
X467875Y-70539D02*
Y-34752D01*
Y-70539D02*
X527140D01*
X397219Y-78059D02*
X416904D01*
X377534Y-97744D02*
X397219Y-78059D01*
X416853Y-78008D02*
X436589Y-97744D01*
Y-133531D02*
Y-97744D01*
X377324Y-133531D02*
Y-97744D01*
Y-133531D02*
X436589D01*
X376626Y-70005D02*
X435891D01*
X376626D02*
Y-34219D01*
X435891Y-70005D02*
Y-34219D01*
X416155Y-14483D02*
X435891Y-34219D01*
X51493Y-130828D02*
X51579Y-130914D01*
X51493Y-130828D02*
Y-23310D01*
X376836Y-34219D02*
X396521Y-14534D01*
X416206D01*
X176480Y-23622D02*
X196165Y-3937D01*
X215850D01*
X235535Y-130181D02*
Y-23622D01*
X215799Y-3886D02*
X235535Y-23622D01*
X113565Y-23445D02*
X133250Y-3760D01*
X152936D01*
X172620Y-130005D02*
Y-23445D01*
X152884Y-3709D02*
X172620Y-23445D01*
X90500Y-3886D02*
X110236Y-23622D01*
Y-130181D02*
Y-23622D01*
X70866Y-3937D02*
X90551D01*
X51493Y-23310D02*
X70866Y-3937D01*
X0Y0D02*
X590551Y0D01*
X0Y-157480D02*
Y0D01*
X590551Y-157480D02*
Y0D01*
X0Y-157480D02*
X590551Y-157480D01*
D12*
X199724Y-58307D02*
Y-38307D01*
Y-58307D02*
X209724D01*
Y-38307D01*
X199724D02*
X209724D01*
X492874Y-64055D02*
Y-54055D01*
X512874D01*
Y-64055D02*
Y-54055D01*
X492874Y-64055D02*
X512874D01*
X488937Y-127047D02*
Y-117047D01*
X508937D01*
Y-127047D02*
Y-117047D01*
X488937Y-127047D02*
X508937D01*
X398386D02*
Y-117047D01*
X418386D01*
Y-127047D02*
Y-117047D01*
X398386Y-127047D02*
X418386D01*
X398386Y-63194D02*
Y-53194D01*
X418386D01*
Y-63194D02*
Y-53194D01*
X398386Y-63194D02*
X418386D01*
X136732Y-58307D02*
Y-38307D01*
Y-58307D02*
X146732D01*
Y-38307D01*
X136732D02*
X146732D01*
X77677Y-58307D02*
Y-38307D01*
Y-58307D02*
X87677D01*
Y-38307D01*
X77677D02*
X87677D01*
D13*
X427008Y-95438D02*
X421760D01*
X419136D02*
X413889D01*
X411265D02*
X406017D01*
X403393D02*
X398146D01*
X395522D02*
X390274D01*
X517559D02*
X512311D01*
X509688D02*
X504440D01*
X501816D02*
X496568D01*
X493945D02*
X488697D01*
X486073D02*
X480826D01*
X517559Y-32446D02*
X512311D01*
X509688D02*
X504440D01*
X501816D02*
X496568D01*
X493945D02*
X488697D01*
X486073D02*
X480826D01*
X427008Y-32446D02*
X421760D01*
X419136D02*
X413889D01*
X411265D02*
X406017D01*
X403393D02*
X398146D01*
X395522D02*
X390274D01*
X207888Y-9679D02*
X213136D01*
Y-13615D01*
X210512Y-12303D01*
X209200D01*
X207888Y-13615D01*
Y-16239D01*
X209200Y-17550D01*
X211824D01*
X213136Y-16239D01*
X205264Y-9679D02*
Y-14927D01*
X202640Y-17550D01*
X200016Y-14927D01*
Y-9679D01*
X149431Y-9535D02*
X144183D01*
Y-10847D01*
X149431Y-16094D01*
Y-17406D01*
X141560Y-9535D02*
Y-14783D01*
X138936Y-17406D01*
X136312Y-14783D01*
Y-9535D01*
X90644Y-17729D02*
X88020D01*
X89332D01*
Y-9857D01*
X90644Y-11169D01*
X78837Y-17729D02*
X84085D01*
X78837Y-12481D01*
Y-11169D01*
X80149Y-9857D01*
X82773D01*
X84085Y-11169D01*
X76213Y-9857D02*
Y-15105D01*
X73589Y-17729D01*
X70965Y-15105D01*
Y-9857D01*
D67*
X510874Y-37370D02*
G03*
X510874Y-37370I-500J0D01*
G01*
X510047Y-100362D02*
G03*
X510047Y-100362I-500J0D01*
G01*
X421465D02*
G03*
X421465Y-100362I-500J0D01*
G01*
Y-37370D02*
G03*
X421465Y-37370I-500J0D01*
G01*
X217724Y-25559D02*
G03*
X217724Y-25559I-500J0D01*
G01*
X154732D02*
G03*
X154732Y-25559I-500J0D01*
G01*
X95677D02*
G03*
X95677Y-25559I-500J0D01*
G01*
D68*
X491575Y-44488D02*
X504173D01*
X491276Y-36370D02*
X503874D01*
X491575Y-44488D02*
Y-42520D01*
X504173Y-44488D02*
Y-42520D01*
X490748Y-107480D02*
X503346D01*
X490449Y-99362D02*
X503047D01*
X490748Y-107480D02*
Y-105512D01*
X503346Y-107480D02*
Y-105512D01*
X402165Y-107480D02*
X414764D01*
X401866Y-99362D02*
X414465D01*
X402165Y-107480D02*
Y-105512D01*
X414764Y-107480D02*
Y-105512D01*
X402165Y-44488D02*
X414764D01*
X401866Y-36370D02*
X414465D01*
X402165Y-44488D02*
Y-42520D01*
X414764Y-44488D02*
Y-42520D01*
X211024Y-32677D02*
Y-30709D01*
X198425Y-32677D02*
Y-30709D01*
X198126Y-24559D02*
X210724D01*
X198425Y-32677D02*
X211024D01*
X148031D02*
Y-30709D01*
X135433Y-32677D02*
Y-30709D01*
X135134Y-24559D02*
X147732D01*
X135433Y-32677D02*
X148031D01*
X88976D02*
Y-30709D01*
X76378Y-32677D02*
Y-30709D01*
X76079Y-24559D02*
X88677D01*
X76378Y-32677D02*
X88976D01*
M02*
