G04*
G04 #@! TF.GenerationSoftware,Altium Limited,Altium Designer,21.7.1 (17)*
G04*
G04 Layer_Color=8421504*
%FSLAX25Y25*%
%MOIN*%
G70*
G04*
G04 #@! TF.SameCoordinates,69AEE675-6442-4B96-895B-D7522D75E31D*
G04*
G04*
G04 #@! TF.FilePolarity,Positive*
G04*
G01*
G75*
%ADD11C,0.01968*%
%ADD18R,0.04528X0.07087*%
%ADD19R,0.05709X0.04724*%
%ADD20R,0.03740X0.06693*%
%ADD21R,0.10827X0.05034*%
%ADD22R,0.05118X0.06102*%
%ADD23R,0.04724X0.07874*%
%ADD24R,0.07087X0.04528*%
%ADD25R,0.11614X0.10039*%
%ADD26R,0.06102X0.05118*%
%ADD27R,0.06693X0.03740*%
%ADD28R,0.10039X0.11614*%
D11*
X0Y0D02*
X590551Y0D01*
X0Y-157480D02*
Y0D01*
X590551Y-157480D02*
Y0D01*
X0Y-157480D02*
X590551Y-157480D01*
D18*
X288798Y-90391D02*
D03*
X300609D02*
D03*
X368110Y-88631D02*
D03*
X356299D02*
D03*
D19*
X273465Y-70866D02*
D03*
Y-78740D02*
D03*
X263465Y-70866D02*
D03*
Y-78740D02*
D03*
X342520D02*
D03*
Y-70866D02*
D03*
X330709Y-78740D02*
D03*
Y-70866D02*
D03*
X484252Y-54257D02*
D03*
Y-62131D02*
D03*
X389764Y-114173D02*
D03*
Y-122047D02*
D03*
X480315Y-114173D02*
D03*
Y-122047D02*
D03*
X389764Y-54257D02*
D03*
Y-62131D02*
D03*
X66929Y-51181D02*
D03*
Y-43307D02*
D03*
X188976D02*
D03*
Y-51181D02*
D03*
X125984Y-43307D02*
D03*
Y-51181D02*
D03*
D20*
X289191Y-79884D02*
D03*
X300215D02*
D03*
X367717Y-78740D02*
D03*
X356693D02*
D03*
D21*
X287402Y-43307D02*
D03*
Y-61417D02*
D03*
X273465D02*
D03*
Y-43307D02*
D03*
X358268Y-61417D02*
D03*
Y-43307D02*
D03*
X344331Y-61417D02*
D03*
Y-43307D02*
D03*
X98425Y-52756D02*
D03*
Y-70866D02*
D03*
D22*
X296850D02*
D03*
X288976D02*
D03*
X356018Y-70005D02*
D03*
X363892D02*
D03*
D23*
X255906Y-50394D02*
D03*
Y-61417D02*
D03*
X330709Y-59055D02*
D03*
Y-48031D02*
D03*
D24*
X303150Y-45276D02*
D03*
Y-57087D02*
D03*
X370079Y-45276D02*
D03*
Y-57087D02*
D03*
D25*
X125492Y-125984D02*
D03*
X150098D02*
D03*
D26*
X103739Y-92252D02*
D03*
Y-100126D02*
D03*
D27*
X94488Y-102362D02*
D03*
Y-91339D02*
D03*
D28*
X251969Y-125984D02*
D03*
Y-101378D02*
D03*
M02*
