G04*
G04 #@! TF.GenerationSoftware,Altium Limited,Altium Designer,21.7.1 (17)*
G04*
G04 Layer_Color=16711935*
%FSLAX25Y25*%
%MOIN*%
G70*
G04*
G04 #@! TF.SameCoordinates,69AEE675-6442-4B96-895B-D7522D75E31D*
G04*
G04*
G04 #@! TF.FilePolarity,Negative*
G04*
G01*
G75*
%ADD11C,0.01968*%
%ADD40R,0.07099X0.07099*%
%ADD41C,0.07099*%
%ADD42C,0.13800*%
%ADD43R,0.07099X0.07099*%
%ADD44C,0.07099*%
%ADD45R,0.07099X0.07099*%
%ADD46C,0.06706*%
%ADD47R,0.06706X0.06706*%
%ADD48C,0.04737*%
%ADD49C,0.06312*%
%ADD50C,0.03556*%
%ADD65R,0.04737X0.04343*%
%ADD66R,0.06706X0.04737*%
D11*
X0Y0D02*
X590551Y0D01*
X0Y-157480D02*
Y0D01*
X590551Y-157480D02*
Y0D01*
X0Y-157480D02*
X590551Y-157480D01*
D40*
X204724Y-43307D02*
D03*
X141732D02*
D03*
X82677D02*
D03*
D41*
X204724Y-53307D02*
D03*
X507874Y-59055D02*
D03*
X503937Y-122047D02*
D03*
X413386D02*
D03*
X413386Y-58194D02*
D03*
X141732Y-53307D02*
D03*
X82677D02*
D03*
D42*
X334646Y-122047D02*
D03*
X570866Y-137795D02*
D03*
Y-19685D02*
D03*
X19685Y-137795D02*
D03*
Y-19685D02*
D03*
D43*
X497874Y-59055D02*
D03*
X493937Y-122047D02*
D03*
X403386D02*
D03*
X403386Y-58194D02*
D03*
D44*
X283465Y-19685D02*
D03*
X273465D02*
D03*
X354331D02*
D03*
X344331D02*
D03*
D45*
X263465D02*
D03*
X334331D02*
D03*
D46*
X531496Y-51181D02*
D03*
X442756Y-114173D02*
D03*
X531496D02*
D03*
X442756Y-50320D02*
D03*
X198661Y-70866D02*
D03*
X133858D02*
D03*
X72677D02*
D03*
Y-98425D02*
D03*
X198661Y-98183D02*
D03*
X133910D02*
D03*
X198661Y-125984D02*
D03*
D47*
X541496Y-51181D02*
D03*
X452756Y-114173D02*
D03*
X541496D02*
D03*
X452756Y-50320D02*
D03*
X208661Y-70866D02*
D03*
X143858D02*
D03*
X82677D02*
D03*
Y-98425D02*
D03*
X208661Y-98183D02*
D03*
X143910D02*
D03*
X208661Y-125984D02*
D03*
D48*
X513358Y-102068D02*
D03*
X514478Y-38370D02*
D03*
X424601Y-100528D02*
D03*
X421241Y-45790D02*
D03*
X98410Y-74909D02*
D03*
X103729Y-104308D02*
D03*
X94630Y-105848D02*
D03*
X119409Y-133707D02*
D03*
X220766Y-30110D02*
D03*
X155948Y-32630D02*
D03*
X94910Y-32910D02*
D03*
X252685Y-133567D02*
D03*
X263185Y-82609D02*
D03*
X255485Y-66929D02*
D03*
X304204Y-60209D02*
D03*
X301124Y-70569D02*
D03*
X304484Y-91009D02*
D03*
X303784Y-79669D02*
D03*
X326744Y-81489D02*
D03*
X330523Y-64969D02*
D03*
X370142Y-61189D02*
D03*
X367762Y-69729D02*
D03*
X371122Y-78549D02*
D03*
X371962Y-88909D02*
D03*
X472441Y-19685D02*
D03*
D49*
X460630Y-82677D02*
D03*
X374016Y-110236D02*
D03*
X381890Y-82677D02*
D03*
X389764Y-15748D02*
D03*
X244094Y-31496D02*
D03*
X307087Y-27559D02*
D03*
X318898Y-58194D02*
D03*
X240158Y-82677D02*
D03*
X161417Y-74803D02*
D03*
X82677Y-129921D02*
D03*
D50*
X397638Y-43419D02*
D03*
X488189Y-43307D02*
D03*
X397638Y-106299D02*
D03*
X488189D02*
D03*
X74803Y-31496D02*
D03*
X133858D02*
D03*
X196850D02*
D03*
D65*
X497874Y-41535D02*
D03*
X497047Y-104527D02*
D03*
X408465D02*
D03*
Y-41535D02*
D03*
X204724Y-29724D02*
D03*
X141732D02*
D03*
X82677D02*
D03*
D66*
X490984Y-39370D02*
D03*
X504764D02*
D03*
X490158Y-102362D02*
D03*
X503937D02*
D03*
X401575D02*
D03*
X415354D02*
D03*
X401575Y-39370D02*
D03*
X415354D02*
D03*
X211614Y-27559D02*
D03*
X197835D02*
D03*
X148622D02*
D03*
X134843D02*
D03*
X89567D02*
D03*
X75787D02*
D03*
M02*
